<svg height="512" viewBox="0 0 512 512" width="512" xmlns="http://www.w3.org/2000/svg">
    <g fill="none" fill-rule="evenodd"><path d="m0 0h512v512h-512z" fill="#fff"/>
        <path d="m0 0 512 512m0-512-512 512m33-512v512m126-512v512m97-512v512m97-512v512m126-512v512m-479-33h512m-512-126h512m-512-97h512m-512-97h512m-512-126h512m-256 446c123.159499 0 223-99.840501 223-223s-99.840501-223-223-223-223 99.840501-223 223 99.840501 223 223 223zm0-86c75.663011 0 137-61.336989 137-137s-61.336989-137-137-137-137 61.336989-137 137 61.336989 137 137 137zm0-40c53.571621 0 97-43.428379 97-97s-43.428379-97-97-97-97 43.428379-97 97 43.428379 97 97 97z" stroke="#08f" stroke-linecap="square" stroke-width="2"/>
    </g>
</svg>
