<svg width="556" height="404" viewBox="0 0 556 404" fill="none" xmlns="http://www.w3.org/2000/svg">
<g filter="url(#filter0_dd)">
<rect x="8" y="7" width="540" height="388" rx="10" fill="white"/>
</g>
<path fill-rule="evenodd" clip-rule="evenodd" d="M59.81 167.12L67 167.74L61.55 172.47L63.18 179.5L57 175.77L50.82 179.5L52.46 172.47L47 167.74L54.19 167.13L57 160.5L59.81 167.12ZM53.24 176.17L57 173.9L60.77 176.18L59.77 171.9L63.09 169.02L58.71 168.64L57 164.6L55.3 168.63L50.92 169.01L54.24 171.89L53.24 176.17Z" fill="#6236FF"/>
<rect x="386" y="43" width="134" height="41" fill="#BEBEC0" fill-opacity="0.12123"/>
<path fill-rule="evenodd" clip-rule="evenodd" d="M412 56.915C413.09 55.635 414.76 54.825 416.5 54.825C419.58 54.825 422 57.245 422 60.325C422 64.1018 418.606 67.1799 413.463 71.8435L413.45 71.855L412 73.175L410.55 71.865L410.511 71.8291C405.383 67.1692 402 64.0953 402 60.325C402 57.245 404.42 54.825 407.5 54.825C409.24 54.825 410.91 55.635 412 56.915ZM412 70.475L412.1 70.375C416.86 66.065 420 63.215 420 60.325C420 58.325 418.5 56.825 416.5 56.825C414.96 56.825 413.46 57.815 412.94 59.185H411.07C410.54 57.815 409.04 56.825 407.5 56.825C405.5 56.825 404 58.325 404 60.325C404 63.215 407.14 66.065 411.9 70.375L412 70.475Z" fill="#6236FF"/>
<path d="M438.814 69.221C441.228 69.221 443.115 67.827 443.115 65.651C443.115 63.594 441.874 62.557 439.171 61.979C437.607 61.639 436.74 61.299 436.74 60.364C436.74 59.259 437.607 58.715 438.814 58.715C440.072 58.715 440.65 59.378 440.956 60.568L442.877 60.024C442.367 58.035 440.956 56.845 438.814 56.845C436.383 56.845 434.683 58.29 434.683 60.364C434.683 62.404 436.128 63.424 438.797 63.934C440.582 64.274 441.058 64.852 441.058 65.651C441.058 66.773 440.123 67.351 438.814 67.351C437.352 67.351 436.689 66.654 436.298 65.328L434.36 65.906C434.938 68.048 436.519 69.221 438.814 69.221ZM444.588 72.417H446.628V68.048C447.087 68.643 447.971 69.238 449.263 69.238C451.694 69.238 453.36 67.249 453.36 64.767C453.36 62.285 451.609 60.279 449.246 60.279C447.835 60.279 446.968 60.976 446.543 61.554L446.271 60.517H444.588V72.417ZM446.628 64.767C446.628 63.22 447.597 62.115 448.957 62.115C450.317 62.115 451.32 63.22 451.32 64.767C451.32 66.297 450.317 67.402 448.957 67.402C447.597 67.402 446.628 66.314 446.628 64.767ZM463.553 64.75C463.553 62.251 461.683 60.279 459.15 60.279C456.617 60.279 454.747 62.251 454.747 64.75C454.747 67.266 456.583 69.238 459.15 69.238C461.683 69.238 463.553 67.266 463.553 64.75ZM456.787 64.75C456.787 63.254 457.773 62.166 459.15 62.166C460.493 62.166 461.513 63.254 461.513 64.75C461.513 66.263 460.493 67.351 459.15 67.351C457.773 67.351 456.787 66.263 456.787 64.75ZM471.112 69H473.152V63.866C473.152 61.384 472.03 60.279 470.109 60.279C468.851 60.279 468.052 60.84 467.525 61.537L467.236 60.517H465.553V69H467.593V64.342C467.593 62.897 468.426 62.166 469.463 62.166C470.415 62.166 471.112 62.642 471.112 64.138V69ZM483.005 62.829C482.648 61.214 481.39 60.279 479.571 60.279C477.378 60.279 476.069 61.452 476.069 62.914C476.069 64.716 477.616 65.243 479.537 65.566C480.914 65.804 481.288 66.144 481.288 66.586C481.288 67.215 480.642 67.572 479.571 67.572C478.347 67.572 477.82 66.858 477.599 66.042L475.814 66.586C476.222 68.235 477.565 69.238 479.571 69.238C481.832 69.238 483.226 68.065 483.226 66.552C483.226 64.818 481.917 64.138 479.945 63.832C478.67 63.645 478.007 63.407 478.007 62.829C478.007 62.37 478.466 61.945 479.588 61.945C480.659 61.945 481.101 62.625 481.237 63.288L483.005 62.829ZM494.133 64.75C494.133 62.251 492.263 60.279 489.73 60.279C487.197 60.279 485.327 62.251 485.327 64.75C485.327 67.266 487.163 69.238 489.73 69.238C492.263 69.238 494.133 67.266 494.133 64.75ZM487.367 64.75C487.367 63.254 488.353 62.166 489.73 62.166C491.073 62.166 492.093 63.254 492.093 64.75C492.093 66.263 491.073 67.351 489.73 67.351C488.353 67.351 487.367 66.263 487.367 64.75ZM501.607 60.279C500.315 60.279 499.38 60.908 499.04 61.384L498.904 60.517H495.81V62.302H497.816V67.198H495.81V69H501.845V67.198H499.771V64.104C499.771 62.727 500.417 62.081 501.352 62.081C502.253 62.081 502.627 62.795 502.678 63.322L504.446 62.727C504.276 61.673 503.375 60.279 501.607 60.279Z" fill="black"/>
<path fill-rule="evenodd" clip-rule="evenodd" d="M54 142C55.93 142 57.5 140.43 57.5 138.5C57.5 136.57 55.93 135 54 135C52.07 135 50.5 136.57 50.5 138.5C50.5 140.43 52.07 142 54 142ZM54 137C54.83 137 55.5 137.67 55.5 138.5C55.5 139.33 54.83 140 54 140C53.17 140 52.5 139.33 52.5 138.5C52.5 137.67 53.17 137 54 137ZM49.77 147H54.05C54.02 147.16 54 147.33 54 147.5V149H47V147.5C47 145.17 51.66 144 54 144C54.56 144 55.25 144.07 55.98 144.2C55.27 144.68 54.68 145.28 54.34 146.01C54.285 146.01 54.2275 146.008 54.1701 146.005L54.17 146.005L54.1699 146.005C54.1125 146.002 54.055 146 54 146C52.47 146 50.76 146.5 49.77 147ZM61.5 144.5C59.66 144.5 56 145.51 56 147.5V149H67V147.5C67 145.51 63.34 144.5 61.5 144.5ZM64 140.5C64 141.44 63.47 142.25 62.71 142.68C62.35 142.88 61.94 143 61.5 143C61.06 143 60.65 142.88 60.29 142.68C59.53 142.25 59 141.44 59 140.5C59 139.12 60.12 138 61.5 138C62.88 138 64 139.12 64 140.5Z" fill="#6236FF"/>
<g style="mix-blend-mode:multiply">
<path d="M155.715 289.585C175.522 289.293 248.277 289.877 303.917 291.84" stroke="#ECE7FF" stroke-width="25"/>
</g>
<g style="mix-blend-mode:multiply">
<path d="M382.715 263.585C400.296 263.193 464.864 263.409 514.235 265.091" stroke="#ECE7FF" stroke-width="25"/>
</g>
<path d="M40.54 270H42.54V256H40.54V270ZM45.3781 270H47.3381V264.48C47.3381 262.66 48.4981 261.66 49.8381 261.66C51.0381 261.66 51.9581 262.18 51.9581 264.12V270H53.9181V263.78C53.9181 261.04 52.5581 259.82 50.4381 259.82C49.0181 259.82 47.9981 260.42 47.2981 261.36L46.9981 260.1H45.3781V270ZM65.6164 270.28C66.8564 270.28 67.5764 269.8 67.8564 269.48L66.9564 268.08C66.7764 268.26 66.4564 268.46 65.9964 268.46C65.3364 268.46 64.9564 268.12 64.9564 267.3V261.86H67.6364V260.1H64.9564V257.52H62.9964V260.1H61.2164V261.86H62.9964V267.54C62.9964 269.3 64.0964 270.28 65.6164 270.28ZM69.5773 270H71.5173V264.5C71.5173 262.66 72.6973 261.66 74.0173 261.66C75.2373 261.66 76.1373 262.18 76.1373 264.12V270H78.0973V263.78C78.0973 261.04 76.7373 259.82 74.6373 259.82C73.2573 259.82 72.2173 260.38 71.5173 261.3V256H69.5773V270ZM89.8306 265.66V264.88C89.8306 261.86 87.9906 259.84 85.1706 259.84C82.3506 259.84 80.2306 262.12 80.2306 265.04C80.2306 268 82.2706 270.28 85.1906 270.28C87.5906 270.28 89.0306 268.98 89.5706 267.46L87.8906 266.92C87.6106 267.76 86.6706 268.64 85.1906 268.64C83.4306 268.64 82.2306 267.26 82.1306 265.66H89.8306ZM88.0706 264.12H82.1506C82.3706 262.72 83.4306 261.48 85.1906 261.48C86.9506 261.48 87.9706 262.8 88.0706 264.12ZM97.3852 270H100.225V256H97.3852V270ZM105.404 270.28C107.024 270.28 107.724 269.62 108.064 269.16L108.404 270H110.744V263.44C110.744 260.68 108.604 259.64 106.484 259.64C103.964 259.64 102.744 260.66 102.124 262.7L104.604 263.3C104.764 262.36 105.284 261.88 106.364 261.88C107.464 261.88 107.904 262.5 107.904 263.5V263.56L106.024 263.82C102.584 264.28 101.984 265.82 101.984 267.14C101.984 269.22 103.724 270.28 105.404 270.28ZM106.224 268.02C105.244 268.02 104.704 267.58 104.704 266.96C104.704 266.3 105.044 265.86 106.164 265.7L107.904 265.44V266.52C107.904 267.44 107.164 268.02 106.224 268.02ZM116.576 270.28C119.236 270.28 120.736 268.76 120.736 266.98C120.736 264.94 119.276 264.14 116.976 263.72C115.736 263.48 115.176 263.26 115.176 262.72C115.176 262.24 115.696 261.88 116.596 261.88C117.576 261.88 117.936 262.56 118.096 263.16L120.436 262.5C119.996 260.68 118.556 259.64 116.576 259.64C113.896 259.64 112.556 261.24 112.556 262.88C112.556 265.04 114.316 265.7 116.476 266.08C117.576 266.26 118.116 266.56 118.116 267.06C118.116 267.66 117.556 268.04 116.576 268.04C115.536 268.04 114.956 267.44 114.736 266.54L112.336 267.3C112.796 269.08 114.336 270.28 116.576 270.28ZM126.522 270.28C128.022 270.28 128.842 269.7 129.162 269.34L128.042 267.3C127.862 267.48 127.602 267.64 127.182 267.64C126.642 267.64 126.342 267.32 126.342 266.68V262.4H128.742V259.92H126.342V257.3H123.502V259.92H121.822V262.4H123.502V267.12C123.502 269.24 124.922 270.28 126.522 270.28ZM140.736 270.28C143.736 270.28 145.896 268.24 145.896 265.42C145.896 262.66 144.276 261.34 142.616 261.04L144.976 258.68V256H136.256V258.68H141.596L138.456 261.64L139.916 263.38C140.156 263.28 140.456 263.24 140.736 263.24C142.096 263.24 143.016 264.14 143.016 265.42C143.016 266.68 142.076 267.6 140.736 267.6C139.376 267.6 138.456 266.58 138.416 265.32L135.756 266.1C135.776 268.34 137.716 270.28 140.736 270.28ZM152.756 270.26C156.336 270.26 158.016 267.04 158.016 262.96C158.016 258.86 156.316 255.7 152.716 255.7C149.116 255.7 147.416 258.86 147.416 262.96C147.416 267.12 149.116 270.26 152.756 270.26ZM152.756 267.58C151.016 267.58 150.296 265.8 150.296 262.98C150.296 260.26 150.996 258.38 152.716 258.38C154.396 258.38 155.136 260.26 155.136 262.98C155.136 265.76 154.396 267.58 152.756 267.58ZM170.011 270.28C171.631 270.28 172.611 269.44 173.031 268.88L173.411 270H175.751V256H172.911V260.9C172.451 260.32 171.451 259.64 169.971 259.64C167.271 259.64 165.071 261.84 165.071 264.96C165.071 268.08 167.311 270.28 170.011 270.28ZM170.431 267.72C169.031 267.72 167.911 266.58 167.911 264.96C167.911 263.36 169.031 262.2 170.431 262.2C171.851 262.2 172.911 263.32 172.911 264.96C172.911 266.58 171.851 267.72 170.431 267.72ZM180.932 270.28C182.552 270.28 183.252 269.62 183.592 269.16L183.932 270H186.272V263.44C186.272 260.68 184.132 259.64 182.012 259.64C179.492 259.64 178.272 260.66 177.652 262.7L180.132 263.3C180.292 262.36 180.812 261.88 181.892 261.88C182.992 261.88 183.432 262.5 183.432 263.5V263.56L181.552 263.82C178.112 264.28 177.512 265.82 177.512 267.14C177.512 269.22 179.252 270.28 180.932 270.28ZM181.752 268.02C180.772 268.02 180.232 267.58 180.232 266.96C180.232 266.3 180.572 265.86 181.692 265.7L183.432 265.44V266.52C183.432 267.44 182.692 268.02 181.752 268.02ZM194.884 259.92V264.9C194.884 266.46 194.104 267.18 192.964 267.18C191.864 267.18 191.184 266.62 191.184 264.98V259.92H188.344V265.32C188.344 268.42 189.664 269.82 192.044 269.82C193.504 269.82 194.284 269.24 194.884 268.54V269.44C194.884 271.06 193.984 271.8 192.744 271.8C191.644 271.8 191.064 271.26 190.904 270.46L188.284 270.98C188.764 272.76 190.164 274.2 192.744 274.2C195.664 274.2 197.684 272.56 197.724 269.5V259.92H194.884ZM203.744 270.28C206.404 270.28 207.904 268.76 207.904 266.98C207.904 264.94 206.444 264.14 204.144 263.72C202.904 263.48 202.344 263.26 202.344 262.72C202.344 262.24 202.864 261.88 203.764 261.88C204.744 261.88 205.104 262.56 205.264 263.16L207.604 262.5C207.164 260.68 205.724 259.64 203.744 259.64C201.064 259.64 199.724 261.24 199.724 262.88C199.724 265.04 201.484 265.7 203.644 266.08C204.744 266.26 205.284 266.56 205.284 267.06C205.284 267.66 204.724 268.04 203.744 268.04C202.704 268.04 202.124 267.44 201.904 266.54L199.504 267.3C199.964 269.08 201.504 270.28 203.744 270.28ZM224.635 265.66V264.88C224.635 261.86 222.795 259.84 219.975 259.84C217.155 259.84 215.035 262.12 215.035 265.04C215.035 268 217.075 270.28 219.995 270.28C222.395 270.28 223.835 268.98 224.375 267.46L222.695 266.92C222.415 267.76 221.475 268.64 219.995 268.64C218.235 268.64 217.035 267.26 216.935 265.66H224.635ZM222.875 264.12H216.955C217.175 262.72 218.235 261.48 219.995 261.48C221.755 261.48 222.775 262.8 222.875 264.12ZM234.678 270L231.078 265L234.578 260.1H232.418L229.958 263.58L227.498 260.1H225.318L228.838 265.02L225.238 270H227.398L229.958 266.44L232.498 270H234.678ZM240.271 270.28C242.451 270.28 243.971 268.98 244.631 267.22L242.851 266.62C242.451 267.76 241.511 268.48 240.271 268.48C238.451 268.48 237.171 267.04 237.171 265.06C237.171 263.06 238.451 261.62 240.271 261.62C241.531 261.62 242.471 262.34 242.851 263.5L244.651 262.9C244.051 261.12 242.531 259.82 240.271 259.82C237.191 259.82 235.211 262.24 235.211 265.06C235.211 267.84 237.151 270.28 240.271 270.28ZM246.823 270H248.783V256H246.823V270ZM259.914 260.1H257.954V265.64C257.954 267.46 256.794 268.46 255.454 268.46C254.254 268.46 253.334 267.92 253.334 266V260.1H251.374V266.34C251.374 269.08 252.754 270.28 254.854 270.28C256.274 270.28 257.294 269.68 257.994 268.74L258.294 270H259.914V260.1ZM266.69 270.26C268.37 270.26 269.45 269.46 270.03 268.66L270.29 270H271.91V256H269.95V261.38C269.33 260.54 268.23 259.82 266.67 259.82C263.67 259.82 261.93 262.3 261.93 265.04C261.93 267.76 263.83 270.26 266.69 270.26ZM266.93 268.5C265.15 268.5 263.89 267.04 263.89 265.04C263.89 263.02 265.15 261.58 266.93 261.58C268.73 261.58 269.95 263.02 269.95 265.04C269.95 267.04 268.73 268.5 266.93 268.5ZM275.599 258.64C276.299 258.64 276.859 258.08 276.859 257.36C276.859 256.66 276.299 256.08 275.599 256.08C274.879 256.08 274.299 256.66 274.299 257.36C274.299 258.08 274.879 258.64 275.599 258.64ZM274.619 270H276.579V260.1H274.619V270ZM279.284 270H281.244V264.48C281.244 262.66 282.404 261.66 283.744 261.66C284.944 261.66 285.864 262.18 285.864 264.12V270H287.824V263.78C287.824 261.04 286.464 259.82 284.344 259.82C282.924 259.82 281.904 260.42 281.204 261.36L280.904 260.1H279.284V270ZM294.877 274.36C298.277 274.36 299.837 272.3 299.837 269.82V260.1H298.197L297.877 261.4C297.337 260.6 296.297 259.82 294.637 259.82C291.777 259.82 289.957 262.24 289.957 264.94C289.957 267.64 291.697 270 294.657 270C296.257 270 297.377 269.22 297.877 268.38V269.86C297.877 271.62 296.857 272.68 294.877 272.68C293.357 272.68 292.537 271.92 292.237 270.74L290.397 271.18C290.917 273 292.297 274.36 294.877 274.36ZM294.917 268.24C293.157 268.24 291.917 266.94 291.917 264.94C291.917 262.94 293.137 261.58 294.897 261.58C296.637 261.58 297.877 262.94 297.877 264.94C297.877 266.94 296.637 268.24 294.917 268.24ZM308.034 270H309.994V264.4C309.994 262.58 311.074 261.66 312.294 261.66C313.374 261.66 314.214 262.22 314.214 264.04V270H316.174V264.4C316.174 262.58 317.234 261.66 318.454 261.66C319.614 261.66 320.394 262.22 320.394 264.04V270H322.354V263.42C322.354 260.9 320.954 259.82 319.134 259.82C317.614 259.82 316.514 260.52 315.834 261.44C315.414 260.54 314.514 259.82 313.054 259.82C311.654 259.82 310.594 260.44 309.934 261.36L309.654 260.1H308.034V270ZM334.088 265.66V264.88C334.088 261.86 332.248 259.84 329.428 259.84C326.608 259.84 324.488 262.12 324.488 265.04C324.488 268 326.528 270.28 329.448 270.28C331.848 270.28 333.288 268.98 333.828 267.46L332.148 266.92C331.868 267.76 330.928 268.64 329.448 268.64C327.688 268.64 326.488 267.26 326.388 265.66H334.088ZM332.328 264.12H326.408C326.628 262.72 327.688 261.48 329.448 261.48C331.208 261.48 332.228 262.8 332.328 264.12ZM336.238 270H338.198V264.52C338.198 262.74 339.218 261.68 340.478 261.68C341.118 261.68 341.558 261.88 341.758 262.04L342.518 260.32C342.198 260.08 341.578 259.82 340.738 259.82C339.478 259.82 338.578 260.58 338.158 261.34L337.858 260.1H336.238V270ZM347.944 274.36C351.344 274.36 352.904 272.3 352.904 269.82V260.1H351.264L350.944 261.4C350.404 260.6 349.364 259.82 347.704 259.82C344.844 259.82 343.024 262.24 343.024 264.94C343.024 267.64 344.764 270 347.724 270C349.324 270 350.444 269.22 350.944 268.38V269.86C350.944 271.62 349.924 272.68 347.944 272.68C346.424 272.68 345.604 271.92 345.304 270.74L343.464 271.18C343.984 273 345.364 274.36 347.944 274.36ZM347.984 268.24C346.224 268.24 344.984 266.94 344.984 264.94C344.984 262.94 346.204 261.58 347.964 261.58C349.704 261.58 350.944 262.94 350.944 264.94C350.944 266.94 349.704 268.24 347.984 268.24ZM364.635 265.66V264.88C364.635 261.86 362.795 259.84 359.975 259.84C357.155 259.84 355.035 262.12 355.035 265.04C355.035 268 357.075 270.28 359.995 270.28C362.395 270.28 363.835 268.98 364.375 267.46L362.695 266.92C362.415 267.76 361.475 268.64 359.995 268.64C358.235 268.64 357.035 267.26 356.935 265.66H364.635ZM362.875 264.12H356.955C357.175 262.72 358.235 261.48 359.995 261.48C361.755 261.48 362.775 262.8 362.875 264.12ZM370.287 270.28C372.567 270.28 374.207 269 374.207 267.22C374.207 265.26 372.747 264.52 370.607 264.12C369.287 263.88 368.407 263.6 368.407 262.76C368.407 262.16 368.887 261.5 370.287 261.5C371.547 261.5 372.087 262.32 372.287 263.2L374.027 262.7C373.627 260.92 372.307 259.84 370.287 259.84C368.127 259.84 366.547 261.04 366.547 262.84C366.547 264.84 368.267 265.48 370.267 265.84C372.107 266.16 372.347 266.72 372.347 267.24C372.347 268.12 371.487 268.62 370.287 268.62C368.727 268.62 368.227 267.62 367.967 266.74L366.207 267.28C366.747 269.24 368.167 270.28 370.287 270.28ZM375.659 271.94L376.499 272.64C377.619 271.6 378.159 269.98 378.159 268.98C378.159 267.94 377.519 267.46 376.799 267.46C376.099 267.46 375.479 268.02 375.479 268.82C375.479 269.46 375.879 269.88 376.459 270.08C376.439 270.66 376.059 271.44 375.659 271.94ZM413.458 270H422.958V267.32H417.618L420.278 265.04C421.878 263.66 422.938 262.36 422.938 260.24C422.938 257.62 420.738 255.72 418.058 255.72C415.398 255.72 413.338 257.46 413.178 260.1L415.858 260.84C415.818 259.36 416.658 258.4 418.058 258.4C419.298 258.4 420.058 259.3 420.058 260.28C420.058 261.4 419.558 262.08 418.238 263.2L413.458 267.32V270ZM429.467 270.28C432.467 270.28 434.627 268.24 434.627 265.42C434.627 262.66 433.007 261.34 431.347 261.04L433.707 258.68V256H424.987V258.68H430.327L427.187 261.64L428.647 263.38C428.887 263.28 429.187 263.24 429.467 263.24C430.827 263.24 431.747 264.14 431.747 265.42C431.747 266.68 430.807 267.6 429.467 267.6C428.107 267.6 427.187 266.58 427.147 265.32L424.487 266.1C424.507 268.34 426.447 270.28 429.467 270.28ZM445.072 270.28C446.692 270.28 447.392 269.62 447.732 269.16L448.072 270H450.412V263.44C450.412 260.68 448.272 259.64 446.152 259.64C443.632 259.64 442.412 260.66 441.792 262.7L444.272 263.3C444.432 262.36 444.952 261.88 446.032 261.88C447.132 261.88 447.572 262.5 447.572 263.5V263.56L445.692 263.82C442.252 264.28 441.652 265.82 441.652 267.14C441.652 269.22 443.392 270.28 445.072 270.28ZM445.892 268.02C444.912 268.02 444.372 267.58 444.372 266.96C444.372 266.3 444.712 265.86 445.832 265.7L447.572 265.44V266.52C447.572 267.44 446.832 268.02 445.892 268.02ZM461.744 259.92H458.904V265.34C458.904 266.92 458.144 267.64 457.004 267.64C455.964 267.64 455.264 267.08 455.264 265.46V259.92H452.424V265.76C452.424 268.86 453.664 270.28 456.124 270.28C457.624 270.28 458.484 269.56 459.024 268.86L459.424 270H461.744V259.92ZM467.948 270.28C469.448 270.28 470.268 269.7 470.588 269.34L469.468 267.3C469.288 267.48 469.028 267.64 468.608 267.64C468.068 267.64 467.768 267.32 467.768 266.68V262.4H470.168V259.92H467.768V257.3H464.928V259.92H463.248V262.4H464.928V267.12C464.928 269.24 466.348 270.28 467.948 270.28ZM471.916 270H474.716V264.6C474.716 263.02 475.516 262.3 476.616 262.3C477.676 262.3 478.376 262.84 478.376 264.5V270H481.196V264.16C481.196 261.06 479.976 259.64 477.536 259.64C476.136 259.64 475.296 260.24 474.716 260.92V256H471.916V270ZM488.261 270.28C491.141 270.28 493.521 268.1 493.521 264.96C493.521 261.82 491.141 259.64 488.261 259.64C485.361 259.64 482.981 261.82 482.981 264.96C482.981 268.1 485.341 270.28 488.261 270.28ZM488.261 267.64C486.861 267.64 485.821 266.56 485.821 264.96C485.821 263.38 486.861 262.28 488.261 262.28C489.601 262.28 490.681 263.38 490.681 264.96C490.681 266.56 489.601 267.64 488.261 267.64ZM495.295 270H498.135V264.58C498.135 263.04 498.975 262.3 500.035 262.3C500.595 262.3 500.955 262.46 501.155 262.62L502.155 260.1C501.795 259.86 501.235 259.64 500.455 259.64C499.215 259.64 498.415 260.36 498.035 261.02L497.615 259.92H495.295V270ZM506.85 270.28C509.51 270.28 511.01 268.76 511.01 266.98C511.01 264.94 509.55 264.14 507.25 263.72C506.01 263.48 505.45 263.26 505.45 262.72C505.45 262.24 505.97 261.88 506.87 261.88C507.85 261.88 508.21 262.56 508.37 263.16L510.71 262.5C510.27 260.68 508.83 259.64 506.85 259.64C504.17 259.64 502.83 261.24 502.83 262.88C502.83 265.04 504.59 265.7 506.75 266.08C507.85 266.26 508.39 266.56 508.39 267.06C508.39 267.66 507.83 268.04 506.85 268.04C505.81 268.04 505.23 267.44 505.01 266.54L502.61 267.3C503.07 269.08 504.61 270.28 506.85 270.28ZM40.3 296H42.24V290.5C42.24 288.66 43.42 287.66 44.74 287.66C45.96 287.66 46.86 288.18 46.86 290.12V296H48.82V289.78C48.82 287.04 47.46 285.82 45.36 285.82C43.98 285.82 42.94 286.38 42.24 287.3V282H40.3V296ZM54.3733 296.28C55.9533 296.28 56.8133 295.7 57.2933 295.04L57.4933 296H59.1533V289.44C59.1533 287 57.4333 285.84 55.1133 285.84C52.8733 285.84 51.5733 286.9 51.1133 288.82L52.8533 289.24C53.0333 288.16 53.6333 287.44 55.0733 287.44C56.5333 287.44 57.1933 288.16 57.1933 289.46V289.68L54.8133 290.02C51.8733 290.44 50.9533 291.68 50.9533 293.26C50.9533 294.98 52.2933 296.28 54.3733 296.28ZM54.8533 294.66C53.6133 294.66 52.8533 294.06 52.8533 293.16C52.8533 292.14 53.6333 291.72 54.9733 291.52L57.1933 291.18V292.48C57.1933 293.96 56.0733 294.66 54.8533 294.66ZM67.9947 286.1L65.1947 293.78L62.3947 286.1H60.3747L64.1547 296H66.2347L69.9947 286.1H67.9947ZM80.397 291.66V290.88C80.397 287.86 78.557 285.84 75.737 285.84C72.917 285.84 70.797 288.12 70.797 291.04C70.797 294 72.837 296.28 75.757 296.28C78.157 296.28 79.597 294.98 80.137 293.46L78.457 292.92C78.177 293.76 77.237 294.64 75.757 294.64C73.997 294.64 72.797 293.26 72.697 291.66H80.397ZM78.637 290.12H72.717C72.937 288.72 73.997 287.48 75.757 287.48C77.517 287.48 78.537 288.8 78.637 290.12ZM93.3716 285.84C91.6916 285.84 90.6116 286.66 90.0316 287.44L89.7716 286.1H88.1516V300.1H90.1116V294.72C90.7316 295.56 91.8316 296.28 93.3916 296.28C96.3716 296.28 98.1316 293.8 98.1316 291.06C98.1316 288.34 96.2316 285.84 93.3716 285.84ZM93.1316 287.6C94.8916 287.6 96.1716 289.06 96.1716 291.06C96.1716 293.08 94.8916 294.52 93.1316 294.52C91.3316 294.52 90.0916 293.08 90.0916 291.06C90.0916 289.06 91.3316 287.6 93.1316 287.6ZM108.82 286.1H106.86V291.64C106.86 293.46 105.7 294.46 104.36 294.46C103.16 294.46 102.24 293.92 102.24 292V286.1H100.28V292.34C100.28 295.08 101.66 296.28 103.76 296.28C105.18 296.28 106.2 295.68 106.9 294.74L107.2 296H108.82V286.1ZM115.033 296.28C117.313 296.28 118.953 295 118.953 293.22C118.953 291.26 117.493 290.52 115.353 290.12C114.033 289.88 113.153 289.6 113.153 288.76C113.153 288.16 113.633 287.5 115.033 287.5C116.293 287.5 116.833 288.32 117.033 289.2L118.773 288.7C118.373 286.92 117.053 285.84 115.033 285.84C112.873 285.84 111.293 287.04 111.293 288.84C111.293 290.84 113.013 291.48 115.013 291.84C116.853 292.16 117.093 292.72 117.093 293.24C117.093 294.12 116.233 294.62 115.033 294.62C113.473 294.62 112.973 293.62 112.713 292.74L110.953 293.28C111.493 295.24 112.913 296.28 115.033 296.28ZM121.101 296H123.041V290.5C123.041 288.66 124.221 287.66 125.541 287.66C126.761 287.66 127.661 288.18 127.661 290.12V296H129.621V289.78C129.621 287.04 128.261 285.82 126.161 285.82C124.781 285.82 123.741 286.38 123.041 287.3V282H121.101V296ZM141.354 291.66V290.88C141.354 287.86 139.514 285.84 136.694 285.84C133.874 285.84 131.754 288.12 131.754 291.04C131.754 294 133.794 296.28 136.714 296.28C139.114 296.28 140.554 294.98 141.094 293.46L139.414 292.92C139.134 293.76 138.194 294.64 136.714 294.64C134.954 294.64 133.754 293.26 133.654 291.66H141.354ZM139.594 290.12H133.674C133.894 288.72 134.954 287.48 136.714 287.48C138.474 287.48 139.494 288.8 139.594 290.12ZM147.803 296.26C149.483 296.26 150.563 295.46 151.143 294.66L151.403 296H153.023V282H151.063V287.38C150.443 286.54 149.343 285.82 147.783 285.82C144.783 285.82 143.043 288.3 143.043 291.04C143.043 293.76 144.943 296.26 147.803 296.26ZM148.043 294.5C146.263 294.5 145.003 293.04 145.003 291.04C145.003 289.02 146.263 287.58 148.043 287.58C149.843 287.58 151.063 289.02 151.063 291.04C151.063 293.04 149.843 294.5 148.043 294.5ZM188.099 296.28C191.099 296.28 193.259 294.24 193.259 291.42C193.259 288.66 191.639 287.34 189.979 287.04L192.339 284.68V282H183.619V284.68H188.959L185.819 287.64L187.279 289.38C187.519 289.28 187.819 289.24 188.099 289.24C189.459 289.24 190.379 290.14 190.379 291.42C190.379 292.68 189.439 293.6 188.099 293.6C186.739 293.6 185.819 292.58 185.779 291.32L183.119 292.1C183.139 294.34 185.079 296.28 188.099 296.28ZM199.76 296.28C202.76 296.28 204.92 294.24 204.92 291.42C204.92 288.66 203.3 287.34 201.64 287.04L204 284.68V282H195.28V284.68H200.62L197.48 287.64L198.94 289.38C199.18 289.28 199.48 289.24 199.76 289.24C201.12 289.24 202.04 290.14 202.04 291.42C202.04 292.68 201.1 293.6 199.76 293.6C198.4 293.6 197.48 292.58 197.44 291.32L194.78 292.1C194.8 294.34 196.74 296.28 199.76 296.28ZM208.42 296H211.3C211.84 292.42 213.72 287.42 215.46 284.68V282H206.18V284.68H212.22C210.66 287.42 208.98 292.42 208.42 296ZM227.519 296.28C229.659 296.28 231.319 295.12 232.039 293.22L229.459 292.36C229.139 293.18 228.439 293.64 227.519 293.64C226.099 293.64 225.079 292.54 225.079 290.96C225.079 289.36 226.099 288.28 227.519 288.28C228.499 288.28 229.239 288.84 229.539 289.74L232.139 288.88C231.499 286.9 229.739 285.64 227.519 285.64C224.539 285.64 222.239 287.82 222.239 290.96C222.239 294.1 224.579 296.28 227.519 296.28ZM238.788 296.28C241.668 296.28 244.048 294.1 244.048 290.96C244.048 287.82 241.668 285.64 238.788 285.64C235.888 285.64 233.508 287.82 233.508 290.96C233.508 294.1 235.868 296.28 238.788 296.28ZM238.788 293.64C237.388 293.64 236.348 292.56 236.348 290.96C236.348 289.38 237.388 288.28 238.788 288.28C240.128 288.28 241.208 289.38 241.208 290.96C241.208 292.56 240.128 293.64 238.788 293.64ZM245.823 296H248.663V290.3C248.663 288.92 249.323 288.28 250.263 288.28C251.183 288.28 251.743 288.84 251.743 290.1V296H254.583V290.3C254.583 288.92 255.243 288.28 256.183 288.28C257.123 288.28 257.643 288.84 257.643 290.1V296H260.483V289.4C260.483 286.76 259.203 285.64 257.263 285.64C255.743 285.64 254.723 286.38 254.183 287.06C253.823 286.4 253.103 285.64 251.543 285.64C250.103 285.64 249.043 286.36 248.543 287.02L248.143 285.92H245.823V296ZM262.678 296H265.518V290.3C265.518 288.92 266.178 288.28 267.118 288.28C268.038 288.28 268.598 288.84 268.598 290.1V296H271.438V290.3C271.438 288.92 272.098 288.28 273.038 288.28C273.978 288.28 274.498 288.84 274.498 290.1V296H277.338V289.4C277.338 286.76 276.058 285.64 274.118 285.64C272.598 285.64 271.578 286.38 271.038 287.06C270.678 286.4 269.958 285.64 268.398 285.64C266.958 285.64 265.898 286.36 265.398 287.02L264.998 285.92H262.678V296ZM280.974 284.68C281.834 284.68 282.554 283.98 282.554 283.12C282.554 282.28 281.834 281.56 280.974 281.56C280.134 281.56 279.434 282.28 279.434 283.12C279.434 283.98 280.134 284.68 280.974 284.68ZM279.574 296H282.414V285.92H279.574V296ZM288.67 296.28C290.17 296.28 290.99 295.7 291.31 295.34L290.19 293.3C290.01 293.48 289.75 293.64 289.33 293.64C288.79 293.64 288.49 293.32 288.49 292.68V288.4H290.89V285.92H288.49V283.3H285.65V285.92H283.97V288.4H285.65V293.12C285.65 295.24 287.07 296.28 288.67 296.28ZM296.42 296.28C299.08 296.28 300.58 294.76 300.58 292.98C300.58 290.94 299.12 290.14 296.82 289.72C295.58 289.48 295.02 289.26 295.02 288.72C295.02 288.24 295.54 287.88 296.44 287.88C297.42 287.88 297.78 288.56 297.94 289.16L300.28 288.5C299.84 286.68 298.4 285.64 296.42 285.64C293.74 285.64 292.4 287.24 292.4 288.88C292.4 291.04 294.16 291.7 296.32 292.08C297.42 292.26 297.96 292.56 297.96 293.06C297.96 293.66 297.4 294.04 296.42 294.04C295.38 294.04 294.8 293.44 294.58 292.54L292.18 293.3C292.64 295.08 294.18 296.28 296.42 296.28ZM311.671 296.28C312.911 296.28 313.631 295.8 313.911 295.48L313.011 294.08C312.831 294.26 312.511 294.46 312.051 294.46C311.391 294.46 311.011 294.12 311.011 293.3V287.86H313.691V286.1H311.011V283.52H309.051V286.1H307.271V287.86H309.051V293.54C309.051 295.3 310.151 296.28 311.671 296.28ZM319.745 296.28C322.825 296.28 324.845 293.8 324.845 291.06C324.845 288.28 322.825 285.82 319.745 285.82C316.685 285.82 314.645 288.28 314.645 291.06C314.645 293.8 316.625 296.28 319.745 296.28ZM319.745 294.48C317.905 294.48 316.605 293.02 316.605 291.06C316.605 289.08 317.905 287.62 319.745 287.62C321.565 287.62 322.885 289.08 322.885 291.06C322.885 293.02 321.565 294.48 319.745 294.48ZM335.545 296.28C337.125 296.28 337.985 295.7 338.465 295.04L338.665 296H340.325V289.44C340.325 287 338.605 285.84 336.285 285.84C334.045 285.84 332.745 286.9 332.285 288.82L334.025 289.24C334.205 288.16 334.805 287.44 336.245 287.44C337.705 287.44 338.365 288.16 338.365 289.46V289.68L335.985 290.02C333.045 290.44 332.125 291.68 332.125 293.26C332.125 294.98 333.465 296.28 335.545 296.28ZM336.025 294.66C334.785 294.66 334.025 294.06 334.025 293.16C334.025 292.14 334.805 291.72 336.145 291.52L338.365 291.18V292.48C338.365 293.96 337.245 294.66 336.025 294.66ZM342.722 296H344.682V282H342.722V296ZM347.273 296H349.233V282H347.273V296ZM362.649 296.26C365.509 296.26 367.409 293.76 367.409 291.04C367.409 288.3 365.649 285.82 362.669 285.82C361.109 285.82 360.009 286.54 359.389 287.38V282H357.429V296H359.049L359.309 294.66C359.889 295.46 360.969 296.26 362.649 296.26ZM362.409 294.5C360.609 294.5 359.369 293.04 359.369 291.04C359.369 289.02 360.609 287.58 362.409 287.58C364.169 287.58 365.449 289.02 365.449 291.04C365.449 293.04 364.169 294.5 362.409 294.5ZM369.558 296H371.518V290.52C371.518 288.74 372.538 287.68 373.798 287.68C374.438 287.68 374.878 287.88 375.078 288.04L375.838 286.32C375.518 286.08 374.898 285.82 374.058 285.82C372.798 285.82 371.898 286.58 371.478 287.34L371.178 286.1H369.558V296ZM379.94 296.28C381.52 296.28 382.38 295.7 382.86 295.04L383.06 296H384.72V289.44C384.72 287 383 285.84 380.68 285.84C378.44 285.84 377.14 286.9 376.68 288.82L378.42 289.24C378.6 288.16 379.2 287.44 380.64 287.44C382.1 287.44 382.76 288.16 382.76 289.46V289.68L380.38 290.02C377.44 290.44 376.52 291.68 376.52 293.26C376.52 294.98 377.86 296.28 379.94 296.28ZM380.42 294.66C379.18 294.66 378.42 294.06 378.42 293.16C378.42 292.14 379.2 291.72 380.54 291.52L382.76 291.18V292.48C382.76 293.96 381.64 294.66 380.42 294.66ZM387.116 296H389.076V290.48C389.076 288.66 390.236 287.66 391.576 287.66C392.776 287.66 393.696 288.18 393.696 290.12V296H395.656V289.78C395.656 287.04 394.296 285.82 392.176 285.82C390.756 285.82 389.736 286.42 389.036 287.36L388.736 286.1H387.116V296ZM402.849 296.28C405.029 296.28 406.549 294.98 407.209 293.22L405.429 292.62C405.029 293.76 404.089 294.48 402.849 294.48C401.029 294.48 399.749 293.04 399.749 291.06C399.749 289.06 401.029 287.62 402.849 287.62C404.109 287.62 405.049 288.34 405.429 289.5L407.229 288.9C406.629 287.12 405.109 285.82 402.849 285.82C399.769 285.82 397.789 288.24 397.789 291.06C397.789 293.84 399.729 296.28 402.849 296.28ZM409.402 296H411.342V290.5C411.342 288.66 412.522 287.66 413.842 287.66C415.062 287.66 415.962 288.18 415.962 290.12V296H417.922V289.78C417.922 287.04 416.562 285.82 414.462 285.82C413.082 285.82 412.042 286.38 411.342 287.3V282H409.402V296ZM429.655 291.66V290.88C429.655 287.86 427.815 285.84 424.995 285.84C422.175 285.84 420.055 288.12 420.055 291.04C420.055 294 422.095 296.28 425.015 296.28C427.415 296.28 428.855 294.98 429.395 293.46L427.715 292.92C427.435 293.76 426.495 294.64 425.015 294.64C423.255 294.64 422.055 293.26 421.955 291.66H429.655ZM427.895 290.12H421.975C422.195 288.72 423.255 287.48 425.015 287.48C426.775 287.48 427.795 288.8 427.895 290.12ZM435.307 296.28C437.587 296.28 439.227 295 439.227 293.22C439.227 291.26 437.767 290.52 435.627 290.12C434.307 289.88 433.427 289.6 433.427 288.76C433.427 288.16 433.907 287.5 435.307 287.5C436.567 287.5 437.107 288.32 437.307 289.2L439.047 288.7C438.647 286.92 437.327 285.84 435.307 285.84C433.147 285.84 431.567 287.04 431.567 288.84C431.567 290.84 433.287 291.48 435.287 291.84C437.127 292.16 437.367 292.72 437.367 293.24C437.367 294.12 436.507 294.62 435.307 294.62C433.747 294.62 433.247 293.62 432.987 292.74L431.227 293.28C431.767 295.24 433.187 296.28 435.307 296.28ZM441.839 296.14C442.579 296.14 443.179 295.54 443.179 294.8C443.179 294.06 442.579 293.46 441.839 293.46C441.079 293.46 440.499 294.06 440.499 294.8C440.499 295.54 441.079 296.14 441.839 296.14ZM457.63 296.26C461.87 296.26 464.73 293.06 464.73 288.98C464.73 284.94 461.89 281.7 457.63 281.7C453.35 281.7 450.51 284.94 450.51 288.98C450.51 293.06 453.35 296.26 457.63 296.26ZM457.63 294.42C454.55 294.42 452.51 292.14 452.51 288.98C452.51 285.88 454.57 283.54 457.63 283.54C460.65 283.54 462.73 285.88 462.73 288.98C462.73 292.14 460.69 294.42 457.63 294.42ZM467.136 296H469.096V290.48C469.096 288.66 470.256 287.66 471.596 287.66C472.796 287.66 473.716 288.18 473.716 290.12V296H475.676V289.78C475.676 287.04 474.316 285.82 472.196 285.82C470.776 285.82 469.756 286.42 469.056 287.36L468.756 286.1H467.136V296ZM40.3 322H42.26V316.4C42.26 314.58 43.34 313.66 44.56 313.66C45.64 313.66 46.48 314.22 46.48 316.04V322H48.44V316.4C48.44 314.58 49.5 313.66 50.72 313.66C51.88 313.66 52.66 314.22 52.66 316.04V322H54.62V315.42C54.62 312.9 53.22 311.82 51.4 311.82C49.88 311.82 48.78 312.52 48.1 313.44C47.68 312.54 46.78 311.82 45.32 311.82C43.92 311.82 42.86 312.44 42.2 313.36L41.92 312.1H40.3V322ZM60.1741 322.28C61.7541 322.28 62.6141 321.7 63.0941 321.04L63.2941 322H64.9541V315.44C64.9541 313 63.2341 311.84 60.9141 311.84C58.6741 311.84 57.3741 312.9 56.9141 314.82L58.6541 315.24C58.8341 314.16 59.4341 313.44 60.8741 313.44C62.3341 313.44 62.9941 314.16 62.9941 315.46V315.68L60.6141 316.02C57.6741 316.44 56.7541 317.68 56.7541 319.26C56.7541 320.98 58.0941 322.28 60.1741 322.28ZM60.6541 320.66C59.4141 320.66 58.6541 320.06 58.6541 319.16C58.6541 318.14 59.4341 317.72 60.7741 317.52L62.9941 317.18V318.48C62.9941 319.96 61.8741 320.66 60.6541 320.66ZM68.4308 310.64C69.1308 310.64 69.6908 310.08 69.6908 309.36C69.6908 308.66 69.1308 308.08 68.4308 308.08C67.7108 308.08 67.1308 308.66 67.1308 309.36C67.1308 310.08 67.7108 310.64 68.4308 310.64ZM67.4508 322H69.4108V312.1H67.4508V322ZM72.1164 322H74.0764V316.48C74.0764 314.66 75.2364 313.66 76.5764 313.66C77.7764 313.66 78.6964 314.18 78.6964 316.12V322H80.6564V315.78C80.6564 313.04 79.2964 311.82 77.1764 311.82C75.7564 311.82 74.7364 312.42 74.0364 313.36L73.7364 312.1H72.1164V322ZM82.7492 323.94L83.5892 324.64C84.7092 323.6 85.2492 321.98 85.2492 320.98C85.2492 319.94 84.6092 319.46 83.8892 319.46C83.1892 319.46 82.5692 320.02 82.5692 320.82C82.5692 321.46 82.9692 321.88 83.5492 322.08C83.5292 322.66 83.1492 323.44 82.7492 323.94ZM97.5405 322.28C101.1 322.28 102.66 318.98 102.66 314.94C102.66 310.96 101.06 307.72 97.5205 307.72C93.9605 307.72 92.3605 310.96 92.3605 314.94C92.3605 319.02 93.9405 322.28 97.5405 322.28ZM97.5405 320.44C95.2805 320.44 94.3405 318.02 94.3405 315C94.3405 312.02 95.2805 309.56 97.5205 309.56C99.7205 309.56 100.66 312.02 100.66 315C100.66 318.06 99.7405 320.44 97.5405 320.44ZM111.277 322H113.237V313.86H115.937V312.1H113.237V310.68C113.237 309.88 113.597 309.48 114.297 309.48C114.857 309.48 115.177 309.76 115.257 309.86L116.217 308.52C116.057 308.34 115.397 307.7 113.917 307.7C112.417 307.7 111.277 308.74 111.277 310.46V312.1H109.537V313.86H111.277V322ZM118.763 310.64C119.463 310.64 120.023 310.08 120.023 309.36C120.023 308.66 119.463 308.08 118.763 308.08C118.043 308.08 117.463 308.66 117.463 309.36C117.463 310.08 118.043 310.64 118.763 310.64ZM117.783 322H119.743V312.1H117.783V322ZM122.448 322H124.408V308H122.448V322ZM136.139 317.66V316.88C136.139 313.86 134.299 311.84 131.479 311.84C128.659 311.84 126.539 314.12 126.539 317.04C126.539 320 128.579 322.28 131.499 322.28C133.899 322.28 135.339 320.98 135.879 319.46L134.199 318.92C133.919 319.76 132.979 320.64 131.499 320.64C129.739 320.64 128.539 319.26 128.439 317.66H136.139ZM134.379 316.12H128.459C128.679 314.72 129.739 313.48 131.499 313.48C133.259 313.48 134.279 314.8 134.379 316.12ZM141.791 322.28C144.071 322.28 145.711 321 145.711 319.22C145.711 317.26 144.251 316.52 142.111 316.12C140.791 315.88 139.911 315.6 139.911 314.76C139.911 314.16 140.391 313.5 141.791 313.5C143.051 313.5 143.591 314.32 143.791 315.2L145.531 314.7C145.131 312.92 143.811 311.84 141.791 311.84C139.631 311.84 138.051 313.04 138.051 314.84C138.051 316.84 139.771 317.48 141.771 317.84C143.611 318.16 143.851 318.72 143.851 319.24C143.851 320.12 142.991 320.62 141.791 320.62C140.231 320.62 139.731 319.62 139.471 318.74L137.711 319.28C138.251 321.24 139.671 322.28 141.791 322.28ZM153.464 322H155.404V316.5C155.404 314.66 156.584 313.66 157.904 313.66C159.124 313.66 160.024 314.18 160.024 316.12V322H161.984V315.78C161.984 313.04 160.624 311.82 158.524 311.82C157.144 311.82 156.104 312.38 155.404 313.3V308H153.464V322ZM167.537 322.28C169.117 322.28 169.977 321.7 170.457 321.04L170.657 322H172.317V315.44C172.317 313 170.597 311.84 168.277 311.84C166.037 311.84 164.737 312.9 164.277 314.82L166.017 315.24C166.197 314.16 166.797 313.44 168.237 313.44C169.697 313.44 170.357 314.16 170.357 315.46V315.68L167.977 316.02C165.037 316.44 164.117 317.68 164.117 319.26C164.117 320.98 165.457 322.28 167.537 322.28ZM168.017 320.66C166.777 320.66 166.017 320.06 166.017 319.16C166.017 318.14 166.797 317.72 168.137 317.52L170.357 317.18V318.48C170.357 319.96 169.237 320.66 168.017 320.66ZM181.159 312.1L178.359 319.78L175.559 312.1H173.539L177.319 322H179.399L183.159 312.1H181.159ZM193.561 317.66V316.88C193.561 313.86 191.721 311.84 188.901 311.84C186.081 311.84 183.961 314.12 183.961 317.04C183.961 320 186.001 322.28 188.921 322.28C191.321 322.28 192.761 320.98 193.301 319.46L191.621 318.92C191.341 319.76 190.401 320.64 188.921 320.64C187.161 320.64 185.961 319.26 185.861 317.66H193.561ZM191.801 316.12H185.881C186.101 314.72 187.161 313.48 188.921 313.48C190.681 313.48 191.701 314.8 191.801 316.12ZM205.916 322.28C208.096 322.28 209.616 320.98 210.276 319.22L208.496 318.62C208.096 319.76 207.156 320.48 205.916 320.48C204.096 320.48 202.816 319.04 202.816 317.06C202.816 315.06 204.096 313.62 205.916 313.62C207.176 313.62 208.116 314.34 208.496 315.5L210.296 314.9C209.696 313.12 208.176 311.82 205.916 311.82C202.836 311.82 200.856 314.24 200.856 317.06C200.856 319.84 202.796 322.28 205.916 322.28ZM212.468 322H214.408V316.5C214.408 314.66 215.588 313.66 216.908 313.66C218.128 313.66 219.028 314.18 219.028 316.12V322H220.988V315.78C220.988 313.04 219.628 311.82 217.528 311.82C216.148 311.82 215.108 312.38 214.408 313.3V308H212.468V322ZM226.541 322.28C228.121 322.28 228.981 321.7 229.461 321.04L229.661 322H231.321V315.44C231.321 313 229.601 311.84 227.281 311.84C225.041 311.84 223.741 312.9 223.281 314.82L225.021 315.24C225.201 314.16 225.801 313.44 227.241 313.44C228.701 313.44 229.361 314.16 229.361 315.46V315.68L226.981 316.02C224.041 316.44 223.121 317.68 223.121 319.26C223.121 320.98 224.461 322.28 226.541 322.28ZM227.021 320.66C225.781 320.66 225.021 320.06 225.021 319.16C225.021 318.14 225.801 317.72 227.141 317.52L229.361 317.18V318.48C229.361 319.96 228.241 320.66 227.021 320.66ZM233.718 322H235.678V316.48C235.678 314.66 236.838 313.66 238.178 313.66C239.378 313.66 240.298 314.18 240.298 316.12V322H242.258V315.78C242.258 313.04 240.898 311.82 238.778 311.82C237.358 311.82 236.338 312.42 235.638 313.36L235.338 312.1H233.718V322ZM249.311 326.36C252.711 326.36 254.271 324.3 254.271 321.82V312.1H252.631L252.311 313.4C251.771 312.6 250.731 311.82 249.071 311.82C246.211 311.82 244.391 314.24 244.391 316.94C244.391 319.64 246.131 322 249.091 322C250.691 322 251.811 321.22 252.311 320.38V321.86C252.311 323.62 251.291 324.68 249.311 324.68C247.791 324.68 246.971 323.92 246.671 322.74L244.831 323.18C245.351 325 246.731 326.36 249.311 326.36ZM249.351 320.24C247.591 320.24 246.351 318.94 246.351 316.94C246.351 314.94 247.571 313.58 249.331 313.58C251.071 313.58 252.311 314.94 252.311 316.94C252.311 318.94 251.071 320.24 249.351 320.24ZM266.003 317.66V316.88C266.003 313.86 264.163 311.84 261.343 311.84C258.523 311.84 256.403 314.12 256.403 317.04C256.403 320 258.443 322.28 261.363 322.28C263.763 322.28 265.203 320.98 265.743 319.46L264.063 318.92C263.783 319.76 262.843 320.64 261.363 320.64C259.603 320.64 258.403 319.26 258.303 317.66H266.003ZM264.243 316.12H258.323C258.543 314.72 259.603 313.48 261.363 313.48C263.123 313.48 264.143 314.8 264.243 316.12ZM272.452 322.26C274.132 322.26 275.212 321.46 275.792 320.66L276.052 322H277.672V308H275.712V313.38C275.092 312.54 273.992 311.82 272.432 311.82C269.432 311.82 267.692 314.3 267.692 317.04C267.692 319.76 269.592 322.26 272.452 322.26ZM272.692 320.5C270.912 320.5 269.652 319.04 269.652 317.04C269.652 315.02 270.912 313.58 272.692 313.58C274.492 313.58 275.712 315.02 275.712 317.04C275.712 319.04 274.492 320.5 272.692 320.5ZM288.846 322.28C290.426 322.28 291.286 321.7 291.766 321.04L291.966 322H293.626V315.44C293.626 313 291.906 311.84 289.586 311.84C287.346 311.84 286.046 312.9 285.586 314.82L287.326 315.24C287.506 314.16 288.106 313.44 289.546 313.44C291.006 313.44 291.666 314.16 291.666 315.46V315.68L289.286 316.02C286.346 316.44 285.426 317.68 285.426 319.26C285.426 320.98 286.766 322.28 288.846 322.28ZM289.326 320.66C288.086 320.66 287.326 320.06 287.326 319.16C287.326 318.14 288.106 317.72 289.446 317.52L291.666 317.18V318.48C291.666 319.96 290.546 320.66 289.326 320.66ZM296.023 322H297.983V316.48C297.983 314.66 299.143 313.66 300.483 313.66C301.683 313.66 302.603 314.18 302.603 316.12V322H304.563V315.78C304.563 313.04 303.203 311.82 301.083 311.82C299.663 311.82 298.643 312.42 297.943 313.36L297.643 312.1H296.023V322ZM311.455 322.26C313.135 322.26 314.215 321.46 314.795 320.66L315.055 322H316.675V308H314.715V313.38C314.095 312.54 312.995 311.82 311.435 311.82C308.435 311.82 306.695 314.3 306.695 317.04C306.695 319.76 308.595 322.26 311.455 322.26ZM311.695 320.5C309.915 320.5 308.655 319.04 308.655 317.04C308.655 315.02 309.915 313.58 311.695 313.58C313.495 313.58 314.715 315.02 314.715 317.04C314.715 319.04 313.495 320.5 311.695 320.5ZM328.39 322.28C329.63 322.28 330.35 321.8 330.63 321.48L329.73 320.08C329.55 320.26 329.23 320.46 328.77 320.46C328.11 320.46 327.73 320.12 327.73 319.3V313.86H330.41V312.1H327.73V309.52H325.77V312.1H323.99V313.86H325.77V319.54C325.77 321.3 326.87 322.28 328.39 322.28ZM332.351 322H334.291V316.5C334.291 314.66 335.471 313.66 336.791 313.66C338.011 313.66 338.911 314.18 338.911 316.12V322H340.871V315.78C340.871 313.04 339.511 311.82 337.411 311.82C336.031 311.82 334.991 312.38 334.291 313.3V308H332.351V322ZM352.604 317.66V316.88C352.604 313.86 350.764 311.84 347.944 311.84C345.124 311.84 343.004 314.12 343.004 317.04C343.004 320 345.044 322.28 347.964 322.28C350.364 322.28 351.804 320.98 352.344 319.46L350.664 318.92C350.384 319.76 349.444 320.64 347.964 320.64C346.204 320.64 345.004 319.26 344.904 317.66H352.604ZM350.844 316.12H344.924C345.144 314.72 346.204 313.48 347.964 313.48C349.724 313.48 350.744 314.8 350.844 316.12ZM354.753 322H356.713V316.52C356.713 314.74 357.733 313.68 358.993 313.68C359.633 313.68 360.073 313.88 360.273 314.04L361.033 312.32C360.713 312.08 360.093 311.82 359.253 311.82C357.993 311.82 357.093 312.58 356.673 313.34L356.373 312.1H354.753V322ZM371.139 317.66V316.88C371.139 313.86 369.299 311.84 366.479 311.84C363.659 311.84 361.539 314.12 361.539 317.04C361.539 320 363.579 322.28 366.499 322.28C368.899 322.28 370.339 320.98 370.879 319.46L369.199 318.92C368.919 319.76 367.979 320.64 366.499 320.64C364.739 320.64 363.539 319.26 363.439 317.66H371.139ZM369.379 316.12H363.459C363.679 314.72 364.739 313.48 366.499 313.48C368.259 313.48 369.279 314.8 369.379 316.12ZM378.894 322H380.834V316.5C380.834 314.66 382.014 313.66 383.334 313.66C384.554 313.66 385.454 314.18 385.454 316.12V322H387.414V315.78C387.414 313.04 386.054 311.82 383.954 311.82C382.574 311.82 381.534 312.38 380.834 313.3V308H378.894V322ZM392.967 322.28C394.547 322.28 395.407 321.7 395.887 321.04L396.087 322H397.747V315.44C397.747 313 396.027 311.84 393.707 311.84C391.467 311.84 390.167 312.9 389.707 314.82L391.447 315.24C391.627 314.16 392.227 313.44 393.667 313.44C395.127 313.44 395.787 314.16 395.787 315.46V315.68L393.407 316.02C390.467 316.44 389.547 317.68 389.547 319.26C389.547 320.98 390.887 322.28 392.967 322.28ZM393.447 320.66C392.207 320.66 391.447 320.06 391.447 319.16C391.447 318.14 392.227 317.72 393.567 317.52L395.787 317.18V318.48C395.787 319.96 394.667 320.66 393.447 320.66ZM406.588 312.1L403.788 319.78L400.988 312.1H398.968L402.748 322H404.828L408.588 312.1H406.588ZM418.991 317.66V316.88C418.991 313.86 417.151 311.84 414.331 311.84C411.511 311.84 409.391 314.12 409.391 317.04C409.391 320 411.431 322.28 414.351 322.28C416.751 322.28 418.191 320.98 418.731 319.46L417.051 318.92C416.771 319.76 415.831 320.64 414.351 320.64C412.591 320.64 411.391 319.26 411.291 317.66H418.991ZM417.231 316.12H411.311C411.531 314.72 412.591 313.48 414.351 313.48C416.111 313.48 417.131 314.8 417.231 316.12ZM431.965 322.26C434.825 322.26 436.725 319.76 436.725 317.04C436.725 314.3 434.965 311.82 431.985 311.82C430.425 311.82 429.325 312.54 428.705 313.38V308H426.745V322H428.365L428.625 320.66C429.205 321.46 430.285 322.26 431.965 322.26ZM431.725 320.5C429.925 320.5 428.685 319.04 428.685 317.04C428.685 315.02 429.925 313.58 431.725 313.58C433.485 313.58 434.765 315.02 434.765 317.04C434.765 319.04 433.485 320.5 431.725 320.5ZM448.014 317.66V316.88C448.014 313.86 446.174 311.84 443.354 311.84C440.534 311.84 438.414 314.12 438.414 317.04C438.414 320 440.454 322.28 443.374 322.28C445.774 322.28 447.214 320.98 447.754 319.46L446.074 318.92C445.794 319.76 444.854 320.64 443.374 320.64C441.614 320.64 440.414 319.26 440.314 317.66H448.014ZM446.254 316.12H440.334C440.554 314.72 441.614 313.48 443.374 313.48C445.134 313.48 446.154 314.8 446.254 316.12ZM459.303 317.66V316.88C459.303 313.86 457.463 311.84 454.643 311.84C451.823 311.84 449.703 314.12 449.703 317.04C449.703 320 451.743 322.28 454.663 322.28C457.063 322.28 458.503 320.98 459.043 319.46L457.363 318.92C457.083 319.76 456.143 320.64 454.663 320.64C452.903 320.64 451.703 319.26 451.603 317.66H459.303ZM457.543 316.12H451.623C451.843 314.72 452.903 313.48 454.663 313.48C456.423 313.48 457.443 314.8 457.543 316.12ZM461.452 322H463.412V316.48C463.412 314.66 464.572 313.66 465.912 313.66C467.112 313.66 468.032 314.18 468.032 316.12V322H469.992V315.78C469.992 313.04 468.632 311.82 466.512 311.82C465.092 311.82 464.072 312.42 463.372 313.36L463.072 312.1H461.452V322ZM482.951 322.28C486.511 322.28 488.071 318.98 488.071 314.94C488.071 310.96 486.471 307.72 482.931 307.72C479.371 307.72 477.771 310.96 477.771 314.94C477.771 319.02 479.351 322.28 482.951 322.28ZM482.951 320.44C480.691 320.44 479.751 318.02 479.751 315C479.751 312.02 480.691 309.56 482.931 309.56C485.131 309.56 486.071 312.02 486.071 315C486.071 318.06 485.151 320.44 482.951 320.44ZM43.26 348.28C44.84 348.28 45.7 347.7 46.18 347.04L46.38 348H48.04V341.44C48.04 339 46.32 337.84 44 337.84C41.76 337.84 40.46 338.9 40 340.82L41.74 341.24C41.92 340.16 42.52 339.44 43.96 339.44C45.42 339.44 46.08 340.16 46.08 341.46V341.68L43.7 342.02C40.76 342.44 39.84 343.68 39.84 345.26C39.84 346.98 41.18 348.28 43.26 348.28ZM43.74 346.66C42.5 346.66 41.74 346.06 41.74 345.16C41.74 344.14 42.52 343.72 43.86 343.52L46.08 343.18V344.48C46.08 345.96 44.96 346.66 43.74 346.66ZM54.7367 348.26C56.4167 348.26 57.4967 347.46 58.0767 346.66L58.3367 348H59.9567V334H57.9967V339.38C57.3767 338.54 56.2767 337.82 54.7167 337.82C51.7167 337.82 49.9767 340.3 49.9767 343.04C49.9767 345.76 51.8767 348.26 54.7367 348.26ZM54.9767 346.5C53.1967 346.5 51.9367 345.04 51.9367 343.04C51.9367 341.02 53.1967 339.58 54.9767 339.58C56.7767 339.58 57.9967 341.02 57.9967 343.04C57.9967 345.04 56.7767 346.5 54.9767 346.5ZM66.8656 348.26C68.5456 348.26 69.6256 347.46 70.2056 346.66L70.4656 348H72.0856V334H70.1256V339.38C69.5056 338.54 68.4056 337.82 66.8456 337.82C63.8456 337.82 62.1056 340.3 62.1056 343.04C62.1056 345.76 64.0056 348.26 66.8656 348.26ZM67.1056 346.5C65.3256 346.5 64.0656 345.04 64.0656 343.04C64.0656 341.02 65.3256 339.58 67.1056 339.58C68.9056 339.58 70.1256 341.02 70.1256 343.04C70.1256 345.04 68.9056 346.5 67.1056 346.5ZM75.7745 336.64C76.4745 336.64 77.0345 336.08 77.0345 335.36C77.0345 334.66 76.4745 334.08 75.7745 334.08C75.0545 334.08 74.4745 334.66 74.4745 335.36C74.4745 336.08 75.0545 336.64 75.7745 336.64ZM74.7945 348H76.7545V338.1H74.7945V348ZM82.9602 348.28C84.2002 348.28 84.9202 347.8 85.2002 347.48L84.3002 346.08C84.1202 346.26 83.8002 346.46 83.3402 346.46C82.6802 346.46 82.3002 346.12 82.3002 345.3V339.86H84.9802V338.1H82.3002V335.52H80.3402V338.1H78.5602V339.86H80.3402V345.54C80.3402 347.3 81.4402 348.28 82.9602 348.28ZM88.0011 336.64C88.7011 336.64 89.2611 336.08 89.2611 335.36C89.2611 334.66 88.7011 334.08 88.0011 334.08C87.2811 334.08 86.7011 334.66 86.7011 335.36C86.7011 336.08 87.2811 336.64 88.0011 336.64ZM87.0211 348H88.9811V338.1H87.0211V348ZM96.3267 348.28C99.4067 348.28 101.427 345.8 101.427 343.06C101.427 340.28 99.4067 337.82 96.3267 337.82C93.2667 337.82 91.2267 340.28 91.2267 343.06C91.2267 345.8 93.2067 348.28 96.3267 348.28ZM96.3267 346.48C94.4867 346.48 93.1867 345.02 93.1867 343.06C93.1867 341.08 94.4867 339.62 96.3267 339.62C98.1467 339.62 99.4667 341.08 99.4667 343.06C99.4667 345.02 98.1467 346.48 96.3267 346.48ZM103.562 348H105.522V342.48C105.522 340.66 106.682 339.66 108.022 339.66C109.222 339.66 110.142 340.18 110.142 342.12V348H112.102V341.78C112.102 339.04 110.742 337.82 108.622 337.82C107.202 337.82 106.182 338.42 105.482 339.36L105.182 338.1H103.562V348ZM118.315 348.28C120.595 348.28 122.235 347 122.235 345.22C122.235 343.26 120.775 342.52 118.635 342.12C117.315 341.88 116.435 341.6 116.435 340.76C116.435 340.16 116.915 339.5 118.315 339.5C119.575 339.5 120.115 340.32 120.315 341.2L122.055 340.7C121.655 338.92 120.335 337.84 118.315 337.84C116.155 337.84 114.575 339.04 114.575 340.84C114.575 342.84 116.295 343.48 118.295 343.84C120.135 344.16 120.375 344.72 120.375 345.24C120.375 346.12 119.515 346.62 118.315 346.62C116.755 346.62 116.255 345.62 115.995 344.74L114.235 345.28C114.775 347.24 116.195 348.28 118.315 348.28ZM132.948 348.28C134.528 348.28 135.388 347.7 135.868 347.04L136.068 348H137.728V341.44C137.728 339 136.008 337.84 133.688 337.84C131.448 337.84 130.148 338.9 129.688 340.82L131.428 341.24C131.608 340.16 132.208 339.44 133.648 339.44C135.108 339.44 135.768 340.16 135.768 341.46V341.68L133.388 342.02C130.448 342.44 129.528 343.68 129.528 345.26C129.528 346.98 130.868 348.28 132.948 348.28ZM133.428 346.66C132.188 346.66 131.428 346.06 131.428 345.16C131.428 344.14 132.208 343.72 133.548 343.52L135.768 343.18V344.48C135.768 345.96 134.648 346.66 133.428 346.66ZM140.124 348H142.084V342.48C142.084 340.66 143.244 339.66 144.584 339.66C145.784 339.66 146.704 340.18 146.704 342.12V348H148.664V341.78C148.664 339.04 147.304 337.82 145.184 337.82C143.764 337.82 142.744 338.42 142.044 339.36L141.744 338.1H140.124V348ZM155.557 348.26C157.237 348.26 158.317 347.46 158.897 346.66L159.157 348H160.777V334H158.817V339.38C158.197 338.54 157.097 337.82 155.537 337.82C152.537 337.82 150.797 340.3 150.797 343.04C150.797 345.76 152.697 348.26 155.557 348.26ZM155.797 346.5C154.017 346.5 152.757 345.04 152.757 343.04C152.757 341.02 154.017 339.58 155.797 339.58C157.597 339.58 158.817 341.02 158.817 343.04C158.817 345.04 157.597 346.5 155.797 346.5ZM173.751 348.28C177.311 348.28 178.871 344.98 178.871 340.94C178.871 336.96 177.271 333.72 173.731 333.72C170.171 333.72 168.571 336.96 168.571 340.94C168.571 345.02 170.151 348.28 173.751 348.28ZM173.751 346.44C171.491 346.44 170.551 344.02 170.551 341C170.551 338.02 171.491 335.56 173.731 335.56C175.931 335.56 176.871 338.02 176.871 341C176.871 344.06 175.951 346.44 173.751 346.44ZM190.948 348.26C192.628 348.26 193.708 347.46 194.288 346.66L194.548 348H196.168V334H194.208V339.38C193.588 338.54 192.488 337.82 190.928 337.82C187.928 337.82 186.188 340.3 186.188 343.04C186.188 345.76 188.088 348.26 190.948 348.26ZM191.188 346.5C189.408 346.5 188.148 345.04 188.148 343.04C188.148 341.02 189.408 339.58 191.188 339.58C192.988 339.58 194.208 341.02 194.208 343.04C194.208 345.04 192.988 346.5 191.188 346.5ZM207.917 343.66V342.88C207.917 339.86 206.077 337.84 203.257 337.84C200.437 337.84 198.317 340.12 198.317 343.04C198.317 346 200.357 348.28 203.277 348.28C205.677 348.28 207.117 346.98 207.657 345.46L205.977 344.92C205.697 345.76 204.757 346.64 203.277 346.64C201.517 346.64 200.317 345.26 200.217 343.66H207.917ZM206.157 342.12H200.237C200.457 340.72 201.517 339.48 203.277 339.48C205.037 339.48 206.057 340.8 206.157 342.12ZM210.066 348H212.026V334H210.066V348ZM223.756 343.66V342.88C223.756 339.86 221.916 337.84 219.096 337.84C216.276 337.84 214.156 340.12 214.156 343.04C214.156 346 216.196 348.28 219.116 348.28C221.516 348.28 222.956 346.98 223.496 345.46L221.816 344.92C221.536 345.76 220.596 346.64 219.116 346.64C217.356 346.64 216.156 345.26 216.056 343.66H223.756ZM221.996 342.12H216.076C216.296 340.72 217.356 339.48 219.116 339.48C220.876 339.48 221.896 340.8 221.996 342.12ZM229.21 348.28C230.45 348.28 231.17 347.8 231.45 347.48L230.55 346.08C230.37 346.26 230.05 346.46 229.59 346.46C228.93 346.46 228.55 346.12 228.55 345.3V339.86H231.23V338.1H228.55V335.52H226.59V338.1H224.81V339.86H226.59V345.54C226.59 347.3 227.69 348.28 229.21 348.28ZM234.251 336.64C234.951 336.64 235.511 336.08 235.511 335.36C235.511 334.66 234.951 334.08 234.251 334.08C233.531 334.08 232.951 334.66 232.951 335.36C232.951 336.08 233.531 336.64 234.251 336.64ZM233.271 348H235.231V338.1H233.271V348ZM242.577 348.28C245.657 348.28 247.677 345.8 247.677 343.06C247.677 340.28 245.657 337.82 242.577 337.82C239.517 337.82 237.477 340.28 237.477 343.06C237.477 345.8 239.457 348.28 242.577 348.28ZM242.577 346.48C240.737 346.48 239.437 345.02 239.437 343.06C239.437 341.08 240.737 339.62 242.577 339.62C244.397 339.62 245.717 341.08 245.717 343.06C245.717 345.02 244.397 346.48 242.577 346.48ZM249.812 348H251.772V342.48C251.772 340.66 252.932 339.66 254.272 339.66C255.472 339.66 256.392 340.18 256.392 342.12V348H258.352V341.78C258.352 339.04 256.992 337.82 254.872 337.82C253.452 337.82 252.432 338.42 251.732 339.36L251.432 338.1H249.812V348ZM264.565 348.28C266.845 348.28 268.485 347 268.485 345.22C268.485 343.26 267.025 342.52 264.885 342.12C263.565 341.88 262.685 341.6 262.685 340.76C262.685 340.16 263.165 339.5 264.565 339.5C265.825 339.5 266.365 340.32 266.565 341.2L268.305 340.7C267.905 338.92 266.585 337.84 264.565 337.84C262.405 337.84 260.825 339.04 260.825 340.84C260.825 342.84 262.545 343.48 264.545 343.84C266.385 344.16 266.625 344.72 266.625 345.24C266.625 346.12 265.765 346.62 264.565 346.62C263.005 346.62 262.505 345.62 262.245 344.74L260.485 345.28C261.025 347.24 262.445 348.28 264.565 348.28Z" fill="black"/>
<path fill-rule="evenodd" clip-rule="evenodd" d="M397 255C394.79 255 393 256.79 393 259C393 261.21 394.79 263 397 263C399.21 263 401 261.21 401 259C401 256.79 399.21 255 397 255ZM399.1 259C399.1 257.84 398.16 256.9 397 256.9C395.84 256.9 394.9 257.84 394.9 259C394.9 260.16 395.84 261.1 397 261.1C398.16 261.1 399.1 260.16 399.1 259ZM403.1 268C403.1 267.36 399.97 265.9 397 265.9C394.03 265.9 390.9 267.36 390.9 268V269.1H403.1V268ZM389 268C389 265.34 394.33 264 397 264C399.67 264 405 265.34 405 268V271H389V268Z" fill="#6236FF"/>
<path d="M88.184 121.924C91.244 121.924 92.648 120.07 92.648 117.838V109.09H91.172L90.884 110.26C90.398 109.54 89.462 108.838 87.968 108.838C85.394 108.838 83.756 111.016 83.756 113.446C83.756 115.876 85.322 118 87.986 118C89.426 118 90.434 117.298 90.884 116.542V117.874C90.884 119.458 89.966 120.412 88.184 120.412C86.816 120.412 86.078 119.728 85.808 118.666L84.152 119.062C84.62 120.7 85.862 121.924 88.184 121.924ZM88.22 116.416C86.636 116.416 85.52 115.246 85.52 113.446C85.52 111.646 86.618 110.422 88.202 110.422C89.768 110.422 90.884 111.646 90.884 113.446C90.884 115.246 89.768 116.416 88.22 116.416ZM95.9525 107.776C96.5825 107.776 97.0865 107.272 97.0865 106.624C97.0865 105.994 96.5825 105.472 95.9525 105.472C95.3045 105.472 94.7825 105.994 94.7825 106.624C94.7825 107.272 95.3045 107.776 95.9525 107.776ZM95.0705 118H96.8345V109.09H95.0705V118ZM102.42 118.252C103.536 118.252 104.184 117.82 104.436 117.532L103.626 116.272C103.464 116.434 103.176 116.614 102.762 116.614C102.168 116.614 101.826 116.308 101.826 115.57V110.674H104.238V109.09H101.826V106.768H100.062V109.09H98.4596V110.674H100.062V115.786C100.062 117.37 101.052 118.252 102.42 118.252ZM105.984 118H107.73V113.05C107.73 111.394 108.792 110.494 109.98 110.494C111.078 110.494 111.888 110.962 111.888 112.708V118H113.652V112.402C113.652 109.936 112.428 108.838 110.538 108.838C109.296 108.838 108.36 109.342 107.73 110.17V105.4H105.984V118ZM123.672 109.09H121.908V114.076C121.908 115.714 120.864 116.614 119.658 116.614C118.578 116.614 117.75 116.128 117.75 114.4V109.09H115.986V114.706C115.986 117.172 117.228 118.252 119.118 118.252C120.396 118.252 121.314 117.712 121.944 116.866L122.214 118H123.672V109.09ZM130.704 118.234C133.278 118.234 134.988 115.984 134.988 113.536C134.988 111.07 133.404 108.838 130.722 108.838C129.318 108.838 128.328 109.486 127.77 110.242V105.4H126.006V118H127.464L127.698 116.794C128.22 117.514 129.192 118.234 130.704 118.234ZM130.488 116.65C128.868 116.65 127.752 115.336 127.752 113.536C127.752 111.718 128.868 110.422 130.488 110.422C132.072 110.422 133.224 111.718 133.224 113.536C133.224 115.336 132.072 116.65 130.488 116.65ZM137.112 118.126C137.778 118.126 138.318 117.586 138.318 116.92C138.318 116.254 137.778 115.714 137.112 115.714C136.428 115.714 135.906 116.254 135.906 116.92C135.906 117.586 136.428 118.126 137.112 118.126ZM143.787 118.252C145.749 118.252 147.117 117.082 147.711 115.498L146.109 114.958C145.749 115.984 144.903 116.632 143.787 116.632C142.149 116.632 140.997 115.336 140.997 113.554C140.997 111.754 142.149 110.458 143.787 110.458C144.921 110.458 145.767 111.106 146.109 112.15L147.729 111.61C147.189 110.008 145.821 108.838 143.787 108.838C141.015 108.838 139.233 111.016 139.233 113.554C139.233 116.056 140.979 118.252 143.787 118.252ZM153.86 118.252C156.632 118.252 158.45 116.02 158.45 113.554C158.45 111.052 156.632 108.838 153.86 108.838C151.106 108.838 149.27 111.052 149.27 113.554C149.27 116.02 151.052 118.252 153.86 118.252ZM153.86 116.632C152.204 116.632 151.034 115.318 151.034 113.554C151.034 111.772 152.204 110.458 153.86 110.458C155.498 110.458 156.686 111.772 156.686 113.554C156.686 115.318 155.498 116.632 153.86 116.632ZM160.371 118H162.135V112.96C162.135 111.322 163.107 110.494 164.205 110.494C165.177 110.494 165.933 110.998 165.933 112.636V118H167.697V112.96C167.697 111.322 168.651 110.494 169.749 110.494C170.793 110.494 171.495 110.998 171.495 112.636V118H173.259V112.078C173.259 109.81 171.999 108.838 170.361 108.838C168.993 108.838 168.003 109.468 167.391 110.296C167.013 109.486 166.203 108.838 164.889 108.838C163.629 108.838 162.675 109.396 162.081 110.224L161.829 109.09H160.371V118ZM174.982 118H176.782L181.606 105.4H179.806L174.982 118ZM186.338 118.252C187.454 118.252 188.102 117.82 188.354 117.532L187.544 116.272C187.382 116.434 187.094 116.614 186.68 116.614C186.086 116.614 185.744 116.308 185.744 115.57V110.674H188.156V109.09H185.744V106.768H183.98V109.09H182.378V110.674H183.98V115.786C183.98 117.37 184.97 118.252 186.338 118.252ZM197.588 109.09H195.824V114.076C195.824 115.714 194.78 116.614 193.574 116.614C192.494 116.614 191.666 116.128 191.666 114.4V109.09H189.902V114.706C189.902 117.172 191.144 118.252 193.034 118.252C194.312 118.252 195.23 117.712 195.86 116.866L196.13 118H197.588V109.09ZM200.894 107.776C201.524 107.776 202.028 107.272 202.028 106.624C202.028 105.994 201.524 105.472 200.894 105.472C200.246 105.472 199.724 105.994 199.724 106.624C199.724 107.272 200.246 107.776 200.894 107.776ZM200.012 118H201.776V109.09H200.012V118ZM207.469 118.252C209.521 118.252 210.997 117.1 210.997 115.498C210.997 113.734 209.683 113.068 207.757 112.708C206.569 112.492 205.777 112.24 205.777 111.484C205.777 110.944 206.209 110.35 207.469 110.35C208.603 110.35 209.089 111.088 209.269 111.88L210.835 111.43C210.475 109.828 209.287 108.856 207.469 108.856C205.525 108.856 204.103 109.936 204.103 111.556C204.103 113.356 205.651 113.932 207.451 114.256C209.107 114.544 209.323 115.048 209.323 115.516C209.323 116.308 208.549 116.758 207.469 116.758C206.065 116.758 205.615 115.858 205.381 115.066L203.797 115.552C204.283 117.316 205.561 118.252 207.469 118.252ZM216.08 118.252C217.196 118.252 217.844 117.82 218.096 117.532L217.286 116.272C217.124 116.434 216.836 116.614 216.422 116.614C215.828 116.614 215.486 116.308 215.486 115.57V110.674H217.898V109.09H215.486V106.768H213.722V109.09H212.12V110.674H213.722V115.786C213.722 117.37 214.712 118.252 216.08 118.252ZM94.448 147L90.128 140.574L94.286 134.4H92.162L88.922 139.188L85.7 134.4H83.576L87.752 140.592L83.396 147H85.538L88.922 141.996L92.324 147H94.448ZM106.296 147L101.976 140.574L106.134 134.4H104.01L100.77 139.188L97.5477 134.4H95.4237L99.5997 140.592L95.2437 147H97.3857L100.77 141.996L104.172 147H106.296ZM119.066 147.252C121.838 147.252 123.674 145.848 124.538 143.58L122.828 143.022C122.324 144.48 121.118 145.596 119.084 145.596C116.438 145.596 114.53 143.598 114.53 140.7C114.53 137.892 116.438 135.804 119.03 135.804C121.01 135.804 122.306 136.866 122.864 138.63L124.592 138.054C123.764 135.57 121.712 134.148 119.012 134.148C115.376 134.148 112.73 136.902 112.73 140.7C112.73 144.606 115.34 147.252 119.066 147.252ZM130.744 147.252C133.516 147.252 135.334 145.02 135.334 142.554C135.334 140.052 133.516 137.838 130.744 137.838C127.99 137.838 126.154 140.052 126.154 142.554C126.154 145.02 127.936 147.252 130.744 147.252ZM130.744 145.632C129.088 145.632 127.918 144.318 127.918 142.554C127.918 140.772 129.088 139.458 130.744 139.458C132.382 139.458 133.57 140.772 133.57 142.554C133.57 144.318 132.382 145.632 130.744 145.632ZM137.256 147H139.02V142.032C139.02 140.394 140.064 139.494 141.27 139.494C142.35 139.494 143.178 139.962 143.178 141.708V147H144.942V141.402C144.942 138.936 143.718 137.838 141.81 137.838C140.532 137.838 139.614 138.378 138.984 139.224L138.714 138.09H137.256V147ZM150.32 147.252C151.436 147.252 152.084 146.82 152.336 146.532L151.526 145.272C151.364 145.434 151.076 145.614 150.662 145.614C150.068 145.614 149.726 145.308 149.726 144.57V139.674H152.138V138.09H149.726V135.768H147.962V138.09H146.36V139.674H147.962V144.786C147.962 146.37 148.952 147.252 150.32 147.252ZM153.885 147H155.649V142.068C155.649 140.466 156.567 139.512 157.701 139.512C158.277 139.512 158.673 139.692 158.853 139.836L159.537 138.288C159.249 138.072 158.691 137.838 157.935 137.838C156.801 137.838 155.991 138.522 155.613 139.206L155.343 138.09H153.885V147ZM161.818 136.776C162.448 136.776 162.952 136.272 162.952 135.624C162.952 134.994 162.448 134.472 161.818 134.472C161.17 134.472 160.648 134.994 160.648 135.624C160.648 136.272 161.17 136.776 161.818 136.776ZM160.936 147H162.7V138.09H160.936V147ZM169.833 147.234C172.407 147.234 174.117 144.984 174.117 142.536C174.117 140.07 172.533 137.838 169.851 137.838C168.447 137.838 167.457 138.486 166.899 139.242V134.4H165.135V147H166.593L166.827 145.794C167.349 146.514 168.321 147.234 169.833 147.234ZM169.617 145.65C167.997 145.65 166.881 144.336 166.881 142.536C166.881 140.718 167.997 139.422 169.617 139.422C171.201 139.422 172.353 140.718 172.353 142.536C172.353 144.336 171.201 145.65 169.617 145.65ZM183.737 138.09H181.973V143.076C181.973 144.714 180.929 145.614 179.723 145.614C178.643 145.614 177.815 145.128 177.815 143.4V138.09H176.051V143.706C176.051 146.172 177.293 147.252 179.183 147.252C180.461 147.252 181.379 146.712 182.009 145.866L182.279 147H183.737V138.09ZM189.22 147.252C190.336 147.252 190.984 146.82 191.236 146.532L190.426 145.272C190.264 145.434 189.976 145.614 189.562 145.614C188.968 145.614 188.626 145.308 188.626 144.57V139.674H191.038V138.09H188.626V135.768H186.862V138.09H185.26V139.674H186.862V144.786C186.862 146.37 187.852 147.252 189.22 147.252ZM196.487 147.252C199.259 147.252 201.077 145.02 201.077 142.554C201.077 140.052 199.259 137.838 196.487 137.838C193.733 137.838 191.897 140.052 191.897 142.554C191.897 145.02 193.679 147.252 196.487 147.252ZM196.487 145.632C194.831 145.632 193.661 144.318 193.661 142.554C193.661 140.772 194.831 139.458 196.487 139.458C198.125 139.458 199.313 140.772 199.313 142.554C199.313 144.318 198.125 145.632 196.487 145.632ZM202.998 147H204.762V142.068C204.762 140.466 205.68 139.512 206.814 139.512C207.39 139.512 207.786 139.692 207.966 139.836L208.65 138.288C208.362 138.072 207.804 137.838 207.048 137.838C205.914 137.838 205.104 138.522 204.726 139.206L204.456 138.09H202.998V147ZM212.971 147.252C215.023 147.252 216.499 146.1 216.499 144.498C216.499 142.734 215.185 142.068 213.259 141.708C212.071 141.492 211.279 141.24 211.279 140.484C211.279 139.944 211.711 139.35 212.971 139.35C214.105 139.35 214.591 140.088 214.771 140.88L216.337 140.43C215.977 138.828 214.789 137.856 212.971 137.856C211.027 137.856 209.605 138.936 209.605 140.556C209.605 142.356 211.153 142.932 212.953 143.256C214.609 143.544 214.825 144.048 214.825 144.516C214.825 145.308 214.051 145.758 212.971 145.758C211.567 145.758 211.117 144.858 210.883 144.066L209.299 144.552C209.785 146.316 211.063 147.252 212.971 147.252ZM86.006 176H87.806V163.4H86.006C85.25 163.922 84.188 164.39 83.396 164.534V166.298C84.17 166.19 85.34 165.812 86.006 165.38V176ZM90.1184 177.746L90.8744 178.376C91.8824 177.44 92.3684 175.982 92.3684 175.082C92.3684 174.146 91.7924 173.714 91.1444 173.714C90.5144 173.714 89.9564 174.218 89.9564 174.938C89.9564 175.514 90.3164 175.892 90.8384 176.072C90.8204 176.594 90.4784 177.296 90.1184 177.746ZM95.0763 176H96.8763V163.4H95.0763C94.3203 163.922 93.2583 164.39 92.4663 164.534V166.298C93.2403 166.19 94.4103 165.812 95.0763 165.38V176ZM107.325 176H109.557L104.373 168.62L109.305 163.4H106.965L101.637 169.034V163.4H99.8548V176H101.637V171.518L103.131 169.952L107.325 176ZM119.42 176.252C121.472 176.252 122.948 175.1 122.948 173.498C122.948 171.734 121.634 171.068 119.708 170.708C118.52 170.492 117.728 170.24 117.728 169.484C117.728 168.944 118.16 168.35 119.42 168.35C120.554 168.35 121.04 169.088 121.22 169.88L122.786 169.43C122.426 167.828 121.238 166.856 119.42 166.856C117.476 166.856 116.054 167.936 116.054 169.556C116.054 171.356 117.602 171.932 119.402 172.256C121.058 172.544 121.274 173.048 121.274 173.516C121.274 174.308 120.5 174.758 119.42 174.758C118.016 174.758 117.566 173.858 117.332 173.066L115.748 173.552C116.234 175.316 117.512 176.252 119.42 176.252ZM128.031 176.252C129.147 176.252 129.795 175.82 130.047 175.532L129.237 174.272C129.075 174.434 128.787 174.614 128.373 174.614C127.779 174.614 127.437 174.308 127.437 173.57V168.674H129.849V167.09H127.437V164.768H125.673V167.09H124.071V168.674H125.673V173.786C125.673 175.37 126.663 176.252 128.031 176.252ZM134.154 176.252C135.576 176.252 136.35 175.73 136.782 175.136L136.962 176H138.456V170.096C138.456 167.9 136.908 166.856 134.82 166.856C132.804 166.856 131.634 167.81 131.22 169.538L132.786 169.916C132.948 168.944 133.488 168.296 134.784 168.296C136.098 168.296 136.692 168.944 136.692 170.114V170.312L134.55 170.618C131.904 170.996 131.076 172.112 131.076 173.534C131.076 175.082 132.282 176.252 134.154 176.252ZM134.586 174.794C133.47 174.794 132.786 174.254 132.786 173.444C132.786 172.526 133.488 172.148 134.694 171.968L136.692 171.662V172.832C136.692 174.164 135.684 174.794 134.586 174.794ZM140.613 176H142.377V171.068C142.377 169.466 143.295 168.512 144.429 168.512C145.005 168.512 145.401 168.692 145.581 168.836L146.265 167.288C145.977 167.072 145.419 166.838 144.663 166.838C143.529 166.838 142.719 167.522 142.341 168.206L142.071 167.09H140.613V176ZM150.586 176.252C152.638 176.252 154.114 175.1 154.114 173.498C154.114 171.734 152.8 171.068 150.874 170.708C149.686 170.492 148.894 170.24 148.894 169.484C148.894 168.944 149.326 168.35 150.586 168.35C151.72 168.35 152.206 169.088 152.386 169.88L153.952 169.43C153.592 167.828 152.404 166.856 150.586 166.856C148.642 166.856 147.22 167.936 147.22 169.556C147.22 171.356 148.768 171.932 150.568 172.256C152.224 172.544 152.44 173.048 152.44 173.516C152.44 174.308 151.666 174.758 150.586 174.758C149.182 174.758 148.732 173.858 148.498 173.066L146.914 173.552C147.4 175.316 148.678 176.252 150.586 176.252ZM198.242 176H200.042V163.4H198.242C197.486 163.922 196.424 164.39 195.632 164.534V166.298C196.406 166.19 197.576 165.812 198.242 165.38V176ZM204.746 176H206.546V163.4H204.746C203.99 163.922 202.928 164.39 202.136 164.534V166.298C202.91 166.19 204.08 165.812 204.746 165.38V176ZM215.915 169.196C216.689 168.602 217.157 167.72 217.157 166.658C217.157 164.606 215.501 163.166 213.305 163.166C211.091 163.166 209.453 164.606 209.453 166.658C209.453 167.72 209.921 168.602 210.695 169.196C209.597 169.862 208.931 170.96 208.931 172.328C208.931 174.668 210.749 176.27 213.305 176.27C215.807 176.27 217.661 174.668 217.661 172.328C217.661 170.96 216.995 169.844 215.915 169.196ZM211.217 166.622C211.217 165.434 212.135 164.714 213.305 164.714C214.457 164.714 215.393 165.434 215.393 166.622C215.393 167.81 214.439 168.512 213.305 168.512C212.135 168.512 211.217 167.81 211.217 166.622ZM213.305 174.65C211.937 174.65 210.731 173.768 210.731 172.328C210.731 170.852 211.937 169.988 213.305 169.988C214.691 169.988 215.861 170.852 215.861 172.328C215.861 173.768 214.691 174.65 213.305 174.65ZM225.428 176H227.192V168.674H229.622V167.09H227.192V165.812C227.192 165.092 227.516 164.732 228.146 164.732C228.65 164.732 228.938 164.984 229.01 165.074L229.874 163.868C229.73 163.706 229.136 163.13 227.804 163.13C226.454 163.13 225.428 164.066 225.428 165.614V167.09H223.862V168.674H225.428V176ZM234.719 176.252C237.491 176.252 239.309 174.02 239.309 171.554C239.309 169.052 237.491 166.838 234.719 166.838C231.965 166.838 230.129 169.052 230.129 171.554C230.129 174.02 231.911 176.252 234.719 176.252ZM234.719 174.632C233.063 174.632 231.893 173.318 231.893 171.554C231.893 169.772 233.063 168.458 234.719 168.458C236.357 168.458 237.545 169.772 237.545 171.554C237.545 173.318 236.357 174.632 234.719 174.632ZM241.231 176H242.995V171.068C242.995 169.466 243.913 168.512 245.047 168.512C245.623 168.512 246.019 168.692 246.199 168.836L246.883 167.288C246.595 167.072 246.037 166.838 245.281 166.838C244.147 166.838 243.337 167.522 242.959 168.206L242.689 167.09H241.231V176ZM253.897 176H255.913L252.133 170.618L255.499 167.09H253.339L249.955 170.618V163.4H248.191V176H249.955V172.904L250.963 171.842L253.897 176ZM260.309 176.252C262.361 176.252 263.837 175.1 263.837 173.498C263.837 171.734 262.523 171.068 260.597 170.708C259.409 170.492 258.617 170.24 258.617 169.484C258.617 168.944 259.049 168.35 260.309 168.35C261.443 168.35 261.929 169.088 262.109 169.88L263.675 169.43C263.315 167.828 262.127 166.856 260.309 166.856C258.365 166.856 256.943 167.936 256.943 169.556C256.943 171.356 258.491 171.932 260.291 172.256C261.947 172.544 262.163 173.048 262.163 173.516C262.163 174.308 261.389 174.758 260.309 174.758C258.905 174.758 258.455 173.858 258.221 173.066L256.637 173.552C257.123 175.316 258.401 176.252 260.309 176.252Z" fill="black"/>
<defs>
<filter id="filter0_dd" x="0" y="0" width="556" height="404" filterUnits="userSpaceOnUse" color-interpolation-filters="sRGB">
<feFlood flood-opacity="0" result="BackgroundImageFix"/>
<feColorMatrix in="SourceAlpha" type="matrix" values="0 0 0 0 0 0 0 0 0 0 0 0 0 0 0 0 0 0 127 0"/>
<feOffset dy="1"/>
<feGaussianBlur stdDeviation="4"/>
<feColorMatrix type="matrix" values="0 0 0 0 0 0 0 0 0 0 0 0 0 0 0 0 0 0 0.08 0"/>
<feBlend mode="normal" in2="BackgroundImageFix" result="effect1_dropShadow"/>
<feColorMatrix in="SourceAlpha" type="matrix" values="0 0 0 0 0 0 0 0 0 0 0 0 0 0 0 0 0 0 127 0"/>
<feMorphology radius="1" operator="dilate" in="SourceAlpha" result="effect2_dropShadow"/>
<feOffset/>
<feColorMatrix type="matrix" values="0 0 0 0 0 0 0 0 0 0 0 0 0 0 0 0 0 0 0.06 0"/>
<feBlend mode="normal" in2="effect1_dropShadow" result="effect2_dropShadow"/>
<feBlend mode="normal" in="SourceGraphic" in2="effect2_dropShadow" result="shape"/>
</filter>
</defs>
</svg>
