<svg width="366" height="187" viewBox="0 0 366 187" fill="none" xmlns="http://www.w3.org/2000/svg">
<rect width="366" height="187" rx="14" fill="#190E40"/>
<g clip-path="url(#clip0)">
<path d="M200.1 66.4001C200.1 65.3001 200.1 64.3001 200.1 63.2001C200 60.9001 199.9 58.5001 199.5 56.2001C199.1 53.9001 198.4 51.7001 197.3 49.6001C196.2 47.5001 194.9 45.6001 193.2 44.0001C191.5 42.3001 189.6 41.0001 187.6 39.9001C185.5 38.8001 183.3 38.1001 181 37.7001C178.7 37.3001 176.4 37.1001 174 37.1001C172.9 37.1001 171.9 37.1001 170.8 37.1001C169.5 37.1001 168.3 37.1001 167 37.1001H138.9H127.3C126 37.1001 124.8 37.1001 123.5 37.1001C122.4 37.1001 121.4 37.1001 120.3 37.1001C119.7 37.1001 119.1 37.1001 118.6 37.2001C116.9 37.3001 115.1 37.4001 113.4 37.7001C111.7 38.0001 110 38.5001 108.4 39.1001C107.9 39.3001 107.3 39.6001 106.8 39.8001C105.2 40.6001 103.8 41.6001 102.4 42.7001C102 43.1001 101.5 43.5001 101.1 43.9001C99.4 45.6001 98.1 47.5001 97 49.5001C95.9 51.6001 95.2 53.8001 94.8 56.1001C94.4 58.4001 94.3 60.7001 94.2 63.1001C94.2 64.2001 94.2 65.2001 94.2 66.3001C94.2 67.6001 94.2 68.8001 94.2 70.1001V87.4001V109.8C94.2 111.1 94.2 112.3 94.2 113.6C94.2 114.7 94.2 115.7 94.2 116.8C94.3 119.1 94.4 121.5 94.8 123.8C95.2 126.1 95.9 128.3 97 130.4C98.1 132.5 99.4 134.4 101.1 136C102.8 137.7 104.7 139 106.7 140.1C108.8 141.2 111 141.9 113.3 142.3C115.6 142.7 117.9 142.9 120.3 142.9C121.4 142.9 122.4 142.9 123.5 142.9C124.8 142.9 126 142.9 127.3 142.9H167C168.3 142.9 169.5 142.9 170.8 142.9C171.9 142.9 172.9 142.9 174 142.9C176.3 142.8 178.7 142.7 181 142.3C183.3 141.9 185.5 141.2 187.6 140.1C189.7 139 191.6 137.7 193.2 136C194.9 134.3 196.2 132.4 197.3 130.4C198.4 128.3 199.1 126.1 199.5 123.8C199.9 121.5 200.1 119.2 200.1 116.8C200.1 115.7 200.1 114.7 200.1 113.6C200.1 112.3 200.1 111.1 200.1 109.8V70.1001C200.1 68.9001 200.1 67.7001 200.1 66.4001Z" fill="url(#paint0_linear)"/>
</g>
<circle cx="226" cy="104" r="47" fill="#190E40"/>
<circle cx="226.5" cy="103.5" r="39.5" fill="#F05138"/>
<path d="M226.532 126.424V79.3611" stroke="white" stroke-width="3"/>
<path d="M226.663 126.67L237.917 82.3574" stroke="white" stroke-width="3"/>
<path d="M226.509 126.798L248.44 89.5647" stroke="white" stroke-width="3"/>
<path d="M226.565 126.836L251.975 100.652" stroke="white" stroke-width="3"/>
<path d="M226.242 127.462L247.356 114.688" stroke="white" stroke-width="3"/>
<path d="M226.262 126.424V79.3611" stroke="white" stroke-width="3"/>
<path d="M226.131 126.67L214.877 82.3574" stroke="white" stroke-width="3"/>
<path d="M226.285 126.798L204.354 89.5647" stroke="white" stroke-width="3"/>
<path d="M226.229 126.836L200.819 100.652" stroke="white" stroke-width="3"/>
<path d="M227.016 127.462L205.438 114.688" stroke="white" stroke-width="3"/>
<rect x="218.19" y="122.744" width="16.5679" height="4.38889" fill="white"/>
<path d="M177.5 104.4C177.6 104 177.7 103.6 177.8 103.2C182.2 85.7 171.5 64.9 153.3 54C161.3 64.8 164.8 77.9 161.7 89.3C161.4 90.3 161.1 91.3 160.7 92.3C160.3 92 159.8 91.7 159.1 91.4C159.1 91.4 141 80.2 121.4 60.5C120.9 60 131.9 76.2 144.3 89.3C138.4 86 122.1 74.1 111.7 64.7C113 66.8 114.5 68.9 116.1 70.8C124.7 81.8 136 95.3 149.5 105.7C140 111.5 126.6 112 113.3 105.7C110 104.2 106.9 102.3 104 100.2C109.6 109.2 118.3 117 128.9 121.6C141.5 127 154.1 126.7 163.4 121.7C163.4 121.7 163.5 121.7 163.5 121.6C163.9 121.4 164.3 121.1 164.7 120.9C169.2 118.6 178 116.3 182.8 125.5C184.2 127.6 186.7 115.6 177.5 104.4Z" fill="white"/>
<defs>
<linearGradient id="paint0_linear" x1="124" y1="79" x2="195" y2="120" gradientUnits="userSpaceOnUse">
<stop stop-color="#F05138"/>
<stop offset="1" stop-color="#6236FF"/>
</linearGradient>
<clipPath id="clip0">
<rect width="106.1" height="106.1" fill="white" transform="translate(94 37)"/>
</clipPath>
</defs>
</svg>
