<svg width="24" height="24" viewBox="0 0 24 24" fill="none" xmlns="http://www.w3.org/2000/svg">
<path d="M11.9999 3C12.2517 3 12.5029 3.00915 12.7521 3.0277C13.4433 3.07933 13.9751 3.61568 14.0533 4.27345L14.0625 4.40692L14.1397 7.55488C14.2467 7.0949 14.3489 6.63274 14.4453 6.16894L14.4889 6.00692C14.7343 5.27342 15.5439 4.85177 16.298 5.11794L16.4591 5.18594L16.81 5.3681C17.1567 5.55681 17.4898 5.76504 17.8081 5.99097C18.2527 6.30656 18.4716 6.84435 18.3874 7.37104C18.3076 7.86973 18.2204 8.36941 18.1296 8.8703C18.4324 8.72028 18.7901 8.68822 19.1261 8.80231L19.2453 8.84932L19.3787 8.91983C19.4649 8.97153 19.5451 9.03268 19.6172 9.10283L19.7187 9.21448L20.0125 9.59391C20.2968 9.98093 20.5532 10.391 20.7773 10.8212C20.9853 11.2208 20.9901 11.6929 20.7957 12.0938C20.4739 12.7578 20.1104 13.4448 19.7087 14.1328C19.8019 14.1963 19.8896 14.2714 19.968 14.3595L20.0612 14.4753L20.2778 14.7885C20.4881 15.106 20.6798 15.4373 20.8511 15.7807C21.1202 16.3199 21.0155 16.9614 20.6102 17.3882C15.9716 22.2731 8.02731 22.2721 3.38967 17.3882C2.98454 16.9616 2.87989 16.32 3.14874 15.7807C3.37726 15.3224 3.64216 14.8863 3.93867 14.4753L4.03185 14.3595C4.10989 14.2719 4.19685 14.197 4.28956 14.1337C4.23414 14.0411 4.17719 13.9501 4.12335 13.8583L4.11747 13.8491L4.11244 13.8399C3.78658 13.2628 3.48425 12.6796 3.20163 12.0913C3.01028 11.6928 3.01387 11.2231 3.22178 10.8237L3.45682 10.3998C3.70199 9.98316 3.97859 9.58726 4.28201 9.21448L4.38358 9.10283C4.49147 8.9979 4.61705 8.91244 4.75462 8.85015L4.87382 8.80314C5.20956 8.68901 5.56674 8.72065 5.86941 8.8703C5.77871 8.3695 5.69315 7.86963 5.61338 7.37104C5.52913 6.84445 5.74738 6.30742 6.19177 5.99181L6.51495 5.77104C6.84306 5.55702 7.18595 5.3614 7.54161 5.18594L7.70194 5.11878C8.50993 4.83328 9.3814 5.33728 9.55462 6.16894C9.65098 6.63236 9.75332 7.09441 9.86018 7.55404L9.93741 4.40609C9.95506 3.68972 10.5104 3.08305 11.2478 3.0277C11.4982 3.00893 11.749 3.00001 11.9999 3ZM11.9999 4.2894C11.7793 4.28941 11.5608 4.29751 11.3443 4.31375C11.2789 4.31865 11.2284 4.37244 11.2268 4.43798L10.9792 14.571L10.8575 14.6231L10.7164 14.6197C10.4339 13.9515 10.1823 13.2672 9.94245 12.5798C9.26208 10.581 8.72636 8.51626 8.29292 6.43169C8.27589 6.35005 8.1864 6.3058 8.1116 6.34271C7.69965 6.54597 7.30743 6.78058 6.93804 7.04281C6.89857 7.0709 6.87845 7.1192 6.88599 7.16705C7.27652 9.60804 7.77676 12.0462 8.55147 14.4132L8.45577 14.4972L8.31558 14.5433C7.12697 13.1754 6.14807 11.6275 5.30362 10.0304C5.30038 10.0243 5.29231 10.0217 5.28599 10.0246C5.28425 10.0254 5.28302 10.0272 5.2818 10.0287C4.93087 10.4599 4.62311 10.925 4.36595 11.4189C4.34741 11.4545 4.34689 11.4969 4.36427 11.533C4.63552 12.0977 4.92399 12.6557 5.23479 13.2061C5.81732 14.1986 6.48122 15.221 7.24696 16.1677L7.18988 16.281L7.07235 16.3767C6.40895 16.0386 5.77063 15.6431 5.16343 15.2023C5.10608 15.1609 5.02613 15.1727 4.98463 15.23C4.72789 15.5858 4.49873 15.9623 4.30215 16.3566C4.27861 16.4042 4.28822 16.4616 4.32482 16.5001C8.45415 20.8488 15.5449 20.8496 19.6751 16.5001C19.7026 16.4711 19.7145 16.4317 19.7087 16.3935L19.6969 16.3566C19.5001 15.9623 19.272 15.5858 19.0153 15.23C18.9738 15.1727 18.8938 15.1609 18.8365 15.2023C18.2151 15.6531 17.5613 16.0572 16.8814 16.4002C16.7577 16.4625 16.6425 16.3101 16.7303 16.2029C17.7663 14.9367 18.6344 13.5032 19.3418 12.1198L19.6348 11.5314C19.648 11.504 19.6513 11.4729 19.644 11.4441L19.6339 11.4164C19.3768 10.9227 19.0691 10.4583 18.7189 10.0279C18.7177 10.0264 18.7157 10.0254 18.7139 10.0246C18.7076 10.0217 18.7004 10.0243 18.6971 10.0304C17.8518 11.6291 16.8715 13.1786 15.681 14.5475L15.6491 14.5836L15.6113 14.613C15.5181 14.6622 15.3963 14.5726 15.4342 14.4569C16.1192 12.3737 16.5907 10.2353 16.9611 8.08793L17.1139 7.16705C17.1197 7.13107 17.1098 7.09485 17.0879 7.06715L17.0619 7.04281C16.6924 6.78051 16.3004 6.54516 15.8883 6.34187C15.8135 6.30505 15.7248 6.35003 15.7078 6.43169C15.2744 8.51652 14.7387 10.5813 14.0583 12.5798C13.8156 13.2883 13.5523 13.9885 13.2616 14.6684C13.2146 14.7786 13.0687 14.7646 13.0308 14.6676L13.0216 14.6214L12.7739 4.43798C12.7727 4.38873 12.7437 4.34579 12.7017 4.3255L12.6564 4.31375C12.4399 4.29762 12.2206 4.2894 11.9999 4.2894ZM7.2797 16.2088C7.356 16.3027 7.27688 16.4308 7.17309 16.4195L7.12776 16.4061C7.10913 16.3967 7.09093 16.3862 7.07235 16.3767L7.18988 16.281L7.24696 16.1677C7.25795 16.1813 7.26867 16.1953 7.2797 16.2088ZM10.9783 14.6264L10.9691 14.6726C10.9368 14.7557 10.8259 14.7781 10.7651 14.7137L10.7391 14.6743C10.7314 14.6563 10.7241 14.6378 10.7164 14.6197L10.8575 14.6231L10.9792 14.571L10.9783 14.6264ZM8.56742 14.4611C8.60554 14.5769 8.4838 14.6669 8.39113 14.6172L8.3542 14.587L8.31894 14.5475L8.32734 14.5391L8.45577 14.4972L8.55147 14.4132C8.5567 14.4292 8.56217 14.4451 8.56742 14.4611ZM8.31894 14.5475C8.31777 14.5462 8.31676 14.5447 8.31558 14.5433L8.32734 14.5391L8.31894 14.5475Z" fill="#6F4CFF"/>
</svg>
