<svg width="99" height="36" viewBox="0 0 99 36" fill="none" xmlns="http://www.w3.org/2000/svg">
<circle cx="18" cy="18" r="18" fill="url(#paint0_linear)"/>
<path fill-rule="evenodd" clip-rule="evenodd" d="M72.6309 11.76C73.5808 11.76 74.3407 11.0086 74.3407 10.0425C74.3407 9.10322 73.5808 8.32498 72.6309 8.32498C71.6538 8.32498 70.8667 9.10322 70.8667 10.0425C70.8667 11.0086 71.6538 11.76 72.6309 11.76ZM53.7138 26.3051C53.3338 26.7345 52.3568 27.3785 50.6741 27.3785C48.6114 27.3785 47.1186 26.0636 47.1186 23.702V16.0806H44.7031V13.719H47.1186V10.2572H49.7784V13.719H53.4152V16.0806H49.7784V23.38C49.7784 24.4803 50.2941 24.9365 51.1897 24.9365C51.814 24.9365 52.2482 24.6681 52.4925 24.4266L53.7138 26.3051ZM65.0314 25.3121C64.0815 26.5734 62.6973 27.3785 60.7704 27.3785C57.9206 27.3785 56.0479 25.7683 56.0479 22.0918V13.719H58.7077V21.6356C58.7077 24.2119 59.9561 24.9364 61.5846 24.9364C63.403 24.9364 64.9772 23.5946 64.9772 21.1526V13.719H67.6369V27.0028H65.4385L65.0314 25.3121ZM73.9607 13.719V27.0028H71.301V13.719H73.9607ZM82.537 27.3785C85.631 27.3785 87.8565 25.661 87.8565 23.2726C87.8565 20.6427 85.8753 19.6498 82.9712 19.113C81.18 18.791 79.9858 18.4153 79.9858 17.2882C79.9858 16.4831 80.6372 15.5975 82.537 15.5975C84.2468 15.5975 84.9796 16.6978 85.2511 17.8786L87.6123 17.2077C87.0695 14.8193 85.2782 13.3701 82.537 13.3701C79.6058 13.3701 77.4617 14.9803 77.4617 17.3955C77.4617 20.0791 79.7958 20.9379 82.5099 21.4209C85.0068 21.8503 85.3325 22.6017 85.3325 23.2994C85.3325 24.4802 84.1654 25.1511 82.537 25.1511C80.42 25.1511 79.7415 23.8093 79.3887 22.6285L77.0003 23.3531C77.7331 25.983 79.6601 27.3785 82.537 27.3785ZM98.5501 26.3051C98.1702 26.7345 97.1931 27.3785 95.5104 27.3785C93.4477 27.3785 91.955 26.0636 91.955 23.702V16.0806H89.5395V13.719H91.955V10.2572H94.6147V13.719H98.2516V16.0806H94.6147V23.38C94.6147 24.4803 95.1304 24.9365 96.0261 24.9365C96.6503 24.9365 97.0845 24.6681 97.3288 24.4266L98.5501 26.3051Z" fill="black"/>
<path d="M8.92505 26.0122C8.92505 26.0122 12.7126 29.025 18.1125 29.025C23.5125 29.025 27.3 26.0122 27.3 26.0122" stroke="white" stroke-width="1.5"/>
<path d="M7.875 20.8976C7.875 20.8976 14.4375 28.8 18.1125 28.8C21.7875 28.8 28.35 20.8976 28.35 20.8976" stroke="white" stroke-width="1.5"/>
<path d="M7.875 14.5756C7.875 14.5756 14.4375 28.8 18.1125 28.8C21.7875 28.8 28.35 14.5756 28.35 14.5756" stroke="white" stroke-width="1.5"/>
<path d="M12.075 9.04388C12.075 9.04388 16.2 28.8 18.1125 28.8C20.0249 28.8 24.15 9.04388 24.15 9.04388" stroke="white" stroke-width="1.5"/>
<line x1="17.8875" y1="28.8" x2="17.8875" y2="7.20002" stroke="white" stroke-width="1.5"/>
<defs>
<linearGradient id="paint0_linear" x1="18" y1="0" x2="18" y2="36" gradientUnits="userSpaceOnUse">
<stop stop-color="#6236FF"/>
<stop offset="1" stop-color="#3000DA"/>
</linearGradient>
</defs>
</svg>
