<svg
  class={[@class]}
  viewBox="0 0 407 407"
  version="1.1"
  xmlns="http://www.w3.org/2000/svg"
  xmlns:xlink="http://www.w3.org/1999/xlink"
>
  <defs>
    <linearGradient x1="50%" y1="0%" x2="50%" y2="100%" id="linearGradient-1">
      <stop stop-color="#6236FF" offset="0%"></stop>
      <stop stop-color="#3000DA" offset="100%"></stop>
    </linearGradient>
  </defs>
  <g id="Page-1" stroke="none" stroke-width="1" fill="none" fill-rule="evenodd">
    <g id="Rounded">
      <circle
        id="Oval"
        fill="url(#linearGradient-1)"
        fill-rule="nonzero"
        cx="203.5"
        cy="203.5"
        r="203.5"
      >
      </circle>
      <path
        d="M100.902,294.082 C100.902,294.082 143.722,328.144 204.772,328.144 C265.822,328.144 308.642,294.082 308.642,294.082"
        id="Path"
        stroke="#FFFFFF"
        stroke-width="10.175"
      >
      </path>
      <path
        d="M89.0312,236.259 C89.0312,236.259 163.224,325.6 204.772,325.6 C246.32,325.6 320.513,236.259 320.513,236.259"
        id="Path"
        stroke="#FFFFFF"
        stroke-width="10.175"
      >
      </path>
      <path
        d="M89.0312,164.785 C89.0312,164.785 163.224,325.6 204.772,325.6 C246.32,325.6 320.513,164.785 320.513,164.785"
        id="Path"
        stroke="#FFFFFF"
        stroke-width="10.175"
      >
      </path>
      <path
        d="M136.515,102.246 C136.515,102.246 183.15,325.6 204.772,325.6 C226.394,325.6 273.029,102.246 273.029,102.246"
        id="Path"
        stroke="#FFFFFF"
        stroke-width="10.175"
      >
      </path>
      <line
        x1="205.62"
        y1="325.6"
        x2="205.62"
        y2="81.4"
        id="Path"
        stroke="#FFFFFF"
        stroke-width="10.175"
      >
      </line>
    </g>
  </g>
</svg>
