<svg width="825" height="825" viewBox="0 0 825 825" fill="none" xmlns="http://www.w3.org/2000/svg">
<mask id="mask0_69_27" style="mask-type:alpha" maskUnits="userSpaceOnUse" x="0" y="0" width="825" height="825">
<path fill-rule="evenodd" clip-rule="evenodd" d="M799.582 93.8687C783.633 64.0464 760.229 40.6416 730.406 24.6926C700.584 8.74366 671.003 0.25 589.429 0.25H234.62C153.046 0.25001 123.466 8.74366 93.6436 24.6926C63.8213 40.6416 40.4166 64.0464 24.4675 93.8687C8.51843 123.691 0.0249023 153.271 0.0249023 234.845V589.655C0.0249023 671.229 8.51843 700.809 24.4675 730.631C40.4166 760.454 63.8213 783.858 93.6436 799.807C123.466 815.756 153.046 824.25 234.62 824.25H589.429C671.003 824.25 700.584 815.756 730.406 799.807C760.229 783.858 783.633 760.454 799.582 730.631C815.531 700.809 824.025 671.229 824.025 589.655V234.845C824.025 153.272 815.531 123.691 799.582 93.8687V93.8687Z" fill="white"/>
</mask>
<g mask="url(#mask0_69_27)">
<path opacity="0.08" fill-rule="evenodd" clip-rule="evenodd" d="M276.025 55.25V105.65H327.225V55.25H331.225V105.65H382.425V55.25H386.425V105.65H437.625V55.25H441.625V105.65H492.825V55.25H496.825V105.65H548.025V55.25H552.025V105.65H603.225V55.34C604.58 55.358 605.91 55.38 607.225 55.404V105.65H658.425V58.751C659.798 58.942 661.132 59.14 662.425 59.344V105.65H713.625V78.846C714.981 79.748 716.318 80.671 717.625 81.624V105.65H741.651C742.605 106.957 743.527 108.294 744.43 109.65H717.625V160.85H763.931C764.136 162.144 764.333 163.478 764.524 164.85H717.625V216.05H767.871C767.895 217.365 767.917 218.694 767.935 220.05H717.625V271.25H768.025V275.25H717.625V326.45H768.025V330.45H717.625V381.65H768.025V385.65H717.625V436.85H768.025V440.85H717.625V492.05H768.025V496.05H717.625V547.25H768.025V551.25H717.625V602.45H767.935C767.917 603.806 767.895 605.135 767.871 606.45H717.625V657.65H764.524C764.333 659.023 764.135 660.357 763.931 661.65H717.625V712.85H744.43C743.528 714.206 742.605 715.542 741.651 716.85H717.625V740.876C716.318 741.829 714.981 742.752 713.625 743.654V716.85H662.425V763.156C661.132 763.36 659.798 763.558 658.425 763.749V716.85H607.225V767.096C605.91 767.12 604.58 767.142 603.225 767.16V716.85H552.025V767.25H548.025V716.85H496.825V767.25H492.825V716.85H441.625V767.25H437.625V716.85H386.425V767.25H382.425V716.85H331.225V767.25H327.225V716.85H276.025V767.25H272.025V716.85H220.825V767.16C219.47 767.142 218.14 767.12 216.825 767.096V716.85H165.625V763.749C164.252 763.558 162.918 763.36 161.625 763.156V716.85H110.425V743.654C109.069 742.752 107.732 741.829 106.425 740.876V716.85H82.3989C81.4449 715.542 80.5219 714.206 79.6199 712.85H106.425V661.65H60.1189C59.9149 660.357 59.7169 659.023 59.5259 657.65H106.425V606.45H56.1789C56.1549 605.135 56.1329 603.806 56.1149 602.45H106.425V551.25H56.0249V547.25H106.425V496.05H56.0249V492.05H106.425V440.85H56.0249V436.85H106.425V385.65H56.0249V381.65H106.425V330.45H56.0249V326.45H106.425V275.25H56.0249V271.25H106.425V220.05H56.1149C56.1329 218.694 56.1549 217.365 56.1789 216.05H106.425V164.85H59.5259C59.7169 163.478 59.9139 162.144 60.1189 160.85H106.425V109.65H79.6199C80.5229 108.294 81.4459 106.957 82.3989 105.65H106.425V81.624C107.732 80.671 109.069 79.748 110.425 78.846V105.65H161.625V59.344C162.918 59.14 164.252 58.942 165.625 58.751V105.65H216.825V55.404C218.14 55.38 219.47 55.358 220.825 55.34V105.65H272.025V55.25H276.025ZM216.825 661.651H165.625V712.85H216.825V661.651ZM437.625 109.651H386.425V125.341L385.131 125.456L382.425 240.543V220.05H331.225V271.25H381.703L381.609 275.25H331.225V326.45H380.406L380.312 330.45H331.225V381.65H379.108L379.014 385.651H331.225L331.225 396.088C329.746 391.285 328.288 386.472 326.85 381.651L327.225 381.65V330.45L312.426 330.451C312.071 329.118 311.718 327.785 311.367 326.451L327.225 326.45V275.25L298.607 275.251C298.294 273.918 297.981 272.585 297.67 271.251L327.225 271.25V220.05L286.37 220.05C286.092 218.717 285.815 217.384 285.54 216.051L327.225 216.05V164.85H276.025L276.024 198.701C274.685 199.388 273.352 200.086 272.025 200.793L272.025 164.85H220.825V216.05L246.544 216.049C244.582 217.36 242.637 218.694 240.709 220.05L220.825 220.05V271.25L240.5 271.251C240.727 272.584 240.955 273.917 241.185 275.251L220.825 275.25V326.45L250.593 326.451C250.855 327.784 251.118 329.118 251.383 330.451L220.825 330.45V381.65L262.309 381.65C262.615 382.985 262.922 384.318 263.232 385.652L220.825 385.651L220.825 407.956C219.483 405.786 218.15 403.61 216.825 401.428L216.825 385.651L207.458 385.652C206.684 384.32 205.913 382.986 205.145 381.651L216.825 381.65V330.45H165.625L165.625 348.247C164.268 350.236 162.935 352.243 161.626 354.266L161.625 330.45H110.425V381.65L145.901 381.65C145.451 382.54 145.006 383.432 144.566 384.327C144.769 384.769 144.973 385.211 145.178 385.652L110.425 385.651V436.85H161.625L161.624 419.676C162.946 422.292 164.279 424.904 165.625 427.512L165.625 436.85L170.506 436.851C171.213 438.185 171.922 439.519 172.635 440.851L165.625 440.85V492.05L202.817 492.051C203.659 493.385 204.505 494.718 205.356 496.051L165.625 496.05L165.625 522.476C164.268 524.464 162.935 526.47 161.625 528.493L161.625 496.05H110.425V547.25L150.44 547.25C149.714 548.577 148.997 549.911 148.291 551.25L110.425 551.25V602.45H161.625L161.619 584.026C162.945 585.293 164.279 586.547 165.62 587.789L165.625 602.45L182.457 602.458C184.105 603.808 185.763 605.141 187.429 606.458L165.625 606.45V657.65H216.825L216.82 627.383C218.149 628.232 219.483 629.072 220.82 629.903L220.825 657.65H272.025L272.024 656.269C276.56 658.163 281.127 659.961 285.722 661.662L276.025 661.651V712.85H327.225L327.223 674.258C328.555 674.577 329.889 674.888 331.224 675.192L331.225 712.85H382.425L382.426 683.048C383.758 683.156 385.091 683.257 386.424 683.351L386.425 712.85H437.625L437.625 683.352C438.959 683.259 440.293 683.158 441.626 683.049L441.625 712.85H492.825L492.827 675.195C494.162 674.892 495.495 674.581 496.828 674.262L496.825 712.85H548.025V661.651L538.345 661.662C542.934 659.962 547.496 658.167 552.027 656.275L552.025 657.65H603.225L603.231 629.91C604.568 629.08 605.901 628.24 607.23 627.391L607.225 657.65H658.425V606.45L636.632 606.458C638.299 605.141 639.956 603.808 641.605 602.458L658.425 602.45L658.431 587.799C659.772 586.556 661.106 585.302 662.432 584.036L662.425 602.45H713.625V551.25L675.771 551.25C675.064 549.911 674.348 548.577 673.621 547.25L713.625 547.25V496.05H662.425L662.426 528.477C661.117 526.454 659.783 524.448 658.426 522.46L658.425 496.05L618.949 496.051C619.793 494.719 620.633 493.386 621.469 492.05L658.425 492.05V440.85L651.156 440.851C651.874 439.517 652.588 438.184 653.298 436.85L658.425 436.85L658.426 427.092C659.775 424.492 661.108 421.895 662.426 419.301L662.425 436.849H713.625V385.65H678.812L679.461 384.26C679.031 383.387 678.597 382.517 678.159 381.65L713.625 381.65V330.45H662.425L662.426 354.253C661.116 352.23 659.783 350.224 658.426 348.235L658.425 330.45H607.225V381.65L618.916 381.651C618.149 382.986 617.378 384.32 616.604 385.652L607.225 385.651L607.225 401.446C605.901 403.628 604.568 405.804 603.225 407.974L603.225 385.651L560.83 385.651C561.139 384.318 561.446 382.984 561.752 381.65L603.225 381.65V330.45L572.678 330.451C572.943 329.117 573.206 327.784 573.468 326.45L603.225 326.45V275.25L582.876 275.251C583.106 273.917 583.334 272.584 583.561 271.25L603.225 271.25V220.05L583.352 220.05C581.424 218.694 579.479 217.36 577.517 216.049L603.225 216.05V164.85H552.025L552.026 200.787C550.699 200.08 549.365 199.383 548.026 198.695L548.025 164.85H496.825V216.05L538.522 216.051C538.246 217.384 537.969 218.717 537.691 220.05L496.825 220.05V271.25L526.392 271.251C526.081 272.585 525.768 273.918 525.455 275.251L496.825 275.25V326.45L512.695 326.451C512.344 327.785 511.99 329.118 511.636 330.451L496.825 330.45V381.65L497.212 381.651C495.77 386.484 494.309 391.308 492.826 396.123L492.825 385.651H445.047L444.953 381.65H492.825V330.45H443.749L443.655 326.45H492.825V275.25H442.451L442.357 271.25H492.825V220.05H441.625V240.097L438.931 125.456C438.496 125.416 438.06 125.377 437.625 125.339L437.625 109.651ZM603.225 661.651H552.025V712.85H603.225V661.651ZM161.625 661.651H110.425V712.85H161.625V661.651ZM272.025 661.651H220.825V712.85H272.025V661.651ZM658.425 661.651H607.225V712.85H658.425V661.651ZM713.625 661.65H662.425V712.849H713.625V661.65ZM161.625 606.45H110.425V657.65H161.625V606.45ZM713.625 606.45H662.425V657.65H713.625V606.45ZM607.226 514.001L607.225 547.25L609.436 547.25C607.224 548.602 605.002 549.936 602.772 551.25L580.353 551.251C581.383 549.922 582.408 548.589 583.428 547.251L603.225 547.25L603.226 519.883C604.569 517.929 605.902 515.968 607.226 514.001ZM216.825 513.554C218.148 515.52 219.482 517.482 220.825 519.44L220.825 547.25L240.872 547.251C241.887 548.588 242.907 549.921 243.932 551.25L221.276 551.251C219.046 549.937 216.825 548.603 214.614 547.251L216.825 547.25L216.825 513.554ZM543.38 492.051C542.423 493.209 541.462 494.363 540.498 495.514C540.344 495.693 540.191 495.872 540.037 496.051L530.618 496.051C531.046 494.718 531.471 493.385 531.894 492.05L543.38 492.051ZM459.27 492.051C458.734 493.386 458.195 494.72 457.653 496.051L447.642 496.05L447.548 492.05L459.27 492.051ZM376.514 492.05L376.42 496.05L366.37 496.051C365.831 494.719 365.295 493.386 364.763 492.051L376.514 492.05ZM292.168 492.051C292.591 493.385 293.016 494.718 293.443 496.051L284.018 496.05L283.564 495.514C282.599 494.363 281.638 493.209 280.681 492.051L292.168 492.051ZM161.625 440.85H110.425V492.05H161.625V440.85ZM713.625 440.85H662.425V492.05H713.625V440.85ZM552.026 421.681L552.025 436.85L584.559 436.851C583.655 438.187 582.748 439.52 581.837 440.851L552.025 440.85L552.026 481.365C550.7 483.038 549.367 484.705 548.026 486.365L548.025 440.85L546.95 440.851C548.687 434.472 550.378 428.082 552.026 421.681ZM272.026 421.642C273.331 426.713 274.664 431.778 276.025 436.836L276.025 436.85C276.388 438.184 276.749 439.518 277.112 440.851L276.025 440.85L276.025 486.352C274.684 484.692 273.35 483.025 272.025 481.351L272.025 440.85L242.225 440.851C241.314 439.52 240.406 438.187 239.503 436.851L272.025 436.85L272.026 421.642ZM479.653 436.85C479.198 438.185 478.741 439.519 478.281 440.851L446.344 440.85L446.25 436.85L479.653 436.85ZM377.811 436.85L377.717 440.85L345.839 440.851C345.378 439.518 344.918 438.184 344.46 436.85L377.811 436.85ZM713.625 275.25H662.425V326.45H713.625V275.25ZM161.625 275.25H110.425V326.45H161.625V275.25ZM658.425 275.25H607.225V326.45H658.425V275.25ZM216.825 275.25H165.625V326.45H216.825V275.25ZM713.625 220.05H662.425V271.25H713.625V220.05ZM216.825 220.05H165.625V271.25H216.825V220.05ZM658.425 220.05H607.225V271.25H658.425V220.05ZM161.625 220.05H110.425V271.25H161.625V220.05ZM658.425 164.85H607.225V216.05H658.425V164.85ZM713.625 164.85H662.425V216.05H713.625V164.85ZM492.825 164.85H441.625V216.05H492.825V164.85ZM161.625 164.85H110.425V216.05H161.625V164.85ZM382.425 164.85H331.225V216.05H382.425V164.85ZM216.825 164.85H165.625V216.05H216.825V164.85ZM548.025 109.651H496.825V160.85H548.025V109.651ZM382.425 109.651H331.225V160.85H382.425V109.651ZM161.625 109.651H110.425V160.85H161.625V109.651ZM658.425 109.651H607.225V160.85H658.425V109.651ZM492.825 109.651H441.625V160.85H492.825V109.651ZM272.025 109.651H220.825V160.85H272.025V109.651ZM216.825 109.651H165.625V160.85H216.825V109.651ZM327.225 109.651H276.025V160.85H327.225V109.651ZM603.225 109.651H552.025V160.85H603.225V109.651ZM713.625 109.65H662.425V160.849H713.625V109.65Z" fill="white"/>
<rect x="44" y="43" width="736" height="736" rx="189.75" stroke="white" stroke-width="12"/>
</g>
</svg>
