<svg width="546" height="567" viewBox="0 0 546 567" fill="none" xmlns="http://www.w3.org/2000/svg">
<path fill-rule="evenodd" clip-rule="evenodd" d="M543.037 442.847C398.499 603.401 147.531 603.368 3.02466 442.847C10.8487 426.13 20.1747 410.292 30.8357 395.466C59.2727 417.24 89.6657 436.142 121.612 450.937C88.6757 411.925 60.8357 368.2 36.9327 325.958C25.7187 305.363 15.3157 284.474 5.56566 263.327C14.7617 244.654 25.8807 227.09 38.6297 210.861L39.1177 210.635C68.6597 268.638 102.928 324.851 144.564 374.514C149.66 380.563 154.85 386.501 160.132 392.328C128.493 298.669 109.017 201.683 94.1227 104.562C109.188 93.2548 125.36 83.3168 142.478 74.9728C157.804 152.402 176.845 229.111 201.2 303.31C211.943 335.253 223.379 367 236.891 397.585L246.131 4.45576C254.999 3.64176 263.966 3.24976 273.031 3.24976C282.097 3.24976 291.063 3.64176 299.931 4.45576L309.17 397.471C322.522 367.13 334.243 335.454 344.862 303.31C369.218 229.111 388.259 152.402 403.584 74.9728C420.702 83.3168 436.874 93.2548 451.939 104.562C437.057 201.603 417.601 298.511 386.008 392.099C391.274 386.291 396.441 380.416 401.498 374.514C443.135 324.851 477.402 268.638 506.945 210.635L507.432 210.861C520.149 227.058 531.268 244.59 540.461 263.26C511.145 326.292 472.705 394.269 424.666 450.828C456.526 436.05 486.845 417.188 515.227 395.466C525.887 410.292 535.214 426.13 543.037 442.847Z" fill="url(#paint0_linear_69_11)"/>
<path fill-rule="evenodd" clip-rule="evenodd" d="M416.572 530.394C371.086 550.201 322.739 560.244 272.875 560.244C223.009 560.244 174.66 550.2 129.171 530.39C82.4862 510.061 41.2572 480.435 6.59221 442.312C13.6412 427.506 21.9982 413.201 31.4682 399.725C60.3202 421.57 90.1872 439.706 120.282 453.652C121.558 454.246 123.074 453.869 123.928 452.75C124.781 451.632 124.743 450.071 123.836 448.996C95.4902 415.401 67.9122 374.67 39.5482 324.517C29.0192 305.168 18.7072 284.601 8.88921 263.366C17.1572 246.776 27.0892 230.85 38.4522 215.958C71.1822 279.696 105.139 332.223 142.186 376.438C147.274 382.482 152.533 388.503 157.817 394.335C158.771 395.386 160.333 395.627 161.559 394.908C162.784 394.188 163.337 392.707 162.883 391.361C135.76 311.027 114.913 220.28 97.3092 105.881C110.863 95.8303 125.274 86.9363 140.218 79.3963C156.643 161.753 175.633 235.342 198.241 304.258C207.103 330.623 219.177 365.194 234.01 398.79C234.578 400.077 235.962 400.799 237.339 400.521C238.717 400.248 239.72 399.053 239.754 397.649L248.926 7.20626C264.513 5.92826 281.236 5.92826 296.822 7.20626L305.992 397.534C306.026 398.939 307.03 400.133 308.409 400.407C309.788 400.672 311.172 399.957 311.738 398.671C324.144 370.465 335.846 339.577 347.514 304.238C370.116 235.341 389.106 161.753 405.53 79.3963C420.475 86.9363 434.885 95.8303 448.44 105.881C430.852 220.166 410.027 310.855 382.944 391.133C382.489 392.48 383.042 393.96 384.267 394.679C385.492 395.398 387.054 395.159 388.009 394.107C393.138 388.447 398.366 382.508 403.567 376.433C440.61 332.223 474.566 279.697 507.296 215.959C518.667 230.866 528.586 246.767 536.821 263.293C502.162 337.623 463.581 400.055 422.134 448.88C421.222 449.955 421.181 451.518 422.034 452.639C422.888 453.76 424.407 454.136 425.684 453.542C455.703 439.61 485.497 421.51 514.28 399.724C523.751 413.202 532.107 427.505 539.157 442.311C504.489 480.438 463.257 510.065 416.572 530.394ZM545.441 441.57C537.626 424.86 528.18 408.757 517.366 393.708C516.892 393.05 516.172 392.611 515.369 392.492C514.567 392.375 513.75 392.584 513.106 393.078C487.861 412.41 461.82 428.866 435.532 442.112C474.222 394.275 510.291 334.607 542.87 264.518C543.252 263.695 543.242 262.744 542.841 261.929C533.703 243.357 522.485 225.55 509.499 209.002C509.208 208.63 508.833 208.333 508.405 208.134L507.918 207.908C506.453 207.228 504.712 207.828 503.979 209.266C470.831 274.387 436.482 327.808 398.989 372.555C397.058 374.81 395.121 377.048 393.186 379.262C418.32 301.634 437.94 213.992 454.644 105.009C454.811 103.916 454.364 102.82 453.48 102.157C438.156 90.6493 421.734 80.5933 404.667 72.2703C403.83 71.8633 402.851 71.8653 402.018 72.2803C401.184 72.6933 400.59 73.4713 400.409 74.3843C383.857 158.059 364.69 232.633 341.815 302.362C331.924 332.319 322.013 359.051 311.668 383.648L302.758 4.37926C302.722 2.85626 301.55 1.60226 300.033 1.46226C282.434 -0.154738 263.314 -0.154738 245.716 1.46226C244.198 1.60226 243.027 2.85626 242.991 4.37926L234.078 383.765C221.797 354.483 211.643 325.297 203.935 302.367C181.059 232.633 161.892 158.059 145.34 74.3843C145.159 73.4713 144.565 72.6933 143.731 72.2803C142.897 71.8653 141.918 71.8633 141.082 72.2703C124.015 80.5933 107.592 90.6493 92.2692 102.157C91.3852 102.82 90.9382 103.916 91.1052 105.009C107.817 214.048 127.455 301.748 152.609 379.406C150.647 377.139 148.701 374.861 146.78 372.58C109.267 327.808 74.9182 274.387 41.7702 209.266C41.0372 207.828 39.2952 207.226 37.8302 207.908L37.3432 208.134C36.9162 208.333 36.5412 208.63 36.2492 209.001C23.2772 225.525 12.0472 243.355 2.87321 261.995C2.47321 262.806 2.46121 263.754 2.84021 264.576C12.8932 286.392 23.4702 307.525 34.3012 327.427C59.9622 372.801 84.9892 410.52 110.532 442.28C84.1352 429.007 57.9892 412.495 32.6432 393.078C31.9992 392.584 31.1822 392.374 30.3792 392.492C29.5772 392.611 28.8562 393.049 28.3832 393.708C17.5692 408.757 8.12321 424.86 0.307207 441.57C-0.202793 442.661 -0.0107927 443.952 0.794207 444.847C36.3122 484.324 78.6982 514.956 126.776 535.891C173.025 556.032 222.18 566.244 272.875 566.244H272.877C323.568 566.244 372.724 556.032 418.968 535.895C467.045 514.959 509.433 484.327 544.954 444.847C545.76 443.952 545.951 442.661 545.441 441.57Z" fill="white"/>
<defs>
<linearGradient id="paint0_linear_69_11" x1="273.031" y1="3.24976" x2="273.031" y2="563.25" gradientUnits="userSpaceOnUse">
<stop stop-color="#AF91F6"/>
<stop offset="1" stop-color="#6C3EC4"/>
</linearGradient>
</defs>
</svg>
