<svg width="366" height="187" viewBox="0 0 366 187" fill="none" xmlns="http://www.w3.org/2000/svg">
<rect width="366" height="187" rx="14" fill="#190E40"/>
<circle cx="180.5" cy="62.5" r="24" stroke="#6236FF" stroke-width="3" stroke-dasharray="2 4"/>
<g filter="url(#filter0_dd)">
<circle cx="180.5" cy="62.5" r="17.5" fill="#6236FF"/>
</g>
<circle cx="60" cy="127" r="16.5" stroke="#6236FF" stroke-width="3" stroke-dasharray="2 4"/>
<circle cx="60" cy="127" r="10" fill="#F05138"/>
<circle cx="120" cy="127" r="10" fill="#6236FF"/>
<circle cx="181" cy="127" r="10" fill="white"/>
<circle cx="240" cy="127" r="10" fill="#494949"/>
<circle cx="300" cy="127" r="10" fill="#87858E"/>
<circle cx="120" cy="127" r="16.5" stroke="#6236FF" stroke-width="3" stroke-dasharray="2 4"/>
<circle cx="180" cy="127" r="16.5" stroke="#6236FF" stroke-width="3" stroke-dasharray="2 4"/>
<circle cx="240" cy="127" r="16.5" stroke="#6236FF" stroke-width="3" stroke-dasharray="2 4"/>
<circle cx="300" cy="127" r="16.5" stroke="#6236FF" stroke-width="3" stroke-dasharray="2 4"/>
<path d="M79.5296 109.224C80.8256 109.224 81.3856 108.696 81.6576 108.328L81.9296 109H83.8016V103.752C83.8016 101.544 82.0896 100.712 80.3936 100.712C78.3776 100.712 77.4016 101.528 76.9056 103.16L78.8896 103.64C79.0176 102.888 79.4336 102.504 80.2976 102.504C81.1776 102.504 81.5296 103 81.5296 103.8V103.848L80.0256 104.056C77.2736 104.424 76.7936 105.656 76.7936 106.712C76.7936 108.376 78.1856 109.224 79.5296 109.224ZM80.1856 107.416C79.4016 107.416 78.9696 107.064 78.9696 106.568C78.9696 106.04 79.2416 105.688 80.1376 105.56L81.5296 105.352V106.216C81.5296 106.952 80.9376 107.416 80.1856 107.416ZM87.2193 109H89.5233V97.8H87.2193C86.5153 98.28 85.5393 98.728 84.8353 98.824V101.16C85.5393 101.096 86.6432 100.76 87.2193 100.376V109Z" fill="#6236FF"/>
<path d="M138.108 109.224C139.404 109.224 139.964 108.696 140.236 108.328L140.508 109H142.38V103.752C142.38 101.544 140.668 100.712 138.972 100.712C136.956 100.712 135.98 101.528 135.484 103.16L137.468 103.64C137.596 102.888 138.012 102.504 138.876 102.504C139.756 102.504 140.108 103 140.108 103.8V103.848L138.604 104.056C135.852 104.424 135.372 105.656 135.372 106.712C135.372 108.376 136.764 109.224 138.108 109.224ZM138.764 107.416C137.98 107.416 137.548 107.064 137.548 106.568C137.548 106.04 137.82 105.688 138.716 105.56L140.108 105.352V106.216C140.108 106.952 139.516 107.416 138.764 107.416ZM143.941 109H151.541V106.856H147.269L149.397 105.032C150.677 103.928 151.525 102.888 151.525 101.192C151.525 99.096 149.765 97.576 147.621 97.576C145.493 97.576 143.845 98.968 143.717 101.08L145.861 101.672C145.829 100.488 146.501 99.72 147.621 99.72C148.613 99.72 149.221 100.44 149.221 101.224C149.221 102.12 148.821 102.664 147.765 103.56L143.941 106.856V109Z" fill="#6236FF"/>
<path d="M197.967 109.224C199.263 109.224 199.823 108.696 200.095 108.328L200.367 109H202.239V103.752C202.239 101.544 200.527 100.712 198.831 100.712C196.815 100.712 195.839 101.528 195.343 103.16L197.327 103.64C197.455 102.888 197.871 102.504 198.735 102.504C199.615 102.504 199.967 103 199.967 103.8V103.848L198.463 104.056C195.711 104.424 195.231 105.656 195.231 106.712C195.231 108.376 196.623 109.224 197.967 109.224ZM198.623 107.416C197.839 107.416 197.407 107.064 197.407 106.568C197.407 106.04 197.679 105.688 198.575 105.56L199.967 105.352V106.216C199.967 106.952 199.375 107.416 198.623 107.416ZM207.561 109.224C209.961 109.224 211.689 107.592 211.689 105.336C211.689 103.128 210.393 102.072 209.065 101.832L210.953 99.944V97.8H203.977V99.944H208.249L205.737 102.312L206.905 103.704C207.097 103.624 207.337 103.592 207.561 103.592C208.649 103.592 209.385 104.312 209.385 105.336C209.385 106.344 208.633 107.08 207.561 107.08C206.473 107.08 205.737 106.264 205.705 105.256L203.577 105.88C203.593 107.672 205.145 109.224 207.561 109.224Z" fill="#6236FF"/>
<path d="M258.014 109.224C259.31 109.224 259.87 108.696 260.142 108.328L260.414 109H262.286V103.752C262.286 101.544 260.574 100.712 258.878 100.712C256.862 100.712 255.886 101.528 255.39 103.16L257.374 103.64C257.502 102.888 257.918 102.504 258.782 102.504C259.662 102.504 260.014 103 260.014 103.8V103.848L258.51 104.056C255.758 104.424 255.278 105.656 255.278 106.712C255.278 108.376 256.67 109.224 258.014 109.224ZM258.67 107.416C257.886 107.416 257.454 107.064 257.454 106.568C257.454 106.04 257.726 105.688 258.622 105.56L260.014 105.352V106.216C260.014 106.952 259.422 107.416 258.67 107.416ZM268.376 109H270.68L270.696 106.264H271.848V104.312H270.696L270.68 97.8H268.216L263.416 104.584V106.264H268.392L268.376 109ZM265.944 104.312L268.376 100.968L268.392 104.312H265.944Z" fill="#6236FF"/>
<path d="M318.006 109.224C319.302 109.224 319.862 108.696 320.134 108.328L320.406 109H322.278V103.752C322.278 101.544 320.566 100.712 318.87 100.712C316.854 100.712 315.878 101.528 315.382 103.16L317.366 103.64C317.494 102.888 317.91 102.504 318.774 102.504C319.654 102.504 320.006 103 320.006 103.8V103.848L318.502 104.056C315.75 104.424 315.27 105.656 315.27 106.712C315.27 108.376 316.662 109.224 318.006 109.224ZM318.662 107.416C317.878 107.416 317.446 107.064 317.446 106.568C317.446 106.04 317.718 105.688 318.614 105.56L320.006 105.352V106.216C320.006 106.952 319.414 107.416 318.662 107.416ZM327.568 109.224C329.888 109.224 331.632 107.72 331.648 105.32C331.632 103.016 330.016 101.624 327.76 101.624C327.152 101.624 326.624 101.784 326.384 101.912L326.592 99.96H330.864V97.8H324.608L324.032 103.56L326 104.28C326.304 103.896 326.848 103.592 327.568 103.592C328.56 103.592 329.344 104.28 329.344 105.336C329.344 106.376 328.56 107.08 327.568 107.08C326.56 107.08 325.776 106.44 325.744 105.368L323.616 106.008C323.648 107.768 325.344 109.224 327.568 109.224Z" fill="#6236FF"/>
<defs>
<filter id="filter0_dd" x="158" y="41" width="45" height="45" filterUnits="userSpaceOnUse" color-interpolation-filters="sRGB">
<feFlood flood-opacity="0" result="BackgroundImageFix"/>
<feColorMatrix in="SourceAlpha" type="matrix" values="0 0 0 0 0 0 0 0 0 0 0 0 0 0 0 0 0 0 127 0"/>
<feOffset dy="1"/>
<feGaussianBlur stdDeviation="2.5"/>
<feColorMatrix type="matrix" values="0 0 0 0 0 0 0 0 0 0 0 0 0 0 0 0 0 0 0.0640297 0"/>
<feBlend mode="normal" in2="BackgroundImageFix" result="effect1_dropShadow"/>
<feColorMatrix in="SourceAlpha" type="matrix" values="0 0 0 0 0 0 0 0 0 0 0 0 0 0 0 0 0 0 127 0"/>
<feMorphology radius="1" operator="dilate" in="SourceAlpha" result="effect2_dropShadow"/>
<feOffset/>
<feColorMatrix type="matrix" values="0 0 0 0 0 0 0 0 0 0 0 0 0 0 0 0 0 0 0.0504535 0"/>
<feBlend mode="normal" in2="effect1_dropShadow" result="effect2_dropShadow"/>
<feBlend mode="normal" in="SourceGraphic" in2="effect2_dropShadow" result="shape"/>
</filter>
</defs>
</svg>
