<svg width="221" height="100" viewBox="0 0 221 100" fill="none" xmlns="http://www.w3.org/2000/svg">
<path d="M200.62 56.63C189.04 56.63 179.62 47.21 179.62 35.62C179.62 23.84 188.57 14.62 199.99 14.62C211.41 14.62 220.36 23.85 220.36 35.62V39.78H188.63L188.76 40.13C190.62 45.02 195.39 48.31 200.62 48.31C204.08 48.31 207.3 46.96 209.69 44.49L217.16 48.57C213.15 53.7 207.14 56.63 200.62 56.63ZM199.99 22.94C194.79 22.94 190.35 26.15 188.66 31.12L188.55 31.46H211.43L211.32 31.12C209.63 26.15 205.19 22.94 199.99 22.94ZM153.52 56.63C141.94 56.63 132.51 47.21 132.51 35.62C132.51 23.84 141.46 14.62 152.89 14.62C164.31 14.62 173.26 23.85 173.26 35.62V39.78H141.53L141.66 40.13C143.53 45.02 148.29 48.31 153.52 48.31C156.98 48.31 160.2 46.96 162.59 44.49L170.06 48.57C166.05 53.7 160.04 56.63 153.52 56.63ZM152.89 22.94C147.69 22.94 143.25 26.15 141.56 31.12L141.45 31.46H164.33L164.22 31.12C162.53 26.15 158.08 22.94 152.89 22.94ZM70.3 56.63C58.72 56.63 49.3 47.21 49.3 35.62C49.3 24.04 58.72 14.62 70.3 14.62C77.37 14.62 83.89 18.12 87.8 24.01L80.25 27.76C77.83 24.69 74.22 22.94 70.3 22.94C63.31 22.94 57.62 28.63 57.62 35.62C57.62 42.61 63.31 48.3 70.3 48.3C74.21 48.3 77.83 46.55 80.25 43.48L87.8 47.23C83.89 53.12 77.37 56.63 70.3 56.63ZM21.18 56.63C9.59999 56.63 0.179993 47.21 0.179993 35.62C0.179993 24.04 9.59999 14.62 21.18 14.62C25.61 14.62 29.86 16 33.46 18.6L33.86 18.89V16.17H42.18V55.08H33.86V52.36L33.46 52.65C29.86 55.25 25.62 56.63 21.18 56.63ZM21.18 22.94C14.19 22.94 8.49999 28.63 8.49999 35.62C8.49999 42.61 14.19 48.3 21.18 48.3C28.17 48.3 33.86 42.61 33.86 35.62C33.87 28.63 28.18 22.94 21.18 22.94ZM119.86 55.08L107.39 40.1H102.48V55.08H94.16V0.620003H102.48V31.15H107.39L119.84 16.17H130.66L114.48 35.63L130.67 55.09H119.86V55.08Z" fill="black"/>
</svg>
