<svg width="24" height="24" viewBox="0 0 24 24" fill="none" xmlns="http://www.w3.org/2000/svg">
<path fill-rule="evenodd" clip-rule="evenodd" d="M3.48748 18.4552C2.90748 18.4552 2.35748 18.2252 1.93748 17.8052C1.07748 16.9452 1.07748 15.5552 1.93748 14.6952L2.69748 13.9552C2.93748 13.7252 3.30748 13.7252 3.54748 13.9652C3.77748 14.2052 3.77748 14.5852 3.53748 14.8152L2.78748 15.5552C2.39748 15.9452 2.39748 16.5652 2.78748 16.9652C3.17748 17.3552 3.82748 17.3352 4.19748 16.9652L7.94748 13.2352C8.06748 13.1152 8.21748 13.0552 8.37748 13.0552C8.53748 13.0552 8.68748 13.1152 8.79748 13.2352L11.8775 16.3352C12.0675 16.5452 12.3375 16.6552 12.6275 16.6652C12.7975 16.6652 12.9875 16.6052 13.1375 16.5152C13.1475 16.5052 13.1575 16.5052 13.1675 16.4952C13.2175 16.4552 13.2675 16.4252 13.3075 16.3852C13.3175 16.3752 13.3275 16.3652 13.3475 16.3552C13.3575 16.3452 13.3675 16.3352 13.3775 16.3252L14.3175 15.3852C14.5475 15.1552 14.9275 15.1552 15.1675 15.3852C15.3975 15.6152 15.3975 15.9952 15.1675 16.2352L14.2375 17.1552C14.2075 17.1952 14.1675 17.2252 14.1375 17.2552C14.0675 17.3252 13.9775 17.4052 13.8675 17.4852C13.8575 17.4952 13.8375 17.5052 13.8275 17.5152C13.4875 17.7452 13.0775 17.8652 12.6375 17.8752C11.9875 17.8652 11.4075 17.6152 11.0175 17.1752L8.37748 14.4952L5.04748 17.8052C4.63748 18.2252 4.06748 18.4552 3.48748 18.4552Z" fill="white"/>
<path fill-rule="evenodd" clip-rule="evenodd" d="M20.4975 15.6249C19.2875 15.6149 18.2975 14.6249 18.2875 13.4249V13.0849L17.0675 14.3049C16.8375 14.5349 16.4575 14.5349 16.2175 14.3049C15.9875 14.0749 15.9875 13.6949 16.2175 13.4549L18.4675 11.2049C18.6375 11.0349 18.8975 10.9849 19.1175 11.0749C19.3375 11.1649 19.4875 11.3849 19.4875 11.6349L19.4775 13.4249C19.4775 13.9749 19.9375 14.4249 20.4875 14.4249C21.0275 14.4249 21.4875 13.9649 21.4875 13.4149L21.4975 7.75492C21.4975 7.67492 21.4975 7.63492 21.4775 7.56492C21.4675 7.54492 21.4375 7.45492 21.4375 7.43492L21.3975 7.32492C21.3675 7.28492 21.3475 7.23492 21.3275 7.19492C21.2875 7.14492 21.2475 7.09492 21.2075 7.05492C21.1475 6.99492 21.1075 6.97492 21.0975 6.96492C21.0775 6.95492 21.0575 6.94492 21.0375 6.92492C20.9975 6.90492 20.9475 6.88492 20.9075 6.85492C20.8875 6.85492 20.8275 6.82492 20.8075 6.81492C20.7775 6.80492 20.6675 6.77492 20.6475 6.76492C20.6575 6.77492 20.5675 6.75492 20.4875 6.75492H14.8475C14.2975 6.75492 13.8475 7.21492 13.8375 7.76492C13.8375 8.30492 14.2975 8.75492 14.8375 8.75492L16.6375 8.74492C16.8775 8.74492 17.0975 8.88492 17.1875 9.11492C17.2775 9.33492 17.2275 9.59492 17.0575 9.76492L13.0475 13.7949C12.8175 14.0249 12.4375 14.0249 12.1975 13.7949L9.07755 10.6849C8.95755 10.5549 8.81755 10.4749 8.66755 10.4349C8.29755 10.3249 7.91755 10.4149 7.66755 10.6749L5.44755 12.9049C5.21755 13.1349 4.83755 13.1349 4.59755 12.9049C4.36755 12.6749 4.36755 12.2949 4.59755 12.0549L6.72755 9.92492C6.76755 9.87492 6.79755 9.83492 6.81755 9.81492C7.37755 9.25492 8.21755 9.04492 8.97755 9.27492C9.31755 9.35492 9.64755 9.54492 9.92755 9.82492L12.6275 12.5249L15.1875 9.95492H14.8275C13.6175 9.95492 12.6275 8.96492 12.6275 7.75492C12.6375 6.54492 13.6275 5.56492 14.8275 5.54492H20.4775C20.6175 5.54492 20.7575 5.56492 20.8875 5.57492C20.9275 5.58492 20.9675 5.58492 20.9975 5.60492C21.1275 5.63492 21.2375 5.67492 21.3175 5.71492C21.4075 5.74492 21.4775 5.78492 21.5275 5.81492C21.5975 5.84492 21.6575 5.87492 21.7075 5.91492C21.8175 5.98492 21.9275 6.07492 22.0475 6.18492C22.1475 6.28492 22.2475 6.40492 22.3275 6.51492C22.3475 6.54492 22.3675 6.58492 22.3875 6.61492C22.3975 6.63492 22.4075 6.64492 22.4175 6.66492C22.4575 6.73492 22.4975 6.81492 22.5375 6.90492C22.5575 6.92492 22.5875 7.03492 22.5975 7.10492C22.6175 7.15492 22.6375 7.20492 22.6475 7.27492C22.6775 7.43492 22.7075 7.59492 22.6975 7.77492L22.7075 13.4049C22.6875 14.6249 21.7075 15.6149 20.4975 15.6249Z" fill="white"/>
</svg>
