<?xml version="1.0" encoding="UTF-8"?><svg version="1.1" viewBox="0 0 52 52" xmlns="http://www.w3.org/2000/svg" xmlns:xlink="http://www.w3.org/1999/xlink"><!--Generated by IJSVG (https://github.com/iconjar/IJSVG)--><g fill="#FFF5BF"><path d="M44.1,10.8l-4.1,4.1c-0.8,0.8 -2.1,0.8 -2.8,0c-0.8,-0.8 -0.8,-2 0,-2.8l4.2,-4.2c0.8,-0.8 2.1,-0.8 2.8,0c0.7,0.8 0.7,2.1 -0.1,2.9Z"></path><path d="M43.2,23.1l-22.2,22.1c-3.9,3.9 -10.3,3.9 -14.2,0v0c-3.9,-3.9 -3.9,-10.2 -8.88178e-16,-14.2l26.7,-26.6c0.8,-0.8 2.1,-0.8 2.8,1.77636e-15v0c0.8,0.8 0.8,2.1 0,2.8l-7.9,7.9c-0.8,0.8 -0.8,2.2 0.1,3c0.8,0.7 2.1,0.6 2.8,-0.2l0.7,-0.7c0.8,-0.8 2.1,-0.8 2.8,0c0.8,0.8 0.8,2.1 0,2.8l-3.6,3.6c-0.4,0.4 -0.6,0.9 -0.6,1.4c0,0.7 0.3,1.3 1,1.7c0.8,0.5 1.9,0.3 2.5,-0.4l6.2,-6.2c0.8,-0.8 2.2,-0.8 2.9,0.1c0.9,0.9 0.8,2.1 7.10543e-15,2.9Z"></path></g><path fill="#F79B6D" d="M19.3912,32.7088c2.81177,2.81177 2.81177,7.37056 0,10.1823c-2.81177,2.81177 -7.37056,2.81177 -10.1823,0c-2.81177,-2.81177 -2.81177,-7.37056 -1.77636e-15,-10.1823c2.81177,-2.81177 7.37056,-2.81177 10.1823,0"></path><path opacity="0.10" d="M19.1,43.1c-2.8,2.6 -7.2,2.5 -9.9,-0.2c-2.7,-2.8 -2.8,-7.1 -0.2,-9.9c-1.5,1.9 -0.6,5.4 2,8.1c2.7,2.6 6.2,3.5 8.1,2Z" fill="#010101"></path><path opacity="0.10" fill="#FFF" d="M19.6,42.6c1.5,-1.9 0.6,-5.4 -2,-8.1c-2.7,-2.7 -6.2,-3.5 -8.1,-2c2.8,-2.6 7.2,-2.5 9.9,0.2c2.7,2.7 2.7,7.1 0.2,9.9Z"></path><g fill="#010101"><path opacity="0.10" d="M43.4,20.2c0.7,0.8 0.6,2 -0.2,2.8l-8,8l-7.2,7.3c-0.8,0.8 -2,0.8 -2.8,0v0c-0.8,-0.8 -0.8,-2.1 0,-2.8l5.2,-5.1c0.9,-0.9 0.7,-2.2 -0.1,-2.9c-0.8,-0.7 -2.1,-0.6 -2.8,0.2l-0.7,0.7c-0.8,0.8 -2.1,0.8 -2.8,0c-0.8,-0.8 -0.8,-2.1 0,-2.8l3,-3c0.9,-0.9 0.8,-2.5 -0.4,-3.1c-0.8,-0.5 -1.9,-0.3 -2.5,0.4l-5.1,5.1c-0.9,0.8 -2.2,0.8 -2.9,-0.1c-0.7,-0.8 -0.6,-2.1 0.2,-2.8l5,-5l12.2,-12.7c0.8,-0.8 2.1,-0.8 2.8,0v0c0.8,0.8 0.8,2.1 0,2.8l-7.9,7.9c-0.8,0.8 -0.8,2.2 0.1,2.9c0.8,0.7 2.1,0.6 2.8,-0.2l0.7,-0.7c0.8,-0.7 2,-0.8 2.8,0c0.8,0.8 0.8,2.1 0,2.8l-3.6,3.6c-0.4,0.4 -0.6,0.9 -0.6,1.4c0,0.7 0.3,1.3 1,1.7c0.8,0.5 1.9,0.3 2.5,-0.4l6.2,-6.2c1,-0.7 2.3,-0.7 3.1,0.2Z"></path><path opacity="0.10" d="M44.1,10.8l-4.1,4.1c-0.8,0.8 -2.1,0.8 -2.8,0c-0.8,-0.7 -0.8,-2 0,-2.8l4.2,-4.2c0.8,-0.8 2.1,-0.8 2.8,0c0.8,0.9 0.7,2.1 -0.1,2.9Z"></path></g><path fill="#FAB364" d="M6.8,10.9l-1.1,3.1"></path><g fill="#FAB364"><path d="M7.8,13l-3.1,-1.1"></path><path d="M15.3,12.4l-1.1,3.1"></path><path d="M16.3,14.5l-3.1,-1.1"></path></g><path fill="#F79B6D" d="M20.7385,4.56152c1.01536,1.01536 1.01536,2.66159 0,3.67696c-1.01536,1.01536 -2.66159,1.01536 -3.67696,0c-1.01536,-1.01536 -1.01536,-2.66159 0,-3.67696c1.01536,-1.01536 2.66159,-1.01536 3.67696,0"></path><path d="M7.2799,19.5201c1.09347,1.09347 1.09347,2.86633 0,3.9598c-1.09347,1.09347 -2.86633,1.09347 -3.9598,3.55271e-15c-1.09347,-1.09347 -1.09347,-2.86633 -8.88178e-16,-3.9598c1.09347,-1.09347 2.86633,-1.09347 3.9598,-3.55271e-15" fill="#41C1F0"></path><path fill="#FAB364" d="M37.1,38.2l-0.4,3.2"></path><g fill="#FAB364"><path d="M38.6,40l-3.3,-0.4"></path><path d="M44,38.9l-0.3,3.2"></path><path d="M45.5,40.7l-3.3,-0.4"></path></g><path fill="#F79B6D" d="M31.3556,44.4444c0.859153,0.859153 0.859153,2.25212 0,3.11127c-0.859153,0.859153 -2.25212,0.859153 -3.11127,0c-0.859153,-0.859153 -0.859153,-2.25212 -3.55271e-15,-3.11127c0.859153,-0.859153 2.25212,-0.859153 3.11127,0"></path><path d="M48.5335,29.3665c1.28873,1.28873 1.28873,3.37817 0,4.6669c-1.28873,1.28873 -3.37817,1.28873 -4.6669,0c-1.28873,-1.28873 -1.28873,-3.37817 0,-4.6669c1.28873,-1.28873 3.37817,-1.28873 4.6669,0" fill="#41C1F0"></path><path fill="#2A3D66" d="M36.4,15.6c1.2,1.2 3.1,1.2 4.3,0l4.2,-4.2c1.2,-1.2 1.2,-3.1 0,-4.3c-1.1,-1.1 -3.1,-1.1 -4.3,0l-4.2,4.2c-1.2,1.3 -1.2,3.2 0,4.3Zm1.4,-2.8l4.2,-4.2c0.4,-0.4 1,-0.4 1.4,0c0.4,0.4 0.4,1 0,1.4l-4.2,4.2c-0.4,0.4 -1,0.4 -1.4,0c-0.4,-0.4 -0.4,-1 0,-1.4Z"></path><g fill="#2A3D66"><path d="M4.4,12.9l0.6,0.2l-0.2,0.6c-0.2,0.5 0.1,1.1 0.6,1.3c0.1,0 0.2,0 0.3,0c0.4,0 0.8,-0.3 0.9,-0.7l0.2,-0.6l0.6,0.2c0.2,0.1 0.3,0.1 0.4,0.1c0.4,0 0.8,-0.3 0.9,-0.7c0.2,-0.5 -0.1,-1.1 -0.6,-1.3l-0.6,-0.2l0.2,-0.6c0.2,-0.5 -0.1,-1.1 -0.6,-1.3c-0.5,-0.1 -1.1,0.2 -1.2,0.7l-0.2,0.6l-0.7,-0.2c-0.5,-0.2 -1.1,0.1 -1.3,0.6c-0.1,0.5 0.2,1.1 0.7,1.3Z"></path><path d="M12.9,14.4l0.6,0.2l-0.2,0.6c-0.2,0.5 0.1,1.1 0.6,1.3c0.1,0 0.2,0.1 0.3,0.1c0.4,0 0.8,-0.3 0.9,-0.7l0.2,-0.6l0.6,0.2c0.1,0 0.2,0.1 0.3,0.1c0.4,0 0.8,-0.3 0.9,-0.7c0.2,-0.5 -0.1,-1.1 -0.6,-1.3l-0.5,-0.2l0.2,-0.6c0.2,-0.5 -0.1,-1.1 -0.6,-1.3c-0.5,-0.2 -1.1,0.1 -1.3,0.6l-0.2,0.6l-0.6,-0.2c-0.5,-0.2 -1.1,0.1 -1.3,0.6c-0.1,0.5 0.2,1.1 0.7,1.3Z"></path><path d="M18.9,9.9c2,0 3.6,-1.6 3.6,-3.6c0,-2 -1.6,-3.6 -3.6,-3.6c-2,0 -3.6,1.6 -3.6,3.6c0,2 1.6,3.6 3.6,3.6Zm0,-5.1c0.9,0 1.6,0.7 1.6,1.6c0,0.9 -0.7,1.6 -1.6,1.6c-0.9,0 -1.6,-0.7 -1.6,-1.6c0,-0.9 0.7,-1.6 1.6,-1.6Z"></path><path d="M9.1,21.5c0,-2.1 -1.7,-3.8 -3.8,-3.8c-2.1,0 -3.8,1.7 -3.8,3.8c0,2.1 1.7,3.8 3.8,3.8c2.1,0 3.8,-1.7 3.8,-3.8Zm-5.6,0c0,-1 0.8,-1.8 1.8,-1.8c1,0 1.8,0.8 1.8,1.8c0,1 -0.8,1.8 -1.8,1.8c-1,0 -1.8,-0.8 -1.8,-1.8Z"></path><path d="M38.7,39l-0.7,-0.1l0.1,-0.6c0.1,-0.5 -0.3,-1 -0.9,-1.1c-0.5,-0.1 -1,0.3 -1.1,0.9l-0.1,0.6l-0.6,-0.1c-0.5,-0.1 -1,0.3 -1.1,0.9c-0.1,0.5 0.3,1 0.9,1.1l0.6,0.1l-0.1,0.6c-0.1,0.5 0.3,1 0.9,1.1c0,0 0.1,0 0.1,0c0.5,0 0.9,-0.4 1,-0.9l0.1,-0.6l0.6,0.1c0,0 0.1,0 0.1,0c0.5,0 0.9,-0.4 1,-0.9c0.1,-0.6 -0.3,-1.1 -0.8,-1.1Z"></path><path d="M45.6,39.7l-0.6,-0.1v-0.6c0.1,-0.5 -0.3,-1 -0.9,-1.1c-0.5,-0.1 -1,0.3 -1.1,0.9v0.6l-0.6,-0.1c-0.5,-0.1 -1,0.3 -1.1,0.9c-0.1,0.5 0.3,1 0.9,1.1l0.6,0.1l-0.1,0.6c-0.1,0.5 0.3,1 0.9,1.1c0,0 0.1,0 0.1,0c0.5,0 0.9,-0.4 1,-0.9l0.1,-0.6l0.6,0.1c0,0 0.1,0 0.1,0c0.5,0 0.9,-0.4 1,-0.9c-7.10543e-15,-0.5 -0.3,-1 -0.9,-1.1Z"></path><path d="M30.1,42.9c-1.8,-0.2 -3.3,1.1 -3.5,2.8c-0.2,1.9 1.2,3.5 3.1,3.5c1.6,0 2.9,-1.2 3.1,-2.8c0.3,-1.7 -0.9,-3.3 -2.7,-3.5Zm-0.4,4.3c-0.6,-0.1 -1.1,-0.6 -1,-1.3c0.1,-0.6 0.7,-1.1 1.3,-1c0.6,0.1 1.1,0.6 1,1.3c-0.1,0.6 -0.7,1.1 -1.3,1Z"></path><path d="M46.7,27.4c-2.4,-0.3 -4.5,1.4 -4.7,3.8c-0.3,2.3 1.4,4.5 3.8,4.7c0.2,0 0.3,0 0.5,0c2.2,0 4,-1.6 4.2,-3.8c0.2,-2.3 -1.4,-4.4 -3.8,-4.7Zm1.8,4.5c-0.1,1.2 -1.2,2.1 -2.5,2c-1.2,-0.1 -2.1,-1.3 -2,-2.5c0.1,-1.1 1.1,-2 2.3,-2c0.1,0 0.2,0 0.3,0c1.1,0.1 2,1.3 1.9,2.5Z"></path><path d="M8.5,32c-3.2,3.2 -3.2,8.4 0,11.6c3.2,3.2 8.4,3.2 11.6,0c3.2,-3.2 3.2,-8.4 0,-11.6c-3.2,-3.2 -8.4,-3.2 -11.6,0Zm10.1,10.2c-2.4,2.4 -6.3,2.4 -8.7,0c-2.4,-2.4 -2.4,-6.3 0,-8.7c2.4,-2.4 6.3,-2.4 8.7,0c2.5,2.3 2.5,6.2 0,8.7Z"></path><path d="M44.2,19.6c-1.1,-1.3 -3.2,-1.4 -4.4,-0.2l-6.2,6.2c-0.4,0.4 -0.9,0.5 -1.3,0.2c-0.6,-0.3 -0.7,-1.1 -0.2,-1.6l3.6,-3.6c1.2,-1.2 1.2,-3.1 0,-4.3c-1.1,-1.1 -3.1,-1.1 -4.2,0l-0.7,0.7c-0.4,0.4 -1,0.5 -1.5,0.1c-0.5,-0.4 -0.5,-1.1 -0.1,-1.5l7.8,-7.7c1.2,-1.2 1.2,-3.1 0,-4.3c-1.1,-1.1 -3.1,-1.1 -4.2,0l-26.7,26.7c-4.3,4.3 -4.3,11.3 -1.77636e-15,15.6c4.3,4.3 11.3,4.3 15.6,0l22.2,-22.2c1.2,-1.1 1.3,-2.9 0.3,-4.1Zm-1.7,2.7l-22.2,22.2c-3.5,3.5 -9.3,3.5 -12.8,0c-3.5,-3.5 -3.5,-9.2 0,-12.8l26.7,-26.6c0.4,-0.4 1,-0.4 1.4,1.77636e-15c0.4,0.4 0.4,1 0,1.4l-7.9,7.9c-1.2,1.2 -1.2,3.3 0.2,4.4c1.1,1 3.1,0.9 4.2,-0.2l0.7,-0.7c0.4,-0.4 1,-0.4 1.4,0c0.4,0.4 0.4,1 0,1.4l-3.6,3.6c-1.4,1.4 -1.1,3.7 0.6,4.7c1.1,0.7 2.8,0.5 3.8,-0.5l6.2,-6.2c0.4,-0.4 1.1,-0.4 1.5,0.1c0.3,0.3 0.2,0.9 -0.2,1.3Z"></path></g></svg>