<?xml version="1.0" encoding="UTF-8"?><svg version="1.1" viewBox="0 0 52 52" xmlns="http://www.w3.org/2000/svg" xmlns:xlink="http://www.w3.org/1999/xlink"><!--Generated by IJSVG (https://github.com/iconjar/IJSVG)--><path d="M48.2,35.1v14.7h-8.4v-15c0,-0.7 -0.6,-1.2 -1.2,-1.2v0c-0.7,0 -1.2,0.6 -1.2,1.2v15h-23.4v-15c0,-0.7 -0.6,-1.2 -1.2,-1.2v0c-0.7,0 -1.2,0.6 -1.2,1.2v15h-7.8v-14.7c0,-5.9 4.7,-10.6 10.6,-10.6h23.2c5.8,0 10.6,4.7 10.6,10.6Z" fill="#DAEAF8"></path><path fill="#46415C" d="M48.2,50.3h-8.4c-0.3,0 -0.5,-0.2 -0.5,-0.5v-15c0,-0.4 -0.3,-0.7 -0.7,-0.7c-0.4,0 -0.8,0.3 -0.8,0.7v15c0,0.3 -0.2,0.5 -0.5,0.5h-23.3c-0.3,0 -0.5,-0.2 -0.5,-0.5v-15c0,-0.4 -0.3,-0.7 -0.7,-0.7c-0.4,0 -0.8,0.3 -0.8,0.7v15c0,0.3 -0.2,0.5 -0.5,0.5h-7.7c-0.3,0 -0.5,-0.2 -0.5,-0.5v-14.7c0,-6.1 5,-11.1 11.1,-11.1h23.2c6.1,0 11.1,5 11.1,11.1v14.7c0,0.2 -0.2,0.5 -0.5,0.5Zm-7.9,-1h7.4v-14.2c0,-5.6 -4.5,-10.1 -10.1,-10.1h-23.2c-5.6,0 -10.1,4.5 -10.1,10.1v14.2h6.7v-14.5c0,-1 0.8,-1.7 1.7,-1.7c0.9,0 1.7,0.8 1.7,1.7v14.5h22.3v-14.5c0,-1 0.8,-1.7 1.7,-1.7c1,0 1.8,0.8 1.8,1.7v14.5Z"></path><path d="M37.6,24.5h-11.6v25.3h11.3v-15c0,-0.7 0.6,-1.2 1.2,-1.2v0c0.7,0 1.2,0.6 1.2,1.2v15h8.4v-14.7c0.1,-5.9 -4.7,-10.6 -10.5,-10.6Z" fill="#CFE0F1"></path><path fill="#F05B76" d="M40.8849,2.81508c0.820101,0.820101 0.820101,2.14975 0,2.96985c-0.820101,0.820101 -2.14975,0.820101 -2.96985,0c-0.820101,-0.820101 -0.820101,-2.14975 0,-2.96985c0.820101,-0.820101 2.14975,-0.820101 2.96985,0"></path><path opacity="0.10" d="M41,4.3c0,0.9 -0.7,1.5 -1.5,1.5c-0.6,0 -1.1,-0.4 -1.4,-0.9c0.2,0.1 0.4,0.1 0.7,0.1c0.8,0 1.5,-0.7 1.5,-1.5c0,-0.2 0,-0.5 -0.1,-0.6c0.4,0.2 0.8,0.8 0.8,1.4Z" fill="#010101"></path><path fill="#B8CFE5" d="M37.7,19.2h-23.1c-0.9,0 -1.7,-0.8 -1.7,-1.7v-2.7c0,-0.9 0.8,-1.7 1.7,-1.7h23.1c0.9,0 1.7,0.8 1.7,1.7v2.7c-7.10543e-15,0.9 -0.8,1.7 -1.7,1.7Z"></path><path d="M37.7,19.7h-23.1c-1.2,0 -2.2,-1 -2.2,-2.2v-2.7c0,-1.2 1,-2.2 2.2,-2.2h23.1c1.2,0 2.2,1 2.2,2.2v2.7c-7.10543e-15,1.2 -1,2.2 -2.2,2.2Zm-23.1,-6.1c-0.7,0 -1.2,0.5 -1.2,1.2v2.7c0,0.7 0.5,1.2 1.2,1.2h23.1c0.7,0 1.2,-0.5 1.2,-1.2v-2.7c0,-0.7 -0.5,-1.2 -1.2,-1.2h-23.1Z" fill="#46415C"></path><path opacity="0.10" fill="#010101" d="M39.4,16v1.4c0,1 -0.8,1.8 -1.8,1.8h-23c-1,0 -1.8,-0.8 -1.8,-1.8v-1.4c0,1 0.8,1.8 1.8,1.8h23c1,0 1.8,-0.8 1.8,-1.8Z"></path><path d="M36.7,15.1c0,-6 -4.7,-10.9 -10.5,-10.9c-5.8,0 -10.6,4.9 -10.6,10.9v9.2c6.9,3.2 14,3.1 21.1,0v-9.2Z" fill="#DAEAF8"></path><path fill="#46415C" d="M26,27.2c0,0 0,0 0,0c-3.6,0 -7.2,-0.8 -10.7,-2.4c-0.2,-0.1 -0.3,-0.3 -0.3,-0.5v-9.2c0,-6.3 4.9,-11.4 11,-11.4c6.1,0 11,5.1 11,11.4v9.2c0,0.2 -0.1,0.4 -0.3,0.5c-3.5,1.5 -7.1,2.4 -10.7,2.4Zm-9.9,-3.2c3.3,1.5 6.6,2.2 9.9,2.2c0,0 0,0 0,0c3.3,0 6.7,-0.7 10.1,-2.2v-8.8c0,-5.7 -4.5,-10.4 -10,-10.4c-5.5,0 -10,4.6 -10,10.4v8.8Z"></path><path opacity="0.10" d="M33.6,7.5c-1.6,-1.1 -3.5,-1.7 -5.6,-1.7c-5.8,0 -10.5,4.9 -10.5,10.8v8.4c-0.6,-0.2 -1.3,-0.5 -1.9,-0.8v-9.2c0,-6 4.7,-10.9 10.5,-10.9c2.9,0.2 5.6,1.4 7.5,3.4Z" fill="#010101"></path><path fill="#77ADDE" d="M33.4,16.1c0,4 -3.3,7.3 -7.3,7.3c-0.1,0 -0.2,0 -0.3,0c-1,0 -1.9,-0.3 -2.7,-0.7c-0.3,-0.1 -0.5,-0.3 -0.8,-0.4c-0.2,-0.1 -0.3,-0.2 -0.5,-0.3c-0.1,-0.1 -0.2,-0.2 -0.3,-0.3c-0.2,-0.2 -0.3,-0.3 -0.5,-0.5c0,0 -0.1,-0.1 -0.1,-0.1c-0.2,-0.2 -0.4,-0.4 -0.5,-0.6c-0.3,-0.4 -0.6,-0.9 -0.8,-1.4c-0.2,-0.5 -0.4,-1.1 -0.5,-1.6c-0.1,-0.4 -0.1,-0.9 -0.1,-1.4c0,-3.5 2.5,-6.5 5.9,-7.1c0.5,-0.1 0.9,-0.1 1.4,-0.1c0.1,0 0.2,0 0.3,0v0c0.4,-1.77636e-15 0.9,0.1 1.4,0.2c0.3,0.1 0.5,0.1 0.7,0.2c0.1,0 0.1,0 0.2,0.1c0.2,0.1 0.4,0.2 0.6,0.3c0.1,0.1 0.3,0.1 0.4,0.2c0.2,0.1 0.3,0.2 0.5,0.3c0.2,0.2 0.5,0.3 0.7,0.6c0.7,0.6 1.2,1.4 1.6,2.3c0.4,0.9 0.7,2 0.7,3Z"></path><path d="M26.1,23.9c-0.1,0 -0.3,0 -0.4,0c-1,0 -2,-0.3 -2.9,-0.7c-0.3,-0.2 -0.6,-0.3 -0.8,-0.5c-0.2,-0.1 -0.3,-0.2 -0.5,-0.3l-0.1,-0.1c-0.1,-0.1 -0.2,-0.1 -0.2,-0.2c-0.2,-0.2 -0.4,-0.3 -0.5,-0.5c-0.1,-0.1 -0.1,-0.1 -0.1,-0.2c-0.2,-0.2 -0.4,-0.4 -0.5,-0.6c-0.3,-0.4 -0.6,-0.9 -0.9,-1.5c-0.3,-0.6 -0.4,-1.2 -0.6,-1.8c-0.1,-0.5 -0.1,-0.9 -0.1,-1.4c0,-3.7 2.6,-6.9 6.3,-7.6c0.7,-0.1 1.3,-0.2 1.9,-0.1c0.6,0 1.1,0.1 1.7,0.3c0.3,0.1 0.5,0.2 0.8,0.3c0,0 0.1,0 0.2,0.1c0.2,0.1 0.4,0.2 0.6,0.3c0.1,0.1 0.3,0.2 0.4,0.2c0.2,0.1 0.4,0.2 0.5,0.4c0.3,0.2 0.5,0.4 0.7,0.6c0.7,0.7 1.3,1.5 1.7,2.4c0.5,1 0.7,2.1 0.7,3.2c-0.1,4.2 -3.6,7.7 -7.9,7.7Zm0.1,-14.5c-0.4,0 -0.9,0 -1.3,0.1c-3.2,0.6 -5.5,3.4 -5.5,6.6c0,0.4 0,0.8 0.1,1.3c0.1,0.5 0.3,1 0.5,1.5c0.2,0.4 0.5,0.9 0.8,1.3c0.1,0.2 0.3,0.4 0.5,0.6l0.1,0.1c0.2,0.2 0.3,0.3 0.5,0.5c0.1,0 0.1,0.1 0.2,0.1l0.1,0.1c0.1,0.1 0.3,0.2 0.5,0.3c0.2,0.2 0.5,0.3 0.7,0.4c0.8,0.4 1.6,0.6 2.5,0.6c0.1,0 0.2,0 0.3,0c3.7,0 6.8,-3 6.8,-6.8c0,-1 -0.2,-1.9 -0.6,-2.8c-0.4,-0.8 -0.9,-1.5 -1.5,-2.1c-0.2,-0.2 -0.4,-0.4 -0.6,-0.5c-0.2,-0.1 -0.3,-0.2 -0.5,-0.3c-0.1,-0.1 -0.2,-0.1 -0.4,-0.2c-0.2,-0.1 -0.4,-0.2 -0.6,-0.3c0,0 -0.1,-0.1 -0.2,-0.1c-0.2,-0.1 -0.5,-0.2 -0.7,-0.2c-0.5,-0.1 -1,-0.2 -1.5,-0.2c-0.1,-8.88178e-15 -0.2,-8.88178e-15 -0.2,-8.88178e-15Z" fill="#46415C"></path><path opacity="0.10" fill="#010101" d="M33.4,16.1c0,4 -3.3,7.3 -7.3,7.3c-0.1,0 -0.2,0 -0.3,0c-1,0 -1.9,-0.3 -2.7,-0.7c-0.3,-0.1 -0.5,-0.3 -0.8,-0.4c-0.3,-0.2 -0.6,-0.4 -0.9,-0.6c-0.2,-0.2 -0.4,-0.4 -0.6,-0.6c-0.2,-0.2 -0.4,-0.4 -0.6,-0.7c0.1,0.1 0.3,0.2 0.4,0.3c0.2,0.2 0.5,0.3 0.8,0.4c0.8,0.4 1.8,0.6 2.7,0.7c0.1,0 0.2,0 0.3,0c4,0 7.3,-3.3 7.3,-7.3c0,-1.1 -0.2,-2.1 -0.7,-3c-0.2,-0.5 -0.5,-0.9 -0.8,-1.3c0,0 0,0 0,0c0.2,0.2 0.5,0.3 0.7,0.6c0.7,0.6 1.2,1.4 1.6,2.3c0.6,0.9 0.9,2 0.9,3Z"></path><g opacity="0.20"><path fill="#FFF" d="M29.9,10l-8.1,12c-0.1,-0.1 -0.2,-0.2 -0.3,-0.3c-0.2,-0.2 -0.3,-0.3 -0.5,-0.5l8,-11.8c0.2,0.1 0.4,0.2 0.6,0.3c0.1,0.1 0.2,0.2 0.3,0.3Z"></path><path fill="#FFF" d="M28,9.1l-7.7,11.4c-0.3,-0.4 -0.6,-0.9 -0.8,-1.4c-0.2,-0.5 -0.4,-1.1 -0.5,-1.6l5.7,-8.5c0.5,-0.1 0.9,-0.1 1.4,-0.1c0.1,0 0.2,0 0.3,0v0c0.6,0 1.1,0.1 1.6,0.2Z"></path></g><g fill="#2A3D66"><path d="M37.7,23.5v-3.3v0c1.5,0 2.7,-1.2 2.7,-2.7v-0.9v-1.8v-7.6c1.2,-0.4 2.1,-1.5 2.1,-2.9c0,-1.7 -1.4,-3 -3.1,-3c-1.7,0 -3.1,1.4 -3.1,3c0,1.3 0.8,2.5 2,2.9v5c-0.2,-0.1 -0.5,-0.1 -0.7,-0.1h-0.4c-1.3,-5.1 -5.8,-8.8 -11.1,-8.8c-5.3,-8.88178e-16 -9.8,3.7 -11.1,8.8h-0.4c-1.5,0 -2.7,1.2 -2.7,2.7v2.7c0,1.5 1.2,2.7 2.7,2.7v0v3.3h-0.2c-6.4,0 -11.6,5.2 -11.6,11.6v14.7c-8.88178e-16,0.6 0.4,1 1,1h7.7c0.6,0 1,-0.4 1,-1v-15c0,-0.3 0.5,-0.3 0.5,0v15c0,0.6 0.5,1 1,1h23.3c0.6,0 1,-0.4 1,-1v-15c0,-0.3 0.5,-0.3 0.5,0v15c0,0.6 0.5,1 1,1h8.4c0.6,0 1,-0.4 1,-1v-14.7c7.10543e-15,-6.4 -5.2,-11.6 -11.5,-11.6Zm0.7,-19.2c0,-0.6 0.5,-1 1.1,-1c0.6,0 1.1,0.5 1.1,1c0,0.5 -0.4,1.1 -1.1,1.1c-0.6,0 -1.1,-0.5 -1.1,-1.1Zm-0.7,9.8c0.4,0 0.7,0.3 0.7,0.7v1.8v0.9c0,0.4 -0.3,0.7 -0.7,0.7v0v-3.1c0,-0.3 -0.1,-0.7 0,-1v0Zm-21.1,1c0,-5.4 4.2,-9.8 9.5,-9.8c5.3,0 9.5,4.4 9.5,9.8c0,0.2 0,8.7 0,8.3v0.2c-6.6,2.7 -12.9,2.6 -19.1,0c0.1,-0.2 0.1,-9 0.1,-8.5Zm30.6,33.7h-6.4v-14c0,-1.2 -1,-2.3 -2.3,-2.3c-1.3,0 -2.3,1 -2.3,2.3v14h-21.2v-14c0,-1.2 -1,-2.3 -2.2,-2.3c-1.2,0 -2.3,1 -2.3,2.3v14h-5.7v-13.7c0,-5.3 4.3,-9.6 9.6,-9.6h1.4c3.4,1.5 6.8,2.2 10.2,2.2c3.4,0 6.9,-0.7 10.4,-2.2h1.2c5.3,0 9.6,4.3 9.6,9.6v13.7Z"></path><path d="M25.7,24.4c0.2,0 0.3,0 0.4,0c4.5,0 8.3,-3.7 8.3,-8.3c0,-4.4 -3.5,-8 -7.8,-8.2c-0.1,0 -0.3,0 -0.4,0c-4.5,0 -8.3,3.6 -8.3,8.3c0,4.4 3.5,8 7.8,8.2Zm0.4,-14.5h0.3c3.1,0.2 6,2.7 6,6.3c0,3.4 -2.8,6.3 -6.3,6.3c-0.1,0 -0.2,0 -0.3,0c-3.1,-0.1 -6,-2.7 -6,-6.3c0.1,-3.5 2.9,-6.3 6.3,-6.3Z"></path></g><path fill="#F05B76" d="M34.1314,33.4686c0.624839,0.624839 0.624839,1.6379 0,2.26274c-0.624839,0.624839 -1.6379,0.624839 -2.26274,0c-0.624839,-0.624839 -0.624839,-1.6379 0,-2.26274c0.624839,-0.624839 1.6379,-0.624839 2.26274,0"></path><path d="M34.1314,39.1686c0.624839,0.624839 0.624839,1.6379 0,2.26274c-0.624839,0.624839 -1.6379,0.624839 -2.26274,0c-0.624839,-0.624839 -0.624839,-1.6379 0,-2.26274c0.624839,-0.624839 1.6379,-0.624839 2.26274,0" fill="#70C493"></path><path fill="#FBB566" d="M34.1314,44.7686c0.624839,0.624839 0.624839,1.6379 0,2.26274c-0.624839,0.624839 -1.6379,0.624839 -2.26274,0c-0.624839,-0.624839 -0.624839,-1.6379 0,-2.26274c0.624839,-0.624839 1.6379,-0.624839 2.26274,0"></path><g fill="#010101"><path opacity="0.10" d="M34.6,34.6c0,0.8 -0.7,1.5 -1.5,1.5c-0.5,0 -1,-0.3 -1.3,-0.7c0.2,0.1 0.5,0.2 0.8,0.2c0.9,0 1.5,-0.7 1.5,-1.6c0,-0.3 -0.1,-0.6 -0.2,-0.8c0.4,0.4 0.7,0.9 0.7,1.4Z"></path><path opacity="0.10" d="M34.6,40.3c0,0.9 -0.7,1.6 -1.5,1.6c-0.5,0 -1,-0.3 -1.3,-0.7c0.2,0.2 0.5,0.2 0.8,0.2c0.9,0 1.5,-0.7 1.5,-1.5c0,-0.3 -0.1,-0.6 -0.2,-0.8c0.4,0.1 0.7,0.6 0.7,1.2Z"></path><path opacity="0.10" d="M34.6,45.9c0,0.9 -0.7,1.6 -1.5,1.6c-0.5,0 -1,-0.3 -1.3,-0.7c0.2,0.2 0.5,0.3 0.8,0.3c0.9,0 1.5,-0.7 1.5,-1.5c0,-0.3 -0.1,-0.6 -0.2,-0.8c0.4,0.1 0.7,0.6 0.7,1.1Z"></path></g><path fill="#F05B76" d="M29.2,34.6c0,0.9 -0.7,1.6 -1.6,1.6h-8.6c-0.9,0 -1.6,-0.7 -1.6,-1.6c0,-0.9 0.7,-1.6 1.6,-1.6h8.7c0.8,0 1.5,0.7 1.5,1.6Z"></path><path d="M29.2,40.3c0,0.9 -0.7,1.6 -1.6,1.6h-8.6c-0.9,0 -1.6,-0.7 -1.6,-1.6c0,-0.9 0.7,-1.6 1.6,-1.6h8.7c0.8,7.10543e-15 1.5,0.7 1.5,1.6Z" fill="#70C493"></path><path fill="#FBB566" d="M29.2,45.9c0,0.9 -0.7,1.6 -1.6,1.6h-8.6c-0.9,0 -1.6,-0.7 -1.6,-1.6c0,-0.9 0.7,-1.6 1.6,-1.6h8.7c0.8,0.1 1.5,0.8 1.5,1.6Z"></path><g opacity="0.10"><path fill="#010101" d="M29.2,34.6c0,0.8 -0.7,1.5 -1.5,1.5h-8.7c-0.5,0 -1,-0.3 -1.3,-0.7c0.2,0.2 0.5,0.2 0.8,0.2h8.7c0.9,0 1.6,-0.7 1.6,-1.6c0,-0.3 -0.1,-0.6 -0.3,-0.8c0.4,0.4 0.7,0.9 0.7,1.4Z"></path><path fill="#010101" d="M29.2,40.3c0,0.9 -0.7,1.6 -1.5,1.6h-8.7c-0.5,0 -1,-0.3 -1.3,-0.7c0.2,0.2 0.5,0.3 0.8,0.3h8.7c0.9,0 1.6,-0.7 1.6,-1.5c0,-0.3 -0.1,-0.6 -0.3,-0.9c0.4,0.1 0.7,0.6 0.7,1.2Z"></path><path fill="#010101" d="M29.2,45.9c0,0.9 -0.7,1.6 -1.5,1.6h-8.7c-0.5,0 -1,-0.3 -1.3,-0.7c0.2,0.2 0.5,0.2 0.8,0.2h8.7c0.9,0 1.6,-0.7 1.6,-1.5c0,-0.3 -0.1,-0.6 -0.3,-0.8c0.4,0.2 0.7,0.7 0.7,1.2Z"></path></g></svg>