<?xml version="1.0" encoding="UTF-8"?><svg version="1.1" viewBox="0 0 52 52" xmlns="http://www.w3.org/2000/svg" xmlns:xlink="http://www.w3.org/1999/xlink"><!--Generated by IJSVG (https://github.com/iconjar/IJSVG)--><path d="M30.6669,21.3331c2.57746,2.57746 2.57746,6.75635 0,9.33381c-2.57746,2.57746 -6.75635,2.57746 -9.33381,3.55271e-15c-2.57746,-2.57746 -2.57746,-6.75635 -3.55271e-15,-9.33381c2.57746,-2.57746 6.75635,-2.57746 9.33381,-3.55271e-15" fill="#45C8F5"></path><path fill="#DEEDF9" d="M31.6,29.5c-0.3,0.5 -0.7,0.9 -1.1,1.3c-1.3,0.1 -0.1,-0.2 -1.7,-0.3c-0.5,0 -0.5,0.1 -0.7,0.3c-0.2,0.2 -0.5,0.2 -0.6,0.4c-0.1,0 -0.2,0 -0.3,0.1c-0.2,-0.1 -0.4,-0.2 -0.6,-0.3c-0.7,-0.3 -0.7,0 -1,0.1c-0.1,0 -0.3,-0.1 -0.4,-0.1c-0.3,-0.1 -1.5,0.2 -1.8,-0.4c-0.3,-0.8 -0.3,-0.7 -0.1,-0.8c0.9,-0.3 0.7,-0.5 0.8,-0.7c0.1,-0.2 0.7,-0.3 0.9,-0.5c0.6,-0.4 0.1,-0.6 1.3,-0.7c1.5,-0.1 1.4,-1.6 2.2,-1.4c0.6,-0.2 0.1,-0.6 0.2,-0.8c0,-0.1 0.2,-0.2 -0.2,-0.7c-0.5,-0.6 -0.2,-0.5 -0.5,-0.7c-0.1,-0.1 0.5,-1.5 0.9,-1.7c0.2,-0.1 0.3,-0.1 0.5,-0.1c0.5,-0.2 0.6,-0.8 1.9,-0.2c0.1,0.1 0.3,0.1 0.4,0.1c1.3,2.2 1.3,5 -0.1,7.1Z"></path><path opacity="0.10" d="M31.6,29.5c-0.3,0.5 -0.7,0.9 -1.1,1.3c-0.6,0.1 -0.4,0.1 -0.9,-0.2c0,0 0,0 0,0c0.5,-0.4 0.9,-0.9 1.2,-1.4c1.4,-2.2 1.4,-5 0.4,-7c0.1,0 0.2,0.1 0.3,0.1c1.5,2.3 1.5,5.1 0.1,7.2Z" fill="#010101"></path><path fill="#DEEDF9" d="M24.8,22.7c-0.1,0.2 -0.1,0.5 -0.3,0.6c-0.5,0.2 -0.4,-0.5 -1.5,-0.7c-0.5,-0.1 -0.6,-0.1 -0.7,-0.1c-0.2,0 -0.2,0.6 -0.7,0.3c-0.9,-0.4 -0.7,0 -1.2,0.3c-0.1,0 -0.1,0 -0.2,0.1c0.1,-0.2 0.2,-0.4 0.3,-0.6c1.2,-1.9 3.3,-3 5.4,-3.1c0,0.8 0.7,0.8 0.2,1.7c-0.5,0.4 -1.1,0.9 -1.3,1.5Z"></path><path opacity="0.10" d="M24.8,22.7c-0.1,0.2 -0.1,0.5 -0.3,0.6c-0.3,0.1 -0.6,-0.3 -0.8,-0.4c-0.3,-0.2 -0.7,-0.2 -1.4,-0.4c-0.4,-0.1 -0.2,0.6 -0.8,0.3c-0.9,-0.4 -0.7,0 -1.2,0.3c-0.1,0 -0.1,0 -0.2,0.1c0.1,-0.1 0.1,-0.2 0.2,-0.3c0.6,-0.4 0.4,-0.6 1.2,-0.2c0.6,0.3 0.5,-0.2 0.7,-0.3c0.1,0 0.2,0 0.7,0.1c0.3,0 0.6,0.1 0.8,0.3c0.2,0.2 0.4,0.6 0.8,0.4c0.2,-0.1 0.3,-0.4 0.3,-0.6c0.2,-0.7 0.8,-1.1 1.2,-1.7c0.1,-0.2 0.2,-0.4 0.2,-0.6c0.1,0.3 0,0.6 -0.1,0.8c-0.5,0.5 -1.1,1 -1.3,1.6Z" fill="#010101"></path><path fill="#DEEDF9" d="M22.7,27.6c0,0 0,0 0,0c-0.4,0.1 -0.4,0.6 -0.8,0.6c-0.1,0 -0.3,-0.1 -0.4,-0.1c-0.3,0.1 -0.4,0.6 -0.8,0.4c-0.4,-0.3 -0.2,0.3 -0.7,0.2c-0.1,-0.3 -0.2,-0.5 -0.3,-0.8c0.6,-0.7 0.4,-0.8 0.7,-1.2c0.1,-0.1 0.3,-0.3 0.3,-0.5c0,-0.2 -0.2,-0.3 -0.2,-0.5c0,-0.1 0,-0.2 0,-0.3c0,-0.1 0,-0.2 -0.1,-0.3c-0.1,-0.6 0.7,-0.6 1.1,-0.9c0.8,-0.6 0.7,0.2 0.9,0.4c0.4,0.1 0.1,0.7 0.4,1c0.3,0.4 -0.3,0.3 0.1,0.9c0.1,0.1 0.2,0.2 0.2,0.3c0.1,0.5 3.55271e-15,0.7 -0.4,0.8Z"></path><g fill="#010101"><path opacity="0.10" d="M22.7,27.6c0,0 0,0 0,0c-0.4,0.1 -0.4,0.6 -0.8,0.6c-0.1,0 -0.3,-0.1 -0.4,-0.1c-0.3,0.1 -0.5,0.6 -0.8,0.4c-0.4,-0.3 -0.3,0.3 -0.7,0.2c-0.1,-0.3 -0.2,-0.5 -0.3,-0.8c0,0 0,0 0,0c0.1,0.2 0.1,0.4 0.2,0.5c0.3,0.1 0.3,-0.4 0.7,-0.2c0.1,0.1 0.3,-0.1 0.4,-0.2c0.4,-0.5 0.5,-0.2 0.8,-0.2c0.4,0 0.5,-0.5 0.7,-0.6c0.1,0 0.1,0 0.2,0c0.1,0 0.3,-0.1 0.3,-0.2c0.1,-0.1 0.1,-0.1 0.1,-0.2c0.2,0.4 3.55271e-15,0.7 -0.4,0.8Z"></path><path opacity="0.10" d="M24.3,32.4c-0.6,-0.2 -1.3,-0.4 -1.9,-0.8c-3.1,-2 -4,-6 -2,-9.1c1.8,-2.8 5.4,-3.8 8.3,-2.5c-7.3,-1.9 -11.5,7.9 -5.2,12c0.3,0.1 0.6,0.3 0.8,0.4Z"></path></g><path fill="#DEEDF9" d="M29.6,21.2c-0.1,0.1 -0.2,0 -0.3,0.1c-0.1,0.1 -0.2,0.4 -0.3,0.3c-0.1,0 -0.1,-0.1 -0.2,-0.1c-0.1,-0.1 -0.3,0.1 -0.4,0c-0.1,-0.1 -0.1,-0.2 -0.3,-0.1c-0.3,0.2 -0.5,0.4 -0.7,0.1c-0.1,-0.1 -0.1,-0.2 0,-0.3c0.3,-0.6 0.5,-0.4 0.5,-0.6c0,-0.1 -0.1,-0.1 0,-0.2c0.3,-0.4 -0.2,-0.3 -0.3,-0.6c0,-0.1 0,-0.1 0,-0.1c0.1,-0.1 0.2,0 0.2,0c0,0 0.1,0 0.1,0c0.8,0.2 1.5,0.6 2.1,1.1c-0.1,0 -0.2,0 -0.3,0c-0.1,0.1 -3.55271e-15,0.3 -0.1,0.4Z"></path><path opacity="0.10" d="M29.6,21.2c-0.1,0.1 -0.2,0 -0.3,0.1c-0.1,0.1 -0.2,0.4 -0.3,0.3c-0.1,0 -0.1,-0.1 -0.2,-0.1c-0.1,-0.1 -0.3,0.1 -0.4,0c-0.1,0 -0.1,-0.2 -0.3,-0.1c-0.4,0.2 -0.5,0.4 -0.7,0.1c-0.1,-0.1 0,-0.1 0,-0.2c0,0 0,0 0,0c0.1,0.2 0.2,0.3 0.4,0.1c0.6,-0.4 0.3,-0.2 0.6,-0.1c0.1,0.1 0.3,-0.1 0.4,0c0.1,0 0.2,0.2 0.4,0c0.2,-0.4 0.3,-0.1 0.4,-0.3c0.2,-0.1 -0.1,-0.4 0.3,-0.4c0.1,0 0.1,0.1 0.2,0.1c-0.1,0 -0.2,0 -0.3,0c-0.2,0.2 -0.1,0.4 -0.2,0.5Z" fill="#010101"></path><path fill="#DAEAF8" d="M11.4335,13.5665c1.28873,1.28873 1.28873,3.37817 0,4.6669c-1.28873,1.28873 -3.37817,1.28873 -4.6669,0c-1.28873,-1.28873 -1.28873,-3.37817 -1.77636e-15,-4.6669c1.28873,-1.28873 3.37817,-1.28873 4.6669,-1.77636e-15"></path><path opacity="0.10" d="M12.3,15.2c0.4,1.8 -0.7,3.6 -2.5,4c-1.2,0.3 -2.3,-0.1 -3.1,-0.9c0.6,0.2 1.2,0.3 1.8,0.1c1.8,-0.4 2.9,-2.2 2.5,-4c-0.1,-0.6 -0.5,-1.2 -0.9,-1.6c1.1,0.3 2,1.2 2.2,2.4Z" fill="#010101"></path><path fill="#F05B76" d="M48.0335,24.9665c1.28873,1.28873 1.28873,3.37817 0,4.6669c-1.28873,1.28873 -3.37817,1.28873 -4.6669,0c-1.28873,-1.28873 -1.28873,-3.37817 0,-4.6669c1.28873,-1.28873 3.37817,-1.28873 4.6669,0"></path><path opacity="0.10" d="M47.2,30.3c-0.2,0.1 -0.5,0.2 -0.7,0.3c-1.8,0.4 -3.6,-0.7 -4,-2.5c-0.4,-1.8 0.7,-3.6 2.5,-4c0.3,-0.1 0.5,-0.1 0.8,-0.1c-1.4,0.7 -2.2,2.2 -1.8,3.7c0.3,1.6 1.6,2.6 3.2,2.6Z" fill="#010101"></path><path fill="#70C493" d="M17.9335,42.4665c1.28873,1.28873 1.28873,3.37817 0,4.6669c-1.28873,1.28873 -3.37817,1.28873 -4.6669,0c-1.28873,-1.28873 -1.28873,-3.37817 -1.77636e-15,-4.6669c1.28873,-1.28873 3.37817,-1.28873 4.6669,0"></path><path opacity="0.10" d="M18.8,44.1c0.3,1.1 -0.1,2.3 -0.9,3.1c0.2,-0.6 0.3,-1.2 0.1,-1.9c-0.4,-1.8 -2.2,-2.9 -4,-2.5c-0.6,0.1 -1.2,0.5 -1.6,0.9c0.4,-1 1.2,-1.8 2.4,-2.1c1.9,-0.4 3.6,0.7 4,2.5Z" fill="#010101"></path><path fill="#2A3D66" d="M26,18.4c-2.6,0 -5,1.3 -6.4,3.5c-2.3,3.5 -1.2,8.3 2.3,10.5c3.4,2.2 8.2,1.3 10.5,-2.3c3.2,-5.1 -0.4,-11.7 -6.4,-11.7Zm-3,12.3c-2.6,-1.7 -3.4,-5.1 -1.7,-7.7c1,-1.6 2.8,-2.6 4.7,-2.6c4.4,0 7.1,4.9 4.7,8.6c-1.6,2.7 -5.1,3.4 -7.7,1.7Z"></path><path d="M49.3,25c1,-1.5 1.4,-3 1,-4.4c-0.8,-3.4 -5.2,-5.5 -12.1,-5.8c0.2,-6.8 -1.4,-11.6 -4.7,-12.6c-4.3,-1.4 -8.7,3.8 -11.1,7.5c-3.6,-2.2 -6.9,-3.4 -9.5,-3.4c-3.2,0 -5.4,1.8 -5.4,5.6c-0.8,0.3 -1.6,0.9 -2,1.7c-0.6,1 -0.8,2.1 -0.6,3.3c0.4,2 2.2,3.4 4.2,3.4c0.2,0 0.4,0 0.6,0c0.1,0.3 0.3,0.6 0.4,0.9c-3.9,2.1 -9.5,6.1 -8.5,10.4c0.8,3.4 5.2,5.5 12.1,5.8c0,1.3 0,2.5 0.1,3.6c-1.8,0.8 -2.9,2.8 -2.5,4.9c0.4,2 2.2,3.4 4.2,3.4c0.3,0 0.6,0 0.9,-0.1c0.1,0 0.3,-0.1 0.4,-0.1c0.5,0.4 1,0.7 1.6,0.9c0.5,0.1 0.9,0.2 1.4,0.2c3.1,0 6.6,-2.9 9.7,-7.8c3.8,2.4 10,5.1 13.3,2.1c2.6,-2.4 2,-7.5 -1,-13.4c0.3,-0.2 0.6,-0.3 0.9,-0.5c1.1,1 2.6,1.4 3.9,1.1c2.3,-0.5 3.8,-2.8 3.3,-5.2c-0.1,-0.6 -0.3,-1.1 -0.6,-1.5Zm-3.1,4.6c-0.6,0.1 -1.1,0 -1.6,-0.3v0c-1.9,-1.1 -1.5,-3.8 0.6,-4.3c3.1,-0.6 4,4 1,4.6Zm-10,-14.9h-0.1c-2.1,0 -4.4,0.1 -6.7,0.5c-1.8,-1.6 -3.6,-3.1 -5.4,-4.3c7,-10.8 12.6,-8.6 12.2,3.8Zm-8.4,19.2c-1.5,0.3 -3,0.6 -4.5,0.8c-2,-1.9 -4.2,-4.3 -6.2,-6.8c0.7,-2.9 1.6,-5.9 2.7,-8.8c3.2,-1 5.9,-1.5 9,-2c2.3,2.1 4.5,4.6 6.2,6.8c-0.6,2.7 -1.6,5.9 -2.7,8.8c-1.5,0.5 -3,0.9 -4.5,1.2Zm3.4,1.2c-0.7,1.6 -1.5,3 -2.2,4.4c-1.3,-0.9 -2.6,-1.9 -3.9,-3c2.1,-0.4 4.2,-0.8 6.1,-1.4Zm-15.7,-9.1c-1,-1.4 -1.9,-2.8 -2.6,-4.1c1.4,-0.6 2.9,-1.3 4.5,-1.8c-0.8,1.9 -1.4,3.8 -1.9,5.9Zm1,4.5c1.3,1.6 2.8,3.2 4.2,4.6c-1.7,0.2 -3.3,0.3 -4.8,0.3c0.1,-1.6 0.3,-3.2 0.6,-4.9Zm4.3,-13.6c0.7,-1.6 1.5,-3 2.2,-4.3c1.3,0.9 2.6,1.9 3.8,3c-2,0.3 -4.3,0.8 -6,1.3Zm15.7,9.2c1,1.4 1.9,2.8 2.6,4.1c-1.4,0.7 -2.9,1.3 -4.5,1.8c0.9,-2.2 1.5,-4.2 1.9,-5.9Zm-1,-4.6c-1.4,-1.7 -2.9,-3.3 -4.2,-4.6c1.7,-0.2 3.3,-0.3 4.8,-0.3c-0.1,1.6 -0.3,3.2 -0.6,4.9Zm-28.7,-5.1c-0.1,-0.6 -8.88178e-16,-1.2 0.3,-1.7c1.7,-2.6 5.6,-0.1 3.9,2.5c-0.5,0.8 -1.5,1.2 -2.2,1.1c-0.9,-0.2 -1.8,-0.9 -2,-1.9Zm4.8,3c0.5,-0.3 0.8,-0.7 1.2,-1.2c1.7,-2.7 -0.1,-6.3 -3.3,-6.6c0.1,-2.2 1.2,-3.3 3.4,-3.3c2.3,0 5.2,1.1 8.4,3.1c-1.1,1.9 -2.1,3.9 -3,6.2c-2.3,0.7 -4.4,1.6 -6.4,2.5c-0.1,-0.2 -0.2,-0.4 -0.3,-0.7Zm-8,11.6c-0.7,-3.2 4.6,-6.7 7.5,-8.3c1.1,1.9 2.3,3.8 3.8,5.7c-0.5,2.4 -0.9,4.6 -1,6.8c-5.9,-0.2 -9.8,-1.8 -10.3,-4.2Zm11.9,16.2c-1,0 -2,-0.8 -2.2,-1.8c-0.3,-1.5 0.8,-2.8 2.3,-2.8c1,0 2,0.7 2.3,1.8c0.3,1.5 -1,2.9 -2.4,2.8Zm3.6,0.7c-0.1,0 -0.3,-0.1 -0.4,-0.2c0.2,-0.2 0.3,-0.4 0.5,-0.6c0.6,-1 0.8,-2.1 0.6,-3.3c-0.4,-1.9 -2.1,-3.3 -4,-3.4c-0.1,-1 -0.1,-2.1 -0.1,-3.2c1,0 3.1,0 6.8,-0.5c1.8,1.6 3.6,3.1 5.4,4.3c-3.2,5.2 -6.5,7.6 -8.8,6.9Zm22.5,-5c-2.4,2.2 -8,-0.5 -10.9,-2.4c1.1,-1.8 2.1,-3.9 3,-6.2c2.3,-0.7 4.4,-1.6 6.4,-2.5c2.7,5.4 3.2,9.6 1.5,11.1Zm-0.7,-13.7c-1.1,-1.9 -2.3,-3.8 -3.8,-5.7c0.5,-2.4 0.9,-4.6 1,-6.8c5.9,0.3 9.8,1.9 10.3,4.3c0.2,0.8 0,1.7 -0.6,2.6c-0.9,-0.6 -2,-0.7 -3.1,-0.5c-2.3,0.5 -3.8,2.8 -3.3,5.2c0,0.2 0.1,0.4 0.2,0.5c-0.2,0.2 -0.4,0.3 -0.7,0.4Z" fill="#2A3D66"></path></svg>