<svg width="156" height="29" viewBox="0 0 156 29" fill="none" xmlns="http://www.w3.org/2000/svg">
<path d="M0 0H11.4368C13.6152 0 15.249 0.544609 16.4593 1.45229C17.7905 2.54151 18.5167 4.11482 18.5167 6.0512C18.5167 8.29015 17.609 9.68193 15.7936 10.5291V10.6501C18.2141 11.4368 19.6059 13.6152 19.6059 16.2172C19.6059 18.6982 18.6377 20.6346 17.0644 21.8448C15.7331 22.813 14.0388 23.2366 11.7393 23.2366H0V0ZM10.287 9.0768C11.4973 9.0768 12.405 8.41117 12.405 7.0194C12.405 5.68813 11.4973 5.0225 10.2265 5.0225H6.29325V9.01629H10.287V9.0768ZM10.8316 18.0931C12.2234 18.0931 13.2521 17.2459 13.2521 15.7331C13.2521 14.0993 12.1629 13.3732 10.8316 13.3732H6.35376V18.1536H10.8316V18.0931Z" fill="#BDBDBD"/>
<path d="M20.6346 1.52588e-05H26.6253V23.2971H20.6346V1.52588e-05Z" fill="#BDBDBD"/>
<path d="M27.8355 15.007C27.8355 9.74244 31.2242 6.23274 36.4888 6.23274C41.7533 6.23274 45.0815 9.80295 45.0815 15.007C45.0815 20.2715 41.7533 23.7812 36.4888 23.7812C31.2242 23.7812 27.8355 20.2715 27.8355 15.007ZM39.0908 15.007C39.0908 12.1024 38.1831 10.287 36.3677 10.287C34.5524 10.287 33.7052 12.1024 33.7052 15.007C33.7052 17.9116 34.5524 19.7874 36.3677 19.7874C38.1831 19.7269 39.0908 17.9116 39.0908 15.007Z" fill="#BDBDBD"/>
<path d="M45.7471 15.007C45.7471 9.74244 49.1358 6.23274 54.4003 6.23274C59.6649 6.23274 62.9325 9.74244 62.9325 15.007C62.9325 20.2715 59.6043 23.7812 54.3398 23.7812C49.1358 23.7812 45.7471 20.2715 45.7471 15.007ZM57.0023 15.007C57.0023 12.1024 56.0946 10.287 54.2793 10.287C52.4639 10.287 51.6168 12.1024 51.6168 15.007C51.6168 17.9116 52.4639 19.7874 54.2793 19.7874C56.0946 19.7269 57.0023 17.9116 57.0023 15.007Z" fill="#BDBDBD"/>
<path d="M64.1427 6.65634H69.7099V9.13733H69.8309C70.9201 7.20095 72.4329 6.17224 74.8534 6.17224C76.9713 6.17224 78.5446 7.20095 79.3313 9.01631H79.4523C80.7836 6.83787 82.5384 6.17224 84.5958 6.17224C88.4686 6.17224 90.1024 9.01631 90.1024 12.8286V23.2366H84.2933V13.8573C84.2933 12.1629 83.7486 11.0737 82.2964 11.0737C80.8441 11.0737 80.1179 12.405 80.1179 14.2203V23.2366H74.3088V13.8573C74.3088 12.1629 73.7642 11.0737 72.3119 11.0737C70.8596 11.0737 70.1334 12.405 70.1334 14.2203V23.2366H64.1427V6.65634Z" fill="#BDBDBD"/>
<path d="M97.4244 21.0582H97.3638V23.2366H91.7968V1.52588e-05H97.6059V8.35068H97.7269C98.8161 6.89839 100.329 6.11173 102.447 6.11173C106.622 6.11173 109.043 9.86348 109.043 14.886C109.043 20.5136 106.441 23.7812 102.084 23.7812C100.268 23.7812 98.3926 22.9341 97.4244 21.0582ZM103.052 14.8255C103.052 12.1629 102.084 10.4081 100.329 10.4081C98.5136 10.4081 97.4244 12.1629 97.4244 14.8255C97.4244 17.488 98.5741 19.2428 100.329 19.2428C102.084 19.2428 103.052 17.5485 103.052 14.8255Z" fill="#BDBDBD"/>
<path d="M109.708 14.9465C109.708 9.74245 113.157 6.17224 118.119 6.17224C120.6 6.17224 122.476 6.9589 123.929 8.35067C125.865 10.2265 126.712 13.1311 126.652 16.5198H115.517C115.76 18.5772 116.728 19.6664 118.483 19.6664C119.511 19.6664 120.419 19.1823 120.782 18.0931H126.41C125.441 21.9054 122.476 23.7812 118.301 23.7812C113.157 23.7207 109.708 20.211 109.708 14.9465ZM115.517 13.1916H120.843C120.722 11.1947 119.632 10.166 118.24 10.166C116.607 10.1055 115.699 11.2553 115.517 13.1916Z" fill="#BDBDBD"/>
<path d="M133.247 9.5004H133.369C134.579 7.20094 136.152 6.29326 138.149 6.29326C138.633 6.29326 138.936 6.35377 139.117 6.47479V11.5578H138.996C135.547 10.9527 133.55 12.5865 133.55 16.3383V23.2971H127.68V6.65633H133.247V9.5004Z" fill="#BDBDBD"/>
<path d="M139.722 23.2971H145.35C145.592 24.0233 146.318 24.6889 147.71 24.6889C149.586 24.6889 150.251 23.5392 150.251 21.7843V20.5741H150.13C149.223 21.6633 147.952 22.45 146.137 22.45C142.566 22.45 139.42 19.7874 139.42 14.5834C139.42 9.80296 141.961 6.11172 145.834 6.11172C148.073 6.11172 149.404 7.01941 150.312 8.41118H150.433V6.59582H156V20.9977C156 23.6602 155.092 25.7176 153.701 26.9279C152.248 28.1986 150.191 28.7432 147.831 28.7432C143.353 28.8037 140.267 26.9884 139.722 23.2971ZM150.493 14.3414C150.493 12.284 149.525 10.5896 147.831 10.5896C146.197 10.5896 145.168 12.0419 145.168 14.3414C145.168 16.5803 146.197 18.1536 147.831 18.1536C149.465 18.1536 150.493 16.5198 150.493 14.3414Z" fill="#BDBDBD"/>
</svg>
