<?xml version="1.0" encoding="UTF-8"?><svg version="1.1" viewBox="0 0 219.985 216" xmlns="http://www.w3.org/2000/svg" xmlns:xlink="http://www.w3.org/1999/xlink"><!--Generated by IJSVG (https://github.com/iconjar/IJSVG)--><path d="M111.985,8c-55.1406,0 -100,44.8594 -100,100c0,55.1406 44.8594,100 100,100c55.1406,0 100,-44.8594 100,-100c0,-55.1406 -44.8594,-100 -100,-100Zm39.6113,63.7188l-40,84c-0.5176,1.0859 -1.4961,1.8828 -2.6641,2.168c-0.3125,0.0762 -0.6309,0.1133 -0.9473,0.1133c-0.8633,0 -1.7129,-0.2793 -2.4141,-0.8105l-35.748,-27.0625c-1.7617,-1.334 -2.1094,-3.8418 -0.7754,-5.6035c1.332,-1.7637 3.8379,-2.1152 5.6035,-0.7754l31.834,24.0996l37.8887,-79.5664c0.9512,-1.9961 3.3398,-2.8359 5.3301,-1.8926c1.9961,0.9491 2.8418,3.3358 1.8926,5.33Z" fill="#5CB0FF"></path><path fill="#1A6ACC" d="M111.985,0c-59.5508,0 -108,48.4492 -108,108c0,59.5508 48.4492,108 108,108c59.5508,0 108,-48.4492 108,-108c0,-59.5508 -48.4493,-108 -108,-108Zm0,208c-55.1406,0 -100,-44.8594 -100,-100c0,-55.1406 44.8594,-100 100,-100c55.1406,0 100,44.8594 100,100c0,55.1406 -44.8594,100 -100,100Z"></path><path d="M149.704,66.3887c-1.9902,-0.9434 -4.3789,-0.1035 -5.3301,1.8926l-37.8887,79.5664l-31.834,-24.0996c-1.7656,-1.3398 -4.2715,-0.9883 -5.6035,0.7754c-1.334,1.7617 -0.9863,4.2695 0.7754,5.6035l35.748,27.0625c0.7012,0.5312 1.5508,0.8105 2.4141,0.8105c0.3164,0 0.6348,-0.0371 0.9473,-0.1133c1.168,-0.2852 2.1465,-1.082 2.6641,-2.168l40,-84c0.9492,-1.9941 0.1035,-4.3808 -1.8926,-5.33Z" fill="#FFF"></path><path fill="#FF5D5D" d="M200,26.6992c-1.0239,0 -2.0474,-0.3906 -2.8286,-1.1714c-1.562,-1.5625 -1.562,-4.0947 0,-5.6572l14.1421,-14.1421c1.5625,-1.5615 4.0947,-1.5615 5.6572,0c1.562,1.5625 1.562,4.0947 0,5.6572l-14.1421,14.1421c-0.7812,0.7808 -1.8047,1.1714 -2.8286,1.1714Z"></path><path d="M214.142,26.6978c-1.0239,0 -2.0474,-0.3906 -2.8286,-1.1714l-14.1421,-14.1426c-1.562,-1.5625 -1.562,-4.0952 0,-5.6572c1.5635,-1.5615 4.0957,-1.5605 5.6572,0l14.1421,14.1426c1.562,1.5625 1.562,4.0952 0,5.6572c-0.7812,0.7807 -1.8052,1.1714 -2.8286,1.1714Z" fill="#FF5D5D"></path><path fill="#00D40B" d="M14,30.6992c-7.7197,0 -14,-6.2803 -14,-14c0,-7.7197 6.2803,-14 14,-14c7.7197,0 14,6.2803 14,14c0,7.7197 -6.2803,14 -14,14Zm0,-20c-3.3086,-1.77636e-15 -6,2.6914 -6,6c0,3.3086 2.6914,6 6,6c3.3086,0 6,-2.6914 6,-6c0,-3.3086 -2.6914,-6 -6,-6Z"></path><path d="M99.314,129.325c-1.0234,0 -2.0474,-0.3906 -2.8281,-1.1714l-11.314,-11.3135c-0.7505,-0.7504 -1.1719,-1.7675 -1.1719,-2.8286c0,-1.0611 0.4214,-2.0781 1.1719,-2.8286l11.314,-11.3135c1.5625,-1.5615 4.0952,-1.5605 5.6567,0l11.3135,11.3135c1.562,1.5625 1.562,4.0947 0,5.6572l-11.3135,11.3135c-0.7813,0.7808 -1.8052,1.1714 -2.8286,1.1714Zm-5.6573,-15.3135l5.6572,5.6567l5.6567,-5.6567l-5.6567,-5.6567l-5.6572,5.6567Z" fill="#FFC504"></path></svg>