<?xml version="1.0" encoding="UTF-8"?>
<svg width="711px" height="811px" viewBox="0 0 711 811" version="1.1" xmlns="http://www.w3.org/2000/svg" xmlns:xlink="http://www.w3.org/1999/xlink">
    <!-- Generator: Sketch 54.1 (76490) - https://sketchapp.com -->
    <title>Artboard</title>
    <desc>Created with Sketch.</desc>
    <defs>
        <path d="M0.858,2.378 L0.788,0.057 L3.784,1.994 C3.784,1.994 2.942,4.1 2.85,4.027 C2.759,3.954 0.858,2.378 0.858,2.378" id="path-1"></path>
        <path d="M24.896,41.536 L1.725,28.159 C0.337,27.357 0.511,25.957 2.114,25.032 L44.061,0.814 C45.664,-0.112 48.088,-0.212 49.476,0.589 L72.647,13.967 C74.035,14.768 73.861,16.168 72.258,17.093 L30.311,41.311 C28.708,42.237 26.284,42.337 24.896,41.536" id="path-3"></path>
        <path d="M47.966,48.334 C45.954,48.334 43.936,47.89 42.392,46.998 L2.974,24.24 C2.676,24.068 2.406,23.885 2.166,23.695 C-0.143,21.864 0.213,19.28 3.178,17.708 L36.371,0.104 L33.581,1.584 L81.72,29.643 L53.65,46.915 C52.116,47.859 50.044,48.334 47.966,48.334" id="path-5"></path>
        <polyline id="path-7" points="48.72 33.643 0.581 5.584 3.371 4.104 9.574 0.815 57.46 28.266 48.72 33.643"></polyline>
        <path d="M196.75,168.504 C196.36,168.504 195.92,168.379 195.46,168.114 L122.63,126.363 L122.46,126.266 L3.117,57.851 C1.53,56.941 0.231,54.717 0.231,52.909 L0.234,31.527 C0.713,32.645 1.533,33.677 2.459,34.211 L195.59,145.714 C196.01,145.956 196.4,146.07 196.76,146.07 C197.64,146.07 198.24,145.361 198.24,144.143 L197.93,3.295 C197.93,2.241 197.47,1.041 196.78,0.079 C197.72,1.162 198.37,2.649 198.37,3.928 L198.35,150.412 L198.35,156.843 L198.34,166.481 C198.34,167.762 197.69,168.504 196.75,168.504" id="path-9"></path>
        <path d="M54.2,45.665 C51.47,35.36 35.44,30.036 15.15,21.357 C10.58,19.402 5.794,17.278 0.894,14.887 C0.041,14.395 0.149,13.527 1.134,12.958 L9.322,8.231 C9.35,8.255 9.379,8.279 9.41,8.302 C33.17,23.427 56.63,30.942 54.2,45.665 L130.02,1.427 C130.04,1.281 130.05,1.136 130.06,0.989 C130.08,1.28 130.08,1.571 130.07,1.863 L54.2,45.665" id="path-11"></path>
        <path d="M46.2,81.665 L46.2,81.665 C48.63,66.942 25.17,59.427 1.41,44.302 C1.379,44.279 1.35,44.255 1.322,44.231 C0.669,43.661 0.856,42.785 1.77,42.24 L71.69,0.525 C72.17,0.24 72.76,0.098 73.32,0.098 C73.88,0.098 74.42,0.239 74.79,0.521 C101.06,11.012 118.47,22.568 121.58,33.067 C121.97,34.392 122.13,35.702 122.06,36.989 C122.05,37.136 122.04,37.281 122.02,37.427 L46.2,81.665 M20.429,45.096 C20.194,45.096 19.951,45.146 19.755,45.248 C19.358,45.454 19.3,45.79 19.626,45.999 L45.26,62.393 C45.42,62.498 45.65,62.551 45.89,62.551 C46.13,62.551 46.37,62.5 46.57,62.398 C46.96,62.192 47.02,61.856 46.69,61.648 L21.064,45.254 C20.899,45.148 20.669,45.096 20.429,45.096 M28.84,39.662 C28.6,39.662 28.36,39.713 28.16,39.815 C27.77,40.021 27.71,40.357 28.03,40.566 L53.66,56.96 C53.83,57.065 54.06,57.118 54.3,57.118 C54.53,57.118 54.78,57.067 54.97,56.965 C55.37,56.759 55.43,56.423 55.1,56.215 L29.47,39.82 C29.31,39.715 29.08,39.662 28.84,39.662 M37.25,34.229 C37.01,34.229 36.77,34.28 36.57,34.382 C36.17,34.588 36.12,34.924 36.44,35.133 L62.07,51.527 C62.24,51.632 62.47,51.685 62.71,51.685 C62.94,51.685 63.18,51.634 63.38,51.532 C63.78,51.326 63.84,50.99 63.51,50.782 L37.88,34.387 C37.72,34.282 37.48,34.229 37.25,34.229 M45.85,26.722 C45.62,26.722 45.37,26.773 45.18,26.875 C44.78,27.081 44.72,27.416 45.05,27.625 L70.68,44.02 C70.84,44.125 71.07,44.177 71.31,44.177 C71.55,44.177 71.79,44.127 71.99,44.025 C72.38,43.819 72.44,43.483 72.11,43.274 L46.49,26.88 C46.32,26.775 46.09,26.722 45.85,26.722 M54.26,21.289 C54.02,21.289 53.78,21.34 53.58,21.442 C53.19,21.648 53.13,21.983 53.46,22.192 L79.09,38.586 C79.25,38.692 79.48,38.744 79.72,38.744 C79.96,38.744 80.2,38.694 80.39,38.592 C80.79,38.386 80.85,38.05 80.52,37.841 L54.89,21.447 C54.73,21.342 54.5,21.289 54.26,21.289 M62.67,15.856 C62.43,15.856 62.19,15.907 61.99,16.009 C61.59,16.215 61.54,16.55 61.86,16.759 L87.49,33.153 C87.66,33.259 87.89,33.311 88.13,33.311 C88.36,33.311 88.61,33.261 88.8,33.159 C89.2,32.953 89.26,32.617 88.93,32.408 L63.3,16.014 C63.14,15.909 62.91,15.856 62.67,15.856 M71.07,10.423 C70.84,10.423 70.6,10.474 70.4,10.576 C70,10.781 69.95,11.117 70.27,11.326 L95.9,27.72 C96.07,27.826 96.3,27.878 96.54,27.878 C96.77,27.878 97.01,27.827 97.21,27.726 C97.61,27.52 97.67,27.184 97.34,26.975 L71.71,10.581 C71.54,10.476 71.31,10.423 71.07,10.423 M79.48,4.99 C79.25,4.99 79,5.041 78.81,5.143 C78.41,5.348 78.35,5.684 78.68,5.893 L104.31,22.287 C104.47,22.393 104.7,22.445 104.94,22.445 C105.18,22.445 105.42,22.394 105.62,22.292 C106.02,22.087 106.07,21.751 105.75,21.542 L80.12,5.148 C79.95,5.043 79.72,4.99 79.48,4.99" id="path-13"></path>
        <path d="M26.94,18.445 C26.7,18.445 26.47,18.393 26.31,18.287 L0.68,1.893 C0.35,1.684 0.41,1.348 0.81,1.143 C1,1.041 1.25,0.99 1.48,0.99 C1.72,0.99 1.95,1.043 2.12,1.148 L27.75,17.542 C28.07,17.751 28.02,18.087 27.62,18.292" id="path-15"></path>
        <path d="M26.54,17.878 C26.3,17.878 26.07,17.826 25.9,17.72 L0.27,1.326 C-0.05,1.117 6.9388939e-18,0.781 0.4,0.576 C0.6,0.474 0.84,0.423 1.07,0.423 C1.31,0.423 1.54,0.476 1.71,0.581 L27.34,16.975 C27.67,17.184 27.61,17.52 27.21,17.726 C27.01,17.827 26.77,17.878 26.54,17.878" id="path-17"></path>
        <path d="M27.13,18.311 C26.89,18.311 26.66,18.259 26.49,18.153 L0.86,1.759 C0.54,1.55 0.59,1.215 0.99,1.009 C1.19,0.907 1.43,0.856 1.67,0.856 C1.91,0.856 2.14,0.909 2.3,1.014 L27.93,17.408 C28.26,17.617 28.2,17.953 27.8,18.159 C27.61,18.261 27.36,18.311 27.13,18.311" id="path-19"></path>
        <path d="M26.72,17.744 C26.48,17.744 26.25,17.692 26.09,17.586 L0.46,1.192 C0.13,0.983 0.19,0.648 0.58,0.442 C0.78,0.34 1.02,0.289 1.26,0.289 C1.5,0.289 1.73,0.342 1.89,0.447 L27.52,16.841 C27.85,17.05 27.79,17.386 27.39,17.592 C27.2,17.694 26.96,17.744 26.72,17.744" id="path-21"></path>
        <path d="M27.31,18.177 C27.07,18.177 26.84,18.125 26.68,18.02 L1.05,1.625 C0.72,1.416 0.78,1.081 1.18,0.875 C1.37,0.773 1.62,0.722 1.85,0.722 C2.09,0.722 2.32,0.775 2.49,0.88 L28.11,17.274 C28.44,17.483 28.38,17.819 27.99,18.025 C27.79,18.127 27.55,18.177 27.31,18.177" id="path-23"></path>
        <path d="M26.71,17.685 C26.47,17.685 26.24,17.632 26.07,17.527 L0.44,1.133 C0.12,0.924 0.17,0.588 0.57,0.382 C0.77,0.28 1.01,0.229 1.25,0.229 C1.48,0.229 1.72,0.282 1.88,0.387 L27.51,16.782 C27.84,16.99 27.78,17.326 27.38,17.532 C27.18,17.634 26.94,17.685 26.71,17.685" id="path-25"></path>
        <path d="M27.3,18.118 C27.06,18.118 26.83,18.065 26.66,17.96 L1.03,1.566 C0.71,1.357 0.77,1.021 1.16,0.815 C1.36,0.713 1.6,0.662 1.84,0.662 C2.08,0.662 2.31,0.715 2.47,0.82 L28.1,17.215 C28.43,17.423 28.37,17.759 27.97,17.965 C27.78,18.067 27.53,18.118 27.3,18.118" id="path-27"></path>
        <path d="M26.89,17.551 C26.65,17.551 26.42,17.498 26.26,17.393 L0.626,0.999 C0.3,0.79 0.358,0.454 0.755,0.248 C0.951,0.146 1.194,0.096 1.429,0.096 C1.669,0.096 1.899,0.148 2.064,0.254 L27.69,16.648 C28.02,16.856 27.96,17.192 27.57,17.398 C27.37,17.5 27.13,17.551 26.89,17.551" id="path-29"></path>
    </defs>
    <g id="Artboard" stroke="none" stroke-width="1" fill="none" fill-rule="evenodd">
        <g id="iStock-960217844">
            <path d="M437.18,791.892 L34.686,555.255 C13.217,542.86 13.135,527.686 34.468,515.058 L262.292,380.203 L702.91,634.597 L437.18,791.892" id="Fill-3" fill="#DCEEF4"></path>
            <path d="M704.31,646.001 L705.49,645.827 C709.01,645.305 711.44,642.027 710.92,638.505 L681.77,441.91 C681.24,438.389 677.97,435.958 674.45,436.479 L673.27,436.654 C669.75,437.176 667.32,440.454 667.84,443.975 L696.99,640.57 C697.52,644.092 700.79,646.523 704.31,646.001" id="Fill-4" fill="#887987"></path>
            <path d="M431.94,810.45 C428.11,810.12 425.27,806.742 425.6,802.906 L452.99,484.893 C453.32,481.057 456.69,478.215 460.53,478.545 C464.37,478.876 467.21,482.253 466.88,486.09 L439.49,804.102 C439.16,807.939 435.78,810.781 431.94,810.45" id="Fill-5" fill="#887987"></path>
            <polyline id="Fill-6" fill="#635861" points="454.2 633.323 440.93 624.247 444.73 586.048 458.85 588.255 454.2 633.323"></polyline>
            <polyline id="Fill-7" fill="#635861" points="679.27 520.87 691.87 510.881 685.39 473.045 671.45 476.243 679.27 520.87"></polyline>
            <polyline id="Fill-8" fill="#DCEEF4" points="8.304 687.742 248.078 561.88 379.281 637.63 139.507 763.492 8.304 687.742"></polyline>
            <path d="M170.667,607.662 L35.408,529.57 C22.873,522.333 27.945,506.459 46.681,494.294 L95.301,462.725 C114.036,450.56 189.792,442.142 202.327,449.379 L287.013,501.442 C299.548,508.679 294.877,554.969 276.142,567.134 L227.522,598.703 C208.787,610.867 183.202,614.899 170.667,607.662" id="Fill-9" fill="#AC3D67"></path>
            <path d="M262.417,616.369 C261.598,617.008 249.648,622.209 248.882,622.807 C247.707,623.722 244.219,626.228 242.123,627.574 C237.71,630.406 228.094,641.56 213.901,632.558 C193.132,619.385 246.135,588.033 246.135,588.033 L269.401,577.478 C272.234,576.193 275.556,576.375 278.349,577.967 C283.506,580.907 285.264,587.584 282.114,592.405 C276.709,600.678 276.159,605.645 262.417,616.369" id="Fill-10" fill="#161E2C"></path>
            <path d="M260.354,609.831 C259.535,610.47 247.585,615.671 246.819,616.268 C245.644,617.184 242.156,619.69 240.06,621.035 C235.647,623.868 226.031,635.022 211.838,626.02 C191.069,612.847 244.072,581.495 244.072,581.495 L267.338,570.94 C270.171,569.655 273.493,569.837 276.286,571.429 C281.443,574.368 283.201,581.045 280.051,585.867 C274.646,594.139 274.095,599.107 260.354,609.831" id="Fill-11" fill="#7B4948"></path>
            <path d="M275.374,594.335 C276.657,592.133 278.672,587.941 280.35,585.373 C283.5,580.552 281.443,574.368 276.286,571.429 C273.493,569.837 270.171,569.655 267.338,570.94 L255.983,576.091 C262.385,578.776 269.651,584.917 275.374,594.335" id="Fill-12" fill="#834E4A"></path>
            <path d="M169.571,534.901 C186.489,523.406 203.749,511.59 222.424,503.079 C223.131,502.757 223.878,502.483 224.568,502.125 C219.006,505.009 221.5,503.368 223.039,502.805 C224.277,502.352 225.503,501.877 226.757,501.469 C228.17,501.008 232.241,499.2 233.746,499.755 C232.503,499.297 227.393,500.444 231.62,500.209 C234.339,500.057 234.72,502.037 229.081,499.691 C229.544,499.884 230.62,500.178 231.087,500.184 C232.616,500.205 227.331,498.578 227.408,498.61 C227.863,498.8 228.314,499.069 228.719,499.349 C229.881,500.15 223.759,495.145 226.383,497.667 C228.638,499.833 223.306,492.541 224.67,495.441 C224.915,495.961 225.295,496.766 225.637,497.221 C222.431,492.951 223.819,492.433 224.702,495.343 C225.188,496.94 225.431,498.572 225.763,500.202 C226.236,502.516 225.042,493.474 225.469,498.201 C225.577,499.388 225.682,500.574 225.76,501.764 C226.069,506.512 226.116,511.275 226.197,516.031 C226.239,518.565 226.282,521.1 226.349,523.634 C226.379,524.773 226.221,526.116 226.439,527.231 C225.479,522.33 227.595,521.698 226.762,524.121 C226.527,524.802 226.353,525.51 226.122,526.194 C225.579,527.807 222.893,533.722 225.706,527.559 C224.727,529.705 223.824,531.893 222.878,534.056 C220.13,540.337 217.396,546.633 214.924,553.029 C209.967,565.855 206.586,579.103 205.866,592.888 C205.321,603.319 215.425,613.288 225.802,612.824 C237.069,612.319 245.155,604.062 245.738,592.888 C245.807,591.575 245.61,589.525 246.083,588.292 C244.367,592.763 246.019,588.849 246.281,587.437 C246.757,584.864 247.349,582.312 248.019,579.782 C249.597,573.814 251.652,567.978 253.916,562.238 C254.441,560.908 254.895,559.437 255.563,558.172 C253.343,562.378 254.953,559.604 255.463,558.419 C256.4,556.242 257.355,554.072 258.306,551.9 C260.485,546.918 262.833,541.951 264.57,536.794 C266.769,530.266 266.196,523.521 266.081,516.77 C265.992,511.565 265.958,506.348 265.591,501.152 C264.756,489.313 262.687,477.337 253.766,468.707 C242.842,458.14 226.461,459.073 213.212,464.061 C190.275,472.695 169.592,486.784 149.447,500.473 C140.836,506.323 136.187,518.275 142.294,527.749 C147.821,536.321 160.346,541.17 169.571,534.901" id="Fill-13" fill="#C5A584"></path>
            <path d="M242.33,588.968 C233.485,595.875 216.047,593.897 209.988,584.199 C209.6,589.339 209.299,594.479 209.141,599.62 C208.5,620.568 241.064,622.43 241.708,601.402 C241.835,597.257 242.053,593.112 242.33,588.968" id="Fill-14" fill="#E0E9EE"></path>
            <path d="M201.623,580.467 L201.193,594.907 C201.174,595.528 201.336,596.126 201.676,596.645 C203.682,599.706 211.693,610.038 227.435,608.143 C241.238,606.481 248.814,602.579 251.75,600.723 C252.661,600.147 253.178,599.138 253.138,598.061 L252.597,583.305 C252.516,581.102 250.184,579.694 248.226,580.708 C241.03,584.439 225.231,589.701 206.271,578.019 C204.275,576.789 201.693,578.124 201.623,580.467" id="Fill-15" fill="#DEBD9D"></path>
            <path d="M137.212,512.734 L137.212,512.734 C139.033,516.645 131.738,498.092 134.629,501.294 C140.652,507.964 173.524,548.511 182.083,551.247 C192.423,554.552 165.498,530.561 165.498,530.561 C165.498,530.561 251.611,480.289 249.799,477.804 C235.626,458.369 222.186,452.29 195.013,462.861 C164.08,474.895 128.501,494.016 137.212,512.734" id="Fill-16" fill="#B19377"></path>
            <path d="M314.917,645.93 C314.077,646.541 301.963,651.346 301.177,651.918 C299.973,652.795 296.404,655.185 294.265,656.46 C289.761,659.146 279.784,669.978 265.894,660.513 C245.57,646.664 299.576,617.073 299.576,617.073 L323.177,607.29 C326.05,606.099 329.365,606.389 332.104,608.073 C337.161,611.18 338.698,617.911 335.392,622.626 C329.717,630.717 329.004,635.663 314.917,645.93" id="Fill-17" fill="#161E2C"></path>
            <path d="M313.07,639.327 C312.23,639.939 300.116,644.744 299.33,645.315 C298.126,646.192 294.557,648.582 292.418,649.857 C287.914,652.543 277.937,663.375 264.047,653.911 C243.723,640.061 297.729,610.471 297.729,610.471 L321.33,600.687 C324.203,599.496 327.518,599.787 330.257,601.47 C335.314,604.577 336.852,611.309 333.545,616.024 C327.87,624.114 327.157,629.061 313.07,639.327" id="Fill-18" fill="#7B4948"></path>
            <path d="M328.592,624.334 C329.946,622.175 332.098,618.052 333.86,615.54 C337.167,610.825 335.314,604.577 330.257,601.47 C327.517,599.787 324.203,599.496 321.33,600.687 L309.812,605.462 C316.121,608.356 323.182,614.733 328.592,624.334" id="Fill-19" fill="#834E4A"></path>
            <path d="M207.312,560.938 C223.638,549.162 239.933,537.001 257.362,526.875 C259.997,525.344 262.669,523.872 265.411,522.539 C266.041,522.233 266.687,521.956 267.312,521.641 C269.872,520.351 264.592,522.748 264.714,522.713 C266.051,522.328 267.33,521.686 268.671,521.284 C269.548,521.021 270.446,520.857 271.325,520.611 C274.655,519.677 265.25,521.073 268.922,520.958 C271.348,520.883 273.193,522.025 266.361,520.438 C270.364,521.368 261.458,517.719 264.268,519.432 C266.303,520.674 259.448,515.135 261.953,517.702 C264.031,519.832 258.45,512.701 260.245,515.577 C262.426,519.075 259.032,511.441 259.434,513.509 C259.629,514.516 259.992,515.544 260.24,516.543 C261.349,520.994 259.87,511.92 260.076,514.813 C260.164,516.055 260.3,517.29 260.36,518.535 C260.501,521.468 260.47,524.409 260.371,527.343 C259.973,539.137 260.122,550.904 260.199,562.708 C260.327,582.207 260.54,601.794 259.158,621.256 C258.418,631.681 268.857,641.651 279.094,641.192 C290.528,640.68 298.238,632.424 299.03,621.256 C301.271,589.687 299.409,557.981 300.273,526.379 C300.635,513.145 299.448,498.095 289.09,488.564 C275.999,476.519 258.587,481.481 244.502,488.498 C224.096,498.662 205.599,513.23 187.188,526.509 C178.752,532.594 173.815,544.137 180.035,553.786 C185.428,562.15 198.266,567.462 207.312,560.938" id="Fill-20" fill="#C5A584"></path>
            <path d="M295.742,617.882 C286.674,624.495 269.312,621.943 263.575,612.052 C263.018,617.176 262.547,622.303 262.221,627.436 C260.891,648.352 293.376,651.284 294.711,630.29 C294.974,626.151 295.329,622.015 295.742,617.882" id="Fill-21" fill="#E0E9EE"></path>
            <path d="M255.337,608.047 L254.432,622.465 C254.393,623.084 254.535,623.687 254.858,624.217 C256.762,627.343 264.428,637.933 280.224,636.557 C294.074,635.35 301.775,631.699 304.77,629.941 C305.7,629.395 306.249,628.404 306.245,627.326 L306.19,612.56 C306.182,610.356 303.897,608.871 301.907,609.821 C294.592,613.313 278.628,618.053 260.063,605.753 C258.109,604.458 255.484,605.707 255.337,608.047" id="Fill-22" fill="#DEBD9D"></path>
            <path d="M279.862,686.411 L280.297,686.347 C283.235,685.911 285.264,683.176 284.828,680.238 L263.893,539.115 C263.457,536.177 260.722,534.148 257.784,534.584 L257.35,534.649 C254.412,535.085 252.383,537.82 252.819,540.758 L273.754,681.88 C274.189,684.818 276.924,686.847 279.862,686.411" id="Fill-23" fill="#442F44"></path>
            <path d="M18.986,505.466 L17.305,505.217 C14.613,504.817 12.755,502.311 13.154,499.62 L43.619,294.199 C44.018,291.507 46.524,289.648 49.216,290.047 L50.897,290.297 C53.589,290.696 55.447,293.202 55.048,295.894 L24.583,501.315 C24.184,504.007 21.678,505.865 18.986,505.466" id="Fill-24" fill="#635861"></path>
            <polygon id="Fill-25" fill="#A4BDD7" points="0.761 329.996 37.734 329.996 37.734 308.523 0.761 308.523"></polygon>
            <polygon id="Fill-26" fill="#A4BDD7" points="673 467.29 709.97 467.29 709.97 445.817 673 445.817"></polygon>
            <path d="M462.12,600.905 L5.477,337.26 C-1.682,333.127 -0.784,325.908 7.482,321.136 L220.562,198.114 C228.828,193.341 241.332,192.823 248.491,196.956 L705.14,460.601 C712.3,464.734 711.4,471.953 703.13,476.725 L490.05,599.747 C481.79,604.52 469.28,605.038 462.12,600.905" id="Fill-27" fill="#A4BDD7"></path>
            <path d="M462.12,580.309 L5.477,316.664 C-1.682,312.531 -0.784,305.312 7.482,300.54 L220.562,177.518 C228.828,172.745 241.332,172.227 248.491,176.36 L705.14,440.005 C712.3,444.138 711.4,451.357 703.13,456.129 L490.05,579.151 C481.79,583.924 469.28,584.442 462.12,580.309" id="Fill-28" fill="#ECF5F9"></path>
            <path d="M137.617,461.391 L43.089,534.416 C27.651,543.868 16.06,534.486 16.076,518.243 L14.275,491.799 C14.29,475.556 26.933,454.533 42.371,445.082 L137.687,386.723 C153.125,377.272 165.743,382.828 165.728,399.07 L165.713,414.674 C165.698,430.916 153.054,451.939 137.617,461.391" id="Fill-29" fill="#93335B"></path>
            <path d="M15.037,693.045 L15.037,693.045 C11.98,692.592 9.869,689.745 10.322,686.688 L36.663,509.075 C37.117,506.017 39.963,503.906 43.021,504.36 C46.078,504.813 48.189,507.66 47.736,510.717 L21.395,688.33 C20.941,691.388 18.095,693.499 15.037,693.045" id="Fill-30" fill="#442F44"></path>
            <path d="M139.535,768.584 L139.535,768.584 C136.37,768.114 134.186,765.169 134.655,762.004 L164.367,561.668 C164.836,558.503 167.782,556.319 170.946,556.788 C174.11,557.258 176.295,560.203 175.826,563.367 L146.114,763.704 C145.645,766.868 142.699,769.053 139.535,768.584" id="Fill-31" fill="#442F44"></path>
            <path d="M163.385,626.633 L43.805,557.593 C30.952,550.172 23.848,535.39 23.848,535.39 C19.037,524.344 30.511,516.35 43.365,523.771 L169.099,597.796 C181.953,605.217 186.803,612.968 184.727,622.17 C184.727,622.17 179.677,635.04 163.385,626.633" id="Fill-32" fill="#C73D6B"></path>
            <path d="M402.66,385.102 L269.667,308.318 C268.906,307.879 267.967,307.883 267.21,308.33 L226.836,332.159 C225.229,333.107 225.24,335.435 226.856,336.368 L359.399,412.892 C360.153,413.327 361.082,413.327 361.836,412.892 L402.66,389.323 C404.284,388.385 404.284,386.04 402.66,385.102" id="Fill-33" fill="#A4BDD7"></path>
            <path d="M361.928,407.645 L229.384,331.121 C227.768,330.188 227.757,327.86 229.364,326.912 L269.738,303.083 C270.495,302.636 271.434,302.632 272.195,303.071 L405.188,379.855 C406.813,380.793 406.813,383.138 405.188,384.076 L364.364,407.645 C363.61,408.081 362.682,408.081 361.928,407.645" id="Fill-34" fill="#FFFFFE"></path>
            <path d="M276.309,314.992 C276.095,315.115 275.658,315.065 275.336,314.879 L266.395,309.719 C266.072,309.532 265.984,309.28 266.198,309.157 L272.121,305.735 C272.336,305.611 272.771,305.662 273.094,305.848 L282.036,311.008 C282.358,311.194 282.447,311.446 282.232,311.57 L276.309,314.992" id="Fill-35" fill="#A4BDD7"></path>
            <path d="M286.682,330.399 C286.466,330.524 286.033,330.475 285.706,330.286 L276.765,325.126 C276.443,324.94 276.357,324.69 276.574,324.565 L282.499,321.142 C282.709,321.021 283.144,321.07 283.466,321.256 L292.407,326.415 C292.733,326.604 292.818,326.854 292.607,326.976 L286.682,330.399" id="Fill-36" fill="#A4BDD7"></path>
            <path d="M281.438,336.795 C281.223,336.92 280.789,336.867 280.468,336.681 L271.525,331.52 C271.207,331.337 271.112,331.084 271.326,330.96 L277.253,327.537 C277.462,327.415 277.904,327.469 278.221,327.652 L287.164,332.813 C287.486,332.998 287.574,333.251 287.364,333.372 L281.438,336.795" id="Fill-37" fill="#A4BDD7"></path>
            <path d="M267.25,338.03 C267.038,338.152 266.601,338.102 266.281,337.917 L257.339,332.757 C257.02,332.573 256.932,332.32 257.144,332.198 L263.069,328.775 C263.281,328.652 263.721,328.702 264.039,328.886 L272.982,334.047 C273.302,334.231 273.387,334.484 273.175,334.607 L267.25,338.03" id="Fill-38" fill="#A4BDD7"></path>
            <path d="M258.06,343.336 C257.846,343.46 257.33,343.362 256.905,343.117 L245.19,336.356 C244.771,336.114 244.599,335.815 244.813,335.691 L251.769,331.673 C251.978,331.552 252.502,331.649 252.921,331.891 L264.636,338.651 C265.061,338.896 265.226,339.197 265.017,339.318 L258.06,343.336" id="Fill-39" fill="#A4BDD7"></path>
            <path d="M335.022,387.815 C334.844,387.917 334.438,387.849 334.116,387.664 L325.181,382.507 C324.855,382.319 324.734,382.083 324.912,381.98 L327.484,380.494 C327.66,380.393 328.071,380.461 328.397,380.649 L337.332,385.806 C337.654,385.991 337.77,386.227 337.594,386.329 L335.022,387.815" id="Fill-40" fill="#A4BDD7"></path>
            <path d="M346.969,394.888 C346.791,394.991 346.385,394.923 346.063,394.737 L337.128,389.581 C336.802,389.393 336.681,389.156 336.859,389.054 L339.431,387.568 C339.607,387.466 340.018,387.535 340.344,387.723 L349.279,392.879 C349.601,393.065 349.717,393.301 349.541,393.402 L346.969,394.888" id="Fill-41" fill="#A4BDD7"></path>
            <path d="M359.635,402.032 C359.464,402.131 359.061,402.059 358.739,401.873 L349.801,396.715 C349.481,396.53 349.352,396.295 349.523,396.196 L352,394.765 C352.17,394.667 352.579,394.74 352.899,394.925 L361.837,400.083 C362.159,400.269 362.282,400.503 362.112,400.601 L359.635,402.032" id="Fill-42" fill="#A4BDD7"></path>
            <path d="M351.845,392.161 C351.674,392.26 351.271,392.188 350.949,392.002 L342.011,386.844 C341.691,386.659 341.562,386.425 341.733,386.326 L344.211,384.894 C344.38,384.796 344.789,384.87 345.109,385.055 L354.047,390.213 C354.369,390.398 354.492,390.632 354.323,390.73 L351.845,392.161" id="Fill-43" fill="#A4BDD7"></path>
            <path d="M319.568,378.827 C319.354,378.95 318.915,378.897 318.592,378.711 L260.405,345.132 C260.088,344.949 259.993,344.694 260.206,344.57 L267.163,340.552 C267.372,340.431 267.818,340.483 268.135,340.666 L326.322,374.245 C326.645,374.431 326.733,374.687 326.524,374.808 L319.568,378.827" id="Fill-44" fill="#A4BDD7"></path>
            <path d="M313.608,373.736 C313.594,373.743 313.372,373.627 313.115,373.479 L266.805,346.754 C266.552,346.608 266.35,346.479 266.363,346.471 L266.795,346.222 C266.808,346.214 267.033,346.331 267.285,346.477 L313.595,373.201 C313.852,373.35 314.053,373.478 314.04,373.486 L313.608,373.736" id="Fill-45" fill="#A4BDD7"></path>
            <path d="M279.507,345.098 C279.296,345.22 278.859,345.17 278.535,344.983 L269.594,339.823 C269.277,339.64 269.184,339.384 269.395,339.262 L275.32,335.839 C275.533,335.716 275.977,335.77 276.294,335.953 L285.235,341.112 C285.56,341.299 285.645,341.552 285.432,341.675 L279.507,345.098" id="Fill-46" fill="#A4BDD7"></path>
            <path d="M291.818,352.202 C291.607,352.324 291.167,352.273 290.85,352.09 L281.91,346.93 C281.589,346.745 281.498,346.491 281.71,346.369 L287.635,342.946 C287.848,342.823 288.289,342.875 288.61,343.06 L297.55,348.219 C297.868,348.402 297.956,348.656 297.743,348.779 L291.818,352.202" id="Fill-47" fill="#A4BDD7"></path>
            <path d="M304.13,359.307 C303.919,359.429 303.481,359.379 303.162,359.195 L294.22,354.034 C293.9,353.85 293.813,353.598 294.025,353.475 L299.95,350.053 C300.162,349.93 300.601,349.979 300.92,350.164 L309.862,355.324 C310.182,355.508 310.268,355.761 310.055,355.884 L304.13,359.307" id="Fill-48" fill="#A4BDD7"></path>
            <path d="M316.443,366.413 C316.232,366.535 315.796,366.485 315.474,366.3 L306.532,361.14 C306.208,360.953 306.121,360.7 306.333,360.578 L312.258,357.155 C312.471,357.033 312.909,357.082 313.232,357.269 L322.174,362.429 C322.496,362.615 322.581,362.867 322.368,362.99 L316.443,366.413" id="Fill-49" fill="#A4BDD7"></path>
            <path d="M328.757,373.518 C328.545,373.641 328.104,373.589 327.781,373.402 L318.842,368.244 C318.523,368.059 318.435,367.807 318.647,367.684 L324.572,364.262 C324.785,364.139 325.223,364.189 325.542,364.373 L334.481,369.531 C334.805,369.718 334.894,369.973 334.682,370.096 L328.757,373.518" id="Fill-50" fill="#A4BDD7"></path>
            <path d="M341.07,380.618 C340.858,380.741 340.42,380.69 340.099,380.505 L331.159,375.346 C330.837,375.16 330.749,374.907 330.96,374.784 L336.885,371.362 C337.098,371.239 337.538,371.289 337.86,371.475 L346.799,376.634 C347.12,376.819 347.208,377.073 346.995,377.196 L341.07,380.618" id="Fill-51" fill="#A4BDD7"></path>
            <path d="M368.802,396.622 C368.59,396.744 368.153,396.694 367.831,396.508 L343.47,382.45 C343.148,382.264 343.061,382.012 343.273,381.89 L349.198,378.467 C349.41,378.344 349.848,378.394 350.17,378.579 L374.531,392.638 C374.853,392.823 374.939,393.076 374.727,393.199 L368.802,396.622" id="Fill-52" fill="#A4BDD7"></path>
            <path d="M293.69,343.86 C293.475,343.984 293.047,343.935 292.724,343.748 L283.781,338.587 C283.46,338.402 283.37,338.153 283.585,338.029 L289.511,334.605 C289.721,334.484 290.156,334.533 290.478,334.719 L299.421,339.88 C299.744,340.066 299.826,340.315 299.617,340.437 L293.69,343.86" id="Fill-53" fill="#A4BDD7"></path>
            <path d="M306.005,350.967 C305.79,351.091 305.356,351.038 305.037,350.854 L296.091,345.691 C295.773,345.508 295.683,345.258 295.898,345.134 L301.824,341.71 C302.034,341.589 302.47,341.639 302.788,341.823 L311.734,346.985 C312.052,347.169 312.141,347.422 311.931,347.543 L306.005,350.967" id="Fill-54" fill="#A4BDD7"></path>
            <path d="M318.317,358.072 C318.102,358.196 317.666,358.142 317.347,357.958 L308.406,352.798 C308.089,352.615 307.991,352.361 308.206,352.237 L314.132,348.813 C314.342,348.692 314.786,348.747 315.103,348.929 L324.044,354.089 C324.363,354.273 324.453,354.527 324.244,354.648 L318.317,358.072" id="Fill-55" fill="#A4BDD7"></path>
            <path d="M330.627,365.176 C330.412,365.3 329.979,365.248 329.658,365.063 L320.719,359.904 C320.397,359.718 320.306,359.468 320.52,359.344 L326.447,355.92 C326.657,355.799 327.094,355.849 327.416,356.035 L336.355,361.194 C336.676,361.379 336.763,361.631 336.554,361.752 L330.627,365.176" id="Fill-56" fill="#A4BDD7"></path>
            <path d="M342.945,372.278 C342.73,372.402 342.295,372.349 341.976,372.165 L333.031,367.003 C332.709,366.817 332.62,366.568 332.835,366.444 L338.761,363.021 C338.971,362.9 339.406,362.948 339.728,363.134 L348.673,368.296 C348.992,368.48 349.081,368.734 348.871,368.855 L342.945,372.278" id="Fill-57" fill="#A4BDD7"></path>
            <path d="M355.253,379.381 C355.038,379.505 354.606,379.453 354.285,379.268 L345.347,374.11 C345.022,373.923 344.931,373.673 345.146,373.549 L351.072,370.125 C351.282,370.004 351.719,370.054 352.044,370.242 L360.982,375.4 C361.303,375.585 361.389,375.836 361.179,375.958 L355.253,379.381" id="Fill-58" fill="#A4BDD7"></path>
            <path d="M367.565,386.486 C367.35,386.61 366.917,386.558 366.597,386.374 L357.652,381.212 C357.333,381.027 357.245,380.779 357.459,380.655 L363.386,377.231 C363.596,377.11 364.03,377.159 364.349,377.343 L373.294,382.505 C373.613,382.689 373.701,382.941 373.491,383.063 L367.565,386.486" id="Fill-59" fill="#A4BDD7"></path>
            <path d="M298.937,337.465 C298.721,337.59 298.285,337.539 297.963,337.353 L289.021,332.193 C288.703,332.01 288.615,331.758 288.831,331.633 L294.757,328.21 C294.967,328.089 295.403,328.139 295.721,328.322 L304.663,333.482 C304.986,333.669 305.073,333.921 304.862,334.042 L298.937,337.465" id="Fill-60" fill="#A4BDD7"></path>
            <path d="M311.246,344.569 C311.03,344.694 310.593,344.642 310.275,344.459 L301.334,339.299 C301.013,339.113 300.923,338.861 301.14,338.736 L307.065,335.313 C307.275,335.192 307.713,335.242 308.034,335.428 L316.976,340.588 C317.294,340.771 317.382,341.024 317.172,341.146 L311.246,344.569" id="Fill-61" fill="#A4BDD7"></path>
            <path d="M323.56,351.675 C323.344,351.799 322.908,351.749 322.584,351.562 L313.644,346.403 C313.325,346.218 313.237,345.967 313.453,345.842 L319.378,342.419 C319.589,342.298 320.025,342.348 320.344,342.532 L329.285,347.691 C329.609,347.878 329.695,348.13 329.485,348.251 L323.56,351.675" id="Fill-62" fill="#A4BDD7"></path>
            <path d="M335.869,358.778 C335.653,358.903 335.221,358.854 334.898,358.668 L325.956,353.508 C325.634,353.322 325.546,353.07 325.762,352.945 L331.687,349.522 C331.897,349.401 332.334,349.451 332.656,349.637 L341.599,354.797 C341.921,354.984 342.005,355.234 341.795,355.355 L335.869,358.778" id="Fill-63" fill="#A4BDD7"></path>
            <path d="M348.185,365.879 C347.968,366.004 347.532,365.953 347.216,365.771 L338.273,360.61 C337.95,360.423 337.864,360.173 338.08,360.048 L344.006,356.625 C344.216,356.504 344.65,356.553 344.974,356.739 L353.916,361.9 C354.233,362.082 354.32,362.335 354.11,362.456 L348.185,365.879" id="Fill-64" fill="#A4BDD7"></path>
            <path d="M360.499,372.986 C360.283,373.111 359.847,373.06 359.522,372.872 L350.582,367.713 C350.265,367.53 350.174,367.277 350.39,367.152 L356.315,363.729 C356.526,363.607 356.965,363.659 357.282,363.842 L366.223,369.002 C366.547,369.189 366.635,369.441 366.425,369.563 L360.499,372.986" id="Fill-65" fill="#A4BDD7"></path>
            <path d="M372.809,380.09 C372.593,380.214 372.157,380.163 371.837,379.979 L362.895,374.819 C362.573,374.633 362.486,374.382 362.702,374.257 L368.627,370.834 C368.838,370.713 369.273,370.762 369.595,370.948 L378.538,376.108 C378.857,376.293 378.944,376.545 378.734,376.666 L372.809,380.09" id="Fill-66" fill="#A4BDD7"></path>
            <path d="M274.37,323.294 C274.154,323.419 273.718,323.368 273.395,323.182 L258.235,314.433 C257.912,314.246 257.823,313.995 258.04,313.87 L263.965,310.447 C264.175,310.325 264.612,310.376 264.935,310.562 L280.096,319.311 C280.419,319.497 280.506,319.749 280.296,319.871 L274.37,323.294" id="Fill-67" fill="#A4BDD7"></path>
            <path d="M393.279,382.482 C393.065,382.605 392.629,382.555 392.307,382.369 L377.145,373.619 C376.828,373.437 376.736,373.182 376.95,373.059 L382.874,369.637 C383.088,369.513 383.528,369.566 383.845,369.749 L399.006,378.499 C399.328,378.684 399.417,378.936 399.202,379.06 L393.279,382.482" id="Fill-68" fill="#A4BDD7"></path>
            <path d="M269.123,329.689 C268.908,329.813 268.478,329.762 268.153,329.574 L250.079,319.144 C249.756,318.958 249.665,318.708 249.88,318.584 L255.806,315.16 C256.016,315.039 256.453,315.089 256.775,315.276 L274.85,325.706 C275.175,325.894 275.259,326.144 275.049,326.265 L269.123,329.689" id="Fill-69" fill="#A4BDD7"></path>
            <path d="M254.942,330.927 C254.73,331.049 254.292,330.999 253.97,330.813 L241.919,323.858 C241.596,323.672 241.509,323.419 241.72,323.297 L247.646,319.874 C247.858,319.752 248.296,319.801 248.619,319.987 L260.67,326.942 C260.992,327.128 261.079,327.381 260.867,327.504 L254.942,330.927" id="Fill-70" fill="#A4BDD7"></path>
            <path d="M288.618,322.095 C288.404,322.219 287.97,322.169 287.644,321.981 L278.708,316.825 C278.386,316.639 278.297,316.386 278.511,316.263 L284.434,312.841 C284.649,312.717 285.086,312.768 285.408,312.954 L294.343,318.111 C294.669,318.299 294.756,318.549 294.541,318.673 L288.618,322.095" id="Fill-71" fill="#A4BDD7"></path>
            <path d="M300.876,329.163 C300.662,329.287 300.224,329.235 299.902,329.049 L290.96,323.889 C290.641,323.705 290.55,323.452 290.764,323.328 L296.688,319.906 C296.902,319.782 297.34,319.834 297.66,320.019 L306.602,325.179 C306.924,325.365 307.014,325.617 306.799,325.741 L300.876,329.163" id="Fill-72" fill="#A4BDD7"></path>
            <path d="M313.182,336.265 C312.969,336.389 312.537,336.341 312.214,336.154 L303.272,330.994 C302.952,330.809 302.864,330.557 303.078,330.434 L309.001,327.012 C309.216,326.888 309.651,326.939 309.971,327.124 L318.913,332.284 C319.236,332.471 319.32,332.719 319.106,332.843 L313.182,336.265" id="Fill-73" fill="#A4BDD7"></path>
            <path d="M325.499,343.373 C325.285,343.496 324.847,343.445 324.526,343.259 L315.589,338.102 C315.265,337.915 315.178,337.664 315.392,337.54 L321.315,334.118 C321.53,333.994 321.965,334.045 322.289,334.232 L331.225,339.389 C331.547,339.574 331.637,339.827 331.422,339.951 L325.499,343.373" id="Fill-74" fill="#A4BDD7"></path>
            <path d="M337.806,350.475 C337.592,350.599 337.162,350.551 336.838,350.364 L327.898,345.206 C327.574,345.018 327.487,344.767 327.701,344.643 L333.624,341.221 C333.839,341.097 334.274,341.148 334.598,341.335 L343.537,346.494 C343.861,346.681 343.944,346.929 343.729,347.053 L337.806,350.475" id="Fill-75" fill="#A4BDD7"></path>
            <path d="M350.125,357.578 C349.911,357.702 349.473,357.65 349.155,357.467 L340.21,352.305 C339.891,352.12 339.804,351.869 340.018,351.746 L345.941,348.324 C346.156,348.2 346.59,348.25 346.91,348.434 L355.855,353.596 C356.173,353.78 356.263,354.032 356.048,354.156 L350.125,357.578" id="Fill-76" fill="#A4BDD7"></path>
            <path d="M362.437,364.683 C362.223,364.807 361.787,364.756 361.464,364.57 L352.524,359.411 C352.2,359.224 352.111,358.971 352.325,358.848 L358.248,355.426 C358.463,355.302 358.9,355.354 359.223,355.54 L368.164,360.7 C368.486,360.886 368.575,361.137 368.36,361.261 L362.437,364.683" id="Fill-77" fill="#A4BDD7"></path>
            <path d="M374.745,371.786 C374.531,371.91 374.097,371.86 373.778,371.676 L364.83,366.513 C364.512,366.329 364.426,366.078 364.64,365.954 L370.563,362.533 C370.778,362.408 371.212,362.459 371.53,362.642 L380.477,367.806 C380.797,367.99 380.883,368.24 380.668,368.364 L374.745,371.786" id="Fill-78" fill="#A4BDD7"></path>
            <path d="M381.905,378.052 C381.757,377.966 381.574,377.902 381.381,377.88 C381.192,377.858 381.04,377.882 380.941,377.94 L375.015,381.363 C374.916,381.42 374.87,381.51 374.908,381.62 C374.95,381.729 375.056,381.837 375.204,381.922 L377.539,383.269 L369.769,387.758 C369.668,387.816 369.629,387.908 369.668,388.016 C369.706,388.125 369.816,388.231 369.967,388.318 L375.991,391.794 C376.143,391.882 376.326,391.946 376.517,391.969 C376.707,391.993 376.863,391.968 376.964,391.91 L391.049,383.773 C391.149,383.716 391.189,383.627 391.148,383.517 C391.11,383.405 390.999,383.3 390.847,383.212 L381.905,378.052" id="Fill-79" fill="#A4BDD7"></path>
            <path d="M83.919,356.861 C91.354,366.927 98.778,377.1 106.979,386.564 C110.998,391.203 115.599,396.386 121.664,398.241 C129.804,400.731 137.709,395.918 140.16,388.008 C141.249,384.496 141.179,380.598 141.388,376.948 C141.435,376.125 141.51,375.302 141.559,374.479 C141.761,371.079 140.778,377.615 141.473,375.015 C141.644,374.375 141.777,373.7 141.915,373.051 C142.667,369.521 140.725,375.162 141.752,373.289 C143.233,370.588 139.544,375.599 141.284,373.895 C142.59,372.615 138.278,376.01 139.844,375.03 C140.783,374.443 142.372,374.169 138.166,375.685 C141.021,374.656 135.974,375.42 137.313,375.686 C139.714,376.163 142.725,375.737 145.157,375.592 C168.011,374.224 188.816,364.255 208,352.393 C217.003,346.827 225.714,340.762 234.913,335.515 C236.934,334.362 238.981,333.25 241.076,332.236 C241.914,331.829 242.763,331.449 243.61,331.062 C240.302,332.572 243.903,331.004 244.626,330.761 C246.409,330.161 248.2,329.796 250.03,329.392 C246.318,330.212 248.483,329.524 249.544,329.581 C250.59,329.637 253.925,330.03 249.618,329.371 C256.458,330.418 263.411,327.641 265.398,320.412 C267.066,314.34 263.328,305.687 256.438,304.633 C238.737,301.924 223.388,312.123 209.117,321.28 C200.801,326.616 192.53,332.036 183.876,336.817 C173.934,342.309 167.223,345.45 156.346,348.129 C150.789,349.497 148.871,349.796 143.797,350.006 C139.747,350.174 135.704,349.701 131.73,350.827 C124.809,352.788 119.987,358.109 117.668,364.758 C116.311,368.65 115.969,372.852 115.733,376.948 C115.65,378.399 115.543,379.861 115.504,381.313 C115.423,384.296 115.95,379.008 115.729,379.938 C115.092,382.614 116.198,379.156 116.458,378.714 C118.047,376.014 121.918,373.274 126.149,373.288 C130.126,373.301 130.005,373.986 128.722,373.593 C132.627,374.787 131.744,374.958 130.464,374.209 C128.862,373.271 131.327,373.753 131.755,375.246 C131.648,374.873 130.503,374.146 130.206,373.867 C129.22,372.942 128.291,371.955 127.375,370.961 C119.132,362.014 113.284,353.678 106.072,343.912 C101.962,338.348 94.955,335.547 88.521,339.311 C83.033,342.521 79.78,351.256 83.919,356.861" id="Fill-80" fill="#EFA37E"></path>
            <path d="M475.86,413.206 C466.25,418.758 450.61,418.731 440.94,413.145 C431.26,407.56 431.21,398.531 440.83,392.98 C450.44,387.428 466.07,387.455 475.75,393.04 C485.42,398.625 485.47,407.654 475.86,413.206" id="Fill-81" fill="#A4BDD7"></path>
            <path d="M608.48,444.08 C600.04,448.964 586.31,448.95 577.82,444.05 C569.34,439.149 569.3,431.217 577.74,426.333 C586.18,421.449 599.91,421.462 608.4,426.363 C616.89,431.264 616.92,439.196 608.48,444.08" id="Fill-82" fill="#A4BDD7"></path>
            <path d="M465.86,410.611 C457.36,415.518 443.54,415.493 434.99,410.556 C426.44,405.618 426.4,397.638 434.89,392.732 C443.39,387.826 457.21,387.851 465.77,392.788 C474.32,397.725 474.36,405.705 465.86,410.611" id="Fill-83" fill="#7777AB"></path>
            <polyline id="Fill-84" fill="#7777AB" points="468.56 402.088 428.55 401.938 428.55 366.305 468.56 366.638 468.56 402.088"></polyline>
            <path d="M460.32,366.454 L460.32,399.016 L460.28,400.279 C460.31,405.77 457.48,406.729 453.21,409.192 C450.65,410.669 447.5,412.308 444.27,412.892 C451.76,414.242 460.19,412.294 466.1,408.883 C470.37,406.42 472.45,404.508 472.42,399.016 L472.4,399.016 L472.27,366.718 L460.32,366.454" id="Fill-85" fill="#6C6CA3"></path>
            <path d="M465.86,375.578 C457.36,380.484 443.54,380.459 434.99,375.522 C426.44,370.585 426.4,362.605 434.89,357.698 C443.39,352.792 457.21,352.817 465.77,357.754 C474.32,362.691 474.36,370.671 465.86,375.578" id="Fill-86" fill="#AEAAC9"></path>
            <path d="M463.28,373.824 C456.26,377.879 444.84,377.859 437.77,373.778 C430.7,369.697 430.67,363.102 437.69,359.047 C444.71,354.992 456.14,355.013 463.2,359.093 C470.27,363.174 470.31,369.769 463.28,373.824" id="Fill-87" fill="#9C99BF"></path>
            <path d="M463.2,365.44 C456.14,361.36 444.71,361.339 437.69,365.394 C435.6,366.599 434.16,368.029 433.31,369.55 C434.17,371.094 435.64,372.551 437.77,373.778 C444.84,377.859 456.26,377.879 463.28,373.824 C465.37,372.62 466.82,371.189 467.66,369.668 C466.81,368.124 465.33,366.667 463.2,365.44" id="Fill-88" fill="#515073"></path>
            <path d="M437.69,373.824 C435.6,372.62 434.16,371.189 433.31,369.668 C433.8,368.785 434.5,367.932 435.4,367.133 C441.51,366.111 448.35,366.977 453.14,369.743 C455.22,370.948 456.67,372.378 457.51,373.899 C457.9,374.575 458.17,375.232 458.28,375.862 C457.22,376.119 456.25,376.321 455.42,376.434 C449.32,377.456 442.48,376.59 437.69,373.824" id="Fill-89" fill="#66638A"></path>
            <path d="M464.61,381.617 C467.73,383.26 471.17,384.434 472.34,388.181 C473.1,390.633 472.53,394.324 472.53,396.876 C472.52,399.014 473.16,404.442 470.69,404.478 C469.41,404.497 467.09,402.781 465.93,402.177 C464.21,401.289 462.7,403.877 464.41,404.768 C466.48,405.839 469.73,408.228 472.21,407.866 C475.31,407.413 475.4,403.983 475.47,401.568 C475.59,396.936 476.42,390.918 475.2,386.414 C474.11,382.373 469.48,380.793 466.12,379.027 C464.41,378.129 462.9,380.718 464.61,381.617" id="Fill-90" fill="#3F3E5B"></path>
            <path d="M81.894,332.075 C73.609,341.036 73.858,346.826 72.849,359.543 C71.862,371.977 79.217,383.123 90.946,387.045 L207.813,426.123 C207.813,426.123 240.5,380.685 202.133,364.194 C182.175,355.616 168.665,343.763 153.712,333.385 C131.748,318.143 101.034,311.375 81.894,332.075" id="Fill-91" fill="#514E70"></path>
            <path d="M70.51,532.014 C62.696,529.233 64.843,420.915 74.112,346.838 L210.883,409.172 C198.774,473.278 198.815,521.932 204.212,598.342 L70.51,532.014" id="Fill-92" fill="#514E70"></path>
            <path d="M210.883,409.172 L188.181,399.043 C174.371,464.192 171.657,511.455 181.67,584.866 L181.292,584.757 C181.328,589.008 178.123,593.626 171.873,597.299 C160.737,603.843 177.054,607.168 188.189,600.623 L217.145,543.591 C210.883,480.88 195.359,494.182 210.883,409.172" id="Fill-93" fill="#40405B"></path>
            <path d="M285.174,566.749 L189.858,625.108 C174.421,634.56 162.488,630.124 163.341,615.25 L164.161,600.961 C165.015,586.087 178.344,566.184 193.781,556.732 L289.097,498.373 C304.534,488.921 316.467,493.357 315.614,508.231 L314.794,522.52 C313.941,537.394 300.612,557.297 285.174,566.749" id="Fill-94" fill="#C73D6B"></path>
            <path d="M22.838,528.979 L8.1,395.85 C5.232,376.48 22.162,371.176 44.766,384.363 L135.159,437.097 C151.445,446.598 166.428,463.364 172.618,479.013 L206.805,565.442 C216.605,590.219 183.418,630.586 160.6,616.952 L22.838,528.979" id="Fill-95" fill="#C73D6B"></path>
            <path d="M383.795,440.663 L365.808,452.99 C359.177,457.533 350.034,455.827 345.49,449.196 C340.944,442.565 342.651,433.421 349.283,428.876 L367.27,416.55 C373.901,412.006 383.044,413.713 387.588,420.343 C392.134,426.974 390.427,436.118 383.795,440.663" id="Fill-96" fill="#3F3E5B"></path>
            <path d="M210.399,412.748 C221.008,422.244 230.502,432.646 239.901,443.311 C246.526,450.828 253.52,457.845 263.038,461.513 C285.826,470.297 311.333,455.054 331.086,445.142 C344.813,438.255 356.088,431.91 370.217,428.415 C386.236,424.452 379.451,399.705 363.397,403.676 C351.073,406.725 339.401,412.436 328.064,418.03 C322.11,420.967 316.201,423.995 310.241,426.922 C307.459,428.288 304.668,429.634 301.853,430.931 C298.444,432.502 297.525,432.916 295.013,433.901 C290.268,435.762 285.468,437.232 280.477,438.261 C278.171,438.736 282.41,438.35 279.459,438.303 C278.499,438.287 277.537,438.356 276.574,438.328 C275.524,438.298 274.485,438.168 273.438,438.108 C275.861,438.246 274.772,438.295 273.189,437.885 C272.335,437.663 271.43,437.199 270.573,437.059 C272.204,437.326 272.492,438.05 270.845,437.09 C270.179,436.702 269.502,436.341 268.851,435.925 C267.503,435.065 266.464,433.728 268.241,435.582 C265.369,432.585 262.241,429.89 259.459,426.772 C249.514,415.626 239.695,404.592 228.539,394.608 C223.379,389.989 215.488,389.518 210.399,394.608 C205.701,399.306 205.216,408.11 210.399,412.748" id="Fill-97" fill="#EFA37E"></path>
            <path d="M186.435,401 L235.542,448.911 C251.5,460.6 272.467,431.212 260.092,420.5 L212.281,370.457 C204.341,363.641 193.612,363.677 187.467,370.54 C181.062,377.694 179.036,392.85 186.435,401" id="Fill-98" fill="#514E70"></path>
            <path d="M228.113,441.528 C241.699,437.029 250.992,429.421 255.331,415.388 C256.926,410.228 248.846,408.022 247.257,413.162 C243.806,424.326 236.618,429.901 225.887,433.455 C220.797,435.141 222.978,443.229 228.113,441.528" id="Fill-99" fill="#FFFEFE"></path>
            <path d="M304.996,259 L304.979,259 C304.977,258 304.686,257.947 304.059,257.585 L280.889,244.178 C279.501,243.376 277.076,243.461 275.474,244.387 L233.526,268.598 C232.69,269.08 232.253,269.687 232.213,270.275 L232.2,270.265 L232.27,272.585 L232.283,272.596 C232.075,273.247 232.34,273.905 233.137,274.365 L256.308,287.742 C257.002,288.143 257.955,288.318 258.935,288.277 C259.915,288.237 260.922,287.98 261.723,287.518 L303.67,263.299 C304.522,262.808 304.957,262.183 304.982,261.585 L304.991,261.643 L304.996,259" id="Fill-100" fill="#A4BDD7"></path>
            <g id="Group-103" transform="translate(228.000000, 268.000000)">
                <mask id="mask-2" fill="white">
                    <use xlink:href="#path-1"></use>
                </mask>
                <g id="Clip-102"></g>
                <path d="M0.858,2.378 L0.788,0.057 L3.784,1.994 C3.784,1.994 2.942,4.1 2.85,4.027 C2.759,3.954 0.858,2.378 0.858,2.378" id="Fill-101" mask="url(#mask-2)"></path>
            </g>
            <g id="Group-106" transform="translate(228.000000, 244.000000)">
                <mask id="mask-4" fill="white">
                    <use xlink:href="#path-3"></use>
                </mask>
                <g id="Clip-105"></g>
                <path d="M24.896,41.536 L1.725,28.159 C0.337,27.357 0.511,25.957 2.114,25.032 L44.061,0.814 C45.664,-0.112 48.088,-0.212 49.476,0.589 L72.647,13.967 C74.035,14.768 73.861,16.168 72.258,17.093 L30.311,41.311 C28.708,42.237 26.284,42.337 24.896,41.536" id="Fill-104" mask="url(#mask-4)"></path>
            </g>
            <path d="M255.418,272.679 L272.061,244.814 C273.664,243.888 276.088,243.788 277.476,244.589 L300.647,257.967 C302.035,258.768 301.861,260.168 300.258,261.093 L258.311,285.311 C257.509,285.774 256.502,286.031 255.523,286.071 L255.418,272.679" id="Fill-107" fill="#B0CADF"></path>
            <polyline id="Fill-108" fill="#89A8CA" points="273.672 263.438 277.925 257.665 301.584 256.671 301.578 259.376 275.723 267.615 273.672 263.438"></polyline>
            <path d="M232.086,271.973 C232.086,272.375 231.802,272.538 231.451,272.335 C231.1,272.132 230.816,271.642 230.816,271.239 C230.816,270.837 231.1,270.675 231.451,270.877 C231.802,271.08 232.086,271.57 232.086,271.973" id="Fill-109" fill="#3F3E5B"></path>
            <path d="M252.896,282.888 L229.725,269.51 C228.337,268.709 228.511,267.309 230.114,266.384 L272.061,242.165 C273.664,241.24 276.088,241.14 277.476,241.941 L300.647,255.318 C302.035,256.12 301.861,257.519 300.258,258.445 L258.311,282.663 C256.708,283.588 254.284,283.689 252.896,282.888" id="Fill-110" fill="#3F3E5B"></path>
            <path d="M289.839,251.386 L283.441,247.693 C283.177,247.54 283.21,247.272 283.515,247.096 C283.82,246.92 284.285,246.901 284.549,247.053 L290.946,250.747 C291.21,250.899 291.177,251.168 290.872,251.343 C290.567,251.519 290.102,251.539 289.839,251.386" id="Fill-111" fill="#515073"></path>
            <path d="M243.38,279.2 L238.241,276.233 C238.023,276.107 237.845,275.767 237.845,275.477 C237.845,275.187 238.023,275.052 238.241,275.178 L243.38,278.144 C243.597,278.27 243.775,278.61 243.775,278.901 C243.775,279.191 243.597,279.325 243.38,279.2" id="Fill-112" fill="#3F3E5B"></path>
            <path d="M294.29,263.343 L296.82,261.882 C296.97,261.795 297.093,261.56 297.093,261.36 C297.093,261.16 296.97,261.067 296.82,261.154 L294.29,262.615 C294.14,262.701 294.017,262.936 294.017,263.136 C294.017,263.336 294.14,263.429 294.29,263.343" id="Fill-113" fill="#515073"></path>
            <path d="M290.701,265.596 L293.232,264.135 C293.382,264.049 293.505,263.814 293.505,263.614 C293.505,263.414 293.382,263.321 293.232,263.408 L290.701,264.868 C290.551,264.955 290.428,265.19 290.428,265.39 C290.428,265.59 290.551,265.683 290.701,265.596" id="Fill-114" fill="#515073"></path>
            <path d="M246.213,274.497 C245.141,275.116 243.396,275.113 242.316,274.49 C241.236,273.867 241.231,272.859 242.304,272.24 C243.377,271.62 245.122,271.623 246.201,272.247 C247.281,272.87 247.286,273.878 246.213,274.497" id="Fill-115" fill="#515073"></path>
            <path d="M273.367,243.551 L238.094,263.916 C237.272,264.391 237.272,265.576 238.094,266.051 L259.509,278.415 C259.891,278.635 260.36,278.635 260.742,278.415 L296.015,258.05 C296.837,257.576 296.837,256.39 296.015,255.916 L274.599,243.551 C274.218,243.331 273.749,243.331 273.367,243.551" id="Fill-116" fill="#9BC1DD"></path>
            <path d="M598.04,439.195 C588.71,444.581 573.54,444.553 564.15,439.134 C554.76,433.715 554.72,424.955 564.04,419.57 C573.37,414.184 588.54,414.212 597.93,419.631 C607.32,425.05 607.36,433.81 598.04,439.195" id="Fill-117" fill="#829DB3"></path>
            <polyline id="Fill-118" fill="#829DB3" points="545.88 395.786 557.15 430.352 604.83 431.135 615.71 397.821 545.88 395.786"></polyline>
            <path d="M602.17,398 L591.28,432 C590.66,434 588.4,437.382 584.49,439.64 C581.66,441.273 578.29,442.268 574.72,442.882 C582.77,444.236 591.73,443.336 598.04,439.698 C601.95,437.439 604.2,434 604.82,432 L604.83,432 L615.71,398 L602.17,398" id="Fill-119" fill="#718C9E"></path>
            <path d="M606.15,408.084 C592.37,416.04 569.95,415.999 556.09,407.993 C542.22,399.987 542.15,387.047 555.93,379.091 C569.71,371.135 592.12,371.176 605.99,379.182 C619.86,387.188 619.93,400.128 606.15,408.084" id="Fill-120" fill="#90ADC2"></path>
            <path d="M602.35,405.37 C590.52,412.2 571.28,412.165 559.38,405.293 C547.47,398.421 547.41,387.313 559.24,380.484 C571.07,373.655 590.31,373.69 602.21,380.562 C614.12,387.434 614.18,398.541 602.35,405.37" id="Fill-121" fill="#2C2E46"></path>
            <path d="M557.6,385.923 L557.6,385.923 C556.13,383.994 554.82,381.821 554.58,379.408 C554.33,376.994 555.41,374.311 557.62,373.313 C560.19,372.153 563.24,373.598 565.23,375.591 C567.22,377.584 568.64,380.122 570.79,381.943 C568.04,373.222 565.28,364.502 562.53,355.781 C561.69,353.134 560.84,350.343 561.41,347.624 C561.97,344.905 564.48,342.374 567.22,342.823 C572.48,343.687 571.71,352.595 576.39,355.149 C572.98,348.664 570.64,341.616 569.5,334.378 C568.83,330.145 568.61,325.609 570.52,321.772 C572.43,317.935 577.09,315.185 581.1,316.707 C586.05,318.59 587.02,325.061 587.2,330.36 C587.43,337.178 587.65,343.996 587.88,350.813 C589.55,343.986 592.14,336.109 598.81,333.892 C600.63,343.245 599.24,353.191 594.93,361.688 C596.7,358.586 600.14,356.514 603.71,356.41 C605.39,365.948 602.13,376.224 595.25,383.043 C597.15,380.934 599.04,378.825 600.94,376.717 C602.64,383.325 600.33,390.8 595.21,395.308 C583.21,405.867 565.75,396.616 557.6,385.923" id="Fill-122" fill="#5BBBA4"></path>
            <path d="M325.827,268.393 L500.58,371.558 C501.8,372.281 503.39,372.248 504.73,371.471 L517.35,364.184 C520.25,362.511 520.58,358.473 517.94,356.916 L343.188,253.751 C341.964,253.029 340.382,253.062 339.037,253.839 L326.416,261.126 C323.517,262.799 323.19,266.837 325.827,268.393" id="Fill-123" fill="#A4BDD7"></path>
            <polyline id="Fill-124" fill="#86A4BF" points="508.17 363.169 517.82 356.597 491.45 324.124 500.72 339.511 508.17 363.169"></polyline>
            <path d="M311.9,82.026 L321.249,74.486 L341.941,97.686 C341.941,97.686 328.745,107.392 327.546,107.392 C326.346,107.392 311.9,82.026 311.9,82.026" id="Fill-125" fill="#B2C9DC"></path>
            <path d="M385.392,349.334 L345.974,326.576 C342.811,324.75 342.904,321.78 346.178,320.043 L401.845,290.521 C404.929,288.886 409.714,288.953 412.694,290.673 L448.14,311.14 C451.15,312.874 451.24,315.662 448.35,317.439 L396.65,349.251 C393.631,351.109 388.531,351.146 385.392,349.334" id="Fill-126" fill="#86A4BF"></path>
            <g id="Group-129" transform="translate(343.000000, 297.000000)">
                <mask id="mask-6" fill="white">
                    <use xlink:href="#path-5"></use>
                </mask>
                <g id="Clip-128"></g>
                <path d="M47.966,48.334 C45.954,48.334 43.936,47.89 42.392,46.998 L2.974,24.24 C2.676,24.068 2.406,23.885 2.166,23.695 C-0.143,21.864 0.213,19.28 3.178,17.708 L36.371,0.104 L33.581,1.584 L81.72,29.643 L53.65,46.915 C52.116,47.859 50.044,48.334 47.966,48.334" id="Fill-127" mask="url(#mask-6)"></path>
            </g>
            <polyline id="Fill-130" fill="#7E91AE" points="379.371 297.104 385.574 293.815 379.371 297.104"></polyline>
            <polyline id="Fill-131" fill="#697E9A" points="424.89 326.741 424.72 326.643 433.46 321.266 433.63 321.363 424.89 326.741"></polyline>
            <g id="Group-134" transform="translate(376.000000, 293.000000)">
                <mask id="mask-8" fill="white">
                    <use xlink:href="#path-7"></use>
                </mask>
                <g id="Clip-133"></g>
                <polyline id="Fill-132" mask="url(#mask-8)" points="48.72 33.643 0.581 5.584 3.371 4.104 9.574 0.815 57.46 28.266 48.72 33.643"></polyline>
            </g>
            <path d="M515.77,185.938 L515.51,186 L515.57,186 L325.307,75.745 L323.538,74.605 C322.088,73.762 320.328,74.729 320.328,76.526 L321.93,77 L323,77 L323,252.041 C323,253.993 323.745,256.34 325.32,257.256 C325.32,257.256 517.79,350.817 517.79,348.865 L518,190.815 L518,190.531 C518,188.735 517.21,186.781 515.77,185.938" id="Fill-135" fill="#B2C9DC"></path>
            <path d="M437.16,254.192 C461.89,229.32 475.82,299.901 491.45,338.592 C499.29,357.995 517.71,356.796 517.71,356.796 L518,191.853 L518,191.098 C518,190.123 517.93,188.717 517.45,187.795 L437.16,254.192" id="Fill-136" fill="#86A4BF"></path>
            <g id="Group-139" transform="translate(311.000000, 195.000000)">
                <mask id="mask-10" fill="white">
                    <use xlink:href="#path-9"></use>
                </mask>
                <g id="Clip-138"></g>
                <path d="M196.75,168.504 C196.36,168.504 195.92,168.379 195.46,168.114 L122.63,126.363 L122.46,126.266 L3.117,57.851 C1.53,56.941 0.231,54.717 0.231,52.909 L0.234,31.527 C0.713,32.645 1.533,33.677 2.459,34.211 L195.59,145.714 C196.01,145.956 196.4,146.07 196.76,146.07 C197.64,146.07 198.24,145.361 198.24,144.143 L197.93,3.295 C197.93,2.241 197.47,1.041 196.78,0.079 C197.72,1.162 198.37,2.649 198.37,3.928 L198.35,150.412 L198.35,156.843 L198.34,166.481 C198.34,167.762 197.69,168.504 196.75,168.504" id="Fill-137" mask="url(#mask-10)"></path>
            </g>
            <path d="M506.59,340.714 L313.459,229.211 C311.995,228.367 310.795,226.277 310.791,224.569 L310.482,83.721 C310.478,82.012 311.672,81.305 313.135,82.15 L506.26,193.652 C507.73,194.497 508.93,196.586 508.93,198.295 L509.24,339.143 C509.24,340.851 508.05,341.558 506.59,340.714" id="Fill-140" fill="#3F3E5B"></path>
            <polyline id="Fill-141" fill="#9BC1DD" points="499.21 321.668 317.501 216.759 317.894 94.647 499.6 199.556 499.21 321.668"></polyline>
            <path d="M454.87,200.222 L356.073,143.181 C354.624,142.345 353.45,140.102 353.45,138.17 C353.45,136.239 354.624,135.352 356.073,136.188 L454.87,193.229 C456.32,194.065 457.49,196.309 457.49,198.24 C457.49,200.171 456.32,201.059 454.87,200.222" id="Fill-142" fill="#6A678D"></path>
            <path d="M455.9,232.142 L376.332,186.203 C374.884,185.367 373.709,183.123 373.709,181.192 C373.709,179.26 374.883,178.373 376.332,179.209 L455.9,225.148 C457.35,225.984 458.52,228.228 458.52,230.159 C458.52,232.091 457.35,232.979 455.9,232.142" id="Fill-143" fill="#C73D6B"></path>
            <path d="M455.9,249.578 L429.59,234.385 C428.14,233.548 426.96,231.305 426.96,229.373 C426.96,227.442 428.14,226.554 429.59,227.391 L455.9,242.584 C457.35,243.42 458.52,245.664 458.52,247.595 C458.52,249.526 457.35,250.414 455.9,249.578" id="Fill-144" fill="#6A678D"></path>
            <path d="M390.226,211.66 L377.487,204.305 C376.038,203.469 374.864,201.225 374.864,199.294 C374.864,197.363 376.038,196.475 377.487,197.311 L390.226,204.666 C391.674,205.502 392.849,207.746 392.849,209.677 C392.849,211.609 391.674,212.496 390.226,211.66" id="Fill-145" fill="#6A678D"></path>
            <path d="M374.306,220.988 L357.489,211.279 C356.041,210.442 354.867,208.199 354.867,206.267 C354.867,204.336 356.041,203.449 357.489,204.285 L374.306,213.994 C375.754,214.83 376.929,217.074 376.929,219.005 C376.929,220.936 375.754,221.824 374.306,220.988" id="Fill-146" fill="#6A678D"></path>
            <path d="M401.347,254.183 L357.49,228.862 C356.041,228.026 354.867,225.782 354.867,223.851 C354.867,221.919 356.041,221.032 357.49,221.868 L401.347,247.189 C402.795,248.026 403.97,250.269 403.97,252.2 C403.97,254.132 402.795,255.019 401.347,254.183" id="Fill-147" fill="#C73D6B"></path>
            <path d="M455.39,267.799 L387.02,228.328 C385.571,227.492 384.397,225.248 384.397,223.317 C384.397,221.386 385.571,220.498 387.02,221.334 L455.39,260.805 C456.83,261.642 458.01,263.885 458.01,265.817 C458.01,267.748 456.83,268.636 455.39,267.799" id="Fill-148" fill="#6A678D"></path>
            <path d="M416.992,227.114 L405.968,220.749 C404.519,219.912 403.345,217.669 403.345,215.738 C403.345,213.806 404.519,212.919 405.968,213.755 L416.992,220.12 C418.44,220.956 419.62,223.2 419.62,225.131 C419.62,227.063 418.44,227.95 416.992,227.114" id="Fill-149" fill="#6A678D"></path>
            <path d="M403.766,184.902 L376.332,169.063 C374.883,168.227 373.709,165.983 373.709,164.052 C373.709,162.12 374.883,161.233 376.332,162.069 L403.766,177.909 C405.215,178.745 406.389,180.988 406.389,182.92 C406.389,184.851 405.215,185.739 403.766,184.902" id="Fill-150" fill="#6A678D"></path>
            <path d="M421.19,194.962 L413.491,190.517 C412.042,189.68 410.868,187.437 410.868,185.506 C410.868,183.574 412.042,182.686 413.491,183.523 L421.19,187.969 C422.64,188.805 423.81,191.049 423.81,192.98 C423.81,194.911 422.64,195.799 421.19,194.962" id="Fill-151" fill="#C73D6B"></path>
            <path d="M366.439,236.721 L324.032,214.688 L386.097,191.841 L426.52,215.18 L415.365,219.18 L405.968,213.755 C405.598,213.541 405.246,213.44 404.927,213.44 C403.996,213.44 403.345,214.3 403.345,215.738 C403.345,217.669 404.519,219.912 405.968,220.749 L407.892,221.86 L395.577,226.275 L387.02,221.334 C386.65,221.121 386.298,221.019 385.978,221.019 C385.048,221.019 384.397,221.879 384.397,223.317 C384.397,225.248 385.571,227.492 387.02,228.328 L388.104,228.954 L376.788,233.01 L357.49,221.868 C357.119,221.654 356.767,221.553 356.448,221.553 C355.518,221.553 354.867,222.413 354.867,223.851 C354.867,225.782 356.041,228.026 357.49,228.862 L369.315,235.69 L366.439,236.721 M356.448,203.97 C355.518,203.97 354.867,204.83 354.867,206.267 C354.867,208.199 356.041,210.442 357.489,211.279 L374.306,220.988 C374.676,221.201 375.028,221.302 375.347,221.302 C376.277,221.302 376.929,220.443 376.929,219.005 C376.929,217.074 375.754,214.83 374.306,213.994 L357.489,204.285 C357.119,204.071 356.767,203.97 356.448,203.97 M376.445,196.997 C375.515,196.997 374.864,197.856 374.864,199.294 C374.864,201.225 376.038,203.469 377.487,204.305 L390.226,211.66 C390.596,211.874 390.948,211.975 391.267,211.975 C392.197,211.975 392.849,211.115 392.849,209.677 C392.849,207.746 391.674,205.502 390.226,204.666 L377.487,197.311 C377.116,197.098 376.764,196.997 376.445,196.997 M434,212.501 L393.495,189.118 L404.303,185.139 C404.478,185.192 404.647,185.217 404.807,185.217 C405.31,185.217 405.73,184.967 406.011,184.51 L419.23,179.645 L454.87,200.222 C455.24,200.436 455.59,200.537 455.91,200.537 C456.84,200.537 457.49,199.678 457.49,198.24 C457.49,196.309 456.32,194.065 454.87,193.229 L426.63,176.922 L440.16,171.941 L482.04,195.277 L434,212.501 M412.449,183.208 C411.519,183.208 410.868,184.067 410.868,185.506 C410.868,187.437 412.042,189.68 413.491,190.517 L421.19,194.962 C421.56,195.176 421.91,195.277 422.23,195.277 C423.16,195.277 423.81,194.418 423.81,192.98 C423.81,191.049 422.64,188.805 421.19,187.969 L413.491,183.523 C413.121,183.309 412.769,183.208 412.449,183.208" id="Fill-152" fill="#B6D3E5"></path>
            <path d="M455.91,200.537 C455.59,200.537 455.24,200.436 454.87,200.222 L419.23,179.645 L426.63,176.922 L454.87,193.229 C456.32,194.065 457.49,196.309 457.49,198.24 C457.49,199.678 456.84,200.537 455.91,200.537" id="Fill-153" fill="#8F8FA9"></path>
            <polyline id="Fill-154" fill="#D66E90" points="426.52 215.18 386.097 191.841 393.495 189.118 434 212.501 426.52 215.18"></polyline>
            <path d="M391.267,211.975 C390.948,211.975 390.596,211.874 390.226,211.66 L377.487,204.305 C376.038,203.469 374.864,201.225 374.864,199.294 C374.864,197.856 375.515,196.997 376.445,196.997 C376.764,196.997 377.116,197.098 377.487,197.311 L390.226,204.666 C391.674,205.502 392.849,207.746 392.849,209.677 C392.849,211.115 392.197,211.975 391.267,211.975" id="Fill-155" fill="#8F8FA9"></path>
            <path d="M375.347,221.302 C375.028,221.302 374.676,221.201 374.306,220.988 L357.489,211.279 C356.041,210.442 354.867,208.199 354.867,206.267 C354.867,204.83 355.518,203.97 356.448,203.97 C356.767,203.97 357.119,204.071 357.489,204.285 L374.306,213.994 C375.754,214.83 376.929,217.074 376.929,219.005 C376.929,220.443 376.277,221.302 375.347,221.302" id="Fill-156" fill="#8F8FA9"></path>
            <path d="M369.315,235.69 L357.49,228.862 C356.041,228.026 354.867,225.782 354.867,223.851 C354.867,222.413 355.518,221.553 356.448,221.553 C356.767,221.553 357.119,221.654 357.49,221.868 L376.788,233.01 L369.315,235.69" id="Fill-157" fill="#D66E90"></path>
            <path d="M388.104,228.954 L387.02,228.328 C385.571,227.492 384.397,225.248 384.397,223.317 C384.397,221.879 385.048,221.019 385.978,221.019 C386.298,221.019 386.65,221.121 387.02,221.334 L395.577,226.275 L388.104,228.954" id="Fill-158" fill="#8F8FA9"></path>
            <path d="M407.892,221.86 L405.968,220.749 C404.519,219.912 403.345,217.669 403.345,215.738 C403.345,214.3 403.996,213.44 404.927,213.44 C405.246,213.44 405.598,213.541 405.968,213.755 L415.365,219.18 L407.892,221.86" id="Fill-159" fill="#8F8FA9"></path>
            <path d="M404.807,185.217 C404.647,185.217 404.478,185.192 404.303,185.139 L406.011,184.51 C405.73,184.967 405.31,185.217 404.807,185.217" id="Fill-160" fill="#8F8FA9"></path>
            <path d="M422.23,195.277 C421.91,195.277 421.56,195.176 421.19,194.962 L413.491,190.517 C412.042,189.68 410.868,187.437 410.868,185.506 C410.868,184.067 411.519,183.208 412.449,183.208 C412.769,183.208 413.121,183.309 413.491,183.523 L421.19,187.969 C422.64,188.805 423.81,191.049 423.81,192.98 C423.81,194.418 423.16,195.277 422.23,195.277" id="Fill-161" fill="#D66E90"></path>
            <path d="M325,205.073 L325,185.217 L374.805,167.528 C375.235,168.188 375.762,168.734 376.332,169.063 L395.884,180.352 L384.929,184.173 L376.332,179.209 C375.962,178.995 375.61,178.894 375.291,178.894 C374.36,178.894 373.709,179.754 373.709,181.192 C373.709,183.123 374.884,185.367 376.332,186.203 L377.377,186.806 L325,205.073 M403.436,177.718 L381.604,165.113 L389.315,162.374 L411.201,175.01 L403.436,177.718 M418.75,172.376 L396.815,159.711 L407.115,156.052 L430.71,168.205 L418.75,172.376" id="Fill-162" fill="#B6D3E5"></path>
            <polyline id="Fill-163" fill="#8F8FA9" points="411.201 175.01 389.315 162.374 396.815 159.711 418.75 172.376 411.201 175.01"></polyline>
            <path d="M377.377,186.806 L376.332,186.203 C374.884,185.367 373.709,183.123 373.709,181.192 C373.709,179.754 374.36,178.894 375.291,178.894 C375.61,178.894 375.962,178.995 376.332,179.209 L384.929,184.173 L377.377,186.806" id="Fill-164" fill="#D66E90"></path>
            <path d="M395.884,180.352 L376.332,169.063 C375.762,168.734 375.235,168.188 374.805,167.528 L381.604,165.113 L403.436,177.718 L395.884,180.352" id="Fill-165" fill="#8F8FA9"></path>
            <path d="M402.539,292.074 C402.539,296.24 399.595,297.918 395.965,295.822 C392.334,293.726 389.39,288.649 389.39,284.482 C389.39,280.316 392.334,278.638 395.965,280.734 C399.595,282.83 402.539,287.907 402.539,292.074" id="Fill-166" fill="#A4BDD7"></path>
            <path d="M175.379,269.846 C173.675,269.846 171.494,269.202 168.7,267.547 C156.038,260.046 157.283,243.578 157.283,243.578 C157.283,243.578 157.352,243.573 157.487,243.573 C158.971,243.573 168.42,244.126 181.513,257.394 L181.52,257.559 L181.46,261.798 C181.46,261.798 181.4,269.846 175.379,269.846" id="Fill-167" fill="#F6FBFC"></path>
            <path d="M157.919,244.23 C157.919,244.23 167.598,244.214 181.449,257.566 L181.374,261.371 C181.374,261.371 181.235,272.85 168.945,265.643 C156.655,258.435 157.919,244.23 157.919,244.23 Z M168.595,267.926 C185.114,277.613 185.3,262.158 185.3,262.158 L185.434,262.23 L185.198,256.956 C167.099,239.726 155.025,239.89 155.025,239.89 C155.025,239.89 152.077,258.239 168.595,267.926 L168.595,267.926 Z" id="Fill-168" fill="#442F44"></path>
            <polyline id="Fill-169" fill="#442F44" points="191.496 265.434 181.643 260.317 181.387 254.578 191.24 259.695 191.496 265.434"></polyline>
            <path d="M155.619,244.316 L153.874,243.409 C152.922,242.915 152.105,241.511 152.05,240.273 C151.995,239.036 152.722,238.433 153.674,238.928 L155.419,239.834 C156.371,240.329 157.188,241.733 157.243,242.97 C157.298,244.208 156.571,244.81 155.619,244.316" id="Fill-170" fill="#442F44"></path>
            <path d="M219.343,277.413 L217.598,276.507 C216.645,276.012 215.829,274.608 215.774,273.37 C215.719,272.133 216.446,271.53 217.397,272.025 L219.143,272.932 C220.095,273.426 220.911,274.83 220.967,276.068 C221.022,277.305 220.295,277.907 219.343,277.413" id="Fill-171" fill="#442F44"></path>
            <path d="M209.903,287.704 C208.775,287.704 207.43,287.394 205.829,286.68 C193.618,281.235 192.343,267.66 192.343,267.66 L191.891,263.128 C205.137,263.151 215.314,274.093 215.314,274.093 C215.314,274.093 217.371,287.705 209.903,287.704" id="Fill-172" fill="#F6FBFC"></path>
            <path d="M205.911,284.843 C193.696,279.322 192.503,267.151 192.503,267.151 L192.077,263.086 C205.365,263.829 215.505,274.139 215.505,274.139 C215.505,274.139 218.126,290.363 205.911,284.843 Z M218.14,272.672 C218.14,272.672 205.478,259.66 188.094,258.46 L188.329,263.733 L188.463,263.801 C188.463,263.801 190.069,280.186 206.486,287.606 C222.903,295.025 218.14,272.672 218.14,272.672 L218.14,272.672 Z" id="Fill-173" fill="#442F44"></path>
            <path d="M194.681,270.173 L194.681,270.173 C194.287,269.649 194.189,269.004 194.462,268.733 L197.645,265.566 C197.918,265.294 198.459,265.498 198.854,266.022 C199.248,266.546 199.346,267.191 199.073,267.463 L195.89,270.629 C195.617,270.901 195.076,270.697 194.681,270.173" id="Fill-174" fill="#FFFEFE"></path>
            <path d="M159.485,251.163 L159.485,251.163 C159.091,250.639 158.992,249.994 159.266,249.723 L162.449,246.556 C162.722,246.284 163.263,246.488 163.657,247.012 C164.052,247.536 164.15,248.181 163.877,248.452 L160.694,251.619 C160.421,251.891 159.88,251.687 159.485,251.163" id="Fill-175" fill="#FFFEFE"></path>
            <path d="M135.823,336.959 L143.971,291.196 L172.437,308.562 L165.954,350.186 C165.441,356.922 134.512,352.439 135.823,336.959" id="Fill-176" fill="#EFA37E"></path>
            <path d="M155.957,228.001 C155.957,228.001 129.316,209.404 126.919,251.833 C125.252,281.347 142.335,307.877 166.574,320.675 C181.668,328.644 201.032,320.425 202.623,305.769 C207.391,284.516 208.459,264.472 202.123,246.846 C204.041,229.173 191.223,234.837 169.68,232.582 L155.957,228.001" id="Fill-177" fill="#EFA37E"></path>
            <path d="M140.072,313.845 C138.099,311.633 136.018,309.515 133.445,308.042 C124.452,302.893 107.219,288.809 110.919,257.72 C116.285,212.623 155.953,221.472 180.952,217.605 C191.134,216.03 198.442,216.033 208.455,225.923 C217.562,234.918 207.659,253.584 193.917,254.119 C188.467,254.332 190.204,269.073 188.853,274.031 C186.45,282.848 180.675,286.923 178.179,295.462 C175.818,303.541 163.006,314.911 155.22,316.25 C145.995,317.837 141.894,315.89 140.072,313.845" id="Fill-178" fill="#3A271D"></path>
            <path d="M218.59,278.759 L180.051,280.478 C178.68,280.539 177.509,279.467 177.448,278.097 C177.387,276.726 178.458,275.555 179.829,275.494 L218.367,273.775 C219.738,273.714 220.909,274.786 220.971,276.156 C221.032,277.527 219.96,278.698 218.59,278.759" id="Fill-179" fill="#442F44"></path>
            <path d="M185.585,287.057 C185.834,294.245 181.861,300.217 176.711,300.396 C176.147,300.415 175.593,300.365 175.053,300.25 C170.652,299.313 167.157,294.105 166.935,287.702 C166.686,280.513 170.659,274.541 175.81,274.363 C180.96,274.185 185.336,279.868 185.585,287.057" id="Fill-180" fill="#EFA37E"></path>
            <path d="M184.956,354.899 C153.585,348.657 129.932,367.481 127.178,321.686 C132.135,319.051 137.986,320.715 140.625,325.315 C145.258,333.392 156.367,338.884 169.39,337.927 C173.288,337.64 176.88,339.572 178.632,342.897 L184.956,354.899" id="Fill-181" fill="#6A678D"></path>
            <path d="M440.91,509.023 L381.471,474.706 C380.739,474.284 380.739,473.226 381.471,472.803 L462.96,425.758 C463.3,425.562 463.72,425.562 464.06,425.758 L523.49,460.074 C524.23,460.497 524.23,461.555 523.49,461.977 L442.01,509.023 C441.67,509.219 441.25,509.219 440.91,509.023" id="Fill-182" fill="#CC3D6C"></path>
            <polygon id="Fill-183" fill="#CC3D6C" points="381 474 383 474 383 471 381 471"></polygon>
            <polygon id="Fill-184" fill="#CC3D6C" points="522 461 525 461 525 459 522 459"></polygon>
            <path d="M440.91,507.008 L381.471,472.691 C380.739,472.269 380.739,471.211 381.471,470.788 L462.96,423.743 C463.3,423.547 463.72,423.547 464.06,423.743 L523.49,458.059 C524.23,458.482 524.23,459.54 523.49,459.963 L442.01,507.008 C441.67,507.204 441.25,507.204 440.91,507.008" id="Fill-185" fill="#DE4371"></path>
            <path d="M500.3,543.194 L440.86,508.878 C440.13,508.455 440.13,507.398 440.86,506.975 L522.35,459.93 C522.69,459.733 523.11,459.733 523.45,459.93 L582.89,494.246 C583.62,494.669 583.62,495.726 582.89,496.149 L501.4,543.194 C501.06,543.391 500.64,543.391 500.3,543.194" id="Fill-186" fill="#CC3D6C"></path>
            <polygon id="Fill-187" fill="#CC3D6C" points="441 508 443 508 443 506 441 506"></polygon>
            <polygon id="Fill-188" fill="#CC3D6C" points="581 494 584 494 584 493 581 493"></polygon>
            <path d="M500.3,541.18 L440.86,506.863 C440.13,506.44 440.13,505.383 440.86,504.96 L522.35,457.915 C522.69,457.718 523.11,457.718 523.45,457.915 L582.89,492.231 C583.62,492.654 583.62,493.711 582.89,494.134 L501.4,541.18 C501.06,541.376 500.64,541.376 500.3,541.18" id="Fill-189" fill="#DE4371"></path>
            <path d="M402.15,478.357 L440.87,503.34 L464.37,484.637 C464.37,484.637 418.75,466.047 402.15,478.357" id="Fill-190" fill="#CC3D6C"></path>
            <g id="Group-193" transform="translate(387.000000, 457.000000)">
                <mask id="mask-12" fill="white">
                    <use xlink:href="#path-11"></use>
                </mask>
                <g id="Clip-192"></g>
                <path d="M54.2,45.665 C51.47,35.36 35.44,30.036 15.15,21.357 C10.58,19.402 5.794,17.278 0.894,14.887 C0.041,14.395 0.149,13.527 1.134,12.958 L9.322,8.231 C9.35,8.255 9.379,8.279 9.41,8.302 C33.17,23.427 56.63,30.942 54.2,45.665 L130.02,1.427 C130.04,1.281 130.05,1.136 130.06,0.989 C130.08,1.28 130.08,1.571 130.07,1.863 L54.2,45.665" id="Fill-191" mask="url(#mask-12)"></path>
            </g>
            <g id="Group-196" transform="translate(395.000000, 421.000000)">
                <mask id="mask-14" fill="white">
                    <use xlink:href="#path-13"></use>
                </mask>
                <g id="Clip-195"></g>
                <path d="M46.2,81.665 L46.2,81.665 C48.63,66.942 25.17,59.427 1.41,44.302 C1.379,44.279 1.35,44.255 1.322,44.231 C0.669,43.661 0.856,42.785 1.77,42.24 L71.69,0.525 C72.17,0.24 72.76,0.098 73.32,0.098 C73.88,0.098 74.42,0.239 74.79,0.521 C101.06,11.012 118.47,22.568 121.58,33.067 C121.97,34.392 122.13,35.702 122.06,36.989 C122.05,37.136 122.04,37.281 122.02,37.427 L46.2,81.665 M20.429,45.096 C20.194,45.096 19.951,45.146 19.755,45.248 C19.358,45.454 19.3,45.79 19.626,45.999 L45.26,62.393 C45.42,62.498 45.65,62.551 45.89,62.551 C46.13,62.551 46.37,62.5 46.57,62.398 C46.96,62.192 47.02,61.856 46.69,61.648 L21.064,45.254 C20.899,45.148 20.669,45.096 20.429,45.096 M28.84,39.662 C28.6,39.662 28.36,39.713 28.16,39.815 C27.77,40.021 27.71,40.357 28.03,40.566 L53.66,56.96 C53.83,57.065 54.06,57.118 54.3,57.118 C54.53,57.118 54.78,57.067 54.97,56.965 C55.37,56.759 55.43,56.423 55.1,56.215 L29.47,39.82 C29.31,39.715 29.08,39.662 28.84,39.662 M37.25,34.229 C37.01,34.229 36.77,34.28 36.57,34.382 C36.17,34.588 36.12,34.924 36.44,35.133 L62.07,51.527 C62.24,51.632 62.47,51.685 62.71,51.685 C62.94,51.685 63.18,51.634 63.38,51.532 C63.78,51.326 63.84,50.99 63.51,50.782 L37.88,34.387 C37.72,34.282 37.48,34.229 37.25,34.229 M45.85,26.722 C45.62,26.722 45.37,26.773 45.18,26.875 C44.78,27.081 44.72,27.416 45.05,27.625 L70.68,44.02 C70.84,44.125 71.07,44.177 71.31,44.177 C71.55,44.177 71.79,44.127 71.99,44.025 C72.38,43.819 72.44,43.483 72.11,43.274 L46.49,26.88 C46.32,26.775 46.09,26.722 45.85,26.722 M54.26,21.289 C54.02,21.289 53.78,21.34 53.58,21.442 C53.19,21.648 53.13,21.983 53.46,22.192 L79.09,38.586 C79.25,38.692 79.48,38.744 79.72,38.744 C79.96,38.744 80.2,38.694 80.39,38.592 C80.79,38.386 80.85,38.05 80.52,37.841 L54.89,21.447 C54.73,21.342 54.5,21.289 54.26,21.289 M62.67,15.856 C62.43,15.856 62.19,15.907 61.99,16.009 C61.59,16.215 61.54,16.55 61.86,16.759 L87.49,33.153 C87.66,33.259 87.89,33.311 88.13,33.311 C88.36,33.311 88.61,33.261 88.8,33.159 C89.2,32.953 89.26,32.617 88.93,32.408 L63.3,16.014 C63.14,15.909 62.91,15.856 62.67,15.856 M71.07,10.423 C70.84,10.423 70.6,10.474 70.4,10.576 C70,10.781 69.95,11.117 70.27,11.326 L95.9,27.72 C96.07,27.826 96.3,27.878 96.54,27.878 C96.77,27.878 97.01,27.827 97.21,27.726 C97.61,27.52 97.67,27.184 97.34,26.975 L71.71,10.581 C71.54,10.476 71.31,10.423 71.07,10.423 M79.48,4.99 C79.25,4.99 79,5.041 78.81,5.143 C78.41,5.348 78.35,5.684 78.68,5.893 L104.31,22.287 C104.47,22.393 104.7,22.445 104.94,22.445 C105.18,22.445 105.42,22.394 105.62,22.292 C106.02,22.087 106.07,21.751 105.75,21.542 L80.12,5.148 C79.95,5.043 79.72,4.99 79.48,4.99" id="Fill-194" mask="url(#mask-14)"></path>
            </g>
            <g id="Group-199" transform="translate(473.000000, 425.000000)">
                <mask id="mask-16" fill="white">
                    <use xlink:href="#path-15"></use>
                </mask>
                <g id="Clip-198"></g>
                <path d="M26.94,18.445 C26.7,18.445 26.47,18.393 26.31,18.287 L0.68,1.893 C0.35,1.684 0.41,1.348 0.81,1.143 C1,1.041 1.25,0.99 1.48,0.99 C1.72,0.99 1.95,1.043 2.12,1.148 L27.75,17.542 C28.07,17.751 28.02,18.087 27.62,18.292 C27.42,18.394 27.18,18.445 26.94,18.445" id="Fill-197" mask="url(#mask-16)"></path>
            </g>
            <g id="Group-202" transform="translate(465.000000, 431.000000)">
                <mask id="mask-18" fill="white">
                    <use xlink:href="#path-17"></use>
                </mask>
                <g id="Clip-201"></g>
                <path d="M26.54,17.878 C26.3,17.878 26.07,17.826 25.9,17.72 L0.27,1.326 C-0.05,1.117 6.9388939e-18,0.781 0.4,0.576 C0.6,0.474 0.84,0.423 1.07,0.423 C1.31,0.423 1.54,0.476 1.71,0.581 L27.34,16.975 C27.67,17.184 27.61,17.52 27.21,17.726 C27.01,17.827 26.77,17.878 26.54,17.878" id="Fill-200" mask="url(#mask-18)"></path>
            </g>
            <g id="Group-205" transform="translate(456.000000, 436.000000)">
                <mask id="mask-20" fill="white">
                    <use xlink:href="#path-19"></use>
                </mask>
                <g id="Clip-204"></g>
                <path d="M27.13,18.311 C26.89,18.311 26.66,18.259 26.49,18.153 L0.86,1.759 C0.54,1.55 0.59,1.215 0.99,1.009 C1.19,0.907 1.43,0.856 1.67,0.856 C1.91,0.856 2.14,0.909 2.3,1.014 L27.93,17.408 C28.26,17.617 28.2,17.953 27.8,18.159 C27.61,18.261 27.36,18.311 27.13,18.311" id="Fill-203" mask="url(#mask-20)"></path>
            </g>
            <g id="Group-208" transform="translate(448.000000, 442.000000)">
                <mask id="mask-22" fill="white">
                    <use xlink:href="#path-21"></use>
                </mask>
                <g id="Clip-207"></g>
                <path d="M26.72,17.744 C26.48,17.744 26.25,17.692 26.09,17.586 L0.46,1.192 C0.13,0.983 0.19,0.648 0.58,0.442 C0.78,0.34 1.02,0.289 1.26,0.289 C1.5,0.289 1.73,0.342 1.89,0.447 L27.52,16.841 C27.85,17.05 27.79,17.386 27.39,17.592 C27.2,17.694 26.96,17.744 26.72,17.744" id="Fill-206" mask="url(#mask-22)"></path>
            </g>
            <g id="Group-211" transform="translate(439.000000, 447.000000)">
                <mask id="mask-24" fill="white">
                    <use xlink:href="#path-23"></use>
                </mask>
                <g id="Clip-210"></g>
                <path d="M27.31,18.177 C27.07,18.177 26.84,18.125 26.68,18.02 L1.05,1.625 C0.72,1.416 0.78,1.081 1.18,0.875 C1.37,0.773 1.62,0.722 1.85,0.722 C2.09,0.722 2.32,0.775 2.49,0.88 L28.11,17.274 C28.44,17.483 28.38,17.819 27.99,18.025 C27.79,18.127 27.55,18.177 27.31,18.177" id="Fill-209" mask="url(#mask-24)"></path>
            </g>
            <g id="Group-214" transform="translate(431.000000, 455.000000)">
                <mask id="mask-26" fill="white">
                    <use xlink:href="#path-25"></use>
                </mask>
                <g id="Clip-213"></g>
                <path d="M26.71,17.685 C26.47,17.685 26.24,17.632 26.07,17.527 L0.44,1.133 C0.12,0.924 0.17,0.588 0.57,0.382 C0.77,0.28 1.01,0.229 1.25,0.229 C1.48,0.229 1.72,0.282 1.88,0.387 L27.51,16.782 C27.84,16.99 27.78,17.326 27.38,17.532 C27.18,17.634 26.94,17.685 26.71,17.685" id="Fill-212" mask="url(#mask-26)"></path>
            </g>
            <g id="Group-217" transform="translate(422.000000, 460.000000)">
                <mask id="mask-28" fill="white">
                    <use xlink:href="#path-27"></use>
                </mask>
                <g id="Clip-216"></g>
                <path d="M27.3,18.118 C27.06,18.118 26.83,18.065 26.66,17.96 L1.03,1.566 C0.71,1.357 0.77,1.021 1.16,0.815 C1.36,0.713 1.6,0.662 1.84,0.662 C2.08,0.662 2.31,0.715 2.47,0.82 L28.1,17.215 C28.43,17.423 28.37,17.759 27.97,17.965 C27.78,18.067 27.53,18.118 27.3,18.118" id="Fill-215" mask="url(#mask-28)"></path>
            </g>
            <g id="Group-220" transform="translate(414.000000, 466.000000)">
                <mask id="mask-30" fill="white">
                    <use xlink:href="#path-29"></use>
                </mask>
                <g id="Clip-219"></g>
                <path d="M26.89,17.551 C26.65,17.551 26.42,17.498 26.26,17.393 L0.626,0.999 C0.3,0.79 0.358,0.454 0.755,0.248 C0.951,0.146 1.194,0.096 1.429,0.096 C1.669,0.096 1.899,0.148 2.064,0.254 L27.69,16.648 C28.02,16.856 27.96,17.192 27.57,17.398 C27.37,17.5 27.13,17.551 26.89,17.551" id="Fill-218" mask="url(#mask-30)"></path>
            </g>
            <path d="M440.87,503.34 L472.37,518.667 C472.37,518.667 450.18,492.84 440.87,503.34" id="Fill-221" fill="#CC3D6C"></path>
            <path d="M441.2,502.665 C441.2,502.665 448.51,499.942 454.41,504.824 C460.31,509.706 497.94,537.979 497.94,537.979 L574.42,494.247 C574.42,494.247 533.55,454.601 517.07,458.863 L441.2,502.665" id="Fill-222" fill="#FFFFFE"></path>
            <path d="M551.64,483.878 C551.39,483.878 551.14,483.82 550.97,483.706 L525.72,466.738 C525.4,466.522 525.46,466.187 525.86,465.99 C526.05,465.898 526.28,465.852 526.51,465.852 C526.76,465.852 527,465.911 527.17,466.025 L552.43,482.993 C552.75,483.209 552.68,483.544 552.28,483.741 C552.09,483.833 551.86,483.878 551.64,483.878" id="Fill-223" fill="#CECED7"></path>
            <path d="M543.11,489.12 C542.86,489.12 542.61,489.062 542.44,488.948 L517.19,471.98 C516.87,471.763 516.93,471.429 517.34,471.232 C517.52,471.14 517.75,471.094 517.98,471.094 C518.23,471.094 518.47,471.153 518.64,471.267 L543.9,488.235 C544.22,488.451 544.15,488.786 543.75,488.983 C543.56,489.075 543.33,489.12 543.11,489.12" id="Fill-224" fill="#CECED7"></path>
            <path d="M534.58,494.363 C534.33,494.363 534.09,494.304 533.92,494.19 L508.66,477.221 C508.34,477.005 508.41,476.671 508.81,476.474 C509,476.382 509.22,476.336 509.45,476.336 C509.7,476.336 509.95,476.395 510.12,476.509 L535.37,493.477 C535.69,493.693 535.63,494.028 535.22,494.225 C535.04,494.317 534.81,494.363 534.58,494.363" id="Fill-225" fill="#CECED7"></path>
            <path d="M526.06,499.605 C525.8,499.605 525.56,499.546 525.39,499.432 L500.13,482.463 C499.81,482.247 499.88,481.913 500.28,481.716 C500.47,481.624 500.7,481.578 500.92,481.578 C501.17,481.578 501.42,481.637 501.59,481.751 L526.84,498.719 C527.16,498.935 527.1,499.27 526.7,499.467 C526.51,499.559 526.28,499.605 526.06,499.605" id="Fill-226" fill="#CECED7"></path>
            <path d="M517.53,504.846 C517.27,504.846 517.03,504.788 516.86,504.674 L491.61,487.705 C491.28,487.49 491.35,487.155 491.75,486.958 C491.94,486.866 492.17,486.82 492.39,486.82 C492.64,486.82 492.89,486.879 493.06,486.993 L518.31,503.962 C518.63,504.177 518.57,504.512 518.17,504.709 C517.98,504.801 517.75,504.846 517.53,504.846" id="Fill-227" fill="#CECED7"></path>
            <path d="M508.75,512.158 C508.5,512.158 508.26,512.099 508.09,511.985 L482.83,495.017 C482.51,494.801 482.58,494.466 482.98,494.269 C483.17,494.177 483.4,494.132 483.62,494.132 C483.87,494.132 484.12,494.19 484.29,494.304 L509.54,511.272 C509.86,511.489 509.8,511.823 509.39,512.02 C509.21,512.112 508.98,512.158 508.75,512.158" id="Fill-228" fill="#CECED7"></path>
            <path d="M500.23,517.4 C499.97,517.4 499.73,517.342 499.56,517.227 L474.3,500.259 C473.98,500.043 474.05,499.708 474.45,499.512 C474.64,499.419 474.87,499.374 475.09,499.374 C475.34,499.374 475.59,499.432 475.76,499.546 L501.01,516.515 C501.33,516.73 501.27,517.065 500.87,517.262 C500.68,517.354 500.45,517.4 500.23,517.4" id="Fill-229" fill="#CECED7"></path>
            <path d="M491.7,522.642 C491.44,522.642 491.2,522.584 491.03,522.469 L465.78,505.501 C465.45,505.285 465.52,504.95 465.92,504.754 C466.11,504.661 466.34,504.616 466.56,504.616 C466.81,504.616 467.06,504.674 467.23,504.788 L492.48,521.757 C492.8,521.972 492.74,522.307 492.34,522.504 C492.15,522.596 491.92,522.642 491.7,522.642" id="Fill-230" fill="#CECED7"></path>
            <path d="M544.46,469.764 C535.68,477.597 511.89,496.294 499.26,506.048 C498.66,506.511 499.03,507.467 499.79,507.409 L509.21,506.682 C509.75,506.641 510.16,507.16 509.99,507.676 L507.89,514.224 C507.67,514.919 508.46,515.511 509.05,515.087 C514.31,511.334 528.72,495.652 549.55,475.217 C551.26,473.541 550.97,470.708 548.96,469.412 C547.55,468.503 545.71,468.647 544.46,469.764" id="Fill-231" fill="#6C6CA3"></path>
            <path d="M643.28,208.174 L585.98,174.959 C583.62,173.597 581.55,173.592 579.99,174.663 L580,174.655 L570.35,180.12 C570.35,180.12 574,185.848 577,192.59 L577,244.404 C577,250.977 581.02,258.614 585.95,261.461 L632.66,288.437 C637.02,295.775 639.97,300.575 639.97,300.575 L649,295.364 L649,295.349 C651,294.407 652,291.785 652,287.926 L652,225.231 C652,218.657 648.21,211.02 643.28,208.174" id="Fill-232" fill="#6C6CA3"></path>
            <path d="M633.59,300.45 L576.06,267.236 C571.13,264.389 567.14,256.752 567.14,250.179 L567.14,187.483 C567.14,180.909 571.13,177.888 576.06,180.735 L633.59,213.948 C638.52,216.795 642.52,224.432 642.52,231.005 L642.52,293.701 C642.52,300.275 638.52,303.296 633.59,300.45" id="Fill-233" fill="#7777AB"></path>
            <path d="M629.57,304.803 C628.48,304.803 627.28,304.459 626.03,303.731 L568.5,270.518 C563.57,267.671 559.57,260.034 559.57,253.461 L559.57,190.765 C559.57,185.87 561.79,182.945 564.95,182.945 C565.81,182.945 566.74,183.16 567.71,183.608 C567.34,184.702 567.14,186.002 567.14,187.483 L567.14,250.179 C567.14,256.752 571.13,264.389 576.06,267.236 L633.59,300.45 C633.86,300.603 634.12,300.739 634.38,300.858 C633.52,303.38 631.78,304.803 629.57,304.803" id="Fill-234" fill="#C3BFD5"></path>
            <path d="M634.38,300.858 C634.12,300.739 633.86,300.603 633.59,300.45 L576.06,267.236 C571.13,264.389 567.14,256.752 567.14,250.179 L567.14,187.483 C567.14,186.002 567.34,184.702 567.71,183.608 C567.97,183.727 568.23,183.863 568.5,184.016 L626.03,217.23 C630.96,220.077 634.95,227.714 634.95,234.287 L634.95,296.983 C634.95,298.464 634.75,299.764 634.38,300.858" id="Fill-235" fill="#7777AB"></path>
            <polyline id="Fill-236" fill="#FFFFFE" points="589.01 252.298 573.76 225.987 590.37 216.516 593.57 222.141 582.63 228.381 594.61 249.05 589.01 252.298"></polyline>
            <polyline id="Fill-237" fill="#FFFFFE" points="619.2 268.375 616 262.751 626.78 256.601 614.64 235.657 620.24 232.41 635.65 258.996 619.2 268.375"></polyline>
            <polyline id="Fill-238" fill="#FFFFFE" points="602.86 265.128 596.61 263.436 608.01 221.347 614.26 223.039 602.86 265.128"></polyline>
            <path d="M537.07,34.922 L479.66,1.708 C477.3,0.346 475.18,0.34 473.62,1.412 L473.6,1.403 L464.15,6.869 C464.15,6.869 467,12.597 471,19.339 L471,71.152 C471,77.726 474.8,85.363 479.73,88.209 L526.34,115.186 C530.7,122.523 533.81,127.324 533.81,127.324 L543,122.113 L543,122.097 C544,121.156 546,118.534 546,114.675 L546,51.979 C546,45.405 542,37.769 537.07,34.922" id="Fill-239" fill="#3EB395"></path>
            <path d="M527.17,127.198 L469.64,93.984 C464.71,91.138 460.71,83.501 460.71,76.927 L460.71,14.232 C460.71,7.658 464.71,4.636 469.64,7.483 L527.17,40.697 C532.1,43.544 536.09,51.18 536.09,57.754 L536.09,120.449 C536.09,127.023 532.1,130.045 527.17,127.198" id="Fill-240" fill="#5BBBA4"></path>
            <path d="M521.26,131.007 C520.18,131.007 518.98,130.663 517.72,129.936 L460.19,96.722 C455.26,93.875 451.26,86.239 451.26,79.665 L451.26,16.969 C451.26,12.075 453.48,9.149 456.64,9.149 C457.73,9.149 458.93,9.493 460.19,10.221 L461.15,10.777 C460.87,11.779 460.71,12.937 460.71,14.232 L460.71,76.927 C460.71,83.501 464.71,91.138 469.64,93.984 L526.2,126.641 C525.41,129.425 523.59,131.007 521.26,131.007" id="Fill-241" fill="#B7DDD3"></path>
            <path d="M526.2,126.641 L469.64,93.984 C464.71,91.138 460.71,83.501 460.71,76.927 L460.71,14.232 C460.71,12.937 460.87,11.779 461.15,10.777 L517.72,43.435 C522.65,46.281 526.64,53.918 526.64,60.492 L526.64,123.187 C526.64,124.482 526.49,125.64 526.2,126.641" id="Fill-242" fill="#5BBBA4"></path>
            <path d="M497.2,83.785 C489.29,79.216 482.87,68.149 482.87,59.067 C482.87,49.984 489.29,46.326 497.2,50.896 C505.12,55.465 511.53,66.532 511.53,75.615 C511.53,84.697 505.12,88.355 497.2,83.785 Z M520.76,73.373 L520.76,73.373 C517.94,71.747 516.53,67.023 518.52,65.888 C520.78,64.602 520.78,60.406 518.52,56.517 L517.36,54.515 C515.11,50.625 511.45,48.514 509.19,49.8 C507.2,50.936 503.8,47.35 503.8,44.117 C503.8,40.457 501.21,35.998 498.02,34.157 L496.38,33.209 C493.19,31.368 490.61,32.842 490.61,36.502 C490.61,39.735 487.2,39.387 485.21,35.951 C482.95,32.061 479.3,29.95 477.04,31.236 L475.88,31.897 C473.62,33.183 473.62,37.379 475.88,41.268 C477.87,44.704 476.46,47.798 473.64,46.172 C470.45,44.331 467.87,45.805 467.87,49.464 L467.87,51.348 C467.87,55.007 470.45,59.467 473.64,61.308 C476.46,62.935 477.87,67.658 475.88,68.794 C473.62,70.079 473.62,74.275 475.88,78.165 L477.04,80.166 C479.3,84.056 482.95,86.167 485.21,84.881 C487.2,83.746 490.61,87.331 490.61,90.564 C490.61,94.224 493.19,98.683 496.38,100.525 L498.02,101.472 C501.21,103.314 503.8,101.84 503.8,98.18 C503.8,94.947 507.2,95.295 509.19,98.731 C511.45,102.621 515.11,104.731 517.36,103.446 L518.52,102.784 C520.78,101.498 520.78,97.303 518.52,93.413 C516.53,89.977 517.94,86.882 520.76,88.509 C523.95,90.351 526.53,88.876 526.53,85.217 L526.53,83.334 C526.53,79.674 523.95,75.215 520.76,73.373 L520.76,73.373 Z" id="Fill-243" fill="#FFFFFE"></path>
            <path d="M642.87,90.198 L585.36,56.983 C583,55.621 580.83,55.616 579.27,56.687 L579.23,56.679 L569.46,62.144 C569.46,62.144 573,67.872 576,74.614 L576,126.428 C576,133.001 580.1,140.638 585.03,143.485 L631.79,170.461 C636.15,177.799 639.03,182.599 639.03,182.599 L648,177.388 L648,177.373 C650,176.431 652,173.81 652,169.95 L652,107.255 C652,100.681 647.8,93.044 642.87,90.198" id="Fill-244" fill="#FB2E23"></path>
            <path d="M632.77,182.474 L575.24,149.26 C570.31,146.413 566.31,138.776 566.31,132.203 L566.31,69.507 C566.31,62.933 570.31,59.912 575.24,62.759 L632.77,95.972 C637.7,98.819 641.69,106.456 641.69,113.029 L641.69,175.725 C641.69,182.299 637.7,185.32 632.77,182.474" id="Fill-245" fill="#F95F2A"></path>
            <path d="M628.23,188.788 C627.14,188.788 625.95,188.444 624.69,187.717 L567.16,154.503 C562.23,151.656 558.23,144.019 558.23,137.446 L558.23,74.75 C558.23,69.856 560.45,66.93 563.61,66.93 C564.49,66.93 565.44,67.154 566.43,67.621 C566.35,68.212 566.31,68.841 566.31,69.507 L566.31,132.203 C566.31,138.776 570.31,146.413 575.24,149.26 L632.77,182.474 C633.01,182.615 633.25,182.742 633.49,182.854 C632.99,186.605 630.97,188.788 628.23,188.788" id="Fill-246" fill="#F2955E"></path>
            <path d="M633.49,182.854 C633.25,182.742 633.01,182.615 632.77,182.474 L575.24,149.26 C570.31,146.413 566.31,138.776 566.31,132.203 L566.31,69.507 C566.31,68.841 566.35,68.212 566.43,67.621 C566.67,67.734 566.91,67.86 567.16,68.002 L624.69,101.216 C629.62,104.062 633.61,111.699 633.61,118.272 L633.61,180.968 C633.61,181.634 633.57,182.264 633.49,182.854" id="Fill-247" fill="#F8772D"></path>
        </g>
        <g id="Swift_logo" transform="translate(574.000000, 101.000000)" fill="#FFFFFE" fill-rule="nonzero">
            <path d="M35.4516052,43.3173654 C29.9152946,46.81045 22.3030158,47.1693463 14.6444727,43.5842703 C8.4434964,40.7027346 3.29829824,35.6587515 0,29.8956802 C1.58319265,31.3364481 3.43021119,32.4895806 5.40914269,33.4975998 C13.3182256,37.5465202 21.2256477,37.2692501 26.7904287,33.507965 C26.7868699,33.5040781 26.7844973,33.5014868 26.7821248,33.4975998 C18.8661616,26.8690313 12.1376521,18.2231286 7.12448554,11.1631071 C6.06858881,10.0102338 5.27699248,8.5692068 4.48539616,7.27238619 C10.5542222,13.3243885 20.1856469,20.9609762 23.6151464,23.1234236 C16.3599341,14.7651563 9.8947761,4.39085053 10.1581275,4.67848583 C21.6364521,17.3590566 32.3235363,24.5641914 32.3235363,24.5641914 C32.677044,24.7818614 32.9498856,24.963253 33.1693451,25.1252098 C33.4006672,24.4825652 33.603519,23.8153031 33.7743415,23.1234236 C35.62136,15.7744712 33.5109901,7.41620384 28.8928506,0.5 C39.5787485,7.56066932 45.9122309,20.8171586 43.2727856,31.9131439 C43.2039821,32.2124401 43.1292472,32.5078493 43.0485811,32.7980759 C43.079424,32.8382412 43.110267,32.8797022 43.1411099,32.9224588 C48.4176279,40.1275936 46.9668227,47.7641813 46.307258,46.3234135 C43.4447944,40.2053328 38.1457373,42.076258 35.4517238,43.317495 L35.4516052,43.3173654 Z" id="Path"></path>
        </g>
    </g>
</svg>