<svg width="24" height="24" viewBox="0 0 24 24" fill="none" xmlns="http://www.w3.org/2000/svg">
<path fill-rule="evenodd" clip-rule="evenodd" d="M21.6055 11.4645C20.459 9.99365 16.8951 6 12 6C7.10492 6 3.54105 9.99365 2.39446 11.4645C2.14627 11.7829 2.14627 12.2171 2.39446 12.5355C3.54105 14.0063 7.10492 18 12 18C16.8951 18 20.459 14.0063 21.6055 12.5355C21.8537 12.2171 21.8537 11.7829 21.6055 11.4645ZM20.55 12C20.55 12 17.13 7.2 12 7.2C6.87001 7.2 3.45001 12 3.45001 12C3.45001 12 6.87001 16.8 12 16.8C17.13 16.8 20.55 12 20.55 12ZM12 15.5C13.933 15.5 15.5 13.933 15.5 12C15.5 10.067 13.933 8.5 12 8.5C10.067 8.5 8.50001 10.067 8.50001 12C8.50001 13.933 10.067 15.5 12 15.5ZM14.3 12C14.3 13.2703 13.2703 14.3 12 14.3C10.7297 14.3 9.70001 13.2703 9.70001 12C9.70001 10.7297 10.7297 9.7 12 9.7C13.2703 9.7 14.3 10.7297 14.3 12Z" fill="white"/>
</svg>
