<?xml version="1.0" encoding="UTF-8"?><svg width="190" height="194" version="1.1" viewBox="0 0 190 194" xmlns="http://www.w3.org/2000/svg" xmlns:xlink="http://www.w3.org/1999/xlink"><!--Generated by IJSVG (https://github.com/iconjar/IJSVG)--><g transform="scale(0.997841)"><path fill="#1C71DA" d="M119.178,34.7538h19.0254v-34.7324h-34.5723c-2.8828,-0.1211 -38.0391,-0.793 -47.1523,33.9551c-0.1328,0.3652 -3.043,8.627 -3.043,27.9316l-31.6113,0.0938v36.4297l31.6523,-0.0938v96.082h48.3477v-96h32v-36.5234h-32v-11.4922c-1.42109e-14,-7.1406 3.0097,-15.6504 17.3535,-15.6504Z"></path><path fill="#D0E8FF" d="M125.824,69.8964v20.5234h-32v96h-32.3477v-96.1055l-31.6523,0.0938v-20.4297l31.7344,-0.0938l-0.082,-4.0684c-0.4141,-20.4473 2.5,-29.0488 2.6309,-29.459c7.8632,-29.9296 37.8905,-28.4218 39.1796,-28.3436l26.916,0.0078v18.7324h-11.0254c-18.6934,0 -25.3535,12.2168 -25.3535,23.6504v19.4922h32Z"></path><path fill="#FF5D5D" d="M172,32.9345c-1.0239,0 -2.0474,-0.3906 -2.8286,-1.1714c-1.562,-1.5625 -1.562,-4.0947 0,-5.6572l14.1421,-14.1421c1.5625,-1.5615 4.0947,-1.5615 5.6572,0c1.562,1.5625 1.562,4.0947 0,5.6572l-14.1421,14.1421c-0.7812,0.7807 -1.8047,1.1714 -2.8286,1.1714Z"></path><path fill="#FF5D5D" d="M186.142,32.933c-1.0239,0 -2.0474,-0.3906 -2.8286,-1.1714l-14.1421,-14.1426c-1.562,-1.5625 -1.562,-4.0952 0,-5.6572c1.563,-1.5615 4.0952,-1.5605 5.6572,0l14.1421,14.1426c1.562,1.5625 1.562,4.0952 0,5.6572c-0.7812,0.7808 -1.8052,1.1714 -2.8286,1.1714Z"></path><path fill="#00D40B" d="M14,40.9345c-7.7197,0 -14,-6.2803 -14,-14c0,-7.7197 6.2803,-14 14,-14c7.7197,0 14,6.2803 14,14c0,7.7197 -6.2803,14 -14,14Zm0,-20c-3.3086,0 -6,2.6914 -6,6c0,3.3086 2.6914,6 6,6c3.3086,0 6,-2.6914 6,-6c0,-3.3086 -2.6914,-6 -6,-6Z"></path><path fill="#FFC504" d="M131.314,191.562c-1.0239,0 -2.0474,-0.3906 -2.8286,-1.1714l-11.3135,-11.3135c-1.562,-1.5625 -1.562,-4.0947 0,-5.6567l11.3135,-11.314c0.7505,-0.7505 1.7676,-1.1719 2.8286,-1.1719c1.061,0 2.0781,0.4214 2.8286,1.1714l11.314,11.314c0.75,0.7505 1.1714,1.7676 1.1714,2.8286c0,1.061 -0.4214,2.0781 -1.1719,2.8286l-11.314,11.3135c-0.7808,0.7808 -1.8047,1.1714 -2.8281,1.1714Zm-5.6568,-15.3135l5.6567,5.6567l5.6572,-5.6567l-5.6572,-5.6572l-5.6567,5.6572Z"></path></g></svg>