<?xml version="1.0" encoding="UTF-8"?><svg version="1.1" viewBox="0 0 60 60" xmlns="http://www.w3.org/2000/svg" xmlns:xlink="http://www.w3.org/1999/xlink"><!--Generated by IJSVG (https://github.com/iconjar/IJSVG)--><g transform="matrix(1,0,0,1,-660,-900)"><g transform="matrix(1,0,0,1,664,914)"><path fill="#D0E8FF" fill-rule="evenodd" stroke="#1A6ACC" stroke-linecap="round" stroke-linejoin="round" stroke-width="2" d="M0,0h52v32.0001c0,1.10453 -0.902557,1.99992 -2.0066,1.99992h-47.9868c-1.10821,0 -2.0066,-0.891941 -2.0066,-1.99992v-32.0001Z"></path><g transform="matrix(1,0,0,1,26,9.5)"><g transform="matrix(1,0,0,-1,0,0)"><path fill="#5CB0FF" fill-rule="evenodd" stroke="#1A6ACC" stroke-linecap="round" stroke-linejoin="round" stroke-width="2" d="M26,0l26,19h-52Z" transform="matrix(1,0,0,1,-26,-9.5)"></path></g></g><path fill="#5CB0FF" fill-rule="evenodd" stroke="#1A6ACC" stroke-linecap="round" stroke-linejoin="round" stroke-width="2" d="M35,20h13v11h-13Z"></path><path fill="#D0E8FF" fill-rule="evenodd" stroke="#1A6ACC" stroke-linecap="round" stroke-linejoin="round" stroke-width="2" d="M24,28.247c0,0 1.42374,-3.51088 4.84386,-1.75544c3.42012,1.75544 3.33125,3.28753 5.39986,1.64377c2.06861,-1.64377 4.02887,-2.82515 7.13059,-1.35674"></path><path fill="#D0E8FF" fill-rule="evenodd" stroke="#1A6ACC" stroke-linecap="round" stroke-linejoin="round" stroke-width="2" d="M24,25.247c0,0 1.42374,-3.51088 4.84386,-1.75544c3.42012,1.75544 3.33125,3.28753 5.39986,1.64377c2.06861,-1.64377 4.02887,-2.82515 7.13059,-1.35674"></path></g><g transform="matrix(1,0,0,1,63,62)"><g transform="matrix(1,0,0,1,606,842)"><g transform="matrix(1,0,0,1,11,30)"><g transform="matrix(1,0,0,1,2,2)"><g transform="matrix(6.12323e-17,-1,1,6.12323e-17,0,0)"><path fill="none" fill-rule="evenodd" stroke="#FF5D5D" stroke-linecap="round" stroke-linejoin="round" stroke-width="2" d="M0,0l3.53553,3.53553" transform="matrix(1,0,0,1,-2,-2)"></path></g></g><path fill="none" fill-rule="evenodd" stroke="#FF5D5D" stroke-linecap="round" stroke-linejoin="round" stroke-width="2" d="M0,0.464466l3.53553,3.53553"></path></g><path fill="none" fill-rule="evenodd" stroke="#00D40B" stroke-linecap="round" stroke-linejoin="round" stroke-width="2" d="M4.26777,32.7322c0.976311,0.976311 0.976311,2.55922 0,3.53553c-0.976311,0.976311 -2.55922,0.976311 -3.53553,0c-0.976311,-0.976311 -0.976311,-2.55922 -4.44089e-16,-3.53553c0.976311,-0.976311 2.55922,-0.976311 3.53553,0"></path><g transform="matrix(1,0,0,1,27.8284,2.82843)"><g transform="matrix(0.707107,-0.707107,0.707107,0.707107,0,0)"><path fill="none" fill-rule="evenodd" stroke="#FFC503" stroke-linecap="round" stroke-linejoin="round" stroke-width="2" d="M25.8284,0.828427h4v4h-4Z" transform="matrix(1,0,0,1,-27.8284,-2.82843)"></path></g></g></g></g></g></svg>