<svg width="24" height="24" viewBox="0 0 24 24" fill="none" xmlns="http://www.w3.org/2000/svg">
<path fill-rule="evenodd" clip-rule="evenodd" d="M3 3C2.44772 3 2 3.44772 2 4V16C2 16.5523 2.44772 17 3 17H7V20.6284C7 21.0351 7.45968 21.2717 7.79062 21.0353L13.44 17H21C21.5523 17 22 16.5523 22 16V4C22 3.44772 21.5523 3 21 3H3ZM3.2 4.6C3.2 4.37909 3.37909 4.2 3.6 4.2H20.4C20.6209 4.2 20.8 4.37909 20.8 4.6V15.4C20.8 15.6209 20.6209 15.8 20.4 15.8H13.044L8.2 19.26V15.8H3.6C3.37909 15.8 3.2 15.6209 3.2 15.4V4.6Z" fill="white"/>
</svg>
