<svg width="93" height="38" viewBox="0 0 93 38" fill="none" xmlns="http://www.w3.org/2000/svg">
<path d="M14.1015 0.764572C11.6185 0.764572 9.60619 2.77729 9.60619 5.25986C9.60619 6.19073 9.8889 7.05493 10.3724 7.77255C10.3748 7.77496 13.2425 11.8711 13.9469 12.8758C14.0324 12.9987 14.171 12.9987 14.2565 12.8758C14.9601 11.8711 17.8285 7.77496 17.8302 7.77255C18.3145 7.05493 18.5972 6.19113 18.5972 5.25986C18.5968 2.77729 16.5845 0.764572 14.1015 0.764572ZM15.3725 6.51239L14.1637 7.71432C14.1292 7.74886 14.0718 7.74886 14.0368 7.71432L12.8277 6.51239C12.5032 6.18952 12.302 5.74297 12.302 5.24942C12.302 4.26234 13.1076 3.46159 14.1003 3.46159C15.093 3.46159 15.8986 4.26234 15.8986 5.24942C15.899 5.74297 15.6978 6.18952 15.3725 6.51239Z" fill="#BDBDBD"/>
<path d="M0.72445 9.01666C0.575464 9.01666 0.52366 9.11465 0.609197 9.23753L10.3515 23.1507C10.4371 23.2724 10.4371 23.4699 10.3515 23.5924L1.981 35.5471C1.81073 35.7908 1.43003 35.9888 1.13165 35.9888H0.952146C0.653772 35.9888 0.412422 36.2314 0.412422 36.5285V37.2478C0.412422 37.5457 0.653772 37.7875 0.952146 37.7875H7.06661C7.36378 37.7875 7.74367 37.5899 7.91515 37.3458L13.9485 28.7282C14.034 28.6066 14.1726 28.6066 14.2573 28.7282L20.2907 37.3458C20.4613 37.5895 20.842 37.7875 21.14 37.7875C22.4744 37.7875 25.9188 37.7875 27.2533 37.7875C27.5508 37.7875 27.793 37.5457 27.793 37.2478V36.5285C27.793 36.2314 27.5508 35.9888 27.2533 35.9888H27.0729C26.7746 35.9888 26.3951 35.7912 26.2244 35.5471L7.8019 9.23753C7.71717 9.11465 7.52602 9.01666 7.37784 9.01666H0.72445Z" fill="#BDBDBD"/>
<path d="M32.5176 1.82315H25.8634C25.7152 1.82315 25.5248 1.92234 25.4401 2.04482L16.0556 15.4464C15.9696 15.5684 15.9696 15.766 16.0556 15.8889L19.3425 20.583C19.4281 20.7047 19.5666 20.7047 19.6517 20.583L32.632 2.04482C32.7176 1.92234 32.6666 1.82315 32.5176 1.82315Z" fill="#BDBDBD"/>
<path d="M42.3643 28.6435V19.4328C42.3643 18.3036 41.7391 17.3173 40.1765 17.3173C39.2866 17.3173 38.6127 17.6056 38.0116 18.2068V28.6435H35.0772V19.361C35.0772 18.1116 34.2371 17.2936 32.6489 17.2936C31.7839 17.2936 31.3028 17.4129 30.7261 17.6542V28.6435H27.7918V16.3788C29.0901 15.7544 30.4856 15.4415 32.6489 15.4415C34.7411 15.4415 35.9442 16.0427 36.6888 16.8599C37.5554 16.0664 38.8774 15.4415 40.8488 15.4415C43.9273 15.4415 45.2991 17.3659 45.2991 19.4087V28.6435H42.3643Z" fill="#BDBDBD"/>
<path d="M51.4457 33.8026H48.343L50.4602 28.6331L46.1797 15.6712H49.3052L51.5424 24.0643C51.8059 25.0731 51.8059 25.916 51.8059 25.916H51.8537C51.8537 25.916 51.9263 25.0727 52.2143 24.0643L54.6197 15.6712H57.3605L51.4457 33.8026Z" fill="#BDBDBD"/>
<path d="M85.274 28.6331L82.8453 23.9193H82.7967L80.3197 28.6331H77.3384L81.3542 21.9231L77.7472 15.6712H80.8257L83.0135 19.9027H83.0613L85.3463 15.6712H88.1108L84.4319 21.7307L88.4967 28.6331H85.274Z" fill="#BDBDBD"/>
<path d="M91.1427 13.4349C90.2536 13.4349 89.5312 12.7855 89.5312 11.9916C89.5312 11.1744 90.2536 10.5254 91.1427 10.5254C92.0579 10.5254 92.7542 11.1748 92.7542 11.9916C92.7542 12.7855 92.0583 13.4349 91.1427 13.4349ZM89.6765 28.6331V15.6713H92.6109V28.6331H89.6765Z" fill="#BDBDBD"/>
<path d="M71.5909 28.8732C68.055 28.8732 66.2985 27.4299 66.2985 24.9281C66.2985 21.5122 69.5939 20.5247 73.5398 20.1412V19.4433C73.5398 17.7599 72.4808 17.3033 70.9661 17.3033C69.7152 17.3033 67.48 17.5462 67.48 17.5462L67.4691 15.6761C67.4691 15.6761 69.4497 15.4259 71.495 15.4259C74.1639 15.4259 76.2814 16.5567 76.2814 19.9003V28.6363C76.2818 28.6363 73.6117 28.8732 71.5909 28.8732ZM73.5398 21.5363C70.7733 21.8737 69.0646 22.4744 69.0646 24.8313C69.0646 26.5143 70.0766 27.2368 71.7817 27.2368C72.4576 27.2368 73.5398 27.1279 73.5398 27.1279V21.5363Z" fill="#BDBDBD"/>
<path d="M65.0958 26.7569L65.0134 26.7733C64.8291 26.8023 64.7351 26.8055 64.6396 26.8047C63.6292 26.793 63.22 26.1316 63.22 25.1216V17.547H65.9017L65.9001 15.6712H63.22V11.9912L60.2864 12.8092V15.6712H59.0154L58.4042 17.547H60.2868V25.2658C60.2868 27.0689 61.2968 28.7764 63.8456 28.7764C64.5673 28.7764 65.5283 28.5511 65.9001 28.3491C65.5162 27.8998 65.2295 27.1532 65.0958 26.7569Z" fill="#BDBDBD"/>
</svg>
