<?xml version="1.0" encoding="UTF-8"?><svg version="1.1" viewBox="0 0 52 52" xmlns="http://www.w3.org/2000/svg" xmlns:xlink="http://www.w3.org/1999/xlink"><!--Generated by IJSVG (https://github.com/iconjar/IJSVG)--><g fill="#C8C7C7"><path d="M31.4,19.5h7v3.6h-7Z"></path><path d="M13.6,19.5h7v3.6h-7Z"></path></g><path fill="#CFE0F1" d="M38.9,15.2c0.3,0.4 0.6,0.9 0.8,1.4c0.4,0.9 0.6,1.8 0.6,2.8v6h-4.6v-6c0,-1.5 0.5,-3 1.5,-4.1c0.5,-0.6 1.3,-0.6 1.7,-0.1Z"></path><path opacity="0.10" d="M38.9,15.2c0.3,0.4 0.6,0.9 0.8,1.4c0.4,0.9 0.6,1.8 0.6,2.8v6h-2.1v-6c0,-1 -0.2,-1.9 -0.6,-2.8c-0.2,-0.4 -0.4,-0.8 -0.6,-1.1c0.1,-0.1 0.1,-0.2 0.2,-0.3c0.5,-0.5 1.3,-0.5 1.7,1.77636e-15Z" fill="#010101"></path><path fill="#CFE0F1" d="M13.1,15.2c-0.3,0.4 -0.6,0.9 -0.8,1.4c-0.4,0.9 -0.6,1.8 -0.6,2.8v6h4.6v-6c0,-1.5 -0.5,-3 -1.5,-4.1c-0.5,-0.6 -1.3,-0.6 -1.7,-0.1Z"></path><path opacity="0.10" d="M13.1,15.2c-0.3,0.4 -0.6,0.9 -0.8,1.4c-0.4,0.9 -0.6,1.8 -0.6,2.8v6h2.1v-6c0,-1 0.2,-1.9 0.6,-2.8c0.2,-0.4 0.4,-0.8 0.6,-1.1c-0.1,-0.1 -0.1,-0.2 -0.2,-0.3c-0.5,-0.5 -1.3,-0.5 -1.7,1.77636e-15Z" fill="#010101"></path><path fill="#B88CBF" d="M43.5,42.8h-34.9c-1.6,0 -2.4,-1.9 -1.3,-3l17.5,-18.2c0.7,-0.7 1.9,-0.7 2.6,0l17.5,18.2c0.9,1.1 0.1,3 -1.4,3Z"></path><g fill="#010101"><path opacity="0.10" d="M43.5,42.8h-2.9c1.6,0 2.4,-1.9 1.3,-3l-17.3,-18l0.2,-0.2c0.7,-0.7 1.9,-0.7 2.6,0l17.5,18.2c0.9,1.2 0.1,3 -1.4,3Z"></path><path opacity="0.10" d="M8.5,42.8h2.9c-1.6,0 -2.4,-1.9 -1.3,-3l17.3,-18l-0.2,-0.2c-0.7,-0.7 -1.9,-0.7 -2.6,0l-17.4,18.2c-1,1.2 -0.2,3 1.3,3Z"></path></g><path fill="#DAEAF8" d="M27.9,2.9c2.6,4 4,8.7 4,13.5v26.4h-11.9v-26.4c0,-3 0.5,-5.9 1.5,-8.6c0.6,-1.7 1.5,-3.4 2.5,-5c1,-1.3 3,-1.3 3.9,0.1Z"></path><path opacity="0.10" d="M27.9,2.9c2.6,4 4,8.7 4,13.5v26.4h-2.8v-26.4c0,-4.8 -1.4,-9.5 -4,-13.5c-0.1,-0.2 -0.3,-0.4 -0.5,-0.6c1,-0.8 2.6,-0.6 3.3,0.6Z" fill="#010101"></path><path fill="#3F5176" d="M29.1,5.2c-0.3,-0.6 -0.6,-1.3 -0.9,-1.9c-1,-2 -3.3,-2 -4.3,0c-0.3,0.6 -0.6,1.2 -0.9,1.9h6.1Z"></path><path d="M29.3,13.1c0,1.4 -0.9,2.6 -2.1,3.1c-0.4,0.2 -0.8,0.2 -1.2,0.2c-0.2,0 -0.3,0 -0.5,0c-0.2,0 -0.4,-0.1 -0.6,-0.2c-0.3,-0.1 -0.6,-0.3 -0.9,-0.5c-0.8,-0.6 -1.2,-1.5 -1.2,-2.6c0,-1 0.5,-2 1.2,-2.6c0.3,-0.2 0.6,-0.4 0.9,-0.5c0.2,-0.1 0.4,-0.1 0.7,-0.2c0.2,0 0.3,0 0.5,0c0.4,0 0.9,0.1 1.2,0.2c1.1,0.5 2,1.7 2,3.1Z" fill="#41C1F0"></path><path opacity="0.10" fill="#010101" d="M29.3,13.1c0,1.4 -0.9,2.6 -2.1,3.1c-0.4,0.2 -0.8,0.2 -1.2,0.2c-0.2,0 -0.3,0 -0.5,0c-0.1,0 -0.1,0 -0.2,0c0.2,0 0.4,-0.1 0.5,-0.2c1.2,-0.5 2.1,-1.7 2.1,-3.1c0,-1.4 -0.9,-2.6 -2.1,-3.1c-0.2,-0.1 -0.4,-0.1 -0.5,-0.2c0.1,0 0.1,0 0.2,0c0.2,0 0.3,0 0.5,0c0.4,0 0.9,0.1 1.2,0.2c1.2,0.5 2.1,1.7 2.1,3.1Z"></path><g opacity="0.20"><path fill="#FFF" d="M28.5,11.1l-2.9,5.4c-0.4,0 -0.8,-0.2 -1.2,-0.4c-0.1,-0.1 -0.3,-0.2 -0.4,-0.3l3.1,-5.7c0.2,0 0.3,0.1 0.5,0.2c0.3,0.2 0.7,0.4 0.9,0.8Z"></path><path fill="#FFF" d="M26.4,9.9l-2.9,5.5c-0.2,-0.3 -0.4,-0.6 -0.6,-0.9l2.4,-4.6c0.4,0 0.8,0 1.1,0Z"></path></g><g fill="#FBB566"><path d="M19.1,49.6c-0.1,0.3 0.1,0.5 0.4,0.5h3.6c0.3,0 0.5,-0.3 0.4,-0.5l-2.2,-10.6l-2.2,10.6Z"></path><path d="M32.9,49.6c0.1,0.3 -0.1,0.5 -0.4,0.5h-3.6c-0.3,0 -0.5,-0.3 -0.4,-0.5l2.2,-10.6l2.2,10.6Z"></path></g><g opacity="0.10"><path fill="#010101" d="M21.3,39.1l-2.2,10.6c-0.1,0.3 0.1,0.6 0.4,0.6h1.6c-0.3,0 -0.5,-0.3 -0.4,-0.5l-0.2,-6.8l0.8,-3.9Z"></path><path fill="#010101" d="M30.7,39.1l2.2,10.6c0.1,0.3 -0.1,0.5 -0.4,0.5h-1.6c0.3,0 0.5,-0.3 0.4,-0.5l-1.4,-6.8l0.8,-3.8Z"></path></g><g fill="#F05B76"><path d="M34.1,32.6v13.3c0,0.5 -0.4,1 -1,1h-4.8c-0.5,0 -1,-0.4 -1,-1v-13.3c0,-1.5 1.2,-3.1 2.6,-3.5c0,0 0,0 0,0c0.5,-0.1 0.9,-0.1 1.4,0c0,0 0,0 0,0c1.6,0.4 2.8,2 2.8,3.5Z"></path><path d="M17.9,32.6v13.3c0,0.5 0.4,1 1,1h4.8c0.5,0 1,-0.4 1,-1v-13.3c0,-1.5 -1.2,-3.1 -2.6,-3.5c0,0 0,0 0,0c-0.5,-0.1 -0.9,-0.1 -1.4,0c0,0 0,0 0,0c-1.6,0.4 -2.8,2 -2.8,3.5Z"></path></g><g opacity="0.10"><path fill="#010101" d="M34.1,32.6v13.3c0,0.5 -0.4,1 -1,1h-2c0.5,0 1,-0.4 1,-1v-13.3c0,-1.4 -1,-2.9 -2.4,-3.4c0.1,0 0.2,-0.1 0.3,-0.1c0,0 0,0 0,0c0.5,-0.1 0.9,-0.1 1.4,0c0,0 0,0 0,0c1.5,0.4 2.7,2 2.7,3.5Z"></path><path fill="#010101" d="M17.9,32.6v13.3c0,0.5 0.4,1 1,1h2c-0.5,0 -1,-0.4 -1,-1v-13.3c0,-1.4 1,-2.9 2.4,-3.4c-0.1,0 -0.2,-0.1 -0.3,-0.1c0,0 0,0 0,0c-0.5,-0.1 -0.9,-0.1 -1.4,0c0,0 0,0 0,0c-1.5,0.4 -2.7,2 -2.7,3.5Z"></path></g><g fill="#70C493"><path d="M27.4,34.4h6.7v1.4h-6.7Z"></path><path d="M27.4,42.2h6.7v1.4h-6.7Z"></path><path d="M17.9,34.4h6.7v1.4h-6.7Z"></path><path d="M17.9,42.2h6.7v1.4h-6.7Z"></path></g><path fill="#2A3D66" d="M45.3,39.3l-12.5,-13.2v-2.2h2.2v1.4c0,0.2 0.1,0.4 0.2,0.6c0.2,0.2 0.4,0.2 0.6,0.2h4.6c0.5,0 0.8,-0.4 0.8,-0.8v-6c0,-1.9 -0.7,-3.6 -1.6,-4.6c-0.7,-0.9 -2.2,-0.9 -3,0c-0.9,1.1 -1.5,2.5 -1.6,4h-2.2v-2.3c0,-5 -1.4,-9.8 -4.2,-14c-0.6,-0.9 -1.6,-1.4 -2.6,-1.4c-1.1,0 -2,0.5 -2.6,1.4c-1,1.6 -1.9,3.3 -2.6,5.1c-1.1,2.8 -1.6,5.8 -1.6,8.9v2.3h-2.2c-0.1,-1.5 -0.7,-2.9 -1.6,-4c-0.7,-0.9 -2.2,-0.9 -3,0c-0.9,1.2 -1.6,2.8 -1.6,4.7v6c0,0.4 0.4,0.8 0.8,0.8h4.6c0,0 0,0 0,0c0.2,0 0.4,-0.1 0.6,-0.2c0.2,-0.2 0.2,-0.4 0.2,-0.6v-1.4h2.2v2.2l-12.5,13.1c-0.7,0.8 -0.9,1.8 -0.5,2.8c0.4,1 1.3,1.6 2.4,1.6h8.6v2.2c0,1 0.9,1.8 1.5,1.8l-0.4,1.9c-0.1,0.4 0,0.8 0.3,1.1c0.2,0.3 0.6,0.4 0.9,0.4h3.6c0.4,0 0.7,-0.2 0.9,-0.4c0.3,-0.3 0.4,-0.7 0.3,-1.1l-0.4,-1.9c0.9,-0.1 1.5,-0.9 1.5,-1.8v-2.2h1.1v2.2c0,0.5 0.2,0.9 0.5,1.3v0c0.2,0.2 0.5,0.4 0.9,0.5c0,0 0.1,0 0.1,0l-0.4,1.9c-0.1,0.4 0,0.8 0.3,1.1c0.2,0.3 0.6,0.4 0.9,0.4h3.6c0.4,0 0.7,-0.2 0.9,-0.4c0.2,-0.3 0.4,-0.7 0.3,-1.1l-0.4,-1.9c0.9,-0.1 1.5,-0.9 1.5,-1.8v-2.2h8.6c1.1,0 2,-0.6 2.4,-1.6c0.6,-1 0.4,-2.1 -0.4,-2.8Zm-12.1,6.5c0,0.1 -0.1,0.1 -0.1,0.1h-0.1c-2.6,0 -2.1,0 -4.7,0c0,0 -0.1,0 -0.1,0c0,0 0,-0.1 0,-0.1c0,-4.4 0,-8.8 0,-13.3c0,-1.1 0.9,-2.4 2,-2.8c0.1,0 0.4,-0.2 0.9,0c0,0 0,0 0,0c0,0 0,0 0,0c1.1,0.3 2,1.6 2,2.8c0.1,1.3 0.1,13.5 0.1,13.3Zm-3.8,3.6l0.4,-1.7h1.9l0.4,1.7h-2.7Zm-5.6,-3.6c0,0.1 -0.1,0.1 -0.1,0.1h-0.1h-0.2c-1.4,0 -2.9,0 -4.4,0h-0.1c0,0 0,0 0,0c0,0 0,0 0,0c0,0 0,0 0,-0.1c0,-3.8 0,-11 0,-13.3c0,-0.4 0.1,-0.8 0.3,-1.1c0.4,-0.8 1.5,-2 2.7,-1.6c0,0 0,0 0,0c1.1,0.3 2,1.6 2,2.8c-0.1,20.9 -0.1,-9.9 -0.1,13.2Zm-3.8,3.6l0.4,-1.7h1.9l0.4,1.7h-2.7Zm-12.2,-9l11.4,-11.9v0.3v0c-1.2,0.8 -2.1,2.3 -2.1,3.8v9.4h-8.6c-0.6,0 -0.8,-0.4 -0.9,-0.6c0,-0.1 -0.2,-0.6 0.2,-1Zm17.1,-9.9c-1,-1.9 -3,-2.6 -3.9,-2.4c0,0 -0.1,0 -0.1,0c0,-4.1 0,-1.5 0,-8.9v-0.5v-2.4c0,-2.9 0.5,-5.6 1.5,-8.3c0.6,-1.7 1.4,-3.3 2.4,-4.8c0.2,-0.3 0.7,-0.6 1.2,-0.6c0.5,0 1,0.3 1.3,0.7c2.5,3.9 3.9,8.4 3.9,13.1c0,0.6 0,12.3 0,11.7c0,0 -0.1,0 -0.1,0c-0.1,0 -0.8,0 -1.2,0.1c0,0 0,0 0,0c-0.1,0 -1.2,0.4 -1.3,0.7c-1.1,0.8 -1.9,2.3 -1.9,3.7v9.4h-1.1v-9.4c-0.1,-0.7 -0.4,-1.4 -0.7,-2.1Zm9.7,0.7c-0.1,-0.2 -0.2,-0.4 -0.3,-0.7c-0.5,-0.9 -1.3,-1.6 -1.6,-1.7v-0.3l11.4,11.9c0.4,0.4 0.2,0.9 0.2,1c-0.1,0.1 -0.3,0.6 -0.9,0.6h-8.6v-9.4c0.1,-0.5 -7.10543e-15,-0.9 -0.2,-1.4Zm2,-11.8c0,-1.2 0.4,-2.6 1.3,-3.6c0.1,-0.1 0.2,-0.1 0.2,-0.1c0.1,0 0.1,0 0.2,0.1c0.7,0.9 1.3,2.2 1.3,3.6v5.2h-3c0,-1.6 0,-3.6 0,-5.2Zm-1.6,2.9h-2.2v-1.9h2.2v1.9Zm-19.6,2.3h-3v-5.2c0,-1.4 0.5,-2.7 1.3,-3.6c0.1,-0.2 0.3,-0.2 0.4,0c0.7,0.9 1.1,1.9 1.2,3c0,0.1 0,0.3 0,0.4c0.1,0.1 0.1,5.4 0.1,5.4Zm1.6,-4.2h2.2v1.9h-2.2v-1.9Z"></path><path d="M27.5,16.9c3.4,-1.4 3.4,-6.3 0,-7.6c-1.3,-0.5 -2.9,-0.4 -4.1,0.6c-2,1.6 -2.1,4.8 0,6.5c1.2,0.8 2.7,1.1 4.1,0.5Zm-0.6,-6.1c2.1,0.8 2.1,3.8 0,4.6c-0.9,0.4 -1.8,0.2 -2.5,-0.4c-1.2,-1 -1.2,-2.9 0,-3.9c0.7,-0.5 1.7,-0.7 2.5,-0.3Z" fill="#2A3D66"></path></svg>