<?xml version="1.0" encoding="UTF-8"?><svg width="200" height="213" version="1.1" viewBox="0 0 200 213" xmlns="http://www.w3.org/2000/svg" xmlns:xlink="http://www.w3.org/1999/xlink"><!--Generated by IJSVG (https://github.com/iconjar/IJSVG)--><g transform="scale(0.997836)"><path fill="#1C71DA" d="M195.578,56.8447c-5.4023,0 -10.3477,-0.1484 -14.5039,-0.3438l17.1289,-9.9062c1.4844,-0.8594 2.2578,-2.5742 1.918,-4.2559l-7.9219,-39.1308c-0.3086,-1.5137 -1.457,-2.7148 -2.957,-3.0879c-1.5,-0.377 -3.0781,0.1504 -4.0547,1.3418c-0.4648,0.5645 -46.8672,56.7168 -80.3477,70.1719c-36.293,14.584 -75.1484,51.373 -75.1484,82.8906c0,5.8286 2.2483,10.8711 6.624,15.0205l-35.1435,35.1416c-1.5625,1.5625 -1.5625,4.0938 -8.88178e-16,5.6562c0.7812,0.7812 1.8047,1.1719 2.8281,1.1719c1.0234,0 2.0469,-0.3906 2.8281,-1.1719l36.1204,-36.1187c13.1812,7.0728 33.606,8.4429 47.2703,8.4429c7.8789,0 13.5,-0.4492 14.168,-0.5039c0.8633,-0.0723 1.6797,-0.4219 2.3242,-0.998l26.1367,-23.2441c1.2539,-1.1113 1.6797,-2.8848 1.0703,-4.4453c-0.6016,-1.5352 -2.082,-2.543 -3.7266,-2.543c-0.0234,0 -0.0469,0 -0.0742,0c-0.1289,0.0137 -12.0234,0.1445 -24.0391,-5.1074c18.3398,-5.084 39.4336,-2.832 39.6836,-2.8086c1.2539,0.1504 2.5703,-0.3457 3.4336,-1.3203l22.7109,-25.623c0.9258,-1.041 1.2383,-2.4883 0.832,-3.8203c-0.4063,-1.332 -1.4727,-2.3555 -2.8242,-2.7051l-16.332,-4.2246l26.7305,-4.5684c1.0391,-0.1777 1.9688,-0.7617 2.582,-1.623c0.6797,-0.957 16.6836,-23.5957 16.6836,-38.2871c-5.68434e-14,-2.2091 -1.789,-4.0001 -4,-4.0001Z"></path><path fill="#D0E8FF" d="M177.309,93.1514l-43.4648,7.4277c-1.8555,0.3184 -3.2422,1.8906 -3.3203,3.7754c-0.0781,1.8848 1.168,3.5684 2.9961,4.041l28.0664,7.2617l-17.0312,19.2168c-7.2305,-0.584 -31.3516,-1.7207 -49.8555,6.5156c-1.332,0.5918 -2.2344,1.8574 -2.3594,3.3066c-0.125,1.4512 0.543,2.8535 1.75,3.666c9.1016,6.123 19.2344,8.7051 26.4609,9.791l-18.1445,16.1387c-13.9141,0.9688 -48.25,0.8457 -60.4219,-10.3555c-2.8906,-2.6582 -4.293,-5.7363 -4.293,-9.4121c0,-27.8652 36.9609,-62.1367 70.1328,-75.4688c28.75,-11.5527 64.6875,-50.6855 78.168,-66.1914l5.7148,28.2441l-25.9531,15.0117c-1.4961,0.8672 -2.2695,2.5996 -1.9102,4.2949c0.3594,1.6934 1.7695,2.9629 3.4922,3.1465c0.4453,0.0469 10.125,1.0586 23.7891,1.2519c-1.9492,9.4378 -9.7148,22.3167 -13.8164,28.3382Z"></path><path fill="#1C71DA" d="M130.055,205.462h-101.035c-2.2109,0 -4,1.791 -4,4c0,2.209 1.7891,4 4,4h101.035c2.2109,0 4,-1.791 4,-4c0,-2.209 -1.7891,-4 -4,-4Z"></path><path fill="#1C71DA" d="M170.055,205.462h-20c-2.2109,0 -4,1.791 -4,4c0,2.209 1.7891,4 4,4h20c2.2109,0 4,-1.791 4,-4c0,-2.209 -1.7891,-4 -4,-4Z"></path><path fill="#FF5D5D" d="M6.1807,98.1857c-1.0234,0 -2.0469,-0.3906 -2.8281,-1.1714c-1.5625,-1.5625 -1.5625,-4.0952 0,-5.6572l14.1425,-14.1421c1.5605,-1.5615 4.0938,-1.5615 5.6562,0c1.5625,1.5625 1.5625,4.0952 0,5.6572l-14.1425,14.1421c-0.7803,0.7807 -1.8047,1.1714 -2.8281,1.1714Z"></path><path fill="#FF5D5D" d="M20.3232,98.1842c-1.0234,0 -2.0479,-0.3906 -2.8281,-1.1714l-14.1426,-14.1426c-1.5625,-1.5625 -1.5625,-4.0947 8.88178e-16,-5.6572c1.5605,-1.5615 4.0957,-1.5615 5.6562,0l14.1426,14.1426c1.5625,1.5625 1.5625,4.0947 0,5.6572c-0.7802,0.7808 -1.8046,1.1714 -2.8281,1.1714Z"></path><path fill="#00D40B" d="M176.181,178.186c-7.7197,0 -14,-6.2803 -14,-14c0,-7.7197 6.2803,-14 14,-14c7.7197,0 14,6.2803 14,14c0,7.7197 -6.2803,14 -14,14Zm0,-20c-3.3086,0 -6,2.6914 -6,6c0,3.3086 2.6914,6 6,6c3.3086,0 6,-2.6914 6,-6c0,-3.3086 -2.6914,-6 -6,-6Z"></path><path fill="#FFC504" d="M57.4951,40.8111c-1.0234,0 -2.0469,-0.3906 -2.8281,-1.1714l-11.3145,-11.3134c-0.75,-0.75 -1.1719,-1.7676 -1.1719,-2.8286c0,-1.061 0.4219,-2.0786 1.1719,-2.8286l11.3145,-11.3135c1.5625,-1.5615 4.0938,-1.5615 5.6562,0l11.3135,11.3135c1.5625,1.5625 1.5625,4.0947 0,5.6572l-11.3135,11.3135c-0.7802,0.7807 -1.8046,1.1713 -2.8281,1.1713Zm-5.6572,-15.3134l5.6572,5.6567l5.6562,-5.6567l-5.6562,-5.6567l-5.6572,5.6567Z"></path></g></svg>