<?xml version="1.0" encoding="UTF-8"?><svg width="192" height="216" version="1.1" viewBox="0 0 192 216" xmlns="http://www.w3.org/2000/svg" xmlns:xlink="http://www.w3.org/1999/xlink"><!--Generated by IJSVG (https://github.com/iconjar/IJSVG)--><g transform="scale(0.998504)"><path fill="#5CB0FF" d="M154.354,32.3157v-16v-8h-88v8v16Z"></path><path fill="#D0E8FF" d="M162.354,40.3157h-16v14c0,2.209 -1.7891,4 -4,4c-2.2109,0 -4,-1.791 -4,-4v-14h-60v14c0,2.209 -1.7891,4 -4,4c-2.2109,0 -4,-1.791 -4,-4v-14h-12v-16h-18.0664v184h144v-184h-21.9336v16Zm4.8359,59.6015c2.1094,0.6543 3.2891,2.8965 2.6328,5.0059l-21.4648,69.1445l-29.5351,-90.4121l-26.2422,46.0469l-21.5196,-34.1055l-13.1289,35.9336c-0.7578,2.0742 -3.0586,3.1348 -5.1289,2.3848c-2.0781,-0.7598 -3.1445,-3.0566 -2.3867,-5.1309l18.7227,-51.2304l23.0898,36.6016l28.5859,-50.1562l27.3476,83.7129l14.0195,-45.1602c0.6525,-2.1075 2.8712,-3.297 5.0079,-2.6349Z"></path><path fill="#1C71DA" d="M162.354,16.3157v-16h-104v16h-26.0664v200h160v-200h-29.9336Zm-96,-8h88v8v16h-88v-16v-8Zm117.934,200h-144v-184h18.0664v16h12v14c0,2.209 1.7891,4 4,4c2.2109,0 4,-1.791 4,-4v-14h60v14c0,2.209 1.7891,4 4,4c2.2109,0 4,-1.791 4,-4v-14h16v-16h21.9336v184Z"></path><path fill="#1C71DA" d="M148.163,147.712l-27.3476,-83.7129l-28.586,50.1562l-23.0898,-36.6015l-18.7227,51.2305c-0.7578,2.0742 0.3086,4.3711 2.3867,5.1309c2.0703,0.75 4.3711,-0.3105 5.1289,-2.3848l13.1289,-35.9337l21.5195,34.1055l26.2422,-46.0469l29.5351,90.4121l21.4648,-69.1445c0.6562,-2.1094 -0.5234,-4.3516 -2.6328,-5.0059c-2.1367,-0.6621 -4.3555,0.5273 -5.0078,2.6348l-14.0194,45.1602Z"></path><path fill="#FF5D5D" d="M112,192.002c-1.0234,0 -2.0469,-0.3906 -2.8281,-1.1714c-1.5625,-1.5625 -1.5625,-4.0952 0,-5.6572l14.1426,-14.1421c1.5605,-1.5615 4.0938,-1.5615 5.6562,0c1.5625,1.5625 1.5625,4.0952 0,5.6572l-14.1426,14.1421c-0.7802,0.7808 -1.8047,1.1714 -2.8281,1.1714Z"></path><path fill="#FF5D5D" d="M126.143,192c-1.0234,0 -2.0479,-0.3906 -2.8281,-1.1714l-14.1426,-14.1426c-1.5625,-1.5625 -1.5625,-4.0947 0,-5.6572c1.5605,-1.5615 4.0957,-1.5615 5.6562,0l14.1426,14.1426c1.5625,1.5625 1.5625,4.0947 0,5.6572c-0.7803,0.7808 -1.8047,1.1714 -2.8281,1.1714Z"></path><path fill="#00D40B" d="M18,176.002c-7.7197,0 -14,-6.2803 -14,-14c0,-7.7197 6.2803,-14 14,-14c7.7197,0 14,6.2803 14,14c0,7.7197 -6.2803,14 -14,14Zm0,-20c-3.3086,0 -6,2.6914 -6,6c0,3.3086 2.6914,6 6,6c3.3086,0 6,-2.6914 6,-6c0,-3.3086 -2.6914,-6 -6,-6Z"></path><path fill="#FFC504" d="M15.3145,30.6267c-1.0234,0 -2.0469,-0.3906 -2.8281,-1.1714l-11.3145,-11.3135c-0.75,-0.75 -1.1719,-1.7675 -1.1719,-2.8286c0,-1.0611 0.4219,-2.0786 1.1719,-2.8286l11.3144,-11.3135c1.5625,-1.5615 4.0938,-1.5615 5.6562,8.88178e-16l11.3135,11.3135c1.5625,1.5625 1.5625,4.0947 0,5.6572l-11.3134,11.3135c-0.7803,0.7808 -1.8047,1.1714 -2.8281,1.1714Zm-5.6573,-15.3135l5.6572,5.6567l5.6562,-5.6567l-5.6562,-5.6567l-5.6572,5.6567Z"></path></g></svg>