<?xml version="1.0" encoding="UTF-8"?><svg version="1.1" viewBox="0 0 52 52" xmlns="http://www.w3.org/2000/svg" xmlns:xlink="http://www.w3.org/1999/xlink"><!--Generated by IJSVG (https://github.com/iconjar/IJSVG)--><path d="M25.1,35.9l-5.7,4.9l1.4,-3.6l-6.7,5.5l1,-3.3l-7.7,5.2l5.2,-7.7l-3.3,1l5.5,-6.7l-3.6,1.4l4.9,-5.7Z" fill="#FBB566"></path><path fill="#B88CBF" d="M18.7,26.6l-16.2,2.1l6.3,-7.1c1.5,-1.7 3.8,-2.6 6.1,-2.2l8.2,1.2l-4.4,6Z"></path><path opacity="0.10" d="M15,19.4c-2.3,-0.3 -4.6,0.5 -6.1,2.2l-6.3,7.1l4,-0.5l3.9,-4.4c1.5,-1.7 3.9,-2.6 6.1,-2.2l5.3,0.8l1.3,-1.7l-8.2,-1.3Z" fill="#010101"></path><path fill="#B88CBF" d="M25.4,33.3l-2.1,16.2l7.1,-6.3c1.7,-1.5 2.6,-3.8 2.2,-6.1l-1.2,-8.2l-6,4.4Z"></path><path opacity="0.10" d="M32.6,37c0.3,2.3 -0.5,4.6 -2.2,6.1l-7.1,6.3l0.5,-4l4.4,-3.9c1.7,-1.5 2.6,-3.9 2.2,-6.1l-0.8,-5.3l1.7,-1.3l1.3,8.2Z" fill="#010101"></path><path fill="#B8CFE5" d="M17.4,21.3c-0.7,1.3 -1.3,2.5 -1.9,3.9c-0.3,0.6 -0.5,1.3 -0.8,1.9l10.2,10.2c0.7,-0.2 1.3,-0.5 1.9,-0.8c1.3,-0.6 2.6,-1.2 3.9,-1.9c4.4,-2.5 8.1,-5.8 10.6,-9c5.1,-6.3 8.2,-14.4 8.2,-23.1c-13.6,0 -25.8,7.5 -32.1,18.8Z"></path><path d="M16.1,23.8c-0.5,1.1 -0.9,2.3 -1.3,3.3l10.2,10.2c1.1,-0.4 2.2,-0.8 3.3,-1.3l-12.2,-12.2Z" fill="#F05B76"></path><path opacity="0.10" fill="#010101" d="M17.4,21.3c-0.7,1.3 -1.3,2.6 -1.9,3.9c-0.3,0.6 -0.5,1.3 -0.8,1.9l2,2c0.2,-0.7 0.5,-1.3 0.8,-1.9c2.3,-5.6 5.8,-10.4 10.8,-14.5c5.8,-4.7 13.2,-7.7 21.1,-8.1c0,-0.7 0.1,-1.3 0.1,-2c-12.8,-0.1 -25.4,6.7 -32.1,18.7Z"></path><path d="M42.2,2.9c2.4,-0.2 4.9,-0.4 7.3,-0.4c0,2.5 -0.1,4.9 -0.4,7.3l-6.9,-6.9Z" fill="#3F5176"></path><path fill="#41C1F0" d="M39.1,17.8c5.8,-0.2 6.2,-8.3 0.9,-9.4c-1,-0.2 -2.2,-0.1 -3.2,0.4c-4.5,2.4 -2.6,9.1 2.3,9Z"></path><path opacity="0.10" d="M36.3,17c-2.2,-3.1 0.1,-7.5 3.9,-7.5c1,0 1.9,0.3 2.6,0.8c-0.7,-1 -1.7,-1.7 -2.9,-1.9c-5.1,-1.1 -7.9,5.8 -3.6,8.6Z" fill="#010101"></path><path opacity="0.20" fill="#FFF" d="M39.9,8.4l0.1,9.2c0.4,-0.1 0.7,-0.2 1.1,-0.4l-0.1,-8.4c-0.3,-0.2 -0.7,-0.3 -1.1,-0.4Z"></path><path opacity="0.20" d="M36.8,8.8l0.1,8.4c0.7,0.3 1.4,0.5 2.2,0.5l-0.1,-9.5c-0.8,0.1 -1.6,0.3 -2.2,0.6Z" fill="#FFF"></path><path fill="#2A3D66" d="M39.1,18.8c3.5,-0.1 5.3,-2.7 5.5,-5.1c0.5,-5 -4.5,-7.7 -8.3,-5.7c-2.4,1.3 -3.5,3.8 -2.9,6.4c0.7,2.6 2.9,4.4 5.5,4.4h0.2Zm3.6,-5.4c-0.1,1.5 -1.2,3.3 -3.6,3.3h-0.1c-2.1,0 -3.3,-1.5 -3.6,-2.8c-0.3,-1.4 0,-3.2 1.9,-4.2c2.4,-1.2 5.7,0.4 5.4,3.7Z"></path><path d="M49.5,1.5c-12.9,0 -24.8,6.5 -31.7,17.3c-1.2,0 -6,-1.9 -9.7,2.2l-6.3,7.1c-0.3,0.3 -0.3,0.8 -0.1,1.1c0.2,0.3 0.5,0.5 0.9,0.5c0,0 0.1,0 0.1,0l11.3,-1.5l-3.3,3.8c-0.2,0.3 -0.2,0.6 0,0.9c0.2,0.3 0.6,0.4 0.9,0.3l0.9,-0.3l-3.7,4.5c-0.2,0.3 -0.2,0.6 0,0.9c0.2,0.3 0.5,0.4 0.8,0.3l1.3,-0.4l-4,5.9c-0.2,0.3 -0.2,0.7 0.1,1c0.2,0.1 0.3,0.2 0.5,0.2c0.2,0 0.3,0 0.4,-0.1l5.9,-4l-0.4,1.3c-0.1,0.3 0,0.6 0.3,0.8c0.3,0.2 0.6,0.2 0.9,0l4.5,-3.7l-0.3,0.9c-0.1,0.3 0,0.7 0.3,0.9c0.3,0.2 0.7,0.2 0.9,0l3.8,-3.3l-1.5,11.3c-0.1,0.4 0.2,0.8 0.5,1c0.4,0.2 0.8,0.1 1.1,-0.1l7.1,-6.3c2,-1.8 3,-4.4 2.6,-7l-0.4,-2.6c3.5,-2.2 6.6,-5 8.9,-8c5.4,-6.7 8.4,-15.1 8.4,-23.8c-7.10543e-15,-0.6 -0.5,-1.1 -1,-1.1Zm-17.9,35.7c0.3,2 -0.4,3.9 -1.9,5.3l-5.1,4.5l1.2,-9c1.5,-0.5 3.5,-1.4 5.4,-2.5c0,0 0.1,-0.1 0.2,-0.1l0.2,1.8Zm-15,-16.6c-0.1,0.2 -1.2,2.1 -2,4.1c-0.2,0.5 -0.4,1 -0.6,1.5l-9,1.2l4.5,-5.1c2.4,-2.7 5.2,-1.9 7.1,-1.7Zm8.6,15.5c-0.1,-0.1 -1.9,-1.9 -9.3,-9.3c5.6,-14.5 18.7,-22.9 32.6,-23.3c-0.2,7.9 -2.9,15.3 -8,21.5c-3.6,4.6 -9,8.6 -15.3,11.1Zm-4,2.2l0.3,-0.8c0.1,-0.3 0,-0.7 -0.3,-0.9c-0.3,-0.2 -0.7,-0.2 -0.9,0l-4.8,3.9l0.3,-0.9c0.1,-0.3 0,-0.6 -0.3,-0.8c-0.3,-0.2 -0.6,-0.2 -0.9,0l-4.5,3l3,-4.5c0.2,-0.3 0.2,-0.6 0,-0.9c-0.1,-0.2 -0.4,-0.3 -0.6,-0.3c-0.1,0 -0.2,0 -0.2,0l-0.9,0.3l3.9,-4.8c0.2,-0.3 0.2,-0.6 0,-0.9c-0.2,-0.3 -0.6,-0.4 -0.9,-0.3l-0.8,0.3l1.5,-1.8l7.7,7.7l-1.6,1.7Z" fill="#2A3D66"></path></svg>