<svg width="57" height="27" viewBox="0 0 57 27" fill="none" xmlns="http://www.w3.org/2000/svg">
<path d="M16.625 26.6051H14.25V7.44362C14.9815 6.89499 15.7676 6.42474 16.625 6.09937V26.6051ZM23.75 26.6051H26.125V4.69812C25.5811 5.32749 25.0729 5.99962 24.6501 6.73349L23.75 6.29649V26.6051ZM19 26.6051H21.375V5.59112C20.1685 5.40349 19.8954 5.47237 19 5.56737V26.6051ZM9.5 26.6051H11.875V9.93262C11.134 11.0204 10.5569 12.2387 10.2315 13.5782L9.5 13.146V26.6051ZM2.375 14.1364C0.93575 15.4355 0 17.3521 0 19.5229C0 21.6936 0.93575 23.6102 2.375 24.9094V14.1364ZM47.2126 12.5427C46.7281 5.80487 41.5031 0.480118 35.0597 0.480118C32.6325 0.480118 30.3953 1.25912 28.5 2.56299V26.6051H50.0864C53.903 26.6051 57 23.2967 57 19.2284C57 13.925 51.851 10.2699 47.2126 12.5427ZM7.125 12.4786C6.40775 12.4216 5.87575 12.4074 4.75 12.7684V26.2797C5.80925 26.6194 6.2605 26.6075 7.125 26.6075V12.4786Z" fill="#BDBDBD"/>
</svg>
