<svg width="39" height="39" viewBox="0 0 39 39" fill="none" xmlns="http://www.w3.org/2000/svg">
<path d="M34.4173 10.2907C36.3288 15.33 35.5717 21.7082 31.8039 27.6361C28.7693 32.4384 24.2303 36.0943 19.3935 38.1243C20.7054 36.9856 21.8339 35.5917 22.8697 34.0701C27.0248 27.9913 27.884 21.3776 25.772 16.2813C25.7686 16.2838 25.7663 16.2854 25.763 16.2869C19.6418 22.0518 12.1446 26.5785 6.08764 29.8746C5.06645 30.6103 3.86152 31.0903 2.76645 31.5882C8.19838 27.2888 15.3197 20.2216 17.4313 17.6362C10.0819 22.6368 1.3036 26.7303 1.55837 26.5468C12.7722 18.5681 19.7078 10.569 19.7078 10.569C19.9214 10.3019 20.0965 10.0973 20.2496 9.9348C19.7914 9.66268 19.3105 9.4112 18.8066 9.18331C13.4582 6.73567 6.80527 7.45563 0.911383 10.4409C7.73673 2.42492 18.6928 -1.20174 26.7884 2.36966C27.0071 2.464 27.222 2.5628 27.4322 2.66589C27.4669 2.6452 27.5027 2.62468 27.5394 2.60432C33.7426 -0.892928 39.3637 1.26071 38.1768 1.63092C33.1286 3.2543 33.8365 7.89522 34.4174 10.2906L34.4173 10.2907Z" fill="url(#paint0_linear)"/>
<defs>
<linearGradient id="paint0_linear" x1="0.18134" y1="14.928" x2="35.2239" y2="20.6293" gradientUnits="userSpaceOnUse">
<stop stop-color="#F88A36"/>
<stop offset="1" stop-color="#FD2020"/>
</linearGradient>
</defs>
</svg>
