<?xml version="1.0" encoding="UTF-8"?><svg version="1.1" viewBox="0 0 224 219.089" xmlns="http://www.w3.org/2000/svg" xmlns:xlink="http://www.w3.org/1999/xlink"><!--Generated by IJSVG (https://github.com/iconjar/IJSVG)--><path d="M147.976,151.089h-115.953c-15.4532,0 -28.0236,12.5624 -28.0236,28c0,15.4377 12.5704,28 28.0236,28h115.953c15.4532,0 28.0236,-12.5623 28.0236,-28c0,-15.4376 -12.5704,-28 -28.0236,-28Z" fill="#1C71DA"></path><path fill="#5CB0FF" d="M147.976,199.089h-115.953c-11.0412,0 -20.0236,-8.9727 -20.0236,-20c0,-11.0272 8.9824,-20 20.0236,-20h115.953c11.0412,0 20.0236,8.9728 20.0236,20c0,11.0273 -8.9824,20 -20.0236,20Z"></path><g fill="#1C71DA"><path d="M152.066,175.089h-124.066c-2.2088,0 -4,1.7892 -4,4c0,2.2108 1.7912,4 4,4h124.066c2.2088,0 4,-1.7892 4,-4c0,-2.2107 -1.7912,-4 -4,-4Z"></path><path d="M223.943,122.805c-0.0068,-0.0964 0.03,-0.1852 0.016,-0.2828l-3.898,-27.2872c0.594,-0.65 1.136,-1.3516 1.58,-2.1348c1.572,-2.7772 1.9508,-6.0076 1.0664,-9.1016l-18.772,-65.6944c1.8924,-3.802 1.9552,-8.4512 -0.2596,-12.286c-1.6072,-2.7852 -4.1932,-4.7772 -7.2812,-5.6092c-2.994,-0.7968 -6.1172,-0.422 -8.832,1.0584l-100.361,41.6211h-19.2016c-2.2088,0 -4,1.7892 -4,4v48h-40v-12c0,-2.2108 -1.7912,-4 -4,-4c-2.2088,0 -4,1.7892 -4,4v12h-12c-2.2088,0 -4,1.7892 -4,4v40c0,2.2108 1.7912,4 4,4h64h76c2.2088,0 4,-1.7892 4,-4v-32c0,-0.508 -0.0976,-1.0116 -0.2852,-1.4844l-19.2828,-48.2067l52.9024,-25.3872l18.0912,58.4808c1.6076,5.1992 6.5508,8.6248 11.8128,8.6248c0.4228,0 0.848,-0.122 1.2732,-0.1672l2.8772,20.14h-39.3888v-8c0,-2.2108 -1.7912,-4 -4,-4c-2.2088,0 -4,1.7892 -4,4v12c0,0.0604 0.0316,0.1105 0.0344,0.1704c0.0184,0.434 0.0964,0.8636 0.258,1.2784c0.018,0.0448 0.0228,0.094 0.042,0.138c0.0052,0.0124 0.006,0.026 0.0112,0.038l16,36c0.6408,1.4456 2.0744,2.3752 3.6544,2.3752h32c2.2088,0 4,-1.7892 4,-4v-36c-2.84217e-14,-0.1004 -0.05,-0.1848 -0.0572,-0.2836Z"></path></g><path fill="#5CB0FF" d="M138.145,103.222h-42.1452v-52.1329h21.2912Z"></path><path d="M8,103.089h56v32h-56Z" fill="#D0E8FF"></path><path fill="#5CB0FF" d="M72,135.089v-36v-48h15.9616c0.0052,0 0.01,0 0.0148,0h0.0236v56.1328c0,2.2108 1.7912,4 4,4h48v23.8671h-68Z"></path><g fill="#D0E8FF"><path d="M123.715,45.6043c-0.6092,-1.5196 -2.08,-2.5156 -3.7148,-2.5156h-11.9112l82.7568,-34.3204c0.1604,-0.0664 0.3184,-0.1444 0.4688,-0.2344c0.918,-0.5272 1.9784,-0.6716 3.004,-0.3984c1.0252,0.2776 1.8868,0.9452 2.4296,1.8828c1.1252,1.9492 0.6036,4.7852 -1.0956,6.25l-70.1972,33.6864l-1.7404,-4.3504Z"></path><path d="M207.068,88.1239l-18.4404,-59.614l8.7104,-4.18l17.6772,61.8644c0.2892,1.0156 0.17,2.0664 -0.338,2.9608c-0.5076,0.9024 -1.3552,1.5468 -2.3884,1.8244c-2.174,0.574 -4.5644,-0.7269 -5.2208,-2.8556Z"></path><path d="M216,155.089h-25.4004l-12.4452,-28h37.8456Z"></path></g><path fill="#FF5D5D" d="M184,219.089c-1.0236,0 -2.0468,-0.3908 -2.828,-1.172c-1.5628,-1.5624 -1.5628,-4.0936 0,-5.656l14.1424,-14.1407c1.5624,-1.5624 4.094,-1.5624 5.6564,0c1.5624,1.5624 1.5624,4.0936 0,5.6564l-14.1428,14.1404c-0.7812,0.7811 -1.8044,1.1719 -2.828,1.1719Z"></path><path d="M198.142,219.089c-1.0232,0 -2.0468,-0.3908 -2.828,-1.172l-14.1424,-14.1404c-1.5628,-1.5628 -1.5628,-4.094 0,-5.6564c1.5624,-1.5624 4.0936,-1.5624 5.656,0l14.1428,14.1407c1.5624,1.5625 1.5624,4.0936 0,5.656c-0.7812,0.7813 -1.8048,1.1721 -2.8284,1.1721Z" fill="#FF5D5D"></path><path fill="#00D40B" d="M22,55.0886c-7.7188,0 -14,-6.2812 -14,-14c0,-7.7188 6.2812,-14 14,-14c7.7188,0 14,6.2812 14,14c0,7.7189 -6.2812,14 -14,14Zm0,-20c-3.3084,0 -6,2.6916 -6,6c0,3.3084 2.6916,6 6,6c3.3084,0 6,-2.6916 6,-6c0,-3.3083 -2.6916,-6 -6,-6Z"></path><path d="M79.3144,133.718c-1.0604,0 -2.078,-0.4216 -2.828,-1.1716l-11.3144,-11.3164c-0.75,-0.75 -1.172,-1.7696 -1.172,-2.8284c0,-1.0624 0.422,-2.078 1.172,-2.828l11.3144,-11.3124c1.5624,-1.5628 4.0936,-1.5628 5.656,0l11.3128,11.3124c1.5624,1.5624 1.5624,4.0936 0,5.6564l-11.3128,11.3164c-0.75,0.75 -1.7672,1.1716 -2.828,1.1716Zm-5.658,-15.3164l5.658,5.6604l5.6564,-5.6604l-5.6564,-5.656l-5.658,5.656Z" fill="#FFC504"></path></svg>