<svg width="512" height="512" viewBox="0 0 512 512" fill="none" xmlns="http://www.w3.org/2000/svg">
<path d="M126.933 369.951C126.933 369.951 180.8 412.8 257.6 412.8C334.4 412.8 388.267 369.951 388.267 369.951" stroke="black" stroke-width="10.175"/>
<path d="M112 297.21C112 297.21 205.333 409.6 257.6 409.6C309.867 409.6 403.201 297.21 403.201 297.21" stroke="black" stroke-width="10.175"/>
<path d="M112 207.297C112 207.297 205.333 409.6 257.6 409.6C309.867 409.6 403.201 207.297 403.201 207.297" stroke="black" stroke-width="10.175"/>
<path d="M171.734 128.624C171.734 128.624 230.4 409.6 257.6 409.6C284.8 409.6 343.466 128.624 343.466 128.624" stroke="black" stroke-width="10.175"/>
<path d="M258.667 409.6V102.4" stroke="black" stroke-width="10.175"/>
<rect x="7" y="7" width="498" height="498" rx="249" stroke="black" stroke-width="14"/>
</svg>
