<svg xmlns="http://www.w3.org/2000/svg" viewBox="0 0 1024 1024" fill="none">
  <rect width="1024" height="1024" rx="224" fill="url(#tuistBg)"/>
  <g transform="translate(224 208) scale(1.055)">
    <path fill-rule="evenodd" clip-rule="evenodd" fill="#ffffff" d="M543.037 442.847C398.499 603.401 147.531 603.368 3.02466 442.847C10.8487 426.13 20.1747 410.292 30.8357 395.466C59.2727 417.24 89.6657 436.142 121.612 450.937C88.6757 411.925 60.8357 368.2 36.9327 325.958C25.7187 305.363 15.3157 284.474 5.56566 263.327C14.7617 244.654 25.8807 227.09 38.6297 210.861L39.1177 210.635C68.6597 268.638 102.928 324.851 144.564 374.514C149.66 380.563 154.85 386.501 160.132 392.328C128.493 298.669 109.017 201.683 94.1227 104.562C109.188 93.2548 125.36 83.3168 142.478 74.9728C157.804 152.402 176.845 229.111 201.2 303.31C211.943 335.253 223.379 367 236.891 397.585L246.131 4.45576C254.999 3.64176 263.966 3.24976 273.031 3.24976C282.097 3.24976 291.063 3.64176 299.931 4.45576L309.17 397.471C322.522 367.13 334.243 335.454 344.862 303.31C369.218 229.111 388.259 152.402 403.584 74.9728C420.702 83.3168 436.874 93.2548 451.939 104.562C437.057 201.603 417.601 298.511 386.008 392.099C391.274 386.291 396.441 380.416 401.498 374.514C443.135 324.851 477.402 268.638 506.945 210.635L507.432 210.861C520.149 227.058 531.268 244.59 540.461 263.26C511.145 326.292 472.705 394.269 424.666 450.828C456.526 436.05 486.845 417.188 515.227 395.466C525.887 410.292 535.214 426.13 543.037 442.847Z"/>
  </g>
  <defs>
    <linearGradient id="tuistBg" x1="512" y1="0" x2="512" y2="1024" gradientUnits="userSpaceOnUse">
      <stop stop-color="#AF91F6"/>
      <stop offset="1" stop-color="#6C3EC4"/>
    </linearGradient>
  </defs>
</svg>
