<svg class="icon icon-tabler icons-tabler-outline icon-tabler-alert-hexagon" stroke-linejoin="round" stroke-linecap="round" width="24" height="24" viewBox="0 0 24 24" fill="none" xmlns="http://www.w3.org/2000/svg">
<path d="M2.25 8.21729C2.25 7.13927 2.83637 6.14976 3.77734 5.62354L10.5273 1.64404L10.5459 1.6333C11.0013 1.3822 11.5131 1.25049 12.0332 1.25049C12.4881 1.25052 12.9367 1.3511 13.3467 1.54443L13.5205 1.6333L13.5391 1.64404L20.2891 5.62354C20.3376 5.65214 20.3801 5.68776 20.4199 5.7251C21.2514 6.27646 21.7547 7.2122 21.75 8.21826V15.5024C21.7499 16.572 21.1712 17.5533 20.2422 18.0825L20.2432 18.0835L13.4932 22.354C13.4801 22.3622 13.4666 22.37 13.4531 22.3774C13.0079 22.6219 12.508 22.7505 12 22.7505C11.492 22.7505 10.9921 22.6219 10.5469 22.3774C10.5334 22.37 10.5199 22.3622 10.5068 22.354L3.75684 18.0835H3.75586C3.30724 17.8286 2.93196 17.462 2.66797 17.0181C2.39559 16.5599 2.25107 16.0365 2.25 15.5034V8.21729ZM12.0098 15.2505C12.424 15.2505 12.7598 15.5863 12.7598 16.0005C12.7595 16.4145 12.4238 16.7505 12.0098 16.7505H12C11.5859 16.7505 11.2502 16.4145 11.25 16.0005C11.25 15.5863 11.5858 15.2505 12 15.2505H12.0098ZM11.25 12.0005V8.00049C11.25 7.58627 11.5858 7.25049 12 7.25049C12.4142 7.25049 12.75 7.58627 12.75 8.00049V12.0005C12.7498 12.4145 12.4141 12.7505 12 12.7505C11.5859 12.7505 11.2502 12.4145 11.25 12.0005ZM3.75 15.5005L3.76367 15.6978C3.79037 15.8927 3.85581 16.0812 3.95703 16.2515C4.09203 16.4785 4.2858 16.6648 4.51758 16.7915C4.53146 16.7991 4.54522 16.8075 4.55859 16.8159L11.2793 21.0679C11.5008 21.1873 11.7483 21.2505 12 21.2505C12.2514 21.2505 12.4985 21.187 12.7197 21.0679L19.4414 16.8159L19.4805 16.7925C19.9577 16.5302 20.2499 16.0353 20.25 15.5024V8.21338C20.2533 7.67961 19.9678 7.18614 19.5039 6.92236C19.4565 6.89537 19.4144 6.86201 19.375 6.82666L12.7959 2.94678L12.6152 2.86182C12.4305 2.78859 12.2331 2.75051 12.0332 2.75049C11.7665 2.75049 11.5041 2.81808 11.2705 2.94678L4.53906 6.9165C4.53266 6.92028 4.52604 6.92367 4.51953 6.92725C4.04182 7.18982 3.75 7.68468 3.75 8.21729V15.5005Z" fill="currentColor"/>
</svg>
