<svg class="icon icon-tabler icons-tabler-outline icon-tabler-alert-triangle" stroke-linejoin="round" stroke-linecap="round" width="24" height="24" viewBox="0 0 24 24" fill="none" xmlns="http://www.w3.org/2000/svg">
<path d="M11.9995 1.91797C12.4575 1.91797 12.9081 2.03605 13.3071 2.26074C13.6563 2.45746 13.9566 2.73011 14.1851 3.05762L14.2788 3.20117L14.2808 3.20508L22.3862 16.7412L22.3931 16.752C22.6251 17.1546 22.7474 17.6115 22.7485 18.0762C22.7496 18.5409 22.6291 18.9976 22.3989 19.4014C22.1687 19.8053 21.8367 20.1421 21.436 20.3779C21.0355 20.6137 20.5804 20.7407 20.1157 20.7461H3.88429C3.41931 20.7408 2.96374 20.6138 2.563 20.3779C2.16229 20.142 1.83036 19.8054 1.60011 19.4014C1.36984 18.9973 1.24917 18.5393 1.2505 18.0742C1.25191 17.6093 1.37541 17.1526 1.60792 16.75L9.71339 3.21484C9.71598 3.21036 9.7185 3.20562 9.7212 3.20117C9.95857 2.80943 10.2938 2.48556 10.6929 2.26074C11.0918 2.03613 11.5418 1.91805 11.9995 1.91797ZM11.9995 3.41797C11.7995 3.41805 11.6025 3.46922 11.4282 3.56738C11.2559 3.66452 11.1108 3.8041 11.0073 3.97266C11.0067 3.97375 11.007 3.97547 11.0064 3.97656L2.90675 17.501C2.80529 17.6769 2.75108 17.876 2.7505 18.0791C2.74994 18.2821 2.80241 18.4818 2.90284 18.6582C3.00338 18.8346 3.14879 18.9819 3.32374 19.085C3.49887 19.1881 3.69866 19.2438 3.90187 19.2461H20.0982C20.3013 19.2438 20.5003 19.188 20.6753 19.085C20.8502 18.982 20.9956 18.8355 21.0962 18.6592C21.1968 18.4827 21.2491 18.2822 21.2485 18.0791C21.248 17.8778 21.1949 17.6806 21.0952 17.5059L12.9956 3.97852L12.9097 3.85645C12.8167 3.73986 12.7025 3.64105 12.5718 3.56738C12.3974 3.46914 12.1997 3.41797 11.9995 3.41797ZM12.0103 15.25C12.4243 15.2501 12.7602 15.586 12.7603 16C12.7603 16.4141 12.4244 16.7499 12.0103 16.75H11.9995C11.5855 16.7497 11.2495 16.4141 11.2495 16C11.2496 15.586 11.5856 15.2503 11.9995 15.25H12.0103ZM11.2495 13V9C11.2496 8.58603 11.5856 8.25026 11.9995 8.25C12.4137 8.25 12.7494 8.58587 12.7495 9V13C12.7495 13.4142 12.4137 13.75 11.9995 13.75C11.5855 13.7497 11.2495 13.4141 11.2495 13Z" fill="currentColor"/>
</svg>
