<svg class="icon icon-tabler icons-tabler-outline icon-tabler-alert-triangle-off" stroke-linejoin="round" stroke-linecap="round" width="24" height="24" viewBox="0 0 24 24" fill="none" xmlns="http://www.w3.org/2000/svg">
<path d="M2.46925 2.46973C2.76214 2.17683 3.23788 2.17683 3.53077 2.46973L8.28859 7.22754C8.33516 7.26349 8.37478 7.30534 8.41066 7.34961L20.5025 19.4414C20.5199 19.4572 20.5364 19.4738 20.5523 19.4912L21.5308 20.4697C21.8234 20.7625 21.8233 21.2374 21.5308 21.5303C21.2379 21.8232 20.7621 21.8232 20.4692 21.5303L19.6841 20.7451H3.88429C3.4193 20.7398 2.96373 20.6129 2.563 20.377C2.16229 20.1411 1.83036 19.8044 1.60011 19.4004C1.36984 18.9963 1.24917 18.5383 1.2505 18.0732C1.2519 17.6083 1.37541 17.1517 1.60792 16.749L1.61378 16.7383L6.88136 7.94238L2.46925 3.53027C2.17673 3.23741 2.17662 2.76253 2.46925 2.46973ZM2.90577 17.501C2.80476 17.6766 2.75108 17.8755 2.7505 18.0781C2.74995 18.2811 2.80241 18.4808 2.90284 18.6572C3.00338 18.8337 3.14878 18.9809 3.32374 19.084C3.49888 19.1871 3.69866 19.2428 3.90187 19.2451H18.1841L7.97511 9.03613L2.90577 17.501ZM11.9995 1.91895C12.4575 1.91895 12.9081 2.03702 13.3071 2.26172C13.6563 2.45844 13.9566 2.73109 14.1851 3.05859L14.2788 3.20215L14.2808 3.20605L22.3921 16.75C22.6061 17.1202 22.7284 17.5367 22.7476 17.9639C22.7659 18.3775 22.4454 18.7275 22.0317 18.7461C21.618 18.7646 21.2671 18.4441 21.2485 18.0303C21.2401 17.8439 21.1867 17.6625 21.0933 17.501L12.9956 3.97949L12.9097 3.85742C12.8167 3.74084 12.7025 3.64203 12.5718 3.56836C12.3974 3.47011 12.1997 3.41895 11.9995 3.41895C11.7995 3.41903 11.6025 3.47019 11.4282 3.56836C11.254 3.66656 11.1081 3.80844 11.0044 3.97949L9.96632 5.71289C9.75346 6.0679 9.2932 6.18321 8.938 5.9707C8.58267 5.75783 8.46634 5.29674 8.67921 4.94141L9.71925 3.20605L9.7212 3.20215C9.95857 2.81041 10.2938 2.48654 10.6929 2.26172C11.0918 2.03711 11.5418 1.91903 11.9995 1.91895ZM12.0103 15.25C12.4243 15.2501 12.7602 15.586 12.7603 16C12.7603 16.4141 12.4244 16.7499 12.0103 16.75H11.9995C11.5855 16.7497 11.2495 16.4141 11.2495 16C11.2496 15.586 11.5856 15.2503 11.9995 15.25H12.0103ZM11.2495 8V7C11.2496 6.58602 11.5856 6.25026 11.9995 6.25C12.4137 6.25 12.7494 6.58586 12.7495 7V8C12.7495 8.41421 12.4137 8.75 11.9995 8.75C11.5855 8.74974 11.2495 8.41406 11.2495 8Z" fill="currentColor"/>
</svg>
