<svg width="18" height="10" viewBox="0 0 18 10" fill="none" xmlns="http://www.w3.org/2000/svg">
<path fill-rule="evenodd" clip-rule="evenodd" d="M1.02513 1.02513C1.6815 0.368749 2.57174 0 3.5 0C4.42826 0 5.3185 0.368749 5.97487 1.02513C6.63125 1.6815 7 2.57174 7 3.5V9C7 9.55229 6.55228 10 6 10C5.44772 10 5 9.55229 5 9V7H2V9C2 9.55229 1.55228 10 1 10C0.447715 10 0 9.55229 0 9V3.5C0 2.57174 0.368749 1.6815 1.02513 1.02513ZM2 5H5V3.5C5 3.10218 4.84196 2.72064 4.56066 2.43934C4.27936 2.15804 3.89782 2 3.5 2C3.10218 2 2.72064 2.15804 2.43934 2.43934C2.15804 2.72064 2 3.10218 2 3.5V5ZM8 1C8 0.447715 8.44772 0 9 0H12C12.7957 0 13.5587 0.316071 14.1213 0.87868C14.6839 1.44129 15 2.20435 15 3V4C15 4.79565 14.6839 5.55871 14.1213 6.12132C13.5587 6.68393 12.7957 7 12 7H10V9C10 9.55229 9.55229 10 9 10C8.44772 10 8 9.55229 8 9V1ZM10 5H12C12.2652 5 12.5196 4.89464 12.7071 4.70711C12.8946 4.51957 13 4.26522 13 4V3C13 2.73478 12.8946 2.48043 12.7071 2.29289C12.5196 2.10536 12.2652 2 12 2H10V5ZM17 0C17.5523 0 18 0.447715 18 1V9C18 9.55229 17.5523 10 17 10C16.4477 10 16 9.55229 16 9V1C16 0.447715 16.4477 0 17 0Z" fill="currentColor"/>
</svg>
