<svg class="icon icon-tabler icons-tabler-outline icon-tabler-api" stroke-linejoin="round" stroke-linecap="round" width="24" height="24" viewBox="0 0 24 24" fill="none" xmlns="http://www.w3.org/2000/svg">
<path d="M8.25 10.5C8.25 10.0359 8.06549 9.59088 7.7373 9.2627C7.40912 8.93451 6.96413 8.75 6.5 8.75C6.03587 8.75 5.59088 8.93451 5.2627 9.2627C4.93451 9.59088 4.75 10.0359 4.75 10.5V12.25H8.25V10.5ZM16.25 10C16.25 9.66848 16.1182 9.35063 15.8838 9.11621C15.6494 8.88179 15.3315 8.75 15 8.75H12.75V12.25H15C15.3315 12.25 15.6494 12.1182 15.8838 11.8838C16.1182 11.6494 16.25 11.3315 16.25 11V10ZM19.25 16V8C19.25 7.58579 19.5858 7.25 20 7.25C20.4142 7.25 20.75 7.58579 20.75 8V16C20.75 16.4142 20.4142 16.75 20 16.75C19.5858 16.75 19.25 16.4142 19.25 16ZM9.75 16C9.75 16.4142 9.41421 16.75 9 16.75C8.58579 16.75 8.25 16.4142 8.25 16V13.75H4.75V16C4.75 16.4142 4.41421 16.75 4 16.75C3.58579 16.75 3.25 16.4142 3.25 16V10.5C3.25 9.63805 3.59266 8.81164 4.20215 8.20215C4.81164 7.59266 5.63805 7.25 6.5 7.25C7.36195 7.25 8.18836 7.59266 8.79785 8.20215C9.40734 8.81164 9.75 9.63805 9.75 10.5V16ZM17.75 11C17.75 11.7293 17.4601 12.4286 16.9443 12.9443C16.4286 13.4601 15.7293 13.75 15 13.75H12.75V16C12.75 16.4142 12.4142 16.75 12 16.75C11.5858 16.75 11.25 16.4142 11.25 16V8C11.25 7.58579 11.5858 7.25 12 7.25H15C15.7293 7.25 16.4286 7.53994 16.9443 8.05566C17.4601 8.57139 17.75 9.27065 17.75 10V11Z" fill="currentColor"/>
</svg>
