<svg class="icon icon-tabler icons-tabler-outline icon-tabler-arrows-exchange-2" stroke-linejoin="round" stroke-linecap="round" width="24" height="24" viewBox="0 0 24 24" fill="none" xmlns="http://www.w3.org/2000/svg">
<path d="M21 13.25C21.3034 13.25 21.5773 13.4326 21.6934 13.7129C21.8094 13.9931 21.7448 14.3158 21.5303 14.5303L17.5303 18.5303C17.2374 18.8232 16.7626 18.8232 16.4697 18.5303C16.1768 18.2374 16.1768 17.7626 16.4697 17.4697L19.1895 14.75H7.00001C6.5858 14.75 6.25001 14.4142 6.25001 14C6.25001 13.5858 6.5858 13.25 7.00001 13.25H21ZM6.46974 5.46973C6.76263 5.17684 7.23739 5.17684 7.53029 5.46973C7.82318 5.76262 7.82318 6.23738 7.53029 6.53028L4.81056 9.25H17C17.4142 9.25 17.75 9.58579 17.75 10C17.75 10.4142 17.4142 10.75 17 10.75H3.00001C2.69667 10.75 2.42274 10.5674 2.30665 10.2871C2.19061 10.0069 2.25526 9.68421 2.46974 9.46973L6.46974 5.46973Z" fill="currentColor"/>
</svg>
