<svg class="icon icon-tabler icons-tabler-outline icon-tabler-arrows-exchange" stroke-linejoin="round" stroke-linecap="round" width="24" height="24" viewBox="0 0 24 24" fill="none" xmlns="http://www.w3.org/2000/svg">
<path d="M17 13.25C17.4142 13.25 17.75 13.5858 17.75 14C17.75 14.4142 17.4142 14.75 17 14.75H4.81056L7.53029 17.4697C7.82318 17.7626 7.82318 18.2374 7.53029 18.5303C7.23739 18.8232 6.76263 18.8232 6.46974 18.5303L2.46974 14.5303C2.25526 14.3158 2.19061 13.9931 2.30665 13.7129C2.42274 13.4326 2.69667 13.25 3.00001 13.25H17ZM16.4697 5.46973C16.7626 5.17684 17.2374 5.17684 17.5303 5.46973L21.5303 9.46973C21.7448 9.68421 21.8094 10.0069 21.6934 10.2871C21.5773 10.5674 21.3034 10.75 21 10.75H7.00001C6.5858 10.75 6.25001 10.4142 6.25001 10C6.25001 9.58579 6.5858 9.25 7.00001 9.25H19.1895L16.4697 6.53028C16.1768 6.23738 16.1768 5.76262 16.4697 5.46973Z" fill="currentColor"/>
</svg>
