<svg class="icon icon-tabler icons-tabler-outline icon-tabler-asset" stroke-linejoin="round" stroke-linecap="round" width="24" height="24" viewBox="0 0 24 24" fill="none" xmlns="http://www.w3.org/2000/svg">
<path d="M20.25 5C20.25 4.66848 20.1182 4.35063 19.8838 4.11621C19.6494 3.88179 19.3315 3.75 19 3.75C18.6685 3.75 18.3506 3.88179 18.1162 4.11621C17.8818 4.35063 17.75 4.66848 17.75 5C17.75 5.33152 17.8818 5.64937 18.1162 5.88379C18.3506 6.11821 18.6685 6.25 19 6.25C19.3315 6.25 19.6494 6.11821 19.8838 5.88379C20.1182 5.64937 20.25 5.33152 20.25 5ZM10.25 15C10.25 14.6685 10.1182 14.3506 9.88379 14.1162C9.64937 13.8818 9.33152 13.75 9 13.75C8.66848 13.75 8.35063 13.8818 8.11621 14.1162C7.88179 14.3506 7.75 14.6685 7.75 15C7.75 15.3315 7.88179 15.6494 8.11621 15.8838C8.35063 16.1182 8.66848 16.25 9 16.25C9.33152 16.25 9.64937 16.1182 9.88379 15.8838C10.1182 15.6494 10.25 15.3315 10.25 15ZM10.2178 8.3623C11.5552 8.60769 12.7985 9.25161 13.7734 10.2266C14.7505 11.2036 15.3945 12.4502 15.6387 13.791L18.9248 7.74609C18.2228 7.72689 17.5536 7.44229 17.0557 6.94434C16.5602 6.44892 16.2757 5.78407 16.2539 5.08594L10.2178 8.3623ZM3.75 15C3.75 16.3924 4.30352 17.7273 5.28809 18.7119C6.27265 19.6965 7.60761 20.25 9 20.25C10.3924 20.25 11.7273 19.6965 12.7119 18.7119C13.6965 17.7273 14.25 16.3924 14.25 15C14.25 13.6076 13.6965 12.2727 12.7119 11.2881C11.7273 10.3035 10.3924 9.75 9 9.75C7.60761 9.75 6.27265 10.3035 5.28809 11.2881C4.30352 12.2727 3.75 13.6076 3.75 15ZM11.75 15C11.75 15.7293 11.4601 16.4286 10.9443 16.9443C10.4286 17.4601 9.72935 17.75 9 17.75C8.27065 17.75 7.57139 17.4601 7.05566 16.9443C6.53994 16.4286 6.25 15.7293 6.25 15C6.25 14.2707 6.53994 13.5714 7.05566 13.0557C7.57139 12.5399 8.27065 12.25 9 12.25C9.72935 12.25 10.4286 12.5399 10.9443 13.0557C11.4601 13.5714 11.75 14.2707 11.75 15ZM21.75 5C21.75 5.34828 21.6818 5.68893 21.5566 6.00684C21.5418 6.05854 21.5228 6.10996 21.4961 6.15918L21.4502 6.24316C21.4302 6.28255 21.4086 6.32095 21.3867 6.35938L14.877 18.333C14.8575 18.3688 14.8337 18.4013 14.8096 18.4326C14.5235 18.9169 14.1779 19.369 13.7734 19.7734C12.5076 21.0393 10.7902 21.75 9 21.75C7.20979 21.75 5.49243 21.0393 4.22656 19.7734C2.96069 18.5076 2.25 16.7902 2.25 15C2.25 13.2098 2.96069 11.4924 4.22656 10.2266C4.65205 9.80108 5.12952 9.43971 5.64258 9.14551C5.66739 9.12782 5.69422 9.11159 5.72168 9.09668L17.4453 2.7334C17.6094 2.62086 17.7843 2.52647 17.9678 2.45215C18.0148 2.42915 18.0633 2.41285 18.1123 2.40039C18.3958 2.30359 18.6948 2.25 19 2.25C19.7293 2.25 20.4286 2.53994 20.9443 3.05566C21.4601 3.57139 21.75 4.27065 21.75 5Z" fill="currentColor"/>
</svg>
