<svg class="icon icon-tabler icons-tabler-outline icon-tabler-atom" stroke-linejoin="round" stroke-linecap="round" width="24" height="24" viewBox="0 0 24 24" fill="none" xmlns="http://www.w3.org/2000/svg">
<path d="M17.393 3.63405C18.2178 3.61112 19.0176 3.81541 19.601 4.39869H19.6019C20.1849 4.98216 20.3886 5.78204 20.3656 6.6067C20.3427 7.42915 20.0957 8.34792 19.6898 9.29518C19.3211 10.1556 18.8069 11.0693 18.1703 11.9983C18.807 12.9274 19.321 13.8415 19.6898 14.7024C20.0959 15.6502 20.3435 16.57 20.3666 17.3928C20.3896 18.2174 20.1857 19.0175 19.6029 19.6008L19.6019 19.6018C19.0185 20.1847 18.2186 20.3885 17.3939 20.3655C16.5713 20.3426 15.652 20.0957 14.7045 19.6897C13.8439 19.3209 12.9305 18.8068 12.0014 18.1702C11.0723 18.8069 10.1581 19.3209 9.29725 19.6897C8.34962 20.0957 7.43046 20.3433 6.6078 20.3665C5.78302 20.3896 4.98227 20.1857 4.39882 19.6028V19.6018C3.81568 19.0183 3.6112 18.2186 3.63417 17.3938C3.65708 16.5712 3.90493 15.6519 4.31092 14.7044C4.67962 13.844 5.19215 12.9301 5.8285 12.0012C5.19199 11.0724 4.67964 10.1579 4.31092 9.29713C3.90488 8.34923 3.65709 7.4296 3.63417 6.6067C3.61127 5.78187 3.81551 4.982 4.39882 4.39869C4.9823 3.81558 5.78204 3.61107 6.60682 3.63405C7.42936 3.65696 8.34794 3.90483 9.2953 4.3108C10.1556 4.67948 11.0696 5.19199 11.9984 5.82838C12.9273 5.19184 13.8418 4.67953 14.7025 4.3108C15.6505 3.90473 16.57 3.65697 17.393 3.63405ZM6.77772 13.2796C6.3256 13.9818 5.96033 14.6616 5.68885 15.2952C5.32723 16.1391 5.14906 16.8658 5.13319 17.4358C5.11743 18.0032 5.26165 18.3433 5.45936 18.5413L5.54042 18.6126C5.74565 18.7721 6.06858 18.8804 6.56581 18.8665C7.13607 18.8504 7.86253 18.6723 8.70643 18.3108C9.33995 18.0394 10.0192 17.6729 10.7211 17.221C10.1498 16.7648 9.5789 16.2665 9.01893 15.7288L8.64198 15.3596C7.96093 14.6796 7.33738 13.9802 6.77772 13.2796ZM17.2211 13.2776C16.6619 13.978 16.0401 14.6783 15.3598 15.3587C14.6801 16.0394 13.98 16.6615 13.2797 17.221C13.9821 17.6732 14.6616 18.0393 15.2953 18.3108C16.1393 18.6724 16.866 18.8506 17.4359 18.8665C18.0034 18.8822 18.3434 18.738 18.5414 18.5403C18.7387 18.3428 18.8825 18.0029 18.8666 17.4348C18.8506 16.8645 18.6726 16.1374 18.3109 15.2932C18.0394 14.6595 17.6732 13.9798 17.2211 13.2776ZM11.9984 7.68092C11.234 8.26638 10.459 8.94281 9.70155 9.70143V9.7024C8.94318 10.4608 8.26635 11.2357 7.68104 12.0003C8.26661 12.7649 8.94273 13.5404 9.70155 14.2981H9.70253C10.4607 15.0563 11.236 15.7324 12.0004 16.3176C12.7649 15.7321 13.5407 15.0568 14.2982 14.2981V14.2971C15.0565 13.5389 15.7325 12.7637 16.3178 11.9993C15.7323 11.2348 15.0569 10.4589 14.2982 9.70143H14.2973C13.5386 8.94282 12.7632 8.26635 11.9984 7.68092ZM11.2504 12.01V12.0003C11.2504 11.586 11.5862 11.2503 12.0004 11.2503C12.4144 11.2505 12.7504 11.5862 12.7504 12.0003V12.01C12.7503 12.424 12.4143 12.7598 12.0004 12.76C11.5862 12.76 11.2505 12.4242 11.2504 12.01ZM6.56483 5.13307C6.06833 5.11928 5.74593 5.2281 5.54042 5.38795L5.45936 5.45924C5.26177 5.65683 5.11736 5.99735 5.13319 6.56569C5.14913 7.13597 5.32828 7.86225 5.68983 8.70631C5.96119 9.33978 6.32685 10.0191 6.7787 10.721C7.33762 10.0209 7.96011 9.32181 8.64003 8.64186C9.31981 7.96102 10.0187 7.33712 10.7191 6.7776C10.0172 6.32572 9.33768 5.96009 8.70448 5.68873C7.86081 5.32723 7.1346 5.14894 6.56483 5.13307ZM17.434 5.13307C16.8637 5.14904 16.1374 5.32816 15.2933 5.68971C14.66 5.96103 13.9805 6.32585 13.2787 6.7776C13.9789 7.33663 14.6777 7.95982 15.3578 8.6399C16.0385 9.31952 16.6617 10.0188 17.2211 10.719C17.6731 10.0169 18.0395 9.33772 18.3109 8.70436C18.6724 7.86066 18.8507 7.13449 18.8666 6.56471C18.8824 5.99728 18.7382 5.65724 18.5404 5.45924C18.3428 5.26169 18.0022 5.11724 17.434 5.13307Z" fill="currentColor"/>
</svg>
