<svg width="16" height="16" viewBox="0 0 16 16" fill="none" xmlns="http://www.w3.org/2000/svg">
<path d="M12.4887 0.820357C13.2116 0.800279 13.942 0.978975 14.4817 1.5186H14.4825C15.0218 2.05834 15.2 2.78867 15.1799 3.5116C15.1598 4.23214 14.9441 5.02465 14.5997 5.82849C14.3022 6.5225 13.895 7.25497 13.3944 7.9989C13.8951 8.74293 14.3022 9.47576 14.5997 10.1701C14.9442 10.9743 15.1604 11.7671 15.1807 12.4878C15.201 13.2108 15.0226 13.9418 14.4833 14.4817L14.4825 14.4825C13.9427 15.0217 13.2124 15.2 12.4895 15.1799C11.7689 15.1598 10.9765 14.9441 10.1726 14.5997C9.47823 14.3021 8.74481 13.8952 8.00053 13.3944C7.25673 13.8949 6.52429 14.3022 5.83012 14.5997C5.0259 14.9442 4.23313 15.1605 3.51242 15.1807C2.78946 15.201 2.05842 15.0227 1.5186 14.4833V14.4825C0.979165 13.9427 0.800237 13.2125 0.820358 12.4895C0.840423 11.7689 1.0562 10.9764 1.4006 10.1726C1.69805 9.47836 2.10433 8.74466 2.60503 8.00053C2.10464 7.25687 1.69791 6.52417 1.4006 5.83012C1.05614 5.02597 0.840498 4.23313 0.820358 3.51241C0.800214 2.78929 0.978843 2.05836 1.5186 1.5186L1.62195 1.42094C2.14955 0.957021 2.83385 0.801497 3.5116 0.820357C4.23212 0.840424 5.02467 1.05614 5.8285 1.4006C6.52237 1.69795 7.25512 2.10458 7.99891 2.60502C8.74279 2.10444 9.47588 1.698 10.1701 1.4006C10.9745 1.05605 11.7678 0.840437 12.4887 0.820357ZM3.66948 9.42469C3.36908 9.91338 3.12277 10.3856 2.93299 10.8285C2.6378 11.5174 2.49846 12.096 2.48621 12.5359C2.47405 12.9729 2.5857 13.1926 2.69699 13.3041L2.74337 13.3456C2.86571 13.4411 3.08192 13.5248 3.46521 13.514C3.90551 13.5017 4.48498 13.3626 5.1742 13.0673C5.61703 12.8775 6.08796 12.6294 6.57638 12.3291C6.17137 11.9959 5.76776 11.6383 5.37114 11.2574L5.05457 10.9473C4.55572 10.4492 4.09253 9.93854 3.66948 9.42469ZM12.3291 9.42306C11.9066 9.93657 11.4455 10.4484 10.9473 10.9465L10.9465 10.9457C10.4487 11.4443 9.93826 11.9071 9.42469 12.33C9.91351 12.6305 10.3855 12.8774 10.8285 13.0673C11.5174 13.3625 12.096 13.5018 12.5359 13.514C12.973 13.5262 13.1926 13.4146 13.3041 13.3033L13.3456 13.2569C13.4411 13.1345 13.5248 12.9183 13.514 12.535C13.5017 12.0948 13.3625 11.516 13.0673 10.8269C12.8774 10.3837 12.6297 9.91187 12.3291 9.42306ZM7.99972 4.66394C7.41164 5.12294 6.81596 5.64743 6.23214 6.23214V6.23295C5.64777 6.81733 5.12274 7.41245 4.66394 8.00053C5.12295 8.58863 5.64741 9.18428 6.23214 9.76811H6.23296C6.81731 10.3525 7.41247 10.8775 8.00053 11.3363C8.58862 10.8773 9.1843 10.3528 9.76811 9.76811V9.7673C10.3527 9.18273 10.8774 8.58712 11.3363 7.9989C10.8774 7.411 10.3526 6.81576 9.76811 6.23214H9.7673C9.1829 5.64774 8.58778 5.12274 7.99972 4.66394ZM7.1672 8.00867V8.00053C7.1672 7.5403 7.5403 7.1672 8.00053 7.1672C8.46061 7.16739 8.83387 7.54041 8.83387 8.00053V8.00867C8.83379 8.46872 8.46056 8.84182 8.00053 8.842C7.54035 8.842 7.16728 8.46884 7.1672 8.00867ZM3.46521 2.48621C3.08287 2.47557 2.86694 2.55974 2.74419 2.65548L2.69699 2.69698C2.58591 2.80806 2.47401 3.02806 2.48621 3.46603C2.49854 3.90622 2.63784 4.48519 2.93299 5.1742C3.12266 5.61692 3.37016 6.08808 3.67029 6.57638C4.09272 6.06301 4.55499 5.55255 5.05294 5.05457C5.5509 4.55584 6.06185 4.09326 6.57557 3.67029C6.08681 3.36981 5.61467 3.12279 5.17176 2.93299C4.48305 2.63787 3.90495 2.49846 3.46521 2.48621ZM12.535 2.48621C12.0948 2.49847 11.5153 2.63775 10.8261 2.93299C10.3832 3.12274 9.91157 3.37 9.42306 3.67029C9.93657 4.09284 10.4475 4.55482 10.9457 5.05294L11.2566 5.36951C11.638 5.76614 11.9955 6.17034 12.3291 6.57557C12.6297 6.08666 12.8774 5.61479 13.0673 5.17176C13.3624 4.48303 13.5018 3.90496 13.514 3.46521C13.5247 3.0828 13.4405 2.86693 13.3448 2.74418L13.3033 2.69698C13.1922 2.58596 12.9727 2.47408 12.535 2.48621Z" fill="currentColor"/>
</svg>
