<svg class="icon icon-tabler icons-tabler-outline icon-tabler-bell" stroke-linejoin="round" stroke-linecap="round" width="24" height="24" viewBox="0 0 24 24" fill="none" xmlns="http://www.w3.org/2000/svg">
<path d="M14.25 17.75H9.74997V18C9.74997 18.5967 9.98719 19.1689 10.4091 19.5908C10.8311 20.0128 11.4032 20.25 12 20.25C12.5967 20.25 13.1688 20.0128 13.5908 19.5908C14.0127 19.1689 14.25 18.5967 14.25 18V17.75ZM12 3.75C11.6684 3.75 11.3506 3.88179 11.1162 4.11621C10.8818 4.35063 10.75 4.66848 10.75 5C10.75 5.29002 10.5825 5.55376 10.3203 5.67773C9.29497 6.16258 8.42108 6.91764 7.79196 7.86133C7.16516 8.80152 6.80524 9.894 6.74997 11.0225V14C6.74997 14.03 6.74771 14.06 6.74411 14.0898C6.65474 14.8281 6.39392 15.5355 5.98141 16.1543C5.95965 16.1869 5.93558 16.218 5.91305 16.25H18.0869C18.0643 16.218 18.0403 16.1869 18.0185 16.1543C17.606 15.5355 17.3452 14.8281 17.2558 14.0898C17.2522 14.06 17.25 14.03 17.25 14V11.0225C17.1947 9.894 16.8348 8.80152 16.208 7.86133C15.5788 6.91764 14.705 6.16258 13.6797 5.67773C13.4175 5.55376 13.25 5.29002 13.25 5C13.25 4.66848 13.1182 4.35063 12.8838 4.11621C12.6493 3.88179 12.3315 3.75 12 3.75ZM15.75 18C15.75 18.9946 15.3546 19.9481 14.6513 20.6514C13.9481 21.3546 12.9945 21.75 12 21.75C11.0054 21.75 10.0519 21.3546 9.3486 20.6514C8.64534 19.9481 8.24997 18.9946 8.24997 18V17.75H3.99997C3.65942 17.75 3.36124 17.5207 3.27438 17.1914C3.1876 16.862 3.33443 16.5155 3.63083 16.3477C4.0735 16.0969 4.45116 15.7456 4.73336 15.3223C5.00862 14.9094 5.18466 14.4388 5.24997 13.9473V11C5.24997 10.9883 5.25039 10.9766 5.25094 10.9648C5.31688 9.55996 5.76376 8.19952 6.54391 7.0293C7.24414 5.97895 8.18926 5.1178 9.29489 4.51758C9.39298 3.96757 9.65517 3.45613 10.0556 3.05566C10.5714 2.53994 11.2706 2.25 12 2.25C12.7293 2.25 13.4286 2.53994 13.9443 3.05566C14.3447 3.45609 14.606 3.96764 14.7041 4.51758C15.81 5.11781 16.7556 5.97871 17.456 7.0293C18.2362 8.19952 18.683 9.55996 18.749 10.9648C18.7495 10.9766 18.75 10.9883 18.75 11V13.9473C18.8153 14.4388 18.9913 14.9094 19.2666 15.3223C19.5488 15.7456 19.9264 16.0969 20.3691 16.3477C20.6655 16.5155 20.8123 16.862 20.7256 17.1914C20.6387 17.5207 20.3405 17.75 20 17.75H15.75V18Z" fill="currentColor"/>
</svg>
