<svg class="icon icon-tabler icons-tabler-outline icon-tabler-book-2" stroke-linejoin="round" stroke-linecap="round" width="24" height="24" viewBox="0 0 24 24" fill="none" xmlns="http://www.w3.org/2000/svg">
<path d="M19 3.25C19.4142 3.25 19.75 3.58579 19.75 4V20C19.75 20.4142 19.4142 20.75 19 20.75H7C6.27065 20.75 5.57139 20.4601 5.05566 19.9443C4.53994 19.4286 4.25 18.7293 4.25 18V6C4.25 5.27065 4.53994 4.57139 5.05566 4.05566C5.57139 3.53994 6.27065 3.25 7 3.25H19ZM15 7.25C15.4142 7.25 15.75 7.58579 15.75 8C15.75 8.41421 15.4142 8.75 15 8.75H9C8.58579 8.75 8.25 8.41421 8.25 8C8.25 7.58579 8.58579 7.25 9 7.25H15ZM5.75 18C5.75 18.3315 5.88179 18.6494 6.11621 18.8838C6.35063 19.1182 6.66848 19.25 7 19.25H18.25V16.75H7C6.66848 16.75 6.35063 16.8818 6.11621 17.1162C5.88179 17.3506 5.75 17.6685 5.75 18ZM5.75 15.5527C6.13378 15.3567 6.56103 15.25 7 15.25H18.25V4.75H7C6.66848 4.75 6.35063 4.88179 6.11621 5.11621C5.88179 5.35063 5.75 5.66848 5.75 6V15.5527Z" fill="currentColor"/>
</svg>
