<svg width="20" height="20" viewBox="0 0 20 20" fill="none" xmlns="http://www.w3.org/2000/svg">
  <path
    fill-rule="evenodd"
    clip-rule="evenodd"
    d="M13.5171 4.16862C13.5169 4.16865 13.5172 4.16858 13.5171 4.16862L11.7236 4.60384L11.6743 4.61904C11.6726 4.62047 11.6711 4.62225 11.67 4.6243C11.6683 4.6277 11.6677 4.6316 11.6685 4.63534L12.1851 6.51139L14.0952 6.03387L13.5873 4.18958C13.587 4.18834 13.5866 4.18727 13.5854 4.18572C13.5837 4.18366 13.5798 4.17967 13.5727 4.17562C13.5582 4.16732 13.5385 4.16358 13.5171 4.16862ZM14.5378 7.64117L12.6277 8.1187L13.7954 12.3589L15.7056 11.8818L14.5378 7.64117ZM16.1482 13.4891L14.238 13.9663L14.7458 15.8104C14.7462 15.8117 14.7466 15.8127 14.7478 15.8143C14.7494 15.8163 14.7533 15.8203 14.7604 15.8244C14.775 15.8327 14.7942 15.8365 14.8157 15.8315C14.8155 15.8315 14.8158 15.8315 14.8157 15.8315L16.6095 15.3962L16.6588 15.381C16.6606 15.3795 16.6621 15.3778 16.6631 15.3757C16.6649 15.3723 16.6654 15.3684 16.6647 15.3647L16.1482 13.4891ZM11.2082 3.01868L11.2569 3.00365C11.2731 2.99866 11.2894 2.99417 11.3059 2.99017L13.1259 2.54851L13.1278 2.54805C14.0105 2.336 14.9446 2.83986 15.1942 3.74709C15.1941 3.74697 15.1942 3.74721 15.1942 3.74709L18.2754 14.9363C18.383 15.3417 18.3353 15.7726 18.1418 16.1447C17.9482 16.5169 17.6228 16.8033 17.2291 16.948C17.2152 16.9531 17.2012 16.9578 17.1871 16.9622L17.0762 16.9964C17.0601 17.0013 17.0437 17.0058 17.0273 17.0098L15.2073 17.4515L15.2054 17.4519C14.3226 17.664 13.3886 17.1601 13.139 16.2529C13.139 16.2528 13.139 16.253 13.139 16.2529L11.6666 10.906V15.8333C11.6666 16.2754 11.491 16.6993 11.1784 17.0118C10.8659 17.3244 10.4419 17.5 9.99992 17.5H8.33325C8.03816 17.5 7.75113 17.4217 7.49992 17.2767C7.24871 17.4217 6.96168 17.5 6.66659 17.5H4.99992C4.55789 17.5 4.13397 17.3244 3.82141 17.0118C3.50885 16.6993 3.33325 16.2754 3.33325 15.8333V4.16667C3.33325 3.72464 3.50885 3.30072 3.82141 2.98816C4.13397 2.6756 4.55789 2.5 4.99992 2.5H6.66659C6.96168 2.5 7.24871 2.57826 7.49992 2.72329C7.75113 2.57826 8.03816 2.5 8.33325 2.5H9.99992C10.4419 2.5 10.8659 2.6756 11.1784 2.98816C11.1885 2.99822 11.1984 3.00839 11.2082 3.01868ZM4.99992 7.5V15.8333H6.66659V7.5H4.99992ZM6.66659 5.83333H4.99992L4.99992 4.16667L6.66659 4.16667V5.83333ZM8.33325 4.16667L9.99992 4.16667V12.5H8.33325V4.16667ZM8.33325 14.1667V15.8333H9.99992V14.1667H8.33325Z"
    fill="currentColor"
  />
</svg>
