<svg class="icon icon-tabler icons-tabler-outline icon-tabler-book" stroke-linejoin="round" stroke-linecap="round" width="24" height="24" viewBox="0 0 24 24" fill="none" xmlns="http://www.w3.org/2000/svg">
<path d="M16.5 4.04419C18.2115 4.04419 19.8928 4.49509 21.375 5.35083C21.607 5.48483 21.75 5.73236 21.75 6.00024V19.0002C21.7499 19.2681 21.607 19.5157 21.375 19.6497C21.143 19.7836 20.857 19.7836 20.625 19.6497C19.3708 18.9256 17.9482 18.5442 16.5 18.5442C15.0518 18.5442 13.6292 18.9256 12.375 19.6497C12.143 19.7836 11.857 19.7836 11.625 19.6497C10.3708 18.9256 8.94818 18.5442 7.5 18.5442C6.05182 18.5442 4.62916 18.9256 3.375 19.6497C3.14299 19.7836 2.85701 19.7836 2.625 19.6497C2.39303 19.5157 2.2501 19.2681 2.25 19.0002V6.00024C2.25 5.73236 2.39305 5.48483 2.625 5.35083C4.10719 4.49509 5.78852 4.04419 7.5 4.04419C9.06886 4.04419 10.612 4.42352 12 5.14575C13.388 4.42352 14.9311 4.04419 16.5 4.04419ZM7.5 5.54419C6.1942 5.54419 4.90948 5.85476 3.75 6.44653V17.7942C4.93444 17.3007 6.20864 17.0442 7.5 17.0442C8.79136 17.0442 10.0656 17.3007 11.25 17.7942V6.44653C10.0905 5.85476 8.8058 5.54419 7.5 5.54419ZM16.5 5.54419C15.1942 5.54419 13.9095 5.85476 12.75 6.44653V17.7942C13.9344 17.3007 15.2086 17.0442 16.5 17.0442C17.7914 17.0442 19.0656 17.3007 20.25 17.7942V6.44653C19.0905 5.85476 17.8058 5.54419 16.5 5.54419Z" fill="currentColor"/>
</svg>
