<svg width="24" height="24" viewBox="0 0 24 24" fill="none" xmlns="http://www.w3.org/2000/svg">
<path d="M8.25 8.75048H5.75V19.0005C5.75012 19.0666 5.77646 19.1305 5.82324 19.1772C5.8701 19.224 5.9338 19.2505 6 19.2505H8C8.0662 19.2505 8.1299 19.224 8.17676 19.1772C8.22354 19.1305 8.24988 19.0666 8.25 19.0005V8.75048ZM16.7764 16.5786L17.4541 19.0386V19.0395C17.4904 19.1708 17.6479 19.2849 17.8359 19.2407L19.9883 18.7183L20.0771 18.6919C20.1375 18.668 20.1878 18.6236 20.2178 18.5659C20.2487 18.5064 20.2564 18.4374 20.2393 18.3726V18.3716L19.5537 15.8843L16.7764 16.5786ZM14.8438 9.56201L16.3779 15.1313L19.1553 14.438L17.6211 8.86767L14.8438 9.56201ZM16.1631 4.7583L14.0107 5.28076L13.9219 5.30712C13.8617 5.33106 13.8122 5.37651 13.7822 5.43408C13.7513 5.49363 13.7436 5.56257 13.7607 5.62744L14.4453 8.11474L17.2227 7.42041L16.5459 4.96142V4.96044C16.5096 4.82905 16.3514 4.71365 16.1631 4.7583ZM9.75 19.0005C9.75012 19.0666 9.77646 19.1305 9.82324 19.1772C9.8701 19.224 9.9338 19.2505 10 19.2505H12C12.0662 19.2505 12.1299 19.224 12.1768 19.1772C12.2235 19.1305 12.2499 19.0666 12.25 19.0005V16.7505H9.75V19.0005ZM13.75 19.0005C13.7499 19.4645 13.5654 19.9097 13.2373 20.2378C12.9091 20.5658 12.464 20.7505 12 20.7505H10C9.63959 20.7505 9.29163 20.6374 9 20.4341C8.70837 20.6374 8.36041 20.7505 8 20.7505H6C5.53598 20.7505 5.09086 20.5658 4.7627 20.2378C4.43461 19.9097 4.25012 19.4645 4.25 19.0005V5.00048C4.25 4.53635 4.43451 4.09039 4.7627 3.7622C5.09086 3.43418 5.536 3.25048 6 3.25048H8C8.36039 3.25048 8.70837 3.36257 9 3.56591C9.29163 3.36257 9.63961 3.25048 10 3.25048H12C12.464 3.25048 12.9091 3.43418 13.2373 3.7622C13.2852 3.81005 13.3285 3.86203 13.3701 3.91455C13.3839 3.90907 13.3972 3.9021 13.4111 3.89697L13.4492 3.88427L13.582 3.84326L13.626 3.83154L15.8105 3.30126H15.8115C16.7465 3.07666 17.7303 3.61092 17.9922 4.56298L21.6875 17.981L21.6885 17.9878C21.8016 18.414 21.7522 18.8671 21.5488 19.2583C21.3453 19.6495 21.0028 19.9509 20.5889 20.103C20.5764 20.1076 20.5635 20.1118 20.5508 20.1157L20.418 20.1567C20.4035 20.1612 20.3888 20.1649 20.374 20.1685L18.1895 20.6987L18.1885 20.6997C17.312 20.9102 16.3927 20.4531 16.0654 19.6108L16.0078 19.437L13.75 11.2378V19.0005ZM5.75 7.25048H8.25V5.00048C8.25 4.93429 8.2235 4.87059 8.17676 4.82373C8.12987 4.77684 8.0663 4.75048 8 4.75048H6C5.9337 4.75048 5.87013 4.77684 5.82324 4.82373C5.7765 4.87059 5.75 4.93429 5.75 5.00048V7.25048ZM9.75 15.2505H12.25V5.00048C12.25 4.93429 12.2235 4.87059 12.1768 4.82373C12.1299 4.77684 12.0663 4.75048 12 4.75048H10C9.9337 4.75048 9.87013 4.77684 9.82324 4.82373C9.78829 4.85877 9.76451 4.90286 9.75488 4.95068L9.75 5.00048V15.2505Z" fill="currentColor"/>
</svg>
