<svg width="24" height="24" viewBox="0 0 24 24" fill="none" xmlns="http://www.w3.org/2000/svg">
<path fill-rule="evenodd" clip-rule="evenodd" d="M17.1608 15.5306C16.8825 15.9514 16.5889 16.3616 16.2799 16.7548C16.2728 16.7638 16.2658 16.7727 16.2587 16.7817C16.2045 16.8504 16.279 16.9456 16.3565 16.9057C16.368 16.8997 16.3795 16.8938 16.3909 16.8878C16.8353 16.6569 17.2679 16.3963 17.6871 16.1109C17.6907 16.1084 17.6944 16.1059 17.6981 16.1034C17.7383 16.076 17.7783 16.0483 17.8182 16.0204C17.8954 15.9666 17.9721 15.9119 18.0483 15.8565C18.1699 15.768 18.2902 15.6775 18.4093 15.585C18.4461 15.5565 18.499 15.5644 18.5254 15.6028C18.6168 15.7363 18.7045 15.8725 18.7882 16.0116C18.8443 16.1046 18.8986 16.1989 18.9511 16.2943C19.0419 16.4594 19.1273 16.628 19.2072 16.8001C19.2208 16.8295 19.2155 16.8645 19.194 16.8887C19.1277 16.9635 19.0605 17.0371 18.9925 17.1094C18.9094 17.1978 18.8251 17.2844 18.7396 17.369C14.9382 21.1342 8.90127 21.1338 5.10027 17.3697C5.01461 17.2848 4.93009 17.1981 4.84676 17.1094C4.77876 17.0371 4.71155 16.9635 4.64517 16.8886C4.62374 16.8645 4.61841 16.8295 4.63202 16.8001C4.71186 16.6278 4.79739 16.459 4.88832 16.2937C4.94187 16.1964 4.99729 16.1003 5.05454 16.0055C5.13723 15.8686 5.22371 15.7343 5.31382 15.6028C5.34017 15.5644 5.39316 15.5565 5.42989 15.585C5.54897 15.6775 5.66929 15.768 5.79081 15.8565C5.86713 15.9121 5.94391 15.9669 6.02117 16.0208C6.06125 16.0488 6.10146 16.0765 6.14179 16.104C6.1476 16.108 6.15341 16.112 6.15922 16.1159C6.57845 16.4011 7.01103 16.6613 7.45551 16.892C7.46708 16.898 7.47867 16.904 7.49026 16.9099C7.5676 16.9498 7.64207 16.8548 7.58819 16.7862C7.58105 16.7771 7.57392 16.768 7.5668 16.7589C7.25703 16.3624 6.96465 15.9513 6.68813 15.5334C6.497 15.2446 6.31345 14.9525 6.13696 14.6598C6.01157 14.4518 5.88975 14.2436 5.77132 14.036C5.75835 14.0132 5.74542 13.9905 5.73254 13.9678C5.66314 13.8455 5.59491 13.7234 5.52781 13.6017C5.23017 13.0409 4.9536 12.4725 4.69429 11.897C4.68433 11.8749 4.68463 11.8494 4.69522 11.8276C4.70201 11.8136 4.70883 11.7997 4.71569 11.7858C4.95307 11.3038 5.23553 10.8492 5.55665 10.4269C5.5617 10.4202 5.56676 10.4136 5.57184 10.4069C5.57299 10.4054 5.57448 10.4042 5.57619 10.4034C5.58211 10.4005 5.58922 10.403 5.59216 10.4089C5.59589 10.4164 5.59963 10.4239 5.60337 10.4314C5.74515 10.7163 5.89095 10.9995 6.04115 11.2804C6.07046 11.3352 6.09993 11.3899 6.12957 11.4445C6.18857 11.5533 6.24826 11.6616 6.30864 11.7696C6.32236 11.7941 6.33612 11.8186 6.34992 11.8431C6.38163 11.8994 6.41353 11.9556 6.44563 12.0116C6.60126 12.2834 6.76148 12.5523 6.92668 12.8177C6.9313 12.8251 6.93592 12.8325 6.94055 12.8399C7.01184 12.9542 7.08407 13.0678 7.15725 13.1806C7.31927 13.4305 7.48597 13.6769 7.65769 13.9191C7.90804 14.2722 8.16905 14.6166 8.44172 14.9503C8.48762 15.0063 8.53383 15.0619 8.58033 15.1171C8.58789 15.1261 8.59546 15.1351 8.60304 15.1441C8.66025 15.2118 8.76664 15.1506 8.73986 15.0659C8.73661 15.0556 8.73335 15.0453 8.7301 15.035C8.70308 14.9492 8.6764 14.8633 8.65006 14.7773C8.65001 14.7771 8.65011 14.7774 8.65006 14.7773C8.52672 14.3747 8.41063 13.9695 8.30132 13.5632C8.06167 12.6722 7.85394 11.7731 7.6702 10.8694C7.66442 10.8409 7.65866 10.8125 7.65293 10.7841C7.44768 9.76585 7.27254 8.74183 7.11619 7.71694C7.10515 7.64458 7.09421 7.57223 7.08335 7.49987C7.07893 7.47034 7.09079 7.44072 7.11443 7.42273C7.41298 7.1956 7.72728 6.98877 8.05575 6.80472C8.13313 6.76136 8.2113 6.71926 8.29023 6.67846C8.33795 6.6538 8.39548 6.68247 8.4058 6.73551C8.4238 6.82801 8.44198 6.92047 8.46036 7.01289C8.47819 7.10255 8.49619 7.19217 8.51438 7.28175C8.55746 7.49391 8.60157 7.70583 8.64674 7.91746C8.67091 8.03066 8.69538 8.14378 8.72016 8.25681C8.72345 8.27183 8.72675 8.28685 8.73006 8.30187C8.88588 9.01007 9.05398 9.71467 9.23593 10.4139C9.29562 10.6432 9.3568 10.872 9.41953 11.1002C9.59259 11.7296 9.77742 12.3541 9.97519 12.9723C10.0652 13.2467 10.1569 13.5206 10.2516 13.7932C10.4181 14.2724 10.5934 14.7476 10.7838 15.2144C10.7883 15.2255 10.7928 15.2366 10.7974 15.2476C10.8306 15.3288 10.948 15.306 10.95 15.2183L11.1901 4.74382C11.191 4.70231 11.2226 4.66804 11.2637 4.66456C11.4802 4.64619 11.6989 4.63741 11.9199 4.63741C12.1408 4.63741 12.3595 4.64641 12.576 4.66462C12.6171 4.66807 12.6487 4.70236 12.6497 4.7439L12.8895 15.2136C12.8915 15.3014 13.0092 15.3242 13.0425 15.243C13.047 15.2319 13.0516 15.2208 13.0561 15.2097C13.246 14.7449 13.4236 14.2702 13.5909 13.7894C13.6851 13.5186 13.7761 13.2459 13.8643 12.972C14.0621 12.3537 14.247 11.7291 14.4201 11.0996C14.4827 10.8719 14.5438 10.6436 14.6033 10.4146C14.7854 9.71514 14.9536 9.01018 15.1095 8.30161C15.1128 8.28659 15.1161 8.27157 15.1194 8.25654C15.1441 8.14353 15.1686 8.03043 15.1927 7.91724C15.2379 7.70559 15.282 7.49365 15.3251 7.28146C15.3433 7.19188 15.3613 7.10225 15.3791 7.01259C15.3975 6.92018 15.4157 6.82773 15.4337 6.73524C15.444 6.6822 15.5015 6.65352 15.5492 6.67818C15.6282 6.71898 15.7063 6.76108 15.7837 6.80443C16.1122 6.98849 16.4265 7.19532 16.725 7.42245C16.7487 7.44044 16.7606 7.47007 16.7561 7.49959C16.7453 7.57195 16.7343 7.64431 16.7233 7.71667C16.5669 8.74194 16.3917 9.76632 16.1863 10.7849C16.1807 10.813 16.175 10.8411 16.1692 10.8692C15.9858 11.7718 15.7783 12.6696 15.5391 13.5594C15.4297 13.9661 15.3137 14.3711 15.1903 14.7741C15.19 14.775 15.1897 14.776 15.1894 14.777C15.1636 14.8611 15.1375 14.9451 15.1111 15.0291C15.1078 15.0396 15.1045 15.0502 15.1012 15.0607C15.0744 15.1454 15.1809 15.2066 15.2383 15.1392C15.246 15.1301 15.2537 15.1211 15.2613 15.1121C15.3071 15.0582 15.3526 15.0041 15.3978 14.95C15.6717 14.6148 15.9338 14.2689 16.1852 13.9141C16.352 13.6787 16.5141 13.4394 16.6717 13.1968C16.9233 12.8094 17.1636 12.4135 17.3939 12.0114C17.426 11.9553 17.4579 11.8991 17.4896 11.8429C17.503 11.819 17.5164 11.7952 17.5297 11.7714C17.5905 11.6628 17.6505 11.5538 17.7099 11.4444C17.7406 11.3878 17.7711 11.3312 17.8014 11.2744C17.9505 10.9954 18.0953 10.714 18.2361 10.4312C18.2399 10.4237 18.2436 10.4161 18.2473 10.4086C18.2503 10.4027 18.2574 10.4003 18.2633 10.4031C18.2642 10.4036 18.2651 10.4041 18.2658 10.4048C18.2665 10.4053 18.2671 10.406 18.2676 10.4067C18.2727 10.4133 18.2778 10.4199 18.2828 10.4266C18.6036 10.8487 18.8863 11.3031 19.1239 11.7854C19.1304 11.7987 19.1369 11.8119 19.1434 11.8252C19.154 11.8471 19.1543 11.8726 19.1442 11.8948C18.8352 12.5745 18.489 13.2745 18.1049 13.9682C18.0905 13.9941 18.0761 14.02 18.0617 14.0459C17.9463 14.2526 17.8275 14.4587 17.7054 14.6634C17.5308 14.9559 17.3493 15.2457 17.1608 15.5306ZM19.6906 14.4597C19.752 14.5247 19.8094 14.5956 19.862 14.6723C20.1711 15.1235 20.4448 15.6025 20.6786 16.1065C20.9716 16.7381 20.8538 17.4738 20.4052 17.9798C15.8528 23.1142 7.98546 23.1132 3.43398 17.9798C2.98555 17.474 2.86763 16.7386 3.16027 16.1071C3.39419 15.6024 3.66829 15.1231 3.97725 14.6723C4.02872 14.5971 4.0848 14.5276 4.14478 14.4638C4.13251 14.4416 4.12029 14.4195 4.1081 14.3974L4.10169 14.3858L4.09547 14.3741C3.77994 13.7795 3.48792 13.1792 3.21527 12.5741C3.00592 12.1094 3.01102 11.5716 3.23618 11.1078C3.53037 10.5019 3.88322 9.93289 4.28546 9.40707C4.44241 9.20189 4.64489 9.03715 4.87624 8.92579C5.12169 8.80765 5.38201 8.75656 5.63661 8.76543C5.58113 8.42449 5.52813 8.08416 5.47721 7.74468C5.38435 7.12569 5.63267 6.4986 6.13587 6.11578C6.57773 5.77961 7.0499 5.47944 7.54904 5.22144C8.25575 4.85615 9.05069 5.03964 9.54674 5.55053L9.5661 4.70599C9.58599 3.8383 10.2494 3.1074 11.1275 3.03291C11.392 3.01047 11.6563 3 11.9199 3C12.1846 3 12.4484 3.01079 12.711 3.03287C13.5893 3.10672 14.2538 3.83751 14.2737 4.70611L14.293 5.55001C14.789 5.03931 15.5838 4.85592 16.2904 5.22116C16.7896 5.47916 17.2617 5.77934 17.7036 6.1155C18.2068 6.49832 18.4551 7.12541 18.3623 7.74441C18.3113 8.08389 18.2583 8.42422 18.2029 8.76516C18.4575 8.75628 18.7178 8.80737 18.9632 8.9255C19.1947 9.03691 19.3973 9.20178 19.5543 9.40711C19.955 9.93127 20.3078 10.4991 20.6022 11.1051C20.8275 11.5687 20.8337 12.1089 20.6209 12.577C20.3429 13.1886 20.0331 13.8225 19.6906 14.4597Z" fill="currentColor"/>
</svg>
