<svg class="icon icon-tabler icons-tabler-outline icon-tabler-brand-google" stroke-linejoin="round" stroke-linecap="round" width="24" height="24" viewBox="0 0 24 24" fill="none" xmlns="http://www.w3.org/2000/svg">
<path d="M11.9246 2.2503C14.1827 2.23265 16.3769 2.99999 18.1326 4.42022C18.303 4.55815 18.405 4.76353 18.4109 4.98272C18.4167 5.20203 18.3258 5.41299 18.1629 5.55987L15.5076 7.95245C15.2549 8.17982 14.8812 8.2085 14.5964 8.02276C13.7747 7.48667 12.8065 7.21909 11.8259 7.25518C10.8455 7.29133 9.89997 7.62991 9.11989 8.22491C8.33988 8.81995 7.76352 9.64245 7.4695 10.5784C7.17555 11.5144 7.17859 12.5183 7.47829 13.4524C7.77802 14.3867 8.35956 15.2059 9.14332 15.7962C9.92703 16.3864 10.8746 16.7192 11.8552 16.7493C12.8358 16.7794 13.8015 16.505 14.6199 15.9642C15.1117 15.639 15.5343 15.2256 15.8718 14.7503H12.9998C12.5858 14.7502 12.2499 14.4143 12.2498 14.0003V11.0003C12.2498 10.5862 12.5857 10.2504 12.9998 10.2503H20.9451L21.0847 10.263C21.4026 10.323 21.6529 10.5843 21.6902 10.9163C21.9412 13.1605 21.4056 15.4226 20.1746 17.3157C18.9434 19.2089 17.0925 20.6165 14.9392 21.2972C12.7861 21.9777 10.4634 21.8895 8.36793 21.0481C6.27229 20.2067 4.53364 18.6636 3.44899 16.6829C2.36445 14.7022 2.00088 12.4066 2.42067 10.1878C2.84047 7.96891 4.01749 5.96449 5.75075 4.5169C7.48404 3.06931 9.66636 2.26798 11.9246 2.2503ZM11.9363 3.7503C10.0256 3.76526 8.17927 4.44345 6.71266 5.66827C5.24603 6.89315 4.24952 8.58955 3.8943 10.4671C3.53922 12.3445 3.8467 14.2873 4.76442 15.9632C5.68219 17.6391 7.15341 18.9446 8.92653 19.6565C10.6997 20.3685 12.6652 20.4424 14.4871 19.8665C16.309 19.2905 17.875 18.1001 18.9168 16.4983C19.8366 15.0839 20.2967 13.4262 20.2459 11.7503H13.7498V13.2503H17.1248C17.3723 13.2503 17.6041 13.3722 17.7439 13.5765C17.8837 13.781 17.914 14.042 17.824 14.2728C17.3549 15.4755 16.524 16.5032 15.447 17.2151C14.3702 17.9269 13.0996 18.2879 11.8093 18.2483C10.5189 18.2087 9.27224 17.7702 8.24098 16.9935C7.20976 16.2167 6.44396 15.1398 6.04957 13.9105C5.65529 12.6812 5.65097 11.3598 6.03786 10.1282C6.42477 8.89659 7.18426 7.81548 8.21071 7.03252C9.23724 6.24955 10.4811 5.80364 11.7713 5.75616C12.8654 5.71591 13.9469 5.96444 14.9099 6.471L16.4685 5.0667C15.1232 4.1998 13.5495 3.73769 11.9363 3.7503Z" fill="currentColor"/>
</svg>
