<svg class="icon icon-tabler icons-tabler-outline icon-tabler-brand-okta" stroke-linejoin="round" stroke-linecap="round" width="24" height="24" viewBox="0 0 24 24" fill="none" xmlns="http://www.w3.org/2000/svg">
<path d="M20.4615 12C20.4615 7.32682 16.6732 3.53846 12 3.53846C7.32682 3.53846 3.53846 7.32682 3.53846 12C3.53846 16.6732 7.32682 20.4615 12 20.4615C16.6732 20.4615 20.4615 16.6732 20.4615 12ZM15.8462 12C15.8462 9.87583 14.1242 8.15385 12 8.15385C9.87583 8.15385 8.15385 9.87583 8.15385 12C8.15385 14.1242 9.87583 15.8462 12 15.8462C14.1242 15.8462 15.8462 14.1242 15.8462 12ZM17.3846 12C17.3846 14.9738 14.9738 17.3846 12 17.3846C9.02616 17.3846 6.61539 14.9738 6.61539 12C6.61539 9.02616 9.02616 6.61539 12 6.61539C14.9738 6.61539 17.3846 9.02616 17.3846 12ZM22 12C22 17.5228 17.5228 22 12 22C6.47715 22 2 17.5228 2 12C2 6.47715 6.47715 2 12 2C17.5228 2 22 6.47715 22 12Z" fill="currentColor"/>
</svg>
