<svg class="icon icon-tabler icons-tabler-outline icon-tabler-brand-bluesky" stroke-linejoin="round" stroke-linecap="round" width="24" height="24" viewBox="0 0 24 24" fill="none" xmlns="http://www.w3.org/2000/svg">
<path d="M21.25 5.97052C21.25 5.33088 21.1037 5.0457 20.9971 4.92657C20.9054 4.82413 20.7545 4.74559 20.4639 4.74982C19.8204 4.75924 18.8926 5.18152 18.1055 5.75177C17.0374 6.52592 15.8958 7.72829 14.8994 8.98322C13.9046 10.2362 13.0937 11.4911 12.6709 12.3358C12.5438 12.5897 12.284 12.7498 12 12.7498C11.716 12.7498 11.4562 12.5897 11.3291 12.3358C10.9063 11.4911 10.0954 10.2362 9.10059 8.98322C8.10416 7.72829 6.9626 6.52592 5.89453 5.75177C5.10794 5.18156 4.17972 4.75917 3.53613 4.74982C3.2459 4.74564 3.0957 4.8243 3.00391 4.92657C2.89727 5.04565 2.75 5.33079 2.75 5.97052C2.7501 6.22529 2.83304 7.42542 2.94727 8.68927C3.00355 9.31193 3.06636 9.93436 3.12695 10.4422C3.17497 10.8446 3.21776 11.1351 3.24902 11.2996L3.27637 11.4217V11.4227C3.55961 12.401 4.1505 12.9124 4.91797 13.1717C5.73235 13.4468 6.7736 13.4414 7.87793 13.2596C8.28662 13.1924 8.673 13.47 8.74023 13.8787C8.80719 14.2872 8.53047 14.6727 8.12207 14.7401C6.19979 15.0561 5.2906 15.7802 5.00293 16.4315C4.73862 17.0302 4.86981 17.8949 5.86035 18.8768L6.21875 19.2176C6.56569 19.5333 6.87893 19.7748 7.16016 19.9461C7.53847 20.1765 7.81096 20.2498 8 20.2498C8.63054 20.2498 9.21926 19.8091 9.75977 19.0779C10.2885 18.3626 10.6216 17.5783 10.8291 17.1639C11.1591 16.5027 11.25 16.1415 11.25 15.9998C11.2501 15.5857 11.5859 15.2498 12 15.2498C12.4141 15.2498 12.7499 15.5857 12.75 15.9998C12.75 16.1415 12.8409 16.5027 13.1709 17.1639L13.3506 17.5379C13.5566 17.9667 13.8438 18.5415 14.2402 19.0779C14.7807 19.8091 15.3695 20.2498 16 20.2498C16.1893 20.2498 16.4617 20.1763 16.8398 19.9461C17.2147 19.7179 17.6466 19.3645 18.1396 18.8768C19.1302 17.8944 19.2614 17.0292 18.9971 16.4305C18.7094 15.7794 17.8007 15.0556 15.8789 14.7401C15.4702 14.6729 15.1928 14.2874 15.2598 13.8787C15.3268 13.4701 15.7125 13.1928 16.1211 13.2596C17.2258 13.441 18.2676 13.4458 19.082 13.1707C19.8492 12.9115 20.4399 12.4009 20.7236 11.4227V11.4217C20.7543 11.3164 20.8091 10.9786 20.873 10.4422C20.9337 9.93416 20.9964 9.31116 21.0527 8.68829C21.167 7.42436 21.2499 6.22478 21.25 5.97052ZM22.75 5.97052C22.7499 6.30695 22.658 7.58226 22.5459 8.82306C22.4889 9.45332 22.4253 10.0922 22.3623 10.6199C22.3028 11.119 22.2364 11.592 22.1641 11.8406C21.7337 13.3245 20.7598 14.1881 19.5625 14.5926C19.5268 14.6046 19.4901 14.6146 19.4541 14.6258C19.8585 14.9714 20.1697 15.371 20.3701 15.825C20.9833 17.2143 20.4258 18.722 19.1953 19.9422L19.1943 19.9432C18.6575 20.4743 18.1326 20.9153 17.6201 21.2274C17.1107 21.5374 16.5647 21.7498 16 21.7498C14.6305 21.7498 13.6522 20.8056 13.0342 19.9695C12.5649 19.3347 12.2139 18.6367 12 18.1912C11.7861 18.6367 11.4351 19.3347 10.9658 19.9695C10.3478 20.8056 9.36946 21.7498 8 21.7498C7.43504 21.7498 6.88907 21.5375 6.37988 21.2274C5.86744 20.9153 5.34249 20.4738 4.80566 19.9432H4.80469C3.57384 18.7234 3.01672 17.2153 3.62988 15.826C3.83036 15.3719 4.14135 14.9716 4.5459 14.6258C4.50981 14.6145 4.47326 14.6047 4.4375 14.5926C3.24006 14.188 2.26586 13.3246 1.83594 11.8406L1.7832 11.6151C1.73121 11.3537 1.68235 10.9942 1.6377 10.6199C1.57475 10.0923 1.51106 9.45415 1.4541 8.82404C1.34195 7.58324 1.25009 6.30748 1.25 5.97052C1.25 5.13393 1.43821 4.42654 1.88574 3.92657C2.34833 3.41001 2.97236 3.24129 3.55859 3.24982C4.66889 3.26612 5.90809 3.90822 6.77539 4.53693C8.0001 5.42466 9.23897 6.74528 10.2754 8.0506C10.9361 8.88275 11.5307 9.72946 12 10.4832C12.4693 9.72946 13.0639 8.88275 13.7246 8.0506C14.761 6.74528 15.9999 5.42466 17.2246 4.53693C18.0924 3.90827 19.3321 3.26596 20.4424 3.24982C21.0285 3.24133 21.6518 3.41 22.1143 3.92657C22.5618 4.42655 22.75 5.13391 22.75 5.97052Z" fill="currentColor"/>
</svg>
