<svg width="24" height="24" viewBox="0 0 24 24" fill="none" xmlns="http://www.w3.org/2000/svg">
<path d="M19 14C19 13.7348 18.8946 13.4805 18.707 13.293C18.5195 13.1054 18.2652 13 18 13H13V15H18C18.2652 15 18.5195 14.8946 18.707 14.707C18.8946 14.5195 19 14.2652 19 14ZM6 13C5.80222 13 5.60879 13.0591 5.44434 13.1689C5.28005 13.2788 5.15183 13.4346 5.07617 13.6172C5.00048 13.7999 4.98095 14.0013 5.01953 14.1953C5.05815 14.3892 5.15318 14.5672 5.29297 14.707C5.43276 14.8468 5.61081 14.9418 5.80469 14.9805C5.99867 15.0191 6.20009 14.9995 6.38281 14.9238C6.56539 14.8482 6.72121 14.72 6.83105 14.5557C6.91341 14.4324 6.96758 14.2929 6.98926 14.1475L7 14V13H6ZM18.1953 9.01953C18.0013 8.98095 17.7999 9.00048 17.6172 9.07617C17.4346 9.15183 17.2788 9.28005 17.1689 9.44434C17.0591 9.60879 17 9.80222 17 10V11H18L18.1475 10.9893C18.2929 10.9676 18.4324 10.9134 18.5557 10.8311C18.72 10.7212 18.8482 10.5654 18.9238 10.3828C18.9995 10.2001 19.0191 9.99867 18.9805 9.80469C18.9418 9.61081 18.8468 9.43276 18.707 9.29297C18.5672 9.15318 18.3892 9.05815 18.1953 9.01953ZM9 18C9 18.2652 9.10543 18.5195 9.29297 18.707C9.48051 18.8946 9.73479 19 10 19C10.2652 19 10.5195 18.8946 10.707 18.707C10.8946 18.5195 11 18.2652 11 18V13H9V18ZM13 18C13 18.1978 13.0591 18.3912 13.1689 18.5557C13.2788 18.72 13.4346 18.8482 13.6172 18.9238C13.7999 18.9995 14.0013 19.0191 14.1953 18.9805C14.3892 18.9418 14.5672 18.8468 14.707 18.707C14.8468 18.5672 14.9418 18.3892 14.9805 18.1953C15.0191 18.0013 14.9995 17.7999 14.9238 17.6172C14.8482 17.4346 14.72 17.2788 14.5557 17.1689C14.4324 17.0866 14.2929 17.0324 14.1475 17.0107L14 17H13V18ZM11 6C11 5.80222 10.9409 5.60879 10.8311 5.44434C10.7212 5.28005 10.5654 5.15183 10.3828 5.07617C10.2001 5.00048 9.99867 4.98095 9.80469 5.01953C9.61081 5.05815 9.43276 5.15318 9.29297 5.29297C9.15318 5.43276 9.05815 5.61081 9.01953 5.80469C8.98095 5.99867 9.00048 6.20009 9.07617 6.38281C9.15183 6.56539 9.28005 6.72121 9.44434 6.83105C9.60878 6.94094 9.80222 7 10 7H11V6ZM5 10C5 10.2652 5.10543 10.5195 5.29297 10.707C5.4805 10.8946 5.73478 11 6 11H11V9H6C5.73478 9 5.4805 9.10543 5.29297 9.29297C5.10543 9.48051 5 9.73478 5 10ZM13 11H15V6C15 5.73478 14.8946 5.4805 14.707 5.29297C14.5195 5.10543 14.2652 5 14 5C13.7348 5 13.4805 5.10543 13.293 5.29297C13.1288 5.45711 13.0276 5.67237 13.0049 5.90137L13 6V11ZM17 7.17285C17.5077 6.99328 18.0549 6.95224 18.585 7.05762C19.1669 7.17337 19.7015 7.45935 20.1211 7.87891C20.5407 8.29846 20.8266 8.8331 20.9424 9.41504C21.0581 9.99689 20.9985 10.6004 20.7715 11.1484C20.641 11.4633 20.4566 11.7499 20.2314 12.001C20.7231 12.5497 21 13.2594 21 14C21 14.7957 20.6837 15.5585 20.1211 16.1211C19.5585 16.6837 18.7957 17 18 17H16.8262C17.0058 17.5077 17.0478 18.0548 16.9424 18.585C16.8266 19.1669 16.5407 19.7015 16.1211 20.1211C15.7015 20.5407 15.1669 20.8266 14.585 20.9424C14.0031 21.0581 13.3996 20.9985 12.8516 20.7715C12.5365 20.6409 12.2492 20.4568 11.998 20.2314C11.4494 20.7228 10.7404 21 10 21C9.20435 21 8.44151 20.6837 7.87891 20.1211C7.3163 19.5585 7 18.7957 7 18V16.8262C6.49226 17.0058 5.94519 17.0478 5.41504 16.9424C4.8331 16.8266 4.29846 16.5407 3.87891 16.1211C3.45935 15.7015 3.17337 15.1669 3.05762 14.585C2.94194 14.0031 3.00149 13.3996 3.22852 12.8516C3.35906 12.5365 3.54322 12.2492 3.76855 11.998C3.27722 11.4494 3 10.7404 3 10C3 9.20435 3.3163 8.44151 3.87891 7.87891C4.44151 7.3163 5.20435 7 6 7H7.17383C6.99417 6.49226 6.95222 5.94519 7.05762 5.41504C7.17337 4.8331 7.45935 4.29846 7.87891 3.87891C8.29846 3.45935 8.8331 3.17337 9.41504 3.05762C9.99689 2.94194 10.6004 3.00149 11.1484 3.22852C11.4633 3.35897 11.7499 3.54344 12.001 3.76855C12.5497 3.27691 13.2594 3 14 3C14.7956 3 15.5585 3.3163 16.1211 3.87891C16.6837 4.44151 17 5.20435 17 6V7.17285Z" fill="currentColor"/>
</svg>
