<svg width="24" height="24" viewBox="0 0 24 24" fill="none" xmlns="http://www.w3.org/2000/svg">
<path fill-rule="evenodd" clip-rule="evenodd" d="M11.8787 1.87868C12.4413 1.31607 13.2044 1 14 1C14.2652 1 14.5196 1.10536 14.7071 1.29289C14.8946 1.48043 15 1.73478 15 2C15 2.79565 14.6839 3.55871 14.1213 4.12132C13.5587 4.68393 12.7957 5 12 5C11.7348 5 11.4804 4.89464 11.2929 4.70711C11.1054 4.51957 11 4.26522 11 4C11 3.20435 11.3161 2.44129 11.8787 1.87868ZM15.3232 6.01068C15.7546 6.04101 16.5325 6.21377 17.3504 6.58785C18.1806 6.96754 19.1425 7.59581 19.826 8.59731C19.9853 8.83077 20.0384 9.12073 19.9721 9.39549C19.9058 9.67024 19.7264 9.90412 19.4782 10.0393C19.3932 10.0855 19.3008 10.123 19.1971 10.165C18.9537 10.2637 18.648 10.3877 18.2294 10.7101C17.7092 11.1106 17.315 11.6404 17.321 12.3794C17.3404 14.1327 18.698 14.5015 19.2027 14.6386C19.2636 14.6551 19.312 14.6683 19.3443 14.6801C19.7381 14.8245 20 15.1995 20 15.619C20 17.0328 19.1637 18.5999 18.2371 19.7454C17.757 20.3389 17.2059 20.8787 16.6378 21.2792C16.0947 21.662 15.4196 22 14.714 22C13.7675 22 13.2063 21.8345 12.7311 21.6848C12.7184 21.6808 12.7058 21.6768 12.6934 21.6729C12.3038 21.5499 12.025 21.462 11.5 21.462C10.9216 21.462 10.5076 21.5583 10.0569 21.6785C10.0137 21.69 9.96943 21.702 9.92414 21.7142C9.49601 21.8301 8.97407 21.9714 8.32888 21.9991C8.31459 21.9997 8.3003 22 8.286 22C7.36797 22 6.59137 21.4888 6.00357 20.8984C5.40113 20.2933 4.87544 19.4869 4.44416 18.6205C3.58544 16.8955 3 14.7254 3 12.928C3 11.4763 3.2847 9.80246 4.07398 8.45408C4.89296 7.05496 6.26738 6.008 8.286 6.008C9.13215 6.008 9.94742 6.38451 10.4915 6.64373C10.5716 6.68189 10.646 6.71777 10.716 6.7515C10.9173 6.84853 11.0819 6.92783 11.239 6.99301C11.3905 7.05583 11.4687 7.07576 11.4954 7.08208C11.52 7.07517 11.6069 7.05223 11.789 6.97652C11.9363 6.91524 12.0601 6.85862 12.2028 6.79341C12.3327 6.73404 12.4781 6.66756 12.671 6.58396C13.3444 6.29213 14.2955 5.93166 15.3232 6.01068ZM12.557 8.82316C12.2971 8.93127 11.9012 9.085 11.5 9.085C11.1078 9.085 10.7343 8.94887 10.4728 8.84043C10.2588 8.75166 10.0225 8.63769 9.80829 8.53434C9.74714 8.50484 9.68779 8.47621 9.63126 8.44927C9.04508 8.16999 8.61785 8.008 8.286 8.008C7.08862 8.008 6.32004 8.57604 5.80002 9.46442C5.2503 10.4035 5 11.6897 5 12.928C5 14.3596 5.48606 16.2255 6.23459 17.7292C6.60694 18.4772 7.01881 19.0834 7.4209 19.4873C7.82353 19.8917 8.11243 19.9933 8.26994 19.9997C8.67121 19.9794 8.98463 19.8954 9.41854 19.779C9.45849 19.7682 9.49946 19.7572 9.54162 19.746C10.0529 19.6097 10.6634 19.462 11.5 19.462C12.3342 19.462 12.8513 19.6254 13.2856 19.7625C13.3012 19.7675 13.3167 19.7724 13.3321 19.7772C13.7107 19.8965 14.0535 20 14.714 20C14.8119 20 15.0743 19.9344 15.4855 19.6445C15.8716 19.3723 16.2917 18.9703 16.6822 18.4876C17.2694 17.7616 17.6949 16.9751 17.8866 16.3161C16.9058 15.884 15.3468 14.8011 15.3211 12.3997L15.321 12.3976C15.3074 10.8021 16.2076 9.74268 17.0091 9.12544C17.1176 9.0419 17.2319 8.96212 17.3471 8.88721C17.0845 8.69543 16.802 8.53629 16.5186 8.40665C15.8859 8.11729 15.3399 8.01643 15.1821 8.00569L15.1721 8.00501L15.1721 8.00496C14.6666 7.96544 14.1036 8.14282 13.4663 8.41904C13.3607 8.4648 13.2272 8.5252 13.0894 8.58755C12.8995 8.67349 12.7014 8.76311 12.557 8.82316Z" fill="currentColor"/>
</svg>
