<svg width="20" height="20" viewBox="0 0 20 20" fill="none" xmlns="http://www.w3.org/2000/svg">
<path d="M17.5 4.97537C17.5 4.46983 17.3836 4.29102 17.3421 4.24458C17.3172 4.21674 17.2576 4.16355 17.0565 4.16645C16.5851 4.17331 15.8548 4.4944 15.2099 4.96154L14.8812 5.21382C14.1088 5.83843 13.3006 6.70725 12.5789 7.61616C11.756 8.65263 11.0895 9.68603 10.7454 10.3733L10.6852 10.4734C10.5311 10.6966 10.2761 10.8331 9.99998 10.8331C9.72388 10.8331 9.46889 10.6966 9.31476 10.4734L9.25454 10.3733L9.11131 10.0999C8.74195 9.42753 8.14118 8.52319 7.42104 7.61616C6.69938 6.70725 5.89116 5.83843 5.11879 5.21382L4.79002 4.96154C4.14575 4.4945 3.41499 4.17331 2.9435 4.16645C2.74256 4.1636 2.68283 4.21669 2.65786 4.24458C2.61633 4.29098 2.49998 4.4698 2.49998 4.97537C2.50007 5.17625 2.56809 6.16522 2.66355 7.22147C2.71036 7.7393 2.76231 8.25604 2.81248 8.67654C2.83759 8.88697 2.86181 9.06878 2.88409 9.21203C2.89524 9.28364 2.90533 9.34241 2.91421 9.38781C2.91858 9.41019 2.92258 9.42761 2.9256 9.4407L2.93048 9.45942V9.46105L2.18341 9.67589L1.86277 9.76948L2.93048 9.46105C3.14618 10.2059 3.58526 10.5827 4.16502 10.7786C4.718 10.9654 5.42143 10.9901 6.19546 10.8933L6.53156 10.8445C6.98561 10.7699 7.41386 11.0773 7.48859 11.5314C7.5633 11.9855 7.25582 12.4144 6.80174 12.4892L6.51691 12.5413C5.14545 12.8201 4.54474 13.3579 4.35952 13.7775C4.18788 14.1666 4.2383 14.7975 5.03009 15.5825L5.32306 15.8608C5.60497 16.1173 5.85504 16.3095 6.07501 16.4435C6.37209 16.6244 6.56133 16.6665 6.66665 16.6665C7.08947 16.6665 7.52582 16.3693 7.96547 15.7745C8.39203 15.1974 8.65814 14.5694 8.83787 14.2104C8.96552 13.9547 9.0517 13.7495 9.1048 13.5903C9.1311 13.5114 9.14766 13.4499 9.15688 13.4039C9.1614 13.3814 9.16365 13.3641 9.16502 13.3518C9.16569 13.3458 9.16646 13.3411 9.16665 13.338C9.16683 13.3349 9.16665 13.3331 9.16665 13.3331C9.16675 12.873 9.53981 12.4998 9.99998 12.4998C10.4316 12.4998 10.7868 12.8281 10.8292 13.2485L10.8333 13.3331V13.338C10.8335 13.3411 10.8343 13.3458 10.8349 13.3518C10.8363 13.3641 10.8386 13.3814 10.8431 13.4039C10.8523 13.4499 10.8689 13.5114 10.8952 13.5903C10.9483 13.7495 11.0344 13.9547 11.1621 14.2104L11.3143 14.5253C11.4849 14.8805 11.7146 15.3418 12.0345 15.7745C12.4741 16.3693 12.9105 16.6665 13.3333 16.6665C13.4389 16.6665 13.6282 16.6249 13.9249 16.4443C14.2182 16.2657 14.5651 15.9829 14.9699 15.5825C15.7618 14.797 15.8122 14.1658 15.6404 13.7766C15.4429 13.3292 14.7726 12.7476 13.1982 12.4892L13.1152 12.4713C12.7073 12.3613 12.4414 11.9573 12.5114 11.5314C12.5814 11.1057 12.9622 10.8087 13.3838 10.8347L13.4684 10.8445L13.8045 10.8933C14.5786 10.9898 15.282 10.9653 15.8349 10.7786C16.4147 10.5828 16.8534 10.2054 17.0695 9.46024V9.45942L17.0744 9.4407C17.0774 9.42761 17.0814 9.41019 17.0858 9.38781C17.0946 9.34241 17.1047 9.28365 17.1159 9.21203C17.1381 9.06876 17.1624 8.88702 17.1875 8.67654C17.2376 8.25596 17.2896 7.73939 17.3364 7.22147C17.4319 6.16498 17.4999 5.17586 17.5 4.97537ZM19.1666 4.97537C19.1666 5.26715 19.0889 6.34043 18.9957 7.37121C18.9482 7.89745 18.8947 8.43178 18.8419 8.8743C18.793 9.28483 18.7363 9.69773 18.6702 9.92492C18.3196 11.1339 17.5524 11.8805 16.6024 12.2687C16.8394 12.5175 17.0296 12.7959 17.1655 13.1036C17.7249 14.3711 17.2014 15.7167 16.1426 16.7666L16.1417 16.7674C15.6882 17.2161 15.2379 17.596 14.7916 17.8676C14.3489 18.1371 13.856 18.3331 13.3333 18.3331C12.0896 18.3331 11.2199 17.477 10.6942 16.7657C10.4096 16.3808 10.1762 15.9667 9.99998 15.6256C9.82373 15.9667 9.59038 16.3808 9.30581 16.7657C8.78003 17.477 7.9104 18.3331 6.66665 18.3331C6.14372 18.3331 5.65076 18.137 5.20831 17.8676C4.76219 17.5959 4.31164 17.2155 3.85822 16.7674L3.8574 16.7666C2.79847 15.717 2.27486 14.3712 2.83445 13.1036C2.97022 12.7962 3.15999 12.5181 3.39679 12.2695C2.44676 11.8812 1.67991 11.1338 1.32973 9.92492L1.28172 9.72309C1.2355 9.49184 1.19478 9.18237 1.15802 8.8743C1.10524 8.43189 1.05177 7.89816 1.00421 7.37202C0.911045 6.34123 0.833382 5.2676 0.833313 4.97537C0.833313 4.2507 0.996319 3.60248 1.41681 3.13292C1.85373 2.6451 2.43845 2.49213 2.96792 2.49979C3.95809 2.51418 5.03414 3.08012 5.76821 3.61225L5.96352 3.75792C6.9405 4.50719 7.91062 5.553 8.72557 6.57938C9.20068 7.17776 9.63567 7.78693 9.99998 8.3494C10.3643 7.78693 10.7993 7.17776 11.2744 6.57938C12.1436 5.48463 13.1894 4.36779 14.2318 3.61225V3.61144L14.5223 3.41206C15.2337 2.94723 16.1657 2.51241 17.032 2.49979C17.5616 2.49209 18.147 2.64488 18.584 3.13292C19.0042 3.60248 19.1666 4.25084 19.1666 4.97537Z" fill="currentColor"/>
</svg>
