<svg class="icon icon-tabler icons-tabler-outline icon-tabler-brand-mastodon" stroke-linejoin="round" stroke-linecap="round" width="24" height="24" viewBox="0 0 24 24" fill="none" xmlns="http://www.w3.org/2000/svg">
<path d="M19.2501 10.3104C19.2501 8.76587 19.2411 7.8231 19.0879 7.07506C18.9463 6.38347 18.6775 5.84863 18.084 5.17076C17.7865 4.83069 17.2982 4.54311 16.6563 4.31822C16.0235 4.09651 15.3022 3.95717 14.6065 3.87193C13.9139 3.7871 13.2674 3.75861 12.793 3.75181C12.5566 3.74842 12.3641 3.75004 12.2325 3.75279C12.1669 3.75416 12.1164 3.75648 12.0831 3.75767C12.0664 3.75827 12.0538 3.75832 12.046 3.75865H11.9542C11.9464 3.75832 11.9337 3.75827 11.917 3.75767C11.8836 3.75648 11.8324 3.75418 11.7667 3.75279C11.635 3.75002 11.4432 3.74848 11.2071 3.75181C10.7327 3.75852 10.0862 3.78624 9.39361 3.87095C8.69786 3.95606 7.97663 4.09564 7.3438 4.31724C6.70195 4.54204 6.21356 4.82974 5.91607 5.16978C5.32261 5.84764 5.05384 6.3825 4.91216 7.07408C4.75899 7.82212 4.75005 8.76491 4.75005 10.3094L4.77544 11.4461L4.77642 11.4588C4.79333 14.5737 5.50883 16.6121 6.51275 17.9217C7.51013 19.2227 8.85186 19.8831 10.2852 20.1317C11.677 20.3731 13.1413 20.2193 14.3975 19.8836C13.354 19.8211 12.4212 19.6802 11.6036 19.4549C9.98576 19.0091 8.7525 18.2144 8.05962 16.994C7.91681 16.7422 7.93156 16.4303 8.09771 16.1932C8.26394 15.9561 8.55246 15.8362 8.83794 15.8846C9.87917 16.0613 10.9343 16.1432 11.9903 16.1297C12.0006 16.1296 12.0113 16.1304 12.0215 16.1307H12.0665C12.099 16.1312 12.1487 16.1325 12.2129 16.1327C12.3414 16.133 12.5293 16.131 12.7608 16.1239C13.225 16.1097 13.8604 16.0733 14.5469 15.9842C15.236 15.8948 15.9592 15.7547 16.6065 15.5399C17.2627 15.3221 17.7864 15.0454 18.126 14.7157C18.4952 14.3571 18.7582 13.9866 18.9424 13.3768C19.1366 12.7341 19.25 11.8023 19.2501 10.3104ZM15.2501 12.9999V8.27818C15.2501 7.33958 14.602 6.74986 14.0001 6.74986C13.3981 6.74986 12.7501 7.33958 12.7501 8.27818V11.204C12.7501 11.6182 12.4143 11.954 12.0001 11.954C11.5858 11.954 11.2501 11.6182 11.2501 11.204V8.27818L11.2422 8.10631C11.1689 7.26808 10.5644 6.74986 10.0001 6.74986C9.39812 6.74986 8.75005 7.33958 8.75005 8.27818V12.9999C8.75005 13.4141 8.41427 13.7499 8.00005 13.7499C7.58584 13.7499 7.25005 13.4141 7.25005 12.9999V8.27818C7.25005 6.70078 8.39199 5.24986 10.0001 5.24986C10.8171 5.24986 11.5123 5.62571 12.0001 6.20103C12.4878 5.62571 13.183 5.24986 14.0001 5.24986C15.6081 5.24986 16.7501 6.70078 16.7501 8.27818V12.9999C16.7501 13.4141 16.4143 13.7499 16.0001 13.7499C15.5858 13.7499 15.2501 13.4141 15.2501 12.9999ZM20.7501 10.3104C20.75 11.8537 20.6357 12.9587 20.378 13.8114C20.1104 14.6967 19.6974 15.2806 19.171 15.7919C18.6026 16.3437 17.8397 16.7113 17.0792 16.9637C16.31 17.2189 15.4849 17.3748 14.7393 17.4715C13.9912 17.5686 13.3051 17.6087 12.8067 17.6239C12.5571 17.6315 12.3528 17.633 12.21 17.6327C12.1387 17.6325 12.0821 17.6313 12.043 17.6307C12.024 17.6304 12.0088 17.63 11.9981 17.6297C11.6375 17.6341 11.277 17.6263 10.917 17.6102C11.233 17.7617 11.5933 17.896 12.002 18.0086C13.3844 18.3895 15.2538 18.515 17.6426 18.3504C17.9522 18.3292 18.243 18.5009 18.3741 18.7821C18.5051 19.0635 18.4491 19.3967 18.2335 19.62C17.6116 20.2636 16.3681 20.8901 14.9512 21.2899C13.505 21.698 11.7474 21.9074 10.0284 21.6092C8.29675 21.3088 6.59024 20.4887 5.32232 18.8348C4.06263 17.1917 3.29647 14.8048 3.27642 11.4803L3.25005 10.326C3.24993 10.3206 3.25006 10.3149 3.25005 10.3094C3.25005 8.81821 3.25292 7.70222 3.44341 6.77232C3.64552 5.78612 4.05272 5.0215 4.78814 4.1815C5.32608 3.56695 6.08672 3.16875 6.84771 2.9022C7.61794 2.63244 8.45472 2.4753 9.21197 2.38267C9.97239 2.28967 10.6746 2.25904 11.1856 2.25181C11.4418 2.24819 11.6518 2.25066 11.7989 2.25377C11.8724 2.25532 11.9305 2.2572 11.9708 2.25865C11.9819 2.25905 11.9917 2.25929 12.0001 2.25963C12.0084 2.25929 12.0182 2.25905 12.0294 2.25865C12.0696 2.25721 12.1278 2.2553 12.2012 2.25377C12.3483 2.25069 12.5583 2.24814 12.8145 2.25181C13.3255 2.25914 14.0278 2.28955 14.7881 2.38267C15.5454 2.47543 16.3822 2.63332 17.1524 2.90318C17.9134 3.16982 18.674 3.56795 19.212 4.18248C19.9474 5.02247 20.3546 5.78711 20.5567 6.7733C20.7472 7.7032 20.7501 8.81919 20.7501 10.3104Z" fill="currentColor"/>
</svg>
