<svg class="icon icon-tabler icons-tabler-outline icon-tabler-brand-linkedin" stroke-linejoin="round" stroke-linecap="round" width="24" height="24" viewBox="0 0 24 24" fill="none" xmlns="http://www.w3.org/2000/svg">
<path d="M20.25 7C20.25 6.13805 19.9073 5.31164 19.2979 4.70215C18.6884 4.09266 17.862 3.75 17 3.75H7C6.13805 3.75 5.31164 4.09266 4.70215 4.70215C4.09266 5.31164 3.75 6.13805 3.75 7V17C3.75 17.862 4.09266 18.6884 4.70215 19.2979C5.31164 19.9073 6.13805 20.25 7 20.25H17C17.862 20.25 18.6884 19.9073 19.2979 19.2979C19.9073 18.6884 20.25 17.862 20.25 17V7ZM7.25 16V11C7.25 10.5858 7.58579 10.25 8 10.25C8.41421 10.25 8.75 10.5858 8.75 11V16C8.75 16.4142 8.41421 16.75 8 16.75C7.58579 16.75 7.25 16.4142 7.25 16ZM15.25 16V13C15.25 12.6685 15.1182 12.3506 14.8838 12.1162C14.6494 11.8818 14.3315 11.75 14 11.75C13.6685 11.75 13.3506 11.8818 13.1162 12.1162C12.8818 12.3506 12.75 12.6685 12.75 13V16C12.75 16.4142 12.4142 16.75 12 16.75C11.5858 16.75 11.25 16.4142 11.25 16V11C11.25 10.5858 11.5858 10.25 12 10.25C12.2722 10.25 12.5082 10.3963 12.6396 10.6133C13.051 10.3789 13.5183 10.25 14 10.25C14.7293 10.25 15.4286 10.5399 15.9443 11.0557C16.4601 11.5714 16.75 12.2707 16.75 13V16C16.75 16.4142 16.4142 16.75 16 16.75C15.5858 16.75 15.25 16.4142 15.25 16ZM7.25 8.00977V8C7.25 7.58579 7.58579 7.25 8 7.25C8.41421 7.25 8.75 7.58579 8.75 8V8.00977C8.75 8.42398 8.41421 8.75977 8 8.75977C7.58579 8.75977 7.25 8.42398 7.25 8.00977ZM21.75 17C21.75 18.2598 21.2492 19.4676 20.3584 20.3584C19.4676 21.2492 18.2598 21.75 17 21.75H7C5.74022 21.75 4.5324 21.2492 3.6416 20.3584C2.7508 19.4676 2.25 18.2598 2.25 17V7C2.25 5.74022 2.7508 4.5324 3.6416 3.6416C4.5324 2.7508 5.74022 2.25 7 2.25H17C18.2598 2.25 19.4676 2.7508 20.3584 3.6416C21.2492 4.5324 21.75 5.74022 21.75 7V17Z" fill="currentColor"/>
</svg>
