<svg class="icon icon-tabler icons-tabler-outline icon-tabler-brand-swift" stroke-linejoin="round" stroke-linecap="round" width="24" height="24" viewBox="0 0 24 24" fill="none" xmlns="http://www.w3.org/2000/svg">
<path d="M21.2499 19.4931C21.2499 18.3072 20.8076 17.1984 20.0009 16.3427C19.8133 16.1437 19.749 15.8578 19.8329 15.5976C20.4221 13.7697 20.1336 11.5925 19.0947 9.43154C18.3605 7.90457 17.2631 6.41716 15.8915 5.11513C16.0064 5.52856 16.126 5.97712 16.2382 6.44325C16.4819 7.45568 16.701 8.57065 16.788 9.60048C16.8725 10.6012 16.845 11.642 16.4931 12.4296C16.4027 12.6318 16.2267 12.7838 16.0136 12.8446C15.8006 12.9054 15.5722 12.8689 15.3886 12.745C13.4247 11.4187 11.1056 9.6207 8.43353 7.35536L8.22748 8.18154C8.17818 8.37871 8.05094 8.54766 7.87494 8.64931C7.69895 8.75093 7.48928 8.77643 7.29388 8.7206L6.36419 8.45497C9.71166 12.0603 11.9314 14.3213 13.0458 15.2694C13.2418 15.4362 13.339 15.6924 13.3027 15.9472C13.2663 16.2017 13.1017 16.42 12.8671 16.5253C10.3141 17.6703 7.45449 17.385 5.32709 16.8827C5.13206 16.8367 4.94269 16.7865 4.75873 16.7372C5.24955 17.1385 5.80711 17.5532 6.41693 17.952C8.35771 19.2214 10.7079 20.2499 12.9999 20.2499C14.9216 20.2499 16.4804 19.7597 17.2314 19.0614L17.2324 19.0604C17.2444 19.049 17.2586 19.0357 17.2753 19.0214C17.3089 18.9926 17.3527 18.9584 17.4052 18.9227C17.5104 18.8513 17.6543 18.772 17.8378 18.7099C18.2151 18.5822 18.7159 18.5414 19.33 18.7206L19.331 18.7216C19.6629 18.819 20.0864 19.0181 20.5742 19.2821C20.7807 19.3939 21.0063 19.5211 21.2499 19.664V19.4931ZM22.7499 20.9999C22.7499 21.273 22.6013 21.5242 22.3622 21.6561C22.1232 21.7881 21.8316 21.7801 21.6005 21.6347C20.8995 21.1933 20.3203 20.8504 19.8603 20.6015C19.3889 20.3463 19.0813 20.2117 18.9091 20.161V20.1601C18.578 20.0636 18.3921 20.1058 18.3183 20.1308C18.2767 20.1449 18.2538 20.16 18.248 20.164C17.0903 21.2369 15.0757 21.7499 12.9999 21.7499C10.2923 21.7499 7.65073 20.5511 5.59564 19.2069C3.67613 17.9514 2.1578 16.4961 1.49408 15.5868L1.37298 15.412C1.35009 15.3772 1.23694 15.206 1.24994 14.9579C1.25769 14.8105 1.3103 14.6543 1.41888 14.5214C1.52056 14.3971 1.6394 14.3321 1.72357 14.2987C1.87325 14.2394 2.00263 14.2444 2.03705 14.246C2.08897 14.2483 2.13056 14.2554 2.15228 14.2597C2.2246 14.2737 2.28949 14.2975 2.30658 14.3036C2.36377 14.3242 2.44116 14.3562 2.51849 14.3876C2.6845 14.4549 2.92133 14.5518 3.22259 14.6659C3.82504 14.8942 4.67876 15.1883 5.67181 15.4227C7.33336 15.815 9.30516 16.0195 11.1279 15.5468C9.54296 14.0367 6.97522 11.3487 3.4472 7.50673C3.22044 7.25941 3.186 6.89191 3.36224 6.60634C3.53867 6.32059 3.88309 6.18693 4.20599 6.27919L6.9599 7.06532L7.2724 5.81825L7.30169 5.72548C7.3837 5.51676 7.55639 5.35391 7.77337 5.28505C8.02127 5.20648 8.29211 5.2619 8.48919 5.43154C11.1054 7.68602 13.3803 9.49592 15.3144 10.869C15.3349 10.5402 15.3302 10.1579 15.2939 9.72743C15.216 8.80483 15.0156 7.77173 14.7802 6.79384C14.5457 5.81954 14.2812 4.91908 14.082 4.26259C13.9846 3.94173 13.897 3.66182 13.8427 3.47939C13.816 3.38976 13.7914 3.30243 13.7753 3.23525C13.77 3.21292 13.7529 3.14451 13.747 3.06923C13.7453 3.0468 13.743 3.00668 13.746 2.9579C13.7483 2.92203 13.7564 2.81297 13.8134 2.68837C13.8779 2.54744 14.0569 2.29546 14.4091 2.2538C14.6899 2.2207 14.8846 2.35308 14.9345 2.38857L14.9335 2.38954C17.3611 4.11126 19.2932 6.38186 20.4472 8.78212C21.5298 11.0342 21.9497 13.4529 21.3798 15.6444C22.2655 16.7283 22.7499 18.0726 22.7499 19.4931V20.9999Z" fill="currentColor"/>
</svg>
