<svg class="icon icon-tabler icons-tabler-outline icon-tabler-brand-apple" stroke-linejoin="round" stroke-linecap="round" width="24" height="24" viewBox="0 0 24 24" fill="none" xmlns="http://www.w3.org/2000/svg">
<path d="M12.7705 6.81348C13.4383 6.52407 14.339 6.18709 15.2998 6.25977H15.3008C15.6969 6.28671 16.4484 6.45064 17.2461 6.81543C18.0504 7.18331 18.9695 7.78648 19.6191 8.73828C19.7386 8.91336 19.7792 9.13086 19.7295 9.33691C19.6798 9.54298 19.5446 9.71798 19.3584 9.81934C19.1339 9.94155 18.6899 10.0399 18.0771 10.5117C17.5219 10.9393 17.0647 11.5352 17.0713 12.3809L17.0791 12.5791C17.2137 14.5704 19.0317 14.8324 19.2578 14.915C19.5532 15.0234 19.75 15.3045 19.75 15.6191C19.7499 16.9484 18.9555 18.4598 18.043 19.5879C17.5741 20.1675 17.0395 20.6908 16.4941 21.0752C15.9675 21.4464 15.3435 21.75 14.7139 21.75C13.8035 21.75 13.2696 21.5922 12.8066 21.4463C12.3926 21.3158 12.0821 21.2119 11.5 21.2119C10.8893 21.2119 10.4505 21.3143 9.99219 21.4365C9.53315 21.5589 8.99888 21.7198 8.31836 21.749C8.30769 21.7495 8.29681 21.75 8.28613 21.75C7.46368 21.75 6.74708 21.2906 6.18066 20.7217C5.60335 20.1418 5.09183 19.3603 4.66797 18.5088C3.82309 16.8115 3.25 14.6794 3.25 12.9277C3.25003 11.5028 3.53075 9.87722 4.29004 8.58008C5.07167 7.24498 6.37033 6.25781 8.28613 6.25781C9.06783 6.25785 9.8345 6.60744 10.3838 6.86914C10.6873 7.01376 10.9239 7.13252 11.1436 7.22363C11.2486 7.26718 11.332 7.29728 11.3984 7.31543C11.4308 7.32427 11.4556 7.32918 11.4736 7.33203C11.4915 7.33486 11.4999 7.33496 11.5 7.33496C11.4924 7.33496 11.5194 7.33576 11.5967 7.31348C11.6705 7.29217 11.7643 7.25715 11.8848 7.20703C12.1622 7.09164 12.385 6.98057 12.7705 6.81348ZM14 1.25C14.4142 1.25 14.75 1.58579 14.75 2C14.75 2.72935 14.4601 3.42861 13.9443 3.94434C13.4286 4.46006 12.7293 4.75 12 4.75C11.5858 4.75 11.25 4.41421 11.25 4C11.25 3.27065 11.5399 2.57139 12.0557 2.05566C12.5714 1.53994 13.2707 1.25 14 1.25ZM4.75 12.9277C4.75 14.405 5.24844 16.3094 6.01074 17.8408C6.39044 18.6036 6.81703 19.2351 7.24414 19.6641C7.67702 20.0987 8.02884 20.2457 8.27734 20.249C8.75002 20.2258 9.11175 20.1192 9.60645 19.9873C10.11 19.853 10.6959 19.7119 11.5 19.7119C12.3238 19.7119 12.8172 19.8771 13.2568 20.0156C13.6475 20.1387 14.0177 20.25 14.7139 20.25C14.8878 20.25 15.2022 20.1501 15.6299 19.8486C16.0387 19.5604 16.4754 19.141 16.877 18.6445C17.5361 17.8296 18.0142 16.9164 18.1826 16.1631C17.2762 15.8159 15.5976 14.8273 15.5713 12.3975V12.3955C15.5585 10.907 16.3957 9.91342 17.1621 9.32324C17.3618 9.16949 17.5771 9.03146 17.7803 8.91406C17.425 8.6036 17.0218 8.36212 16.623 8.17969C15.9669 7.87959 15.3911 7.76894 15.1992 7.75586H15.1914C14.6206 7.71127 14.009 7.91133 13.3672 8.18945C13.0969 8.30661 12.7141 8.48747 12.4609 8.59277C12.1997 8.70142 11.8457 8.83496 11.5 8.83496C11.1603 8.83496 10.8253 8.71595 10.5684 8.60938C10.3014 8.49862 10.0007 8.34818 9.73926 8.22363C9.15841 7.94689 8.68224 7.75785 8.28613 7.75781C6.98613 7.75781 6.14137 8.3857 5.58398 9.33789C5.00436 10.3281 4.75004 11.6628 4.75 12.9277Z" fill="currentColor"/>
</svg>
