<svg xmlns="http://www.w3.org/2000/svg" width="17" height="16" viewBox="0 0 17 16" fill="none">
  <path fill-rule="evenodd" clip-rule="evenodd" d="M8.50004 2.66536C5.55452 2.66536 3.16671 5.05318 3.16671 7.9987C3.16671 10.9442 5.55452 13.332 8.50004 13.332C11.4456 13.332 13.8334 10.9442 13.8334 7.9987C13.8334 5.05318 11.4456 2.66536 8.50004 2.66536ZM1.83337 7.9987C1.83337 4.3168 4.81814 1.33203 8.50004 1.33203C12.1819 1.33203 15.1667 4.3168 15.1667 7.9987C15.1667 11.6806 12.1819 14.6654 8.50004 14.6654C4.81814 14.6654 1.83337 11.6806 1.83337 7.9987ZM8.50004 5.66536C7.21138 5.66536 6.16671 6.71003 6.16671 7.9987C6.16671 9.28736 7.21138 10.332 8.50004 10.332C9.78871 10.332 10.8334 9.28736 10.8334 7.9987C10.8334 6.71003 9.78871 5.66536 8.50004 5.66536ZM4.83337 7.9987C4.83337 5.97365 6.475 4.33203 8.50004 4.33203C10.5251 4.33203 12.1667 5.97365 12.1667 7.9987C12.1667 10.0237 10.5251 11.6654 8.50004 11.6654C6.475 11.6654 4.83337 10.0237 4.83337 7.9987Z" fill="currentColor"/>
</svg>
