<svg width="24" height="24" viewBox="0 0 24 24" fill="none" xmlns="http://www.w3.org/2000/svg">
<path fill-rule="evenodd" clip-rule="evenodd" d="M14.3803 2.00605C14.7527 1.96213 15.011 2.13651 15.0785 2.18447C17.5383 3.92898 19.4985 6.23249 20.6722 8.67375C21.7524 10.9207 22.1956 13.353 21.6544 15.5833C22.5261 16.6943 23 18.0576 23 19.4932V21.0002C23 21.3643 22.8021 21.6996 22.4834 21.8756C22.1646 22.0516 21.7754 22.0404 21.4673 21.8464C20.7687 21.4067 20.195 21.0665 19.7416 20.8211C19.2736 20.5678 18.9852 20.444 18.8394 20.401C18.5552 20.3182 18.4221 20.3601 18.3988 20.368C18.3974 20.3685 18.3961 20.3689 18.3949 20.3694C17.1665 21.49 15.0885 22.0002 13 22.0002C10.223 22.0002 7.5328 20.7731 5.45864 19.4164C3.39459 18.0663 1.7743 16.4769 1.16451 15.5496L1.16364 15.5483C1.13201 15.5002 0.983204 15.2737 1.0004 14.9452C1.01069 14.7488 1.08027 14.541 1.22504 14.3639C1.36088 14.1976 1.51974 14.1108 1.63199 14.0663C1.83177 13.9872 2.00368 13.9947 2.04858 13.9967C2.11759 13.9998 2.17219 14.0094 2.20033 14.0149C2.28979 14.0323 2.36803 14.0607 2.38874 14.0682L2.39132 14.0691C2.45428 14.0918 2.53704 14.1253 2.61285 14.156C2.6289 14.1625 2.64557 14.1693 2.66286 14.1763C2.82509 14.2422 3.04196 14.3303 3.31135 14.4324C3.90732 14.6582 4.75009 14.9482 5.72932 15.1794C7.23759 15.5355 8.98054 15.7307 10.6197 15.4087C9.00925 13.8435 6.55073 11.2563 3.26347 7.67653C2.96062 7.34673 2.91392 6.8558 3.14915 6.47481C3.38439 6.09381 3.84422 5.91563 4.27475 6.03864L6.78065 6.75461L7.02989 5.75763C7.11406 5.42094 7.36678 5.15197 7.69757 5.047C8.02836 4.94203 8.38992 5.01608 8.65283 5.24263C11.0952 7.34729 13.2361 9.06123 15.0775 10.3923C15.0749 10.1947 15.0643 9.97996 15.0447 9.74826C14.9683 8.84356 14.7709 7.82479 14.5369 6.85269C14.3041 5.88529 14.0414 4.99009 13.8427 4.33535C13.8002 4.19521 13.7592 4.06157 13.722 3.94027C13.6748 3.78661 13.6338 3.65277 13.6034 3.55064C13.5767 3.46106 13.5498 3.36791 13.5319 3.29328L13.5314 3.291C13.5252 3.26561 13.5053 3.18254 13.498 3.08836C13.4957 3.05927 13.4928 3.00705 13.4968 2.94253C13.4997 2.89528 13.5104 2.75051 13.5863 2.58469C13.6721 2.39703 13.9106 2.06143 14.3803 2.00605ZM8.57893 7.80769L8.47018 8.2427C8.40445 8.5056 8.23484 8.73057 8.00017 8.86611C7.76551 9.00164 7.48588 9.03614 7.22531 8.96169L7.15908 8.94277C10.166 12.1661 12.1743 14.2 13.208 15.0795C13.4694 15.3019 13.5985 15.6427 13.55 15.9824C13.5016 16.3221 13.2823 16.6132 12.9692 16.7536C10.5665 17.8312 7.91528 17.6732 5.83761 17.2507C6.06652 17.4158 6.30542 17.5804 6.55343 17.7427C8.47527 18.9997 10.777 20.0002 13 20.0002C14.8883 20.0002 16.3664 19.5179 17.0532 18.8861C17.0556 18.8838 17.0581 18.8814 17.0607 18.879C17.0756 18.8648 17.0931 18.8489 17.1132 18.8318C17.1533 18.7974 17.2035 18.7579 17.2643 18.7166C17.386 18.6339 17.55 18.5438 17.7575 18.4736C18.1855 18.3287 18.7387 18.2882 19.4001 18.4812L19.4018 18.4817C19.7604 18.587 20.2032 18.7967 20.6937 19.0622C20.7893 19.114 20.8888 19.169 20.9922 19.2273C20.9315 18.2061 20.5218 17.2592 19.8194 16.5141C19.5693 16.2488 19.4834 15.8684 19.5953 15.5214C20.1592 13.7718 19.8899 11.6624 18.8697 9.54033C18.2696 8.29228 17.4216 7.06757 16.3744 5.95215C16.4105 6.09423 16.4462 6.23857 16.4814 6.38464C16.7265 7.40304 16.9491 8.53202 17.0376 9.57995C17.1228 10.5891 17.1003 11.6838 16.7209 12.5323C16.6004 12.802 16.3667 13.0046 16.0826 13.0857C15.7986 13.1668 15.4932 13.1182 15.2484 12.9529C13.3506 11.6712 11.1262 9.95465 8.57893 7.80769ZM15.4768 2.82717C15.4748 2.81869 15.4755 2.82059 15.4776 2.83029C15.4773 2.82914 15.477 2.8281 15.4768 2.82717ZM1.71392 15.9509C1.71489 15.9512 1.71594 15.9516 1.71707 15.952C1.70661 15.9486 1.70454 15.9475 1.71392 15.9509Z" fill="currentColor"/>
</svg>
