<svg width="20" height="20" viewBox="0 0 20 20" fill="none" xmlns="http://www.w3.org/2000/svg">
<path d="M15.8333 8.59199C15.8333 7.29724 15.8248 6.53554 15.7023 5.93737C15.6064 5.46897 15.4377 5.09394 15.0789 4.64424L14.9129 4.44649C14.6984 4.20127 14.3293 3.97704 13.811 3.79544C13.3028 3.61741 12.718 3.50328 12.1468 3.4333C11.5791 3.36376 11.0478 3.34043 10.6576 3.33483C10.4635 3.33205 10.3061 3.3334 10.1986 3.33565C10.1448 3.33677 10.1034 3.33794 10.0765 3.3389C10.0631 3.33938 10.0533 3.34027 10.0472 3.34053H9.9528C9.94677 3.34027 9.9368 3.33938 9.9235 3.3389C9.89663 3.33794 9.85518 3.33678 9.80143 3.33565C9.69385 3.33338 9.53593 3.33208 9.34163 3.33483C8.95147 3.34036 8.42069 3.36307 7.85319 3.43249C7.28186 3.50238 6.69647 3.6166 6.18815 3.79463C5.73483 3.95343 5.39625 4.14499 5.17497 4.35453L5.08708 4.44567C4.61227 4.98801 4.40736 5.4012 4.29769 5.93656C4.17576 6.53177 4.16675 7.28852 4.16667 8.57165L4.18783 9.53356C4.18793 9.53831 4.18861 9.54346 4.18864 9.54821L3.35531 9.55228H3.33171L4.18864 9.54821C4.20261 12.1139 4.79152 13.7639 5.59245 14.8086C6.386 15.8437 7.45379 16.3713 8.60677 16.5713C9.2547 16.6837 9.92438 16.6876 10.5721 16.621C10.2354 16.5644 9.91595 16.4958 9.61426 16.4126C8.23263 16.0319 7.14901 15.3451 6.53564 14.265L7.25911 13.8532H7.25993L6.53564 14.265C6.37676 13.9852 6.39328 13.6382 6.57796 13.3747C6.76264 13.1115 7.08207 12.9784 7.39909 13.0321C8.25456 13.1773 9.12178 13.2441 9.98942 13.2331L10.0236 13.2339H10.0586C10.0848 13.2343 10.1257 13.2354 10.1782 13.2355C10.2833 13.2358 10.4373 13.234 10.6274 13.2282C11.0096 13.2165 11.532 13.1866 12.0955 13.1135C12.6621 13.04 13.2509 12.9256 13.7736 12.7521C14.2394 12.5975 14.6058 12.4112 14.8584 12.2036L14.9593 12.1133C15.2452 11.8357 15.4439 11.557 15.5859 11.0871C15.7389 10.5807 15.8333 9.82814 15.8333 8.59199ZM14.6875 15.0845C15.0315 15.0608 15.3549 15.2513 15.5005 15.5638C15.646 15.8765 15.5839 16.2468 15.3442 16.4948L14.7453 15.9154L14.6875 15.0845ZM12.5 10.8332V6.89847C12.5 6.20502 12.0285 5.8332 11.6667 5.8332C11.3048 5.8332 10.8333 6.20502 10.8333 6.89847V9.33662C10.8333 9.79686 10.4602 10.17 10 10.17C9.53976 10.17 9.16667 9.79686 9.16667 9.33662V6.89847L9.16097 6.77233C9.10794 6.15997 8.67264 5.8332 8.33333 5.8332C7.97146 5.8332 7.5 6.20502 7.5 6.89847V10.8332C7.5 11.2934 7.1269 11.6665 6.66667 11.6665C6.20643 11.6665 5.83333 11.2934 5.83333 10.8332V6.89847C5.83333 5.49525 6.85354 4.16654 8.33333 4.16654C8.99937 4.16654 9.57128 4.43678 10 4.86071C10.4287 4.43678 11.0006 4.16654 11.6667 4.16654C13.1465 4.16654 14.1667 5.49525 14.1667 6.89847V10.8332C14.1667 11.2934 13.7936 11.6665 13.3333 11.6665C12.8731 11.6665 12.5 11.2934 12.5 10.8332ZM17.5 8.59199C17.5 9.88515 17.4046 10.83 17.181 11.5697C16.9464 12.3459 16.5813 12.8623 16.1206 13.3096L15.9237 13.4854C15.4483 13.8781 14.8658 14.1459 14.2985 14.3342C13.6406 14.5525 12.9388 14.6847 12.3096 14.7663C11.6774 14.8483 11.098 14.8812 10.6779 14.8941C10.5894 14.8968 10.5077 14.8962 10.4338 14.8973C11.5127 15.1333 12.9218 15.2062 14.6875 15.0845L14.7445 15.9154L15.3442 16.4948C14.7884 17.0701 13.7107 17.6047 12.5163 17.9418C11.2891 18.288 9.79237 18.4686 8.32194 18.2136C6.83741 17.9561 5.36428 17.2499 4.27002 15.8226C3.18495 14.4073 2.53928 12.37 2.52197 9.571L2.5 8.6099V8.59118C2.5 7.35594 2.50128 6.40225 2.6652 5.60208C2.84198 4.73918 3.2004 4.07045 3.83301 3.34785L4.02181 3.15091C4.4821 2.7123 5.06832 2.42108 5.63802 2.22155C6.29884 1.99015 7.01193 1.85625 7.65137 1.77803C8.29429 1.6994 8.88718 1.67427 9.31803 1.66817C9.53416 1.66511 9.71177 1.66716 9.83643 1.66979C9.8988 1.67111 9.94834 1.67262 9.98291 1.67386C9.98908 1.67408 9.99478 1.67448 10 1.67468C10.0052 1.67448 10.0109 1.67408 10.0171 1.67386C10.0517 1.67263 10.1012 1.6711 10.1636 1.66979C10.2882 1.66719 10.4657 1.66507 10.682 1.66817C11.1129 1.67435 11.7063 1.70006 12.3494 1.77884C12.9889 1.85719 13.702 1.99084 14.3628 2.22236C15.0136 2.45043 15.6853 2.79821 16.167 3.34867L16.3916 3.61722C16.8865 4.24118 17.1801 4.84778 17.3348 5.6029C17.4987 6.40307 17.5 7.35675 17.5 8.59199Z" fill="currentColor"/>
</svg>
