<svg class="icon icon-tabler icons-tabler-outline icon-tabler-brand-github" stroke-linejoin="round" stroke-linecap="round" width="24" height="24" viewBox="0 0 24 24" fill="none" xmlns="http://www.w3.org/2000/svg">
<path d="M14.2501 20.9996V17.4996C14.2501 16.9172 14.2718 16.6916 14.2354 16.4733C14.2151 16.3515 14.1775 16.2387 13.9698 16.0309C13.7656 15.8267 13.6969 15.523 13.793 15.2506C13.8891 14.9783 14.1329 14.7854 14.42 14.7545C15.77 14.6099 16.9581 14.2819 17.8087 13.5455C18.627 12.837 19.25 11.6453 19.2501 9.50062C19.249 8.50062 18.8588 7.54034 18.1622 6.82289C17.9598 6.61455 17.8959 6.30759 17.9981 6.03578C18.2629 5.33172 18.2884 4.56496 18.0792 3.85121C18.0282 3.85908 17.9715 3.86991 17.9092 3.88343C17.4439 3.98463 16.6545 4.26483 15.5157 5.02406C15.3378 5.14255 15.118 5.17947 14.9112 5.12562C13.0024 4.62849 10.9977 4.62849 9.08892 5.12562C8.88208 5.17947 8.66231 5.14255 8.48443 5.02406C7.34558 4.26483 6.5562 3.98463 6.09088 3.88343C6.02826 3.86982 5.97122 3.85909 5.91998 3.85121C5.71086 4.56488 5.73726 5.3318 6.00201 6.03578C6.10426 6.30759 6.04027 6.61455 5.83795 6.82289C5.14134 7.54034 4.75113 8.50062 4.75006 9.50062C4.75016 11.6453 5.37313 12.837 6.19146 13.5455C7.04202 14.2819 8.23016 14.6099 9.58014 14.7545C9.86724 14.7854 10.111 14.9783 10.2071 15.2506C10.3032 15.523 10.2345 15.8267 10.0303 16.0309C9.83052 16.2308 9.75628 16.3975 9.72369 16.567C9.68534 16.7668 9.69521 17.0149 9.7442 17.4069C9.74804 17.4376 9.75004 17.4687 9.75006 17.4996V20.9996C9.75006 21.4139 9.41427 21.7496 9.00006 21.7496C8.58584 21.7496 8.25006 21.4139 8.25006 20.9996V19.9616C7.50702 20.0954 6.85908 20.0752 6.28521 19.9147C5.46704 19.6858 4.89329 19.2041 4.45904 18.7047C4.06562 18.2523 3.68811 17.6485 3.44732 17.3229C3.15345 16.9256 2.95978 16.7699 2.78814 16.7194C2.39106 16.6024 2.16368 16.1859 2.28033 15.7887C2.39721 15.3913 2.81459 15.164 3.21197 15.2809C3.8901 15.4805 4.33481 15.9996 4.65338 16.4303C5.02506 16.9328 5.23449 17.3105 5.59088 17.7203C5.90659 18.0834 6.24533 18.3461 6.68951 18.4703C7.05435 18.5724 7.55111 18.5952 8.25006 18.4303V17.5387C8.20247 17.1455 8.16839 16.7139 8.25103 16.2838C8.26447 16.214 8.28064 16.1447 8.29986 16.0768C7.19929 15.857 6.10333 15.4537 5.20904 14.6793C3.97755 13.6129 3.25006 11.9546 3.25006 9.49964L3.25689 9.23988C3.31348 8.09767 3.73418 7.00497 4.45514 6.12172C4.15513 5.01999 4.24401 3.84285 4.71588 2.79261L4.75396 2.71839C4.85266 2.55131 5.01388 2.42823 5.20318 2.3766L5.40045 3.10023C5.21968 2.43741 5.20481 2.38144 5.20416 2.3766L5.20514 2.37562L5.20807 2.37464C5.20986 2.37417 5.21201 2.37416 5.21392 2.37367C5.21808 2.3726 5.22287 2.3709 5.2276 2.36976C5.23707 2.36748 5.24808 2.36538 5.25982 2.36293C5.28326 2.35803 5.31138 2.35301 5.34381 2.34828C5.40896 2.33877 5.49193 2.33099 5.59283 2.32875C5.79521 2.32425 6.06665 2.34314 6.40924 2.41761C7.04222 2.55522 7.91031 2.88272 9.03424 3.59535C10.985 3.14005 13.0141 3.1402 14.9649 3.59535C16.0892 2.88241 16.9578 2.55525 17.5909 2.41761C17.9335 2.34314 18.2049 2.32425 18.4073 2.32875C18.5082 2.33099 18.5912 2.33877 18.6563 2.34828C18.6887 2.35301 18.7169 2.35803 18.7403 2.36293C18.752 2.36538 18.763 2.36748 18.7725 2.36976C18.7772 2.3709 18.782 2.3726 18.7862 2.37367C18.7881 2.37416 18.7903 2.37417 18.792 2.37464L18.795 2.37562L18.796 2.3766C18.7954 2.3807 18.7843 2.42129 18.671 2.83754L18.7969 2.3766C19.0132 2.43559 19.1923 2.58812 19.2842 2.79261C19.7561 3.84293 19.8441 5.01992 19.544 6.12172C20.3196 7.07173 20.7488 8.26391 20.7501 9.49964L20.7413 9.95082C20.6569 12.1598 19.9456 13.6796 18.7911 14.6793C17.8925 15.4574 16.7905 15.8616 15.6846 16.0807C15.6958 16.1286 15.7066 16.1775 15.7149 16.2272C15.7784 16.6086 15.7501 17.0827 15.7501 17.4996V20.9996C15.7501 21.4139 15.4143 21.7496 15.0001 21.7496C14.5858 21.7496 14.2501 21.4139 14.2501 20.9996Z" fill="currentColor"/>
</svg>
