<svg class="icon icon-tabler icons-tabler-outline icon-tabler-brand-slack" stroke-linejoin="round" stroke-linecap="round" width="24" height="24" viewBox="0 0 24 24" fill="none" xmlns="http://www.w3.org/2000/svg">
<path d="M19.25 14.0001C19.25 13.6686 19.1182 13.3507 18.8838 13.1163C18.6494 12.8819 18.3315 12.7501 18 12.7501H12.75V15.2501H18C18.3315 15.2501 18.6494 15.1183 18.8838 14.8839C19.1182 14.6495 19.25 14.3316 19.25 14.0001ZM7.24999 12.7501H5.99999C5.75277 12.7501 5.51122 12.8237 5.30566 12.9611C5.10011 13.0984 4.93932 13.2932 4.84472 13.5216C4.75011 13.75 4.72618 14.0018 4.77441 14.2443C4.82268 14.4866 4.94147 14.7092 5.1162 14.8839C5.29094 15.0586 5.51351 15.1774 5.75585 15.2257C5.99832 15.2739 6.2501 15.25 6.47851 15.1554C6.7069 15.0608 6.9017 14.9 7.03906 14.6945C7.17641 14.4889 7.24999 14.2473 7.24999 14.0001V12.7501ZM12.75 18.0001C12.75 18.2473 12.8236 18.4889 12.9609 18.6945C13.0983 18.9 13.2931 19.0608 13.5215 19.1554C13.7499 19.25 14.0017 19.2739 14.2441 19.2257C14.4865 19.1774 14.709 19.0586 14.8838 18.8839C15.0585 18.7092 15.1773 18.4866 15.2256 18.2443C15.2738 18.0018 15.2499 17.75 15.1553 17.5216C15.0607 17.2932 14.8999 17.0984 14.6943 16.9611C14.4888 16.8237 14.2472 16.7501 14 16.7501H12.75V18.0001ZM8.74999 18.0001C8.74999 18.3316 8.88178 18.6495 9.1162 18.8839C9.35063 19.1183 9.66847 19.2501 9.99999 19.2501C10.3315 19.2501 10.6494 19.1183 10.8838 18.8839C11.1182 18.6495 11.25 18.3316 11.25 18.0001V12.7501H8.74999V18.0001ZM11.25 6.00011C11.25 5.75289 11.1764 5.51134 11.0391 5.30578C10.9017 5.10024 10.7069 4.93944 10.4785 4.84484C10.2501 4.75024 9.99832 4.7263 9.75585 4.77453C9.51351 4.8228 9.29094 4.94159 9.1162 5.11633C8.94147 5.29106 8.82268 5.51363 8.77441 5.75597C8.72618 5.99845 8.75011 6.25023 8.84472 6.47863C8.93932 6.70702 9.10011 6.90183 9.30566 7.03918C9.51122 7.17653 9.75277 7.25011 9.99999 7.25011H11.25V6.00011ZM4.74999 10.0001C4.74999 10.3316 4.88178 10.6495 5.1162 10.8839C5.35062 11.1183 5.66847 11.2501 5.99999 11.2501H11.25V8.75011H5.99999C5.66847 8.75012 5.35062 8.88191 5.1162 9.11633C4.88178 9.35075 4.74999 9.66859 4.74999 10.0001ZM16.75 11.2501H18C18.2472 11.2501 18.4888 11.1765 18.6943 11.0392C18.8999 10.9018 19.0607 10.707 19.1553 10.4786C19.2499 10.2502 19.2738 9.99845 19.2256 9.75597C19.1773 9.51363 19.0585 9.29106 18.8838 9.11633C18.709 8.94159 18.4865 8.8228 18.2441 8.77453C18.0017 8.7263 17.7499 8.75024 17.5215 8.84484C17.2931 8.93944 17.0983 9.10024 16.9609 9.30578C16.8236 9.51134 16.75 9.75289 16.75 10.0001V11.2501ZM12.75 11.2501H15.25V6.00011C15.25 5.6686 15.1182 5.35075 14.8838 5.11633C14.6494 4.88191 14.3315 4.75011 14 4.75011C13.6685 4.75012 13.3506 4.88191 13.1162 5.11633C12.8818 5.35075 12.75 5.6686 12.75 6.00011V11.2501ZM16.75 7.5509C16.8145 7.518 16.8801 7.48694 16.9473 7.4591C17.4496 7.25101 18.0028 7.19684 18.5361 7.30285C19.0696 7.40896 19.5597 7.67119 19.9443 8.05578C20.3289 8.44037 20.5911 8.93053 20.6973 9.46398C20.8033 9.99731 20.7491 10.5505 20.541 11.0528C20.3915 11.4138 20.1658 11.7356 19.8838 12.0011C19.9035 12.0197 19.9251 12.0365 19.9443 12.0558C20.4601 12.5715 20.75 13.2708 20.75 14.0001C20.75 14.7295 20.4601 15.4287 19.9443 15.9445C19.4286 16.4602 18.7293 16.7501 18 16.7501H16.4492C16.4821 16.8146 16.5132 16.8802 16.541 16.9474C16.7491 17.4498 16.8033 18.0029 16.6973 18.5362C16.5911 19.0697 16.3289 19.5599 15.9443 19.9445C15.5597 20.329 15.0696 20.5913 14.5361 20.6974C14.0028 20.8034 13.4496 20.7492 12.9473 20.5411C12.5861 20.3915 12.2636 20.1661 11.998 19.8839C11.9796 19.9035 11.9634 19.9254 11.9443 19.9445C11.4286 20.4602 10.7293 20.7501 9.99999 20.7501C9.27065 20.7501 8.57138 20.4602 8.05566 19.9445C7.53993 19.4287 7.24999 18.7295 7.24999 18.0001V16.4484C7.18541 16.4813 7.12006 16.5132 7.05273 16.5411C6.55035 16.7492 5.99719 16.8034 5.46386 16.6974C4.93041 16.5913 4.44025 16.329 4.05566 15.9445C3.67106 15.5599 3.40884 15.0697 3.30273 14.5362C3.19672 14.0029 3.25088 13.4498 3.45898 12.9474C3.60852 12.5864 3.83325 12.2636 4.11523 11.9982C4.09581 11.9798 4.07459 11.9634 4.05566 11.9445C3.53993 11.4287 3.24999 10.7295 3.24999 10.0001C3.24999 9.27077 3.53993 8.5715 4.05566 8.05578C4.57138 7.54005 5.27065 7.25012 5.99999 7.25011H7.55077C7.51788 7.18566 7.48682 7.12005 7.45898 7.05285C7.25088 6.55047 7.19672 5.99731 7.30273 5.46398C7.40884 4.93053 7.67106 4.44037 8.05566 4.05578C8.44025 3.67118 8.93041 3.40896 9.46386 3.30285C9.99719 3.19684 10.5503 3.25101 11.0527 3.4591C11.4135 3.60856 11.7356 3.83361 12.001 4.11535C12.0194 4.09576 12.0366 4.07487 12.0557 4.05578C12.5714 3.54005 13.2706 3.25012 14 3.25011C14.7293 3.25011 15.4286 3.54005 15.9443 4.05578C16.4601 4.5715 16.75 5.27077 16.75 6.00011V7.5509Z" fill="currentColor"/>
</svg>
