<svg class="icon icon-tabler icons-tabler-outline icon-tabler-brand-android" stroke-linejoin="round" stroke-linecap="round" width="24" height="24" viewBox="0 0 24 24" fill="none" xmlns="http://www.w3.org/2000/svg">
<path d="M16.25 9.74998H7.75V17C7.75 17.0663 7.77636 17.1299 7.82324 17.1767C7.87013 17.2236 7.93369 17.25 8 17.25H16C16.0663 17.25 16.1299 17.2236 16.1768 17.1767C16.2236 17.1299 16.25 17.0663 16.25 17V9.74998ZM3.25 16V9.99998C3.25 9.58577 3.58579 9.24998 4 9.24998C4.41421 9.24998 4.75 9.58577 4.75 9.99998V16C4.75 16.4142 4.41421 16.75 4 16.75C3.58579 16.75 3.25 16.4142 3.25 16ZM19.25 16V9.99998C19.25 9.58577 19.5858 9.24998 20 9.24998C20.4142 9.24998 20.75 9.58577 20.75 9.99998V16C20.75 16.4142 20.4142 16.75 20 16.75C19.5858 16.75 19.25 16.4142 19.25 16ZM12 4.74998C10.8728 4.74998 9.79215 5.19807 8.99512 5.9951C8.37718 6.61304 7.96954 7.40147 7.81738 8.24998H16.1826C16.0305 7.40147 15.6228 6.61304 15.0049 5.9951C14.2079 5.19807 13.1272 4.74998 12 4.74998ZM17.75 17C17.75 17.4641 17.5655 17.9091 17.2373 18.2373C16.9091 18.5655 16.4641 18.75 16 18.75H15.75V21C15.75 21.4142 15.4142 21.75 15 21.75C14.5858 21.75 14.25 21.4142 14.25 21V18.75H9.75V21C9.75 21.4142 9.41421 21.75 9 21.75C8.58579 21.75 8.25 21.4142 8.25 21V18.75H8C7.53587 18.75 7.09088 18.5655 6.7627 18.2373C6.43451 17.9091 6.25 17.4641 6.25 17V8.99998C6.25 7.47498 6.85624 6.01288 7.93457 4.93455C7.97746 4.89166 8.02134 4.84996 8.06543 4.80857L7.3291 3.33494C7.14416 2.96453 7.29469 2.51426 7.66504 2.32908C8.03545 2.14414 8.48572 2.29466 8.6709 2.66502L9.2998 3.92283C10.1237 3.48471 11.0498 3.24998 12 3.24998C12.9499 3.24998 13.8756 3.48497 14.6992 3.92283L15.3291 2.66502C15.5143 2.29466 15.9646 2.14414 16.335 2.32908C16.7053 2.51426 16.8558 2.96453 16.6709 3.33494L15.9336 4.80857C15.9779 4.85012 16.0224 4.89149 16.0654 4.93455C17.1438 6.01288 17.75 7.47498 17.75 8.99998V17Z" fill="currentColor"/>
</svg>
