<svg class="icon icon-tabler icons-tabler-outline icon-tabler-bulb" stroke-linejoin="round" stroke-linecap="round" width="24" height="24" viewBox="0 0 24 24" fill="none" xmlns="http://www.w3.org/2000/svg">
<path d="M12 6.25C13.2068 6.25 14.3833 6.62934 15.3623 7.33496C16.3413 8.0406 17.0734 9.03675 17.4551 10.1816C17.8367 11.3265 17.8481 12.5629 17.4883 13.7148C17.1353 14.8446 16.4413 15.8358 15.5039 16.5566C15.2977 16.7658 15.1276 17.0066 14.998 17.2686C14.9875 17.2959 14.9735 17.321 14.96 17.3467C14.9198 17.4349 14.8843 17.5258 14.8535 17.6182C14.7171 18.0276 14.679 18.4637 14.7422 18.8906C14.7475 18.9268 14.75 18.9634 14.75 19C14.75 19.7293 14.4601 20.4286 13.9443 20.9443C13.4286 21.4601 12.7293 21.75 12 21.75C11.2707 21.75 10.5714 21.4601 10.0557 20.9443C9.53994 20.4286 9.25 19.7293 9.25 19C9.25 18.9634 9.25248 18.9268 9.25781 18.8906C9.32101 18.4637 9.2829 18.0276 9.14648 17.6182C9.11564 17.5256 9.07934 17.435 9.03906 17.3467C9.02559 17.321 9.01146 17.2958 9.00098 17.2686C8.87132 17.0065 8.70146 16.7658 8.49512 16.5566C7.55803 15.8359 6.86464 14.8443 6.51172 13.7148C6.15188 12.5629 6.16329 11.3265 6.54492 10.1816C6.92655 9.03675 7.65867 8.0406 8.6377 7.33496C9.61671 6.62934 10.7932 6.25 12 6.25ZM10.7207 17.75C10.7951 18.172 10.806 18.6032 10.751 19.0303C10.7587 19.3508 10.8889 19.6565 11.1162 19.8838C11.3506 20.1182 11.6685 20.25 12 20.25C12.3315 20.25 12.6494 20.1182 12.8838 19.8838C13.1111 19.6565 13.2403 19.3508 13.248 19.0303C13.193 18.6032 13.2049 18.172 13.2793 17.75H10.7207ZM12 7.75C11.108 7.75 10.2383 8.0302 9.51465 8.55176C8.79102 9.07332 8.24985 9.81002 7.96777 10.6562C7.68579 11.5024 7.67742 12.4163 7.94336 13.2676C8.1761 14.0124 8.60892 14.6765 9.19141 15.1895L9.4502 15.4004L9.52734 15.4668C9.76602 15.7031 9.97477 15.9664 10.1504 16.25H13.8496C14.0252 15.9664 14.234 15.7031 14.4727 15.4668L14.5498 15.4004C15.2633 14.8653 15.7906 14.1189 16.0566 13.2676C16.3226 12.4162 16.3142 11.5024 16.0322 10.6562C15.7502 9.81002 15.209 9.07332 14.4854 8.55176C13.7617 8.0302 12.892 7.75 12 7.75ZM4 11.25C4.41421 11.25 4.75 11.5858 4.75 12C4.75 12.4142 4.41421 12.75 4 12.75H3C2.58579 12.75 2.25 12.4142 2.25 12C2.25 11.5858 2.58579 11.25 3 11.25H4ZM21 11.25C21.4142 11.25 21.75 11.5858 21.75 12C21.75 12.4142 21.4142 12.75 21 12.75H20C19.5858 12.75 19.25 12.4142 19.25 12C19.25 11.5858 19.5858 11.25 20 11.25H21ZM5.06934 5.06934C5.3621 4.77657 5.83696 4.77683 6.12988 5.06934L6.83008 5.76953C7.12297 6.06242 7.12297 6.53718 6.83008 6.83008C6.53718 7.12297 6.06242 7.12297 5.76953 6.83008L5.06934 6.12988C4.77683 5.83696 4.77657 5.3621 5.06934 5.06934ZM17.8701 5.06934C18.163 4.77683 18.6379 4.77657 18.9307 5.06934C19.2234 5.3621 19.2232 5.83696 18.9307 6.12988L18.2305 6.83008C17.9376 7.12297 17.4628 7.12297 17.1699 6.83008C16.877 6.53719 16.877 6.06242 17.1699 5.76953L17.8701 5.06934ZM11.25 4V3C11.25 2.58579 11.5858 2.25 12 2.25C12.4142 2.25 12.75 2.58579 12.75 3V4C12.75 4.41421 12.4142 4.75 12 4.75C11.5858 4.75 11.25 4.41421 11.25 4Z" fill="currentColor"/>
</svg>
