<svg class="icon icon-tabler icons-tabler-outline icon-tabler-calendar-week" stroke-linejoin="round" stroke-linecap="round" width="24" height="24" viewBox="0 0 24 24" fill="none" xmlns="http://www.w3.org/2000/svg">
<path d="M19.25 11.75H4.75V19C4.75 19.3315 4.88179 19.6494 5.11621 19.8838C5.35063 20.1182 5.66848 20.25 6 20.25H18C18.3315 20.25 18.6494 20.1182 18.8838 19.8838C19.1182 19.6494 19.25 19.3315 19.25 19V11.75ZM7.01465 16.25C7.42886 16.25 7.76465 16.5858 7.76465 17C7.76465 17.4142 7.42886 17.75 7.01465 17.75H7.00977C6.59566 17.7499 6.25977 17.4141 6.25977 17C6.25977 16.5859 6.59566 16.2501 7.00977 16.25H7.01465ZM10.0146 16.25C10.4289 16.25 10.7646 16.5858 10.7646 17C10.7646 17.4142 10.4289 17.75 10.0146 17.75H10.0098C9.59566 17.7499 9.25977 17.4141 9.25977 17C9.25977 16.5859 9.59566 16.2501 10.0098 16.25H10.0146ZM13.0195 16.25C13.4337 16.25 13.7695 16.5858 13.7695 17C13.7695 17.4142 13.4337 17.75 13.0195 17.75H13.0146C12.6006 17.7498 12.2646 17.4141 12.2646 17C12.2646 16.5859 12.6006 16.2502 13.0146 16.25H13.0195ZM7.0127 13.25C7.42691 13.25 7.7627 13.5858 7.7627 14C7.7627 14.4142 7.42691 14.75 7.0127 14.75H7C6.58579 14.75 6.25 14.4142 6.25 14C6.25 13.5858 6.58579 13.25 7 13.25H7.0127ZM10.0146 13.25C10.4289 13.25 10.7646 13.5858 10.7646 14C10.7646 14.4142 10.4289 14.75 10.0146 14.75H10.0098C9.59566 14.7499 9.25977 14.4141 9.25977 14C9.25977 13.5859 9.59566 13.2501 10.0098 13.25H10.0146ZM13.0146 13.25C13.4289 13.25 13.7646 13.5858 13.7646 14C13.7646 14.4142 13.4289 14.75 13.0146 14.75H13.0098C12.5957 14.7499 12.2598 14.4141 12.2598 14C12.2598 13.5859 12.5957 13.2501 13.0098 13.25H13.0146ZM16.0195 13.25C16.4337 13.25 16.7695 13.5858 16.7695 14C16.7695 14.4142 16.4337 14.75 16.0195 14.75H16.0146C15.6006 14.7498 15.2646 14.4141 15.2646 14C15.2646 13.5859 15.6006 13.2502 16.0146 13.25H16.0195ZM15.25 7V5.75H8.75V7C8.75 7.41421 8.41421 7.75 8 7.75C7.58579 7.75 7.25 7.41421 7.25 7V5.75H6C5.66848 5.75 5.35063 5.88179 5.11621 6.11621C4.88179 6.35063 4.75 6.66848 4.75 7V10.25H19.25V7C19.25 6.66848 19.1182 6.35063 18.8838 6.11621C18.6494 5.88179 18.3315 5.75 18 5.75H16.75V7C16.75 7.41421 16.4142 7.75 16 7.75C15.5858 7.75 15.25 7.41421 15.25 7ZM20.75 19C20.75 19.7293 20.4601 20.4286 19.9443 20.9443C19.4286 21.4601 18.7293 21.75 18 21.75H6C5.27065 21.75 4.57139 21.4601 4.05566 20.9443C3.53994 20.4286 3.25 19.7293 3.25 19V7C3.25 6.27065 3.53994 5.57139 4.05566 5.05566C4.57139 4.53994 5.27065 4.25 6 4.25H7.25V3C7.25 2.58579 7.58579 2.25 8 2.25C8.41421 2.25 8.75 2.58579 8.75 3V4.25H15.25V3C15.25 2.58579 15.5858 2.25 16 2.25C16.4142 2.25 16.75 2.58579 16.75 3V4.25H18C18.7293 4.25 19.4286 4.53994 19.9443 5.05566C20.4601 5.57139 20.75 6.27065 20.75 7V19Z" fill="currentColor"/>
</svg>
