<svg class="icon icon-tabler icons-tabler-outline icon-tabler-category" stroke-linejoin="round" stroke-linecap="round" width="24" height="24" viewBox="0 0 24 24" fill="none" xmlns="http://www.w3.org/2000/svg">
<path d="M10 13.25C10.4142 13.25 10.75 13.5858 10.75 14V20C10.75 20.4142 10.4142 20.75 10 20.75H4C3.58579 20.75 3.25 20.4142 3.25 20V14C3.25 13.5858 3.58579 13.25 4 13.25H10ZM19.25 17C19.25 16.4033 19.0128 15.8311 18.5908 15.4092C18.1689 14.9872 17.5967 14.75 17 14.75C16.4033 14.75 15.8311 14.9872 15.4092 15.4092C14.9872 15.8311 14.75 16.4033 14.75 17C14.75 17.5967 14.9872 18.1689 15.4092 18.5908C15.8311 19.0128 16.4033 19.25 17 19.25C17.5967 19.25 18.1689 19.0128 18.5908 18.5908C19.0128 18.1689 19.25 17.5967 19.25 17ZM4.75 19.25H9.25V14.75H4.75V19.25ZM10 3.25C10.4142 3.25 10.75 3.58579 10.75 4V10C10.75 10.4142 10.4142 10.75 10 10.75H4C3.58579 10.75 3.25 10.4142 3.25 10V4C3.25 3.58579 3.58579 3.25 4 3.25H10ZM20 3.25C20.4142 3.25 20.75 3.58579 20.75 4V10C20.75 10.4142 20.4142 10.75 20 10.75H14C13.5858 10.75 13.25 10.4142 13.25 10V4C13.25 3.58579 13.5858 3.25 14 3.25H20ZM14.75 9.25H19.25V4.75H14.75V9.25ZM4.75 9.25H9.25V4.75H4.75V9.25ZM20.75 17C20.75 17.9946 20.3546 18.9481 19.6514 19.6514C18.9481 20.3546 17.9946 20.75 17 20.75C16.0054 20.75 15.0519 20.3546 14.3486 19.6514C13.6454 18.9481 13.25 17.9946 13.25 17C13.25 16.0054 13.6454 15.0519 14.3486 14.3486C15.0519 13.6454 16.0054 13.25 17 13.25C17.9946 13.25 18.9481 13.6454 19.6514 14.3486C20.3546 15.0519 20.75 16.0054 20.75 17Z" fill="currentColor"/>
</svg>
