<svg class="icon icon-tabler icons-tabler-outline icon-tabler-chart-arcs" stroke-linejoin="round" stroke-linecap="round" width="24" height="24" viewBox="0 0 24 24" fill="none" xmlns="http://www.w3.org/2000/svg">
<path d="M12 2.25C13.9284 2.25 15.8136 2.82221 17.417 3.89355C19.0202 4.96484 20.2699 6.48719 21.0078 8.26855C21.7458 10.0501 21.9387 12.011 21.5625 13.9023C21.1863 15.7936 20.258 17.531 18.8945 18.8945C17.531 20.258 15.7936 21.1863 13.9023 21.5625C12.011 21.9387 10.0501 21.7458 8.26855 21.0078C6.48719 20.2699 4.96484 19.0202 3.89355 17.417C2.82221 15.8136 2.25 13.9284 2.25 12C2.25 11.5858 2.58579 11.25 3 11.25C3.41421 11.25 3.75 11.5858 3.75 12C3.75 13.6316 4.23419 15.2263 5.14062 16.583C6.04714 17.9397 7.33531 18.9976 8.84277 19.6221C10.3502 20.2465 12.0091 20.4101 13.6094 20.0918C15.2097 19.7735 16.6802 18.9878 17.834 17.834C18.9878 16.6802 19.7735 15.2097 20.0918 13.6094C20.4101 12.0091 20.2465 10.3502 19.6221 8.84277C18.9976 7.33531 17.9397 6.04714 16.583 5.14062C15.2263 4.23419 13.6316 3.75 12 3.75C11.5858 3.75 11.25 3.41421 11.25 3C11.25 2.58579 11.5858 2.25 12 2.25ZM9.91602 6.64062C10.976 6.2285 12.1348 6.14051 13.2451 6.38672C14.3552 6.63298 15.3671 7.20297 16.1533 8.02441C16.9397 8.84596 17.4657 9.88198 17.6631 11.002C17.7349 11.4098 17.4616 11.7992 17.0537 11.8711C16.646 11.9427 16.2574 11.6695 16.1855 11.2617C16.0396 10.4342 15.6513 9.66861 15.0703 9.06152C14.4891 8.45429 13.7406 8.03256 12.9199 7.85059C12.0993 7.66864 11.2433 7.73449 10.46 8.03906C9.67652 8.34368 9.00072 8.87396 8.51855 9.5625C8.03653 10.251 7.76935 11.067 7.75098 11.9072C7.73264 12.7474 7.96356 13.5744 8.41504 14.2832C8.86663 14.9921 9.51876 15.5511 10.2881 15.8896C11.0573 16.2281 11.9096 16.3314 12.7373 16.1855C13.1452 16.1136 13.5345 16.386 13.6064 16.7939C13.6783 17.2018 13.4059 17.5912 12.998 17.6631C11.8781 17.8605 10.7244 17.7207 9.68359 17.2627C8.64283 16.8046 7.76133 16.0479 7.15039 15.0889C6.53947 14.1297 6.22612 13.0109 6.25098 11.874C6.27588 10.7371 6.63774 9.63266 7.29004 8.70117C7.94235 7.76982 8.85624 7.0527 9.91602 6.64062ZM13.75 12C13.75 12.4641 13.5655 12.9091 13.2373 13.2373C12.9091 13.5655 12.4641 13.75 12 13.75C11.5359 13.75 11.0909 13.5655 10.7627 13.2373C10.4345 12.9091 10.25 12.4641 10.25 12C10.25 11.5359 10.4345 11.0909 10.7627 10.7627C11.0909 10.4345 11.5359 10.25 12 10.25C12.4641 10.25 12.9091 10.4345 13.2373 10.7627C13.5655 11.0909 13.75 11.5359 13.75 12Z" fill="currentColor"/>
</svg>
