<svg width="24" height="24" viewBox="0 0 24 24" fill="none" xmlns="http://www.w3.org/2000/svg">
<path d="M12 2.25C13.2804 2.25 14.5485 2.5022 15.7314 2.99219C16.9143 3.48217 17.9892 4.20016 18.8945 5.10547C19.7998 6.01078 20.5178 7.08573 21.0078 8.26855C21.4978 9.45148 21.75 10.7196 21.75 12C21.75 13.2804 21.4978 14.5485 21.0078 15.7314C20.5178 16.9143 19.7998 17.9892 18.8945 18.8945C18.4769 19.3122 18.0208 19.6866 17.5371 20.0205C17.5007 20.058 17.4613 20.0938 17.416 20.124C17.3699 20.1548 17.3211 20.1789 17.2715 20.1982C16.7838 20.5118 16.2697 20.7848 15.7314 21.0078C14.5485 21.4978 13.2804 21.75 12 21.75C10.7196 21.75 9.45148 21.4978 8.26855 21.0078C7.08573 20.5178 6.01078 19.7998 5.10547 18.8945C4.20016 17.9892 3.48217 16.9143 2.99219 15.7314C2.5022 14.5485 2.25 13.2804 2.25 12C2.25 10.7196 2.5022 9.45148 2.99219 8.26855C3.48217 7.08573 4.20016 6.01078 5.10547 5.10547C6.01078 4.20016 7.08573 3.48217 8.26855 2.99219C9.45148 2.5022 10.7196 2.25 12 2.25ZM6.21289 17.8779C6.96936 18.6227 7.86164 19.2157 8.84277 19.6221C9.84371 20.0367 10.9166 20.25 12 20.25C13.0834 20.25 14.1563 20.0367 15.1572 19.6221C15.4227 19.5121 15.681 19.3874 15.9326 19.251L13.9766 16.3174C13.3619 16.5988 12.689 16.75 12 16.75C10.8598 16.75 9.7629 16.3389 8.9043 15.6006L6.21289 17.8779ZM16.6895 12.75C16.5324 13.7318 16.0704 14.6464 15.3584 15.3584C15.3148 15.402 15.2697 15.4437 15.2246 15.4854L17.1807 18.4189C17.4079 18.2356 17.6267 18.0412 17.834 17.834C18.6001 17.0679 19.2075 16.1581 19.6221 15.1572C19.9407 14.388 20.1394 13.5763 20.2148 12.75H16.6895ZM12.75 7.30957C13.7319 7.46657 14.6464 7.92956 15.3584 8.6416C16.0704 9.35361 16.5324 10.2682 16.6895 11.25H20.2148C20.1394 10.4237 19.9407 9.61195 19.6221 8.84277C19.2075 7.84186 18.6001 6.93209 17.834 6.16602C17.0679 5.39995 16.1581 4.79253 15.1572 4.37793C14.388 4.05933 13.5763 3.86059 12.75 3.78516V7.30957ZM3.75 12C3.75 13.0834 3.96333 14.1563 4.37793 15.1572C4.60857 15.714 4.90095 16.2412 5.24512 16.7324L7.93457 14.4561C7.49057 13.7211 7.25 12.873 7.25 12C7.25 10.7402 7.7508 9.5324 8.6416 8.6416C9.35365 7.92956 10.2681 7.46657 11.25 7.30957V3.78516C10.4237 3.86059 9.61195 4.05933 8.84277 4.37793C7.84186 4.79253 6.93209 5.39995 6.16602 6.16602C5.39995 6.93209 4.79253 7.84186 4.37793 8.84277C3.96333 9.84371 3.75 10.9166 3.75 12ZM8.75 12C8.75 12.862 9.09266 13.6884 9.70215 14.2979C10.3116 14.9073 11.138 15.25 12 15.25C12.862 15.25 13.6884 14.9073 14.2979 14.2979C14.9073 13.6884 15.25 12.862 15.25 12C15.25 11.138 14.9073 10.3116 14.2979 9.70215C13.6884 9.09266 12.862 8.75 12 8.75C11.138 8.75 10.3116 9.09266 9.70215 9.70215C9.09266 10.3116 8.75 11.138 8.75 12Z" fill="currentColor"/>
</svg>
