<svg class="icon icon-tabler icons-tabler-outline icon-tabler-chart-column" stroke-linejoin="round" stroke-linecap="round" width="24" height="24" viewBox="0 0 24 24" fill="none" xmlns="http://www.w3.org/2000/svg">
<path d="M7 19.25C7.41421 19.25 7.75 19.5858 7.75 20C7.75 20.4142 7.41421 20.75 7 20.75H4C3.58579 20.75 3.25 20.4142 3.25 20C3.25 19.5858 3.58579 19.25 4 19.25H7ZM13.5 19.25C13.9142 19.25 14.25 19.5858 14.25 20C14.25 20.4142 13.9142 20.75 13.5 20.75H10.5C10.0858 20.75 9.75 20.4142 9.75 20C9.75 19.5858 10.0858 19.25 10.5 19.25H13.5ZM20 19.25C20.4142 19.25 20.75 19.5858 20.75 20C20.75 20.4142 20.4142 20.75 20 20.75H17C16.5858 20.75 16.25 20.4142 16.25 20C16.25 19.5858 16.5858 19.25 17 19.25H20ZM7 15.25C7.41421 15.25 7.75 15.5858 7.75 16C7.75 16.4142 7.41421 16.75 7 16.75H4C3.58579 16.75 3.25 16.4142 3.25 16C3.25 15.5858 3.58579 15.25 4 15.25H7ZM13.5 15.25C13.9142 15.25 14.25 15.5858 14.25 16C14.25 16.4142 13.9142 16.75 13.5 16.75H10.5C10.0858 16.75 9.75 16.4142 9.75 16C9.75 15.5858 10.0858 15.25 10.5 15.25H13.5ZM20 15.25C20.4142 15.25 20.75 15.5858 20.75 16C20.75 16.4142 20.4142 16.75 20 16.75H17C16.5858 16.75 16.25 16.4142 16.25 16C16.25 15.5858 16.5858 15.25 17 15.25H20ZM7 11.25C7.41421 11.25 7.75 11.5858 7.75 12C7.75 12.4142 7.41421 12.75 7 12.75H4C3.58579 12.75 3.25 12.4142 3.25 12C3.25 11.5858 3.58579 11.25 4 11.25H7ZM13.5 11.25C13.9142 11.25 14.25 11.5858 14.25 12C14.25 12.4142 13.9142 12.75 13.5 12.75H10.5C10.0858 12.75 9.75 12.4142 9.75 12C9.75 11.5858 10.0858 11.25 10.5 11.25H13.5ZM20 11.25C20.4142 11.25 20.75 11.5858 20.75 12C20.75 12.4142 20.4142 12.75 20 12.75H17C16.5858 12.75 16.25 12.4142 16.25 12C16.25 11.5858 16.5858 11.25 17 11.25H20ZM7 7.25C7.41421 7.25 7.75 7.58579 7.75 8C7.75 8.41421 7.41421 8.75 7 8.75H4C3.58579 8.75 3.25 8.41421 3.25 8C3.25 7.58579 3.58579 7.25 4 7.25H7ZM20 7.25C20.4142 7.25 20.75 7.58579 20.75 8C20.75 8.41421 20.4142 8.75 20 8.75H17C16.5858 8.75 16.25 8.41421 16.25 8C16.25 7.58579 16.5858 7.25 17 7.25H20ZM7 3.25C7.41421 3.25 7.75 3.58579 7.75 4C7.75 4.41421 7.41421 4.75 7 4.75H4C3.58579 4.75 3.25 4.41421 3.25 4C3.25 3.58579 3.58579 3.25 4 3.25H7Z" fill="currentColor"/>
</svg>
