<svg class="icon icon-tabler icons-tabler-outline icon-tabler-chart-bar-popular" stroke-linejoin="round" stroke-linecap="round" width="24" height="24" viewBox="0 0 24 24" fill="none" xmlns="http://www.w3.org/2000/svg">
<path d="M20.25 5C20.25 4.93369 20.2236 4.87013 20.1768 4.82324C20.1299 4.77636 20.0663 4.75 20 4.75H16C15.9337 4.75 15.8701 4.77636 15.8232 4.82324C15.7764 4.87013 15.75 4.9337 15.75 5V19C15.75 19.0663 15.7764 19.1299 15.8232 19.1768C15.8701 19.2236 15.9337 19.25 16 19.25H20C20.0663 19.25 20.1299 19.2236 20.1768 19.1768C20.2236 19.1299 20.25 19.0663 20.25 19V5ZM3.75 19C3.75 19.0663 3.77636 19.1299 3.82324 19.1768C3.87013 19.2236 3.93369 19.25 4 19.25H8C8.06631 19.25 8.12987 19.2236 8.17676 19.1768C8.22364 19.1299 8.25 19.0663 8.25 19V13C8.25 12.9337 8.22364 12.8701 8.17676 12.8232C8.12987 12.7764 8.0663 12.75 8 12.75H4C3.9337 12.75 3.87013 12.7764 3.82324 12.8232C3.77636 12.8701 3.75 12.9337 3.75 13V19ZM9.75 19C9.75 19.0663 9.77636 19.1299 9.82324 19.1768C9.87013 19.2236 9.93369 19.25 10 19.25H14C14.0663 19.25 14.1299 19.2236 14.1768 19.1768C14.2236 19.1299 14.25 19.0663 14.25 19V9C14.25 8.9337 14.2236 8.87013 14.1768 8.82324C14.1299 8.77636 14.0663 8.75 14 8.75H10C9.9337 8.75 9.87013 8.77636 9.82324 8.82324C9.77636 8.87013 9.75 8.9337 9.75 9V19ZM21.75 19C21.75 19.4641 21.5655 19.9091 21.2373 20.2373C20.9091 20.5655 20.4641 20.75 20 20.75H4C3.53587 20.75 3.09089 20.5655 2.7627 20.2373C2.43451 19.9091 2.25 19.4641 2.25 19V13C2.25 12.5359 2.43451 12.0909 2.7627 11.7627C3.09088 11.4345 3.53587 11.25 4 11.25H8C8.08423 11.25 8.16761 11.2576 8.25 11.2695V9C8.25 8.53587 8.43451 8.09088 8.7627 7.7627C9.09088 7.43451 9.53587 7.25 10 7.25H14C14.0842 7.25 14.1676 7.25763 14.25 7.26953V5C14.25 4.53587 14.4345 4.09088 14.7627 3.7627C15.0909 3.43451 15.5359 3.25 16 3.25H20C20.4641 3.25 20.9091 3.43451 21.2373 3.7627C21.5655 4.09088 21.75 4.53587 21.75 5V19Z" fill="currentColor"/>
</svg>
