<svg class="icon icon-tabler icons-tabler-outline icon-tabler-chart-dots" stroke-linejoin="round" stroke-linecap="round" width="24" height="24" viewBox="0 0 24 24" fill="none" xmlns="http://www.w3.org/2000/svg">
<path d="M2.25 3C2.25 2.58579 2.58579 2.25 3 2.25C3.41421 2.25 3.75 2.58579 3.75 3V20.25H21C21.4142 20.25 21.75 20.5858 21.75 21C21.75 21.4142 21.4142 21.75 21 21.75H3C2.58579 21.75 2.25 21.4142 2.25 21V3ZM15.25 15C15.25 14.6685 15.1182 14.3506 14.8838 14.1162C14.8342 14.0666 14.7801 14.0226 14.7236 13.9824C14.7136 13.9769 14.7032 13.9719 14.6934 13.9658C14.6712 13.9521 14.6501 13.9374 14.6299 13.9219C14.4402 13.811 14.2235 13.75 14 13.75C13.6685 13.75 13.3506 13.8818 13.1162 14.1162C12.8818 14.3506 12.75 14.6685 12.75 15C12.75 15.3315 12.8818 15.6494 13.1162 15.8838C13.3506 16.1182 13.6685 16.25 14 16.25C14.3315 16.25 14.6494 16.1182 14.8838 15.8838C15.1182 15.6494 15.25 15.3315 15.25 15ZM10.25 9C10.25 8.66848 10.1182 8.35063 9.88379 8.11621C9.64937 7.88179 9.33152 7.75 9 7.75C8.66848 7.75 8.35063 7.88179 8.11621 8.11621C7.88179 8.35063 7.75 8.66848 7.75 9C7.75 9.33152 7.88179 9.64937 8.11621 9.88379C8.35063 10.1182 8.66848 10.25 9 10.25C9.23868 10.25 9.46947 10.1804 9.66797 10.0547C9.67434 10.0492 9.6809 10.0434 9.6875 10.0381C9.72006 10.0117 9.75379 9.98789 9.78906 9.96777C9.82166 9.94119 9.85378 9.9138 9.88379 9.88379C10.1182 9.64937 10.25 9.33152 10.25 9ZM20.25 7C20.25 6.66848 20.1182 6.35063 19.8838 6.11621C19.6494 5.88179 19.3315 5.75 19 5.75C18.6685 5.75 18.3506 5.88179 18.1162 6.11621C17.8818 6.35063 17.75 6.66848 17.75 7C17.75 7.33152 17.8818 7.64937 18.1162 7.88379C18.3506 8.11821 18.6685 8.25 19 8.25C19.3315 8.25 19.6494 8.11821 19.8838 7.88379C20.1182 7.64937 20.25 7.33152 20.25 7ZM21.75 7C21.75 7.72935 21.4601 8.42861 20.9443 8.94434C20.4286 9.46006 19.7293 9.75 19 9.75C18.7435 9.75 18.4914 9.71148 18.249 9.64258L16.0596 13.1826C16.5016 13.6835 16.75 14.328 16.75 15C16.75 15.7293 16.4601 16.4286 15.9443 16.9443C15.4286 17.4601 14.7293 17.75 14 17.75C13.2707 17.75 12.5714 17.4601 12.0557 16.9443C11.5399 16.4286 11.25 15.7293 11.25 15C11.25 14.5088 11.3836 14.0323 11.627 13.6152L9.9668 11.5713C9.66027 11.6865 9.33379 11.75 9 11.75C8.27065 11.75 7.57139 11.4601 7.05566 10.9443C6.53994 10.4286 6.25 9.72935 6.25 9C6.25 8.27065 6.53994 7.57139 7.05566 7.05566C7.57139 6.53994 8.27065 6.25 9 6.25C9.72935 6.25 10.4286 6.53994 10.9443 7.05566C11.4601 7.57139 11.75 8.27065 11.75 9C11.75 9.6115 11.5436 10.1999 11.1738 10.6787L12.7109 12.5703C13.1043 12.3616 13.5465 12.25 14 12.25C14.2731 12.25 14.5422 12.2903 14.7988 12.3682L16.9736 8.85352C16.5109 8.34772 16.25 7.68845 16.25 7C16.25 6.27065 16.5399 5.57139 17.0557 5.05566C17.5714 4.53994 18.2707 4.25 19 4.25C19.7293 4.25 20.4286 4.53994 20.9443 5.05566C21.4601 5.57139 21.75 6.27065 21.75 7Z" fill="currentColor"/>
</svg>
