<svg width="24" height="24" viewBox="0 0 24 24" fill="none" xmlns="http://www.w3.org/2000/svg">
<path d="M21 2.25C21.4142 2.25 21.75 2.58579 21.75 3V9C21.75 9.41421 21.4142 9.75 21 9.75H15.75V15C15.75 15.4142 15.4142 15.75 15 15.75H9.75V21C9.75 21.4142 9.41421 21.75 9 21.75H3C2.58579 21.75 2.25 21.4142 2.25 21V3C2.25 2.58579 2.58579 2.25 3 2.25H21ZM3.75 20.25H8.25V15.75H3.75V20.25ZM9.75 14.25H14.25V9.75H9.75V14.25ZM3.75 14.25H8.25V9.75H3.75V14.25ZM15.75 8.25H20.25V3.75H15.75V8.25ZM9.75 8.25H14.25V3.75H9.75V8.25ZM3.75 8.25H8.25V3.75H3.75V8.25Z" fill="currentColor"/>
</svg>
