<svg class="icon icon-tabler icons-tabler-outline icon-tabler-checkup-list" stroke-linejoin="round" stroke-linecap="round" width="24" height="24" viewBox="0 0 24 24" fill="none" xmlns="http://www.w3.org/2000/svg">
<path d="M18.25 7C18.25 6.66848 18.1182 6.35063 17.8838 6.11621C17.6494 5.88179 17.3315 5.75 17 5.75H15.6436C15.5166 6.19733 15.279 6.6097 14.9443 6.94434C14.4286 7.46006 13.7293 7.75 13 7.75H11C10.2707 7.75 9.57139 7.46006 9.05566 6.94434C8.72103 6.6097 8.48337 6.19733 8.35645 5.75H7C6.66848 5.75 6.35063 5.88179 6.11621 6.11621C5.88179 6.35063 5.75 6.66848 5.75 7V19C5.75 19.3315 5.88179 19.6494 6.11621 19.8838C6.35063 20.1182 6.66848 20.25 7 20.25H17C17.3315 20.25 17.6494 20.1182 17.8838 19.8838C18.1182 19.6494 18.25 19.3315 18.25 19V7ZM9.00977 16.25C9.42398 16.25 9.75977 16.5858 9.75977 17C9.75977 17.4142 9.42398 17.75 9.00977 17.75H9C8.58579 17.75 8.25 17.4142 8.25 17C8.25 16.5858 8.58579 16.25 9 16.25H9.00977ZM15.4697 13.4697C15.7626 13.1768 16.2374 13.1768 16.5303 13.4697C16.8232 13.7626 16.8232 14.2374 16.5303 14.5303L13.5303 17.5303C13.2374 17.8232 12.7626 17.8232 12.4697 17.5303L11.4697 16.5303C11.1768 16.2374 11.1768 15.7626 11.4697 15.4697C11.7626 15.1768 12.2374 15.1768 12.5303 15.4697L13 15.9395L15.4697 13.4697ZM9.00977 13.25C9.42398 13.25 9.75977 13.5858 9.75977 14C9.75977 14.4142 9.42398 14.75 9.00977 14.75H9C8.58579 14.75 8.25 14.4142 8.25 14C8.25 13.5858 8.58579 13.25 9 13.25H9.00977ZM11 3.75C10.6685 3.75 10.3506 3.88179 10.1162 4.11621C9.88179 4.35063 9.75 4.66848 9.75 5C9.75 5.33152 9.88179 5.64937 10.1162 5.88379C10.3506 6.11821 10.6685 6.25 11 6.25H13C13.3315 6.25 13.6494 6.11821 13.8838 5.88379C14.1182 5.64937 14.25 5.33152 14.25 5C14.25 4.66848 14.1182 4.35063 13.8838 4.11621C13.6494 3.88179 13.3315 3.75 13 3.75H11ZM19.75 19C19.75 19.7293 19.4601 20.4286 18.9443 20.9443C18.4286 21.4601 17.7293 21.75 17 21.75H7C6.27065 21.75 5.57139 21.4601 5.05566 20.9443C4.53994 20.4286 4.25 19.7293 4.25 19V7C4.25 6.27065 4.53994 5.57139 5.05566 5.05566C5.57139 4.53994 6.27065 4.25 7 4.25H8.35645C8.48337 3.80267 8.72103 3.3903 9.05566 3.05566C9.57139 2.53994 10.2707 2.25 11 2.25H13C13.7293 2.25 14.4286 2.53994 14.9443 3.05566C15.279 3.3903 15.5166 3.80267 15.6436 4.25H17C17.7293 4.25 18.4286 4.53994 18.9443 5.05566C19.4601 5.57139 19.75 6.27065 19.75 7V19Z" fill="currentColor"/>
</svg>
