<svg class="icon icon-tabler icons-tabler-outline icon-tabler-circle-dashed" stroke-linejoin="round" stroke-linecap="round" width="24" height="24" viewBox="0 0 24 24" fill="none" xmlns="http://www.w3.org/2000/svg">
<path d="M7.86719 20.0225C8.02619 19.6401 8.4653 19.4584 8.84766 19.6172C9.84699 20.0328 10.9187 20.248 12.001 20.25C12.4151 20.2507 12.7505 20.5869 12.75 21.001C12.7493 21.4151 12.4131 21.7505 11.999 21.75C10.72 21.7477 9.45346 21.494 8.27246 21.0029C7.89017 20.8439 7.7085 20.4048 7.86719 20.0225ZM17.8301 17.8291C18.1231 17.5366 18.5979 17.5372 18.8906 17.8301C19.1832 18.123 19.1834 18.5979 18.8906 18.8906C17.9851 19.7956 16.9095 20.5133 15.7266 21.0029C15.3439 21.1612 14.9055 20.9793 14.7471 20.5967C14.5887 20.214 14.7706 19.7756 15.1533 19.6172C16.1542 19.2029 17.0639 18.5949 17.8301 17.8291ZM3.40332 14.7471C3.78601 14.5887 4.22441 14.7706 4.38281 15.1533C4.79713 16.1542 5.40513 17.0639 6.1709 17.8301C6.46337 18.1231 6.46278 18.5979 6.16992 18.8906C5.87698 19.1832 5.40213 19.1834 5.10938 18.8906C4.20435 17.9851 3.48672 16.9095 2.99707 15.7266C2.83882 15.3439 3.02068 14.9055 3.40332 14.7471ZM21.001 11.25C21.4151 11.2507 21.7505 11.5869 21.75 12.001C21.7477 13.28 21.494 14.5465 21.0029 15.7275C20.8439 16.1098 20.4048 16.2915 20.0225 16.1328C19.6401 15.9738 19.4584 15.5347 19.6172 15.1523C20.0328 14.153 20.248 13.0813 20.25 11.999C20.2507 11.5849 20.5869 11.2495 21.001 11.25ZM2.99707 8.27246C3.15606 7.89017 3.5952 7.7085 3.97754 7.86719C4.35986 8.02619 4.54158 8.4653 4.38281 8.84766C3.9672 9.84699 3.75198 10.9187 3.75 12.001C3.74926 12.4151 3.41307 12.7505 2.99902 12.75C2.58493 12.7493 2.24946 12.4131 2.25 11.999C2.25228 10.72 2.50599 9.45346 2.99707 8.27246ZM17.8301 5.10938C18.123 4.81682 18.5979 4.81662 18.8906 5.10938C19.7956 6.0149 20.5133 7.09053 21.0029 8.27344C21.1612 8.6561 20.9793 9.09454 20.5967 9.25293C20.214 9.41126 19.7756 9.22936 19.6172 8.84668C19.2029 7.84579 18.5949 6.93611 17.8291 6.16992C17.5366 5.87692 17.5372 5.40207 17.8301 5.10938ZM8.27344 2.99707C8.6561 2.83881 9.09454 3.02068 9.25293 3.40332C9.41126 3.78601 9.22936 4.22441 8.84668 4.38281C7.84579 4.79713 6.93611 5.40513 6.16992 6.1709C5.87692 6.46337 5.40207 6.46278 5.10938 6.16992C4.81682 5.87698 4.81662 5.40213 5.10938 5.10938C6.0149 4.20435 7.09053 3.48672 8.27344 2.99707ZM12.001 2.25C13.28 2.25228 14.5465 2.50599 15.7275 2.99707C16.1098 3.15606 16.2915 3.5952 16.1328 3.97754C15.9738 4.35986 15.5347 4.54158 15.1523 4.38281C14.153 3.9672 13.0813 3.75198 11.999 3.75C11.5849 3.74926 11.2495 3.41307 11.25 2.99902C11.2507 2.58493 11.5869 2.24946 12.001 2.25Z" fill="currentColor"/>
</svg>
