<svg class="icon icon-tabler icons-tabler-outline icon-tabler-copy" stroke-linejoin="round" stroke-linecap="round" width="24" height="24" viewBox="0 0 24 24" fill="none" xmlns="http://www.w3.org/2000/svg">
<path d="M20.25 9.66699C20.25 9.41536 20.2007 9.16608 20.1045 8.93359C20.0082 8.70101 19.8665 8.48953 19.6885 8.31152C19.5105 8.13351 19.299 7.99185 19.0664 7.89551C18.8339 7.79926 18.5846 7.75 18.333 7.75H9.66699C9.15858 7.75 8.67103 7.95202 8.31152 8.31152C7.95202 8.67103 7.75 9.15858 7.75 9.66699V18.333C7.75 18.5846 7.79926 18.8339 7.89551 19.0664C7.99185 19.299 8.13351 19.5105 8.31152 19.6885C8.48953 19.8665 8.70101 20.0082 8.93359 20.1045C9.16608 20.2007 9.41536 20.25 9.66699 20.25H18.333C18.5846 20.25 18.8339 20.2007 19.0664 20.1045C19.299 20.0082 19.5105 19.8665 19.6885 19.6885C19.8665 19.5105 20.0082 19.299 20.1045 19.0664C20.2007 18.8339 20.25 18.5846 20.25 18.333V9.66699ZM2.25 5C2.25 3.48579 3.48579 2.25 5 2.25H15C15.5155 2.25 15.9635 2.38613 16.3438 2.66211C16.7077 2.92632 16.9591 3.28304 17.1553 3.63574C17.3565 3.99773 17.2262 4.45398 16.8643 4.65527C16.5023 4.8565 16.046 4.72623 15.8447 4.36426C15.6989 4.10214 15.5759 3.95803 15.4629 3.87598C15.3661 3.80573 15.2344 3.75 15 3.75H5C4.31421 3.75 3.75 4.31421 3.75 5V14.998L3.76172 15.1631C3.78374 15.3261 3.83754 15.4839 3.9209 15.627C4.03212 15.8178 4.19189 15.9756 4.38379 16.085C4.74359 16.2901 4.86822 16.7486 4.66309 17.1084C4.45792 17.4681 4.0004 17.5937 3.64062 17.3887C3.21927 17.1485 2.86917 16.8009 2.625 16.3818C2.38086 15.9628 2.25119 15.4869 2.25 15.002V5ZM21.75 18.333C21.75 18.7817 21.6619 19.2261 21.4902 19.6406C21.3185 20.0552 21.0663 20.4317 20.749 20.749C20.4317 21.0663 20.0552 21.3185 19.6406 21.4902C19.2261 21.6619 18.7817 21.75 18.333 21.75H9.66699C9.21831 21.75 8.77391 21.6619 8.35938 21.4902C7.9448 21.3185 7.56827 21.0663 7.25098 20.749C6.93368 20.4317 6.68149 20.0552 6.50977 19.6406C6.33808 19.2261 6.25 18.7817 6.25 18.333V9.66699C6.25 8.76075 6.61017 7.89179 7.25098 7.25098C7.89179 6.61017 8.76075 6.25 9.66699 6.25H18.333C18.7817 6.25 19.2261 6.33808 19.6406 6.50977C20.0552 6.68149 20.4317 6.93368 20.749 7.25098C21.0663 7.56827 21.3185 7.9448 21.4902 8.35938C21.6619 8.77391 21.75 9.21831 21.75 9.66699V18.333Z" fill="currentColor"/>
</svg>
