<svg class="icon icon-tabler icons-tabler-outline icon-tabler-copy-check" stroke-linejoin="round" stroke-linecap="round" width="24" height="24" viewBox="0 0 24 24" fill="none" xmlns="http://www.w3.org/2000/svg">
<path d="M20.25 9.66699C20.25 9.41536 20.2007 9.16608 20.1045 8.93359C20.0082 8.70101 19.8665 8.48953 19.6885 8.31152C19.5105 8.13351 19.299 7.99185 19.0664 7.89551C18.8339 7.79926 18.5846 7.75 18.333 7.75H9.66699C9.15858 7.75 8.67103 7.95202 8.31152 8.31152C7.95202 8.67103 7.75 9.15858 7.75 9.66699V18.333C7.75 18.5846 7.79926 18.8339 7.89551 19.0664C7.99185 19.299 8.13351 19.5105 8.31152 19.6885C8.48953 19.8665 8.70101 20.0082 8.93359 20.1045C9.16608 20.2007 9.41536 20.25 9.66699 20.25H18.333C18.5846 20.25 18.8339 20.2007 19.0664 20.1045C19.299 20.0082 19.5105 19.8665 19.6885 19.6885C19.8665 19.5105 20.0082 19.299 20.1045 19.0664C20.2007 18.8339 20.25 18.5846 20.25 18.333V9.66699ZM2.25 5C2.25 3.48579 3.48579 2.25 5 2.25H15C15.5155 2.25 15.9635 2.38613 16.3438 2.66211C16.7077 2.92632 16.9591 3.28304 17.1553 3.63574C17.3565 3.99773 17.2262 4.45398 16.8643 4.65527C16.5023 4.8565 16.046 4.72623 15.8447 4.36426C15.6989 4.10214 15.5759 3.95803 15.4629 3.87598C15.3661 3.80573 15.2344 3.75 15 3.75H5C4.31421 3.75 3.75 4.31421 3.75 5V14.999L3.76074 15.1641C3.78254 15.3268 3.83675 15.4841 3.91992 15.627C4.03101 15.8176 4.19094 15.9759 4.38281 16.085C4.74274 16.2896 4.8686 16.7474 4.66406 17.1074C4.45944 17.4676 4.00174 17.5933 3.6416 17.3887C3.21964 17.1489 2.8684 16.8021 2.62402 16.3828C2.37966 15.9634 2.25051 15.4864 2.25 15.001V5ZM16.4697 11.4697C16.7626 11.1768 17.2374 11.1768 17.5303 11.4697C17.8232 11.7626 17.8232 12.2374 17.5303 12.5303L13.5303 16.5303C13.2374 16.8232 12.7626 16.8232 12.4697 16.5303L10.4697 14.5303C10.1768 14.2374 10.1768 13.7626 10.4697 13.4697C10.7626 13.1768 11.2374 13.1768 11.5303 13.4697L13 14.9395L16.4697 11.4697ZM21.75 18.333C21.75 18.7817 21.6619 19.2261 21.4902 19.6406C21.3185 20.0552 21.0663 20.4317 20.749 20.749C20.4317 21.0663 20.0552 21.3185 19.6406 21.4902C19.2261 21.6619 18.7817 21.75 18.333 21.75H9.66699C9.21831 21.75 8.77391 21.6619 8.35938 21.4902C7.9448 21.3185 7.56827 21.0663 7.25098 20.749C6.93368 20.4317 6.68149 20.0552 6.50977 19.6406C6.33808 19.2261 6.25 18.7817 6.25 18.333V9.66699C6.25 8.76075 6.61017 7.89179 7.25098 7.25098C7.89179 6.61017 8.76075 6.25 9.66699 6.25H18.333C18.7817 6.25 19.2261 6.33808 19.6406 6.50977C20.0552 6.68149 20.4317 6.93368 20.749 7.25098C21.0663 7.56827 21.3185 7.9448 21.4902 8.35938C21.6619 8.77391 21.75 9.21831 21.75 9.66699V18.333Z" fill="currentColor"/>
</svg>
