<svg class="icon icon-tabler icons-tabler-outline icon-tabler-credit-card" stroke-linejoin="round" stroke-linecap="round" width="24" height="24" viewBox="0 0 24 24" fill="none" xmlns="http://www.w3.org/2000/svg">
<path d="M20.25 10.75H3.75V16C3.75 16.5967 3.98722 17.1689 4.40918 17.5908C4.83114 18.0128 5.40326 18.25 6 18.25H18C18.5967 18.25 19.1689 18.0128 19.5908 17.5908C20.0128 17.1689 20.25 16.5967 20.25 16V10.75ZM7.00977 14.25C7.42398 14.25 7.75977 14.5858 7.75977 15C7.75977 15.4142 7.42398 15.75 7.00977 15.75H7C6.58579 15.75 6.25 15.4142 6.25 15C6.25 14.5858 6.58579 14.25 7 14.25H7.00977ZM13 14.25C13.4142 14.25 13.75 14.5858 13.75 15C13.75 15.4142 13.4142 15.75 13 15.75H11C10.5858 15.75 10.25 15.4142 10.25 15C10.25 14.5858 10.5858 14.25 11 14.25H13ZM20.25 8C20.25 7.40326 20.0128 6.83114 19.5908 6.40918C19.1689 5.98722 18.5967 5.75 18 5.75H6C5.40326 5.75 4.83114 5.98722 4.40918 6.40918C3.98722 6.83114 3.75 7.40326 3.75 8V9.25H20.25V8ZM21.75 16C21.75 16.9946 21.3546 17.9481 20.6514 18.6514C19.9481 19.3546 18.9946 19.75 18 19.75H6C5.00544 19.75 4.05189 19.3546 3.34863 18.6514C2.64537 17.9481 2.25 16.9946 2.25 16V8C2.25 7.00544 2.64537 6.05189 3.34863 5.34863C4.05189 4.64537 5.00544 4.25 6 4.25H18C18.9946 4.25 19.9481 4.64537 20.6514 5.34863C21.3546 6.05189 21.75 7.00544 21.75 8V16Z" fill="currentColor"/>
</svg>
