<svg class="icon icon-tabler icons-tabler-outline icon-tabler-cube-send" stroke-linejoin="round" stroke-linecap="round" width="24" height="24" viewBox="0 0 24 24" fill="none" xmlns="http://www.w3.org/2000/svg">
<path d="M15.7061 5.81036C15.9251 5.71694 16.178 5.73175 16.3857 5.85626L21.3857 8.85626C21.6116 8.9918 21.75 9.23637 21.75 9.49982V14.9998C21.75 15.2633 21.6116 15.5078 21.3857 15.6434L16.3857 18.6434C16.1484 18.7856 15.8516 18.7856 15.6143 18.6434L10.6143 15.6434C10.3884 15.5078 10.25 15.2633 10.25 14.9998V9.49982C10.25 9.23637 10.3884 8.9918 10.6143 8.85626L15.6143 5.85626L15.7061 5.81036ZM11.75 14.574L15.25 16.6746V12.9246L11.75 10.824V14.574ZM16.75 12.9666V16.6746L20.25 14.574V10.8455L16.75 12.9666ZM7 14.2498C7.41421 14.2498 7.75 14.5856 7.75 14.9998C7.75 15.414 7.41421 15.7498 7 15.7498H6C5.58579 15.7498 5.25 15.414 5.25 14.9998C5.25 14.5856 5.58579 14.2498 6 14.2498H7ZM7 11.2498C7.41421 11.2498 7.75 11.5856 7.75 11.9998C7.75 12.414 7.41421 12.7498 7 12.7498H4C3.58579 12.7498 3.25 12.414 3.25 11.9998C3.25 11.5856 3.58579 11.2498 4 11.2498H7ZM12.458 9.49982L16.0352 11.6453L19.5596 9.51056L16 7.37482L12.458 9.49982ZM7 8.24982C7.41421 8.24982 7.75 8.5856 7.75 8.99982C7.75 9.41403 7.41421 9.74982 7 9.74982H2C1.58579 9.74982 1.25 9.41403 1.25 8.99982C1.25 8.5856 1.58579 8.24982 2 8.24982H7Z" fill="currentColor"/>
</svg>
