<svg class="icon icon-tabler icons-tabler-outline icon-tabler-dashboard" stroke-linejoin="round" stroke-linecap="round" width="24" height="24" viewBox="0 0 24 24" fill="none" xmlns="http://www.w3.org/2000/svg">
<path d="M12 3.20459C14.0229 3.20459 15.9961 3.83406 17.6455 5.00537C19.2947 6.17662 20.5385 7.8319 21.205 9.7417C21.8716 11.6517 21.9276 13.7223 21.3652 15.6655C20.8027 17.6086 19.6499 19.3288 18.0664 20.5874C17.9337 20.6928 17.769 20.7505 17.5996 20.7505H6.40035C6.23095 20.7505 6.0662 20.6928 5.93355 20.5874C4.35001 19.3288 3.19717 17.6086 2.63472 15.6655C2.07233 13.7223 2.12828 11.6517 2.79488 9.7417C3.46147 7.8319 4.70526 6.17662 6.35445 5.00537C8.00384 3.83406 9.97698 3.20459 12 3.20459ZM12 4.70459C10.2883 4.70459 8.61916 5.23706 7.22359 6.22803C5.82803 7.21908 4.77497 8.61981 4.2109 10.2358C3.64685 11.852 3.59928 13.6043 4.07515 15.2485C4.52745 16.8111 5.4321 18.202 6.67086 19.2505H17.3291C18.5678 18.202 19.4725 16.8111 19.9248 15.2485C20.4006 13.6043 20.3531 11.852 19.789 10.2358C19.2249 8.61981 18.1719 7.21908 16.7763 6.22803C15.3808 5.23706 13.7116 4.70459 12 4.70459ZM13.25 13.0005C13.25 12.669 13.1181 12.3511 12.8837 12.1167C12.6493 11.8823 12.3315 11.7505 12 11.7505C11.6684 11.7505 11.3506 11.8823 11.1162 12.1167C10.8819 12.3511 10.75 12.669 10.75 13.0005C10.75 13.3319 10.8818 13.6499 11.1162 13.8843C11.3506 14.1186 11.6685 14.2505 12 14.2505C12.3314 14.2505 12.6493 14.1186 12.8837 13.8843C13.1181 13.6499 13.2499 13.3319 13.25 13.0005ZM14.75 13.0005C14.7499 13.7297 14.4599 14.4292 13.9443 14.9448C13.4286 15.4604 12.7292 15.7505 12 15.7505C11.2707 15.7505 10.5713 15.4604 10.0556 14.9448C9.53998 14.4292 9.25005 13.7297 9.24996 13.0005C9.24996 12.2711 9.5399 11.5709 10.0556 11.0552C10.5713 10.5397 11.2708 10.2505 12 10.2505C12.4731 10.2505 12.9328 10.3736 13.3388 10.6001L14.9697 8.97021C15.2626 8.67732 15.7373 8.67732 16.0302 8.97021C16.323 9.26312 16.3231 9.73792 16.0302 10.0308L14.3994 11.6606C14.6261 12.0668 14.75 12.527 14.75 13.0005Z" fill="currentColor"/>
</svg>
