<svg width="24" height="24" viewBox="0 0 24 24" fill="none" xmlns="http://www.w3.org/2000/svg">
<path fill-rule="evenodd" clip-rule="evenodd" d="M2.58579 3.58579C2.96086 3.21071 3.46957 3 4 3H20C20.5304 3 21.0391 3.21071 21.4142 3.58579C21.7893 3.96086 22 4.46957 22 5V13C22 13.5523 21.5523 14 21 14C20.4477 14 20 13.5523 20 13V5L4 5V15H12.5C13.0523 15 13.5 15.4477 13.5 16C13.5 16.5523 13.0523 17 12.5 17H10V19H12.5C13.0523 19 13.5 19.4477 13.5 20C13.5 20.5523 13.0523 21 12.5 21H7C6.44772 21 6 20.5523 6 20C6 19.4477 6.44772 19 7 19H8V17H4C3.46957 17 2.96086 16.7893 2.58579 16.4142C2.21071 16.0391 2 15.5304 2 15V5C2 4.46957 2.21071 3.96086 2.58579 3.58579ZM15.5 17C15.5 16.4477 15.9477 16 16.5 16H21C21.5523 16 22 16.4477 22 17V21.5C22 22.0523 21.5523 22.5 21 22.5C20.4477 22.5 20 22.0523 20 21.5V19.4142L16.7071 22.7071C16.3166 23.0976 15.6834 23.0976 15.2929 22.7071C14.9024 22.3166 14.9024 21.6834 15.2929 21.2929L18.5858 18H16.5C15.9477 18 15.5 17.5523 15.5 17Z" fill="currentColor"/>
</svg>
