<svg class="icon icon-tabler icons-tabler-outline icon-tabler-device-vision-pro" stroke-linejoin="round" stroke-linecap="round" width="24" height="24" viewBox="0 0 24 24" fill="none" xmlns="http://www.w3.org/2000/svg">
<path d="M21.2499 12.4297C21.2499 11.5154 21.1063 10.8176 20.8486 10.2979L20.8456 10.291C20.6335 9.85397 20.3229 9.4733 19.9404 9.17676L19.7724 9.05469C19.2574 8.7074 18.6341 8.43738 17.8915 8.25195L17.8906 8.25098C17.0933 8.05071 16.2048 7.91808 15.2246 7.85254C14.2026 7.78476 13.1274 7.75 11.9999 7.75C10.8727 7.75 9.79991 7.78573 8.77827 7.85547H8.77338C7.87472 7.91109 6.98241 8.04473 6.10737 8.25684L6.10835 8.25781C5.45801 8.42023 4.89922 8.64711 4.42377 8.93359L4.22553 9.05957C3.76482 9.36966 3.39389 9.79632 3.15131 10.2959L3.14838 10.3018C2.88965 10.8224 2.74626 11.5189 2.74995 12.4248V12.4277C2.74995 13.3414 2.92108 14.1299 3.24995 14.8115C3.57477 15.4853 4.00493 15.9978 4.53803 16.3682C5.04468 16.7191 5.64836 16.9036 6.2646 16.8945L6.27631 16.8936C6.71552 16.8935 7.08972 16.8348 7.4101 16.7246L7.41303 16.7236C7.76853 16.6031 8.10972 16.4434 8.42963 16.2471C8.7921 16.023 9.12594 15.8008 9.43354 15.5811C9.80499 15.3157 10.1655 15.0877 10.5136 14.9004L10.5175 14.8984C10.9956 14.6445 11.4923 14.5108 12.0009 14.5107H12.0097C12.5271 14.5168 13.0347 14.6518 13.4873 14.9023H13.4882C13.8625 15.1052 14.2234 15.3325 14.5683 15.582L15.0644 15.9238C15.2306 16.0343 15.3985 16.1422 15.5683 16.2471C15.8894 16.4435 16.2314 16.6036 16.5878 16.7246L16.5917 16.7256C16.9103 16.8353 17.2864 16.8945 17.7294 16.8945H17.7392V16.8955C18.3538 16.9041 18.956 16.7197 19.4609 16.3691L19.6562 16.2236C20.1008 15.8681 20.4657 15.4021 20.7499 14.8115L20.7509 14.8105C21.0795 14.1303 21.2499 13.3404 21.2499 12.4297ZM22.7499 12.4297C22.7499 13.5307 22.5427 14.5493 22.1015 15.4629L22.1005 15.4619C21.6754 16.3449 21.0852 17.0673 20.3173 17.6006C19.5583 18.1278 18.6534 18.4042 17.7294 18.3936V18.3945C17.7273 18.3945 17.7247 18.3936 17.7226 18.3936C17.7213 18.3935 17.72 18.3945 17.7187 18.3945V18.3936C17.1476 18.3926 16.6049 18.3177 16.1025 18.1445V18.1436C15.6422 17.987 15.2008 17.78 14.7861 17.5264L14.7831 17.5254C14.4126 17.2967 14.0494 17.0551 13.6953 16.8018L13.6923 16.7998C13.399 16.5874 13.0918 16.3943 12.7734 16.2217L12.7656 16.2168C12.5301 16.0854 12.2656 16.0145 11.996 16.0107C11.7602 16.0116 11.5044 16.0728 11.2206 16.2236C10.9379 16.376 10.6317 16.5681 10.3046 16.8018C9.9689 17.0416 9.60737 17.283 9.21674 17.5244L9.21479 17.5254C8.80001 17.78 8.3573 17.9862 7.89643 18.1426L7.89741 18.1436C7.39497 18.3162 6.85485 18.3917 6.28608 18.3926L6.28706 18.3936C6.28543 18.3936 6.2838 18.3926 6.28217 18.3926C6.28022 18.3926 6.27827 18.3936 6.27631 18.3936V18.3926C5.35096 18.404 4.44446 18.1286 3.68354 17.6016V17.6006C3.01123 17.1338 2.47378 16.5224 2.06538 15.7861L1.89838 15.4629C1.5124 14.6628 1.30543 13.7847 1.25971 12.8379L1.24995 12.4277C1.246 11.3751 1.4108 10.4282 1.80561 9.63379H1.80659C2.16491 8.89896 2.71027 8.27092 3.38862 7.81445L3.65034 7.64844C4.27155 7.27421 4.97281 6.99559 5.74506 6.80273L5.74995 6.80078C6.71026 6.56775 7.68946 6.42071 8.67573 6.35938C9.734 6.28713 10.8413 6.25 11.9999 6.25C12.8685 6.25 13.7092 6.27 14.5214 6.30957L15.3251 6.35547L15.7167 6.38574C16.6215 6.46368 17.468 6.5996 18.2539 6.79688C19.1371 7.01742 19.9284 7.35093 20.6113 7.81152C21.2887 8.26868 21.8335 8.89621 22.1914 9.63086H22.1923C22.5862 10.4249 22.7499 11.3727 22.7499 12.4297Z" fill="currentColor"/>
</svg>
