<svg width="24" height="24" viewBox="0 0 24 24" fill="none" xmlns="http://www.w3.org/2000/svg">
<path fill-rule="evenodd" clip-rule="evenodd" d="M3.79134 9.00837C3.33174 9.57756 3.01508 10.3658 3.00056 11.5127C2.9862 12.6462 3.24599 13.7507 3.76352 14.5687C4.2617 15.3561 4.99953 15.8913 6.0669 15.9872C6.93117 16.0649 7.56789 15.6862 8.46234 15.0565C8.51552 15.019 8.56999 14.9803 8.62579 14.9407C9.43398 14.3666 10.5206 13.5947 11.9767 13.5937C12.529 13.5933 12.977 14.0407 12.9774 14.593C12.9778 15.1453 12.5303 15.5933 11.9781 15.5937C11.1728 15.5942 10.5719 16.0173 9.62401 16.6846L9.61364 16.6919C8.73089 17.3133 7.55 18.1286 5.88788 17.9792C4.13272 17.8214 2.86602 16.8909 2.07338 15.638C1.30008 14.4158 0.982759 12.9055 1.00072 11.4873C1.02012 9.95515 1.45657 8.71631 2.23528 7.75192C3.00379 6.80015 4.0434 6.19244 5.14527 5.79894C7.30972 5.02596 9.96247 5.00001 11.9774 5C13.9923 4.99999 16.6451 5.02593 18.8096 5.7989C19.9115 6.19239 20.9511 6.8001 21.7197 7.75187C22.4984 8.71627 22.9349 9.95512 22.9543 11.4873C22.9613 12.0396 22.5192 12.4929 21.967 12.4999C21.4148 12.5069 20.9614 12.0649 20.9544 11.5127C20.9399 10.3657 20.6232 9.57753 20.1636 9.00834C19.6938 8.42652 19.0099 7.99412 18.137 7.6824C16.3519 7.04493 14.0502 6.99999 11.9774 7C9.90464 7.00001 7.60294 7.04496 5.8179 7.68244C4.94503 7.99416 4.26113 8.42656 3.79134 9.00837ZM15.5 15C14.9477 15 14.5 14.5523 14.5 14C14.5 13.4477 14.9477 13 15.5 13H20C20.5523 13 21 13.4477 21 14V18.5C21 19.0523 20.5523 19.5 20 19.5C19.4477 19.5 19 19.0523 19 18.5V16.4142L15.7071 19.7071C15.3166 20.0976 14.6834 20.0976 14.2929 19.7071C13.9024 19.3166 13.9024 18.6834 14.2929 18.2929L17.5858 15H15.5Z" fill="currentColor"/>
</svg>
