<svg class="icon icon-tabler icons-tabler-outline icon-tabler-device-laptop" stroke-linejoin="round" stroke-linecap="round" width="24" height="24" viewBox="0 0 24 24" fill="none" xmlns="http://www.w3.org/2000/svg">
<path d="M21 18.25C21.4142 18.25 21.75 18.5858 21.75 19C21.75 19.4142 21.4142 19.75 21 19.75H3C2.58579 19.75 2.25 19.4142 2.25 19C2.25 18.5858 2.58579 18.25 3 18.25H21ZM18.25 7C18.25 6.93369 18.2236 6.87013 18.1768 6.82324C18.1299 6.77636 18.0663 6.75 18 6.75H6C5.9337 6.75 5.87013 6.77636 5.82324 6.82324C5.77636 6.87013 5.75 6.9337 5.75 7V15C5.75 15.0663 5.77636 15.1299 5.82324 15.1768C5.87013 15.2236 5.9337 15.25 6 15.25H18C18.0663 15.25 18.1299 15.2236 18.1768 15.1768C18.2236 15.1299 18.25 15.0663 18.25 15V7ZM19.75 15C19.75 15.4641 19.5655 15.9091 19.2373 16.2373C18.9091 16.5655 18.4641 16.75 18 16.75H6C5.53587 16.75 5.09088 16.5655 4.7627 16.2373C4.43451 15.9091 4.25 15.4641 4.25 15V7C4.25 6.53587 4.43451 6.09088 4.7627 5.7627C5.09088 5.43451 5.53587 5.25 6 5.25H18C18.4641 5.25 18.9091 5.43451 19.2373 5.7627C19.5655 6.09088 19.75 6.53587 19.75 7V15Z" fill="currentColor"/>
</svg>
