<svg width="24" height="24" viewBox="0 0 24 24" fill="none" xmlns="http://www.w3.org/2000/svg">
<path d="M19.25 8.75H4.75V18C4.75 18.3315 4.88179 18.6494 5.11621 18.8838C5.35063 19.1182 5.66848 19.25 6 19.25H18C18.3315 19.25 18.6494 19.1182 18.8838 18.8838C19.1182 18.6494 19.25 18.3315 19.25 18V8.75ZM19.25 6C19.25 5.66848 19.1182 5.35063 18.8838 5.11621C18.6494 4.88179 18.3315 4.75 18 4.75H8.75V7.25H19.25V6ZM4.75 7.25H7.25V4.75H6C5.66848 4.75 5.35063 4.88179 5.11621 5.11621C4.88179 5.35063 4.75 5.66848 4.75 6V7.25ZM20.75 18C20.75 18.7293 20.4601 19.4286 19.9443 19.9443C19.4286 20.4601 18.7293 20.75 18 20.75H6C5.27065 20.75 4.57139 20.4601 4.05566 19.9443C3.53994 19.4286 3.25 18.7293 3.25 18V6C3.25 5.27065 3.53994 4.57139 4.05566 4.05566C4.57139 3.53994 5.27065 3.25 6 3.25H18C18.7293 3.25 19.4286 3.53994 19.9443 4.05566C20.4601 4.57139 20.75 5.27065 20.75 6V18Z" fill="currentColor"/>
</svg>
