<svg class="icon icon-tabler icons-tabler-outline icon-tabler-device-desktop-share" stroke-linejoin="round" stroke-linecap="round" width="24" height="24" viewBox="0 0 24 24" fill="none" xmlns="http://www.w3.org/2000/svg">
<path d="M20.25 13V5C20.25 4.93369 20.2236 4.87013 20.1768 4.82324C20.1299 4.77636 20.0663 4.75 20 4.75H4C3.9337 4.75 3.87013 4.77636 3.82324 4.82324C3.77636 4.87013 3.75 4.9337 3.75 5V15C3.75 15.0663 3.77636 15.1299 3.82324 15.1768C3.87013 15.2236 3.9337 15.25 4 15.25H12.5C12.9142 15.25 13.25 15.5858 13.25 16C13.25 16.4142 12.9142 16.75 12.5 16.75H9.75V19.25H12.5C12.9142 19.25 13.25 19.5858 13.25 20C13.25 20.4142 12.9142 20.75 12.5 20.75H7C6.58579 20.75 6.25 20.4142 6.25 20C6.25 19.5858 6.58579 19.25 7 19.25H8.25V16.75H4C3.53587 16.75 3.09088 16.5655 2.7627 16.2373C2.43451 15.9091 2.25 15.4641 2.25 15V5C2.25 4.53587 2.43451 4.09088 2.7627 3.7627C3.09088 3.43451 3.53587 3.25 4 3.25H20C20.4641 3.25 20.9091 3.43451 21.2373 3.7627C21.5655 4.09088 21.75 4.53587 21.75 5V13C21.75 13.4142 21.4142 13.75 21 13.75C20.5858 13.75 20.25 13.4142 20.25 13ZM21.75 21.5C21.75 21.9142 21.4142 22.25 21 22.25C20.5858 22.25 20.25 21.9142 20.25 21.5V18.8105L16.5303 22.5303C16.2374 22.8232 15.7626 22.8232 15.4697 22.5303C15.1768 22.2374 15.1768 21.7626 15.4697 21.4697L19.1895 17.75H16.5C16.0858 17.75 15.75 17.4142 15.75 17C15.75 16.5858 16.0858 16.25 16.5 16.25H21C21.4142 16.25 21.75 16.5858 21.75 17V21.5Z" fill="currentColor"/>
</svg>
