<svg class="icon icon-tabler icons-tabler-outline icon-tabler-device-vision-pro-share" stroke-linejoin="round" stroke-linecap="round" width="24" height="24" viewBox="0 0 24 24" fill="none" xmlns="http://www.w3.org/2000/svg">
<path d="M21.2499 11.4297C21.2499 10.5154 21.1063 9.81757 20.8486 9.29785L20.8456 9.29102C20.6335 8.85397 20.3229 8.4733 19.9404 8.17676L19.7724 8.05469C19.2574 7.7074 18.6341 7.43738 17.8915 7.25195L17.8906 7.25098C17.0933 7.05071 16.2048 6.91808 15.2246 6.85254C14.2026 6.78476 13.1274 6.75 11.9999 6.75C10.8727 6.75 9.79991 6.78573 8.77827 6.85547H8.77338C7.87472 6.91109 6.98241 7.04473 6.10737 7.25684L6.10835 7.25781C5.45801 7.42023 4.89922 7.64711 4.42377 7.93359L4.22553 8.05957C3.76482 8.36966 3.39389 8.79632 3.15131 9.2959L3.14838 9.30176C2.88965 9.82244 2.74626 10.5189 2.74995 11.4248V11.4277C2.74995 12.3414 2.92108 13.1299 3.24995 13.8115C3.57477 14.4853 4.00493 14.9978 4.53803 15.3682C5.04468 15.7191 5.64836 15.9036 6.2646 15.8945L6.27631 15.8936C6.71552 15.8935 7.08972 15.8348 7.4101 15.7246L7.41303 15.7236C7.76853 15.6031 8.10972 15.4434 8.42963 15.2471C8.7921 15.023 9.12594 14.8008 9.43354 14.5811C9.80499 14.3157 10.1655 14.0877 10.5136 13.9004L10.5175 13.8984C10.9956 13.6445 11.4923 13.5108 12.0009 13.5107C12.4151 13.5107 12.7508 13.8466 12.7509 14.2607C12.7509 14.675 12.4151 15.0107 12.0009 15.0107C11.7638 15.0108 11.5064 15.0718 11.2206 15.2236C10.9379 15.376 10.6317 15.5681 10.3046 15.8018C9.9689 16.0416 9.60737 16.283 9.21674 16.5244L9.21479 16.5254C8.80001 16.78 8.3573 16.9862 7.89643 17.1426L7.89741 17.1436C7.39497 17.3162 6.85485 17.3917 6.28608 17.3926L6.28706 17.3936C6.28543 17.3936 6.2838 17.3926 6.28217 17.3926C6.28022 17.3926 6.27827 17.3936 6.27631 17.3936V17.3926C5.35096 17.404 4.44446 17.1286 3.68354 16.6016V16.6006C3.01123 16.1338 2.47378 15.5224 2.06538 14.7861L1.89838 14.4629C1.5124 13.6628 1.30543 12.7847 1.25971 11.8379L1.24995 11.4277C1.246 10.3751 1.4108 9.42823 1.80561 8.63379H1.80659C2.16491 7.89896 2.71027 7.27092 3.38862 6.81445L3.65034 6.64844C4.27155 6.27421 4.97281 5.99559 5.74506 5.80273L5.74995 5.80078C6.71026 5.56775 7.68946 5.42071 8.67573 5.35938C9.734 5.28713 10.8413 5.25 11.9999 5.25C12.8685 5.25 13.7092 5.27 14.5214 5.30957L15.3251 5.35547L15.7167 5.38574C16.6215 5.46368 17.468 5.5996 18.2539 5.79688C19.1371 6.01742 19.9284 6.35093 20.6113 6.81152C21.2887 7.26868 21.8335 7.89621 22.1914 8.63086H22.1923C22.5862 9.42487 22.7499 10.3727 22.7499 11.4297C22.7499 11.8439 22.4142 12.1797 21.9999 12.1797C21.5858 12.1796 21.2499 11.8439 21.2499 11.4297ZM20.7499 18.5C20.7499 18.9142 20.4142 19.25 19.9999 19.25C19.5857 19.25 19.2499 18.9142 19.2499 18.5V15.8105L15.5302 19.5303C15.2373 19.8232 14.7626 19.8232 14.4697 19.5303C14.1768 19.2374 14.1768 18.7626 14.4697 18.4697L18.1894 14.75H15.4999C15.0857 14.75 14.7499 14.4142 14.7499 14C14.7499 13.5858 15.0857 13.25 15.4999 13.25H19.9999C20.4142 13.25 20.7499 13.5858 20.7499 14V18.5Z" fill="currentColor"/>
</svg>
