<svg class="icon icon-tabler icons-tabler-outline icon-tabler-device-desktop-analytics" stroke-linejoin="round" stroke-linecap="round" width="24" height="24" viewBox="0 0 24 24" fill="none" xmlns="http://www.w3.org/2000/svg">
<path d="M20.25 5C20.25 4.93369 20.2236 4.87013 20.1768 4.82324C20.1299 4.77636 20.0663 4.75 20 4.75H4C3.9337 4.75 3.87013 4.77636 3.82324 4.82324C3.77636 4.87013 3.75 4.9337 3.75 5V15C3.75 15.0663 3.77636 15.1299 3.82324 15.1768C3.87013 15.2236 3.9337 15.25 4 15.25H20C20.0663 15.25 20.1299 15.2236 20.1768 15.1768C20.2236 15.1299 20.25 15.0663 20.25 15V5ZM9.75 19.25H14.25V16.75H9.75V19.25ZM8.25 12V8C8.25 7.58579 8.58579 7.25 9 7.25C9.41421 7.25 9.75 7.58579 9.75 8V12C9.75 12.4142 9.41421 12.75 9 12.75C8.58579 12.75 8.25 12.4142 8.25 12ZM11.25 12V11C11.25 10.5858 11.5858 10.25 12 10.25C12.4142 10.25 12.75 10.5858 12.75 11V12C12.75 12.4142 12.4142 12.75 12 12.75C11.5858 12.75 11.25 12.4142 11.25 12ZM14.25 12V10C14.25 9.58579 14.5858 9.25 15 9.25C15.4142 9.25 15.75 9.58579 15.75 10V12C15.75 12.4142 15.4142 12.75 15 12.75C14.5858 12.75 14.25 12.4142 14.25 12ZM21.75 15C21.75 15.4641 21.5655 15.9091 21.2373 16.2373C20.9091 16.5655 20.4641 16.75 20 16.75H15.75V19.25H17C17.4142 19.25 17.75 19.5858 17.75 20C17.75 20.4142 17.4142 20.75 17 20.75H7C6.58579 20.75 6.25 20.4142 6.25 20C6.25 19.5858 6.58579 19.25 7 19.25H8.25V16.75H4C3.53587 16.75 3.09088 16.5655 2.7627 16.2373C2.43451 15.9091 2.25 15.4641 2.25 15V5C2.25 4.53587 2.43451 4.09088 2.7627 3.7627C3.09088 3.43451 3.53587 3.25 4 3.25H20C20.4641 3.25 20.9091 3.43451 21.2373 3.7627C21.5655 4.09088 21.75 4.53587 21.75 5V15Z" fill="currentColor"/>
</svg>
