<svg class="icon icon-tabler icons-tabler-outline icon-tabler-device-mobile" stroke-linejoin="round" stroke-linecap="round" width="24" height="24" viewBox="0 0 24 24" fill="none" xmlns="http://www.w3.org/2000/svg">
<path d="M17.25 5C17.25 4.66848 17.1182 4.35063 16.8838 4.11621C16.6494 3.88179 16.3315 3.75 16 3.75H13.7041C13.732 3.82848 13.75 3.91196 13.75 4C13.75 4.41421 13.4142 4.75 13 4.75H11C10.5858 4.75 10.25 4.41421 10.25 4C10.25 3.91196 10.268 3.82848 10.2959 3.75H8C7.66848 3.75 7.35063 3.88179 7.11621 4.11621C6.88179 4.35063 6.75 4.66848 6.75 5V19C6.75 19.3315 6.88179 19.6494 7.11621 19.8838C7.35063 20.1182 7.66848 20.25 8 20.25H16C16.3315 20.25 16.6494 20.1182 16.8838 19.8838C17.1182 19.6494 17.25 19.3315 17.25 19V5ZM11.25 17.0098V17C11.25 16.5858 11.5858 16.25 12 16.25C12.4142 16.25 12.75 16.5858 12.75 17V17.0098C12.75 17.424 12.4142 17.7598 12 17.7598C11.5858 17.7598 11.25 17.424 11.25 17.0098ZM18.75 19C18.75 19.7293 18.4601 20.4286 17.9443 20.9443C17.4286 21.4601 16.7293 21.75 16 21.75H8C7.27065 21.75 6.57139 21.4601 6.05566 20.9443C5.53994 20.4286 5.25 19.7293 5.25 19V5C5.25 4.27065 5.53994 3.57139 6.05566 3.05566C6.57139 2.53994 7.27065 2.25 8 2.25H16C16.7293 2.25 17.4286 2.53994 17.9443 3.05566C18.4601 3.57139 18.75 4.27065 18.75 5V19Z" fill="currentColor"/>
</svg>
