<svg class="icon icon-tabler icons-tabler-outline icon-tabler-devices-down" stroke-linejoin="round" stroke-linecap="round" width="24" height="24" viewBox="0 0 24 24" fill="none" xmlns="http://www.w3.org/2000/svg">
<path d="M18.25 16C18.25 15.5858 18.5858 15.25 19 15.25C19.4142 15.25 19.75 15.5858 19.75 16V20.1895L21.4697 18.4697C21.7626 18.1768 22.2374 18.1768 22.5303 18.4697C22.8232 18.7626 22.8232 19.2374 22.5303 19.5303L19.5303 22.5303C19.2374 22.8232 18.7626 22.8232 18.4697 22.5303L15.4697 19.5303C15.1768 19.2374 15.1768 18.7626 15.4697 18.4697C15.7626 18.1768 16.2374 18.1768 16.5303 18.4697L18.25 20.1895V16ZM20.25 12.5V9C20.25 8.93369 20.2236 8.87013 20.1768 8.82324C20.1299 8.77636 20.0663 8.75 20 8.75H18.7041C18.732 8.82848 18.75 8.91196 18.75 9C18.75 9.41421 18.4142 9.75 18 9.75H16C15.5858 9.75 15.25 9.41421 15.25 9C15.25 8.91196 15.268 8.82848 15.2959 8.75H14C13.9337 8.75 13.8701 8.77636 13.8232 8.82324C13.7764 8.87013 13.75 8.9337 13.75 9V16.5C13.75 16.9142 13.4142 17.25 13 17.25C12.5858 17.25 12.25 16.9142 12.25 16.5V9C12.25 8.53587 12.4345 8.09088 12.7627 7.7627C13.0909 7.43451 13.5359 7.25 14 7.25H17.25V5C17.25 4.93369 17.2236 4.87013 17.1768 4.82324C17.1299 4.77636 17.0663 4.75 17 4.75H4C3.9337 4.75 3.87013 4.77636 3.82324 4.82324C3.77636 4.87013 3.75 4.9337 3.75 5V17C3.75 17.0663 3.77636 17.1299 3.82324 17.1768C3.87013 17.2236 3.93369 17.25 4 17.25H12C12.4142 17.25 12.75 17.5858 12.75 18C12.75 18.4142 12.4142 18.75 12 18.75H4C3.53587 18.75 3.09088 18.5655 2.7627 18.2373C2.43451 17.9091 2.25 17.4641 2.25 17V5C2.25 4.53587 2.43451 4.09088 2.7627 3.7627C3.09088 3.43451 3.53587 3.25 4 3.25H17C17.4641 3.25 17.9091 3.43451 18.2373 3.7627C18.5655 4.09088 18.75 4.53587 18.75 5V7.25H20C20.4641 7.25 20.9091 7.43451 21.2373 7.7627C21.5655 8.09089 21.75 8.53587 21.75 9V12.5C21.75 12.9142 21.4142 13.25 21 13.25C20.5858 13.25 20.25 12.9142 20.25 12.5Z" fill="currentColor"/>
</svg>
