<svg class="icon icon-tabler icons-tabler-outline icon-tabler-device-watch-share" stroke-linejoin="round" stroke-linecap="round" width="24" height="24" viewBox="0 0 24 24" fill="none" xmlns="http://www.w3.org/2000/svg">
<path d="M17.25 13V9C17.25 8.40326 17.0128 7.83114 16.5908 7.40918C16.1689 6.98722 15.5967 6.75 15 6.75H9C8.40326 6.75 7.83114 6.98722 7.40918 7.40918C6.98722 7.83114 6.75 8.40326 6.75 9V15C6.75 15.5967 6.98722 16.1689 7.40918 16.5908C7.83114 17.0128 8.40326 17.25 9 17.25H12.5C12.9142 17.25 13.25 17.5858 13.25 18C13.25 18.4142 12.9142 18.75 12.5 18.75H9.75V20.25H12C12.4142 20.25 12.75 20.5858 12.75 21C12.75 21.4142 12.4142 21.75 12 21.75H9C8.58579 21.75 8.25 21.4142 8.25 21V18.6738C7.53495 18.5278 6.8724 18.1751 6.34863 17.6514C5.64537 16.9481 5.25 15.9946 5.25 15V9C5.25 8.00544 5.64537 7.05189 6.34863 6.34863C6.87245 5.82482 7.53488 5.47116 8.25 5.3252V3C8.25 2.58579 8.58579 2.25 9 2.25H15C15.4142 2.25 15.75 2.58579 15.75 3V5.3252C16.4651 5.47116 17.1276 5.82482 17.6514 6.34863C18.3546 7.05189 18.75 8.00544 18.75 9V13C18.75 13.4142 18.4142 13.75 18 13.75C17.5858 13.75 17.25 13.4142 17.25 13ZM9.75 5.25H14.25V3.75H9.75V5.25ZM21.75 21.5C21.75 21.9142 21.4142 22.25 21 22.25C20.5858 22.25 20.25 21.9142 20.25 21.5V18.8105L16.5303 22.5303C16.2374 22.8232 15.7626 22.8232 15.4697 22.5303C15.1768 22.2374 15.1768 21.7626 15.4697 21.4697L19.1895 17.75H16.5C16.0858 17.75 15.75 17.4142 15.75 17C15.75 16.5858 16.0858 16.25 16.5 16.25H21C21.4142 16.25 21.75 16.5858 21.75 17V21.5Z" fill="currentColor"/>
</svg>
