<svg class="icon icon-tabler icons-tabler-outline icon-tabler-device-watch" stroke-linejoin="round" stroke-linecap="round" width="24" height="24" viewBox="0 0 24 24" fill="none" xmlns="http://www.w3.org/2000/svg">
<path d="M17.25 9C17.25 8.40326 17.0128 7.83114 16.5908 7.40918C16.1689 6.98722 15.5967 6.75 15 6.75H9C8.40326 6.75 7.83114 6.98722 7.40918 7.40918C6.98722 7.83114 6.75 8.40326 6.75 9V15C6.75 15.5967 6.98722 16.1689 7.40918 16.5908C7.83114 17.0128 8.40326 17.25 9 17.25H15C15.5967 17.25 16.1689 17.0128 16.5908 16.5908C17.0128 16.1689 17.25 15.5967 17.25 15V9ZM9.75 20.25H14.25V18.75H9.75V20.25ZM9.75 5.25H14.25V3.75H9.75V5.25ZM18.75 15C18.75 15.9946 18.3546 16.9481 17.6514 17.6514C17.1276 18.1751 16.4651 18.5278 15.75 18.6738V21C15.75 21.4142 15.4142 21.75 15 21.75H9C8.58579 21.75 8.25 21.4142 8.25 21V18.6738C7.53495 18.5278 6.8724 18.1751 6.34863 17.6514C5.64537 16.9481 5.25 15.9946 5.25 15V9C5.25 8.00544 5.64537 7.05189 6.34863 6.34863C6.87245 5.82482 7.53488 5.47116 8.25 5.3252V3C8.25 2.58579 8.58579 2.25 9 2.25H15C15.4142 2.25 15.75 2.58579 15.75 3V5.3252C16.4651 5.47116 17.1276 5.82482 17.6514 6.34863C18.3546 7.05189 18.75 8.00544 18.75 9V15Z" fill="currentColor"/>
</svg>
