<svg class="icon icon-tabler icons-tabler-outline icon-tabler-devices-code" stroke-linejoin="round" stroke-linecap="round" width="24" height="24" viewBox="0 0 24 24" fill="none" xmlns="http://www.w3.org/2000/svg">
<path d="M16.4697 16.4697C16.7626 16.1768 17.2374 16.1768 17.5303 16.4697C17.8232 16.7626 17.8232 17.2374 17.5303 17.5303L16.0605 19L17.5303 20.4697C17.8232 20.7626 17.8232 21.2374 17.5303 21.5303C17.2374 21.8232 16.7626 21.8232 16.4697 21.5303L14.4697 19.5303C14.1768 19.2374 14.1768 18.7626 14.4697 18.4697L16.4697 16.4697ZM19.4697 16.4697C19.7626 16.1768 20.2374 16.1768 20.5303 16.4697L22.5303 18.4697C22.8232 18.7626 22.8232 19.2374 22.5303 19.5303L20.5303 21.5303C20.2374 21.8232 19.7626 21.8232 19.4697 21.5303C19.186 21.2466 19.1774 20.7925 19.4434 20.498C19.3245 20.3653 19.25 20.1921 19.25 20C19.25 19.5858 19.5858 19.25 20 19.25C20.0663 19.25 20.1299 19.2236 20.1768 19.1768C20.2236 19.1299 20.25 19.0663 20.25 19C20.25 18.8083 20.3231 18.6345 20.4414 18.502L19.4697 17.5303C19.1768 17.2374 19.1768 16.7626 19.4697 16.4697ZM20.25 13V9C20.25 8.93369 20.2236 8.87013 20.1768 8.82324C20.1299 8.77636 20.0663 8.75 20 8.75H18.7041C18.732 8.82848 18.75 8.91196 18.75 9C18.75 9.41421 18.4142 9.75 18 9.75H16C15.5858 9.75 15.25 9.41421 15.25 9C15.25 8.91196 15.268 8.82848 15.2959 8.75H14C13.9337 8.75 13.8701 8.77636 13.8232 8.82324C13.7764 8.87013 13.75 8.9337 13.75 9V15.5C13.75 15.9142 13.4142 16.25 13 16.25C12.5858 16.25 12.25 15.9142 12.25 15.5V9C12.25 8.53587 12.4345 8.09088 12.7627 7.7627C13.0909 7.43451 13.5359 7.25 14 7.25H17.25V5C17.25 4.93369 17.2236 4.87013 17.1768 4.82324C17.1299 4.77636 17.0663 4.75 17 4.75H4C3.9337 4.75 3.87013 4.77636 3.82324 4.82324C3.77636 4.87013 3.75 4.9337 3.75 5V17C3.75 17.0663 3.77636 17.1299 3.82324 17.1768C3.87013 17.2236 3.93369 17.25 4 17.25H11C11.4142 17.25 11.75 17.5858 11.75 18C11.75 18.4142 11.4142 18.75 11 18.75H4C3.53587 18.75 3.09088 18.5655 2.7627 18.2373C2.43451 17.9091 2.25 17.4641 2.25 17V5C2.25 4.53587 2.43451 4.09088 2.7627 3.7627C3.09088 3.43451 3.53587 3.25 4 3.25H17C17.4641 3.25 17.9091 3.43451 18.2373 3.7627C18.5655 4.09088 18.75 4.53587 18.75 5V7.25H20C20.4641 7.25 20.9091 7.43451 21.2373 7.7627C21.5655 8.09089 21.75 8.53587 21.75 9V13C21.75 13.4142 21.4142 13.75 21 13.75C20.5858 13.75 20.25 13.4142 20.25 13Z" fill="currentColor"/>
</svg>
