<svg class="icon icon-tabler icons-tabler-outline icon-tabler-dots-vertical" stroke-linejoin="round" stroke-linecap="round" width="24" height="24" viewBox="0 0 24 24" fill="none" xmlns="http://www.w3.org/2000/svg">
<path d="M12.25 19C12.25 18.9337 12.2236 18.8701 12.1768 18.8232C12.1299 18.7764 12.0663 18.75 12 18.75C11.9337 18.75 11.8701 18.7764 11.8232 18.8232C11.7764 18.8701 11.75 18.9337 11.75 19C11.75 19.0663 11.7764 19.1299 11.8232 19.1768C11.8701 19.2236 11.9337 19.25 12 19.25C12.0663 19.25 12.1299 19.2236 12.1768 19.1768C12.2236 19.1299 12.25 19.0663 12.25 19ZM12.25 12C12.25 11.9337 12.2236 11.8701 12.1768 11.8232C12.1299 11.7764 12.0663 11.75 12 11.75C11.9337 11.75 11.8701 11.7764 11.8232 11.8232C11.7764 11.8701 11.75 11.9337 11.75 12C11.75 12.0663 11.7764 12.1299 11.8232 12.1768C11.8701 12.2236 11.9337 12.25 12 12.25C12.0663 12.25 12.1299 12.2236 12.1768 12.1768C12.2236 12.1299 12.25 12.0663 12.25 12ZM12.25 5C12.25 4.9337 12.2236 4.87013 12.1768 4.82324C12.1299 4.77636 12.0663 4.75 12 4.75C11.9337 4.75 11.8701 4.77636 11.8232 4.82324C11.7764 4.87013 11.75 4.9337 11.75 5C11.75 5.0663 11.7764 5.12987 11.8232 5.17676C11.8701 5.22364 11.9337 5.25 12 5.25C12.0663 5.25 12.1299 5.22364 12.1768 5.17676C12.2236 5.12987 12.25 5.0663 12.25 5ZM13.75 19C13.75 19.4641 13.5655 19.9091 13.2373 20.2373C12.9091 20.5655 12.4641 20.75 12 20.75C11.5359 20.75 11.0909 20.5655 10.7627 20.2373C10.4345 19.9091 10.25 19.4641 10.25 19C10.25 18.5359 10.4345 18.0909 10.7627 17.7627C11.0909 17.4345 11.5359 17.25 12 17.25C12.4641 17.25 12.9091 17.4345 13.2373 17.7627C13.5655 18.0909 13.75 18.5359 13.75 19ZM13.75 12C13.75 12.4641 13.5655 12.9091 13.2373 13.2373C12.9091 13.5655 12.4641 13.75 12 13.75C11.5359 13.75 11.0909 13.5655 10.7627 13.2373C10.4345 12.9091 10.25 12.4641 10.25 12C10.25 11.5359 10.4345 11.0909 10.7627 10.7627C11.0909 10.4345 11.5359 10.25 12 10.25C12.4641 10.25 12.9091 10.4345 13.2373 10.7627C13.5655 11.0909 13.75 11.5359 13.75 12ZM13.75 5C13.75 5.46413 13.5655 5.90912 13.2373 6.2373C12.9091 6.56549 12.4641 6.75 12 6.75C11.5359 6.75 11.0909 6.56549 10.7627 6.2373C10.4345 5.90912 10.25 5.46413 10.25 5C10.25 4.53587 10.4345 4.09088 10.7627 3.7627C11.0909 3.43451 11.5359 3.25 12 3.25C12.4641 3.25 12.9091 3.43451 13.2373 3.7627C13.5655 4.09088 13.75 4.53587 13.75 5Z" fill="currentColor"/>
</svg>
