<svg class="icon icon-tabler icons-tabler-outline icon-tabler-download" stroke-linejoin="round" stroke-linecap="round" width="24" height="24" viewBox="0 0 24 24" fill="none" xmlns="http://www.w3.org/2000/svg">
<path d="M3.25 19V17C3.25 16.5858 3.58579 16.25 4 16.25C4.41421 16.25 4.75 16.5858 4.75 17V19C4.75 19.3315 4.88179 19.6494 5.11621 19.8838C5.35063 20.1182 5.66848 20.25 6 20.25H18C18.3315 20.25 18.6494 20.1182 18.8838 19.8838C19.1182 19.6494 19.25 19.3315 19.25 19V17C19.25 16.5858 19.5858 16.25 20 16.25C20.4142 16.25 20.75 16.5858 20.75 17V19C20.75 19.7293 20.4601 20.4286 19.9443 20.9443C19.4286 21.4601 18.7293 21.75 18 21.75H6C5.27065 21.75 4.57139 21.4601 4.05566 20.9443C3.53994 20.4286 3.25 19.7293 3.25 19ZM11.25 4C11.25 3.58579 11.5858 3.25 12 3.25C12.4142 3.25 12.75 3.58579 12.75 4V14.1895L16.4697 10.4697C16.7626 10.1768 17.2374 10.1768 17.5303 10.4697C17.8232 10.7626 17.8232 11.2374 17.5303 11.5303L12.5303 16.5303C12.2374 16.8232 11.7626 16.8232 11.4697 16.5303L6.46973 11.5303C6.17683 11.2374 6.17683 10.7626 6.46973 10.4697C6.76262 10.1768 7.23738 10.1768 7.53027 10.4697L11.25 14.1895V4Z" fill="currentColor"/>
</svg>
