<svg class="icon icon-tabler icons-tabler-outline icon-tabler-exchange" stroke-linejoin="round" stroke-linecap="round" width="24" height="24" viewBox="0 0 24 24" fill="none" xmlns="http://www.w3.org/2000/svg">
<path d="M20.25 5.99994C20.25 5.66842 20.1182 5.35057 19.8838 5.11615C19.6494 4.88173 19.3315 4.74994 19 4.74994C18.6685 4.74994 18.3506 4.88173 18.1162 5.11615C17.8818 5.35057 17.75 5.66842 17.75 5.99994C17.75 6.33146 17.8818 6.64931 18.1162 6.88373C18.3506 7.11815 18.6685 7.24994 19 7.24994C19.3315 7.24994 19.6494 7.11815 19.8838 6.88373C20.1182 6.64931 20.25 6.33146 20.25 5.99994ZM6.25 17.9999C6.25 17.6684 6.11821 17.3506 5.88379 17.1162C5.64937 16.8817 5.33152 16.7499 5 16.7499C4.66848 16.7499 4.35063 16.8817 4.11621 17.1162C3.88179 17.3506 3.75 17.6684 3.75 17.9999C3.75 18.3315 3.88179 18.6493 4.11621 18.8837C4.35063 19.1182 4.66848 19.2499 5 19.2499C5.33152 19.2499 5.64937 19.1182 5.88379 18.8837C6.11821 18.6493 6.25 18.3315 6.25 17.9999ZM7.75 17.9999C7.75 18.7293 7.46006 19.4286 6.94434 19.9443C6.42861 20.46 5.72935 20.7499 5 20.7499C4.27065 20.7499 3.57139 20.46 3.05566 19.9443C2.53994 19.4286 2.25 18.7293 2.25 17.9999C2.25 17.2706 2.53994 16.5713 3.05566 16.0556C3.3903 15.721 3.80267 15.4833 4.25 15.3564V10.9999C4.25 9.47495 4.85624 8.01285 5.93457 6.93451C7.0129 5.85618 8.47501 5.24994 10 5.24994H11.1895L9.46973 3.53022C9.17683 3.23732 9.17683 2.76256 9.46973 2.46967C9.76262 2.17678 10.2374 2.17678 10.5303 2.46967L13.5303 5.46967C13.8232 5.76256 13.8232 6.23732 13.5303 6.53022L10.5303 9.53022C10.2374 9.82311 9.76262 9.82311 9.46973 9.53022C9.17683 9.23732 9.17683 8.76256 9.46973 8.46967L11.1895 6.74994H10C8.87283 6.74994 7.79215 7.19803 6.99512 7.99506C6.19809 8.79209 5.75 9.87277 5.75 10.9999V15.3564C6.19733 15.4833 6.6097 15.721 6.94434 16.0556C7.46006 16.5713 7.75 17.2706 7.75 17.9999ZM21.75 5.99994C21.75 6.72929 21.4601 7.42855 20.9443 7.94428C20.6098 8.27885 20.1972 8.51558 19.75 8.64252V12.9999C19.75 14.5249 19.1438 15.987 18.0654 17.0654C16.9871 18.1437 15.525 18.7499 14 18.7499H12.8105L14.5303 20.4697C14.8232 20.7626 14.8232 21.2373 14.5303 21.5302C14.2374 21.8231 13.7626 21.8231 13.4697 21.5302L10.4697 18.5302C10.1768 18.2373 10.1768 17.7626 10.4697 17.4697L13.4697 14.4697C13.7626 14.1768 14.2374 14.1768 14.5303 14.4697C14.8232 14.7626 14.8232 15.2373 14.5303 15.5302L12.8105 17.2499H14C15.1272 17.2499 16.2079 16.8019 17.0049 16.0048C17.8019 15.2078 18.25 14.1271 18.25 12.9999V8.64252C17.8028 8.51558 17.3902 8.27885 17.0557 7.94428C16.5399 7.42855 16.25 6.72929 16.25 5.99994C16.25 5.2706 16.5399 4.57133 17.0557 4.05561C17.5714 3.53988 18.2707 3.24994 19 3.24994C19.7293 3.24994 20.4286 3.53988 20.9443 4.05561C21.4601 4.57133 21.75 5.2706 21.75 5.99994Z" fill="currentColor"/>
</svg>
