<svg class="icon icon-tabler icons-tabler-outline icon-tabler-eye-off" stroke-linejoin="round" stroke-linecap="round" width="24" height="24" viewBox="0 0 24 24" fill="none" xmlns="http://www.w3.org/2000/svg">
<path d="M2.46975 2.46967C2.76264 2.17678 3.2374 2.17678 3.53029 2.46967L17.1641 16.1035C17.2027 16.1362 17.2405 16.1707 17.2725 16.2119L21.5303 20.4697C21.8232 20.7626 21.8232 21.2373 21.5303 21.5302C21.2374 21.8231 20.7626 21.8231 20.4697 21.5302L16.5528 17.6132C15.1572 18.3663 13.5923 18.7586 12 18.749V18.7499L11.9981 18.749L11.9951 18.7499V18.749C8.0557 18.7471 4.8452 16.5336 2.35646 12.3857C2.21419 12.1483 2.21419 11.8516 2.35646 11.6142C3.47334 9.75275 4.73697 8.27724 6.15529 7.21576L2.46975 3.53022C2.17685 3.23732 2.17685 2.76256 2.46975 2.46967ZM7.22756 8.28803C6.02787 9.14382 4.9089 10.3715 3.88088 11.999C6.144 15.5833 8.85239 17.2499 12 17.2499H12.0049C13.1945 17.2578 14.3656 16.9972 15.4356 16.496L13.3389 14.3994C12.9328 14.6261 12.4734 14.7508 12 14.7509C11.2708 14.751 10.5715 14.4616 10.0557 13.9462C9.53997 13.4307 9.24929 12.7311 9.24904 12.0019C9.24896 11.528 9.37251 11.0666 9.59963 10.6601L7.22756 8.28803ZM12 5.24994C15.9417 5.24994 19.1538 7.4646 21.6436 11.6142C21.7859 11.8516 21.7859 12.1483 21.6436 12.3857C20.9543 13.5344 20.2091 14.5363 19.4072 15.3847C19.1227 15.6857 18.6477 15.6995 18.3467 15.415C18.0457 15.1304 18.0329 14.6554 18.3174 14.3544C18.9456 13.6897 19.5461 12.9056 20.1182 11.9999C17.8552 8.41637 15.1473 6.74994 12 6.74994H11.9981C11.4376 6.7485 10.8784 6.8038 10.3291 6.91498C9.92326 6.99714 9.52768 6.73482 9.44533 6.32904C9.36315 5.92307 9.6253 5.52745 10.0313 5.44526C10.6793 5.31407 11.3389 5.24837 12 5.24994ZM10.7627 11.8232C10.7543 11.8817 10.749 11.9411 10.749 12.0009C10.7491 12.3325 10.8818 12.6503 11.1162 12.8847C11.3507 13.119 11.6685 13.251 12 13.2509C12.0593 13.2509 12.1178 13.2445 12.1758 13.2363L10.7627 11.8232Z" fill="currentColor"/>
</svg>
