<svg class="icon icon-tabler icons-tabler-outline icon-tabler-eye" stroke-linejoin="round" stroke-linecap="round" width="24" height="24" viewBox="0 0 24 24" fill="none" xmlns="http://www.w3.org/2000/svg">
<path d="M12 5.25C15.9417 5.25 19.1538 7.46465 21.6436 11.6143C21.7859 11.8516 21.7859 12.1484 21.6436 12.3857C19.1538 16.5353 15.9417 18.75 12 18.75C8.05835 18.75 4.84623 16.5353 2.35646 12.3857C2.21419 12.1484 2.21419 11.8516 2.35646 11.6143C4.84623 7.46465 8.05835 5.25 12 5.25ZM12 6.75C8.85259 6.75 6.14391 8.41612 3.88088 12C6.14391 15.5839 8.85259 17.25 12 17.25C15.1473 17.25 17.8552 15.5836 20.1182 12C17.8552 8.41643 15.1473 6.75 12 6.75ZM13.25 12C13.25 11.6685 13.1182 11.3506 12.8838 11.1162C12.6494 10.8818 12.3315 10.75 12 10.75C11.6685 10.75 11.3507 10.8818 11.1162 11.1162C10.8818 11.3506 10.75 11.6685 10.75 12C10.75 12.3315 10.8818 12.6494 11.1162 12.8838C11.3507 13.1182 11.6685 13.25 12 13.25C12.3315 13.25 12.6494 13.1182 12.8838 12.8838C13.1182 12.6494 13.25 12.3315 13.25 12ZM14.75 12C14.75 12.7293 14.4601 13.4286 13.9444 13.9443C13.4286 14.4601 12.7294 14.75 12 14.75C11.2707 14.75 10.5714 14.4601 10.0557 13.9443C9.53996 13.4286 9.25002 12.7293 9.25002 12C9.25002 11.2707 9.53996 10.5714 10.0557 10.0557C10.5714 9.53994 11.2707 9.25 12 9.25C12.7294 9.25 13.4286 9.53994 13.9444 10.0557C14.4601 10.5714 14.75 11.2707 14.75 12Z" fill="currentColor"/>
</svg>
