<svg class="icon icon-tabler icons-tabler-outline icon-tabler-file-text" stroke-linejoin="round" stroke-linecap="round" width="24" height="24" viewBox="0 0 24 24" fill="none" xmlns="http://www.w3.org/2000/svg">
<path d="M15 16.25C15.4142 16.25 15.75 16.5858 15.75 17C15.75 17.4142 15.4142 17.75 15 17.75H9C8.58579 17.75 8.25 17.4142 8.25 17C8.25 16.5858 8.58579 16.25 9 16.25H15ZM15 12.25C15.4142 12.25 15.75 12.5858 15.75 13C15.75 13.4142 15.4142 13.75 15 13.75H9C8.58579 13.75 8.25 13.4142 8.25 13C8.25 12.5858 8.58579 12.25 9 12.25H15ZM10 8.25C10.4142 8.25 10.75 8.58579 10.75 9C10.75 9.41421 10.4142 9.75 10 9.75H9C8.58579 9.75 8.25 9.41421 8.25 9C8.25 8.58579 8.58579 8.25 9 8.25H10ZM19.75 19C19.75 19.7293 19.4601 20.4286 18.9443 20.9443C18.4286 21.4601 17.7293 21.75 17 21.75H7C6.27065 21.75 5.57139 21.4601 5.05566 20.9443C4.53994 20.4286 4.25 19.7293 4.25 19V5C4.25 4.27065 4.53994 3.57139 5.05566 3.05566C5.57139 2.53994 6.27065 2.25 7 2.25H14C14.1989 2.25 14.3896 2.32907 14.5303 2.46973L19.5303 7.46973C19.6709 7.61038 19.75 7.80109 19.75 8V19ZM14.75 7C14.75 7.0663 14.7764 7.12987 14.8232 7.17676C14.8701 7.22364 14.9337 7.25 15 7.25H17.1895L14.75 4.81055V7ZM5.75 19C5.75 19.3315 5.88179 19.6494 6.11621 19.8838C6.35063 20.1182 6.66848 20.25 7 20.25H17C17.3315 20.25 17.6494 20.1182 17.8838 19.8838C18.1182 19.6494 18.25 19.3315 18.25 19V8.75H15C14.5359 8.75 14.0909 8.56549 13.7627 8.2373C13.4345 7.90912 13.25 7.46413 13.25 7V3.75H7C6.66848 3.75 6.35063 3.88179 6.11621 4.11621C5.88179 4.35063 5.75 4.66848 5.75 5V19Z" fill="currentColor"/>
</svg>
