<svg class="icon icon-tabler icons-tabler-outline icon-tabler-file-zip" stroke-linejoin="round" stroke-linecap="round" width="24" height="24" viewBox="0 0 24 24" fill="none" xmlns="http://www.w3.org/2000/svg">
<path d="M12.25 19C12.25 18.6685 12.1182 18.3506 11.8838 18.1162C11.6494 17.8818 11.3315 17.75 11 17.75C10.6685 17.75 10.3506 17.8818 10.1162 18.1162C9.88179 18.3506 9.75 18.6685 9.75 19V21C9.75 21.0663 9.77636 21.1299 9.82325 21.1768C9.87013 21.2236 9.9337 21.25 10 21.25H12C12.0663 21.25 12.1299 21.2236 12.1768 21.1768C12.2236 21.1299 12.25 21.0663 12.25 21V19ZM4.25 5C4.25 4.27066 4.53994 3.57139 5.05567 3.05566C5.57139 2.53994 6.27066 2.25 7 2.25H14C14.1989 2.25 14.3896 2.32907 14.5303 2.46973L19.5303 7.46973C19.6709 7.61038 19.75 7.80109 19.75 8V19C19.75 19.7293 19.4601 20.4286 18.9443 20.9443C18.4286 21.4601 17.7293 21.75 17 21.75H16C15.5858 21.75 15.25 21.4142 15.25 21C15.25 20.5858 15.5858 20.25 16 20.25H17C17.3315 20.25 17.6494 20.1182 17.8838 19.8838C18.1182 19.6494 18.25 19.3315 18.25 19V8.31055L13.6895 3.75H7C6.66848 3.75 6.35063 3.88179 6.11621 4.11621C5.88179 4.35063 5.75 4.66848 5.75 5V19.001C5.74968 19.2206 5.80733 19.4366 5.917 19.627C6.02672 19.8173 6.18471 19.9761 6.375 20.0859C6.73357 20.2931 6.85649 20.7517 6.64942 21.1104C6.44225 21.4688 5.9836 21.5917 5.625 21.3848C5.20636 21.1431 4.85859 20.7948 4.61719 20.376C4.37591 19.9573 4.24931 19.4823 4.25 18.999V5ZM13 14.25C13.4142 14.25 13.75 14.5858 13.75 15C13.75 15.4142 13.4142 15.75 13 15.75H12C11.5858 15.75 11.25 15.4142 11.25 15C11.25 14.5858 11.5858 14.25 12 14.25H13ZM11 12.25C11.4142 12.25 11.75 12.5858 11.75 13C11.75 13.4142 11.4142 13.75 11 13.75H10C9.58579 13.75 9.25 13.4142 9.25 13C9.25 12.5858 9.58579 12.25 10 12.25H11ZM13 10.25C13.4142 10.25 13.75 10.5858 13.75 11C13.75 11.4142 13.4142 11.75 13 11.75H12C11.5858 11.75 11.25 11.4142 11.25 11C11.25 10.5858 11.5858 10.25 12 10.25H13ZM11 8.25C11.4142 8.25 11.75 8.58579 11.75 9C11.75 9.41421 11.4142 9.75 11 9.75H10C9.58579 9.75 9.25 9.41421 9.25 9C9.25 8.58579 9.58579 8.25 10 8.25H11ZM13 6.25C13.4142 6.25 13.75 6.58579 13.75 7C13.75 7.41421 13.4142 7.75 13 7.75H12C11.5858 7.75 11.25 7.41421 11.25 7C11.25 6.58579 11.5858 6.25 12 6.25H13ZM11 4.25C11.4142 4.25 11.75 4.58579 11.75 5C11.75 5.41421 11.4142 5.75 11 5.75H10C9.58579 5.75 9.25 5.41421 9.25 5C9.25 4.58579 9.58579 4.25 10 4.25H11ZM13.75 21C13.75 21.4641 13.5655 21.9091 13.2373 22.2373C12.9091 22.5655 12.4641 22.75 12 22.75H10C9.53588 22.75 9.09089 22.5655 8.7627 22.2373C8.43451 21.9091 8.25 21.4641 8.25 21V19C8.25 18.2707 8.53994 17.5714 9.05567 17.0557C9.57139 16.5399 10.2707 16.25 11 16.25C11.7293 16.25 12.4286 16.5399 12.9443 17.0557C13.4601 17.5714 13.75 18.2707 13.75 19V21Z" fill="currentColor"/>
</svg>
