<svg class="icon icon-tabler icons-tabler-outline icon-tabler-filters" stroke-linejoin="round" stroke-linecap="round" width="24" height="24" viewBox="0 0 24 24" fill="none" xmlns="http://www.w3.org/2000/svg">
<path d="M16.2502 8C16.2502 6.87289 15.8021 5.79213 15.0051 4.99512C14.2082 4.19815 13.1273 3.75007 12.0002 3.75C10.8731 3.75 9.79141 4.19809 8.99438 4.99512C8.19758 5.79211 7.75024 6.873 7.75024 8C7.75024 9.127 8.19758 10.2079 8.99438 11.0049C9.78041 11.7909 10.8431 12.2359 11.9534 12.248C11.969 12.2471 11.9846 12.249 12.0002 12.249C13.1273 12.249 14.2082 11.8019 15.0051 11.0049C15.8021 10.2079 16.2502 9.12711 16.2502 8ZM16.343 11.7656C16.2541 11.8682 16.1623 11.9688 16.0657 12.0654C15.2826 12.8485 14.2967 13.3806 13.2317 13.6143C13.5914 14.4031 13.7705 15.2681 13.7483 16.1455C13.7231 17.1381 13.4404 18.1012 12.9368 18.9453C13.3168 19.3405 13.7706 19.6599 14.2747 19.8838C14.9365 20.1778 15.6627 20.2979 16.384 20.2324C17.1053 20.1669 17.7976 19.9181 18.3957 19.5098C18.9939 19.1014 19.4783 18.5473 19.802 17.8994C20.1257 17.2515 20.2781 16.5312 20.2454 15.8076C20.2126 15.0842 19.9953 14.3806 19.6145 13.7646C19.2337 13.1489 18.7019 12.6407 18.0696 12.2881C17.5372 11.9913 16.9479 11.8147 16.343 11.7656ZM7.65454 11.7637C6.82058 11.8317 6.02261 12.1454 5.36254 12.668C4.6118 13.2623 4.08331 14.0925 3.86352 15.0244C3.64374 15.9564 3.74552 16.9356 4.15161 17.8027C4.55766 18.6696 5.24449 19.3739 6.10083 19.8018C6.95743 20.2296 7.93412 20.3563 8.87133 20.1602C9.80835 19.964 10.6519 19.457 11.2649 18.7217C11.878 17.9862 12.225 17.0646 12.2493 16.1074C12.2705 15.2663 12.041 14.4408 11.595 13.7334C10.218 13.6362 8.91626 13.0479 7.93383 12.0654C7.83656 11.9681 7.74402 11.867 7.65454 11.7637ZM17.7502 8C17.7502 8.83144 17.5683 9.64358 17.2297 10.3857C17.7768 10.5056 18.306 10.7027 18.7991 10.9775C19.655 11.4547 20.3756 12.1431 20.8909 12.9766C21.406 13.81 21.6991 14.7614 21.7434 15.7402C21.7877 16.719 21.5816 17.6928 21.1438 18.5693C20.7059 19.446 20.0508 20.1965 19.2415 20.749C18.4322 21.3015 17.4947 21.638 16.5188 21.7266C15.543 21.815 14.5607 21.6526 13.6653 21.2549C13.0458 20.9797 12.4837 20.5964 12.0002 20.1279C11.2227 20.8814 10.2458 21.4044 9.17797 21.6279C7.91004 21.8933 6.58978 21.7224 5.4309 21.1436C4.27202 20.5647 3.34261 19.6116 2.79321 18.4385C2.24387 17.2654 2.10636 15.9414 2.40356 14.6807C2.70091 13.4198 3.41518 12.2953 4.4309 11.4912C5.11999 10.9457 5.92079 10.5697 6.76879 10.3838C6.43088 9.64221 6.25024 8.83063 6.25024 8C6.25024 6.47518 6.85573 5.01287 7.93383 3.93457C9.01217 2.85624 10.4752 2.25 12.0002 2.25C13.5251 2.25007 14.9874 2.85629 16.0657 3.93457C17.1439 5.01289 17.7502 6.47506 17.7502 8Z" fill="currentColor"/>
</svg>
