<svg width="24" height="24" viewBox="0 0 24 24" fill="none" xmlns="http://www.w3.org/2000/svg">
<path d="M18.25 22.0098V22C18.25 21.5858 18.5858 21.25 19 21.25C19.4142 21.25 19.75 21.5858 19.75 22V22.0098C19.75 22.424 19.4142 22.7598 19 22.7598C18.5858 22.7598 18.25 22.424 18.25 22.0098ZM18.4756 14.3037C19.0044 14.1979 19.551 14.2508 20.0469 14.4541L20.2559 14.5508L20.2588 14.5518C20.806 14.8349 21.2423 15.294 21.498 15.8545C21.7537 16.4149 21.8146 17.0448 21.6699 17.6436C21.5252 18.2423 21.1835 18.7754 20.7002 19.1572C20.2166 19.5391 19.6181 19.748 19.002 19.75C18.5879 19.7511 18.2513 19.416 18.25 19.002C18.2489 18.5879 18.584 18.2513 18.998 18.25C19.2783 18.249 19.5505 18.1542 19.7705 17.9805C19.9905 17.8067 20.1461 17.5635 20.2119 17.291C20.2777 17.0185 20.2502 16.7316 20.1338 16.4766C20.0178 16.2225 19.8199 16.0147 19.5723 15.8857L19.4775 15.8418C19.2542 15.7503 19.0076 15.7268 18.7695 15.7744C18.4974 15.829 18.2516 15.9737 18.0723 16.1855C17.8047 16.5016 17.3318 16.5409 17.0156 16.2734C16.6995 16.0059 16.6602 15.533 16.9277 15.2168C17.3259 14.7464 17.8713 14.4246 18.4756 14.3037ZM19.25 6.17188V4.75H4.75V6.22656C4.75003 6.53744 4.8661 6.83734 5.0752 7.06738L9.55469 11.9951C9.68019 12.1332 9.75 12.3134 9.75 12.5V19.959L14.7627 18.2881C15.1557 18.1571 15.5809 18.3697 15.7119 18.7627C15.8429 19.1557 15.6303 19.5809 15.2373 19.7119L9.2373 21.7119C9.0086 21.7881 8.7571 21.7494 8.56152 21.6084C8.36595 21.4674 8.25 21.2411 8.25 21V12.7891L3.96484 8.07617C3.50507 7.57021 3.25019 6.91119 3.25 6.22754V4C3.25 3.58579 3.58579 3.25 4 3.25H20C20.4142 3.25 20.75 3.58579 20.75 4V6.17188C20.7498 6.90109 20.46 7.60062 19.9443 8.11621L15.5303 12.5303C15.2374 12.8232 14.7626 12.8232 14.4697 12.5303C14.1768 12.2374 14.1768 11.7626 14.4697 11.4697L18.8838 7.05566L18.9668 6.96387C19.1231 6.77313 19.2198 6.54033 19.2441 6.29492L19.25 6.17188Z" fill="currentColor"/>
</svg>
