<svg class="icon icon-tabler icons-tabler-outline icon-tabler-filter" stroke-linejoin="round" stroke-linecap="round" width="24" height="24" viewBox="0 0 24 24" fill="none" xmlns="http://www.w3.org/2000/svg">
<path d="M19.25 6.17188V4.75H4.75V6.22656C4.75003 6.53744 4.8661 6.83734 5.0752 7.06738L9.55469 11.9951C9.68019 12.1332 9.75 12.3134 9.75 12.5V19.959L14.25 18.459V12C14.25 11.8011 14.3291 11.6104 14.4697 11.4697L18.8838 7.05566L18.9668 6.96387C19.1231 6.77313 19.2198 6.54033 19.2441 6.29492L19.25 6.17188ZM20.75 6.17188C20.7498 6.90109 20.46 7.60062 19.9443 8.11621L15.75 12.3105V19C15.75 19.3228 15.5436 19.6098 15.2373 19.7119L9.2373 21.7119C9.0086 21.7881 8.7571 21.7493 8.56152 21.6084C8.36595 21.4674 8.25 21.2411 8.25 21V12.7891L3.96484 8.07617C3.50507 7.57021 3.25019 6.91119 3.25 6.22754V4C3.25 3.58579 3.58579 3.25 4 3.25H20C20.4142 3.25 20.75 3.58579 20.75 4V6.17188Z" fill="currentColor"/>
</svg>
