<svg class="icon icon-tabler icons-tabler-outline icon-tabler-folders" stroke-linejoin="round" stroke-linecap="round" width="24" height="24" viewBox="0 0 24 24" fill="none" xmlns="http://www.w3.org/2000/svg">
<path d="M2.25 18V9C2.25 8.27065 2.53994 7.57139 3.05566 7.05566C3.57139 6.53994 4.27065 6.25 5 6.25H6.25V5C6.25 4.27065 6.53994 3.57139 7.05566 3.05566C7.57139 2.53994 8.27065 2.25 9 2.25H12C12.1989 2.25 12.3896 2.32907 12.5303 2.46973L14.3105 4.25H19C19.7293 4.25 20.4286 4.53994 20.9443 5.05566C21.4601 5.57139 21.75 6.27065 21.75 7V14C21.75 14.7293 21.4601 15.4286 20.9443 15.9443C20.4286 16.4601 19.7293 16.75 19 16.75H17.75V18C17.75 18.7293 17.4601 19.4286 16.9443 19.9443C16.4286 20.4601 15.7293 20.75 15 20.75H5C4.27065 20.75 3.57139 20.4601 3.05566 19.9443C2.53994 19.4286 2.25 18.7293 2.25 18ZM3.75 18C3.75 18.3315 3.88179 18.6494 4.11621 18.8838C4.35063 19.1182 4.66848 19.25 5 19.25H15C15.3315 19.25 15.6494 19.1182 15.8838 18.8838C16.1182 18.6494 16.25 18.3315 16.25 18V16.75H9C8.27065 16.75 7.57139 16.4601 7.05566 15.9443C6.53994 15.4286 6.25 14.7293 6.25 14V7.75H5C4.66848 7.75 4.35063 7.88179 4.11621 8.11621C3.88179 8.35063 3.75 8.66848 3.75 9V18ZM7.75 14C7.75 14.3315 7.88179 14.6494 8.11621 14.8838C8.35063 15.1182 8.66848 15.25 9 15.25H19C19.3315 15.25 19.6494 15.1182 19.8838 14.8838C20.1182 14.6494 20.25 14.3315 20.25 14V7C20.25 6.66848 20.1182 6.35063 19.8838 6.11621C19.6494 5.88179 19.3315 5.75 19 5.75H14C13.8011 5.75 13.6104 5.67093 13.4697 5.53027L11.6895 3.75H9C8.66848 3.75 8.35063 3.88179 8.11621 4.11621C7.88179 4.35063 7.75 4.66848 7.75 5V14Z" fill="currentColor"/>
</svg>
