<svg class="icon icon-tabler icons-tabler-outline icon-tabler-folder" stroke-linejoin="round" stroke-linecap="round" width="24" height="24" viewBox="0 0 24 24" fill="none" xmlns="http://www.w3.org/2000/svg">
<path d="M2.25 17V6C2.25 5.27065 2.53994 4.57139 3.05566 4.05566C3.57139 3.53994 4.27065 3.25 5 3.25H9C9.19891 3.25 9.38962 3.32907 9.53027 3.46973L12.3105 6.25H19C19.7293 6.25 20.4286 6.53994 20.9443 7.05566C21.4601 7.57139 21.75 8.27065 21.75 9V17C21.75 17.7293 21.4601 18.4286 20.9443 18.9443C20.4286 19.4601 19.7293 19.75 19 19.75H5C4.27065 19.75 3.57139 19.4601 3.05566 18.9443C2.53994 18.4286 2.25 17.7293 2.25 17ZM3.75 17C3.75 17.3315 3.88179 17.6494 4.11621 17.8838C4.35063 18.1182 4.66848 18.25 5 18.25H19C19.3315 18.25 19.6494 18.1182 19.8838 17.8838C20.1182 17.6494 20.25 17.3315 20.25 17V9C20.25 8.66848 20.1182 8.35063 19.8838 8.11621C19.6494 7.88179 19.3315 7.75 19 7.75H12C11.8011 7.75 11.6104 7.67093 11.4697 7.53027L8.68945 4.75H5C4.66848 4.75 4.35063 4.88179 4.11621 5.11621C3.88179 5.35063 3.75 5.66848 3.75 6V17Z" fill="currentColor"/>
</svg>
