<svg width="24" height="24" viewBox="0 0 24 24" fill="none" xmlns="http://www.w3.org/2000/svg">
<path fill-rule="evenodd" clip-rule="evenodd" d="M4.87868 3.87868C5.44129 3.31607 6.20435 3 7 3C7.79565 3 8.55871 3.31607 9.12132 3.87868C9.68393 4.44129 10 5.20435 10 6C10 6.79565 9.68393 7.55871 9.12132 8.12132C8.829 8.41364 8.48257 8.6394 8.10557 8.78886C8.24173 9.28841 8.50616 9.7488 8.87868 10.1213C9.44129 10.6839 10.2044 11 11 11H14.1716C14.3193 10.5821 14.5593 10.1981 14.8787 9.87868C15.4413 9.31607 16.2043 9 17 9C17.7957 9 18.5587 9.31607 19.1213 9.87868C19.6839 10.4413 20 11.2043 20 12C20 12.7957 19.6839 13.5587 19.1213 14.1213C18.5587 14.6839 17.7957 15 17 15C16.2043 15 15.4413 14.6839 14.8787 14.1213C14.5593 13.8019 14.3193 13.4179 14.1716 13H11C9.91191 13 8.8604 12.6453 8 12V15.1716C8.4179 15.3193 8.80192 15.5593 9.12132 15.8787C9.68393 16.4413 10 17.2043 10 18C10 18.7957 9.68393 19.5587 9.12132 20.1213C8.55871 20.6839 7.79565 21 7 21C6.20435 21 5.44129 20.6839 4.87868 20.1213C4.31607 19.5587 4 18.7956 4 18C4 17.2044 4.31607 16.4413 4.87868 15.8787C5.19808 15.5593 5.5821 15.3193 6 15.1716V8.82843C5.5821 8.68067 5.19808 8.44073 4.87868 8.12132C4.31607 7.55871 4 6.79565 4 6C4 5.20435 4.31607 4.44129 4.87868 3.87868ZM7 5C6.73478 5 6.48043 5.10536 6.29289 5.29289C6.10536 5.48043 6 5.73478 6 6C6 6.26522 6.10536 6.51957 6.29289 6.70711C6.48043 6.89464 6.73478 7 7 7C7.26522 7 7.51957 6.89464 7.70711 6.70711C7.89464 6.51957 8 6.26522 8 6C8 5.73478 7.89464 5.48043 7.70711 5.29289C7.51957 5.10536 7.26522 5 7 5ZM17 11C16.7348 11 16.4804 11.1054 16.2929 11.2929C16.1054 11.4804 16 11.7348 16 12C16 12.2652 16.1054 12.5196 16.2929 12.7071C16.4804 12.8946 16.7348 13 17 13C17.2652 13 17.5196 12.8946 17.7071 12.7071C17.8946 12.5196 18 12.2652 18 12C18 11.7348 17.8946 11.4804 17.7071 11.2929C17.5196 11.1054 17.2652 11 17 11ZM7 17C6.73478 17 6.48043 17.1054 6.29289 17.2929C6.10536 17.4804 6 17.7348 6 18C6 18.2652 6.10536 18.5196 6.29289 18.7071C6.48043 18.8946 6.73478 19 7 19C7.26522 19 7.51957 18.8946 7.70711 18.7071C7.89464 18.5196 8 18.2652 8 18C8 17.7348 7.89464 17.4804 7.70711 17.2929C7.51957 17.1054 7.26522 17 7 17Z" fill="currentColor"/>
</svg>
