<svg class="icon icon-tabler icons-tabler-outline icon-tabler-git-commit" stroke-linejoin="round" stroke-linecap="round" width="24" height="24" viewBox="0 0 24 24" fill="none" xmlns="http://www.w3.org/2000/svg">
<path d="M14.25 12C14.25 11.4033 14.0128 10.8311 13.5908 10.4092C13.1689 9.98722 12.5967 9.75 12 9.75C11.4033 9.75 10.8311 9.98722 10.4092 10.4092C9.98722 10.8311 9.75 11.4033 9.75 12C9.75 12.5967 9.98722 13.1689 10.4092 13.5908C10.8311 14.0128 11.4033 14.25 12 14.25C12.5967 14.25 13.1689 14.0128 13.5908 13.5908C14.0128 13.1689 14.25 12.5967 14.25 12ZM15.75 12C15.75 12.9946 15.3546 13.9481 14.6514 14.6514C14.1276 15.1751 13.4651 15.5278 12.75 15.6738V21C12.75 21.4142 12.4142 21.75 12 21.75C11.5858 21.75 11.25 21.4142 11.25 21V15.6738C10.5349 15.5278 9.8724 15.1751 9.34863 14.6514C8.64537 13.9481 8.25 12.9946 8.25 12C8.25 11.0054 8.64537 10.0519 9.34863 9.34863C9.87245 8.82482 10.5349 8.47116 11.25 8.3252V3C11.25 2.58579 11.5858 2.25 12 2.25C12.4142 2.25 12.75 2.58579 12.75 3V8.3252C13.4651 8.47116 14.1276 8.82482 14.6514 9.34863C15.3546 10.0519 15.75 11.0054 15.75 12Z" fill="currentColor"/>
</svg>
