<svg class="icon icon-tabler icons-tabler-outline icon-tabler-git-branch" stroke-linejoin="round" stroke-linecap="round" width="24" height="24" viewBox="0 0 24 24" fill="none" xmlns="http://www.w3.org/2000/svg">
<path d="M8.25 6C8.25 5.66848 8.11821 5.35063 7.88379 5.11621C7.64937 4.88179 7.33152 4.75 7 4.75C6.66848 4.75 6.35063 4.88179 6.11621 5.11621C5.88179 5.35063 5.75 5.66848 5.75 6C5.75 6.33152 5.88179 6.64937 6.11621 6.88379C6.35063 7.11821 6.66848 7.25 7 7.25C7.33152 7.25 7.64937 7.11821 7.88379 6.88379C8.11821 6.64937 8.25 6.33152 8.25 6ZM18.25 6C18.25 5.66848 18.1182 5.35063 17.8838 5.11621C17.6494 4.88179 17.3315 4.75 17 4.75C16.6685 4.75 16.3506 4.88179 16.1162 5.11621C15.8818 5.35063 15.75 5.66848 15.75 6C15.75 6.33152 15.8818 6.64937 16.1162 6.88379C16.3506 7.11821 16.6685 7.25 17 7.25C17.3315 7.25 17.6494 7.11821 17.8838 6.88379C18.1182 6.64937 18.25 6.33152 18.25 6ZM5.75 18C5.75 18.3315 5.88179 18.6494 6.11621 18.8838C6.35063 19.1182 6.66848 19.25 7 19.25C7.33152 19.25 7.64937 19.1182 7.88379 18.8838C8.11821 18.6494 8.25 18.3315 8.25 18C8.25 17.6685 8.11821 17.3506 7.88379 17.1162C7.64937 16.8818 7.33152 16.75 7 16.75C6.66848 16.75 6.35063 16.8818 6.11621 17.1162C5.88179 17.3506 5.75 17.6685 5.75 18ZM9.75 6C9.75 6.72935 9.46006 7.42861 8.94434 7.94434C8.60976 8.27891 8.19723 8.51563 7.75 8.64258V15.3564C8.19733 15.4834 8.6097 15.721 8.94434 16.0557C9.27897 16.3903 9.51663 16.8027 9.64355 17.25H15C15.3315 17.25 15.6494 17.1182 15.8838 16.8838C16.1182 16.6494 16.25 16.3315 16.25 16V12.8105L14.5303 14.5303C14.2374 14.8232 13.7626 14.8232 13.4697 14.5303C13.1768 14.2374 13.1768 13.7626 13.4697 13.4697L16.4697 10.4697L16.5264 10.418C16.8209 10.1777 17.2557 10.1951 17.5303 10.4697L20.5303 13.4697C20.8232 13.7626 20.8232 14.2374 20.5303 14.5303C20.2374 14.8232 19.7626 14.8232 19.4697 14.5303L17.75 12.8105V16C17.75 16.7293 17.4601 17.4286 16.9443 17.9443C16.4286 18.4601 15.7293 18.75 15 18.75H9.64355C9.51663 19.1973 9.27897 19.6097 8.94434 19.9443C8.42861 20.4601 7.72935 20.75 7 20.75C6.27065 20.75 5.57139 20.4601 5.05566 19.9443C4.53994 19.4286 4.25 18.7293 4.25 18C4.25 17.2707 4.53994 16.5714 5.05566 16.0557C5.3903 15.721 5.80267 15.4834 6.25 15.3564V8.64258C5.80277 8.51563 5.39024 8.27891 5.05566 7.94434C4.53994 7.42861 4.25 6.72935 4.25 6C4.25 5.27065 4.53994 4.57139 5.05566 4.05566C5.57139 3.53994 6.27065 3.25 7 3.25C7.72935 3.25 8.42861 3.53994 8.94434 4.05566C9.46006 4.57139 9.75 5.27065 9.75 6ZM19.75 6C19.75 6.72935 19.4601 7.42861 18.9443 7.94434C18.4286 8.46006 17.7293 8.75 17 8.75C16.2707 8.75 15.5714 8.46006 15.0557 7.94434C14.5399 7.42861 14.25 6.72935 14.25 6C14.25 5.27065 14.5399 4.57139 15.0557 4.05566C15.5714 3.53994 16.2707 3.25 17 3.25C17.7293 3.25 18.4286 3.53994 18.9443 4.05566C19.4601 4.57139 19.75 5.27065 19.75 6Z" fill="currentColor"/>
</svg>
