<svg class="icon icon-tabler icons-tabler-outline icon-tabler-git-merge" stroke-linejoin="round" stroke-linecap="round" width="24" height="24" viewBox="0 0 24 24" fill="none" xmlns="http://www.w3.org/2000/svg">
<path d="M8.25 18C8.25 17.6685 8.11821 17.3506 7.88379 17.1162C7.64937 16.8818 7.33152 16.75 7 16.75C6.66848 16.75 6.35063 16.8818 6.11621 17.1162C5.88179 17.3506 5.75 17.6685 5.75 18C5.75 18.3315 5.88179 18.6494 6.11621 18.8838C6.35063 19.1182 6.66848 19.25 7 19.25C7.33152 19.25 7.64937 19.1182 7.88379 18.8838C8.11821 18.6494 8.25 18.3315 8.25 18ZM18.25 12C18.25 11.6685 18.1182 11.3506 17.8838 11.1162C17.6494 10.8818 17.3315 10.75 17 10.75C16.6685 10.75 16.3506 10.8818 16.1162 11.1162C15.8818 11.3506 15.75 11.6685 15.75 12C15.75 12.3315 15.8818 12.6494 16.1162 12.8838C16.3506 13.1182 16.6685 13.25 17 13.25C17.3315 13.25 17.6494 13.1182 17.8838 12.8838C18.1182 12.6494 18.25 12.3315 18.25 12ZM8.25 6C8.25 5.66848 8.11821 5.35063 7.88379 5.11621C7.64937 4.88179 7.33152 4.75 7 4.75C6.66848 4.75 6.35063 4.88179 6.11621 5.11621C5.88179 5.35063 5.75 5.66848 5.75 6C5.75 6.33152 5.88179 6.64937 6.11621 6.88379C6.35063 7.11821 6.66848 7.25 7 7.25C7.33152 7.25 7.64937 7.11821 7.88379 6.88379C8.11821 6.64937 8.25 6.33152 8.25 6ZM9.75 6C9.75 6.72935 9.46006 7.42861 8.94434 7.94434C8.62506 8.26361 8.23513 8.49505 7.81152 8.62598C7.93499 9.25484 8.24237 9.83807 8.70215 10.2979C9.31164 10.9073 10.138 11.25 11 11.25H14.3564C14.4834 10.8027 14.721 10.3903 15.0557 10.0557C15.5714 9.53994 16.2707 9.25 17 9.25C17.7293 9.25 18.4286 9.53994 18.9443 10.0557C19.4601 10.5714 19.75 11.2707 19.75 12C19.75 12.7293 19.4601 13.4286 18.9443 13.9443C18.4286 14.4601 17.7293 14.75 17 14.75C16.2707 14.75 15.5714 14.4601 15.0557 13.9443C14.721 13.6097 14.4834 13.1973 14.3564 12.75H11C9.79027 12.75 8.62922 12.2874 7.75 11.4619V15.3564C8.19733 15.4834 8.6097 15.721 8.94434 16.0557C9.46006 16.5714 9.75 17.2707 9.75 18C9.75 18.7293 9.46006 19.4286 8.94434 19.9443C8.42861 20.4601 7.72935 20.75 7 20.75C6.27065 20.75 5.57139 20.4601 5.05566 19.9443C4.53994 19.4286 4.25 18.7293 4.25 18C4.25 17.2707 4.53994 16.5714 5.05566 16.0557C5.3903 15.721 5.80267 15.4834 6.25 15.3564V8.64258C5.80277 8.51563 5.39024 8.27891 5.05566 7.94434C4.53994 7.42861 4.25 6.72935 4.25 6C4.25 5.27065 4.53994 4.57139 5.05566 4.05566C5.57139 3.53994 6.27065 3.25 7 3.25C7.72935 3.25 8.42861 3.53994 8.94434 4.05566C9.46006 4.57139 9.75 5.27065 9.75 6Z" fill="currentColor"/>
</svg>
