<svg class="icon icon-tabler icons-tabler-outline icon-tabler-history" stroke-linejoin="round" stroke-linecap="round" width="24" height="24" viewBox="0 0 24 24" fill="none" xmlns="http://www.w3.org/2000/svg">
<path d="M2.29994 20.0001V15.0001C2.29998 14.586 2.63575 14.2501 3.04994 14.2501H8.04994C8.46413 14.2501 8.7999 14.586 8.79994 15.0001C8.79994 15.4144 8.46415 15.7501 8.04994 15.7501H4.70131C5.46454 17.2024 6.64765 18.4023 8.10853 19.1847C9.8954 20.1416 11.9724 20.4072 13.9425 19.9308C15.9127 19.4543 17.6389 18.2694 18.7912 16.6017C19.9434 14.934 20.441 12.9002 20.1896 10.8888C19.9381 8.87749 18.9551 7.0292 17.4279 5.69643C15.9006 4.36366 13.9362 3.64008 11.9093 3.66323C9.88252 3.6864 7.93499 4.45423 6.43861 5.82143C4.94218 7.18878 4.00145 9.0597 3.79603 11.0763C3.75401 11.4883 3.38581 11.7882 2.97377 11.7462C2.56178 11.7042 2.26188 11.336 2.30385 10.924C2.54665 8.54087 3.65854 6.33087 5.42689 4.71499C7.1954 3.09904 9.49726 2.19059 11.8927 2.16323C14.288 2.13598 16.6094 2.99151 18.4142 4.56655C20.2191 6.14168 21.3807 8.32621 21.6779 10.7033C21.9749 13.0802 21.3871 15.4834 20.0255 17.4542C18.6638 19.4252 16.6235 20.8257 14.2951 21.3888C11.9667 21.9518 9.51227 21.6378 7.40053 20.507C5.92553 19.717 4.69115 18.5663 3.79994 17.1779V20.0001C3.79994 20.4144 3.46415 20.7501 3.04994 20.7501C2.63573 20.7501 2.29994 20.4144 2.29994 20.0001ZM11.2501 8.00014C11.2502 7.58596 11.5859 7.25014 12.0001 7.25014C12.4142 7.25025 12.7501 7.58603 12.7501 8.00014V11.6896L14.5304 13.4699C14.8232 13.7627 14.8231 14.2375 14.5304 14.5304C14.2375 14.8233 13.7628 14.8232 13.4699 14.5304L11.4699 12.5304C11.3292 12.3898 11.2501 12.1991 11.2501 12.0001V8.00014Z" fill="currentColor"/>
</svg>
