<svg class="icon icon-tabler icons-tabler-outline icon-tabler-history-toggle" stroke-linejoin="round" stroke-linecap="round" width="24" height="24" viewBox="0 0 24 24" fill="none" xmlns="http://www.w3.org/2000/svg">
<path d="M6.87004 19.434C7.07653 19.0752 7.53455 18.9515 7.89348 19.1576C8.60226 19.5653 9.36855 19.8645 10.1659 20.0453C10.5698 20.1369 10.8229 20.5389 10.7314 20.9428C10.6397 21.3467 10.2379 21.5998 9.83391 21.5082C8.89072 21.2943 7.98482 20.9405 7.14641 20.4584C6.78734 20.2519 6.66354 19.7931 6.87004 19.434ZM20.248 12.0004C20.248 10.131 19.6136 8.31658 18.4482 6.8549C17.2827 5.39322 15.6554 4.37076 13.8329 3.95451C13.4291 3.86229 13.1763 3.45986 13.2685 3.05607C13.3607 2.65228 13.7631 2.39944 14.1669 2.49162C16.3206 2.9835 18.2437 4.19211 19.621 5.91935C20.9983 7.6467 21.748 9.79117 21.748 12.0004C21.7479 14.2095 20.9983 16.3532 19.621 18.0805C18.2437 19.8078 16.3207 21.0163 14.1669 21.5082C13.7631 21.6004 13.3607 21.3476 13.2685 20.9438C13.1765 20.5401 13.4293 20.1386 13.8329 20.0463C15.6555 19.6301 17.2827 18.6066 18.4482 17.1449C19.6135 15.6834 20.2479 13.8697 20.248 12.0004ZM3.14348 13.7807C3.54126 13.6657 3.95699 13.8947 4.07219 14.2924C4.31702 15.1393 4.69738 15.9412 5.19719 16.6674C5.43204 17.0086 5.34503 17.4765 5.00383 17.7113C4.66267 17.9458 4.19561 17.859 3.96086 17.518C3.36985 16.6592 2.92129 15.7108 2.63176 14.7094C2.51674 14.3115 2.74568 13.8958 3.14348 13.7807ZM11.2499 8.00041C11.2499 7.5862 11.5857 7.25042 11.9999 7.25041C12.4141 7.25041 12.7499 7.58619 12.7499 8.00041V11.6899L15.5302 14.4701C15.8229 14.763 15.823 15.2378 15.5302 15.5307C15.2373 15.8233 14.7625 15.8234 14.4697 15.5307L11.4697 12.5307C11.3291 12.3901 11.25 12.1992 11.2499 12.0004V8.00041ZM3.53703 7.15666C3.73778 6.79436 4.19426 6.66298 4.55657 6.86369C4.91885 7.06443 5.04924 7.52092 4.84856 7.88322L4.68742 8.17228C4.29153 8.92833 4.00988 9.75366 3.86321 10.6244C3.79441 11.0329 3.40741 11.3085 2.99895 11.2397C2.59072 11.1707 2.31592 10.7837 2.38469 10.3754C2.55803 9.34628 2.89124 8.37083 3.3593 7.47697C3.36203 7.47176 3.36524 7.46649 3.36809 7.46134L3.53703 7.15666ZM9.83391 2.49162C10.2378 2.39994 10.6396 2.65319 10.7314 3.05705C10.823 3.4609 10.5698 3.86273 10.1659 3.95451C9.15112 4.18515 8.18918 4.60659 7.33196 5.19669C6.99078 5.43147 6.52383 5.34546 6.28899 5.00431C6.05426 4.66321 6.14041 4.19624 6.48137 3.96134C7.4954 3.26329 8.63345 2.76442 9.83391 2.49162Z" fill="currentColor"/>
</svg>
