<svg class="icon icon-tabler icons-tabler-outline icon-tabler-hourglass-off" stroke-linejoin="round" stroke-linecap="round" width="24" height="24" viewBox="0 0 24 24" fill="none" xmlns="http://www.w3.org/2000/svg">
<path d="M5.24994 20V18C5.24994 16.2098 5.96064 14.4924 7.22651 13.2266C7.72531 12.7278 8.29533 12.317 8.91108 12C8.29533 11.683 7.72531 11.2722 7.22651 10.7734C6.03564 9.58257 5.33554 7.99211 5.25678 6.31738L2.46967 3.53027C2.17678 3.23738 2.17678 2.76262 2.46967 2.46973C2.76256 2.17683 3.23732 2.17683 3.53022 2.46973L21.5302 20.4697C21.8231 20.7626 21.8231 21.2374 21.5302 21.5303C21.2373 21.8232 20.7626 21.8232 20.4697 21.5303L18.7499 19.8105V20C18.7499 20.4641 18.5654 20.9091 18.2372 21.2373C17.9091 21.5655 17.4641 21.75 16.9999 21.75H6.99994C6.53582 21.75 6.09083 21.5655 5.76264 21.2373C5.43445 20.9091 5.24994 20.4641 5.24994 20ZM17.2499 6V4C17.2499 3.93369 17.2236 3.87013 17.1767 3.82324C17.1298 3.77636 17.0662 3.75 16.9999 3.75H6.99994C6.58573 3.75 6.24994 3.41421 6.24994 3C6.24994 2.58579 6.58573 2.25 6.99994 2.25H16.9999C17.4641 2.25 17.9091 2.43451 18.2372 2.7627C18.5654 3.09088 18.7499 3.53587 18.7499 4V6L18.7363 6.43262C18.6718 7.43852 18.3823 8.41931 17.8876 9.30176C17.3223 10.3102 16.5077 11.1566 15.5214 11.7598C15.1682 11.9758 14.7064 11.8648 14.4902 11.5117C14.2742 11.1585 14.3852 10.6967 14.7382 10.4805C15.5054 10.0114 16.1393 9.35267 16.579 8.56836C17.0188 7.78389 17.2501 6.8993 17.2499 6ZM7.32319 8.38379C7.57098 8.86996 7.89498 9.31886 8.28803 9.71191C8.68076 10.1046 9.12946 10.4281 9.61518 10.6758L7.32319 8.38379ZM6.74994 20C6.74994 20.0663 6.7763 20.1299 6.82319 20.1768C6.87007 20.2236 6.93364 20.25 6.99994 20.25H16.9999C17.0662 20.25 17.1298 20.2236 17.1767 20.1768C17.2236 20.1299 17.2499 20.0663 17.2499 20V18.3105L11.6982 12.7588C10.4158 12.8326 9.20123 13.3749 8.28803 14.2881C7.30346 15.2727 6.74994 16.6076 6.74994 18V20Z" fill="currentColor"/>
</svg>
