<svg class="icon icon-tabler icons-tabler-outline icon-tabler-hourglass" stroke-linejoin="round" stroke-linecap="round" width="24" height="24" viewBox="0 0 24 24" fill="none" xmlns="http://www.w3.org/2000/svg">
<path d="M17.2432 17.75H6.75684C6.75288 17.8331 6.75 17.9164 6.75 18V20C6.75 20.0663 6.77636 20.1299 6.82324 20.1768C6.87013 20.2236 6.93369 20.25 7 20.25H17C17.0663 20.25 17.1299 20.2236 17.1768 20.1768C17.2236 20.1299 17.25 20.0663 17.25 20V18C17.25 17.9164 17.2471 17.8331 17.2432 17.75ZM12 12.75C10.6076 12.75 9.27265 13.3035 8.28809 14.2881C7.72917 14.847 7.30937 15.5187 7.05078 16.25H16.9492C16.6906 15.5187 16.2708 14.847 15.7119 14.2881C14.7273 13.3035 13.3924 12.75 12 12.75ZM7.05078 7.75C7.30937 8.48127 7.72917 9.153 8.28809 9.71191C9.27265 10.6965 10.6076 11.25 12 11.25C13.3924 11.25 14.7273 10.6965 15.7119 9.71191C16.2708 9.153 16.6906 8.48127 16.9492 7.75H7.05078ZM17.25 4C17.25 3.93369 17.2236 3.87013 17.1768 3.82324C17.1299 3.77636 17.0663 3.75 17 3.75H7C6.9337 3.75 6.87013 3.77636 6.82324 3.82324C6.77636 3.87013 6.75 3.9337 6.75 4V6C6.75 6.08357 6.75288 6.1669 6.75684 6.25H17.2432C17.2471 6.1669 17.25 6.08357 17.25 6V4ZM18.75 6C18.75 7.79021 18.0393 9.50757 16.7734 10.7734C16.2746 11.2722 15.7046 11.683 15.0889 12C15.7046 12.317 16.2746 12.7278 16.7734 13.2266C18.0393 14.4924 18.75 16.2098 18.75 18V20C18.75 20.4641 18.5655 20.9091 18.2373 21.2373C17.9091 21.5655 17.4641 21.75 17 21.75H7C6.53587 21.75 6.09088 21.5655 5.7627 21.2373C5.43451 20.9091 5.25 20.4641 5.25 20V18C5.25 16.2098 5.96069 14.4924 7.22656 13.2266C7.72536 12.7278 8.29539 12.317 8.91113 12C8.29539 11.683 7.72536 11.2722 7.22656 10.7734C5.96069 9.50757 5.25 7.79021 5.25 6V4C5.25 3.53587 5.43451 3.09088 5.7627 2.7627C6.09088 2.43451 6.53587 2.25 7 2.25H17C17.4641 2.25 17.9091 2.43451 18.2373 2.7627C18.5655 3.09088 18.75 3.53587 18.75 4V6Z" fill="currentColor"/>
</svg>
