<svg class="icon icon-tabler icons-tabler-outline icon-tabler-language" stroke-linejoin="round" stroke-linecap="round" width="24" height="24" viewBox="0 0 24 24" fill="none" xmlns="http://www.w3.org/2000/svg">
<path d="M16 10.2498C16.2964 10.2498 16.5652 10.4243 16.6855 10.6951L20.6855 19.6951C20.8538 20.0736 20.6832 20.5171 20.3047 20.6854C19.9262 20.8536 19.4827 20.683 19.3145 20.3045L18.623 18.7498H13.377L12.6855 20.3045C12.5173 20.683 12.0738 20.8536 11.6953 20.6854C11.3168 20.5171 11.1462 20.0736 11.3145 19.6951L15.3145 10.6951C15.4348 10.4243 15.7036 10.2498 16 10.2498ZM14.043 17.2498H17.957L16 12.8465L14.043 17.2498ZM11 5.62091C11.4142 5.62091 11.75 5.9567 11.75 6.37091C11.7499 6.78508 11.4142 7.12091 11 7.12091H9.72754C9.61587 9.05738 9.0664 10.6154 8.1709 11.7449C8.94222 12.035 9.89491 12.2222 11.0186 12.2498C11.4326 12.2601 11.7602 12.6043 11.75 13.0184C11.7398 13.4324 11.3955 13.76 10.9814 13.7498C9.41999 13.7115 8.06144 13.3963 6.97656 12.8602C6.10191 13.4519 5.08072 13.7498 4 13.7498C3.58579 13.7498 3.25 13.414 3.25 12.9998C3.25 12.5856 3.58579 12.2498 4 12.2498C4.568 12.2498 5.10368 12.1392 5.5918 11.9207C4.74591 11.1345 4.25 10.1269 4.25 8.99982C4.25 8.58561 4.58579 8.24982 5 8.24982C5.41421 8.24982 5.75 8.58561 5.75 8.99982C5.75 9.72114 6.09353 10.4276 6.83105 11.0106C6.87301 10.9639 6.91469 10.9163 6.95508 10.867C7.62571 10.0481 8.11439 8.81692 8.22559 7.12091H4C3.58582 7.12091 3.25005 6.78508 3.25 6.37091C3.25 5.9567 3.58579 5.62091 4 5.62091H11ZM6.08984 2.55646C6.33492 2.22253 6.80377 2.15025 7.1377 2.39533L7.93066 2.97736C8.26447 3.22237 8.33659 3.69131 8.0918 4.02521C7.84672 4.35914 7.3769 4.43142 7.04297 4.18634L6.25 3.60431C5.91627 3.35919 5.84485 2.89031 6.08984 2.55646Z" fill="currentColor"/>
</svg>
