<svg class="icon icon-tabler icons-tabler-outline icon-tabler-layout-grid" stroke-linejoin="round" stroke-linecap="round" width="24" height="24" viewBox="0 0 24 24" fill="none" xmlns="http://www.w3.org/2000/svg">
<path d="M9.25 15C9.25 14.9337 9.22364 14.8701 9.17676 14.8232C9.12987 14.7764 9.0663 14.75 9 14.75H5C4.9337 14.75 4.87013 14.7764 4.82324 14.8232C4.77636 14.8701 4.75 14.9337 4.75 15V19C4.75 19.0663 4.77636 19.1299 4.82324 19.1768C4.87013 19.2236 4.93369 19.25 5 19.25H9C9.06631 19.25 9.12987 19.2236 9.17676 19.1768C9.22364 19.1299 9.25 19.0663 9.25 19V15ZM19.25 15C19.25 14.9337 19.2236 14.8701 19.1768 14.8232C19.1299 14.7764 19.0663 14.75 19 14.75H15C14.9337 14.75 14.8701 14.7764 14.8232 14.8232C14.7764 14.8701 14.75 14.9337 14.75 15V19C14.75 19.0663 14.7764 19.1299 14.8232 19.1768C14.8701 19.2236 14.9337 19.25 15 19.25H19C19.0663 19.25 19.1299 19.2236 19.1768 19.1768C19.2236 19.1299 19.25 19.0663 19.25 19V15ZM9.25 5C9.25 4.9337 9.22364 4.87013 9.17676 4.82324C9.12987 4.77636 9.0663 4.75 9 4.75H5C4.9337 4.75 4.87013 4.77636 4.82324 4.82324C4.77636 4.87013 4.75 4.9337 4.75 5V9C4.75 9.0663 4.77636 9.12987 4.82324 9.17676C4.87013 9.22364 4.9337 9.25 5 9.25H9C9.0663 9.25 9.12987 9.22364 9.17676 9.17676C9.22364 9.12987 9.25 9.0663 9.25 9V5ZM19.25 5C19.25 4.93369 19.2236 4.87013 19.1768 4.82324C19.1299 4.77636 19.0663 4.75 19 4.75H15C14.9337 4.75 14.8701 4.77636 14.8232 4.82324C14.7764 4.87013 14.75 4.9337 14.75 5V9C14.75 9.0663 14.7764 9.12987 14.8232 9.17676C14.8701 9.22364 14.9337 9.25 15 9.25H19C19.0663 9.25 19.1299 9.22364 19.1768 9.17676C19.2236 9.12987 19.25 9.06631 19.25 9V5ZM10.75 19C10.75 19.4641 10.5655 19.9091 10.2373 20.2373C9.90911 20.5655 9.46413 20.75 9 20.75H5C4.53587 20.75 4.09088 20.5655 3.7627 20.2373C3.43451 19.9091 3.25 19.4641 3.25 19V15C3.25 14.5359 3.43451 14.0909 3.7627 13.7627C4.09088 13.4345 4.53587 13.25 5 13.25H9C9.46413 13.25 9.90912 13.4345 10.2373 13.7627C10.5655 14.0909 10.75 14.5359 10.75 15V19ZM20.75 19C20.75 19.4641 20.5655 19.9091 20.2373 20.2373C19.9091 20.5655 19.4641 20.75 19 20.75H15C14.5359 20.75 14.0909 20.5655 13.7627 20.2373C13.4345 19.9091 13.25 19.4641 13.25 19V15C13.25 14.5359 13.4345 14.0909 13.7627 13.7627C14.0909 13.4345 14.5359 13.25 15 13.25H19C19.4641 13.25 19.9091 13.4345 20.2373 13.7627C20.5655 14.0909 20.75 14.5359 20.75 15V19ZM10.75 9C10.75 9.46413 10.5655 9.90912 10.2373 10.2373C9.90912 10.5655 9.46413 10.75 9 10.75H5C4.53587 10.75 4.09088 10.5655 3.7627 10.2373C3.43451 9.90912 3.25 9.46413 3.25 9V5C3.25 4.53587 3.43451 4.09088 3.7627 3.7627C4.09088 3.43451 4.53587 3.25 5 3.25H9C9.46413 3.25 9.90912 3.43451 10.2373 3.7627C10.5655 4.09088 10.75 4.53587 10.75 5V9ZM20.75 9C20.75 9.46413 20.5655 9.90911 20.2373 10.2373C19.9091 10.5655 19.4641 10.75 19 10.75H15C14.5359 10.75 14.0909 10.5655 13.7627 10.2373C13.4345 9.90912 13.25 9.46413 13.25 9V5C13.25 4.53587 13.4345 4.09088 13.7627 3.7627C14.0909 3.43451 14.5359 3.25 15 3.25H19C19.4641 3.25 19.9091 3.43451 20.2373 3.7627C20.5655 4.09088 20.75 4.53587 20.75 5V9Z" fill="currentColor"/>
</svg>
