<svg width="24" height="24" viewBox="0 0 24 24" fill="none" xmlns="http://www.w3.org/2000/svg">
<path d="M3.24988 14.9985C3.24988 14.2417 3.39968 13.4919 3.69128 12.7935C3.98289 12.0951 4.41094 11.4613 4.9491 10.9292L4.97937 10.9009L5.50378 10.438C5.81419 10.1638 6.28814 10.1931 6.56238 10.5034C6.83635 10.8138 6.80716 11.2878 6.49695 11.562L5.9989 12.0015C5.60415 12.3931 5.29032 12.8584 5.07605 13.3716C4.86089 13.8869 4.74988 14.4401 4.74988 14.9985C4.74991 15.5568 4.86101 16.1093 5.07605 16.6245C5.29121 17.1398 5.60668 17.6078 6.00378 18.0005C6.81211 18.7997 7.90317 19.2485 9.03992 19.2485C10.1596 19.2484 11.2335 18.8117 12.038 18.0347L12.3983 17.5522C12.6454 17.22 13.1148 17.151 13.4471 17.3979C13.7796 17.6451 13.8486 18.1153 13.6014 18.4478L13.205 18.981C13.1824 19.0113 13.1576 19.0403 13.1307 19.0669C12.0417 20.1438 10.5715 20.7484 9.03992 20.7485C7.50822 20.7485 6.03824 20.1439 4.9491 19.0669C4.41091 18.5347 3.98289 17.9011 3.69128 17.2026C3.39981 16.5044 3.24991 15.7552 3.24988 14.9985ZM14.4696 8.46924C14.7624 8.1765 15.2373 8.1766 15.5302 8.46924C15.823 8.7621 15.823 9.23689 15.5302 9.52979L9.53015 15.5298C9.23726 15.8227 8.7625 15.8227 8.4696 15.5298C8.17694 15.2369 8.17679 14.7621 8.4696 14.4692L14.4696 8.46924ZM19.2489 9.00049C19.249 7.87324 18.8008 6.79177 18.0038 5.99463C17.2068 5.19761 16.126 4.74961 14.9989 4.74951C13.8759 4.74943 12.7981 5.1934 12.0018 5.98486L11.5673 6.48975C11.2965 6.80315 10.8231 6.83847 10.5096 6.56787C10.1962 6.2971 10.1617 5.82274 10.4325 5.50928L10.8954 4.97314C10.9073 4.9594 10.9196 4.94595 10.9325 4.93311C12.011 3.85483 13.4739 3.24941 14.9989 3.24951C16.524 3.24962 17.987 3.85561 19.0653 4.93408C20.1435 6.01253 20.749 7.47552 20.7489 9.00049C20.7487 10.5254 20.1426 11.9877 19.0643 13.0659C19.052 13.0782 19.0394 13.0906 19.0262 13.1021L18.4921 13.5659C18.1794 13.8376 17.7052 13.8044 17.4335 13.4917C17.1621 13.1792 17.1955 12.7058 17.5077 12.4341L18.0204 11.9868C18.8064 11.1916 19.2487 10.1193 19.2489 9.00049Z" fill="currentColor"/>
</svg>
