<svg class="icon icon-tabler icons-tabler-outline icon-tabler-list-tree" stroke-linejoin="round" stroke-linecap="round" width="24" height="24" viewBox="0 0 24 24" fill="none" xmlns="http://www.w3.org/2000/svg">
<path d="M10.25 18.0098V18C10.25 17.5858 10.5858 17.25 11 17.25C11.4142 17.25 11.75 17.5858 11.75 18V18.0098C11.75 18.424 11.4142 18.7598 11 18.7598C10.5858 18.7598 10.25 18.424 10.25 18.0098ZM20 17.25C20.4142 17.25 20.75 17.5858 20.75 18C20.75 18.4142 20.4142 18.75 20 18.75H15C14.5858 18.75 14.25 18.4142 14.25 18C14.25 17.5858 14.5858 17.25 15 17.25H20ZM7.25 12.0098V12C7.25 11.5858 7.58579 11.25 8 11.25C8.41421 11.25 8.75 11.5858 8.75 12V12.0098C8.75 12.424 8.41421 12.7598 8 12.7598C7.58579 12.7598 7.25 12.424 7.25 12.0098ZM20 11.25C20.4142 11.25 20.75 11.5858 20.75 12C20.75 12.4142 20.4142 12.75 20 12.75H12C11.5858 12.75 11.25 12.4142 11.25 12C11.25 11.5858 11.5858 11.25 12 11.25H20ZM4.25 6.00977V6C4.25 5.58579 4.58579 5.25 5 5.25C5.41421 5.25 5.75 5.58579 5.75 6V6.00977C5.75 6.42398 5.41421 6.75977 5 6.75977C4.58579 6.75977 4.25 6.42398 4.25 6.00977ZM20 5.25C20.4142 5.25 20.75 5.58579 20.75 6C20.75 6.41421 20.4142 6.75 20 6.75H9C8.58579 6.75 8.25 6.41421 8.25 6C8.25 5.58579 8.58579 5.25 9 5.25H20Z" fill="currentColor"/>
</svg>
