<svg width="20" height="20" viewBox="0 0 20 20" fill="none" xmlns="http://www.w3.org/2000/svg">
<path fill-rule="evenodd" clip-rule="evenodd" d="M4.16659 4.16663C4.62682 4.16663 4.99992 4.53972 4.99992 4.99996V5.00829C4.99992 5.46853 4.62682 5.84163 4.16659 5.84163C3.70635 5.84163 3.33325 5.46853 3.33325 5.00829V4.99996C3.33325 4.53972 3.70635 4.16663 4.16659 4.16663ZM6.66659 4.99996C6.66659 4.53972 7.03968 4.16663 7.49992 4.16663H16.6666C17.1268 4.16663 17.4999 4.53972 17.4999 4.99996C17.4999 5.4602 17.1268 5.83329 16.6666 5.83329H7.49992C7.03968 5.83329 6.66659 5.4602 6.66659 4.99996ZM6.66659 9.16663C7.12682 9.16663 7.49992 9.53972 7.49992 9.99996V10.0083C7.49992 10.4685 7.12682 10.8416 6.66659 10.8416C6.20635 10.8416 5.83325 10.4685 5.83325 10.0083V9.99996C5.83325 9.53972 6.20635 9.16663 6.66659 9.16663ZM9.16658 9.99996C9.16658 9.53972 9.53968 9.16663 9.99992 9.16663H16.6666C17.1268 9.16663 17.4999 9.53972 17.4999 9.99996C17.4999 10.4602 17.1268 10.8333 16.6666 10.8333H9.99992C9.53968 10.8333 9.16658 10.4602 9.16658 9.99996ZM9.16658 14.1666C9.62682 14.1666 9.99992 14.5397 9.99992 15V15.0083C9.99992 15.4685 9.62682 15.8416 9.16658 15.8416C8.70635 15.8416 8.33325 15.4685 8.33325 15.0083V15C8.33325 14.5397 8.70635 14.1666 9.16658 14.1666ZM11.6666 15C11.6666 14.5397 12.0397 14.1666 12.4999 14.1666H16.6666C17.1268 14.1666 17.4999 14.5397 17.4999 15C17.4999 15.4602 17.1268 15.8333 16.6666 15.8333H12.4999C12.0397 15.8333 11.6666 15.4602 11.6666 15Z" fill="currentColor"/>
</svg>
