<svg class="icon icon-tabler icons-tabler-outline icon-tabler-lock-password" stroke-linejoin="round" stroke-linecap="round" width="24" height="24" viewBox="0 0 24 24" fill="none" xmlns="http://www.w3.org/2000/svg">
<path d="M18.25 13C18.25 12.6685 18.1182 12.3506 17.8838 12.1162C17.6494 11.8818 17.3315 11.75 17 11.75H7C6.66848 11.75 6.35063 11.8818 6.11621 12.1162C5.88179 12.3506 5.75 12.6685 5.75 13V19C5.75 19.3315 5.88179 19.6494 6.11621 19.8838C6.35063 20.1182 6.66848 20.25 7 20.25H17C17.3315 20.25 17.6494 20.1182 17.8838 19.8838C18.1182 19.6494 18.25 19.3315 18.25 19V13ZM9.03027 15.25C9.44436 15.2501 9.78027 15.5859 9.78027 16C9.78027 16.4141 9.44436 16.7499 9.03027 16.75H9.01953C8.60553 16.7497 8.26953 16.4141 8.26953 16C8.26953 15.5859 8.60553 15.2503 9.01953 15.25H9.03027ZM12.0195 15.25C12.4337 15.25 12.7695 15.5858 12.7695 16C12.7695 16.4142 12.4337 16.75 12.0195 16.75H12.0098C11.5957 16.7499 11.2598 16.4141 11.2598 16C11.2598 15.5859 11.5957 15.2501 12.0098 15.25H12.0195ZM15.0098 15.25C15.424 15.25 15.7598 15.5858 15.7598 16C15.7598 16.4142 15.424 16.75 15.0098 16.75H15C14.5858 16.75 14.25 16.4142 14.25 16C14.25 15.5858 14.5858 15.25 15 15.25H15.0098ZM15.25 7C15.25 6.13805 14.9073 5.31164 14.2979 4.70215C13.6884 4.09266 12.862 3.75 12 3.75C11.138 3.75 10.3116 4.09266 9.70215 4.70215C9.09266 5.31164 8.75 6.13805 8.75 7V10.25H15.25V7ZM16.75 10.25H17C17.7293 10.25 18.4286 10.5399 18.9443 11.0557C19.4601 11.5714 19.75 12.2707 19.75 13V19C19.75 19.7293 19.4601 20.4286 18.9443 20.9443C18.4286 21.4601 17.7293 21.75 17 21.75H7C6.27065 21.75 5.57139 21.4601 5.05566 20.9443C4.53994 20.4286 4.25 19.7293 4.25 19V13C4.25 12.2707 4.53994 11.5714 5.05566 11.0557C5.57139 10.5399 6.27065 10.25 7 10.25H7.25V7C7.25 5.74022 7.7508 4.5324 8.6416 3.6416C9.5324 2.7508 10.7402 2.25 12 2.25C13.2598 2.25 14.4676 2.7508 15.3584 3.6416C16.2492 4.5324 16.75 5.74022 16.75 7V10.25Z" fill="currentColor"/>
</svg>
