<svg class="icon icon-tabler icons-tabler-outline icon-tabler-lock" stroke-linejoin="round" stroke-linecap="round" width="24" height="24" viewBox="0 0 24 24" fill="none" xmlns="http://www.w3.org/2000/svg">
<path d="M18.25 13C18.25 12.6685 18.1182 12.3506 17.8838 12.1162C17.6494 11.8818 17.3315 11.75 17 11.75H7C6.66848 11.75 6.35063 11.8818 6.11621 12.1162C5.88179 12.3506 5.75 12.6685 5.75 13V19C5.75 19.3315 5.88179 19.6494 6.11621 19.8838C6.35063 20.1182 6.66848 20.25 7 20.25H17C17.3315 20.25 17.6494 20.1182 17.8838 19.8838C18.1182 19.6494 18.25 19.3315 18.25 19V13ZM12.25 16C12.25 15.9337 12.2236 15.8701 12.1768 15.8232C12.1299 15.7764 12.0663 15.75 12 15.75C11.9337 15.75 11.8701 15.7764 11.8232 15.8232C11.7764 15.8701 11.75 15.9337 11.75 16C11.75 16.0663 11.7764 16.1299 11.8232 16.1768C11.8701 16.2236 11.9337 16.25 12 16.25C12.0663 16.25 12.1299 16.2236 12.1768 16.1768C12.2236 16.1299 12.25 16.0663 12.25 16ZM13.75 16C13.75 16.4641 13.5655 16.9091 13.2373 17.2373C12.9091 17.5655 12.4641 17.75 12 17.75C11.5359 17.75 11.0909 17.5655 10.7627 17.2373C10.4345 16.9091 10.25 16.4641 10.25 16C10.25 15.5359 10.4345 15.0909 10.7627 14.7627C11.0909 14.4345 11.5359 14.25 12 14.25C12.4641 14.25 12.9091 14.4345 13.2373 14.7627C13.5655 15.0909 13.75 15.5359 13.75 16ZM15.25 7C15.25 6.13805 14.9073 5.31164 14.2979 4.70215C13.6884 4.09266 12.862 3.75 12 3.75C11.138 3.75 10.3116 4.09266 9.70215 4.70215C9.09266 5.31164 8.75 6.13805 8.75 7V10.25H15.25V7ZM16.75 10.25H17C17.7293 10.25 18.4286 10.5399 18.9443 11.0557C19.4601 11.5714 19.75 12.2707 19.75 13V19C19.75 19.7293 19.4601 20.4286 18.9443 20.9443C18.4286 21.4601 17.7293 21.75 17 21.75H7C6.27065 21.75 5.57139 21.4601 5.05566 20.9443C4.53994 20.4286 4.25 19.7293 4.25 19V13C4.25 12.2707 4.53994 11.5714 5.05566 11.0557C5.57139 10.5399 6.27065 10.25 7 10.25H7.25V7C7.25 5.74022 7.7508 4.5324 8.6416 3.6416C9.5324 2.7508 10.7402 2.25 12 2.25C13.2598 2.25 14.4676 2.7508 15.3584 3.6416C16.2492 4.5324 16.75 5.74022 16.75 7V10.25Z" fill="currentColor"/>
</svg>
