<svg class="icon icon-tabler icons-tabler-outline icon-tabler-lock-open-2" stroke-linejoin="round" stroke-linecap="round" width="24" height="24" viewBox="0 0 24 24" fill="none" xmlns="http://www.w3.org/2000/svg">
<path d="M16.25 13C16.25 12.6685 16.1182 12.3506 15.8838 12.1162C15.6494 11.8818 15.3315 11.75 15 11.75H5C4.66848 11.75 4.35063 11.8818 4.11621 12.1162C3.88179 12.3506 3.75 12.6685 3.75 13V19C3.75 19.3315 3.88179 19.6494 4.11621 19.8838C4.35063 20.1182 4.66848 20.25 5 20.25H15C15.3315 20.25 15.6494 20.1182 15.8838 19.8838C16.1182 19.6494 16.25 19.3315 16.25 19V13ZM10.25 16C10.25 15.9337 10.2236 15.8701 10.1768 15.8232C10.1299 15.7764 10.0663 15.75 10 15.75C9.9337 15.75 9.87013 15.7764 9.82324 15.8232C9.77636 15.8701 9.75 15.9337 9.75 16C9.75 16.0663 9.77636 16.1299 9.82324 16.1768C9.87013 16.2236 9.93369 16.25 10 16.25C10.0663 16.25 10.1299 16.2236 10.1768 16.1768C10.2236 16.1299 10.25 16.0663 10.25 16ZM20.25 11V7C20.25 6.13805 19.9073 5.31164 19.2979 4.70215C18.6884 4.09266 17.862 3.75 17 3.75C16.138 3.75 15.3116 4.09266 14.7021 4.70215C14.0927 5.31164 13.75 6.13805 13.75 7V10.25H15C15.7293 10.25 16.4286 10.5399 16.9443 11.0557C17.4601 11.5714 17.75 12.2707 17.75 13V19C17.75 19.7293 17.4601 20.4286 16.9443 20.9443C16.4286 21.4601 15.7293 21.75 15 21.75H5C4.27065 21.75 3.57139 21.4601 3.05566 20.9443C2.53994 20.4286 2.25 19.7293 2.25 19V13C2.25 12.2707 2.53994 11.5714 3.05566 11.0557C3.57139 10.5399 4.27065 10.25 5 10.25H12.25V7C12.25 5.74022 12.7508 4.5324 13.6416 3.6416C14.5324 2.7508 15.7402 2.25 17 2.25C18.2598 2.25 19.4676 2.7508 20.3584 3.6416C21.2492 4.5324 21.75 5.74022 21.75 7V11C21.75 11.4142 21.4142 11.75 21 11.75C20.5858 11.75 20.25 11.4142 20.25 11ZM11.75 16C11.75 16.4641 11.5655 16.9091 11.2373 17.2373C10.9091 17.5655 10.4641 17.75 10 17.75C9.53587 17.75 9.09089 17.5655 8.7627 17.2373C8.43451 16.9091 8.25 16.4641 8.25 16C8.25 15.5359 8.43451 15.0909 8.7627 14.7627C9.09088 14.4345 9.53587 14.25 10 14.25C10.4641 14.25 10.9091 14.4345 11.2373 14.7627C11.5655 15.0909 11.75 15.5359 11.75 16Z" fill="currentColor"/>
</svg>
