<svg class="icon icon-tabler icons-tabler-outline icon-tabler-logout" stroke-linejoin="round" stroke-linecap="round" width="24" height="24" viewBox="0 0 24 24" fill="none" xmlns="http://www.w3.org/2000/svg">
<path d="M17.4697 8.46973C17.7626 8.17683 18.2374 8.17683 18.5303 8.46973L21.5303 11.4697C21.8232 11.7626 21.8232 12.2374 21.5303 12.5303L18.5303 15.5303C18.2374 15.8232 17.7626 15.8232 17.4697 15.5303C17.1768 15.2374 17.1768 14.7626 17.4697 14.4697L19.1895 12.75H9C8.58579 12.75 8.25 12.4142 8.25 12C8.25 11.5858 8.58579 11.25 9 11.25H19.1895L17.4697 9.53027C17.1768 9.23738 17.1768 8.76262 17.4697 8.46973ZM13.25 8V6C13.25 5.66848 13.1182 5.35063 12.8838 5.11621C12.6494 4.88179 12.3315 4.75 12 4.75H5C4.66848 4.75 4.35063 4.88179 4.11621 5.11621C3.88179 5.35063 3.75 5.66848 3.75 6V18C3.75 18.3315 3.88179 18.6494 4.11621 18.8838C4.35063 19.1182 4.66848 19.25 5 19.25H12C12.3315 19.25 12.6494 19.1182 12.8838 18.8838C13.1182 18.6494 13.25 18.3315 13.25 18V16C13.25 15.5858 13.5858 15.25 14 15.25C14.4142 15.25 14.75 15.5858 14.75 16V18C14.75 18.7293 14.4601 19.4286 13.9443 19.9443C13.4286 20.4601 12.7293 20.75 12 20.75H5C4.27065 20.75 3.57139 20.4601 3.05566 19.9443C2.53994 19.4286 2.25 18.7293 2.25 18V6C2.25 5.27065 2.53994 4.57139 3.05566 4.05566C3.57139 3.53994 4.27065 3.25 5 3.25H12C12.7293 3.25 13.4286 3.53994 13.9443 4.05566C14.4601 4.57139 14.75 5.27065 14.75 6V8C14.75 8.41421 14.4142 8.75 14 8.75C13.5858 8.75 13.25 8.41421 13.25 8Z" fill="currentColor"/>
</svg>
