<svg class="icon icon-tabler icons-tabler-outline icon-tabler-mail" stroke-linejoin="round" stroke-linecap="round" width="24" height="24" viewBox="0 0 24 24" fill="none" xmlns="http://www.w3.org/2000/svg">
<path d="M20.25 8.40137L12.416 13.624C12.1641 13.792 11.8359 13.792 11.584 13.624L3.75 8.40137V17C3.75 17.3315 3.88179 17.6494 4.11621 17.8838C4.35063 18.1182 4.66848 18.25 5 18.25H19C19.3315 18.25 19.6494 18.1182 19.8838 17.8838C20.1182 17.6494 20.25 17.3315 20.25 17V8.40137ZM5 5.75C4.66848 5.75 4.35063 5.88179 4.11621 6.11621C3.97006 6.26236 3.86298 6.44064 3.80371 6.63477L12 12.0986L20.1953 6.63477C20.136 6.44075 20.0299 6.26229 19.8838 6.11621C19.6494 5.88179 19.3315 5.75 19 5.75H5ZM21.75 17C21.75 17.7293 21.4601 18.4286 20.9443 18.9443C20.4286 19.4601 19.7293 19.75 19 19.75H5C4.27065 19.75 3.57139 19.4601 3.05566 18.9443C2.53994 18.4286 2.25 17.7293 2.25 17V7C2.25 6.27065 2.53994 5.57139 3.05566 5.05566C3.57139 4.53994 4.27065 4.25 5 4.25H19C19.7293 4.25 20.4286 4.53994 20.9443 5.05566C21.4601 5.57139 21.75 6.27065 21.75 7V17Z" fill="currentColor"/>
</svg>
