<svg class="icon icon-tabler icons-tabler-outline icon-tabler-markdown" stroke-linejoin="round" stroke-linecap="round" width="24" height="24" viewBox="0 0 24 24" fill="none" xmlns="http://www.w3.org/2000/svg">
<path d="M20.25 7C20.25 6.66848 20.1182 6.35063 19.8838 6.11621C19.6494 5.88179 19.3315 5.75 19 5.75H5C4.66848 5.75 4.35063 5.88179 4.11621 6.11621C3.88179 6.35063 3.75 6.66848 3.75 7V17C3.75 17.3315 3.88179 17.6494 4.11621 17.8838C4.35063 18.1182 4.66848 18.25 5 18.25H19C19.3315 18.25 19.6494 18.1182 19.8838 17.8838C20.1182 17.6494 20.25 17.3315 20.25 17V7ZM10.25 15V10.8105L9.53027 11.5303C9.23738 11.8232 8.76262 11.8232 8.46973 11.5303L7.75 10.8105V15C7.75 15.4142 7.41421 15.75 7 15.75C6.58579 15.75 6.25 15.4142 6.25 15V9C6.25 8.69665 6.43263 8.42273 6.71289 8.30664C6.99313 8.1906 7.31579 8.25525 7.53027 8.46973L9 9.93945L10.4697 8.46973C10.6842 8.25525 11.0069 8.1906 11.2871 8.30664C11.5674 8.42273 11.75 8.69665 11.75 9V15C11.75 15.4142 11.4142 15.75 11 15.75C10.5858 15.75 10.25 15.4142 10.25 15ZM15.25 9C15.25 8.58579 15.5858 8.25 16 8.25C16.4142 8.25 16.75 8.58579 16.75 9V13.1895L17.4697 12.4697C17.7626 12.1768 18.2374 12.1768 18.5303 12.4697C18.8232 12.7626 18.8232 13.2374 18.5303 13.5303L16.5303 15.5303C16.2374 15.8232 15.7626 15.8232 15.4697 15.5303L13.4697 13.5303C13.1768 13.2374 13.1768 12.7626 13.4697 12.4697C13.7626 12.1768 14.2374 12.1768 14.5303 12.4697L15.25 13.1895V9ZM21.75 17C21.75 17.7293 21.4601 18.4286 20.9443 18.9443C20.4286 19.4601 19.7293 19.75 19 19.75H5C4.27065 19.75 3.57139 19.4601 3.05566 18.9443C2.53994 18.4286 2.25 17.7293 2.25 17V7C2.25 6.27065 2.53994 5.57139 3.05566 5.05566C3.57139 4.53994 4.27065 4.25 5 4.25H19C19.7293 4.25 20.4286 4.53994 20.9443 5.05566C21.4601 5.57139 21.75 6.27065 21.75 7V17Z" fill="currentColor"/>
</svg>
