<svg xmlns="http://www.w3.org/2000/svg" width="24" height="24" viewBox="0 0 16.6667 13.3333" fill="none">
  <path
    fill-rule="evenodd"
    clip-rule="evenodd"
    d="M2.5 1.66667C2.27899 1.66667 2.06702 1.75446 1.91074 1.91074C1.75446 2.06702 1.66667 2.27899 1.66667 2.5V10.8333C1.66667 11.0543 1.75446 11.2663 1.91074 11.4226C2.06702 11.5789 2.27899 11.6667 2.5 11.6667H14.1667C14.3877 11.6667 14.5996 11.5789 14.7559 11.4226C14.9122 11.2663 15 11.0543 15 10.8333V2.5C15 2.27899 14.9122 2.06702 14.7559 1.91074C14.5996 1.75446 14.3877 1.66667 14.1667 1.66667H2.5ZM0.732233 0.732233C1.20107 0.263392 1.83696 0 2.5 0H14.1667C14.8297 0 15.4656 0.263392 15.9344 0.732233C16.4033 1.20107 16.6667 1.83696 16.6667 2.5V10.8333C16.6667 11.4964 16.4033 12.1323 15.9344 12.6011C15.4656 13.0699 14.8297 13.3333 14.1667 13.3333H2.5C1.83696 13.3333 1.20107 13.0699 0.732233 12.6011C0.263392 12.1323 0 11.4964 0 10.8333V2.5C0 1.83696 0.263392 1.20107 0.732233 0.732233ZM3.84776 3.39677C4.15916 3.26778 4.51759 3.33908 4.75592 3.57741L5.83333 4.65482L6.91074 3.57741C7.14908 3.33908 7.50751 3.26778 7.8189 3.39677C8.1303 3.52575 8.33333 3.82961 8.33333 4.16667V9.16667C8.33333 9.6269 7.96024 10 7.5 10C7.03976 10 6.66667 9.6269 6.66667 9.16667V6.17851L6.42259 6.42259C6.09715 6.74803 5.56951 6.74803 5.24408 6.42259L5 6.17851V9.16667C5 9.6269 4.6269 10 4.16667 10C3.70643 10 3.33333 9.6269 3.33333 9.16667V4.16667C3.33333 3.82961 3.53637 3.52575 3.84776 3.39677ZM11.6667 3.33333C12.1269 3.33333 12.5 3.70643 12.5 4.16667V7.15482L12.7441 6.91074C13.0695 6.58531 13.5972 6.58531 13.9226 6.91074C14.248 7.23618 14.248 7.76382 13.9226 8.08926L12.2559 9.75592C11.9305 10.0814 11.4028 10.0814 11.0774 9.75592L9.41074 8.08926C9.08531 7.76382 9.08531 7.23618 9.41074 6.91074C9.73618 6.58531 10.2638 6.58531 10.5893 6.91074L10.8333 7.15482V4.16667C10.8333 3.70643 11.2064 3.33333 11.6667 3.33333Z"
    fill="currentColor"
  />
</svg>
