<svg width="16" height="16" viewBox="0 0 16 16" fill="none" xmlns="http://www.w3.org/2000/svg">
<path fill-rule="evenodd" clip-rule="evenodd" d="M6 4C6 3.63181 6.29848 3.33333 6.66667 3.33333H13.3333C13.7015 3.33333 14 3.63181 14 4C14 4.36819 13.7015 4.66667 13.3333 4.66667H6.66667C6.29848 4.66667 6 4.36819 6 4ZM2 8C2 7.63181 2.29848 7.33333 2.66667 7.33333H13.3333C13.7015 7.33333 14 7.63181 14 8C14 8.36819 13.7015 8.66667 13.3333 8.66667H2.66667C2.29848 8.66667 2 8.36819 2 8ZM2 12C2 11.6318 2.29848 11.3333 2.66667 11.3333H9.33333C9.70152 11.3333 10 11.6318 10 12C10 12.3682 9.70152 12.6667 9.33333 12.6667H2.66667C2.29848 12.6667 2 12.3682 2 12Z" fill="#171A1C"/>
</svg>
