<svg width="24" height="24" viewBox="0 0 24 24" fill="none" xmlns="http://www.w3.org/2000/svg">
<path fill-rule="evenodd" clip-rule="evenodd" d="M6.97872 6.54172C10.1369 4.30173 14.6947 4.49268 17.596 6.96693L6.97872 6.54172ZM17.596 6.96693C20.4502 9.4021 20.8093 13.2718 18.5023 16.0712C16.1504 18.925 11.7101 19.8354 8.13675 18.1006C7.93653 18.0034 7.7096 17.9758 7.49191 18.0221L4.50139 18.6584L5.2487 16.4164C5.34701 16.1215 5.30256 15.7976 5.12842 15.54C3.12975 12.5842 3.86507 8.75123 6.97872 6.54172M5.82147 4.91053C9.71524 2.14867 15.2853 2.36771 18.8939 5.44531C22.5496 8.56415 23.0707 13.6726 20.0457 17.3432C17.1379 20.8716 11.8714 21.9565 7.58154 20.0478L3.20813 20.9783C2.85732 21.0529 2.49341 20.934 2.25441 20.6666C2.0154 20.3991 1.93792 20.0242 2.05133 19.684L3.20102 16.2349C0.902056 12.3841 2.0244 7.60488 5.82147 4.91053Z" fill="currentColor"/>
</svg>
