<svg class="icon icon-tabler icons-tabler-outline icon-tabler-message-circle" stroke-linejoin="round" stroke-linecap="round" width="24" height="24" viewBox="0 0 24 24" fill="none" xmlns="http://www.w3.org/2000/svg">
<path d="M6.32716 4.87046C10.1061 2.43419 15.3212 2.72689 18.7315 5.6351C22.287 8.66848 22.7878 13.6223 19.8525 17.1839C17.005 20.6391 11.8197 21.6954 7.61231 19.7845L3.15626 20.7337C2.89315 20.7897 2.61969 20.6999 2.44044 20.4994C2.26156 20.2989 2.20322 20.018 2.28809 19.763L3.47462 16.2025C1.16992 12.4536 2.23681 7.76079 5.96583 5.1146L6.32716 4.87046ZM17.7578 6.77573C14.768 4.22656 10.0839 4.03307 6.83399 6.33823L6.83302 6.33725C3.61661 8.61989 2.8411 12.604 4.92091 15.68C5.05151 15.8732 5.08544 16.1161 5.01173 16.3373L4.12599 18.9935L7.54395 18.2669L7.667 18.2503C7.79083 18.2449 7.91468 18.2709 8.02735 18.3255C11.6971 20.1071 16.2649 19.1789 18.6953 16.2298C21.0919 13.3215 20.7122 9.29727 17.7578 6.77671V6.77573Z" fill="currentColor"/>
</svg>
