<svg width="24" height="24" viewBox="0 0 24 24" fill="none" xmlns="http://www.w3.org/2000/svg">
<path d="M12.0784 2.25H12.3928C12.7011 2.25 12.9782 2.43875 13.0911 2.72559C13.2038 3.01259 13.1295 3.3399 12.9036 3.5498C11.7475 4.62411 11.004 6.06941 10.803 7.63477C10.602 9.2002 10.9566 10.7866 11.804 12.1182C12.6513 13.4496 13.9385 14.4419 15.4417 14.9229C16.9448 15.4037 18.5687 15.3433 20.0315 14.751C20.3118 14.6375 20.6331 14.7032 20.846 14.918C21.0588 15.1328 21.1212 15.4551 21.0051 15.7344C20.3277 17.364 19.2206 18.7792 17.802 19.8291C16.3833 20.879 14.7061 21.5247 12.9495 21.6963C11.1929 21.8678 9.42236 21.5593 7.82741 20.8037C6.23246 20.048 4.87269 18.8732 3.89284 17.4053C2.91294 15.9373 2.35003 14.2307 2.26393 12.4678C2.17785 10.705 2.57156 8.95189 3.40358 7.39551C4.23579 5.83899 5.47567 4.53738 6.98952 3.62988C8.50334 2.72244 10.2353 2.24261 12.0003 2.24219C12.0266 2.2422 12.0524 2.24726 12.0784 2.25ZM10.6809 3.84961C9.65254 4.01649 8.66045 4.37625 7.76003 4.91602C6.47917 5.68389 5.43096 6.78556 4.72682 8.10254C4.02272 9.41953 3.68915 10.9029 3.76198 12.3945C3.83482 13.8862 4.31174 15.3301 5.14089 16.5723C5.97003 17.8144 7.12035 18.8088 8.46999 19.4482C9.8196 20.0876 11.3176 20.3483 12.804 20.2031C14.2904 20.058 15.7099 19.5125 16.9104 18.624C17.6572 18.0713 18.3009 17.398 18.8196 16.6367C17.5448 16.8436 16.2301 16.7504 14.9837 16.3516C13.1467 15.7637 11.5739 14.551 10.5383 12.9238C9.50279 11.2965 9.07017 9.35752 9.31569 7.44434C9.48227 6.14676 9.954 4.91657 10.6809 3.84961Z" fill="currentColor"/>
</svg>
