<svg class="icon icon-tabler icons-tabler-outline icon-tabler-news" stroke-linejoin="round" stroke-linecap="round" width="24" height="24" viewBox="0 0 24 24" fill="none" xmlns="http://www.w3.org/2000/svg">
<path d="M19.25 7C19.25 6.93369 19.2236 6.87013 19.1768 6.82324C19.1299 6.77636 19.0663 6.75 19 6.75H16.75V18C16.75 18.3315 16.8818 18.6494 17.1162 18.8838C17.3506 19.1182 17.6685 19.25 18 19.25C18.3315 19.25 18.6494 19.1182 18.8838 18.8838C19.1182 18.6494 19.25 18.3315 19.25 18V7ZM12 15.25C12.4142 15.25 12.75 15.5858 12.75 16C12.75 16.4142 12.4142 16.75 12 16.75H8C7.58579 16.75 7.25 16.4142 7.25 16C7.25 15.5858 7.58579 15.25 8 15.25H12ZM12 11.25C12.4142 11.25 12.75 11.5858 12.75 12C12.75 12.4142 12.4142 12.75 12 12.75H8C7.58579 12.75 7.25 12.4142 7.25 12C7.25 11.5858 7.58579 11.25 8 11.25H12ZM12 7.25C12.4142 7.25 12.75 7.58579 12.75 8C12.75 8.41421 12.4142 8.75 12 8.75H8C7.58579 8.75 7.25 8.41421 7.25 8C7.25 7.58579 7.58579 7.25 8 7.25H12ZM15.25 5C15.25 4.9337 15.2236 4.87013 15.1768 4.82324C15.1299 4.77636 15.0663 4.75 15 4.75H5C4.9337 4.75 4.87013 4.77636 4.82324 4.82324C4.77636 4.87013 4.75 4.9337 4.75 5V17C4.75 17.5967 4.98722 18.1689 5.40918 18.5908C5.83114 19.0128 6.40326 19.25 7 19.25H15.5527C15.3567 18.8662 15.25 18.439 15.25 18V5ZM16.75 5.25H19C19.4641 5.25 19.9091 5.43451 20.2373 5.7627C20.5655 6.09088 20.75 6.53587 20.75 7V18C20.75 18.7293 20.4601 19.4286 19.9443 19.9443C19.4286 20.4601 18.7293 20.75 18 20.75H7C6.00544 20.75 5.05189 20.3546 4.34863 19.6514C3.64537 18.9481 3.25 17.9946 3.25 17V5C3.25 4.53587 3.43451 4.09088 3.7627 3.7627C4.09088 3.43451 4.53587 3.25 5 3.25H15C15.4641 3.25 15.9091 3.43451 16.2373 3.7627C16.5655 4.09088 16.75 4.53587 16.75 5V5.25Z" fill="currentColor"/>
</svg>
