<svg class="icon icon-tabler icons-tabler-outline icon-tabler-package" stroke-linejoin="round" stroke-linecap="round" width="24" height="24" viewBox="0 0 24 24" fill="none" xmlns="http://www.w3.org/2000/svg">
<path d="M4.75 16.0604L11.25 19.7167V12.4384L4.75 8.78211V16.0604ZM12.75 12.4384V19.7167L19.25 16.0604V8.78211L12.75 12.4384ZM9.5293 9.74988L12 11.1386L18.4697 7.49988L16 6.11023L9.5293 9.74988ZM5.5293 7.49988L8 8.88855L14.4697 5.24988L12 3.86023L5.5293 7.49988ZM20.75 16.4999C20.75 16.7706 20.604 17.0203 20.3682 17.1532L12.3682 21.6532C12.1399 21.7816 11.8601 21.7816 11.6318 21.6532L3.63184 17.1532C3.39598 17.0203 3.25 16.7706 3.25 16.4999V7.49988C3.25 7.22912 3.39598 6.97947 3.63184 6.84656L11.6318 2.34656C11.8601 2.21814 12.1399 2.21814 12.3682 2.34656L20.3682 6.84656C20.604 6.97947 20.75 7.22912 20.75 7.49988V16.4999Z" fill="currentColor"/>
</svg>
