<svg width="24" height="24" viewBox="0 0 24 24" fill="none" xmlns="http://www.w3.org/2000/svg">
<path d="M3.27698 12.0002C3.27698 8.88355 4.3969 5.8702 6.43225 3.50996C6.70277 3.19666 7.1763 3.16156 7.48987 3.43183C7.80355 3.70234 7.8385 4.17674 7.56799 4.49042C5.76762 6.5783 4.77698 9.24327 4.77698 12.0002C4.77698 14.7571 5.76762 17.4221 7.56799 19.51C7.8385 19.8236 7.80355 20.298 7.48987 20.5686C7.1763 20.8388 6.70277 20.8037 6.43225 20.4904C4.3969 18.1302 3.27698 15.1168 3.27698 12.0002ZM19.2233 12.0002C19.2233 9.24333 18.2326 6.57828 16.4323 4.49042C16.1617 4.17674 16.1967 3.70234 16.5104 3.43183C16.824 3.16167 17.2975 3.19659 17.568 3.50996C19.6033 5.8702 20.7233 8.88355 20.7233 12.0002C20.7233 15.1168 19.6033 18.1302 17.568 20.4904C17.2975 20.8038 16.824 20.8387 16.5104 20.5686C16.1967 20.298 16.1617 19.8236 16.4323 19.51C18.2326 17.4221 19.2233 14.7571 19.2233 12.0002Z" fill="currentColor"/>
</svg>
