<svg class="icon icon-tabler icons-tabler-outline icon-tabler-password-mobile-phone" stroke-linejoin="round" stroke-linecap="round" width="24" height="24" viewBox="0 0 24 24" fill="none" xmlns="http://www.w3.org/2000/svg">
<path d="M4.24998 21V20.2129L3.33494 20.6709C2.96453 20.8558 2.51426 20.7053 2.32908 20.335C2.14414 19.9646 2.29467 19.5143 2.66502 19.3291L3.32322 19L2.66502 18.6709C2.29466 18.4857 2.14414 18.0354 2.32908 17.665C2.51426 17.2947 2.96453 17.1442 3.33494 17.3291L4.24998 17.7861V17C4.24998 16.5858 4.58577 16.25 4.99998 16.25C5.41419 16.25 5.74998 16.5858 5.74998 17V17.7861L6.66502 17.3291C7.03543 17.1442 7.4857 17.2947 7.67088 17.665C7.85582 18.0354 7.70529 18.4857 7.33494 18.6709L6.67674 19L7.33494 19.3291C7.70529 19.5143 7.85582 19.9646 7.67088 20.335C7.4857 20.7053 7.03543 20.8558 6.66502 20.6709L5.74998 20.2129V21C5.74998 21.4142 5.41419 21.75 4.99998 21.75C4.58577 21.75 4.24998 21.4142 4.24998 21ZM11.25 21V20.2129L10.3349 20.6709C9.96453 20.8558 9.51426 20.7053 9.32908 20.335C9.14414 19.9646 9.29467 19.5143 9.66502 19.3291L10.3232 19L9.66502 18.6709C9.29466 18.4857 9.14414 18.0354 9.32908 17.665C9.51426 17.2947 9.96453 17.1442 10.3349 17.3291L11.25 17.7861V17C11.25 16.5858 11.5858 16.25 12 16.25C12.4142 16.25 12.75 16.5858 12.75 17V17.7861L13.665 17.3291C14.0354 17.1442 14.4857 17.2947 14.6709 17.665C14.8558 18.0354 14.7053 18.4857 14.3349 18.6709L13.6767 19L14.3349 19.3291C14.7053 19.5143 14.8558 19.9646 14.6709 20.335C14.4857 20.7053 14.0354 20.8558 13.665 20.6709L12.75 20.2129V21C12.75 21.4142 12.4142 21.75 12 21.75C11.5858 21.75 11.25 21.4142 11.25 21ZM18.25 21V20.2129L17.3349 20.6709C16.9645 20.8558 16.5143 20.7053 16.3291 20.335C16.1441 19.9646 16.2947 19.5143 16.665 19.3291L17.3232 19L16.665 18.6709C16.2947 18.4857 16.1441 18.0354 16.3291 17.665C16.5143 17.2947 16.9645 17.1442 17.3349 17.3291L18.25 17.7861V17C18.25 16.5858 18.5858 16.25 19 16.25C19.4142 16.25 19.75 16.5858 19.75 17V17.7861L20.665 17.3291C21.0354 17.1442 21.4857 17.2947 21.6709 17.665C21.8558 18.0354 21.7053 18.4857 21.3349 18.6709L20.6767 19L21.3349 19.3291C21.7053 19.5143 21.8558 19.9646 21.6709 20.335C21.4857 20.7053 21.0354 20.8558 20.665 20.6709L19.75 20.2129V21C19.75 21.4142 19.4142 21.75 19 21.75C18.5858 21.75 18.25 21.4142 18.25 21ZM16.25 14V6C16.25 5.66848 16.1182 5.35063 15.8838 5.11621C15.6493 4.88179 15.3315 4.75 15 4.75H13.7041C13.7319 4.82848 13.75 4.91196 13.75 5C13.75 5.41421 13.4142 5.75 13 5.75H11C10.5858 5.75 10.25 5.41421 10.25 5C10.25 4.91196 10.268 4.82848 10.2959 4.75H8.99998C8.66846 4.75 8.35061 4.88179 8.11619 5.11621C7.88177 5.35063 7.74998 5.66848 7.74998 6V14C7.74998 14.4142 7.41419 14.75 6.99998 14.75C6.58577 14.75 6.24998 14.4142 6.24998 14V6C6.24998 5.27065 6.53992 4.57139 7.05564 4.05566C7.57137 3.53994 8.27063 3.25 8.99998 3.25H15C15.7293 3.25 16.4286 3.53994 16.9443 4.05566C17.46 4.57139 17.75 5.27065 17.75 6V14C17.75 14.4142 17.4142 14.75 17 14.75C16.5858 14.75 16.25 14.4142 16.25 14Z" fill="currentColor"/>
</svg>
