<svg class="icon icon-tabler icons-tabler-outline icon-tabler-pencil" stroke-linejoin="round" stroke-linecap="round" width="24" height="24" viewBox="0 0 24 24" fill="none" xmlns="http://www.w3.org/2000/svg">
<path d="M18.5781 7.49976C18.5781 7.22692 18.5243 6.9569 18.4199 6.70483C18.3155 6.45267 18.1627 6.22303 17.9697 6.03003C17.7768 5.8371 17.547 5.68426 17.2949 5.57983C17.0429 5.47549 16.7728 5.42163 16.5 5.42163C16.2272 5.42163 15.9571 5.47549 15.7051 5.57983C15.453 5.68426 15.2232 5.8371 15.0303 6.03003L14.5605 6.49976L17.5 9.43921L17.9697 8.96948C18.1626 8.77659 18.3155 8.54764 18.4199 8.29565C18.5244 8.04349 18.5781 7.7727 18.5781 7.49976ZM4.75 16.3103V19.2498H7.68945L16.4395 10.4998L13.5 7.5603L4.75 16.3103ZM20.0781 7.49976C20.0781 7.96968 19.9855 8.43572 19.8057 8.86987C19.6259 9.30377 19.3624 9.6979 19.0303 10.03L8.53027 20.53C8.38962 20.6707 8.19891 20.7498 8 20.7498H4C3.58579 20.7498 3.25 20.414 3.25 19.9998V15.9998C3.25008 15.801 3.32915 15.6101 3.46973 15.4695L13.9697 4.96948C14.302 4.63727 14.6968 4.3739 15.1309 4.19409C15.565 4.01431 16.0301 3.92163 16.5 3.92163C16.9699 3.92163 17.435 4.01431 17.8691 4.19409C18.3032 4.3739 18.698 4.63727 19.0303 4.96948C19.3625 5.30173 19.6258 5.69652 19.8057 6.13062C19.9855 6.56468 20.0781 7.02994 20.0781 7.49976Z" fill="currentColor"/>
</svg>
