<svg class="icon icon-tabler icons-tabler-outline icon-tabler-photo" stroke-linejoin="round" stroke-linecap="round" width="24" height="24" viewBox="0 0 24 24" fill="none" xmlns="http://www.w3.org/2000/svg">
<path d="M20.25 16.3105L17.4795 13.54C17.1283 13.2022 16.7893 13.0801 16.5 13.0801C16.2107 13.0801 15.8717 13.2022 15.5205 13.54L15.0605 14L16.5303 15.4697C16.8232 15.7626 16.8232 16.2374 16.5303 16.5303C16.2374 16.8232 15.7626 16.8232 15.4697 16.5303L10.4795 11.54C10.1283 11.2022 9.78932 11.0801 9.5 11.0801C9.21068 11.0801 8.87174 11.2022 8.52051 11.54L3.75 16.3105V18C3.75 18.5967 3.98722 19.1689 4.40918 19.5908C4.83114 20.0128 5.40326 20.25 6 20.25H18C18.5967 20.25 19.1689 20.0128 19.5908 19.5908C20.0128 19.1689 20.25 18.5967 20.25 18V16.3105ZM15.0098 7.25C15.424 7.25 15.7598 7.58579 15.7598 8C15.7598 8.41421 15.424 8.75 15.0098 8.75H15C14.5858 8.75 14.25 8.41421 14.25 8C14.25 7.58579 14.5858 7.25 15 7.25H15.0098ZM20.25 6C20.25 5.40326 20.0128 4.83114 19.5908 4.40918C19.1689 3.98722 18.5967 3.75 18 3.75H6C5.40326 3.75 4.83114 3.98722 4.40918 4.40918C3.98722 4.83114 3.75 5.40326 3.75 6V14.1895L7.47949 10.46C8.0561 9.9051 8.75344 9.58008 9.5 9.58008C10.1532 9.58008 10.768 9.82896 11.2979 10.2627L11.5205 10.46L14 12.9395L14.4795 12.46C15.0561 11.9051 15.7534 11.5801 16.5 11.5801C17.1532 11.5801 17.768 11.829 18.2979 12.2627L18.5205 12.46L20.25 14.1895V6ZM21.75 18C21.75 18.9946 21.3546 19.9481 20.6514 20.6514C19.9481 21.3546 18.9946 21.75 18 21.75H6C5.00544 21.75 4.05189 21.3546 3.34863 20.6514C2.64537 19.9481 2.25 18.9946 2.25 18V6C2.25 5.00544 2.64537 4.05189 3.34863 3.34863C4.05189 2.64537 5.00544 2.25 6 2.25H18C18.9946 2.25 19.9481 2.64537 20.6514 3.34863C21.3546 4.05189 21.75 5.00544 21.75 6V18Z" fill="currentColor"/>
</svg>
