<svg width="24" height="24" viewBox="0 0 24 24" fill="none" xmlns="http://www.w3.org/2000/svg">
<path d="M9.25 6C9.25 5.9337 9.22364 5.87013 9.17676 5.82324C9.12987 5.77636 9.0663 5.75 9 5.75H7C6.9337 5.75 6.87013 5.77636 6.82324 5.82324C6.77636 5.87013 6.75 5.9337 6.75 6V18C6.75 18.0663 6.77636 18.1299 6.82324 18.1768C6.87013 18.2236 6.93369 18.25 7 18.25H9C9.06631 18.25 9.12987 18.2236 9.17676 18.1768C9.22364 18.1299 9.25 18.0663 9.25 18V6ZM17.25 6C17.25 5.93369 17.2236 5.87013 17.1768 5.82324C17.1299 5.77636 17.0663 5.75 17 5.75H15C14.9337 5.75 14.8701 5.77636 14.8232 5.82324C14.7764 5.87013 14.75 5.9337 14.75 6V18C14.75 18.0663 14.7764 18.1299 14.8232 18.1768C14.8701 18.2236 14.9337 18.25 15 18.25H17C17.0663 18.25 17.1299 18.2236 17.1768 18.1768C17.2236 18.1299 17.25 18.0663 17.25 18V6ZM10.75 18C10.75 18.4641 10.5655 18.9091 10.2373 19.2373C9.90912 19.5655 9.46413 19.75 9 19.75H7C6.53587 19.75 6.09088 19.5655 5.7627 19.2373C5.43451 18.9091 5.25 18.4641 5.25 18V6C5.25 5.53587 5.43451 5.09088 5.7627 4.7627C6.09088 4.43451 6.53587 4.25 7 4.25H9C9.46413 4.25 9.90912 4.43451 10.2373 4.7627C10.5655 5.09088 10.75 5.53587 10.75 6V18ZM18.75 18C18.75 18.4641 18.5655 18.9091 18.2373 19.2373C17.9091 19.5655 17.4641 19.75 17 19.75H15C14.5359 19.75 14.0909 19.5655 13.7627 19.2373C13.4345 18.9091 13.25 18.4641 13.25 18V6C13.25 5.53587 13.4345 5.09088 13.7627 4.7627C14.0909 4.43451 14.5359 4.25 15 4.25H17C17.4641 4.25 17.9091 4.43451 18.2373 4.7627C18.5655 5.09088 18.75 5.53587 18.75 6V18Z" fill="currentColor"/>
</svg>
