<svg class="icon icon-tabler icons-tabler-outline icon-tabler-player-track-next" stroke-linejoin="round" stroke-linecap="round" width="24" height="24" viewBox="0 0 24 24" fill="none" xmlns="http://www.w3.org/2000/svg">
<path d="M2.69043 4.3176C2.95838 4.19608 3.27271 4.24201 3.49414 4.43576L11.4941 11.4358C11.6568 11.5782 11.75 11.784 11.75 12.0002C11.75 12.2164 11.6568 12.4223 11.4941 12.5647L3.49414 19.5647C3.27271 19.7584 2.95838 19.8043 2.69043 19.6828C2.42245 19.5612 2.25 19.2945 2.25 19.0002V5.00021C2.25 4.70593 2.42245 4.4392 2.69043 4.3176ZM13.6904 4.3176C13.9584 4.19608 14.2727 4.24201 14.4941 4.43576L22.4941 11.4358C22.6568 11.5782 22.75 11.784 22.75 12.0002C22.75 12.2164 22.6568 12.4223 22.4941 12.5647L14.4941 19.5647C14.2727 19.7584 13.9584 19.8043 13.6904 19.6828C13.4224 19.5612 13.25 19.2945 13.25 19.0002V5.00021C13.25 4.70593 13.4224 4.4392 13.6904 4.3176ZM3.75 17.3469L9.86035 12.0002L3.75 6.65256V17.3469ZM14.75 17.3469L20.8604 12.0002L14.75 6.65256V17.3469Z" fill="currentColor"/>
</svg>
