<svg class="icon icon-tabler icons-tabler-outline icon-tabler-player-track-prev" stroke-linejoin="round" stroke-linecap="round" width="24" height="24" viewBox="0 0 24 24" fill="none" xmlns="http://www.w3.org/2000/svg">
<path d="M9.50586 4.43576C9.72729 4.24201 10.0416 4.19608 10.3096 4.3176C10.5776 4.4392 10.75 4.70593 10.75 5.00021V19.0002C10.75 19.2945 10.5776 19.5612 10.3096 19.6828C10.0416 19.8043 9.72729 19.7584 9.50586 19.5647L1.50586 12.5647C1.34318 12.4223 1.25 12.2164 1.25 12.0002C1.25 11.784 1.34318 11.5782 1.50586 11.4358L9.50586 4.43576ZM20.5059 4.43576C20.7273 4.24201 21.0416 4.19608 21.3096 4.3176C21.5776 4.4392 21.75 4.70593 21.75 5.00021V19.0002C21.75 19.2945 21.5776 19.5612 21.3096 19.6828C21.0416 19.8043 20.7273 19.7584 20.5059 19.5647L12.5059 12.5647C12.3432 12.4223 12.25 12.2164 12.25 12.0002C12.25 11.784 12.3432 11.5782 12.5059 11.4358L20.5059 4.43576ZM3.13867 12.0002L9.25 17.3469V6.65256L3.13867 12.0002ZM14.1387 12.0002L20.25 17.3469V6.65256L14.1387 12.0002Z" fill="currentColor"/>
</svg>
