<svg class="icon icon-tabler icons-tabler-outline icon-tabler-plus" stroke-linejoin="round" stroke-linecap="round" width="24" height="24" viewBox="0 0 24 24" fill="none" xmlns="http://www.w3.org/2000/svg">
<path d="M12 4.75C12.4142 4.75 12.75 5.08579 12.75 5.5V11.25H18.5C18.9142 11.25 19.25 11.5858 19.25 12C19.25 12.4142 18.9142 12.75 18.5 12.75H12.75V18.5C12.75 18.9142 12.4142 19.25 12 19.25C11.5858 19.25 11.25 18.9142 11.25 18.5V12.75H5.5C5.08579 12.75 4.75 12.4142 4.75 12C4.75 11.5858 5.08579 11.25 5.5 11.25H11.25V5.5C11.25 5.08579 11.5858 4.75 12 4.75Z" fill="currentColor"/>
</svg>
