<svg class="icon icon-tabler icons-tabler-outline icon-tabler-progress-x" stroke-linejoin="round" stroke-linecap="round" width="24" height="24" viewBox="0 0 24 24" fill="none" xmlns="http://www.w3.org/2000/svg">
<path d="M6.8701 19.434C7.07659 19.0752 7.53461 18.9515 7.89354 19.1576C8.60233 19.5653 9.36861 19.8645 10.166 20.0453C10.5699 20.1369 10.8229 20.5389 10.7314 20.9428C10.6398 21.3467 10.2379 21.5998 9.83397 21.5082C8.89078 21.2943 7.98488 20.9405 7.14647 20.4584C6.7874 20.2519 6.6636 19.7931 6.8701 19.434ZM20.248 12.0004C20.248 10.131 19.6137 8.31658 18.4482 6.8549C17.2827 5.39322 15.6555 4.37076 13.833 3.95451C13.4292 3.86229 13.1764 3.45986 13.2685 3.05607C13.3608 2.65228 13.7632 2.39944 14.167 2.49162C16.3207 2.9835 18.2438 4.19211 19.6211 5.91935C20.9984 7.6467 21.748 9.79117 21.748 12.0004C21.748 14.2095 20.9983 16.3532 19.6211 18.0805C18.2438 19.8078 16.3207 21.0163 14.167 21.5082C13.7632 21.6004 13.3608 21.3476 13.2685 20.9438C13.1765 20.5401 13.4294 20.1386 13.833 20.0463C15.6555 19.6301 17.2827 18.6066 18.4482 17.1449C19.6135 15.6834 20.248 13.8697 20.248 12.0004ZM3.14354 13.7807C3.54132 13.6657 3.95705 13.8947 4.07225 14.2924C4.31708 15.1393 4.69744 15.9412 5.19725 16.6674C5.4321 17.0086 5.34509 17.4765 5.00389 17.7113C4.66273 17.9458 4.19567 17.859 3.96092 17.518C3.36991 16.6592 2.92135 15.7108 2.63182 14.7094C2.5168 14.3115 2.74574 13.8958 3.14354 13.7807ZM13.4697 9.47013C13.7626 9.17724 14.2374 9.17724 14.5303 9.47013C14.823 9.76304 14.8231 10.2378 14.5303 10.5307L13.0605 12.0004L14.5303 13.4701C14.823 13.763 14.8231 14.2378 14.5303 14.5307C14.2374 14.8233 13.7626 14.8234 13.4697 14.5307L12 13.061L10.5303 14.5307C10.2374 14.8233 9.76256 14.8234 9.46971 14.5307C9.17688 14.2378 9.177 13.763 9.46971 13.4701L10.9394 12.0004L9.46971 10.5307C9.17688 10.2378 9.177 9.76304 9.46971 9.47013C9.76261 9.17724 10.2374 9.17724 10.5303 9.47013L12 10.9399L13.4697 9.47013ZM3.5371 7.15666C3.73784 6.79436 4.19432 6.66298 4.55663 6.86369C4.91891 7.06443 5.0493 7.52092 4.84862 7.88322L4.68749 8.17228C4.29159 8.92833 4.00994 9.75366 3.86327 10.6244C3.79447 11.0329 3.40747 11.3085 2.99901 11.2397C2.59078 11.1707 2.31598 10.7837 2.38475 10.3754C2.55809 9.34628 2.8913 8.37083 3.35936 7.47697C3.36209 7.47176 3.3653 7.46649 3.36815 7.46134L3.5371 7.15666ZM9.83397 2.49162C10.2378 2.39994 10.6397 2.65319 10.7314 3.05705C10.8231 3.4609 10.5699 3.86273 10.166 3.95451C9.15118 4.18515 8.18924 4.60659 7.33202 5.19669C6.99084 5.43147 6.52389 5.34546 6.28905 5.00431C6.05432 4.66321 6.14047 4.19624 6.48143 3.96134C7.49546 3.26329 8.63351 2.76442 9.83397 2.49162Z" fill="currentColor"/>
</svg>
