<svg class="icon icon-tabler icons-tabler-outline icon-tabler-reload" stroke-linejoin="round" stroke-linecap="round" width="24" height="24" viewBox="0 0 24 24" fill="none" xmlns="http://www.w3.org/2000/svg">
<path d="M9.8212 3.52667C13.4606 2.59326 17.2162 4.05963 19.2499 7.06378V4.00031C19.2499 3.58611 19.5857 3.25034 19.9999 3.25031C20.4141 3.25031 20.7499 3.58609 20.7499 4.00031V9.00031C20.7497 9.41437 20.414 9.75031 19.9999 9.75031H14.9999C14.5858 9.75027 14.2501 9.41435 14.2499 9.00031C14.2499 8.58611 14.5857 8.25034 14.9999 8.25031H18.2275C16.6085 5.53749 13.3569 4.16772 10.1943 4.97882C8.91977 5.30673 7.75828 5.97575 6.83488 6.91339C5.9115 7.85104 5.26139 9.02272 4.95304 10.3021C4.64474 11.5814 4.69003 12.9208 5.08488 14.1761C5.47984 15.4315 6.20895 16.5565 7.19425 17.429C8.17963 18.3015 9.38457 18.8891 10.6786 19.1292C11.9726 19.3692 13.3073 19.2522 14.54 18.7913C15.7727 18.3303 16.8567 17.5423 17.6757 16.512C18.4946 15.4818 19.0182 14.2485 19.1894 12.9437C19.2432 12.5331 19.6196 12.2435 20.0302 12.2972C20.4409 12.351 20.7305 12.7283 20.6767 13.139C20.4701 14.7136 19.8388 16.2024 18.8505 17.4456C17.862 18.689 16.5532 19.6402 15.0653 20.1966C13.5777 20.7528 11.9668 20.8935 10.4052 20.6038C8.8434 20.3141 7.38936 19.6051 6.20011 18.5521C5.01087 17.4991 4.13091 16.1415 3.65421 14.6263C3.17763 13.1112 3.12196 11.4946 3.49406 9.9505C3.86621 8.40637 4.65201 6.99234 5.76652 5.86066C6.88106 4.729 8.28293 3.92235 9.8212 3.52667Z" fill="currentColor"/>
</svg>
