<svg class="icon icon-tabler icons-tabler-outline icon-tabler-rss" stroke-linejoin="round" stroke-linecap="round" width="24" height="24" viewBox="0 0 24 24" fill="none" xmlns="http://www.w3.org/2000/svg">
<path d="M5.25 19C5.25 18.9337 5.22364 18.8701 5.17676 18.8232C5.12987 18.7764 5.06631 18.75 5 18.75C4.93369 18.75 4.87013 18.7764 4.82324 18.8232C4.77636 18.8701 4.75 18.9337 4.75 19C4.75 19.0663 4.77636 19.1299 4.82324 19.1768C4.87013 19.2236 4.93369 19.25 5 19.25C5.06631 19.25 5.12987 19.2236 5.17676 19.1768C5.22364 19.1299 5.25 19.0663 5.25 19ZM12.25 20C12.25 17.812 11.3812 15.7132 9.83398 14.166C8.28681 12.6188 6.18804 11.75 4 11.75C3.58579 11.75 3.25 11.4142 3.25 11C3.25 10.5858 3.58579 10.25 4 10.25C6.58586 10.25 9.06605 11.277 10.8945 13.1055C12.723 14.9339 13.75 17.4141 13.75 20C13.75 20.4142 13.4142 20.75 13 20.75C12.5858 20.75 12.25 20.4142 12.25 20ZM19.25 20C19.25 15.9554 17.6431 12.0767 14.7832 9.2168C11.9233 6.35687 8.04455 4.75 4 4.75C3.58579 4.75 3.25 4.41421 3.25 4C3.25 3.58579 3.58579 3.25 4 3.25C8.44238 3.25 12.7025 5.01502 15.8438 8.15625C18.985 11.2975 20.75 15.5576 20.75 20C20.75 20.4142 20.4142 20.75 20 20.75C19.5858 20.75 19.25 20.4142 19.25 20ZM6.75 19C6.75 19.4641 6.56549 19.9091 6.2373 20.2373C5.90912 20.5655 5.46413 20.75 5 20.75C4.53587 20.75 4.09088 20.5655 3.7627 20.2373C3.43451 19.9091 3.25 19.4641 3.25 19C3.25 18.5359 3.43451 18.0909 3.7627 17.7627C4.09088 17.4345 4.53587 17.25 5 17.25C5.46413 17.25 5.90912 17.4345 6.2373 17.7627C6.56549 18.0909 6.75 18.5359 6.75 19Z" fill="currentColor"/>
</svg>
