<svg width="16" height="16" viewBox="0 0 16 16" fill="none" xmlns="http://www.w3.org/2000/svg">
<path d="M0.5 13.8333C0.5 13.3913 0.675721 12.9675 0.988281 12.6549C1.30084 12.3424 1.72464 12.1667 2.16667 12.1667C2.60869 12.1667 3.03249 12.3424 3.34505 12.6549C3.65761 12.9675 3.83333 13.3913 3.83333 13.8333C3.83333 14.2754 3.65761 14.6992 3.34505 15.0117C3.03249 15.3243 2.60869 15.5 2.16667 15.5C1.72464 15.5 1.30084 15.3243 0.988281 15.0117C0.675721 14.6992 0.5 14.2754 0.5 13.8333ZM8 14.6667C8 12.8986 7.29793 11.2026 6.04769 9.95231C4.79745 8.70207 3.10144 8 1.33333 8C0.873096 8 0.5 7.6269 0.5 7.16667C0.5 6.70643 0.873096 6.33333 1.33333 6.33333C3.54347 6.33333 5.66327 7.21112 7.22607 8.77393C8.78888 10.3367 9.66667 12.4565 9.66667 14.6667C9.66667 15.1269 9.29357 15.5 8.83333 15.5C8.3731 15.5 8 15.1269 8 14.6667ZM13.8333 14.6667C13.8333 11.3515 12.5162 8.17217 10.172 5.82796C7.82783 3.48376 4.64854 2.16667 1.33333 2.16667C0.873096 2.16667 0.5 1.79357 0.5 1.33333C0.5 0.873096 0.873096 0.5 1.33333 0.5C5.09057 0.5 8.69366 1.99281 11.3504 4.64958C14.0072 7.30634 15.5 10.9094 15.5 14.6667C15.5 15.1269 15.1269 15.5 14.6667 15.5C14.2064 15.5 13.8333 15.1269 13.8333 14.6667Z" fill="currentColor"/>
</svg>
