<svg class="icon icon-tabler icons-tabler-outline icon-tabler-s-turn-down" stroke-linejoin="round" stroke-linecap="round" width="24" height="24" viewBox="0 0 24 24" fill="none" xmlns="http://www.w3.org/2000/svg">
<path d="M6.25 5C6.25 4.66848 6.11821 4.35063 5.88379 4.11621C5.64937 3.88179 5.33152 3.75 5 3.75C4.66848 3.75 4.35063 3.88179 4.11621 4.11621C3.88179 4.35063 3.75 4.66848 3.75 5C3.75 5.33152 3.88179 5.64937 4.11621 5.88379C4.35063 6.11821 4.66848 6.25 5 6.25C5.33152 6.25 5.64937 6.11821 5.88379 5.88379C6.11821 5.64937 6.25 5.33152 6.25 5ZM7.75 5C7.75 5.72935 7.46006 6.42861 6.94434 6.94434C6.60976 7.27891 6.19723 7.51563 5.75 7.64258V16.5C5.75 17.2293 6.03994 17.9286 6.55566 18.4443C7.07139 18.9601 7.77065 19.25 8.5 19.25C9.22935 19.25 9.92861 18.9601 10.4443 18.4443C10.9601 17.9286 11.25 17.2293 11.25 16.5V7.5C11.25 6.37283 11.6981 5.29215 12.4951 4.49512C13.2921 3.69809 14.3728 3.25 15.5 3.25C16.6272 3.25 17.7079 3.69809 18.5049 4.49512C19.3019 5.29215 19.75 6.37283 19.75 7.5V19.1895L21.4697 17.4697C21.7626 17.1768 22.2374 17.1768 22.5303 17.4697C22.8232 17.7626 22.8232 18.2374 22.5303 18.5303L19.5303 21.5303C19.2374 21.8232 18.7626 21.8232 18.4697 21.5303L15.4697 18.5303C15.1768 18.2374 15.1768 17.7626 15.4697 17.4697C15.7626 17.1768 16.2374 17.1768 16.5303 17.4697L18.25 19.1895V7.5C18.25 6.77065 17.9601 6.07139 17.4443 5.55566C16.9286 5.03994 16.2293 4.75 15.5 4.75C14.7707 4.75 14.0714 5.03994 13.5557 5.55566C13.0399 6.07139 12.75 6.77065 12.75 7.5V16.5C12.75 17.6272 12.3019 18.7079 11.5049 19.5049C10.7079 20.3019 9.62717 20.75 8.5 20.75C7.37283 20.75 6.29215 20.3019 5.49512 19.5049C4.69809 18.7079 4.25 17.6272 4.25 16.5V7.64258C3.80277 7.51563 3.39024 7.27891 3.05566 6.94434C2.53994 6.42861 2.25 5.72935 2.25 5C2.25 4.27065 2.53994 3.57139 3.05566 3.05566C3.57139 2.53994 4.27065 2.25 5 2.25C5.72935 2.25 6.42861 2.53994 6.94434 3.05566C7.46006 3.57139 7.75 4.27065 7.75 5Z" fill="currentColor"/>
</svg>
