<svg class="icon icon-tabler icons-tabler-outline icon-tabler-schema" stroke-linejoin="round" stroke-linecap="round" width="24" height="24" viewBox="0 0 24 24" fill="none" xmlns="http://www.w3.org/2000/svg">
<path d="M10 1.25C10.4142 1.25 10.75 1.58579 10.75 2V6C10.75 6.41421 10.4142 6.75 10 6.75H8.25V9.25H10C10.4142 9.25 10.75 9.58579 10.75 10V11.25H14.25V10C14.25 9.58579 14.5858 9.25 15 9.25H20C20.4142 9.25 20.75 9.58579 20.75 10V14C20.75 14.4142 20.4142 14.75 20 14.75H15C14.5858 14.75 14.25 14.4142 14.25 14V12.75H10.75V14C10.75 14.4142 10.4142 14.75 10 14.75H8.25V17.25H10C10.4142 17.25 10.75 17.5858 10.75 18V22C10.75 22.4142 10.4142 22.75 10 22.75H5C4.58579 22.75 4.25 22.4142 4.25 22V18C4.25 17.5858 4.58579 17.25 5 17.25H6.75V14.75H5C4.58579 14.75 4.25 14.4142 4.25 14V10C4.25 9.58579 4.58579 9.25 5 9.25H6.75V6.75H5C4.58579 6.75 4.25 6.41421 4.25 6V2C4.25 1.58579 4.58579 1.25 5 1.25H10ZM5.75 21.25H9.25V18.75H5.75V21.25ZM15.75 13.25H19.25V10.75H15.75V13.25ZM5.75 13.25H9.25V10.75H5.75V13.25ZM5.75 5.25H9.25V2.75H5.75V5.25Z" fill="currentColor"/>
</svg>
