<svg class="icon icon-tabler icons-tabler-outline icon-tabler-screen-share" stroke-linejoin="round" stroke-linecap="round" width="24" height="24" viewBox="0 0 24 24" fill="none" xmlns="http://www.w3.org/2000/svg">
<path d="M2.25 15V5C2.25 4.53587 2.43451 4.09088 2.7627 3.7627C3.09088 3.43451 3.53587 3.25 4 3.25H13C13.4142 3.25 13.75 3.58579 13.75 4C13.75 4.41421 13.4142 4.75 13 4.75H4C3.9337 4.75 3.87013 4.77636 3.82324 4.82324C3.77636 4.87013 3.75 4.9337 3.75 5V15C3.75 15.0663 3.77636 15.1299 3.82324 15.1768C3.87013 15.2236 3.9337 15.25 4 15.25H20C20.0663 15.25 20.1299 15.2236 20.1768 15.1768C20.2236 15.1299 20.25 15.0663 20.25 15V12C20.25 11.5858 20.5858 11.25 21 11.25C21.4142 11.25 21.75 11.5858 21.75 12V15C21.75 15.4641 21.5655 15.9091 21.2373 16.2373C20.9091 16.5655 20.4641 16.75 20 16.75H15.75V19.25H17C17.4142 19.25 17.75 19.5858 17.75 20C17.75 20.4142 17.4142 20.75 17 20.75H7C6.58579 20.75 6.25 20.4142 6.25 20C6.25 19.5858 6.58579 19.25 7 19.25H8.25V16.75H4C3.53587 16.75 3.09088 16.5655 2.7627 16.2373C2.43451 15.9091 2.25 15.4641 2.25 15ZM9.75 19.25H14.25V16.75H9.75V19.25ZM21.75 8C21.75 8.41421 21.4142 8.75 21 8.75C20.5858 8.75 20.25 8.41421 20.25 8V5.81055L16.5303 9.53027C16.2374 9.82317 15.7626 9.82317 15.4697 9.53027C15.1768 9.23738 15.1768 8.76262 15.4697 8.46973L19.1895 4.75H17C16.5858 4.75 16.25 4.41421 16.25 4C16.25 3.58579 16.5858 3.25 17 3.25H21C21.4142 3.25 21.75 3.58579 21.75 4V8Z" fill="currentColor"/>
</svg>
