<svg class="icon icon-tabler icons-tabler-outline icon-tabler-search" stroke-linejoin="round" stroke-linecap="round" width="24" height="24" viewBox="0 0 24 24" fill="none" xmlns="http://www.w3.org/2000/svg">
<path d="M16.25 10C16.25 9.17931 16.0885 8.36662 15.7744 7.6084C15.4603 6.85011 14.9993 6.16142 14.4189 5.58105C13.8386 5.00069 13.1499 4.53968 12.3916 4.22559C11.6334 3.91155 10.8207 3.75 10 3.75C9.17931 3.75 8.36662 3.91155 7.6084 4.22559C6.85011 4.53968 6.16142 5.00069 5.58105 5.58105C5.00069 6.16142 4.53968 6.85011 4.22559 7.6084C3.91155 8.36662 3.75 9.17931 3.75 10C3.75 10.8207 3.91155 11.6334 4.22559 12.3916C4.53968 13.1499 5.00069 13.8386 5.58105 14.4189C6.16142 14.9993 6.85011 15.4603 7.6084 15.7744C8.36662 16.0885 9.17931 16.25 10 16.25C10.8207 16.25 11.6334 16.0885 12.3916 15.7744C13.1499 15.4603 13.8386 14.9993 14.4189 14.4189C14.9993 13.8386 15.4603 13.1499 15.7744 12.3916C16.0885 11.6334 16.25 10.8207 16.25 10ZM17.75 10C17.75 11.0177 17.5496 12.0255 17.1602 12.9658C16.8667 13.6743 16.4699 14.3338 15.9844 14.9238L21.5303 20.4697C21.8232 20.7626 21.8232 21.2374 21.5303 21.5303C21.2374 21.8232 20.7626 21.8232 20.4697 21.5303L14.9238 15.9844C14.3338 16.4699 13.6743 16.8667 12.9658 17.1602C12.0255 17.5496 11.0177 17.75 10 17.75C8.98226 17.75 7.97445 17.5496 7.03418 17.1602C6.09391 16.7707 5.23918 16.2001 4.51953 15.4805C3.79988 14.7608 3.22932 13.9061 2.83984 12.9658C2.45037 12.0255 2.25 11.0177 2.25 10C2.25 8.98226 2.45037 7.97445 2.83984 7.03418C3.22932 6.09391 3.79988 5.23919 4.51953 4.51953C5.23919 3.79988 6.09391 3.22932 7.03418 2.83984C7.97445 2.45037 8.98226 2.25 10 2.25C11.0177 2.25 12.0255 2.45037 12.9658 2.83984C13.9061 3.22932 14.7608 3.79988 15.4805 4.51953C16.2001 5.23918 16.7707 6.09391 17.1602 7.03418C17.5496 7.97445 17.75 8.98226 17.75 10Z" fill="currentColor"/>
</svg>
