<svg class="icon icon-tabler icons-tabler-outline icon-tabler-selector-2" stroke-linejoin="round" stroke-linecap="round" width="24" height="24" viewBox="0 0 24 24" fill="none" xmlns="http://www.w3.org/2000/svg">
<path d="M11.5264 14.418C11.821 14.1777 12.2557 14.1951 12.5303 14.4697L16.5303 18.4697C16.8232 18.7626 16.8232 19.2374 16.5303 19.5303C16.2374 19.8232 15.7626 19.8232 15.4697 19.5303L12 16.0606L8.53028 19.5303C8.23738 19.8232 7.76262 19.8232 7.46973 19.5303C7.17684 19.2374 7.17684 18.7626 7.46973 18.4697L11.4697 14.4697L11.5264 14.418ZM15.4697 4.46973C15.7626 4.17684 16.2374 4.17684 16.5303 4.46973C16.8232 4.76262 16.8232 5.23738 16.5303 5.53028L12.5303 9.53028C12.2374 9.82317 11.7626 9.82317 11.4697 9.53028L7.46973 5.53028C7.17684 5.23738 7.17684 4.76262 7.46973 4.46973C7.76262 4.17684 8.23738 4.17684 8.53028 4.46973L12 7.93946L15.4697 4.46973Z" fill="currentColor"/>
</svg>
