<svg class="icon icon-tabler icons-tabler-outline icon-tabler-selector" stroke-linejoin="round" stroke-linecap="round" width="24" height="24" viewBox="0 0 24 24" fill="none" xmlns="http://www.w3.org/2000/svg">
<path d="M15.4697 14.4697C15.7626 14.1768 16.2374 14.1768 16.5303 14.4697C16.8232 14.7626 16.8232 15.2374 16.5303 15.5303L12.5303 19.5303C12.2374 19.8232 11.7626 19.8232 11.4697 19.5303L7.46973 15.5303C7.17684 15.2374 7.17684 14.7626 7.46973 14.4697C7.76262 14.1768 8.23738 14.1768 8.53028 14.4697L12 17.9394L15.4697 14.4697ZM11.5264 4.41796C11.821 4.17765 12.2557 4.19512 12.5303 4.46972L16.5303 8.46972C16.8232 8.76261 16.8232 9.23737 16.5303 9.53027C16.2374 9.82316 15.7626 9.82316 15.4697 9.53027L12 6.06054L8.53028 9.53027C8.23738 9.82316 7.76262 9.82316 7.46973 9.53027C7.17684 9.23737 7.17684 8.76261 7.46973 8.46972L11.4697 4.46972L11.5264 4.41796Z" fill="currentColor"/>
</svg>
