<svg class="icon icon-tabler icons-tabler-outline icon-tabler-server" stroke-linejoin="round" stroke-linecap="round" width="24" height="24" viewBox="0 0 24 24" fill="none" xmlns="http://www.w3.org/2000/svg">
<path d="M20.25 15C20.25 14.4033 20.0128 13.8311 19.5908 13.4092C19.1689 12.9872 18.5967 12.75 18 12.75H6C5.40326 12.75 4.83114 12.9872 4.40918 13.4092C3.98722 13.8311 3.75 14.4033 3.75 15V17C3.75 17.5967 3.98722 18.1689 4.40918 18.5908C4.83114 19.0128 5.40326 19.25 6 19.25H18C18.5967 19.25 19.1689 19.0128 19.5908 18.5908C20.0128 18.1689 20.25 17.5967 20.25 17V15ZM6.25 16.0098V16C6.25 15.5858 6.58579 15.25 7 15.25C7.41421 15.25 7.75 15.5858 7.75 16V16.0098C7.75 16.424 7.41421 16.7598 7 16.7598C6.58579 16.7598 6.25 16.424 6.25 16.0098ZM6.25 8.00977V8C6.25 7.58579 6.58579 7.25 7 7.25C7.41421 7.25 7.75 7.58579 7.75 8V8.00977C7.75 8.42398 7.41421 8.75977 7 8.75977C6.58579 8.75977 6.25 8.42398 6.25 8.00977ZM21.75 17C21.75 17.9946 21.3546 18.9481 20.6514 19.6514C19.9481 20.3546 18.9946 20.75 18 20.75H6C5.00544 20.75 4.05189 20.3546 3.34863 19.6514C2.64537 18.9481 2.25 17.9946 2.25 17V15C2.25 14.0054 2.64537 13.0519 3.34863 12.3486C3.47503 12.2222 3.60961 12.106 3.75098 12C3.60961 11.894 3.47503 11.7778 3.34863 11.6514C2.64537 10.9481 2.25 9.99456 2.25 9C2.25 8.58579 2.58579 8.25 3 8.25C3.41421 8.25 3.75 8.58579 3.75 9C3.75 9.59674 3.98722 10.1689 4.40918 10.5908C4.83114 11.0128 5.40326 11.25 6 11.25H18C18.5967 11.25 19.1689 11.0128 19.5908 10.5908C20.0128 10.1689 20.25 9.59674 20.25 9V7C20.25 6.40326 20.0128 5.83114 19.5908 5.40918C19.1689 4.98722 18.5967 4.75 18 4.75H6C5.40326 4.75 4.83114 4.98722 4.40918 5.40918C3.98722 5.83114 3.75 6.40326 3.75 7C3.75 7.41421 3.41421 7.75 3 7.75C2.58579 7.75 2.25 7.41421 2.25 7C2.25 6.00544 2.64537 5.05189 3.34863 4.34863C4.05189 3.64537 5.00544 3.25 6 3.25H18C18.9946 3.25 19.9481 3.64537 20.6514 4.34863C21.3546 5.05189 21.75 6.00544 21.75 7V9C21.75 9.99456 21.3546 10.9481 20.6514 11.6514C20.5248 11.778 20.3896 11.8939 20.248 12C20.3896 12.1061 20.5248 12.222 20.6514 12.3486C21.3546 13.0519 21.75 14.0054 21.75 15V17Z" fill="currentColor"/>
</svg>
