<svg class="icon icon-tabler icons-tabler-outline icon-tabler-settings" stroke-linejoin="round" stroke-linecap="round" width="24" height="24" viewBox="0 0 24 24" fill="none" xmlns="http://www.w3.org/2000/svg">
<path d="M9.66215 3.91111C10.4042 1.6963 13.5959 1.6963 14.3379 3.91111L14.4043 4.14061L14.4375 4.24998C14.4773 4.3571 14.5357 4.45663 14.6104 4.54393C14.71 4.66036 14.836 4.75183 14.9776 4.81053C15.1193 4.86922 15.2729 4.89367 15.4258 4.88182C15.5787 4.86996 15.7265 4.822 15.8575 4.74217C18.0718 3.39322 20.607 5.92728 19.2588 8.14256V8.14353C19.1793 8.27425 19.1311 8.42163 19.1192 8.5742C19.1074 8.72698 19.1318 8.88085 19.1905 9.02244C19.2491 9.16403 19.3407 9.28993 19.4571 9.38963C19.5729 9.48879 19.7104 9.55937 19.8584 9.59568H19.8594C22.3797 10.2071 22.3797 13.7929 19.8594 14.4043C19.7106 14.4404 19.5725 14.5108 19.4561 14.6103C19.3397 14.71 19.2482 14.836 19.1895 14.9775C19.1308 15.1192 19.1064 15.2729 19.1182 15.4258C19.1301 15.5786 19.178 15.7265 19.2579 15.8574C20.6068 18.0717 18.0727 20.607 15.8575 19.2588H15.8565C15.7258 19.1792 15.5784 19.131 15.4258 19.1191C15.273 19.1073 15.1192 19.1318 14.9776 19.1904C14.836 19.249 14.7101 19.3406 14.6104 19.457C14.511 19.5731 14.4406 19.7109 14.4043 19.8594C13.7929 22.3796 10.2072 22.3796 9.59575 19.8594C9.55965 19.7106 9.48919 19.5724 9.38969 19.456C9.29004 19.3396 9.16407 19.2481 9.02251 19.1894C8.88084 19.1307 8.72715 19.1063 8.57426 19.1181C8.42137 19.13 8.27356 19.178 8.14262 19.2578C5.92834 20.6067 3.39306 18.0727 4.74126 15.8574V15.8564C4.82083 15.7257 4.86903 15.5783 4.8809 15.4258C4.89273 15.273 4.86824 15.1191 4.80961 14.9775C4.75099 14.8359 4.65939 14.71 4.54301 14.6103C4.42688 14.5109 4.28919 14.4395 4.14067 14.4033V14.4043C1.62043 13.7929 1.62043 10.2071 4.14067 9.59568L4.25004 9.56248C4.35717 9.52271 4.45669 9.46428 4.54399 9.38963C4.66043 9.28998 4.75189 9.16401 4.81059 9.02244C4.86929 8.88077 4.89373 8.72709 4.88188 8.5742C4.87003 8.42131 4.82206 8.27349 4.74223 8.14256C3.39328 5.92827 5.92735 3.393 8.14262 4.74119L8.25102 4.79783C8.79838 5.04561 9.44904 4.74152 9.59575 4.14061L9.66215 3.91111ZM12.92 4.4033C12.6277 3.53227 11.3724 3.53227 11.0801 4.4033L11.0538 4.49412C10.6702 6.07155 8.91185 6.84516 7.49907 6.09959L7.36333 6.02244C6.49082 5.49125 5.49303 6.48981 6.02348 7.36131L6.09575 7.48826C6.25518 7.78821 6.35161 8.11829 6.37797 8.45799C6.40808 8.84634 6.34542 9.23681 6.19633 9.59666C6.04724 9.95637 5.81541 10.2761 5.51958 10.5293C5.22382 10.7823 4.87247 10.9619 4.49419 11.0537C3.53359 11.2867 3.50313 12.6179 4.40336 12.9199L4.49419 12.9463L4.63481 12.9844C4.95949 13.0839 5.2609 13.25 5.51958 13.4717C5.81493 13.7248 6.04649 14.0439 6.19536 14.4033C6.34426 14.7629 6.40605 15.1529 6.37602 15.541C6.34599 15.929 6.22489 16.3043 6.02251 16.6367C5.49132 17.5092 6.48988 18.507 7.36137 17.9765L7.48833 17.9043C7.78827 17.7448 8.11835 17.6484 8.45805 17.6221C8.8464 17.5919 9.23687 17.6546 9.59672 17.8037C9.95644 17.9528 10.2762 18.1846 10.5293 18.4804C10.7824 18.7762 10.962 19.1276 11.0538 19.5058C11.2944 20.4976 12.7057 20.4976 12.9463 19.5058L12.9844 19.3652C13.0839 19.0405 13.2501 18.7391 13.4717 18.4804C13.7248 18.1851 14.044 17.9535 14.4034 17.8047C14.763 17.6558 15.153 17.594 15.5411 17.624C15.929 17.654 16.3044 17.7751 16.6368 17.9775C17.482 18.4921 18.4446 17.5711 18.0215 16.7207L17.9766 16.6387C17.7739 16.3061 17.6523 15.9303 17.6221 15.542C17.592 15.1536 17.6547 14.7632 17.8038 14.4033C17.9529 14.0436 18.1847 13.7239 18.4805 13.4707C18.7763 13.2176 19.1276 13.038 19.5059 12.9463L19.5967 12.9199C20.4678 12.6277 20.4678 11.3723 19.5967 11.0801L19.5059 11.0537C19.1277 10.9617 18.7761 10.7815 18.4805 10.5283C18.1852 10.2752 17.9536 9.95602 17.8047 9.59666C17.6558 9.23705 17.594 8.84703 17.6241 8.45896C17.6541 8.07099 17.7752 7.69562 17.9776 7.36326C18.4922 6.51798 17.5712 5.55541 16.7207 5.9785L16.6387 6.02342C16.3062 6.22616 15.9303 6.34777 15.542 6.37791C15.1537 6.40802 14.7632 6.34536 14.4034 6.19627C14.0437 6.04718 13.7239 5.81535 13.4707 5.51951C13.2177 5.22376 13.0381 4.8724 12.9463 4.49412L12.92 4.4033ZM14.25 12C14.25 11.4032 14.0128 10.8311 13.5909 10.4092C13.1689 9.9872 12.5968 9.74998 12 9.74998C11.4033 9.74998 10.8312 9.9872 10.4092 10.4092C9.98727 10.8311 9.75004 11.4032 9.75004 12C9.75004 12.5967 9.98727 13.1688 10.4092 13.5908C10.8312 14.0128 11.4033 14.25 12 14.25C12.5968 14.25 13.1689 14.0128 13.5909 13.5908C14.0128 13.1688 14.25 12.5967 14.25 12ZM15.75 12C15.75 12.9945 15.3547 13.9481 14.6514 14.6513C13.9482 15.3546 12.9946 15.75 12 15.75C11.0055 15.75 10.0519 15.3546 9.34868 14.6513C8.64542 13.9481 8.25004 12.9945 8.25004 12C8.25004 11.0054 8.64542 10.0519 9.34868 9.34861C10.0519 8.64535 11.0055 8.24998 12 8.24998C12.9946 8.24998 13.9482 8.64535 14.6514 9.34861C15.3547 10.0519 15.75 11.0054 15.75 12Z" fill="currentColor"/>
</svg>
