<svg class="icon icon-tabler icons-tabler-outline icon-tabler-smart-home" stroke-linejoin="round" stroke-linecap="round" width="24" height="24" viewBox="0 0 24 24" fill="none" xmlns="http://www.w3.org/2000/svg">
<path d="M19.28 10.8147C19.2799 10.2973 19.0708 9.80545 18.7058 9.44751L18.5398 9.302L13.2068 5.15356C12.8704 4.89191 12.4562 4.75024 12.03 4.75024C11.6039 4.75024 11.1896 4.89191 10.8533 5.15356V5.15454L5.51929 9.302C5.28898 9.48112 5.1025 9.71077 4.97437 9.9729C4.84629 10.235 4.77989 10.523 4.78003 10.8147V18.0149C4.78003 18.3464 4.91186 18.6643 5.14624 18.8987C5.38066 19.1331 5.69851 19.2649 6.03003 19.2649H18.03C18.3616 19.2649 18.6794 19.1331 18.9138 18.8987C19.1482 18.6643 19.28 18.3464 19.28 18.0149V10.8147ZM15.613 14.3577C15.9677 14.144 16.4285 14.258 16.6423 14.6125C16.8562 14.9672 16.742 15.4279 16.3875 15.6418C15.1393 16.3947 13.5494 16.7502 11.9998 16.7502C10.45 16.7502 8.85948 16.3949 7.61206 15.6418C7.25775 15.4277 7.14417 14.967 7.35815 14.6125C7.57218 14.258 8.03288 14.1438 8.38745 14.3577C9.34804 14.9376 10.654 15.2502 11.9998 15.2502C13.3453 15.2502 14.6514 14.9377 15.613 14.3577ZM20.78 18.0149C20.78 18.7442 20.4901 19.4435 19.9744 19.9592C19.4586 20.475 18.7594 20.7649 18.03 20.7649H6.03003C5.30069 20.7649 4.60142 20.475 4.08569 19.9592C3.57001 19.4435 3.28003 18.7442 3.28003 18.0149V10.8147C3.27989 10.2946 3.39828 9.78101 3.62671 9.31372C3.85517 8.84641 4.18781 8.43778 4.59839 8.11841L9.93237 3.96997L10.1638 3.80493C10.7172 3.44402 11.3653 3.25024 12.03 3.25024C12.7898 3.25024 13.528 3.50345 14.1277 3.96997L19.4597 8.11743C20.2926 8.76454 20.7799 9.76038 20.78 10.8147V18.0149Z" fill="currentColor"/>
</svg>
