<svg class="icon icon-tabler icons-tabler-outline icon-tabler-square-rounded-arrow-down" stroke-linejoin="round" stroke-linecap="round" width="24" height="24" viewBox="0 0 24 24" fill="none" xmlns="http://www.w3.org/2000/svg">
<path d="M20.25 12C20.25 8.39464 19.7814 6.44157 18.6699 5.33008C17.5584 4.21858 15.6054 3.75 12 3.75C8.39464 3.75 6.44157 4.21858 5.33008 5.33008C4.21858 6.44157 3.75 8.39464 3.75 12C3.75 15.6054 4.21858 17.5584 5.33008 18.6699C6.44157 19.7814 8.39464 20.25 12 20.25C15.6054 20.25 17.5584 19.7814 18.6699 18.6699C19.7814 17.5584 20.25 15.6054 20.25 12ZM11.25 8C11.25 7.58579 11.5858 7.25 12 7.25C12.4142 7.25 12.75 7.58579 12.75 8V14.1895L15.4697 11.4697C15.7626 11.1768 16.2374 11.1768 16.5303 11.4697C16.8232 11.7626 16.8232 12.2374 16.5303 12.5303L12.5303 16.5303C12.2374 16.8232 11.7626 16.8232 11.4697 16.5303L7.46973 12.5303C7.17683 12.2374 7.17683 11.7626 7.46973 11.4697C7.76262 11.1768 8.23738 11.1768 8.53027 11.4697L11.25 14.1895V8ZM21.75 12C21.75 15.5946 21.319 18.142 19.7305 19.7305C18.142 21.319 15.5946 21.75 12 21.75C8.40536 21.75 5.85804 21.319 4.26953 19.7305C2.68103 18.142 2.25 15.5946 2.25 12C2.25 8.40536 2.68103 5.85804 4.26953 4.26953C5.85804 2.68103 8.40536 2.25 12 2.25C15.5946 2.25 18.142 2.68103 19.7305 4.26953C21.319 5.85804 21.75 8.40536 21.75 12Z" fill="currentColor"/>
</svg>
