<svg class="icon icon-tabler icons-tabler-outline icon-tabler-stack-2" stroke-linejoin="round" stroke-linecap="round" width="24" height="24" viewBox="0 0 24 24" fill="none" xmlns="http://www.w3.org/2000/svg">
<path d="M19.665 15.3291C20.0354 15.1442 20.4857 15.2947 20.6709 15.6651C20.8558 16.0355 20.7053 16.4858 20.335 16.6709L12.335 20.6709C12.124 20.7763 11.876 20.7763 11.665 20.6709L3.66504 16.6709C3.29469 16.4858 3.14416 16.0355 3.3291 15.6651C3.51428 15.2947 3.96455 15.1442 4.33496 15.3291L12 19.1612L19.665 15.3291ZM19.665 11.3291C20.0354 11.1442 20.4857 11.2947 20.6709 11.6651C20.8558 12.0355 20.7053 12.4858 20.335 12.6709L12.335 16.6709C12.124 16.7763 11.876 16.7763 11.665 16.6709L3.66504 12.6709C3.29469 12.4858 3.14416 12.0355 3.3291 11.6651C3.51428 11.2947 3.96455 11.1442 4.33496 11.3291L12 15.1612L19.665 11.3291ZM11.7451 3.29496C11.937 3.22559 12.1502 3.23689 12.335 3.32914L20.335 7.32914C20.589 7.45619 20.75 7.71596 20.75 8.00004C20.75 8.28412 20.589 8.5439 20.335 8.67094L12.335 12.6709C12.124 12.7763 11.876 12.7763 11.665 12.6709L3.66504 8.67094C3.41095 8.5439 3.25 8.28412 3.25 8.00004C3.25 7.71596 3.41095 7.45619 3.66504 7.32914L11.665 3.32914L11.7451 3.29496ZM5.67676 8.00004L12 11.1612L18.3232 8.00004L12 4.83793L5.67676 8.00004Z" fill="currentColor"/>
</svg>
