<svg class="icon icon-tabler icons-tabler-outline icon-tabler-subtask" stroke-linejoin="round" stroke-linecap="round" width="24" height="24" viewBox="0 0 24 24" fill="none" xmlns="http://www.w3.org/2000/svg">
<path d="M19.25 16C19.25 15.9337 19.2236 15.8701 19.1768 15.8232C19.1299 15.7764 19.0663 15.75 19 15.75H13C12.9337 15.75 12.8701 15.7764 12.8232 15.8232C12.7764 15.8701 12.75 15.9337 12.75 16V18C12.75 18.0663 12.7764 18.1299 12.8232 18.1768C12.8701 18.2236 12.9337 18.25 13 18.25H19C19.0663 18.25 19.1299 18.2236 19.1768 18.1768C19.2236 18.1299 19.25 18.0663 19.25 18V16ZM19.25 8C19.25 7.93369 19.2236 7.87013 19.1768 7.82324C19.1299 7.77636 19.0663 7.75 19 7.75H13C12.9337 7.75 12.8701 7.77636 12.8232 7.82324C12.7764 7.87013 12.75 7.9337 12.75 8V10C12.75 10.0663 12.7764 10.1299 12.8232 10.1768C12.8701 10.2236 12.9337 10.25 13 10.25H19C19.0663 10.25 19.1299 10.2236 19.1768 10.1768C19.2236 10.1299 19.25 10.0663 19.25 10V8ZM20.75 10C20.75 10.4641 20.5655 10.9091 20.2373 11.2373C19.9091 11.5655 19.4641 11.75 19 11.75H13C12.5359 11.75 12.0909 11.5655 11.7627 11.2373C11.4345 10.9091 11.25 10.4641 11.25 10V9.75H6.75V16C6.75 16.0663 6.77636 16.1299 6.82324 16.1768C6.87013 16.2236 6.93369 16.25 7 16.25H11.25V16C11.25 15.5359 11.4345 15.0909 11.7627 14.7627C12.0909 14.4345 12.5359 14.25 13 14.25H19C19.4641 14.25 19.9091 14.4345 20.2373 14.7627C20.5655 15.0909 20.75 15.5359 20.75 16V18C20.75 18.4641 20.5655 18.9091 20.2373 19.2373C19.9091 19.5655 19.4641 19.75 19 19.75H13C12.5359 19.75 12.0909 19.5655 11.7627 19.2373C11.4345 18.9091 11.25 18.4641 11.25 18V17.75H7C6.53587 17.75 6.09088 17.5655 5.7627 17.2373C5.43451 16.9091 5.25 16.4641 5.25 16V5.75H4C3.58579 5.75 3.25 5.41421 3.25 5C3.25 4.58579 3.58579 4.25 4 4.25H8C8.41421 4.25 8.75 4.58579 8.75 5C8.75 5.41421 8.41421 5.75 8 5.75H6.75V8.25H11.25V8C11.25 7.53587 11.4345 7.09088 11.7627 6.7627C12.0909 6.43451 12.5359 6.25 13 6.25H19C19.4641 6.25 19.9091 6.43451 20.2373 6.7627C20.5655 7.09088 20.75 7.53587 20.75 8V10Z" fill="currentColor"/>
</svg>
