<svg class="icon icon-tabler icons-tabler-outline icon-tabler-sun-high" stroke-linejoin="round" stroke-linecap="round" width="24" height="24" viewBox="0 0 24 24" fill="none" xmlns="http://www.w3.org/2000/svg">
<path d="M11.25 22V20C11.25 19.5858 11.5858 19.25 12 19.25C12.4142 19.25 12.75 19.5858 12.75 20V22C12.75 22.4142 12.4142 22.75 12 22.75C11.5858 22.75 11.25 22.4142 11.25 22ZM5.8125 17.127C6.10539 16.8341 6.58015 16.8341 6.87305 17.127C7.16594 17.4198 7.16594 17.8946 6.87305 18.1875L5.45898 19.6016C5.16607 19.8942 4.69123 19.8944 4.39844 19.6016C4.10564 19.3088 4.10583 18.8339 4.39844 18.541L5.8125 17.127ZM17.127 17.127C17.4198 16.8341 17.8946 16.8341 18.1875 17.127L19.6016 18.541C19.8942 18.8339 19.8944 19.3088 19.6016 19.6016C19.3088 19.8944 18.8339 19.8942 18.541 19.6016L17.127 18.1875C16.8341 17.8946 16.8341 17.4198 17.127 17.127ZM12.0078 7.20117C12.6385 7.19569 13.2639 7.31588 13.8477 7.55469C14.4314 7.79352 14.9622 8.14581 15.4082 8.5918C15.8542 9.03779 16.2065 9.56859 16.4453 10.1523C16.6841 10.7361 16.8043 11.3615 16.7988 11.9922C16.7933 12.6228 16.662 13.2458 16.4131 13.8252C16.1641 14.4047 15.8023 14.929 15.3486 15.3672C14.4528 16.2324 13.2532 16.711 12.0078 16.7002C10.7624 16.6894 9.5711 16.1902 8.69043 15.3096C7.80976 14.4289 7.31065 13.2376 7.2998 11.9922C7.28898 10.7468 7.7676 9.54722 8.63281 8.65137C9.07098 8.19769 9.59529 7.83586 10.1748 7.58691C10.7542 7.33804 11.3772 7.20666 12.0078 7.20117ZM12.0205 8.70117C11.5892 8.70497 11.163 8.7946 10.7666 8.96484C10.3701 9.13516 10.0117 9.38298 9.71191 9.69336C9.1199 10.3063 8.79142 11.1274 8.79883 11.9795C8.80634 12.8315 9.14849 13.6465 9.75098 14.249C10.3535 14.8515 11.1685 15.1937 12.0205 15.2012C12.8726 15.2086 13.6937 14.8801 14.3066 14.2881C14.617 13.9883 14.8648 13.6299 15.0352 13.2334C15.2054 12.837 15.295 12.4108 15.2988 11.9795C15.3026 11.548 15.221 11.1191 15.0576 10.7197C14.8942 10.3204 14.6528 9.95744 14.3477 9.65234C14.0426 9.34725 13.6796 9.10579 13.2803 8.94238C12.8809 8.77897 12.452 8.69742 12.0205 8.70117ZM4 11.25C4.41421 11.25 4.75 11.5858 4.75 12C4.75 12.4142 4.41421 12.75 4 12.75H2C1.58579 12.75 1.25 12.4142 1.25 12C1.25 11.5858 1.58579 11.25 2 11.25H4ZM22 11.25C22.4142 11.25 22.75 11.5858 22.75 12C22.75 12.4142 22.4142 12.75 22 12.75H20C19.5858 12.75 19.25 12.4142 19.25 12C19.25 11.5858 19.5858 11.25 20 11.25H22ZM4.39844 4.39844C4.69123 4.10564 5.16607 4.10583 5.45898 4.39844L6.87305 5.8125C7.16594 6.10539 7.16594 6.58015 6.87305 6.87305C6.58015 7.16594 6.10539 7.16594 5.8125 6.87305L4.39844 5.45898C4.10583 5.16607 4.10564 4.69123 4.39844 4.39844ZM18.541 4.39844C18.8339 4.10583 19.3088 4.10564 19.6016 4.39844C19.8944 4.69123 19.8942 5.16607 19.6016 5.45898L18.1875 6.87305C17.8946 7.16594 17.4198 7.16594 17.127 6.87305C16.8341 6.58015 16.8341 6.10539 17.127 5.8125L18.541 4.39844ZM11.25 4V2C11.25 1.58579 11.5858 1.25 12 1.25C12.4142 1.25 12.75 1.58579 12.75 2V4C12.75 4.41421 12.4142 4.75 12 4.75C11.5858 4.75 11.25 4.41421 11.25 4Z" fill="currentColor"/>
</svg>
