<svg class="icon icon-tabler icons-tabler-outline icon-tabler-timeline-event" stroke-linejoin="round" stroke-linecap="round" width="24" height="24" viewBox="0 0 24 24" fill="none" xmlns="http://www.w3.org/2000/svg">
<path d="M12 17.25C12.7293 17.25 13.4286 17.5399 13.9443 18.0557C14.279 18.3903 14.5166 18.8027 14.6436 19.25H20C20.4142 19.25 20.75 19.5858 20.75 20C20.75 20.4142 20.4142 20.75 20 20.75H14.6436C14.5166 21.1973 14.279 21.6097 13.9443 21.9443C13.4286 22.4601 12.7293 22.75 12 22.75C11.2707 22.75 10.5714 22.4601 10.0557 21.9443C9.72103 21.6097 9.48337 21.1973 9.35645 20.75H4C3.58579 20.75 3.25 20.4142 3.25 20C3.25 19.5858 3.58579 19.25 4 19.25H9.35645C9.48337 18.8027 9.72103 18.3903 10.0557 18.0557C10.5714 17.5399 11.2707 17.25 12 17.25ZM12 18.75C11.6685 18.75 11.3506 18.8818 11.1162 19.1162C10.8818 19.3506 10.75 19.6685 10.75 20C10.75 20.3315 10.8818 20.6494 11.1162 20.8838C11.3506 21.1182 11.6685 21.25 12 21.25C12.3315 21.25 12.6494 21.1182 12.8838 20.8838C13.1182 20.6494 13.25 20.3315 13.25 20C13.25 19.6685 13.1182 19.3506 12.8838 19.1162C12.6494 18.8818 12.3315 18.75 12 18.75ZM17.25 4C17.25 3.93369 17.2236 3.87013 17.1768 3.82324C17.1299 3.77636 17.0663 3.75 17 3.75H7C6.9337 3.75 6.87013 3.77636 6.82324 3.82324C6.77636 3.87013 6.75 3.9337 6.75 4V12C6.75 12.0663 6.77636 12.1299 6.82324 12.1768C6.87013 12.2236 6.9337 12.25 7 12.25H10C10.1989 12.25 10.3896 12.3291 10.5303 12.4697L12 13.9395L13.4697 12.4697L13.584 12.376C13.7063 12.2944 13.8508 12.25 14 12.25H17C17.0663 12.25 17.1299 12.2236 17.1768 12.1768C17.2236 12.1299 17.25 12.0663 17.25 12V4ZM18.75 12C18.75 12.4641 18.5655 12.9091 18.2373 13.2373C17.9091 13.5655 17.4641 13.75 17 13.75H14.3105L12.5303 15.5303C12.2374 15.8232 11.7626 15.8232 11.4697 15.5303L9.68945 13.75H7C6.53587 13.75 6.09088 13.5655 5.7627 13.2373C5.43451 12.9091 5.25 12.4641 5.25 12V4C5.25 3.53587 5.43451 3.09088 5.7627 2.7627C6.09088 2.43451 6.53587 2.25 7 2.25H17C17.4641 2.25 17.9091 2.43451 18.2373 2.7627C18.5655 3.09089 18.75 3.53587 18.75 4V12Z" fill="currentColor"/>
</svg>
