<svg class="icon icon-tabler icons-tabler-outline icon-tabler-trash" stroke-linejoin="round" stroke-linecap="round" width="24" height="24" viewBox="0 0 24 24" fill="none" xmlns="http://www.w3.org/2000/svg">
<path d="M14.25 4C14.25 3.9337 14.2236 3.87013 14.1768 3.82324C14.1299 3.77636 14.0663 3.75 14 3.75H10C9.9337 3.75 9.87013 3.77636 9.82324 3.82324C9.77636 3.87013 9.75 3.9337 9.75 4V6.25H14.25V4ZM6.74707 18.9375C6.7488 18.9582 6.75 18.9792 6.75 19C6.75 19.3315 6.88179 19.6494 7.11621 19.8838C7.35063 20.1182 7.66848 20.25 8 20.25H16C16.3315 20.25 16.6494 20.1182 16.8838 19.8838C17.1182 19.6494 17.25 19.3315 17.25 19C17.25 18.9792 17.2512 18.9582 17.2529 18.9375L18.1855 7.75H5.81445L6.74707 18.9375ZM9.25 17V11C9.25 10.5858 9.58579 10.25 10 10.25C10.4142 10.25 10.75 10.5858 10.75 11V17C10.75 17.4142 10.4142 17.75 10 17.75C9.58579 17.75 9.25 17.4142 9.25 17ZM13.25 17V11C13.25 10.5858 13.5858 10.25 14 10.25C14.4142 10.25 14.75 10.5858 14.75 11V17C14.75 17.4142 14.4142 17.75 14 17.75C13.5858 17.75 13.25 17.4142 13.25 17ZM15.75 6.25H20C20.4142 6.25 20.75 6.58579 20.75 7C20.75 7.41421 20.4142 7.75 20 7.75H19.6895L18.7471 19.0625C18.731 19.7692 18.4453 20.4434 17.9443 20.9443C17.4286 21.4601 16.7293 21.75 16 21.75H8C7.27065 21.75 6.57139 21.4601 6.05566 20.9443C5.5547 20.4434 5.26899 19.7692 5.25293 19.0625L4.31055 7.75H4C3.58579 7.75 3.25 7.41421 3.25 7C3.25 6.58579 3.58579 6.25 4 6.25H8.25V4C8.25 3.53587 8.43451 3.09088 8.7627 2.7627C9.09088 2.43451 9.53587 2.25 10 2.25H14C14.4641 2.25 14.9091 2.43451 15.2373 2.7627C15.5655 3.09088 15.75 3.53587 15.75 4V6.25Z" fill="currentColor"/>
</svg>
