<svg class="icon icon-tabler icons-tabler-outline icon-tabler-trending-down" stroke-linejoin="round" stroke-linecap="round" width="24" height="24" viewBox="0 0 24 24" fill="none" xmlns="http://www.w3.org/2000/svg">
<path d="M2.46967 6.46973C2.76256 6.17684 3.23732 6.17684 3.53022 6.46973L8.99994 11.9395L12.4697 8.46973L12.5263 8.41797C12.8209 8.17766 13.2556 8.19513 13.5302 8.46973L20.2499 15.1895V10C20.2499 9.58579 20.5857 9.25 20.9999 9.25C21.4142 9.25 21.7499 9.58579 21.7499 10V17C21.7499 17.4142 21.4142 17.75 20.9999 17.75H13.9999C13.5857 17.75 13.2499 17.4142 13.2499 17C13.2499 16.5858 13.5857 16.25 13.9999 16.25H19.1894L12.9999 10.0606L9.53022 13.5303C9.23732 13.8232 8.76256 13.8232 8.46967 13.5303L2.46967 7.53028C2.17678 7.23738 2.17678 6.76262 2.46967 6.46973Z" fill="currentColor"/>
</svg>
