<svg class="icon icon-tabler icons-tabler-outline icon-tabler-trending-up" stroke-linejoin="round" stroke-linecap="round" width="24" height="24" viewBox="0 0 24 24" fill="none" xmlns="http://www.w3.org/2000/svg">
<path d="M21.7499 14C21.7499 14.4142 21.4142 14.75 20.9999 14.75C20.5857 14.75 20.2499 14.4142 20.2499 14V8.81055L13.5302 15.5303C13.2373 15.8232 12.7626 15.8232 12.4697 15.5303L8.99994 12.0605L3.53022 17.5303C3.23732 17.8232 2.76256 17.8232 2.46967 17.5303C2.17678 17.2374 2.17678 16.7626 2.46967 16.4697L8.46967 10.4697L8.52631 10.418C8.82089 10.1777 9.25561 10.1951 9.53022 10.4697L12.9999 13.9395L19.1894 7.75H13.9999C13.5857 7.75 13.2499 7.41421 13.2499 7C13.2499 6.58579 13.5857 6.25 13.9999 6.25H20.9999C21.4142 6.25 21.7499 6.58579 21.7499 7V14Z" fill="currentColor"/>
</svg>
