<svg width="24" height="24" viewBox="0 0 24 24" fill="none" xmlns="http://www.w3.org/2000/svg">
<path fill-rule="evenodd" clip-rule="evenodd" d="M5.46447 3.46447C6.40215 2.52678 7.67392 2 9 2C10.3261 2 11.5979 2.52678 12.5355 3.46447C13.4732 4.40215 14 5.67392 14 7C14 8.32608 13.4732 9.59785 12.5355 10.5355C11.5979 11.4732 10.3261 12 9 12C7.67392 12 6.40215 11.4732 5.46447 10.5355C4.52678 9.59785 4 8.32608 4 7C4 5.67392 4.52678 4.40215 5.46447 3.46447ZM9 4C8.20435 4 7.44129 4.31607 6.87868 4.87868C6.31607 5.44129 6 6.20435 6 7C6 7.79565 6.31607 8.55871 6.87868 9.12132C7.44129 9.68393 8.20435 10 9 10C9.79565 10 10.5587 9.68393 11.1213 9.12132C11.6839 8.55871 12 7.79565 12 7C12 6.20435 11.6839 5.44129 11.1213 4.87868C10.5587 4.31607 9.79565 4 9 4ZM15.0312 2.88196C15.1682 2.34694 15.713 2.02426 16.248 2.16125C17.3236 2.43663 18.2768 3.06213 18.9576 3.93914C19.6383 4.81615 20.0078 5.89479 20.0078 7.005C20.0078 8.11521 19.6383 9.19385 18.9576 10.0709C18.2768 10.9479 17.3236 11.5734 16.248 11.8488C15.713 11.9857 15.1682 11.6631 15.0312 11.128C14.8943 10.593 15.2169 10.0482 15.752 9.91125C16.3973 9.74602 16.9692 9.37072 17.3777 8.84452C17.7861 8.31831 18.0078 7.67113 18.0078 7.005C18.0078 6.33887 17.7861 5.69169 17.3777 5.16548C16.9692 4.63928 16.3973 4.26398 15.752 4.09875C15.2169 3.96176 14.8943 3.41699 15.0312 2.88196ZM7 16C6.20435 16 5.44129 16.3161 4.87868 16.8787C4.31607 17.4413 4 18.2043 4 19V21C4 21.5523 3.55228 22 3 22C2.44772 22 2 21.5523 2 21V19C2 17.6739 2.52678 16.4021 3.46447 15.4645C4.40215 14.5268 5.67392 14 7 14H11C12.3261 14 13.5979 14.5268 14.5355 15.4645C15.4732 16.4021 16 17.6739 16 19V21C16 21.5523 15.5523 22 15 22C14.4477 22 14 21.5523 14 21V19C14 18.2043 13.6839 17.4413 13.1213 16.8787C12.5587 16.3161 11.7956 16 11 16H7ZM17.0317 14.9C17.1698 14.3653 17.7152 14.0437 18.25 14.1817C19.3185 14.4576 20.2658 15.0793 20.9441 15.9498C21.6224 16.8202 21.9936 17.8907 22 18.9943L22 19L22 21C22 21.5523 21.5523 22 21 22C20.4477 22 20 21.5523 20 21V19.003C19.9956 18.3418 19.7729 17.7006 19.3665 17.1791C18.9595 16.6568 18.3911 16.2838 17.75 16.1182C17.2153 15.9802 16.8937 15.4348 17.0317 14.9Z" fill="currentColor"/>
</svg>
