<svg class="icon icon-tabler icons-tabler-outline icon-tabler-user-x" stroke-linejoin="round" stroke-linecap="round" width="24" height="24" viewBox="0 0 24 24" fill="none" xmlns="http://www.w3.org/2000/svg">
<path d="M21.4697 16.4697C21.7626 16.1768 22.2374 16.1768 22.5303 16.4697C22.8232 16.7626 22.8232 17.2374 22.5303 17.5303L20.5605 19.5L22.5303 21.4697C22.8232 21.7626 22.8232 22.2374 22.5303 22.5303C22.2374 22.8232 21.7626 22.8232 21.4697 22.5303L19.5 20.5605L17.5303 22.5303C17.2374 22.8232 16.7626 22.8232 16.4697 22.5303C16.1768 22.2374 16.1768 21.7626 16.4697 21.4697L18.4395 19.5L16.4697 17.5303C16.1768 17.2374 16.1768 16.7626 16.4697 16.4697C16.7626 16.1768 17.2374 16.1768 17.5303 16.4697L19.5 18.4395L21.4697 16.4697ZM5.25 21V19C5.25 17.7402 5.7508 16.5324 6.6416 15.6416C7.5324 14.7508 8.74022 14.25 10 14.25H13.5C13.9142 14.25 14.25 14.5858 14.25 15C14.25 15.4142 13.9142 15.75 13.5 15.75H10C9.13805 15.75 8.31164 16.0927 7.70215 16.7021C7.09266 17.3116 6.75 18.138 6.75 19V21C6.75 21.4142 6.41421 21.75 6 21.75C5.58579 21.75 5.25 21.4142 5.25 21ZM15.25 7C15.25 6.13805 14.9073 5.31164 14.2979 4.70215C13.6884 4.09266 12.862 3.75 12 3.75C11.138 3.75 10.3116 4.09266 9.70215 4.70215C9.09266 5.31164 8.75 6.13805 8.75 7C8.75 7.86195 9.09266 8.68836 9.70215 9.29785C10.3116 9.90734 11.138 10.25 12 10.25C12.862 10.25 13.6884 9.90734 14.2979 9.29785C14.9073 8.68836 15.25 7.86195 15.25 7ZM16.75 7C16.75 8.25978 16.2492 9.4676 15.3584 10.3584C14.4676 11.2492 13.2598 11.75 12 11.75C10.7402 11.75 9.5324 11.2492 8.6416 10.3584C7.7508 9.4676 7.25 8.25978 7.25 7C7.25 5.74022 7.7508 4.5324 8.6416 3.6416C9.5324 2.7508 10.7402 2.25 12 2.25C13.2598 2.25 14.4676 2.7508 15.3584 3.6416C16.2492 4.5324 16.75 5.74022 16.75 7Z" fill="currentColor"/>
</svg>
