<svg class="icon icon-tabler icons-tabler-outline icon-tabler-versions" stroke-linejoin="round" stroke-linecap="round" width="24" height="24" viewBox="0 0 24 24" fill="none" xmlns="http://www.w3.org/2000/svg">
<path d="M19.25 7C19.25 6.66848 19.1182 6.35063 18.8838 6.11621C18.6494 5.88179 18.3315 5.75 18 5.75H12C11.6685 5.75 11.3506 5.88179 11.1162 6.11621C10.8818 6.35063 10.75 6.66848 10.75 7V17C10.75 17.3315 10.8818 17.6494 11.1162 17.8838C11.3506 18.1182 11.6685 18.25 12 18.25H18C18.3315 18.25 18.6494 18.1182 18.8838 17.8838C19.1182 17.6494 19.25 17.3315 19.25 17V7ZM6.25 17V7C6.25 6.58579 6.58579 6.25 7 6.25C7.41421 6.25 7.75 6.58579 7.75 7V17C7.75 17.4142 7.41421 17.75 7 17.75C6.58579 17.75 6.25 17.4142 6.25 17ZM3.25 16V8C3.25 7.58579 3.58579 7.25 4 7.25C4.41421 7.25 4.75 7.58579 4.75 8V16C4.75 16.4142 4.41421 16.75 4 16.75C3.58579 16.75 3.25 16.4142 3.25 16ZM20.75 17C20.75 17.7293 20.4601 18.4286 19.9443 18.9443C19.4286 19.4601 18.7293 19.75 18 19.75H12C11.2707 19.75 10.5714 19.4601 10.0557 18.9443C9.53994 18.4286 9.25 17.7293 9.25 17V7C9.25 6.27065 9.53994 5.57139 10.0557 5.05566C10.5714 4.53994 11.2707 4.25 12 4.25H18C18.7293 4.25 19.4286 4.53994 19.9443 5.05566C20.4601 5.57139 20.75 6.27065 20.75 7V17Z" fill="currentColor"/>
</svg>
