<svg width="24" height="24" viewBox="0 0 24 24" fill="none" xmlns="http://www.w3.org/2000/svg">
<path d="M9.62695 3.43039C9.96936 3.29104 10.3504 3.27842 10.7012 3.39524C11.052 3.51217 11.3497 3.7511 11.54 4.06809C11.7157 4.36086 11.7883 4.70304 11.75 5.04075V18.9577C11.7887 19.2959 11.716 19.6382 11.54 19.9314C11.3497 20.2485 11.0521 20.4872 10.7012 20.6042C10.3503 20.7211 9.96944 20.7085 9.62695 20.5691C9.31143 20.4405 9.04796 20.2119 8.87598 19.9197L5.63281 15.7497H4C3.53587 15.7497 3.09088 15.5652 2.7627 15.237C2.43457 14.9089 2.25 14.4638 2.25 13.9997V9.99973C2.25006 9.53568 2.43456 9.09056 2.7627 8.76243C3.09087 8.43431 3.53592 8.24973 4 8.24973H5.63379L8.87598 4.07981C9.04796 3.78773 9.31155 3.55886 9.62695 3.43039ZM19.4697 9.46946C19.7626 9.17671 20.2374 9.17671 20.5303 9.46946C20.8231 9.76231 20.8231 10.2371 20.5303 10.53L19.0605 11.9997L20.5303 13.4695C20.8231 13.7623 20.8231 14.2371 20.5303 14.53C20.2374 14.8229 19.7626 14.8229 19.4697 14.53L18 13.0603L16.5303 14.53C16.2374 14.8229 15.7626 14.8229 15.4697 14.53C15.1769 14.2371 15.1769 13.7623 15.4697 13.4695L16.9395 11.9997L15.4697 10.53C15.1769 10.2371 15.1769 9.76231 15.4697 9.46946C15.7626 9.17671 16.2374 9.17671 16.5303 9.46946L18 10.9392L19.4697 9.46946ZM3.75 13.9997C3.75 14.066 3.77643 14.1296 3.82324 14.1765C3.87013 14.2234 3.9337 14.2497 4 14.2497H6C6.23144 14.2497 6.4497 14.3571 6.5918 14.5398L10.0918 19.0398L10.167 19.157C10.1725 19.1674 10.1814 19.1759 10.1924 19.1804C10.2034 19.1849 10.2162 19.1851 10.2275 19.1814C10.2386 19.1776 10.2478 19.1698 10.2539 19.1599C10.26 19.1497 10.2626 19.1374 10.2607 19.1257C10.2537 19.0843 10.25 19.0418 10.25 18.9997V4.99973C10.25 4.95783 10.2537 4.91604 10.2607 4.87473C10.2627 4.86296 10.26 4.85078 10.2539 4.84055C10.2479 4.83048 10.2386 4.8229 10.2275 4.81907C10.2162 4.81529 10.2034 4.81554 10.1924 4.82004C10.1814 4.82455 10.1724 4.8329 10.167 4.84348C10.1458 4.88472 10.1203 4.92405 10.0918 4.96067L6.5918 9.46067C6.4497 9.64319 6.23133 9.74973 6 9.74973H4C3.93375 9.74973 3.87012 9.77616 3.82324 9.82297C3.77641 9.86981 3.75006 9.9335 3.75 9.99973V13.9997Z" fill="currentColor"/>
</svg>
