<svg class="icon icon-tabler icons-tabler-outline icon-tabler-webhook" stroke-linejoin="round" stroke-linecap="round" width="24" height="24" viewBox="0 0 24 24" fill="none" xmlns="http://www.w3.org/2000/svg">
<path d="M11.6407 7.3418C12.0042 7.1435 12.4598 7.27719 12.6582 7.64062L15.3282 12.5361C15.8589 12.3493 16.4342 12.25 17 12.25C17.7247 12.2502 18.4402 12.4162 19.0908 12.7354C19.7413 13.0544 20.3102 13.5181 20.7539 14.0908C21.1977 14.6636 21.505 15.3304 21.6514 16.04C21.7978 16.7497 21.7795 17.4839 21.5987 18.1855C21.4178 18.8872 21.0786 19.5384 20.6075 20.0889C20.1362 20.6393 19.5453 21.0754 18.8799 21.3623C18.2145 21.6492 17.4914 21.7794 16.7676 21.7441C16.0439 21.7089 15.3375 21.5083 14.7032 21.1582C14.341 20.9579 14.2093 20.5021 14.4092 20.1396C14.6094 19.777 15.0661 19.6455 15.4287 19.8457C15.8627 20.0852 16.3458 20.222 16.8408 20.2461C17.3361 20.2702 17.8309 20.1807 18.2862 19.9844C18.7413 19.7881 19.1455 19.4898 19.4678 19.1133C19.7901 18.7367 20.0218 18.2915 20.1455 17.8115C20.2693 17.3315 20.2818 16.8293 20.1817 16.3438C20.0815 15.8582 19.872 15.4017 19.5684 15.0098C19.2647 14.6178 18.8749 14.3004 18.4297 14.082C18.0403 13.8911 17.6173 13.7797 17.1856 13.7549L17 13.75C16.4119 13.75 15.8213 13.9011 15.3653 14.1553C15.1906 14.2526 14.9841 14.2761 14.792 14.2207C14.5999 14.1651 14.4377 14.0349 14.3418 13.8594L11.3418 8.35938C11.1435 7.99583 11.2772 7.54022 11.6407 7.3418ZM4.47757 12.9746C4.82856 12.7547 5.2918 12.8609 5.51175 13.2119C5.73146 13.5628 5.62513 14.0251 5.27444 14.2451C4.79542 14.5453 4.40288 14.9657 4.13577 15.4639C3.86866 15.9623 3.73568 16.5226 3.75101 17.0879C3.76638 17.653 3.92906 18.2044 4.22268 18.6875C4.51637 19.1707 4.93116 19.5689 5.42581 19.8428C5.92056 20.1166 6.47853 20.2566 7.04397 20.249C7.60938 20.2414 8.16327 20.0869 8.65042 19.7998C9.13746 19.5128 9.54075 19.1031 9.82132 18.6123C10.1019 18.1214 10.2499 17.5655 10.25 17C10.2501 16.5858 10.5859 16.25 11 16.25H17C17.4142 16.25 17.75 16.5858 17.75 17C17.75 17.4142 17.4142 17.75 17 17.75H11.6885C11.5984 18.3131 11.409 18.8578 11.1241 19.3564C10.714 20.0739 10.124 20.6722 9.41214 21.0918C8.70021 21.5114 7.89076 21.7378 7.06448 21.749C6.23807 21.7602 5.42234 21.5555 4.69925 21.1553C3.97634 20.755 3.37067 20.1729 2.94143 19.4668C2.51215 18.7605 2.27438 17.9541 2.25198 17.1279C2.22963 16.3018 2.42316 15.4843 2.81351 14.7559C3.20386 14.0275 3.77733 13.4135 4.47757 12.9746ZM15.25 8C15.25 7.13805 14.9074 6.31164 14.2979 5.70215C13.6884 5.09266 12.862 4.75 12 4.75C11.1381 4.75 10.3117 5.09266 9.70218 5.70215C9.09268 6.31164 8.75003 7.13805 8.75003 8C8.75003 9.24485 9.38198 10.2994 10.3633 10.8438C10.7238 11.0436 10.8556 11.4975 10.6582 11.8594L7.65823 17.3594C7.45981 17.7228 7.0042 17.8565 6.64065 17.6582C6.27722 17.4598 6.14353 17.0042 6.34183 16.6406L9.01468 11.7383C7.90849 10.861 7.25003 9.50301 7.25003 8C7.25003 6.74022 7.75083 5.5324 8.64163 4.6416C9.53243 3.7508 10.7403 3.25 12 3.25C13.2598 3.25 14.4676 3.7508 15.3584 4.6416C16.2492 5.5324 16.75 6.74022 16.75 8C16.75 8.41421 16.4142 8.75 16 8.75C15.5858 8.75 15.25 8.41421 15.25 8Z" fill="currentColor"/>
</svg>
