<svg class="icon icon-tabler icons-tabler-outline icon-tabler-world" stroke-linejoin="round" stroke-linecap="round" width="24" height="24" viewBox="0 0 24 24" fill="none" xmlns="http://www.w3.org/2000/svg">
<path d="M8.17188 12C8.17188 11.245 8.22329 10.4938 8.31836 9.75H4.06543C3.85957 10.4759 3.75 11.2321 3.75 12C3.75 12.7625 3.85729 13.5193 4.06445 14.25H8.31836C8.22329 13.5062 8.17188 12.755 8.17188 12ZM10.1133 15.75C10.487 17.3255 11.0945 18.8422 11.9229 20.248C11.9486 20.2483 11.9743 20.25 12 20.25C12.0254 20.25 12.0508 20.2483 12.0762 20.248C12.9046 18.8421 13.513 17.3256 13.8867 15.75H10.1133ZM4.6543 15.75C5.04633 16.5179 5.55443 17.2224 6.16602 17.834C6.93209 18.6001 7.84186 19.2075 8.84277 19.6221C9.2485 19.7901 9.66654 19.9233 10.0918 20.0244C9.40396 18.6675 8.89341 17.2312 8.57324 15.75H4.6543ZM15.4268 15.75C15.1066 17.2313 14.5952 18.6674 13.9072 20.0244C14.3328 19.9233 14.7512 19.7902 15.1572 19.6221C16.1581 19.2075 17.0679 18.6001 17.834 17.834C18.4456 17.2224 18.9537 16.5179 19.3457 15.75H15.4268ZM13.9072 3.97559C14.5952 5.33264 15.1066 6.76869 15.4268 8.25H19.3457C18.9566 7.4878 18.4504 6.78242 17.834 6.16602C16.7448 5.07687 15.3817 4.32607 13.9072 3.97559ZM11.9229 3.75098C11.0943 5.15704 10.4871 6.67427 10.1133 8.25H13.8867C13.5129 6.67412 12.9048 5.15716 12.0762 3.75098C12.0508 3.75074 12.0254 3.75 12 3.75C11.9743 3.75 11.9486 3.75074 11.9229 3.75098ZM10.0918 3.97559C8.6177 4.32617 7.25494 5.0771 6.16602 6.16602C5.54961 6.78242 5.04338 7.4878 4.6543 8.25H8.57324C8.89341 6.76884 9.40396 5.33253 10.0918 3.97559ZM9.67188 12C9.67188 12.7555 9.72525 13.5072 9.8291 14.25H14.1709C14.2747 13.5072 14.3281 12.7555 14.3281 12C14.3281 11.2445 14.2747 10.4928 14.1709 9.75H9.8291C9.72525 10.4928 9.67188 11.2445 9.67188 12ZM15.8281 12C15.8281 12.755 15.7767 13.5062 15.6816 14.25H19.9355C20.1427 13.5193 20.25 12.7625 20.25 12C20.25 11.2321 20.1404 10.4759 19.9346 9.75H15.6816C15.7767 10.4938 15.8281 11.245 15.8281 12ZM21.75 12C21.75 13.2804 21.4978 14.5485 21.0078 15.7314C20.5178 16.9143 19.7998 17.9892 18.8945 18.8945C17.9892 19.7998 16.9143 20.5178 15.7314 21.0078C14.762 21.4094 13.735 21.6475 12.6914 21.7217C12.5903 21.7485 12.4847 21.7572 12.3799 21.7402C12.2534 21.7452 12.1268 21.75 12 21.75C11.8729 21.75 11.746 21.7452 11.6191 21.7402C11.5143 21.7571 11.4087 21.7486 11.3076 21.7217C10.2643 21.6474 9.23766 21.4092 8.26855 21.0078C7.08573 20.5178 6.01078 19.7998 5.10547 18.8945C4.20016 17.9892 3.48217 16.9143 2.99219 15.7314C2.5022 14.5485 2.25 13.2804 2.25 12C2.25 9.41414 3.27699 6.93395 5.10547 5.10547C6.76976 3.44117 8.97429 2.44457 11.3066 2.27832C11.408 2.2512 11.514 2.24289 11.6191 2.25977C11.7458 2.25482 11.8727 2.25 12 2.25C12.1269 2.25 12.2535 2.25484 12.3799 2.25977C12.485 2.24275 12.591 2.25132 12.6924 2.27832C15.0251 2.44436 17.23 3.44094 18.8945 5.10547C20.723 6.93395 21.75 9.41414 21.75 12Z" fill="currentColor"/>
</svg>
