<svg width="1078" height="157" viewBox="0 0 1078 157" fill="none" xmlns="http://www.w3.org/2000/svg">
<path d="M264.87 0.000146875H250.018C249.679 -0.00352039 249.342 0.0615222 249.029 0.191354C248.715 0.321186 248.431 0.51313 248.193 0.755645L233.153 15.8025C232.909 16.0519 232.717 16.3472 232.587 16.6714C232.457 16.9955 232.393 17.3422 232.398 17.6913V153.68C232.398 154.027 232.467 154.371 232.599 154.692C232.732 155.013 232.927 155.304 233.172 155.55C233.418 155.795 233.709 155.99 234.03 156.123C234.35 156.256 234.694 156.324 235.041 156.324H350.139C350.478 156.328 350.815 156.263 351.129 156.133C351.442 156.003 351.726 155.811 351.964 155.569L367.004 140.522C367.264 140.258 367.466 139.942 367.596 139.595C367.726 139.248 367.781 138.877 367.759 138.507V130.575C367.759 130.227 367.691 129.883 367.558 129.563C367.425 129.242 367.23 128.95 366.985 128.705C366.74 128.459 366.448 128.264 366.127 128.132C365.807 127.999 365.463 127.93 365.116 127.93H270.156C269.455 127.93 268.783 127.652 268.287 127.156C267.791 126.66 267.513 125.987 267.513 125.286V2.8962C267.513 2.19491 267.234 1.52234 266.739 1.02645C266.243 0.530566 265.571 0.251984 264.87 0.251984V0.000146875Z" fill="#E72887"/>
<path d="M335.287 1.00771L320.247 16.0546C320.003 16.304 319.81 16.5992 319.681 16.9234C319.551 17.2476 319.487 17.5942 319.492 17.9433V26.0019C319.492 26.3492 319.56 26.693 319.693 27.0138C319.826 27.3347 320.021 27.6261 320.266 27.8717C320.512 28.1172 320.803 28.312 321.124 28.4449C321.444 28.5778 321.788 28.6462 322.135 28.6462H391.357C391.71 28.6378 392.06 28.7 392.388 28.8291C392.716 28.9582 393.015 29.1516 393.267 29.398C393.519 29.6444 393.719 29.9387 393.856 30.2637C393.993 30.5887 394.063 30.9378 394.063 31.2904V153.68C394.063 154.028 394.132 154.371 394.264 154.692C394.397 155.013 394.592 155.304 394.837 155.55C395.083 155.796 395.374 155.99 395.695 156.123C396.015 156.256 396.359 156.324 396.706 156.324H426.535C426.882 156.324 427.226 156.256 427.546 156.123C427.867 155.99 428.158 155.796 428.404 155.55C428.649 155.304 428.844 155.013 428.977 154.692C429.109 154.371 429.178 154.028 429.178 153.68V31.4793C429.178 31.132 429.246 30.7882 429.379 30.4674C429.512 30.1466 429.707 29.855 429.952 29.6095C430.197 29.364 430.489 29.1692 430.809 29.0363C431.13 28.9034 431.474 28.835 431.821 28.835H486.318C486.667 28.84 487.013 28.7759 487.337 28.6462C487.661 28.5165 487.956 28.3239 488.206 28.0795L503.434 12.5919C503.685 12.3574 503.887 12.0751 504.027 11.7616C504.168 11.4481 504.244 11.1096 504.252 10.7662V2.89644C504.252 2.19515 503.974 1.52258 503.478 1.0267C502.983 0.530807 502.31 0.252225 501.609 0.252225H337.175C336.826 0.247222 336.48 0.311397 336.156 0.441066C335.832 0.570735 335.537 0.763324 335.287 1.00771Z" fill="#E72887"/>
<path d="M733.693 125.286V2.89644C733.693 2.54919 733.624 2.20535 733.492 1.88454C733.359 1.56373 733.164 1.27223 732.918 1.0267C732.673 0.781157 732.382 0.586379 732.061 0.453495C731.74 0.32061 731.397 0.252225 731.05 0.252225H716.198C715.849 0.247222 715.503 0.311397 715.179 0.441066C714.855 0.570735 714.56 0.763324 714.31 1.00771L699.27 16.0546C698.803 16.5751 698.536 17.2443 698.515 17.9433V156.45H816.256C816.595 156.454 816.932 156.389 817.245 156.259C817.559 156.129 817.843 155.937 818.081 155.695L833.121 140.648C833.321 140.334 833.453 139.98 833.507 139.611C833.561 139.242 833.537 138.866 833.436 138.507V130.575C833.436 130.228 833.367 129.884 833.234 129.563C833.101 129.242 832.907 128.951 832.661 128.705C832.416 128.459 832.125 128.265 831.804 128.132C831.483 127.999 831.14 127.931 830.792 127.931H736.336C735.635 127.931 734.962 127.652 734.467 127.156C733.971 126.66 733.693 125.988 733.693 125.286Z" fill="#E72887"/>
<path d="M567.434 92.4865H619.476C620.177 92.4865 620.85 92.2079 621.345 91.712C621.841 91.2161 622.119 90.5436 622.119 89.8423V66.7368C622.128 66.3843 622.066 66.0336 621.937 65.7055C621.807 65.3774 621.614 65.0784 621.368 64.8262C621.121 64.5739 620.827 64.3735 620.503 64.2367C620.178 64.0999 619.829 64.0295 619.476 64.0296H567.623C566.922 64.0296 566.249 63.751 565.754 63.2551C565.258 62.7592 564.979 62.0866 564.979 61.3854V31.4804C564.979 31.1332 565.048 30.7893 565.181 30.4685C565.314 30.1477 565.508 29.8562 565.754 29.6107C565.999 29.3651 566.29 29.1704 566.611 29.0375C566.932 28.9046 567.276 28.8362 567.623 28.8362H653.899C654.243 28.8356 654.584 28.7624 654.898 28.6214C655.213 28.4804 655.494 28.2747 655.724 28.0178L670.827 12.9708C671.071 12.7215 671.263 12.4262 671.393 12.102C671.523 11.7779 671.587 11.4312 671.582 11.0821V2.83466C671.582 2.48741 671.513 2.14356 671.38 1.82275C671.248 1.50193 671.053 1.21044 670.808 0.964901C670.562 0.719362 670.271 0.524585 669.95 0.3917C669.629 0.258815 669.286 0.19043 668.939 0.19043H547.485C547.142 0.198478 546.804 0.275007 546.49 0.415548C546.177 0.556089 545.895 0.75781 545.66 1.00888L530.62 15.9928C530.376 16.2422 530.183 16.5375 530.054 16.8616C529.924 17.1858 529.86 17.5324 529.865 17.8816V153.681C529.865 154.029 529.933 154.373 530.066 154.693C530.199 155.014 530.394 155.306 530.639 155.551C530.885 155.797 531.176 155.991 531.497 156.124C531.817 156.257 532.161 156.326 532.508 156.326H653.899C654.248 156.331 654.594 156.266 654.918 156.137C655.242 156.007 655.537 155.815 655.786 155.57L670.827 140.523C671.071 140.274 671.263 139.979 671.393 139.654C671.523 139.33 671.587 138.984 671.582 138.635V130.576C671.582 130.229 671.513 129.885 671.38 129.564C671.248 129.243 671.053 128.952 670.808 128.706C670.562 128.461 670.271 128.266 669.95 128.133C669.629 128 669.286 127.932 668.939 127.932H567.623C566.922 127.932 566.249 127.653 565.754 127.157C565.258 126.661 564.979 125.989 564.979 125.287V95.1307C564.979 94.4294 565.258 93.7568 565.754 93.261C566.249 92.7651 566.922 92.4865 567.623 92.4865H567.434Z" fill="#E72887"/>
<path d="M162.106 96.8294C162.106 97.5307 161.827 98.2033 161.332 98.6992C160.836 99.1951 160.164 99.4736 159.463 99.4736H100.246C99.7309 99.469 99.2281 99.3136 98.7997 99.0267C98.3714 98.7397 98.0363 98.3337 97.8357 97.8587C97.635 97.3836 97.5776 96.8603 97.6705 96.353C97.7634 95.8457 98.0026 95.3767 98.3585 95.0036L157.638 35.6974C158.011 35.3413 158.48 35.1021 158.987 35.0091C159.494 34.9162 160.017 34.9736 160.492 35.1743C160.967 35.3751 161.372 35.7103 161.659 36.1388C161.946 36.5674 162.101 37.0705 162.106 37.5862V96.8294ZM197.283 138.507V2.89644C197.283 2.19515 197.005 1.52258 196.509 1.0267C196.014 0.530807 195.341 0.252225 194.64 0.252225H153.296C152.947 0.247222 152.6 0.311397 152.276 0.441066C151.952 0.570735 151.657 0.763324 151.408 1.00771L0.818112 152.106C0.561281 152.336 0.355656 152.617 0.214706 152.932C0.0737562 153.247 0.000609085 153.587 0 153.932C0 154.633 0.278469 155.306 0.774133 155.802C1.2698 156.298 1.94204 156.576 2.64302 156.576H35.9956C36.335 156.58 36.6716 156.515 36.9852 156.385C37.2988 156.255 37.583 156.063 37.8206 155.821L64.6913 128.938C64.9384 128.691 65.2332 128.496 65.5577 128.366C65.8822 128.236 66.2298 128.174 66.5792 128.182H159.463C160.164 128.182 160.836 128.461 161.332 128.957C161.827 129.453 162.106 130.125 162.106 130.827V153.932C162.106 154.279 162.174 154.623 162.307 154.944C162.44 155.265 162.635 155.556 162.88 155.802C163.125 156.047 163.417 156.242 163.737 156.375C164.058 156.508 164.402 156.576 164.749 156.576H179.663C180.013 156.585 180.36 156.522 180.685 156.392C181.009 156.263 181.304 156.068 181.551 155.821L196.528 140.837C196.775 140.59 196.97 140.295 197.1 139.97C197.229 139.645 197.292 139.298 197.283 138.948V138.507Z" fill="#E72887"/>
<path d="M892.463 1.0723L861.565 31.9216C861.052 32.4683 860.76 33.1864 860.747 33.9362V153.556C860.747 154.307 861.045 155.028 861.576 155.559C862.107 156.091 862.827 156.389 863.578 156.389H1049.16C1049.91 156.388 1050.63 156.095 1051.17 155.571L1077.16 129.569C1077.68 129.052 1077.97 128.351 1077.98 127.617V2.96102C1077.97 2.59721 1077.89 2.23859 1077.74 1.90562C1077.6 1.57265 1077.39 1.27187 1077.12 1.02047C1076.86 0.769064 1076.55 0.571962 1076.21 0.440422C1075.87 0.308882 1075.51 0.245487 1075.15 0.25385H894.477C894.102 0.239654 893.729 0.305283 893.382 0.44639C893.035 0.587496 892.721 0.800848 892.463 1.0723Z" fill="#E72887"/>
<path d="M1041.42 90.5343V88.2048V76.7465H1017.76L1008.76 85.7495V90.5343H1025.75V99.4113L1022.85 102.37H994.598L988.305 96.0745V58.8665L993.024 54.2076H1021.78L1025.75 58.174V65.54H1041.42V52.9485L1041.48 52.8855L1029.02 40.4199V40.3569L985.725 40.4199L972.635 53.5151V105.959L982.893 116.221H1031.03L1041.48 105.77V102.37H1041.42V90.5343Z" fill="white"/>
<path d="M960.112 105.959V81.3424L950.169 71.3951H912.915V58.8665V54.2076H956.022L960.112 50.0524V40.3569L910.335 40.4199H897.309L897.246 85.1828H939.094L944.506 90.5343V96.6412L938.779 102.37H897.246V116.221H949.855L960.112 105.959Z" fill="white"/>
</svg>
