<svg width="400" height="147" viewBox="0 0 400 147" fill="none" xmlns="http://www.w3.org/2000/svg">
<g clip-path="url(#clip0)">
<path fill-rule="evenodd" clip-rule="evenodd" d="M145.107 0C145.099 0 145.091 0.001186 145.082 0.00474402L73.8447 17.9051C73.7579 17.9276 73.673 17.8654 73.673 17.78V1.81518C73.673 1.72445 73.5813 1.661 73.4926 1.69006C73.4926 1.69006 -0.00686701 25.6592 0 25.7209L7.05929 90.7104C7.07239 90.8373 7.24906 90.8711 7.31399 90.7608L22.1523 71.4823C22.1742 71.4491 22.206 71.4265 22.2422 71.4188L123.828 49.9183C123.886 49.9059 123.946 49.9308 123.974 49.9818L144.997 85.6088C145.065 85.7256 145.252 85.6799 145.252 85.5441V0.129868C145.252 0.0598932 145.194 0.00474402 145.127 0H145.107Z" fill="black"/>
<path fill-rule="evenodd" clip-rule="evenodd" d="M135.169 136.782C135.169 136.874 135.095 136.949 135.002 136.949H92.9666C92.8737 136.949 92.799 136.874 92.799 136.782V135.92V128.659C92.799 128.58 92.8536 128.513 92.9308 128.496L134.97 119.685C135.073 119.667 135.169 119.744 135.169 119.848V136.782ZM145.082 105.746C145.07 105.746 145.057 105.746 145.043 105.749L101.291 116.601L118.38 99.4836H104.617L82.9939 121.14L82.7045 121.211V121.43L82.6807 121.454L82.7045 121.477V135.926V146.894C82.7045 146.984 82.7786 147.06 82.8715 147.06H145.084C145.178 147.06 145.251 146.984 145.251 146.894V105.912C145.251 105.82 145.171 105.746 145.082 105.746V105.746Z" fill="black"/>
<path fill-rule="evenodd" clip-rule="evenodd" d="M59.1666 135.92V136.783C59.1666 136.874 59.0925 136.948 58.9996 136.948H16.9616C16.8687 136.948 16.7965 136.874 16.7965 136.783V119.848C16.7965 119.743 16.8944 119.667 16.9967 119.685L59.0348 128.497C59.1107 128.513 59.1666 128.58 59.1666 128.659V135.92ZM69.2492 121.211L68.9585 121.139L47.3369 99.4836H33.5732L50.662 116.6L6.90963 105.749C6.89582 105.746 6.88389 105.746 6.87071 105.746C6.77969 105.746 6.70374 105.82 6.70374 105.912V146.894C6.70374 146.984 6.77592 147.06 6.86883 147.06H69.0828C69.1751 147.06 69.2492 146.984 69.2492 146.894V135.926V121.479L69.2736 121.455L69.2492 121.431V121.211Z" fill="black"/>
<path fill-rule="evenodd" clip-rule="evenodd" d="M192.84 54.1265L199.843 37.4155L206.846 54.1265H192.84ZM194.649 23.7949L172.062 75.6962H183.884L188.703 64.1375H210.988L215.807 75.6962H227.928L205.34 23.7949H194.649Z" fill="black"/>
<path fill-rule="evenodd" clip-rule="evenodd" d="M244.158 52.2083C244.158 47.075 247.021 44.438 251.509 44.438C255.997 44.438 258.627 47.075 258.627 52.2083V73.526H270.386V48.7869C270.386 40.0172 265.204 34.6 256.306 34.6C250.349 34.6 246.866 37.5227 244.158 40.7303V35.3126H232.397V73.526H244.158V52.2083Z" fill="black"/>
<path fill-rule="evenodd" clip-rule="evenodd" d="M288.559 52.9293C288.559 47.5783 292.784 43.8392 298.363 43.8392C303.944 43.8392 308.243 47.5783 308.243 52.9293V53.0764C308.243 58.4275 303.944 62.1672 298.363 62.1672C292.784 62.1672 288.559 58.5007 288.559 53.0764V52.9293ZM295.045 71.4024C301.155 71.4024 304.85 68.9839 308.244 65.0244V66.9312C308.244 73.968 304.549 77.6332 296.705 77.6332C291.35 77.6332 287.203 76.315 283.056 74.0419L279.134 82.3981C284.261 85.0376 290.446 86.5035 297.008 86.5035C304.85 86.5035 310.657 84.8904 314.427 81.2252C317.822 77.9257 319.557 72.7945 319.557 65.7583V35.3355H308.093V40.4661C305.002 37.1678 301.307 34.6022 295.045 34.6022C285.771 34.6022 277.099 41.1994 277.099 52.9284V53.0756C277.099 64.7319 285.62 71.4024 295.045 71.4024V71.4024Z" fill="black"/>
<path fill-rule="evenodd" clip-rule="evenodd" d="M340.059 43.0247V35.3289H328.491V73.526H340.059V59.4153C340.059 50.2944 344.777 45.9467 352.463 45.9467H353.072V34.6166C346.224 34.3311 342.419 37.7517 340.059 43.0247" fill="black"/>
<path fill-rule="evenodd" clip-rule="evenodd" d="M369.488 75.3736C367.966 75.3736 366.063 74.7329 364.542 73.8794L360.661 81.7056C363.63 83.3431 366.749 84.3388 370.933 84.3388C377.858 84.3388 381.205 81.4217 384.326 73.6655L400 34.6H387.977L379.075 60.5724L369.793 34.6H357.542L373.522 72.8814C372.531 74.804 371.465 75.3736 369.488 75.3736" fill="black"/>
<path fill-rule="evenodd" clip-rule="evenodd" d="M211.997 125.773L187.25 95.1472H176.538V144.886H188.006V113.268L213.581 144.886H223.465V95.1472H211.997V125.773Z" fill="black"/>
<path fill-rule="evenodd" clip-rule="evenodd" d="M240.929 123.341C241.795 118.258 244.758 114.946 249.308 114.946C253.93 114.946 256.818 118.332 257.468 123.341H240.929ZM249.308 105.962C238.041 105.962 230.168 115.24 230.168 126.508V126.653C230.168 138.73 238.762 147.051 250.39 147.051C257.396 147.051 262.596 144.255 266.207 139.687L259.924 134.018C256.89 136.89 254.217 138.067 250.534 138.067C245.624 138.067 242.158 135.418 241.074 130.336H268.011C268.085 129.305 268.157 128.274 268.157 127.391C268.157 116.197 262.235 105.962 249.308 105.962V105.962Z" fill="black"/>
<path fill-rule="evenodd" clip-rule="evenodd" d="M290.903 114.384V106.687H279.336V144.884H290.903V130.775C290.903 121.653 295.621 117.305 303.308 117.305H303.917V105.975C297.069 105.689 293.264 109.111 290.903 114.384" fill="black"/>
<path fill-rule="evenodd" clip-rule="evenodd" d="M337.288 126.825C337.288 133.326 332.837 137.637 327.483 137.637C322.128 137.637 317.603 133.326 317.603 126.825V126.678C317.603 120.101 322.128 115.866 327.483 115.866C332.837 115.866 337.288 120.174 337.288 126.678V126.825ZM337.138 112.284C334.422 109.143 330.652 106.439 324.544 106.439C314.965 106.439 306.143 113.599 306.143 126.677V126.823C306.143 139.899 315.116 147.061 324.544 147.061C330.5 147.061 334.346 144.357 337.138 140.704V146.329H348.601V92.9968H337.138V112.284Z" fill="black"/>
<path fill-rule="evenodd" clip-rule="evenodd" d="M378.579 122.276C374.11 120.791 370.18 119.753 370.18 117.53V117.381C370.18 115.824 371.644 114.636 374.494 114.636C377.501 114.636 381.583 116.045 385.668 118.345L390.138 110.558C385.668 107.665 379.965 105.958 374.726 105.958C366.403 105.958 359.624 110.484 359.624 118.568V118.715C359.624 126.429 366.174 129.025 371.952 130.657C376.499 131.99 380.504 132.807 380.504 135.254V135.403C380.504 137.182 378.963 138.369 375.573 138.369C371.72 138.369 367.021 136.736 362.551 133.622L357.542 141.039C363.013 145.191 369.487 147.047 375.265 147.047C384.205 147.047 391.061 143.041 391.061 134.215V134.067C391.061 126.799 384.357 124.129 378.579 122.276" fill="black"/>
</g>
<defs>
<clipPath id="clip0">
<rect width="400" height="147" fill="white"/>
</clipPath>
</defs>
</svg>
