<?xml version="1.0" encoding="utf-8"?>
<!-- Generator: Adobe Illustrator 23.0.2, SVG Export Plug-In . SVG Version: 6.00 Build 0)  -->
<svg version="1.1" id="Layer_1" xmlns="http://www.w3.org/2000/svg" xmlns:xlink="http://www.w3.org/1999/xlink" x="0px" y="0px"
	 viewBox="0 0 2000 1084.09998" style="enable-background:new 0 0 2000 1084.09998;" xml:space="preserve">
<g>
	<path d="M1460.03711,267.97589c-116.48206,0-215.92273,72.70126-255.60083,175.17511L921.52081,160.23718
		c-210.53754-210.52481-553.08484-210.52481-763.62244,0c-210.53119,210.53119-210.53119,553.09125,0,763.62244
		c105.26878,105.26245,243.53679,157.89673,381.81122,157.89673s276.54242-52.63428,381.81122-157.89673l7.39905-7.39905
		L813.55627,801.09705l-7.39905,7.39899c-146.92249,146.92255-385.97275,146.92255-532.89526,0s-146.92255-385.97275,0-532.89526
		s385.97278-146.92253,532.89526,0l456.75098,456.75064l6.82874,6.82983c22.76099,21.97681,49.30444,40.0318,78.57556,53.12073
		c34.13367,15.26208,71.91895,23.81818,111.72461,23.81818c151.36768,0,274.07288-122.70642,274.07288-274.07214
		S1611.40479,267.97589,1460.03711,267.97589z"/>
	<path d="M1841.84827,160.23718c-210.53748-210.52481-553.08484-210.52481-763.62244,0l-7.39905,7.39902l115.36365,115.36356
		l7.39905-7.39902c146.92249-146.92253,385.97266-146.92253,532.89526,0c71.17334,71.16699,110.36719,165.79291,110.36719,266.44766
		c0,100.64838-39.19385,195.27429-110.36719,266.44763c-146.92261,146.92255-385.97278,146.92255-532.89526,0L736.87982,351.78726
		l-6.9115-6.91309c-15.63922-15.09161-33.05341-28.33426-51.92059-39.39175c-40.61176-23.80225-87.8642-37.50653-138.33813-37.50653
		c-151.3645,0-274.07291,122.70642-274.07291,274.07208s122.7084,274.07214,274.07291,274.07214
		c116.48206,0,215.92273-72.7005,255.60406-175.17352l282.91217,282.91302
		c105.2688,105.26245,243.53687,157.89673,381.81128,157.89673s276.54236-52.63428,381.81116-157.89673
		C1943.83496,821.87292,2000,686.27515,2000,542.0484C2000,397.81525,1943.83496,262.22388,1841.84827,160.23718z"/>
</g>
</svg>
