<svg width="171" height="24" viewBox="0 0 171 24" fill="none" xmlns="http://www.w3.org/2000/svg">
<path d="M19.284 0H4.71595C2.10117 0 0 2.10117 0 4.71595V11.4397H19.284C21.8755 11.4397 24 9.33852 24 6.72374V4.69261C24 2.10117 21.8755 0 19.284 0Z" fill="#023DFF"/>
<path d="M19.284 12.5603H0V19.2841C0 21.8755 2.10117 24 4.71595 24H19.284C21.8755 24 24 21.8988 24 19.2841V17.2529C24 14.6615 21.8755 12.5603 19.284 12.5603Z" fill="#023DFF"/>
<path d="M41.3852 18.3035C42.3191 17.5097 42.786 16.4591 42.786 15.1517C42.786 13.3774 41.9922 12.1634 40.3813 11.463C41.3152 10.7393 41.7821 9.75873 41.7821 8.52138C41.7821 7.33072 41.3619 6.35017 40.5447 5.5564C39.7276 4.76262 38.6304 4.36574 37.2996 4.36574H32V19.5408H37.8132C39.2374 19.5175 40.4514 19.0973 41.3852 18.3035ZM34.4514 6.60698H37.1128C37.7899 6.60698 38.3268 6.8171 38.7237 7.21399C39.1206 7.61087 39.3307 8.0778 39.3307 8.66146C39.3307 9.26846 39.1206 9.75873 38.7237 10.1323C38.3268 10.5058 37.7899 10.7159 37.1128 10.7159H34.4514V6.60698ZM34.4514 12.8404H37.8132C38.607 12.8404 39.214 13.0506 39.6576 13.4474C40.0778 13.8677 40.3113 14.3813 40.3113 15.035C40.3113 15.6887 40.1012 16.2257 39.6576 16.6225C39.2374 17.0194 38.607 17.2295 37.8132 17.2295H34.4514V12.8404Z" fill="black"/>
<path d="M49.1829 17.4864C48.3891 17.4864 47.7121 17.2296 47.1051 16.716C46.4981 16.2023 46.1479 15.502 46.0545 14.6615H54.3191C54.4125 12.8872 53.9689 11.4397 52.9883 10.3191C52.0078 9.19845 50.677 8.66149 49.1362 8.66149C47.5953 8.66149 46.3113 9.19845 45.2607 10.249C44.2101 11.2996 43.6965 12.607 43.6965 14.1712C43.6965 15.7354 44.2335 17.0428 45.284 18.0934C46.3346 19.144 47.642 19.6809 49.1595 19.6809C51.0973 19.6809 52.5914 19.0039 53.6654 17.6498L51.9844 16.2023C51.3074 17.0428 50.3735 17.4864 49.1829 17.4864ZM47.2218 11.2296C47.7821 10.856 48.3658 10.6693 48.9961 10.6693C49.7432 10.6693 50.3735 10.856 50.8872 11.2529C51.4008 11.6498 51.7276 12.2101 51.8444 12.9572H46.1712C46.3113 12.1634 46.6615 11.6031 47.2218 11.2296Z" fill="black"/>
<path d="M58.1712 9.9455V8.82488H55.8132V19.5175H58.1712V12.3502C58.6615 11.463 59.4786 11.0194 60.5759 11.0194C61.0661 11.0194 61.4864 11.0895 61.8132 11.2295V8.80153C61.5798 8.7315 61.2763 8.6848 60.9027 8.6848C59.7821 8.6848 58.8482 9.10504 58.1712 9.9455Z" fill="black"/>
<path d="M67.5097 19.6809C69.4475 19.6809 70.9416 19.0039 72.0156 17.6498L70.3346 16.2023C69.6343 17.0661 68.7004 17.5097 67.5097 17.5097C66.716 17.5097 66.0389 17.2529 65.4319 16.7393C64.8249 16.2257 64.4747 15.5253 64.4047 14.6848H72.6459C72.7393 12.9105 72.2957 11.463 71.3152 10.3424C70.3346 9.22177 69.0039 8.6848 67.463 8.6848C65.9222 8.6848 64.6381 9.22177 63.5876 10.2724C62.537 11.3229 62.0233 12.6303 62.0233 14.1945C62.0233 15.7587 62.5603 17.0661 63.6109 18.1167C64.7082 19.1439 65.9922 19.6809 67.5097 19.6809ZM65.5486 11.2295C66.109 10.856 66.6926 10.6692 67.323 10.6692C68.07 10.6692 68.7004 10.856 69.214 11.2529C69.7276 11.6498 70.0545 12.2101 70.1712 12.9572H64.4981C64.6381 12.1634 64.9883 11.6031 65.5486 11.2295Z" fill="black"/>
<path d="M84.179 19.5175L79.1829 13.8677L83.642 8.82491H80.7704L76.4981 13.7043V4.34242H74.1401V19.5175H76.4981V14.1712L81.214 19.5175H84.179Z" fill="black"/>
<path d="M85.0428 18.0934C86.0934 19.1439 87.4008 19.6809 88.9183 19.6809C90.856 19.6809 92.3502 19.0039 93.4241 17.6498L91.7432 16.2023C91.0428 17.0661 90.1089 17.5097 88.9183 17.5097C88.1245 17.5097 87.4475 17.2529 86.8405 16.7393C86.2335 16.2257 85.8833 15.5253 85.7899 14.6848H94.0311C94.1245 12.9105 93.6809 11.463 92.7004 10.3424C91.7198 9.22177 90.3891 8.6848 88.8482 8.6848C87.3074 8.6848 86.0233 9.22177 84.9728 10.2724C83.9222 11.3229 83.4086 12.6303 83.4086 14.1945C83.4319 15.7354 83.9689 17.0428 85.0428 18.0934ZM86.9339 11.2295C87.4942 10.856 88.0778 10.6692 88.7082 10.6692C89.4552 10.6692 90.0856 10.856 90.5992 11.2529C91.1128 11.6498 91.4397 12.2101 91.5564 12.9572H85.8833C86.0233 12.1634 86.3969 11.6031 86.9339 11.2295Z" fill="black"/>
<path d="M107.222 11.4397C108.156 10.716 108.623 9.73542 108.623 8.49807C108.623 7.3074 108.202 6.32686 107.385 5.53309C106.568 4.73931 105.471 4.34242 104.14 4.34242H98.8405V19.5175H104.654C106.125 19.5175 107.315 19.1206 108.249 18.3269C109.183 17.5331 109.65 16.4825 109.65 15.1751C109.626 13.3774 108.833 12.1401 107.222 11.4397ZM101.292 6.60702H103.953C104.63 6.60702 105.167 6.81713 105.564 7.21402C105.961 7.61091 106.171 8.07783 106.171 8.66149C106.171 9.26849 105.961 9.75877 105.564 10.1323C105.167 10.5058 104.63 10.716 103.953 10.716H101.292V6.60702ZM106.498 16.6226C106.078 17.0195 105.447 17.2296 104.654 17.2296H101.292V12.8405H104.654C105.447 12.8405 106.054 13.0506 106.498 13.4475C106.918 13.8677 107.152 14.3813 107.152 15.035C107.152 15.6887 106.942 16.2257 106.498 16.6226Z" fill="black"/>
<path d="M139.253 8.6848C138.109 8.6848 137.152 9.10504 136.405 9.92216V8.94161H133.953V19.4474H136.405V14.4046C136.405 13.5875 136.451 12.9338 136.568 12.4202C136.685 11.9066 136.872 11.5564 137.105 11.3463C137.339 11.1362 137.572 10.9961 137.782 10.9494C137.992 10.9027 138.272 10.856 138.623 10.856C138.926 10.856 139.16 10.8794 139.323 10.926C139.486 10.9727 139.696 11.0661 139.907 11.2295C140.117 11.393 140.28 11.6731 140.374 12.07C140.467 12.4669 140.514 12.9805 140.514 13.6109V19.4474H142.965V13.0039C142.965 11.6731 142.755 10.6926 142.311 10.0856C141.658 9.15173 140.63 8.6848 139.253 8.6848Z" fill="black"/>
<path d="M117.331 14.6848C117.331 15.572 117.191 16.2023 116.887 16.5759C116.514 17.0662 116 17.2996 115.3 17.2996C114.599 17.2996 114.062 17.0662 113.712 16.5759C113.409 16.2023 113.268 15.572 113.268 14.6848V8.66149H110.817V14.7549C110.817 16.2957 111.191 17.4397 111.938 18.1868C112.778 19.0506 113.899 19.4942 115.253 19.4942C116.677 19.4942 117.798 19.0506 118.661 18.1868C119.409 17.4397 119.782 16.2957 119.782 14.7549V8.66149H117.331V14.6848Z" fill="black"/>
<path d="M160.451 13.0039L159.214 12.3736C159.074 12.3035 158.957 12.2335 158.817 12.1634C158.677 12.0934 158.584 12.0467 158.537 12.0234C158.49 12 158.444 11.9767 158.397 11.93C158.163 11.7899 158.047 11.5798 158.047 11.323C158.047 11.1129 158.117 10.9261 158.28 10.7627C158.467 10.5759 158.724 10.4825 159.027 10.4825C159.658 10.4825 160.148 10.786 160.521 11.3697L162.342 10.179C162.039 9.61869 161.642 9.19845 161.152 8.87161C160.591 8.49807 159.961 8.3113 159.214 8.3113C158.14 8.3113 157.276 8.63814 156.646 9.31519C156.062 9.92219 155.782 10.6693 155.782 11.5564C155.782 12.2568 156.039 12.8405 156.529 13.3308C156.786 13.5876 157.276 13.8911 157.977 14.2179L158.864 14.6381C159.331 14.8483 159.681 15.0584 159.914 15.2918C160.124 15.5253 160.241 15.7821 160.241 16.0856C160.241 16.4125 160.125 16.6693 159.891 16.9027C159.658 17.1362 159.331 17.2529 158.887 17.2529C158.444 17.2529 158.07 17.1129 157.813 16.856C157.603 16.6693 157.416 16.3424 157.23 15.8522L155.245 16.8093C155.502 17.6265 155.969 18.2568 156.599 18.7237C157.183 19.1673 157.93 19.4008 158.864 19.4008C160.101 19.4008 161.082 19.0039 161.805 18.2335C162.412 17.5564 162.739 16.7627 162.739 15.8288C162.739 15.0584 162.482 14.4047 161.969 13.8911C161.642 13.6809 161.152 13.3541 160.451 13.0039Z" fill="black"/>
<path d="M126.086 13.0039L124.848 12.3736C124.708 12.3035 124.591 12.2335 124.451 12.1634C124.311 12.0934 124.218 12.0467 124.171 12.0234C124.125 12 124.078 11.9767 124.031 11.93C123.798 11.7899 123.681 11.5798 123.681 11.323C123.681 11.1129 123.751 10.9261 123.914 10.7627C124.101 10.5759 124.358 10.4825 124.661 10.4825C125.292 10.4825 125.782 10.786 126.156 11.3697L127.977 10.179C127.673 9.61869 127.276 9.19845 126.786 8.87161C126.226 8.49807 125.595 8.3113 124.848 8.3113C123.774 8.3113 122.91 8.63814 122.28 9.31519C121.696 9.92219 121.416 10.6693 121.416 11.5564C121.416 12.2568 121.673 12.8405 122.163 13.3308C122.42 13.5876 122.91 13.8911 123.611 14.2179L124.498 14.6381C124.965 14.8483 125.315 15.0584 125.549 15.2918C125.759 15.5253 125.875 15.7821 125.875 16.0856C125.875 16.4125 125.759 16.6693 125.525 16.9027C125.292 17.1362 124.965 17.2529 124.521 17.2529C124.078 17.2529 123.704 17.1129 123.447 16.856C123.237 16.6693 123.051 16.3424 122.864 15.8522L120.879 16.8093C121.136 17.6265 121.603 18.2568 122.233 18.7237C122.817 19.1673 123.564 19.4008 124.498 19.4008C125.735 19.4008 126.716 19.0039 127.44 18.2335C128.047 17.5564 128.374 16.7627 128.374 15.8288C128.374 15.0584 128.117 14.4047 127.603 13.8911C127.253 13.6809 126.763 13.3541 126.086 13.0039Z" fill="black"/>
<path d="M130.825 4.31906C130.381 4.31906 130.008 4.45913 129.704 4.76263C129.401 5.06614 129.261 5.43968 129.261 5.88326C129.261 6.32684 129.401 6.70038 129.704 7.00388C130.008 7.30738 130.381 7.44746 130.825 7.44746C131.268 7.44746 131.642 7.30738 131.946 7.00388C132.249 6.70038 132.389 6.32684 132.389 5.88326C132.389 5.43968 132.249 5.06614 131.946 4.76263C131.642 4.48248 131.268 4.31906 130.825 4.31906Z" fill="black"/>
<path d="M170.023 13.9844C169.743 13.6809 169.253 13.3541 168.553 13.0039L167.315 12.3736C167.175 12.3035 167.058 12.2335 166.918 12.1634C166.778 12.0934 166.685 12.0467 166.638 12.0234C166.591 12 166.545 11.9767 166.498 11.93C166.265 11.7899 166.148 11.5798 166.148 11.323C166.148 11.1129 166.218 10.9261 166.381 10.7627C166.568 10.5759 166.825 10.4825 167.128 10.4825C167.759 10.4825 168.249 10.786 168.623 11.3697L170.444 10.179C170.14 9.61869 169.743 9.19845 169.253 8.87161C168.693 8.49807 168.062 8.3113 167.315 8.3113C166.241 8.3113 165.377 8.63814 164.747 9.31519C164.163 9.92219 163.883 10.6693 163.883 11.5564C163.883 12.2568 164.14 12.8405 164.63 13.3308C164.887 13.5876 165.377 13.8911 166.078 14.2179L166.965 14.6381C167.432 14.8483 167.782 15.0584 168.016 15.2918C168.226 15.5253 168.342 15.7821 168.342 16.0856C168.342 16.4125 168.226 16.6693 167.992 16.9027C167.759 17.1362 167.432 17.2529 166.988 17.2529C166.545 17.2529 166.171 17.1129 165.914 16.856C165.704 16.6693 165.518 16.3424 165.331 15.8522L163.323 16.8093C163.58 17.6265 164.047 18.2568 164.677 18.7237C165.261 19.1673 166.008 19.4008 166.942 19.4008C168.179 19.4008 169.16 19.0039 169.883 18.2335C170.49 17.5564 170.817 16.7627 170.817 15.8288C170.794 15.1518 170.537 14.4981 170.023 13.9844Z" fill="black"/>
<path d="M132.062 8.66149H129.611V19.4942H132.062V8.66149Z" fill="black"/>
<path d="M149.385 8.63812C147.868 8.63812 146.607 9.15174 145.58 10.2023C144.553 11.2529 144.039 12.537 144.039 14.0778C144.039 15.6187 144.576 16.9027 145.603 17.9533C146.654 19.0039 147.914 19.5175 149.432 19.5175C151.346 19.5175 152.817 18.8405 153.868 17.5097L152.21 16.0856C151.51 16.9494 150.599 17.3696 149.432 17.3696C148.661 17.3696 147.961 17.1128 147.377 16.5992C146.77 16.0856 146.444 15.4085 146.35 14.5681H154.475C154.568 12.8171 154.125 11.393 153.167 10.2957C152.21 9.17509 150.903 8.63812 149.385 8.63812ZM146.444 12.8638C146.607 12.0934 146.957 11.5331 147.494 11.1595C148.031 10.786 148.615 10.5992 149.245 10.5992C149.969 10.5992 150.599 10.786 151.113 11.1829C151.626 11.5564 151.93 12.1167 152.047 12.8638H146.444Z" fill="black"/>
</svg>
