<svg width="230" height="43" viewBox="0 0 230 43" fill="none" xmlns="http://www.w3.org/2000/svg">
<path d="M8.48365 14.3063C9.66833 13.6473 11.0203 13.3109 12.5088 13.3109C13.7925 13.3109 14.9772 13.5855 16.0321 14.1313C16.6637 14.4573 17.2441 14.8898 17.7528 15.415C18.4527 16.1323 19.5827 16.2525 20.4396 15.6964C20.9859 15.3429 21.3409 14.7697 21.4126 14.1244C21.4877 13.4688 21.2658 12.8167 20.8084 12.3361C20.0982 11.5982 19.2584 10.9769 18.3093 10.4861C16.6261 9.61769 14.6904 9.17834 12.5498 9.17834C10.1463 9.17834 7.96813 9.70007 6.08017 10.7332C4.18879 11.7664 2.68661 13.2251 1.6146 15.0649C0.54259 16.9081 -0.000244141 19.0224 -0.000244141 21.353C-0.000244141 23.6836 0.54259 25.7979 1.6146 27.6411C2.68661 29.4843 4.18879 30.9465 6.08017 31.9934C7.96813 33.0403 10.1429 33.5689 12.5498 33.5689C14.6904 33.5689 16.6296 33.1226 18.3093 32.2371C19.2618 31.736 20.1051 31.1044 20.8186 30.3596C21.2727 29.8825 21.4877 29.2372 21.4092 28.585C21.3307 27.9397 20.9722 27.37 20.4226 27.0233C19.5691 26.481 18.4527 26.6045 17.7699 27.3151C17.2543 27.8505 16.6705 28.2864 16.0287 28.6194C14.9772 29.1617 13.7925 29.4397 12.5054 29.4397C11.0169 29.4397 9.66491 29.1068 8.48024 28.4443C7.29898 27.7853 6.36353 26.8379 5.69438 25.6195C5.02523 24.401 4.68382 22.9662 4.68382 21.353C4.68382 19.7707 5.02523 18.3497 5.69438 17.1312C6.36695 15.9127 7.30581 14.9619 8.48365 14.3063Z" fill="#0051FF"/>
<path d="M75.0258 0C73.7456 0 72.7043 1.04688 72.7043 2.33402V12.5694C71.7961 11.495 70.7515 10.6987 69.5258 10.1496C68.0339 9.47681 66.6375 9.17819 65.0022 9.17819C62.7455 9.17819 60.7551 9.67932 58.9115 10.7125C57.1294 11.7113 55.7467 13.1117 54.685 15.0029C53.5344 17.0521 52.9506 19.187 52.9506 21.3528C52.9506 23.5187 53.5344 25.6639 54.685 27.7268C55.7467 29.6318 57.1294 31.0425 58.9115 32.0378C60.7517 33.071 62.7455 33.5721 65.0022 33.5721C66.7024 33.5721 68.1397 33.2529 69.6624 32.5321C70.9119 31.9417 71.9703 31.1042 72.8818 29.9784V31.0596C72.8818 32.2987 73.8821 33.3044 75.1146 33.3044C76.3471 33.3044 77.3474 32.2987 77.3474 31.0596V2.33402C77.3474 1.04688 76.3061 0 75.0258 0ZM69.0786 28.4201C67.8461 29.1306 66.7331 29.4361 65.3573 29.4361C63.9234 29.4361 62.7045 29.1135 61.5199 28.4236C60.4137 27.7783 59.5363 26.8481 58.8364 25.5747C58.1673 24.3562 57.8259 22.9352 57.8259 21.3528C57.8259 19.7705 58.1673 18.3495 58.8364 17.131C59.5329 15.8645 60.4103 14.9412 61.5165 14.3062C62.7045 13.63 63.9234 13.3142 65.3573 13.3142C66.7331 13.3142 67.8461 13.6128 69.082 14.3062C70.2018 14.9377 71.0792 15.861 71.762 17.1276C72.4175 18.3495 72.7521 19.7705 72.7521 21.3528C72.7521 22.9352 72.4175 24.3562 71.762 25.5781C71.0758 26.8447 70.1984 27.7748 69.0786 28.4201Z" fill="#0051FF"/>
<path d="M98.1294 10.733C96.3575 9.69984 94.3125 9.17468 92.0524 9.17468C89.7923 9.17468 87.7336 9.69984 85.9344 10.7296C84.1318 11.7627 82.6979 13.2283 81.6669 15.0852C80.6392 16.9387 80.1203 19.0462 80.1203 21.3459C80.1203 23.6765 80.6563 25.7977 81.7112 27.6546C82.7696 29.5115 84.2854 30.9772 86.2246 32.0103C88.157 33.04 90.3966 33.5652 92.8888 33.5652C94.8485 33.5652 96.6477 33.2323 98.2352 32.5732C99.2014 32.1751 100.086 31.6568 100.864 31.0321C101.301 30.682 101.567 30.1843 101.622 29.6283C101.677 29.0688 101.506 28.5265 101.141 28.1008C100.451 27.2874 99.2355 27.1535 98.3786 27.7919C96.9174 28.88 95.1148 29.4292 93.022 29.4292C90.7858 29.4292 88.8944 28.8113 87.3956 27.5894C85.9812 26.4402 85.1094 24.915 84.8035 23.0574C84.7997 23.0344 84.8064 23.0107 84.8218 22.9931C84.8367 22.9759 84.8584 22.966 84.8812 22.966H102.329C103.145 22.966 103.807 22.3035 103.807 21.4763C103.807 19.0908 103.302 16.9387 102.305 15.0852C101.308 13.2352 99.9047 11.7696 98.1294 10.733ZM99.325 19.4454C99.3469 19.4424 99.3543 19.4735 99.3334 19.4807L99.2635 19.5048C99.2608 19.5057 99.258 19.5062 99.2552 19.5062H84.8782C84.8551 19.5062 84.8332 19.4962 84.8181 19.4788C84.8029 19.4613 84.7961 19.4379 84.7995 19.415C85.0708 17.6121 85.8438 16.1211 87.0952 14.9857C88.4164 13.7844 90.0859 13.1768 92.0524 13.1768C94.0189 13.1768 95.6849 13.7912 97.0062 15.0063C98.2584 16.1592 99.0324 17.6462 99.3045 19.43C99.306 19.4398 99.3152 19.4467 99.325 19.4454Z" fill="#0051FF"/>
<path d="M135.966 9.17834C133.975 9.17834 132.156 9.57307 130.565 10.3522C129.073 11.0799 127.871 12.0856 126.987 13.3418C126.215 12.0341 125.146 11.0147 123.801 10.311C122.367 9.55934 120.701 9.17834 118.858 9.17834C117.072 9.17834 115.457 9.50442 114.054 10.1497C112.835 10.7092 111.808 11.4986 110.992 12.5009V11.6462C110.992 10.4071 109.992 9.40145 108.759 9.40145C107.527 9.40145 106.526 10.4071 106.526 11.6462V31.0632C106.526 32.3023 107.527 33.308 108.759 33.308H108.937C110.169 33.308 111.169 32.3023 111.169 31.0632V20.9995C111.169 18.5522 111.787 16.6541 113.01 15.3566C114.228 14.0626 115.898 13.4036 117.977 13.4036C119.848 13.4036 121.302 13.9631 122.303 15.0649C123.306 16.1735 123.815 17.8554 123.815 20.0693V31.0632C123.815 32.3023 124.815 33.308 126.048 33.308H126.225C127.458 33.308 128.458 32.3023 128.458 31.0632V20.9995C128.458 18.5522 129.076 16.6541 130.298 15.3566C131.517 14.0626 133.187 13.4036 135.266 13.4036C137.137 13.4036 138.591 13.9631 139.591 15.0649C140.595 16.1735 141.104 17.8554 141.104 20.0693V31.0632C141.104 32.3023 142.104 33.308 143.337 33.308H143.514C144.747 33.308 145.747 32.3023 145.747 31.0632V19.5785C145.747 16.1701 144.859 13.5546 143.108 11.8075C141.346 10.0639 138.946 9.17834 135.966 9.17834Z" fill="#0051FF"/>
<path d="M158.888 9.17834C156.996 9.17834 155.18 9.44264 153.494 9.96436C152.449 10.287 151.479 10.7058 150.612 11.2034C149.663 11.7526 149.322 12.9849 149.858 13.9494C150.394 14.9207 151.626 15.2777 152.599 14.7388C153.149 14.4368 153.757 14.169 154.412 13.9425C155.709 13.4928 157.051 13.2663 158.403 13.2663C160.397 13.2663 161.923 13.74 162.94 14.6736C163.951 15.6038 164.463 16.9699 164.463 18.7341V19.3245C164.463 19.3519 164.442 19.3725 164.415 19.3725H157.963C154.665 19.3725 152.22 20.0212 150.691 21.305C149.151 22.5955 148.369 24.3254 148.369 26.4501C148.369 28.5747 149.189 30.3149 150.803 31.6193C152.405 32.9133 154.562 33.5689 157.215 33.5689C159.028 33.5689 160.622 33.2737 161.947 32.6867C162.918 32.2594 163.736 31.6834 164.387 30.9718C164.488 30.8614 164.681 30.9306 164.681 31.0804C164.681 32.3057 165.672 33.3011 166.89 33.3011C168.109 33.3011 169.099 32.3057 169.099 31.0804V18.9126C169.099 15.7067 168.208 13.2526 166.453 11.6256C164.705 10.0021 162.162 9.17834 158.888 9.17834ZM164.463 22.8907V24.5153C164.463 25.4168 164.33 26.3375 163.825 27.0843C163.348 27.789 162.739 28.3723 162.001 28.8253C160.865 29.5255 159.492 29.8825 157.918 29.8825C156.351 29.8825 155.119 29.553 154.248 28.9042C153.384 28.259 152.964 27.4009 152.964 26.275C152.964 23.965 154.658 22.8461 158.14 22.8461H164.341C164.39 22.8461 164.463 22.8416 164.463 22.8907Z" fill="#0051FF"/>
<path d="M194.076 9.39779C192.857 9.39779 191.867 10.3932 191.867 11.6185C191.867 11.974 191.412 12.1469 191.155 11.9014C190.38 11.1615 189.519 10.5967 188.518 10.1666C186.9 9.46987 185.469 9.17468 183.742 9.17468C181.543 9.17468 179.71 9.62089 177.805 10.6163C176.036 11.5396 174.65 12.8782 173.564 14.7042C172.523 16.4582 171.994 18.4833 171.994 20.7281C171.994 22.9729 172.523 24.998 173.564 26.7519C174.654 28.5779 176.04 29.9234 177.805 30.8605C179.71 31.873 181.543 32.3261 183.742 32.3261C185.411 32.3261 186.784 32.0481 188.34 31.4028C189.214 31.0408 189.989 30.5679 190.707 29.9538C191.058 29.6531 191.645 29.8867 191.645 30.349C191.645 32.9371 191.007 34.8867 189.744 36.1429C188.48 37.3992 186.49 38.0341 183.824 38.0341C182.1 38.0341 180.454 37.763 178.931 37.2241C178.368 37.025 177.747 36.7951 176.897 36.3557C175.842 35.81 174.599 36.1223 174.008 37.0834C173.701 37.5811 173.605 38.168 173.742 38.7344C173.875 39.2904 174.213 39.7572 174.695 40.0524C175.654 40.6359 176.538 40.9174 177.59 41.2503C179.508 41.8578 181.649 42.1667 183.957 42.1667C188.02 42.1667 191.123 41.1542 193.182 39.16C195.24 37.1623 196.285 34.0492 196.285 29.9028V11.6185C196.285 10.3966 195.295 9.39779 194.076 9.39779ZM191.734 20.7315C191.734 22.1628 191.396 23.4637 190.727 24.5929C190.01 25.8046 189.153 26.6455 188.033 27.2427C186.784 27.9086 185.643 28.1935 184.227 28.1935C182.776 28.1935 181.625 27.9086 180.375 27.2427C179.256 26.6455 178.399 25.8046 177.682 24.5929C177.013 23.4637 176.675 22.1628 176.675 20.7315C176.675 18.4353 177.357 16.6779 178.764 15.3633C180.28 13.9457 181.963 13.3141 184.227 13.3141C186.422 13.3141 188.016 13.9285 189.549 15.3633C191 16.7191 191.734 18.5245 191.734 20.7315Z" fill="#0051FF"/>
<path d="M202.764 9.39807C201.483 9.39807 200.442 10.4449 200.442 11.7321V30.9706C200.442 32.2577 201.483 33.3046 202.764 33.3046C204.044 33.3046 205.085 32.2577 205.085 30.9706V11.7321C205.085 10.4449 204.044 9.39807 202.764 9.39807Z" fill="#0051FF"/>
<path d="M228.999 27.0233C228.146 26.481 227.029 26.6045 226.346 27.3151C225.831 27.8505 225.247 28.2864 224.605 28.6194C223.554 29.1617 222.369 29.4397 221.082 29.4397C219.593 29.4397 218.241 29.1068 217.057 28.4443C215.876 27.7853 214.94 26.8379 214.271 25.6195C213.602 24.401 213.26 22.9662 213.26 21.353C213.26 19.7707 213.602 18.3497 214.271 17.1312C214.94 15.9161 215.876 14.9653 217.057 14.3063C218.241 13.6473 219.593 13.3109 221.082 13.3109C222.366 13.3109 223.55 13.5855 224.605 14.1313C225.237 14.4573 225.817 14.8898 226.326 15.415C227.026 16.1323 228.156 16.2525 229.013 15.6964C229.559 15.3429 229.914 14.7697 229.986 14.1244C230.061 13.4688 229.842 12.8167 229.381 12.3361C228.671 11.5982 227.831 10.9769 226.882 10.4861C225.199 9.61769 223.264 9.17834 221.123 9.17834C218.719 9.17834 216.541 9.70007 214.653 10.7332C212.762 11.7664 211.26 13.2251 210.188 15.0649C209.116 16.9046 208.573 19.0224 208.573 21.353C208.573 23.6836 209.116 25.7979 210.188 27.6411C211.26 29.4843 212.762 30.9465 214.653 31.9934C216.541 33.0403 218.716 33.5689 221.123 33.5689C223.264 33.5689 225.199 33.1226 226.882 32.2371C227.835 31.736 228.682 31.1044 229.392 30.3596C229.846 29.8825 230.061 29.2372 229.982 28.585C229.904 27.9397 229.545 27.37 228.999 27.0233Z" fill="#0051FF"/>
<path d="M49.6296 19.1734L42.8629 15.8371C42.7844 15.7994 42.7195 15.7342 42.6786 15.6518L39.3533 8.85566C38.9129 7.95638 38.0525 7.5033 37.1956 7.50673C36.3387 7.51017 35.4783 7.95981 35.0379 8.85909L31.7195 15.6621C31.6819 15.741 31.6171 15.8062 31.5351 15.8474L24.7753 19.194C22.9829 20.0796 22.9864 22.6504 24.7787 23.5325L31.5454 26.8688C31.6239 26.9066 31.6888 26.9718 31.7297 27.0542L35.0584 33.8503C35.4988 34.7495 36.3592 35.2026 37.2161 35.1992C38.0764 35.1992 38.9334 34.7461 39.3738 33.8468L42.6922 27.0439C42.7298 26.9649 42.7946 26.8997 42.8766 26.8585L49.6364 23.5119C51.4219 22.6264 51.4219 20.059 49.6296 19.1734ZM44.5904 19.6539L41.4597 22.4067C40.835 22.9559 40.4014 23.711 40.2409 24.5313L39.4352 28.633C39.384 28.8905 39.0631 28.9763 38.8924 28.7806L36.1543 25.6331C35.6081 25.005 34.857 24.5691 34.041 24.4044L29.9612 23.5943C29.7052 23.5428 29.6198 23.2202 29.8144 23.0486L32.9485 20.2958C33.5733 19.7466 34.0069 18.9915 34.1673 18.1746L34.9731 14.0729C35.0243 13.8155 35.3452 13.7296 35.5159 13.9253L38.2574 17.0762C38.8036 17.7043 39.5547 18.1403 40.3673 18.3016L44.447 19.1116C44.6997 19.1597 44.7884 19.4823 44.5904 19.6539Z" fill="url(#paint0_linear_217_2960)"/>
<defs>
<linearGradient id="paint0_linear_217_2960" x1="23.428" y1="21.3516" x2="50.9743" y2="21.3516" gradientUnits="userSpaceOnUse">
<stop offset="1.19808e-07" stop-color="#EC0C43"/>
<stop offset="1" stop-color="#FF9100"/>
</linearGradient>
</defs>
</svg>
