<svg width="92" height="92" viewBox="0 0 92 92" fill="none" xmlns="http://www.w3.org/2000/svg">
<g id="Logo = Crunchyroll, Format=Vertical, Registered=False, Beta=False">
<path id="Logo" fill-rule="evenodd" clip-rule="evenodd" d="M46.0001 0C65.3301 0 81 15.6702 81 34.9992C81 35.6902 80.9792 36.3777 80.9395 37.0592C79.8341 21.0754 66.5187 8.45043 50.2535 8.45043C33.2619 8.45043 19.4887 22.2237 19.4887 39.214C19.4887 55.5749 32.261 68.9492 48.3784 69.9195C47.5933 69.9711 46.7996 70 46.0001 70C26.6699 70 11 54.3299 11 34.9992C11 15.6702 26.6699 0 46.0001 0ZM52.0459 16.3981C56.1759 16.3981 60.0665 17.4168 63.4838 19.2166C59.1721 20.772 56.0873 24.901 56.0873 29.7511C56.0873 35.9341 61.1001 40.9477 67.2834 40.9477C70.9392 40.9477 74.1846 39.1948 76.2275 36.4854C76.4992 37.9476 76.642 39.4533 76.642 40.9928C76.642 54.5773 65.6298 65.5891 52.0459 65.5891C38.461 65.5891 27.4498 54.5773 27.4498 40.9928C27.4498 27.4099 38.461 16.3981 52.0459 16.3981ZM12.0222 86.6577C11.3875 86.9154 10.6822 87.0838 9.89432 87.0838C8.45219 87.0838 7.55833 86.6404 7.55833 84.465C7.55833 82.274 8.45219 81.8495 9.89432 81.8495C10.6822 81.8495 11.3875 82.0013 12.0222 82.2558V80.556C11.2837 80.2665 10.4594 80.0809 9.54982 80.0809C6.94159 80.0809 5.5 81.6434 5.5 84.465C5.5 87.2856 6.94159 88.8336 9.54982 88.8336C10.4594 88.8336 11.2837 88.6447 12.0222 88.3574V86.6577ZM18.4802 81.8406V80.0811C18.4802 80.0811 14.0331 79.9025 14.0331 81.168V88.6616H16.0844V82.3426C16.0844 81.8707 17.1966 81.8568 18.284 81.8431C18.3496 81.8423 18.4151 81.8415 18.4802 81.8406ZM27.5802 84.8559V80.2183H25.561V85.1297C25.561 86.4873 25.0605 86.9521 23.8091 86.9521C22.5745 86.9521 22.073 86.4873 22.073 85.1297V80.2183H20.0543V84.8559C20.0543 87.3552 20.8732 88.8295 23.8091 88.8295C26.7385 88.8295 27.5802 87.3552 27.5802 84.8559ZM44.7347 86.6635C44.0984 86.9217 43.3941 87.0896 42.6046 87.0896C41.1614 87.0896 40.2681 86.6473 40.2681 84.4698C40.2681 82.2761 41.1614 81.85 42.6046 81.85C43.3941 81.85 44.0984 82.0028 44.7347 82.2562V80.5559C43.9962 80.2664 43.1708 80.0813 42.2606 80.0813C39.6497 80.0813 38.2059 81.6433 38.2059 84.4698C38.2059 87.2941 39.6497 88.8421 42.2606 88.8421C43.1708 88.8421 43.9962 88.6543 44.7347 88.3659V86.6635ZM54.1141 88.662V83.5848C54.1141 81.3825 52.7154 80.081 50.3381 80.081C49.6719 80.081 49.1084 80.1821 48.6286 80.3677V77H46.5779V88.662H48.6286V82.1267C48.9699 81.976 49.4328 81.8722 49.9963 81.8722C51.9123 81.8722 52.0807 82.6696 52.0807 83.4153V88.662H54.1141ZM58.302 88.3162C58.2282 88.5106 58.1401 88.6996 56.7779 91.9978L58.9237 92L60.1659 88.8652L63.4115 80.218H61.2418L59.3627 86.1055L57.4473 80.218H55.2754L58.3368 88.2223C58.323 88.2599 58.3126 88.2881 58.302 88.3162ZM69.29 81.8406V80.0811C69.29 80.0811 64.8315 79.8987 64.8315 81.168V88.6616H66.8828V82.3383C66.8828 81.8707 68.0027 81.8568 69.0914 81.8432C69.1578 81.8423 69.2241 81.8415 69.29 81.8406ZM74.1948 81.7801C75.4125 81.7801 76.1852 82.2207 76.1852 84.4639C76.1852 86.7082 75.4125 87.1478 74.1948 87.1478C72.9755 87.1478 72.2049 86.7082 72.2049 84.4639C72.2049 82.2207 72.9755 81.7801 74.1948 81.7801ZM74.1948 88.8292C76.802 88.8292 78.2463 87.2839 78.2463 84.4639C78.2463 81.6434 76.802 80.0986 74.1948 80.0986C71.5882 80.0986 70.145 81.6434 70.145 84.4639C70.145 87.2839 71.5882 88.8292 74.1948 88.8292ZM82.0562 88.6621H80.0055V77.0001H82.0562V88.6621ZM86.5 88.6621H84.4493V77.0001H86.5V88.6621ZM36.8665 88.6581V83.3668C36.8665 81.0149 35.6798 80.077 33.3563 80.077C31.2338 80.077 29.4765 80.2627 29.4765 81.6708V88.6581H31.4843V82.3165C31.4843 81.9559 32.5205 81.8817 33.0878 81.8817C34.8763 81.8817 34.8757 82.6367 34.875 83.3692L34.875 83.4109V88.6581H36.8665Z" fill="#F47521"/>
</g>
</svg>
