<?xml version="1.0" encoding="UTF-8" standalone="no"?>
<!DOCTYPE svg PUBLIC "-//W3C//DTD SVG 1.1//EN" "http://www.w3.org/Graphics/SVG/1.1/DTD/svg11.dtd">
<svg xmlns="http://www.w3.org/2000/svg" xmlns:xlink="http://www.w3.org/1999/xlink" version="1.1" width="90pt" height="23pt" viewBox="0 0 90 23">
<g enable-background="new">
<path transform="matrix(1,0,0,-1,0,23)" d="M 0 11.461056 C 0 15.206573 2.722931 17.508866 7.07682 17.508866 L 11.584705 17.508866 L 11.584705 23 L 17.226563 23 L 17.226563 5.75 L 7.055821 5.75 C 2.722931 5.75 0 7.962948 0 11.461056 Z M 5.976562 11.486524 C 5.976562 10.078223 6.866196 9.34375 8.575411 9.34375 L 11.601562 9.34375 L 11.601562 13.65625 L 8.603431 13.65625 C 6.894216 13.65625 5.976562 12.915039 5.976562 11.486524 Z M 53.4375 11.538944 C 53.4375 7.793427 50.71457 5.491135 46.36068 5.491135 L 41.852796 5.491135 L 41.852796 0 L 36.210939 0 L 36.210939 17.25 L 46.38168 17.25 C 50.71457 17.25 53.4375 15.037052 53.4375 11.538944 Z M 47.460939 11.513476 C 47.460939 12.921777 46.570196 13.65625 44.85885 13.65625 L 41.835939 13.65625 L 41.835939 9.34375 L 44.837808 9.34375 C 46.549154 9.34375 47.460939 10.084961 47.460939 11.513476 Z M 90 11.538944 C 90 7.793427 87.27707 5.491135 82.92318 5.491135 L 78.41529 5.491135 L 78.41529 0 L 72.77344 0 L 72.77344 17.25 L 82.944179 17.25 C 87.27707 17.25 90 15.037052 90 11.538944 Z M 84.02344 11.513476 C 84.02344 12.921777 83.1327 13.65625 81.42135 13.65625 L 78.39844 13.65625 L 78.39844 9.34375 L 81.40031 9.34375 C 83.11166 9.34375 84.02344 10.084961 84.02344 11.513476 Z M 54.84375 11.527615 C 54.84375 15.725054 58.245424 17.96875 62.929689 17.96875 C 67.61395 17.96875 71.015628 15.725054 71.015628 11.527615 C 71.015628 7.330175 67.61395 5.03125 62.929689 5.03125 C 58.245424 5.038155 54.84375 7.330175 54.84375 11.527615 Z M 65.74219 11.703472 C 65.74219 13.721808 64.694538 14.734375 63.10547 14.734375 C 61.516408 14.734375 60.46875 13.721808 60.46875 11.703472 C 60.46875 9.712318 61.516408 8.625 63.10547 8.625 C 64.70156 8.631796 65.74219 9.712318 65.74219 11.703472 Z M 34.453126 11.230757 C 34.453126 15.428196 31.719664 17.96875 26.78135 17.96875 C 22.037785 17.96875 18.984375 15.428195 18.984375 11.451674 C 18.984375 7.426828 22.009964 5.03125 27.052609 5.03125 C 30.224259 5.03125 32.783838 6.204876 34.13318 8.110292 L 30.112973 9.560065 C 29.417435 8.807564 28.367173 8.393343 27.261269 8.393343 C 25.598935 8.393343 24.444344 9.056096 24.145262 10.181396 C 24.124396 10.257337 24.110486 10.326374 24.096575 10.409218 L 24.124396 10.409218 L 34.453126 10.409218 L 34.453126 11.230757 Z M 23.90625 12.9375 C 24.036543 14.272639 24.976025 15.09375 26.608117 15.09375 C 28.240208 15.09375 29.179688 14.225909 29.179688 12.9375 L 23.90625 12.9375 Z " fill="#e81f00"/>
</g>
</svg>
