<?xml version="1.0" encoding="utf-8"?>
<!-- Generator: Adobe Illustrator 25.0.1, SVG Export Plug-In . SVG Version: 6.00 Build 0)  -->
<svg version="1.1" id="Слой_1" xmlns="http://www.w3.org/2000/svg" xmlns:xlink="http://www.w3.org/1999/xlink" x="0px" y="0px"
	 viewBox="0 0 81.815 85.039" style="enable-background:new 0 0 81.815 85.039;" xml:space="preserve">
<style type="text/css">
	.st0{fill:#FF6900;}
	.st1{fill:#231F20;}
	.st2{fill:#FFFFFF;}
</style>
<g>
	<path class="st0" d="M38.542,7.526c20.383,0,36.038,14.022,36.038,34.83c0,20.92-15.654,35.169-36.038,35.169H15.682
		c-4.617,0-8.447-3.053-8.447-8.368V16.233c0-5.315,3.829-8.707,8.447-8.707H38.542z"/>
	<path d="M18.209,77.531c5.848-3.238,8.749-6.205,10.759-8.99c3.916,1.745,7.685,2.495,11.081,2.495
		c6.366,0,11.793-2.932,14.622-8.163c2.912-1.748,4.843-5.341,4.964-7.908c1.814-2.282,2.149-5.162,1.592-7.106
		c-0.133-0.464-0.51-0.477-1.162-0.08c-5.737,3.439-11.292,5.078-16.594,5.078c-3.215,0-6.512-0.511-10.02-1.526
		c-0.25-3.761-1.023-6.913-1.31-8.824c-0.41-2.524,0.173-4.391,2.943-4.391c2.032,0,5.792,0.516,8.796,1.882
		c2.976,1.353,4.746,4.017,5.983,4.017c0.502,0,1.031-0.312,1.031-1.375c0-2.154-0.768-5.622-1.723-6.857
		c2.784-0.159,4.996-0.131,6.24,0.01c2.592,0.451,2.714,1.752,3.225,2.6c0.51,0.848,1.376,1.218,2.417,1.218
		c1.928,0,3.13-0.994,3.13-4.584c0-7.885-4.977-11.706-10.198-11.706c-4.286,0-5.941,0.943-10.011,0.943
		c-2.887,0-5.279-5.874-8.56-6.647c-1.449-3.223-4.699-3.587-6.7-1.967c-1.818-1.106-4.66-0.51-4.777,1.532
		c-2.091-0.647-4.792,0.481-3.628,3.229c-5.113,0.145-6.067,4.666-2.598,5.171c-4.466,2.528-2.425,6.893,1.323,5.965
		c0.264,3.101,1.521,8.107,1.521,11.565c0,4.808-2.181,5.924-5.162,5.924c-2.356,0-5.814-0.856-8.157-1.524v3.352
		c2.371,0.59,5.927,1.346,8.595,1.346c4.699,0,7.306-2.757,7.306-8.007c0-6.447-2.063-12.308-1.386-15.98l-0.165-0.213
		c-2.348,2.45-3.874,1.802-4.041,1.013c-0.335-1.58,2.414-3.513,3.984-4.185c0.03-0.103,0.07-0.211,0.113-0.32
		c-1.469,0.227-3.195,0.041-3.255-1.011c-0.071-1.247,2.431-2.36,5.701-2.083c0.062-0.052,0.126-0.104,0.189-0.157
		c-0.206-0.082-0.425-0.185-0.701-0.327c-0.845-0.435-1.051-1.159-0.774-1.684c0.303-0.577,1.227-0.803,1.978-0.787
		c1.177,0.025,2.178,0.31,2.91,0.607c0.083-0.035,0.166-0.07,0.245-0.1c-0.272-0.212-0.508-0.444-0.646-0.68
		c-0.202-0.347-0.252-0.824,0.14-1.133c0.457-0.361,1.618-0.489,2.667,0.464c0.217,0.197,0.401,0.387,0.567,0.571
		c0.117-0.022,0.234-0.045,0.353-0.064c-0.173-0.267-0.311-0.546-0.356-0.804c-0.061-0.354,0.054-0.735,0.47-0.869
		c0.454-0.147,1.028,0.086,1.327,0.528c0.32,0.474,0.515,1.056,0.638,1.471c-2.313,0.269-8.448,1.67-8.448,9.085
		c0,7.231,6.007,14.826,6.007,26.033c-0.01,4.072-0.908,8.157-4.6,12.916c-2.851,3.675-7.38,7.221-14.442,10.132
		c1.212,0.594,2.601,0.906,4.071,0.906H18.209z M46.474,32.034c0.706-2.106,1.321-3.695,2.467-4.907
		c1.208-1.277,2.55-1.675,5.495-1.675c4.067,0,7.465,4.111,7.465,9.859c0,0.854-1.146,0.848-1.514,0.067
		c-1.384-2.443-3.258-2.794-6.209-3.011c-2.178-0.128-4.806,0.057-7.199,0.159C46.532,32.548,46.407,32.235,46.474,32.034z
		 M33.499,55.095c3.218,0.894,7.667,1.371,11.357,1.112c6.487-0.455,11.356-2.87,14.097-4.629
		c-1.646,4.159-7.823,6.743-13.812,7.474c-0.039,0.303-0.084,0.598-0.138,0.884c4.492-0.239,8.758-1.699,10.692-3.032
		c-1.106,4.091-6.6,5.735-11.589,5.972c-0.141,0.321-0.289,0.625-0.443,0.912c2.905,0.052,5.686-0.487,7.344-1.009
		c-1.492,2.847-6.638,5.096-11.88,5.096c-2.577,0-5.791-0.502-8.581-1.83C32.562,62.358,33.34,58.578,33.499,55.095z"/>
	<path class="st1" d="M7.235,61.088c2.458-0.488,4.877-0.941,4.877-0.941l0.308-1.325c-1.11-0.056-3.309-0.03-5.185,0.02V61.088z"/>
	<path class="st2" d="M33.726,21.517c0.859-0.289,2.093,0.558,2.753,1.886c0.66,1.328,0.497,2.644-0.36,2.927
		c-0.851,0.301-2.08-0.546-2.744-1.88c-0.09-0.18-0.16-0.359-0.219-0.535l0.15-0.042c0.275,0.261,0.604,0.333,0.823,0.192
		c0.302-0.198,0.27-0.725,0.016-1.18c-0.182-0.372-0.603-0.763-0.952-0.733l-0.061-0.079C33.261,21.807,33.458,21.61,33.726,21.517
		 M39.745,34.877c-3.845-0.845-8.055-1.961-10.299-5.261c-0.042-0.061-0.118-0.089-0.19-0.069c-0.071,0.02-0.122,0.085-0.125,0.159
		c-0.008,0.18,0.016,0.377,0.056,0.574l-0.305,0.115c-0.592-0.833-0.712-1.846-0.126-2.573c0.845-1.047,2.559-0.939,3.582-0.294
		l-0.13,0.282c-0.549-0.092-1.072-0.092-1.48,0.156c-0.347,0.211-0.395,0.524-0.181,0.922c1.864,3.465,7.283,4.216,13.723,3.715
		c0.665-0.052,0.818-0.352,0.904-0.672c0.559-2.231,1.573-4.219,3.083-5.736c-1.174,0.165-2.266,0.202-3.219,0.254
		c-3.326,0.21-5.228-0.227-5.822-0.701l0.109-0.289c0.354,0.122,0.721,0.149,0.797,0.046c0.104-0.141,0.024-0.229-0.138-0.371
		c-0.631-0.592-3.469-3.5-3.463-3.483c-0.307-2.46-3.888-2.548-5.315-0.129l-0.485-0.13c0.141-0.531,0.353-0.963,0.551-1.278
		c-2.991,0.676-4.692,3.359-5,5.953c-1.326,11.144,15.577,8.569,20.407,13.032c0.092,0.072,0.321,0.399,0.487,0.192
		C47.354,38.684,45.225,36.089,39.745,34.877"/>
	<path class="st2" d="M58.949,51.572c-2.74,1.757-7.614,4.176-14.097,4.631c-3.688,0.259-8.142-0.221-11.358-1.114
		c-0.049,1.072-0.158,2.18-0.342,3.297c1.812,0.466,5.04,1.081,9.696,1.212c-0.207,1.252-1.479,5.501-4.732,8.248
		c5.931,0.249,11.306-2.058,12.886-5.073c-1.657,0.522-4.441,1.061-7.344,1.009c0.154-0.287,0.302-0.59,0.443-0.912
		c4.985-0.236,10.484-1.884,11.59-5.972c-1.933,1.332-6.203,2.793-10.692,3.032c0.054-0.285,0.099-0.581,0.138-0.884
		C51.122,58.315,57.303,55.728,58.949,51.572z"/>
</g>
</svg>
