<?xml version="1.0" encoding="utf-8"?>
<!-- Generator: Adobe Illustrator 21.0.0, SVG Export Plug-In . SVG Version: 6.00 Build 0)  -->
<svg version="1.1" id="Layer_1" xmlns="http://www.w3.org/2000/svg" xmlns:xlink="http://www.w3.org/1999/xlink" x="0px" y="0px"
	 viewBox="0 0 1411.4 267.2" style="enable-background:new 0 0 1411.4 267.2;" xml:space="preserve">
<style type="text/css">
	.st0{clip-path:url(#SVGID_2_);fill:#020202;}
	.st1{clip-path:url(#SVGID_4_);fill:#020202;}
</style>
<g>
	<defs>
		<rect id="SVGID_1_" x="386.7" y="14.6" width="1020.2" height="236.1"/>
	</defs>
	<clipPath id="SVGID_2_">
		<use xlink:href="#SVGID_1_"  style="overflow:visible;"/>
	</clipPath>
	<path class="st0" d="M412.1,132.8c0,7.1,1.4,13.7,4.2,19.8c2.8,6.1,6.5,11.5,11.1,16c4.6,4.5,10,8.2,16.2,10.9
		c6.1,2.7,12.8,4,19.8,4c9.6,0,18.4-2.4,26.3-7.2c7.9-4.8,14.1-11.2,18.4-19.1h19.7c-3.5,8.9-8.8,16.8-15.7,23.7
		c-6.6,6.4-14,11.4-22.4,14.9c-8.3,3.5-17.1,5.3-26.4,5.3c-9.3,0-18.1-1.8-26.5-5.3c-8.4-3.5-15.8-8.5-22.2-14.9
		c-6.6-6.6-11.6-14-15-22.4c-3.5-8.3-5.2-17.1-5.2-26.4c0-9.3,1.7-18.1,5.2-26.5c3.4-8.4,8.5-15.8,15-22.2
		c6.4-6.6,13.8-11.6,22.2-15.2c8.4-3.5,17.3-5.3,26.5-5.3c9.3,0,18.1,1.8,26.4,5.3c8.3,3.5,15.8,8.6,22.4,15.2
		c6.6,6.4,11.6,13.9,15,22.5c3.5,8.6,5.2,17.5,5.2,26.8H412.1z M463.4,80.8c-5.6,0-10.9,0.8-15.9,2.5c-5.1,1.7-9.7,4-13.9,7.1
		c-4.2,3-7.9,6.7-11.1,10.9c-3.2,4.2-5.7,8.8-7.6,13.9h96.7c-3.7-10.1-9.9-18.4-18.6-24.8C484.4,84,474.5,80.8,463.4,80.8"/>
	<path class="st0" d="M667.2,88.9c2.4-3.7,5-7,7.8-9.9c5.4-5.4,11.5-9.5,18.4-12.2c6.9-2.8,14.1-4.2,21.7-4.2
		c7.6,0,14.8,1.4,21.7,4.2c6.9,2.8,13,6.9,18.4,12.2c5.4,5.4,9.5,11.5,12.4,18.4c2.9,6.9,4.3,14.1,4.3,21.7v76.3h-17.7v-76.3
		c0-5.4-1.1-10.4-3.2-15.2c-2.1-4.7-4.9-8.8-8.5-12.4c-3.5-3.5-7.7-6.3-12.4-8.3c-4.7-2-9.8-3-15.2-3c-5.2,0-10.2,1-14.9,2.9
		c-4.7,1.9-8.8,4.7-12.4,8.2c-3.5,3.5-6.4,7.7-8.5,12.4c-2.1,4.7-3.2,9.9-3.4,15.4v76.3h-17.7v-76.3h0c-0.2-5.6-1.3-10.7-3.4-15.4
		c-2.1-4.7-4.9-8.8-8.5-12.4c-3.5-3.5-7.7-6.3-12.4-8.2c-4.7-1.9-9.7-2.9-14.9-2.9c-5.4,0-10.4,1-15.2,3c-4.7,2-8.8,4.8-12.4,8.3
		c-3.5,3.5-6.4,7.7-8.5,12.4c-2.1,4.7-3.2,9.8-3.2,15.2v76.3h-17.7v-76.3c0-7.6,1.4-14.8,4.3-21.7c2.9-6.9,7-13,12.4-18.4
		c5.4-5.4,11.5-9.5,18.4-12.2c6.9-2.8,14.1-4.2,21.7-4.2c7.6,0,14.8,1.4,21.7,4.2c6.9,2.8,13.1,6.9,18.4,12.2
		C662.3,81.9,664.9,85.2,667.2,88.9L667.2,88.9z"/>
	<path class="st0" d="M822.6,83.3c6.4-6.4,13.8-11.4,22.2-14.9c8.4-3.5,17.3-5.3,26.5-5.3c9.3,0,18.1,1.8,26.5,5.3
		c8.4,3.5,15.8,8.5,22.2,14.9c6.6,6.6,11.6,14.1,15,22.5c3.5,8.4,5.2,17.3,5.2,26.5c0,9.1-1.7,17.9-5.2,26.3
		c-3.5,8.4-8.5,15.9-15,22.5c-6.4,6.4-13.8,11.4-22.2,14.9c-8.4,3.5-17.3,5.3-26.5,5.3c-9.3,0-18.1-1.8-26.5-5.3
		c-8.4-3.5-15.8-8.5-22.2-14.9c-1.2-1.2-2-2.1-2.5-2.8v66.9h-17.7V132.3c0-9.3,1.7-18.1,5.2-26.5C811,97.4,816,89.9,822.6,83.3
		 M871.3,183.6c7.1,0,13.7-1.3,20-4c6.2-2.7,11.7-6.4,16.3-11c4.6-4.6,8.3-10.1,11-16.3c2.7-6.2,4-12.9,4-20c0-7.1-1.3-13.8-4-20.1
		c-2.7-6.3-6.4-11.8-11-16.4c-4.6-4.6-10.1-8.3-16.3-11c-6.2-2.7-12.9-4-20-4c-7.1,0-13.7,1.3-20,4c-6.2,2.7-11.7,6.4-16.3,11
		c-4.6,4.6-8.3,10.1-11,16.4c-2.7,6.3-4,13-4,20.1c0,7.1,1.3,13.7,4,20c2.7,6.2,6.4,11.7,11,16.3c4.6,4.6,10.1,8.3,16.3,11
		C857.6,182.2,864.3,183.6,871.3,183.6"/>
	<rect x="970.6" y="21.2" class="st0" width="17.7" height="174.2"/>
	<path class="st0" d="M1136.3,83.3c6.6,6.6,11.6,14.1,15,22.5c3.5,8.4,5.2,17.3,5.2,26.5v63.1h-17.7v-18.9
		c-3.4,4.7-7.1,8.6-11.1,11.7c-4,3.1-8.3,5.6-12.8,7.6c-4.5,1.9-9.1,3.3-13.8,4.2c-4.7,0.8-9.3,1.3-13.6,1.3
		c-9.3,0-18.1-1.8-26.5-5.3c-8.4-3.5-15.8-8.5-22.2-14.9c-6.6-6.6-11.6-14.1-15-22.5c-3.5-8.4-5.2-17.2-5.2-26.3
		c0-9.3,1.7-18.1,5.2-26.5c3.5-8.4,8.5-15.9,15-22.5c6.4-6.4,13.8-11.4,22.2-14.9c8.4-3.5,17.3-5.3,26.5-5.3
		c9.3,0,18.1,1.8,26.5,5.3C1122.5,71.9,1129.9,76.9,1136.3,83.3 M1087.5,183.6c7.1,0,13.7-1.3,20-4c6.2-2.7,11.7-6.4,16.3-11
		c4.6-4.6,8.3-10.1,11-16.3c2.7-6.2,4-12.9,4-20c0-7.1-1.3-13.8-4-20.1c-2.7-6.3-6.4-11.8-11-16.4c-4.6-4.6-10.1-8.3-16.3-11
		c-6.2-2.7-12.9-4-20-4s-13.7,1.3-20,4c-6.2,2.7-11.7,6.4-16.3,11c-4.6,4.6-8.3,10.1-11,16.4c-2.7,6.3-4,13-4,20.1
		c0,7.1,1.3,13.7,4,20c2.7,6.2,6.4,11.7,11,16.3c4.6,4.6,10.1,8.3,16.3,11C1073.8,182.2,1080.5,183.6,1087.5,183.6"/>
	<polygon class="st0" points="1184.3,80.8 1184.3,63.1 1197.2,63.1 1197.2,21.2 1214.9,21.2 1214.9,63.1 1247.9,63.1 1247.9,80.8 
		1214.9,80.8 1214.9,195.5 1197.2,195.5 1197.2,80.8 	"/>
	<path class="st0" d="M1278.3,132.8c0,7.1,1.4,13.7,4.2,19.8c2.8,6.1,6.5,11.5,11.1,16c4.6,4.5,10,8.2,16.2,10.9
		c6.1,2.7,12.8,4,19.8,4c9.6,0,18.4-2.4,26.3-7.2c7.9-4.8,14.1-11.2,18.4-19.1h19.7c-3.5,8.9-8.8,16.8-15.7,23.7
		c-6.6,6.4-14,11.4-22.4,14.9c-8.3,3.5-17.1,5.3-26.4,5.3c-9.3,0-18.1-1.8-26.5-5.3c-8.4-3.5-15.8-8.5-22.2-14.9
		c-6.6-6.6-11.6-14-15-22.4c-3.5-8.3-5.2-17.1-5.2-26.4c0-9.3,1.7-18.1,5.2-26.5c3.5-8.4,8.5-15.8,15-22.2
		c6.4-6.6,13.8-11.6,22.2-15.2c8.4-3.5,17.3-5.3,26.5-5.3c9.3,0,18.1,1.8,26.4,5.3c8.3,3.5,15.8,8.6,22.4,15.2
		c6.6,6.4,11.6,13.9,15,22.5c3.5,8.6,5.2,17.5,5.2,26.8H1278.3z M1329.5,80.8c-5.6,0-10.9,0.8-15.9,2.5c-5.1,1.7-9.7,4-13.9,7.1
		c-4.2,3-7.9,6.7-11.1,10.9c-3.2,4.2-5.7,8.8-7.6,13.9h96.7c-3.7-10.1-9.9-18.4-18.6-24.8C1350.5,84,1340.6,80.8,1329.5,80.8"/>
</g>
<g>
	<defs>
		<rect id="SVGID_3_" x="7.5" y="17.9" width="343.7" height="232.8"/>
	</defs>
	<clipPath id="SVGID_4_">
		<use xlink:href="#SVGID_3_"  style="overflow:visible;"/>
	</clipPath>
	<path class="st1" d="M235.3,197.9v-21.8c23.4,0,42.4-19,42.4-42.4c0-23.4-19-42.4-42.4-42.4V69.4c35.4,0,64.3,28.8,64.3,64.3
		C299.6,169.1,270.8,197.9,235.3,197.9"/>
	<path class="st1" d="M235.3,245.2h-150c-39.3,0-71.3-32-71.3-71.3c0-19,7.4-36.9,20.8-50.2c12.6-12.5,29-19.8,46.7-20.6
		c11.7-24.6,36.6-40.6,64.1-40.6c1.6,0,3.3,0.1,5,0.2c17-25.1,45.2-40.4,75.4-40.4h9.2c61.5,0,111.5,50,111.5,111.5
		C346.8,195.1,296.8,245.2,235.3,245.2 M87.5,124.8c-0.3,0-0.7,0-1,0c-0.4,0-0.9,0-1.3,0c-27.1,0-49.2,22-49.2,49.1
		c0,27.2,22.2,49.4,49.4,49.4h150c49.4,0,89.6-40.2,89.6-89.6c0-49.4-40.2-89.6-89.6-89.6h-9.2c-24.8,0-48,13.7-60.3,35.7l-3.8,6.8
		l-7.6-1.4c-3.5-0.6-6.2-0.9-8.7-0.9c-20.8,0-39.5,13.4-46.4,33.3l-2.7,7.9l-8.3-0.5C88,124.8,87.7,124.8,87.5,124.8"/>
	<path class="st1" d="M235.3,117.1c9.1,0,16.5,7.4,16.5,16.5c0,9.1-7.4,16.5-16.5,16.5"/>
</g>
</svg>
