<?xml version="1.0" encoding="utf-8"?>
<!-- Generator: Adobe Illustrator 24.3.0, SVG Export Plug-In . SVG Version: 6.00 Build 0)  -->
<svg version="1.1" id="Artwork" xmlns="http://www.w3.org/2000/svg" xmlns:xlink="http://www.w3.org/1999/xlink" x="0px" y="0px"
	 viewBox="0 0 521.57 446.48" style="enable-background:new 0 0 521.57 446.48;" xml:space="preserve">
<style type="text/css">
	.st0{fill:#FF5533;}
</style>
<g id="Logo_1_">
	<path class="st0" d="M174.1,199.31c-5.55,0-9.94,4.28-9.94,9.94s4.39,9.94,9.94,9.94c5.55,0,9.94-4.28,9.94-9.94
		S179.65,199.31,174.1,199.31z"/>
	<polygon class="st0" points="230.85,150.44 195.7,150.44 195.7,133.56 227.03,133.56 227.03,116.68 195.7,116.68 195.7,100.03 
		230.27,100.03 230.27,83.03 176.74,83.03 176.74,167.44 230.85,167.44 	"/>
	<path class="st0" d="M191.68,201.39c5.55,0,9.94-4.28,9.94-9.94s-4.39-9.94-9.94-9.94c-5.55,0-9.94,4.28-9.94,9.94
		S186.13,201.39,191.68,201.39z"/>
	<path class="st0" d="M117.91,169.17c12.26,0,23.01-6.24,29.37-15.84v14.11h16.65v-46.94H119.3v16.19h18.73
		c-1.73,8.67-9.37,15.38-18.62,15.38c-10.29,0-18.62-8.33-18.62-20.47v-12.49c0-11.91,8.9-20.7,21.39-20.7
		c9.71,0,18.38,5.32,21.27,13.07l17.58-6.13c-4.86-14.8-20.58-24.05-38.73-24.05c-22.89,0-40.01,15.38-40.01,37.81v12.49
		C82.3,153.21,98.25,169.17,117.91,169.17z"/>
	<polygon class="st0" points="280.45,117.99 280.45,117.99 280.45,106.75 261.74,106.75 261.74,122.49 261.74,122.49 261.74,133.72 
		280.45,133.72 	"/>
	<rect x="238.94" y="83.03" class="st0" width="64.06" height="17"/>
	<polygon class="st0" points="113.52,265.44 132.48,265.44 132.48,233.42 164.27,181.04 142.88,181.04 122.88,215.61 103.11,181.04 
		81.72,181.04 113.52,233.65 	"/>
	<polygon class="st0" points="280.45,156.18 280.45,156.18 280.45,140.45 261.74,140.45 261.74,151.68 261.74,151.68 261.74,167.41 
		280.45,167.41 	"/>
	<path class="st0" d="M424.71,265.44l-23.01-32.26c11.22-3.47,19.08-13.3,19.08-25.32c0-15.26-12.6-26.83-28.56-26.83h-11.1v17.11
		h10.41c5.55,0,9.83,4.39,9.83,10.17c0,5.78-4.28,10.18-9.83,10.18h-10.41v16.19l20.58,30.76H424.71z"/>
	<path class="st0" d="M330.74,278.93h-27.87v84.52h27.87c26.13,0,44.63-17.92,44.63-42.2C375.37,296.97,356.87,278.93,330.74,278.93
		z M332.24,346.45h-10.41v-50.53h10.41c14.11,0,23.7,10.87,23.7,25.32S346.35,346.45,332.24,346.45z"/>
	<polygon class="st0" points="405.66,329.57 436.99,329.57 436.99,312.69 405.66,312.69 405.66,296.04 440.23,296.04 440.23,279.05 
		386.7,279.05 386.7,363.45 440.81,363.45 440.81,346.45 405.66,346.45 	"/>
	<polygon class="st0" points="375.45,236.9 365.65,223.01 375.32,208.96 365.52,195.08 375.2,181.04 355.65,181.05 345.97,195.24 
		355.78,209.13 346.1,223.18 355.91,237.06 346.23,251.12 356.64,265.57 376.4,265.57 365.77,250.96 	"/>
	<path class="st0" d="M332.28,232.61v-51.57h-18.85v51.92c0,9.71-6.94,16.88-16.42,16.88c-9.48,0-16.42-7.17-16.42-16.88v-51.92
		h-18.85v51.57c0,19.89,14.92,34.57,35.27,34.57C317.36,267.18,332.28,252.49,332.28,232.61z"/>
	<path class="st0" d="M228.79,330.96c0,9.71-6.94,16.88-16.42,16.88c-9.48,0-16.42-7.17-16.42-16.88v-51.92h-18.85v51.57
		c0,19.89,14.92,34.57,35.27,34.57c20.35,0,35.27-14.68,35.27-34.57v-51.57h-18.85V330.96z"/>
	<path class="st0" d="M119.3,332.7h18.73c-1.73,8.67-9.37,15.38-18.62,15.38c-10.29,0-18.62-8.33-18.62-20.47v-12.49
		c0-11.91,8.9-20.7,21.39-20.7c9.71,0,18.38,5.32,21.27,13.07l17.58-6.13c-4.86-14.8-20.58-24.05-38.73-24.05
		c-22.89,0-40.01,15.38-40.01,37.81v12.49c0,21.62,15.96,37.58,35.61,37.58c12.26,0,23.01-6.24,29.37-15.84v14.11h16.65v-46.94
		H119.3V332.7z"/>
	<path class="st0" d="M205.9,179.3v17.81c13.88,0,24.86,11.33,24.86,26.13s-10.98,26.13-24.86,26.13
		c-13.87,0-24.86-11.33-24.86-26.13h-19.43c0,24.63,19.66,43.94,44.28,43.94c24.63,0,44.28-19.31,44.28-43.94
		S230.53,179.3,205.9,179.3z"/>
	<path class="st0" d="M283.45,318.78c2.8-2.53,7.49-6.76,7.49-14.51c0-7.75-4.69-11.98-7.49-14.51c-0.12-0.11-0.24-0.22-0.35-0.31
		c-1.4-1.47-1.64-3.58-1.67-4.58v-5.94h-18.99v7.9h0.01c0,0.1-0.01,0.19-0.01,0.29c0,7.75,4.69,11.98,7.49,14.51
		c2.01,1.82,2.01,1.91,2.01,2.64c0,0.73,0,0.82-2.01,2.64c-2.69,2.43-7.12,6.45-7.45,13.66h-0.02c0,0.14-0.02,0.27-0.02,0.4
		c0,0.08,0.01,0.15,0.01,0.22c0,0.08-0.01,0.15-0.01,0.22c0,0.14,0.01,0.27,0.02,0.4h0.02c0.33,7.21,4.76,11.23,7.45,13.66
		c2.01,1.82,2.01,1.91,2.01,2.64c0,0.73,0,0.82-2.01,2.64c-2.8,2.53-7.49,6.76-7.49,14.51c0,0.1,0,0.2,0.01,0.29h-0.01v7.9h18.99
		v-5.94c0.03-0.99,0.27-3.11,1.67-4.58c0.11-0.1,0.22-0.2,0.35-0.31c2.8-2.53,7.49-6.76,7.49-14.51c0-7.75-4.69-11.98-7.49-14.51
		c-1.79-1.61-1.99-1.87-2.01-2.41C281.46,320.65,281.66,320.39,283.45,318.78z"/>
</g>
</svg>
