<svg width="200" height="57" viewBox="0 0 200 57" fill="none" xmlns="http://www.w3.org/2000/svg">
<path d="M142.553 0C140.49 0 138.881 1.57343 138.881 3.63637C138.881 5.69931 140.49 7.3077 142.553 7.27273C144.58 7.27273 146.189 5.66434 146.189 3.63637C146.189 1.60839 144.58 0 142.553 0Z" fill="#121212"/>
<path d="M6.29371 23.5314H26.3636V41.3986H32.6574V0.489471H26.3636V18.3916H6.29371V0.489471H0V41.4336H6.29371V23.5314Z" fill="#121212"/>
<path d="M194.457 17.8255H189.809V14.0745H188.714V22.6388H189.809V18.8878H194.457V22.6388H195.519V14.0745H194.457V17.8255Z" fill="#121212"/>
<path fill-rule="evenodd" clip-rule="evenodd" d="M192.133 10.4895C187.784 10.4895 184.266 14.0082 184.266 18.3567C184.266 22.7052 187.784 26.2238 192.133 26.2238C196.481 26.2238 200 22.7052 200 18.3567C200 14.0082 196.481 10.4895 192.133 10.4895ZM192.133 25.1616C188.382 25.1616 185.328 22.1077 185.328 18.3567C185.328 14.6057 188.382 11.5518 192.133 11.5518C195.884 11.5518 198.938 14.6057 198.938 18.3567C198.938 22.1077 195.884 25.1616 192.133 25.1616Z" fill="#121212"/>
<path fill-rule="evenodd" clip-rule="evenodd" d="M51.8183 41.9231C43.077 41.9231 36.6085 35.7343 36.6085 26.1538C36.6085 16.5734 42.7973 10.4545 51.8183 10.4545C60.4896 10.4545 66.6435 16.4685 66.6435 25.4545C66.6435 26.5035 66.5735 27.5175 66.4337 28.5664H43.147C43.6015 33.6014 47.168 36.6434 51.8183 36.6434C55.6994 36.6434 57.8323 34.7553 59.0211 32.3776H65.8393C64.091 37.6574 59.2659 41.9231 51.8183 41.9231ZM43.1819 23.4266H60.0351C59.9302 18.7413 56.2239 15.7343 51.5036 15.7343C47.2729 15.7692 43.8463 18.6364 43.1819 23.4266Z" fill="#121212"/>
<path fill-rule="evenodd" clip-rule="evenodd" d="M95.175 15.2098C92.8673 12.3426 88.6715 10.4545 84.6854 10.4545C76.6085 10.4545 70.2449 16.6433 70.2449 26.014C70.2449 35.4196 76.6085 41.8881 84.6155 41.8881C89.5806 41.8881 93.2519 39.5804 95.175 36.8182V41.3986H101.539V0.489471H95.175V15.2098ZM76.7134 26.014C76.7134 19.4405 81.2589 15.9091 85.9442 15.9091C90.6994 15.9091 95.2099 19.6154 95.175 26.1189C95.175 32.6923 90.6994 36.3986 85.9442 36.3986C81.2589 36.3986 76.7134 32.5874 76.7134 26.014Z" fill="#121212"/>
<path d="M111.573 10.944L120.21 35.7692L128.846 10.944H135.524L123.916 41.3986H116.399L104.86 10.944H111.573Z" fill="#121212"/>
<path fill-rule="evenodd" clip-rule="evenodd" d="M174.371 15.4196C172.483 12.7972 168.776 10.4895 163.811 10.4895C155.804 10.4895 149.441 16.6783 149.476 26.1189C149.476 35.5245 155.839 41.993 163.846 41.993C168.811 41.993 172.483 39.5105 174.406 36.9231V41.993C174.406 48.077 170.734 51.049 165.874 51.049C161.504 51.049 158.147 48.8812 157.203 45.7343H150.944C151.713 52.4826 157.762 56.5035 165.874 56.5035C175.385 56.5035 180.734 50.2448 180.734 41.9581V10.979H174.371V15.4196ZM155.909 26.049C155.909 19.4756 160.455 15.9441 165.14 15.9441C169.895 15.9441 174.406 19.6504 174.371 26.1539C174.371 32.7273 169.895 36.4336 165.14 36.4336C160.455 36.4336 155.909 32.6224 155.909 26.049Z" fill="#121212"/>
<path d="M139.37 10.944H145.664V41.3986H139.37V10.944Z" fill="#121212"/>
</svg>
