<svg width="128" height="128" viewBox="0 0 128 128" fill="none" xmlns="http://www.w3.org/2000/svg">
<path fill-rule="evenodd" clip-rule="evenodd" d="M128 64C128 99.3462 99.3462 128 64 128C28.6538 128 0 99.3462 0 64C0 28.6538 28.6538 0 64 0C99.3462 0 128 28.6538 128 64ZM35.9663 54.7615V32.7175H25.5426V89.8296H35.9621L35.9749 69.7044C35.9621 66.3252 36.279 63.7726 36.9171 62.0466C37.5423 60.3206 38.5316 59.0315 39.9063 58.1664C41.251 57.3141 42.8013 56.8772 44.5315 56.8772C46.0389 56.8772 47.2894 57.207 48.2915 57.888C49.2937 58.5475 49.9874 59.4426 50.3857 60.5862C50.784 61.7211 50.9682 64.3894 50.9682 68.6037V89.8296H61.4005V66.261C61.4005 62.6591 61.2249 59.9909 60.8652 58.2863C60.5054 56.5688 59.8416 55.0099 58.8566 53.588C57.8845 52.1789 56.4327 51.0182 54.497 50.1146C52.5655 49.2023 50.4114 48.744 48.0089 48.744C43.3409 48.744 39.3196 50.7613 35.9663 54.7615ZM89.0658 48.744C84.3979 48.744 80.3765 50.7613 77.0233 54.7615V32.7175H66.6081V89.8296H77.0319V69.7044C77.0319 66.3252 77.3488 63.7726 77.974 62.0466C78.6078 60.3206 79.6057 59.0315 80.9632 58.1664C82.308 57.3141 83.8583 56.8772 85.5841 56.8772C87.0959 56.8772 88.3549 57.207 89.3485 57.888C90.3506 58.5475 91.0444 59.4426 91.4427 60.5862C91.841 61.7211 92.0379 64.3894 92.0379 68.6037V89.8296H102.457V66.261C102.457 62.6591 102.278 59.9909 101.922 58.2863C101.562 56.5688 100.894 55.0099 99.9136 53.588C98.9371 52.1789 97.4896 51.0182 95.5668 50.1146C93.6225 49.2023 91.4598 48.744 89.0658 48.744Z" fill="#D81921"/>
</svg>
