<svg width="210" height="72" viewBox="0 0 210 72" fill="none" xmlns="http://www.w3.org/2000/svg">
<path d="M98.2234 2.00003H84.1696C83.5531 1.99791 82.9423 2.11744 82.3723 2.35175C81.8023 2.58605 81.2845 2.9305 80.8486 3.36524C80.4126 3.79998 80.0673 4.31645 79.8323 4.88488C79.5974 5.4533 79.4775 6.06246 79.4796 6.67728V65.3147C79.4786 65.9293 79.5991 66.538 79.8345 67.1059C80.0698 67.6738 80.4152 68.1899 80.8509 68.6244C81.2866 69.0589 81.8041 69.4034 82.3736 69.6381C82.943 69.8728 83.5534 69.993 84.1696 69.992H98.2234C99.4666 69.9899 100.658 69.4964 101.537 68.6197C102.416 67.743 102.911 66.5546 102.913 65.3147V6.67728C102.916 6.06246 102.796 5.4533 102.561 4.88488C102.326 4.31645 101.98 3.79998 101.544 3.36524C101.109 2.9305 100.591 2.58605 100.021 2.35175C99.4507 2.11744 98.8399 1.99791 98.2234 2.00003V2.00003Z" fill="black"/>
<path d="M189.256 70H203.31C204.553 69.9979 205.745 69.5044 206.624 68.6277C207.503 67.751 207.998 66.5626 208 65.3228V6.67728C208.001 6.06276 207.88 5.45407 207.645 4.88612C207.41 4.31818 207.064 3.80214 206.629 3.36761C206.193 2.93307 205.676 2.5886 205.106 2.35392C204.537 2.11924 203.926 1.99897 203.31 2.00003H189.256C188.64 1.99791 188.029 2.11744 187.459 2.35175C186.889 2.58605 186.371 2.9305 185.935 3.36524C185.499 3.79998 185.154 4.31645 184.919 4.88488C184.684 5.4533 184.564 6.06246 184.566 6.67728V65.3148C184.564 65.9299 184.684 66.5395 184.919 67.1084C185.154 67.6772 185.499 68.1942 185.935 68.6296C186.371 69.065 186.888 69.4102 187.458 69.6454C188.028 69.8805 188.639 70.001 189.256 70V70Z" fill="black"/>
<path d="M170.398 50.4161C171.631 50.4161 172.814 50.9045 173.685 51.774C174.557 52.6434 175.047 53.8227 175.047 55.0523V65.3558C175.047 66.5853 174.557 67.7646 173.685 68.634C172.814 69.5035 171.631 69.9919 170.398 69.9919H117.298C116.445 69.9925 115.608 69.7615 114.877 69.3237C114.146 68.8859 113.548 68.2579 113.148 67.5069C112.747 66.756 112.559 65.9105 112.604 65.0612C112.649 64.2118 112.925 63.3907 113.403 62.686L141.231 21.5839H116.889C115.656 21.5839 114.474 21.0954 113.602 20.2259C112.73 19.3565 112.24 18.1773 112.24 16.9477V6.63617C112.24 5.40658 112.73 4.22734 113.602 3.35789C114.474 2.48844 115.656 2 116.889 2H170.47C171.716 2 172.911 2.49349 173.792 3.37194C174.672 4.25039 175.167 5.44182 175.167 6.68413C175.164 7.61012 174.885 8.51428 174.366 9.28199L146.609 50.3921H170.382L170.398 50.4161Z" fill="black"/>
<g clip-path="url(#clip0_7037_355)">
<path d="M36 70C54.7777 70 70 54.7777 70 36C70 17.2223 54.7777 2 36 2C17.2223 2 2 17.2223 2 36C2 54.7777 17.2223 70 36 70Z" fill="url(#paint0_linear_7037_355)"/>
<path d="M25.2596 44.2068C35.6688 44.2068 44.1072 35.7485 44.1072 25.3146C44.1072 14.8807 35.6688 6.42242 25.2596 6.42242C14.8504 6.42242 6.41205 14.8807 6.41205 25.3146C6.41205 35.7485 14.8504 44.2068 25.2596 44.2068Z" fill="black"/>
</g>
<defs>
<linearGradient id="paint0_linear_7037_355" x1="17.134" y1="17.1346" x2="54.6393" y2="54.64" gradientUnits="userSpaceOnUse">
<stop stop-color="#1EEBFF"/>
<stop offset="1" stop-color="#FF2DCD"/>
</linearGradient>
<clipPath id="clip0_7037_355">
<rect width="67.8394" height="68" fill="white" transform="translate(2 2)"/>
</clipPath>
</defs>
</svg>
