<svg id="Layer_1" data-name="Layer 1" xmlns="http://www.w3.org/2000/svg" viewBox="0 0 870.93 366.93"><defs><style>.cls-1{fill:#ff8000;}</style></defs><path class="cls-1" d="M282.31,170.15h0c-.71-1.85-10.54-20-28.78-42.77h0a3.69,3.69,0,0,1-.84-1.94h0A360.86,360.86,0,0,0,247.19,86a6.43,6.43,0,0,0-5.57-5h0l-19-2.3h0a4.19,4.19,0,0,0-.5,0,4,4,0,0,0-4,4v6.58a.24.24,0,0,1-.24.24.23.23,0,0,1-.16-.06h0a267.28,267.28,0,0,0-38.29-28.89h0a16.8,16.8,0,0,0-9.39-2.84h0a16.8,16.8,0,0,0-9.39,2.84h0C95.26,100.87,59.24,166.54,57.85,170.15h0a6.48,6.48,0,0,0,4.27,9L81,182.83a6.46,6.46,0,0,1,4.71,5.5c.15,3.33,3.72,77.67,8.19,96.95h0a6.49,6.49,0,0,0,6.28,4.82h.14c11-.27,21.07-.45,32-.6h.9a2.13,2.13,0,0,0,2.11-2.12v-.05h0c-.44-6.49-1.4-21.33-2.17-37,0-.39-.05-.88-.07-1.28h0a4,4,0,0,0-1.92-3.21,20.36,20.36,0,0,1-9.89-16.42c-1-26.07-1.49-56.19-.07-79.77h0a3.79,3.79,0,0,1,7.58.16v.3h0c-.93,15.71-1,34.29-.68,52.62h0a4.49,4.49,0,1,0,9-.16h0c-.34-18.45-.24-37.15.71-52.92a3.79,3.79,0,0,1,7.58.16c0,.1,0,.2,0,.3-.92,15.63-1,34.09-.68,52.33h0a4.49,4.49,0,0,0,9-.14h0c-.34-18.37-.24-37,.71-52.66a3.79,3.79,0,0,1,7.58.16c0,.1,0,.2,0,.3-1.35,22.91-.91,51.92,0,77.37,0,0,0,.22,0,.24s0,.25,0,.38h0v.26a20.33,20.33,0,0,1-8.82,16.77,3.92,3.92,0,0,0-1.68,3s-.46,3.91,1.26,22.84c.81,8.27,1.42,14,1.71,16.59h0a2,2,0,0,0,2,1.74h1.75l11.27,0h1.46c4.92,0,9.6,0,14.12,0l10.69.09h0a2,2,0,0,0,2-1.76h0c2.48-22.69,3.06-35.44,3.06-35.44a2.25,2.25,0,0,0-2-2.18l-13-1.79h0A4.43,4.43,0,0,1,182,245a6.07,6.07,0,0,1-.16-2c5.27-75.64,30.2-101.13,30.2-101.13a7.45,7.45,0,0,1,1.21-1,4,4,0,0,1,6.07,1.78,7.71,7.71,0,0,1,.32,1.82c2.15,23.77,1.1,64.23-.23,95.79-1.13,26.79-2.5,47.82-2.5,47.82h0v0a1.56,1.56,0,0,0,1.56,1.56h0c7.08.12,14,.26,21.44.44H240a6.49,6.49,0,0,0,6.28-4.82h0c4.47-19.28,8-93.62,8.19-96.95a6.46,6.46,0,0,1,4.71-5.5L278,179.2a6.48,6.48,0,0,0,4.27-9Z"/><path class="cls-1" d="M356,144.08H340.24c-5.12,0-5.12,0-6.18,6s-1.07,6.18,3.62,6.18h9.38l-5.33,30.48c-1.28,6.82-4.26,11.51-13.43,14.28-2.34.64-3,1.5-3,2.56,0,1.28.42,2.35,1.49,4.91,1.49,3.62,2.34,4.26,3.62,4.26a24.15,24.15,0,0,0,4.48-.85c13-4.27,18.33-14.29,20.46-26.22l6-34.32c1.07-7.25,1.07-7.25-5.33-7.25"/><path class="cls-1" d="M409.52,144.08c-6.4,0-6.4,0-7.25,5.33l-4.69,27.71c-1.28,8.1-3.41,12.79-11.3,12.79-7.67,0-10.44-4.69-9.16-11.94l4.47-26.43c1.28-7.46,1.07-7.46-5.54-7.46-6.39,0-6.61,0-7.46,5.12l-4.69,27.71c-2.77,15.77,7,25.58,20.89,25.58,15.56,0,23.45-7,26-23.66l4.69-27.5c1.06-7.25.64-7.25-6-7.25"/><path class="cls-1" d="M438.72,189.48c5.12-.21,7.89-2.55,7.89-4.9,0-3-3.63-4.05-8.53-5.54-9.59-3-18.33-6.4-18.33-16.63,0-12.15,10-18.76,22.59-18.76,5.33,0,11.3.22,15.14.64,3.41.43,4.26,1.5,3.2,6.82s-2.35,5.76-5.33,5.55c-3.63-.22-8.32-.64-13.86-.64-6.39,0-8.31,2.34-8.31,4.47,0,2.77,2.56,4.27,8.53,6,11.08,3.2,18.33,7.68,18.33,17.27,0,11.3-8.32,17.9-21.75,18.33A105.55,105.55,0,0,1,419.11,201c-4.26-.64-4.48-.64-3.41-6.82,1.07-5.54,1.07-6,5.12-5.54a112.74,112.74,0,0,0,17.9.85"/><path class="cls-1" d="M508.43,144.08h-36c-5.12,0-5.12,0-6.18,6.18s-.85,6.18,3.62,6.18h11.73L475,194.6c-1.28,7.46-1.07,7.46,5.54,7.46,6.18,0,6.4,0,7.25-5.33l6.82-40.29h11.3c5.11,0,5.11,0,6.18-6.18s1.07-6.18-3.62-6.18"/><path class="cls-1" d="M572,156.23c5.11,0,5.11,0,6.18-6.18s1.07-6.18-3.62-6.18h-25.8c-9.16,0-9,0-10.44,9.16l-6.61,38.59c-1.71,10-1.49,10,7.67,10h25.16c5.33,0,5.11,0,6.18-6,1.07-6.19,1.07-6.19-3.62-6.19H545.3L547,178.4h18.12c4.9,0,4.9,0,5.75-5.76.86-6,.86-6-5.75-6h-16l1.71-10.45Z"/><path class="cls-1" d="M599.23,176.69l8.32-18.33c.64-1.49.64-1.49,1.7-1.49s1.07,0,1.28,1.7l2.56,18.12Zm22.6-25.58c-1.28-7.24-1.28-7.24-11.51-7.24-9.59,0-9.38,0-12.37,6l-21.53,45c-3.19,6.4-2.55,7,5.33,7,6.19,0,6.19,0,8.74-5.76l3.41-7.67h20.89l1.07,7.67c.85,5.76,1.07,5.76,7.25,5.76,7,0,7.67-.43,6.39-7.46Z"/><path class="cls-1" d="M672.77,144.08H636.54c-5.12,0-5.12,0-6.18,6.18s-.86,6.18,3.62,6.18H645.7l-6.61,38.16c-1.27,7.46-1.06,7.46,5.55,7.46,6.18,0,6.39,0,7.24-5.33l6.83-40.29H670c5.12,0,5.12,0,6.19-6.18,1.27-6.18,1.27-6.18-3.42-6.18"/><g id="TakeawayCOM_Full_Colour" data-name="TakeawayCOM Full Colour"><g id="TakeawayCOM-2"><path class="cls-1" d="M371.22,241v-7.8a1.88,1.88,0,0,0-1.8-1.74H327.14a1.87,1.87,0,0,0-1.81,1.81v7.67a1.89,1.89,0,0,0,1.79,1.82H341a1,1,0,0,1,.92.92v43.91a1.87,1.87,0,0,0,1.77,1.86h9.24a1.84,1.84,0,0,0,1.76-1.79V243.47a1,1,0,0,1,.89-.71h13.89A1.89,1.89,0,0,0,371.2,241"/><path class="cls-1" d="M394.76,251.61a12.81,12.81,0,0,0-5.57-4,24.67,24.67,0,0,0-8.89-1.35,28.56,28.56,0,0,0-9.51,1.6,22.68,22.68,0,0,0-6.67,3.64,1.88,1.88,0,0,0,.07,2.59h0L368,258h0a1.86,1.86,0,0,0,2.64,0h0a14.93,14.93,0,0,1,3.1-2.12,12.09,12.09,0,0,1,5.53-1.27,8.52,8.52,0,0,1,5.54,1.93c1.44,1.2,2.22,3.34,2.33,6.77a1,1,0,0,1-.93.8h0c-1.44,0-3,0-4.6.09a52.38,52.38,0,0,0-6,.49,35.44,35.44,0,0,0-5.76,1.26,17.05,17.05,0,0,0-5,2.42,11.43,11.43,0,0,0-3.45,3.93,12.36,12.36,0,0,0-1.26,5.82,11.53,11.53,0,0,0,1.15,5.32,11,11,0,0,0,3.1,3.85,13.53,13.53,0,0,0,4.56,2.34,18.37,18.37,0,0,0,5.32.78,18.79,18.79,0,0,0,7.17-1.39,11.47,11.47,0,0,0,4.52-3.33h.13a.67.67,0,0,1,.76.12.63.63,0,0,1,.2.46v1.44a1.88,1.88,0,0,0,1.78,1.8h7.74a1.85,1.85,0,0,0,1.78-1.82V269.32a68.64,68.64,0,0,0-.82-11.18,15.26,15.26,0,0,0-2.9-6.38m-7.52,22.86a6.59,6.59,0,0,1-.78,3.28,6.77,6.77,0,0,1-2.13,2.29,10.32,10.32,0,0,1-3,1.39,12.41,12.41,0,0,1-3.48.5,7.82,7.82,0,0,1-3.94-1.07,3.49,3.49,0,0,1-1.88-3.27,4,4,0,0,1,1.36-3.2,9,9,0,0,1,3.27-1.72,18.2,18.2,0,0,1,4-.69c1.42-.09,2.58-.13,3.48-.13h2.13a1,1,0,0,1,.88.93Z"/><path class="cls-1" d="M517.1,251.61a12.7,12.7,0,0,0-5.56-4,24.67,24.67,0,0,0-8.89-1.35,28.58,28.58,0,0,0-9.52,1.6,22.4,22.4,0,0,0-6.66,3.64,1.87,1.87,0,0,0,.06,2.59h0l3.83,3.92h0a1.87,1.87,0,0,0,2.66,0,14.93,14.93,0,0,1,3.1-2.12,12.14,12.14,0,0,1,5.55-1.27,8.42,8.42,0,0,1,5.52,1.93c1.44,1.2,2.22,3.34,2.33,6.77a.94.94,0,0,1-.93.8h0c-1.43,0-3,0-4.59.09a52,52,0,0,0-6,.49,35.67,35.67,0,0,0-5.78,1.26,17.18,17.18,0,0,0-5,2.42,11.38,11.38,0,0,0-3.43,3.93,12.26,12.26,0,0,0-1.28,5.82,11.66,11.66,0,0,0,1.15,5.32,11.19,11.19,0,0,0,3.11,3.85,13.49,13.49,0,0,0,4.55,2.34,19,19,0,0,0,12.53-.61,11.4,11.4,0,0,0,4.52-3.33h.12a.72.72,0,0,1,.78.12.79.79,0,0,1,.19.46v1.44a1.86,1.86,0,0,0,1.77,1.8H519a1.86,1.86,0,0,0,1.78-1.82V269.32a69.76,69.76,0,0,0-.81-11.18,15.42,15.42,0,0,0-2.92-6.38m-7.56,22.86a6.37,6.37,0,0,1-2.91,5.57,10.2,10.2,0,0,1-3,1.39,12,12,0,0,1-3.47.5,7.77,7.77,0,0,1-3.94-1.07,3.49,3.49,0,0,1-1.88-3.27,3.94,3.94,0,0,1,1.35-3.2,9,9,0,0,1,3.27-1.72,18.28,18.28,0,0,1,4-.69c1.41-.09,2.57-.13,3.47-.13h2.13a1,1,0,0,1,.89.93Z"/><path class="cls-1" d="M622.69,251.61a12.84,12.84,0,0,0-5.58-4,24.58,24.58,0,0,0-8.88-1.35,28.5,28.5,0,0,0-9.5,1.6,22.38,22.38,0,0,0-6.68,3.64,1.89,1.89,0,0,0,.06,2.59h0l3.83,3.92h0a1.87,1.87,0,0,0,2.66,0,15.33,15.33,0,0,1,3.12-2.12,12.06,12.06,0,0,1,5.53-1.27,8.47,8.47,0,0,1,5.52,1.93c1.45,1.2,2.22,3.34,2.33,6.77a.94.94,0,0,1-.93.8h0c-1.43,0-3,0-4.59.09a52.21,52.21,0,0,0-6,.49,35.79,35.79,0,0,0-5.77,1.26,17.05,17.05,0,0,0-5,2.42,11.31,11.31,0,0,0-3.44,3.93,12.13,12.13,0,0,0-1.27,5.82,11.66,11.66,0,0,0,1.15,5.32,10.88,10.88,0,0,0,3.11,3.85,13.49,13.49,0,0,0,4.53,2.34,19.1,19.1,0,0,0,12.55-.61,11.31,11.31,0,0,0,4.52-3.33h.12a.67.67,0,0,1,.76.12.68.68,0,0,1,.19.46v1.44a1.89,1.89,0,0,0,1.79,1.8h7.73a1.87,1.87,0,0,0,1.8-1.82V269.32a68.65,68.65,0,0,0-.83-11.18,15.26,15.26,0,0,0-2.9-6.38m-7.58,22.86a6.57,6.57,0,0,1-.76,3.28,6.77,6.77,0,0,1-2.13,2.29,10.72,10.72,0,0,1-3,1.39,12.05,12.05,0,0,1-3.48.5,7.76,7.76,0,0,1-3.93-1.07,3.5,3.5,0,0,1-1.89-3.27,4,4,0,0,1,1.35-3.2,9.06,9.06,0,0,1,3.28-1.72,18.29,18.29,0,0,1,4-.69C610,272,611.13,272,612,272h2.13a.94.94,0,0,1,.87.93Z"/><path class="cls-1" d="M476.88,252a16.25,16.25,0,0,0-5.89-4.25,20,20,0,0,0-7.74-1.47,25.25,25.25,0,0,0-8.65,1.47,21,21,0,0,0-7,4.25,19.81,19.81,0,0,0-4.71,6.6,28.62,28.62,0,0,0,0,19.57,19.63,19.63,0,0,0,4.71,6.59,20.55,20.55,0,0,0,7,4.25,25,25,0,0,0,8.65,1.48,22.3,22.3,0,0,0,9.34-2.05,19.71,19.71,0,0,0,6.12-4.26,1.87,1.87,0,0,0,0-2.52l-5.58-4.09h0l-.4-.29a1.85,1.85,0,0,0-2.24.3,14.33,14.33,0,0,1-2.65,2.27,9.31,9.31,0,0,1-5.12,1.34,9.1,9.1,0,0,1-6.08-2.12,11.1,11.1,0,0,1-3.13-7.08.9.9,0,0,1,.76-.9H480.2A1.87,1.87,0,0,0,482,269.2v-2a26.13,26.13,0,0,0-1.3-8.6,19.31,19.31,0,0,0-3.74-6.6m-8.2,10.64H454.44a.94.94,0,0,1-.92-.88,7.72,7.72,0,0,1,.59-2,7.21,7.21,0,0,1,1.73-2.36,8.42,8.42,0,0,1,2.66-1.69,9,9,0,0,1,3.6-.65,7.23,7.23,0,0,1,5.48,2.21,7.07,7.07,0,0,1,2,4.44,1,1,0,0,1-.93.88"/><path class="cls-1" d="M429.74,269h0l-.28-.38a1.87,1.87,0,0,1,0-1.91l14.33-17.87a.94.94,0,0,0-.08-1.29,1,1,0,0,0-.61-.21H431.81a3.74,3.74,0,0,0-3,1.47h0l-.62.78-11,14.18-.15.17h0L417,264h-.07a.69.69,0,0,1-.77-.13.7.7,0,0,1-.18-.34V229.28a1.87,1.87,0,0,0-1.73-1.77h-8.82a1.9,1.9,0,0,0-1.74,1.8v58.35a1.88,1.88,0,0,0,1.78,1.79h8.73a1.86,1.86,0,0,0,1.78-1.76V271.17a.75.75,0,0,1,.18-.34.69.69,0,0,1,.77-.13H417a.2.2,0,0,1,.09.09h0v0l.22.26L428,287.19h0l.62.79h0a3.74,3.74,0,0,0,2.93,1.46h11.92a.64.64,0,0,0,.35-.17.91.91,0,0,0,.21-1.07Z"/><path class="cls-1" d="M588.78,250.24A3.53,3.53,0,0,0,589,249v-.22h0a1.88,1.88,0,0,0-1.74-1.49h-7a3.75,3.75,0,0,0-3.67,3h0l-.22.84-5.92,21.69a.88.88,0,0,1-.57.29.84.84,0,0,1-.66-.44l-.1-.34h0l-5.9-21.93h0l-.1-.39a3.78,3.78,0,0,0-3.58-2.62h-7.62a3.77,3.77,0,0,0-3.67,2.92h0v.2l-.16.66-5.38,21.62a.72.72,0,0,1-1,.26,1,1,0,0,1-.27-.26l-6.38-21.64-.31-1a.6.6,0,0,0,0-.19h0a3.78,3.78,0,0,0-3.56-2.55h-7.72a1.89,1.89,0,0,0-1.74,1.49h0v.24a4,4,0,0,0,.21,1.23L534.67,287a2.09,2.09,0,0,0,.17.41,3.7,3.7,0,0,0,3.06,2.13h7.45a3.78,3.78,0,0,0,3.31-2.64h0l.3-1.07,5.87-21a.78.78,0,0,1,.57-.31.85.85,0,0,1,.59.32l6.71,21.45a8.14,8.14,0,0,0,.46,1.19,3.7,3.7,0,0,0,3.06,2.13h7.26a3.68,3.68,0,0,0,3-2.13h0c.08-.16.34-.87.5-1.35l11.91-35.49a.43.43,0,0,1,.07-.22"/><path class="cls-1" d="M669.81,248.75h0c0-.11-.07-.21-.1-.32a1.92,1.92,0,0,0-1.61-1.13h-7.44a3.77,3.77,0,0,0-3.29,2.19h0c0,.11-.09.23-.13.34l0,.19c0,.1-.06.21-.09.31l-.22.71h0l-6.78,22.18h0l-.09.26a.87.87,0,0,1-.89.66.91.91,0,0,1-.87-.57L640.19,251l-.1-.28-.54-1.52a3.73,3.73,0,0,0-3.19-1.95h-8.42a1.91,1.91,0,0,0-1.36,1.06,1.71,1.71,0,0,0-.09.3h0a2,2,0,0,0,.06,1l16,39.06a3.71,3.71,0,0,1-.14,2.48v.12l-.29.73c-.43,1.07-.84,2.05-1.23,2.87A7.49,7.49,0,0,1,639.5,297a5.61,5.61,0,0,1-2.18,1.31,10.66,10.66,0,0,1-3.36.46h-5.32a1.87,1.87,0,0,0-1.81,1.82v6.68a1.87,1.87,0,0,0,1.82,1.82h7.11a24.16,24.16,0,0,0,7.13-.86,11.48,11.48,0,0,0,4.47-2.55,13.67,13.67,0,0,0,2.9-4.12q1.15-2.47,2.38-5.66l17.17-46.42a1.8,1.8,0,0,0,0-.73"/><path class="cls-1" d="M668.12,280.91a4.14,4.14,0,0,0-3.2,1.36,4.5,4.5,0,0,0,6.38,6.34.47.47,0,0,0,.1-.1,4.49,4.49,0,0,0,0-6.24,4.12,4.12,0,0,0-3.19-1.36"/><path class="cls-1" d="M744.61,252a19.46,19.46,0,0,0-6.56-4.19,23.83,23.83,0,0,0-16.56,0A19.13,19.13,0,0,0,715,252a19.51,19.51,0,0,0-4.26,6.39c-1.06,2.48-1.57,7.39-1.57,10.43a27.08,27.08,0,0,0,1.57,9.44,19,19,0,0,0,10.85,10.64,23.85,23.85,0,0,0,16.57,0,18.7,18.7,0,0,0,10.8-10.57,27.31,27.31,0,0,0,1.58-9.43c0-3.05-.53-8-1.58-10.44a19.59,19.59,0,0,0-4.25-6.38m-2.1,23.58a13.08,13.08,0,0,1-2.77,4.57,13.52,13.52,0,0,1-4.35,3.06,15.06,15.06,0,0,1-11.35,0,13.78,13.78,0,0,1-4.35-3.06,13.2,13.2,0,0,1-2.76-4.57,23.16,23.16,0,0,1-1-6.83,30.43,30.43,0,0,1,1-7.83,13,13,0,0,1,7.11-7.61,14.79,14.79,0,0,1,11.35,0,13.23,13.23,0,0,1,4.35,3,13,13,0,0,1,2.77,4.56,30.86,30.86,0,0,1,1,7.83,23.53,23.53,0,0,1-1,6.83"/><path class="cls-1" d="M683.64,256.53a11.1,11.1,0,0,1,4.1-3.11,14,14,0,0,1,5.71-1.07,12.61,12.61,0,0,1,5.31,1.07,12.24,12.24,0,0,1,3.36,2.39,1.88,1.88,0,0,0,2.43.05l2.35-2.12a1.88,1.88,0,0,0,.19-2.56,17.53,17.53,0,0,0-5.46-3.38,22.41,22.41,0,0,0-8.17-1.51,21,21,0,0,0-8.15,1.54,18.85,18.85,0,0,0-6.39,4.26,19.24,19.24,0,0,0-4.09,6.45,34,34,0,0,0,0,19.63,19.24,19.24,0,0,0,4.06,6.47,17.79,17.79,0,0,0,6.33,4.26,22.73,22.73,0,0,0,16.24,0,16.51,16.51,0,0,0,5.41-3.46,1.87,1.87,0,0,0-.09-2.49l-2-1.95a1.88,1.88,0,0,0-2.54,0,11.56,11.56,0,0,1-8.74,3.48,12.84,12.84,0,0,1-5.39-1.12,12.1,12.1,0,0,1-4.09-3.11,14.88,14.88,0,0,1-2.65-4.6,26.86,26.86,0,0,1-1-7.24,31.08,31.08,0,0,1,.83-7.25,13.85,13.85,0,0,1,2.41-4.63"/><path class="cls-1" d="M812.08,255.86a12.79,12.79,0,0,0-2.48-5.12,11.08,11.08,0,0,0-4.56-3.2,18.72,18.72,0,0,0-7-1.12,12.63,12.63,0,0,0-7.28,1.94,17,17,0,0,0-4.11,4.13h0l-.19.28h0l-.1.14a.65.65,0,0,1-.48.21.66.66,0,0,1-.59-.36c0-.08-.12-.19-.17-.31l-.59-1a9.11,9.11,0,0,0-2.19-2.4,13.21,13.21,0,0,0-3.52-1.91,17.14,17.14,0,0,0-9.73-.16,14.86,14.86,0,0,0-3.73,1.66,13.18,13.18,0,0,0-2.86,2.35c-.27.31-.52.62-.75.94l-.08.08a.3.3,0,0,1-.09.13h0a.67.67,0,0,1-.48.2.66.66,0,0,1-.65-.53v-2.69a1.87,1.87,0,0,0-1.81-1.8h-2.33a1.87,1.87,0,0,0-1.8,1.85V287.6a1.88,1.88,0,0,0,1.82,1.84h2.8a1.9,1.9,0,0,0,1.83-1.88V267.24a24.73,24.73,0,0,1,.7-6.06,13.85,13.85,0,0,1,2.13-4.71,9.62,9.62,0,0,1,3.72-3.06,12.71,12.71,0,0,1,5.44-1.07c2.65,0,4.56.9,5.71,2.69s1.74,4.85,1.74,9.15v23.41a1.88,1.88,0,0,0,1.83,1.86h2.8a1.89,1.89,0,0,0,1.83-1.88V263.78a13.25,13.25,0,0,1,.79-4.67,10.81,10.81,0,0,1,2.13-3.61,9.78,9.78,0,0,1,3.19-2.32,9.32,9.32,0,0,1,3.89-.83,10.28,10.28,0,0,1,4.64.92,7.82,7.82,0,0,1,2.9,2.39,9.41,9.41,0,0,1,1.5,3.41,19.35,19.35,0,0,1,.4,3.88v24.68a1.88,1.88,0,0,0,1.83,1.83H811a1.88,1.88,0,0,0,1.83-1.88v-25a28,28,0,0,0-.74-6.76"/></g></g></svg>