<svg width="320" height="132" viewBox="0 0 320 132" fill="none" xmlns="http://www.w3.org/2000/svg">
<path d="M167.421 38H157.371L145.89 84.7887H172.38L172.646 75.9035H157.837L167.421 38Z" fill="white"/>
<path d="M209.484 54.073C208.353 51.7768 206.523 49.9798 203.994 48.7153C201.464 47.4174 198.503 46.7852 195.108 46.7852C192.346 46.7852 189.717 47.3176 187.155 48.4158C184.593 49.5139 182.396 51.0114 180.533 52.9083C178.669 54.8051 177.404 56.9682 176.706 59.2976L185.89 60.3293C186.456 58.6654 187.521 57.3343 189.085 56.3692C190.649 55.4041 192.346 54.905 194.21 54.905C195.641 54.905 196.872 55.1712 197.937 55.7369C199.002 56.3026 199.801 57.1013 200.3 58.1329C200.799 59.1645 200.899 60.3293 200.666 61.6604L200.599 62.0597H193.91C190.649 62.0597 187.721 62.5589 185.158 63.5905C182.596 64.6221 180.533 66.1529 179.002 68.1496C177.471 70.1795 176.706 72.509 176.706 75.2378C176.706 77.301 177.172 79.098 178.137 80.6621C179.068 82.2261 180.366 83.4241 181.997 84.2561C183.627 85.088 185.491 85.5206 187.588 85.5206C190.383 85.5206 192.879 84.6554 195.075 82.925C196.007 82.1928 196.806 81.3609 197.471 80.4291L197.238 84.7552H205.458L210.35 61.6604C210.915 58.8983 210.616 56.3692 209.484 54.073ZM194.343 76.4358C193.178 77.1679 191.98 77.5339 190.749 77.5339C189.451 77.5339 188.453 77.2012 187.687 76.5356C186.922 75.87 186.556 75.0048 186.556 73.9399C186.556 72.7419 186.889 71.7103 187.521 70.8784C188.153 70.0464 189.052 69.4141 190.183 68.9815C191.315 68.5489 192.646 68.3492 194.143 68.3492H199.235L198.935 69.7802V69.6804C198.636 71.0115 198.103 72.276 197.305 73.5073C196.473 74.7053 195.474 75.7037 194.343 76.4358Z" fill="white"/>
<path d="M249.052 53.6405C247.92 51.4441 246.323 49.747 244.26 48.549C242.197 47.351 239.834 46.752 237.172 46.752C235.108 46.752 233.145 47.2511 231.248 48.2162C229.418 49.1812 227.821 50.5124 226.423 52.2095L226.855 47.5173H218.303L208.02 96.2362H217.737L221.065 80.3626C221.93 81.96 223.128 83.1912 224.726 84.0898C226.489 85.0881 228.519 85.554 230.849 85.554C234.543 85.554 237.87 84.4558 240.899 82.2927C243.894 80.1297 246.29 77.2012 248.087 73.4741C249.85 69.7803 250.749 65.7204 250.749 61.361C250.749 58.3992 250.183 55.8368 249.052 53.6405ZM239.468 69.8468C238.536 71.9433 237.271 73.6405 235.641 74.9051C234.01 76.1696 232.18 76.8019 230.117 76.8019C228.652 76.8019 227.421 76.4358 226.456 75.7037C225.458 74.9716 224.759 73.94 224.293 72.6422C223.827 71.3443 223.694 69.8135 223.794 68.1164C223.827 67.5839 223.894 67.0847 223.994 66.5523L224.293 65.0881C224.593 63.9899 224.959 62.8917 225.458 61.8934C226.39 59.9966 227.621 58.4325 229.152 57.2678C230.682 56.103 232.346 55.504 234.21 55.504C235.574 55.504 236.772 55.8368 237.737 56.4691C238.736 57.1014 239.468 57.9999 240.033 59.1313C240.566 60.2628 240.832 61.6605 240.832 63.2911C240.865 65.5872 240.4 67.7503 239.468 69.8468Z" fill="white"/>
<path d="M264.493 55.0049C265.358 54.3726 266.589 54.0398 268.187 54.0398C269.351 54.0398 270.383 54.2728 271.348 54.7054C272.28 55.1713 273.078 55.8035 273.677 56.6022C274.276 57.4342 274.642 58.3327 274.776 59.3643L284.293 58.1996C284.193 56.0032 283.461 54.0398 282.063 52.3094C280.666 50.5789 278.802 49.2145 276.439 48.2162C274.077 47.2178 271.481 46.752 268.652 46.752C265.824 46.752 263.261 47.2511 260.999 48.2827C258.736 49.3144 256.939 50.7453 255.607 52.6421C254.276 54.5057 253.611 56.6688 253.611 59.0981C253.644 61.4608 254.21 63.3243 255.308 64.6555C256.406 66.0199 257.737 66.9849 259.268 67.6172C260.799 68.2495 262.796 68.8818 265.258 69.514C266.889 69.8468 268.153 70.1796 269.019 70.5124C269.884 70.8452 270.649 71.2778 271.248 71.8435C271.847 72.4092 272.147 73.1413 272.147 74.0398C272.147 75.3377 271.647 76.336 270.682 77.1014C269.684 77.8668 268.353 78.2328 266.622 78.2328C265.291 78.2328 264.093 77.9999 263.062 77.534C261.997 77.0681 261.165 76.3693 260.499 75.4375C259.834 74.5057 259.401 73.4408 259.168 72.1763L250.017 73.2079C250.216 75.7037 251.048 77.8668 252.446 79.7304C253.877 81.5939 255.774 83.0249 258.203 84.0565C260.632 85.0548 263.395 85.554 266.456 85.554C269.251 85.554 271.814 85.0215 274.143 83.9899C276.473 82.925 278.336 81.4608 279.734 79.5307C281.132 77.6006 281.83 75.3709 281.83 72.8418C281.83 70.3127 281.231 68.316 280.067 66.8851C278.902 65.4541 277.504 64.3892 275.874 63.7237C274.276 63.0581 272.18 62.3926 269.651 61.7603C268.12 61.361 266.922 61.0282 266.09 60.7619C265.258 60.4957 264.559 60.0964 263.994 59.5639C263.428 59.0648 263.162 58.3992 263.162 57.6338C263.162 56.5357 263.627 55.6372 264.493 55.0049Z" fill="white"/>
<path d="M307.222 75.6371C305.824 76.5689 304.193 77.068 302.296 77.068C300.4 77.068 298.769 76.5689 297.338 75.5705C295.907 74.5722 294.909 73.1745 294.31 71.4441C293.91 70.2461 293.711 68.9482 293.777 67.5506H318.836C320.133 63.89 320.333 60.4956 319.501 57.3342C318.669 54.1728 316.905 51.6105 314.177 49.6803C311.481 47.7502 308.12 46.7852 304.127 46.7852C300.965 46.7852 298.004 47.5505 295.241 49.1146C292.479 50.6454 290.217 52.7752 288.453 55.4041C286.656 58.0664 285.524 61.0614 285.025 64.3559C284.393 68.4158 284.692 72.0764 285.957 75.3043C287.222 78.5323 289.251 81.0281 292.08 82.8584C294.875 84.6887 298.137 85.5872 301.831 85.5872C305.957 85.5872 309.551 84.5223 312.613 82.3592C315.674 80.2294 317.804 77.2344 318.935 73.4075L310.117 71.677C309.584 73.3742 308.619 74.7053 307.222 75.6371ZM296.007 59.0647C296.872 57.6337 298.004 56.5689 299.368 55.7702C300.732 55.0048 302.197 54.6055 303.827 54.6055C305.192 54.6055 306.423 54.8717 307.521 55.4374C308.619 56.0031 309.451 56.8018 310.017 57.8334C310.583 58.865 310.782 60.0298 310.616 61.2943H294.875C295.208 60.4957 295.574 59.7635 296.007 59.0647Z" fill="white"/>
<path d="M61.7638 4.31445C27.6539 4.31445 0 31.9684 0 66.0782C0 100.188 27.6539 127.842 61.7638 127.842C95.8736 127.842 123.528 100.188 123.528 66.0782C123.528 31.9684 95.8736 4.31445 61.7638 4.31445ZM98.7355 103.05C88.852 112.934 75.7405 118.358 61.7638 118.358C47.7871 118.358 34.6756 112.934 24.792 103.05C14.9085 93.1664 9.4842 80.0549 9.4842 66.0782C9.4842 52.1015 14.9085 38.99 24.792 29.1065C34.6756 19.2229 47.7871 13.7987 61.7638 13.7987C75.7405 13.7987 88.852 19.2229 98.7355 29.1065C108.619 38.99 114.043 52.1015 114.043 66.0782C114.043 80.0549 108.619 93.1664 98.7355 103.05Z" fill="#FF8225"/>
<path d="M107.421 63.8821C107.288 60.521 106.789 57.2598 105.957 54.1317H84.06V63.8821H91.2147C91.2813 64.5809 91.3145 65.313 91.3145 66.0119C91.3145 82.3513 78.0367 95.6292 61.6972 95.6292C45.4909 95.6292 32.3128 82.551 32.0799 66.4112C34.1098 70.2714 38.3029 72.8338 43.8935 73.2332L45.9235 64.8139C37.8702 64.5144 32.5791 59.8222 31.4143 51.1699H23.6273C22.7954 57.4262 19.8003 61.6192 15.1414 63.5493C15.0749 64.5809 15.0416 65.6125 15.0416 66.6774C15.0416 68.6075 15.1747 70.5377 15.4409 72.4012C18.4692 71.4362 20.8652 69.7057 22.396 67.3763C23.1281 88.4744 40.4659 105.346 61.7305 105.346C83.461 105.346 101.098 87.7091 101.098 65.9786C101.098 65.2465 101.065 64.5476 101.032 63.8488H107.421V63.8821Z" fill="#FF8225"/>
<path d="M73.2114 73.699V63.9486H64.426L70.0832 37.8254H60.3328L52.5458 73.699H62.2962H73.2114Z" fill="#FF8225"/>
</svg>
