<svg width="444" height="444" viewBox="0 0 444 444" fill="none" xmlns="http://www.w3.org/2000/svg">
<path d="M222.022 11.1873C180.326 11.1828 139.566 23.543 104.895 46.7048C70.2239 69.8665 43.2 102.789 27.2407 141.31C11.2813 179.831 7.10336 222.219 15.2351 263.114C23.3668 304.009 43.443 341.574 72.9248 371.059C102.407 400.544 139.97 420.624 180.864 428.76C221.758 436.897 264.147 432.723 302.669 416.768C341.191 400.813 374.117 373.792 397.283 339.124C420.448 304.455 432.812 263.696 432.812 222C432.812 166.093 410.605 112.475 371.075 72.9408C331.545 33.4064 277.929 11.1932 222.022 11.1873Z" fill="#771610"/>
<path d="M293.643 113.64C295.692 113.633 297.739 113.745 299.774 113.975C300.557 115.536 301.462 117.033 302.481 118.45C306.962 124.939 313.79 129.432 321.522 130.98C309.126 131.853 299.729 127.579 293.643 113.64ZM298.118 110.552C296.707 107.007 295.701 103.314 295.12 99.5438C286.349 86.7903 265.675 85.6939 242.294 92.8314C256.77 113.125 276.393 117.511 298.23 110.552H298.118ZM263.192 84.5752C274.379 83.7474 283.821 85.5149 290.712 89.8556C292.009 90.6959 293.236 91.6387 294.382 92.6748C294.19 88.9973 294.265 85.3108 294.605 81.6442C286.215 71.0834 270.777 65.5345 248.671 65.5569C252.046 72.9218 257.05 79.4245 263.303 84.5752H263.192ZM321.365 126.796C325.927 131.792 330.832 136.465 336.043 140.78C334.791 138.012 333.722 135.164 332.843 132.255C330.188 130.11 327.648 127.825 325.236 125.409C332.866 107.509 322.73 90.4821 299.886 73.3432C295.321 97.5077 301.027 121.739 321.477 126.796H321.365ZM352.488 180.495C353.114 181.205 353.697 181.952 354.233 182.732C354.285 179.556 354.652 176.393 355.33 173.29C355.289 169.555 354.529 165.864 353.092 162.416C347.622 157.92 342.895 152.589 339.086 146.62C331.307 141.901 322.706 138.697 313.736 137.178C316.51 163.423 333.738 180.293 352.6 180.495H352.488ZM357.5 160.738C357.44 162.232 357.499 163.729 357.679 165.213C359.239 161.047 361.147 157.02 363.385 153.175C367.703 136.126 360.991 115.989 331.255 104.869C336.267 134.985 339.668 146.038 357.612 160.738H357.5ZM360.633 196.716C363.78 199.986 366.584 203.57 369.001 207.411C385.066 195.844 385.96 171.299 373.476 145.21C357.791 166.891 355.688 182.464 360.744 196.716H360.633ZM338.683 183.538C342.576 224.326 345.731 234.126 364.436 249.028C363.193 238.026 364.867 226.891 369.292 216.741C365.063 205.823 355.531 195.396 338.795 183.538H338.683ZM387.437 196.381C365.063 221.955 365.622 245.269 372.402 265.182C370.355 266.899 368.1 268.35 365.689 269.501L364.369 270.194C365.567 267.789 366.606 265.307 367.479 262.766C366.396 259.099 365.574 255.361 365.018 251.579C363.631 264.243 356.068 276.772 349.803 284.223C353.502 281.688 357.392 279.444 361.438 277.511C363.673 275.705 366.011 274.032 368.441 272.499C371.017 270.901 373.47 269.113 375.78 267.151C390.637 262.922 402.63 230.211 387.437 196.381ZM337.363 294.515C339.175 292.681 341.1 290.891 343.158 289.168C344.469 286.2 345.517 283.123 346.291 279.972C355.397 265.921 351.392 247.641 336.334 223.409C325.147 248.625 330.069 272.454 341.032 281.851C339.952 284.636 338.65 287.329 337.139 289.906C337.251 291.472 337.341 293.016 337.341 294.515H337.363ZM325.348 324.497C323.941 324.716 322.561 325.083 321.231 325.594C321.611 316.845 326.31 306.956 334.164 297.939C334.501 287.978 332.732 278.059 328.973 268.829C310.715 286.035 308.836 304.181 316.689 325.325C314.76 327.863 312.699 330.298 310.514 332.619C313.221 331.963 316.017 331.752 318.792 331.993C321.507 329.922 324.601 328.402 327.899 327.518C354.345 332.462 366.181 321.454 381.911 275.251C349.401 281.27 327.026 306.508 325.326 324.497H325.348ZM290.712 354.367C307.023 367.434 322.305 365.554 338.929 343.426C313.825 328.905 303.287 336.445 290.69 354.367H290.712ZM269.277 344.768C275.927 345.408 282.307 347.716 287.826 351.481C291.37 346.166 295.7 341.421 300.669 337.407C304.971 327.47 307.928 317.004 309.462 306.284C288.564 312.572 275.117 326.6 269.255 344.768H269.277ZM244.128 355.486C238.8 357.37 233.79 360.056 229.272 363.451L224.797 366.449C226.497 367.479 228.31 368.508 230.234 369.537C233.911 366.386 237.79 363.479 241.846 360.833C254.018 374.415 276.124 376.496 297.917 366.584C282.389 346.29 262.587 343.941 244.106 355.486H244.128ZM213.207 373.027C204.218 377.372 194.557 380.156 184.635 381.261L182.397 381.53L194.748 391.777L195.24 391.665C204.19 389.428 212.222 384.036 219.628 378.241L215.31 374.661L213.207 373.027Z" fill="#FCC341"/>
<path d="M68.3771 203.205C57.4136 190.429 58.0177 168.659 68.9812 145.658C73.7687 152.008 77.7309 158.94 80.7726 166.287C79.8094 173.719 77.6007 180.935 74.2392 187.633C73.0758 190.228 72.0018 192.667 71.0621 195.218C70.1223 197.768 69.1379 200.722 68.3771 203.205ZM148.791 357.298C148.433 356.896 146.554 355.441 145.01 354.144C138.328 348.365 132.146 342.033 126.528 335.215L125.455 333.85C119.055 333.335 111.627 334.946 102.677 339.309C111.627 360.453 133.174 366.718 149.306 357.858L148.791 357.298ZM159.978 117.019C154.741 115.891 149.368 115.522 144.025 115.922C143.444 116.951 142.817 117.958 142.146 118.92C139.853 122.221 136.932 125.036 133.55 127.205C130.167 129.375 126.39 130.855 122.434 131.562C137.201 135.41 149.373 132.345 159.978 117.019ZM160.784 113.014L165.013 113.864C177.542 112.611 188.73 106.145 197.836 93.3016C194.211 92.2052 190.676 91.2879 187.208 90.5942C177.43 99.2084 164.834 103.482 148.612 104.019C147.996 106.658 147.158 109.241 146.106 111.738C151.032 111.591 155.958 112.019 160.784 113.014ZM199.783 65.2216C175.887 66.2955 159.218 72.8736 150.089 84.3294C150.438 89.5068 150.213 94.707 149.418 99.8349C172.396 98.9623 189.311 89.6322 199.783 65.2216ZM111.761 132.524C110.971 135.182 110.022 137.789 108.92 140.333L110.083 139.796C114.697 135.865 119.061 131.65 123.15 127.177C143.6 122.098 149.306 97.866 144.629 73.7239C121.785 90.8404 111.649 107.867 119.279 125.767C116.91 128.195 114.399 130.481 111.761 132.614V132.524ZM77.1256 188.595C75.9621 191.145 74.8881 193.562 73.9931 196.045C72.4269 200.341 71.2187 204.167 70.3013 207.591C71.8895 210.197 73.3239 212.894 74.5972 215.668C75.4698 211.193 76.7004 205.868 78.468 199.827C80.5559 195.771 83.0204 191.92 85.8292 188.326C87.5058 185.647 89.4472 183.144 91.6242 180.853C110.754 180.853 128.095 163.96 130.69 137.581C106.302 142.056 86.3438 155.637 89.4987 178.638C88.2681 180.204 87.1046 181.838 85.9635 183.516C84.8224 185.194 83.368 187.23 81.8913 189.042C85.1804 178.951 88.201 169.218 87.9772 160.313C88.7643 158.559 89.7 156.874 90.774 155.279C93.8758 150.826 97.8211 147.025 102.386 144.092C107.846 134.806 110.262 123.574 113.238 105.317C78.5575 118.294 75.2013 143.51 84.1511 161.812C83.9274 173.447 80.3699 181.435 77.1256 188.684V188.595ZM105.832 182.017C88.6037 194.233 78.9826 204.928 74.8657 216.205C79.2774 225.968 81.1257 236.696 80.2356 247.372C98.8065 232.628 101.961 222.783 105.832 182.106V182.017ZM68.9812 267.599C70.804 269.169 72.7328 270.612 74.7539 271.917C80.7015 273.888 86.3829 276.586 91.669 279.95C90.1197 277.275 88.8668 274.439 87.9324 271.492C83.8626 264.63 81.2076 257.022 80.1237 249.118C79.6652 253.284 78.8721 257.407 77.752 261.446C78.9598 265.008 80.4564 268.465 82.2269 271.783C81.1082 271.089 79.9895 270.53 78.9379 269.993C76.5271 268.834 74.2719 267.375 72.2255 265.652C78.9379 245.739 79.5196 222.425 57.1899 196.851C41.9752 230.793 54.0574 263.415 68.9812 267.689V267.599ZM108.674 222.112C84.2854 249.498 87.4178 268.964 99.4329 284.089C99.6567 284.783 99.8804 285.476 100.127 286.148C103.151 288.689 105.978 291.457 108.584 294.426C108.584 293.777 108.741 293.106 108.808 292.435C107.044 289.656 105.51 286.737 104.221 283.709C116.303 273.506 125.656 248.178 108.674 222.201V222.112ZM117.623 327.54C118.563 327.772 119.489 328.056 120.398 328.391C116.654 324.753 113.678 320.402 111.645 315.594C109.612 310.787 108.563 305.62 108.562 300.4C102.653 292.761 95.2837 286.374 86.8829 281.611C78.482 276.848 69.2174 273.804 59.6287 272.656C76.4319 322.036 88.9393 333.291 117.512 327.63L117.623 327.54ZM126.864 328.502C131.899 335.755 137.881 342.302 144.652 347.968C142.444 343.833 140.638 339.495 139.26 335.013C136.174 331.758 133.304 328.305 130.668 324.676C137.582 305.233 135.501 288.072 118.765 271.313C107.756 298.252 112.231 317.718 126.752 328.592L126.864 328.502ZM176.088 344.881C170.987 327.205 158.614 313.064 138.812 305.703C139.282 326.377 144.652 343.046 153.848 353.875C160.143 348.679 167.884 345.547 176.021 344.903L176.088 344.881ZM260.082 381.62C237.707 378.935 225.088 370.79 214.953 364.235C211.031 361.532 206.893 359.16 202.579 357.142C183.539 344.142 162.865 345.955 146.845 366.942C168.436 376.809 190.385 374.84 202.602 361.55C206.898 364.369 211.35 367.949 216.027 371.663C225.983 379.74 237.282 388.869 249.588 392.024L250.103 392.158L262.454 381.91L260.082 381.62Z" fill="#FCC341"/>
<path d="M222.022 1.12804e-06C178.114 -0.00442423 135.19 13.0119 98.6798 37.4029C62.1691 61.7938 33.7114 96.4639 16.9053 137.029C0.0991908 177.594 -4.30035 222.231 4.26304 265.296C12.8264 308.362 33.9681 347.92 65.0145 378.97C96.0608 410.019 135.617 431.165 178.682 439.733C221.746 448.3 266.384 443.905 306.951 427.103C347.517 410.301 382.19 381.847 406.585 345.339C430.979 308.831 444 265.908 444 222C444 163.126 420.614 106.663 378.986 65.0302C337.357 23.3978 280.897 0.00593483 222.022 1.12804e-06ZM222.022 419.97C182.861 419.974 144.579 408.365 112.015 386.611C79.4524 364.857 54.0718 333.935 39.0835 297.756C24.0952 261.577 20.1724 221.766 27.8112 183.357C35.4501 144.948 54.3075 109.667 81.9985 81.976C109.69 54.285 144.97 35.4276 183.379 27.7888C221.788 20.1499 261.599 24.0727 297.779 39.061C333.958 54.0493 364.88 79.4299 386.634 111.993C408.388 144.556 419.997 182.839 419.992 222C419.986 274.503 399.127 324.854 362.002 361.979C324.876 399.104 274.525 419.964 222.022 419.97Z" fill="#FCC341"/>
</svg>
