<?xml version="1.0" encoding="UTF-8" standalone="no"?>
<svg
   xmlns:dc="http://purl.org/dc/elements/1.1/"
   xmlns:cc="http://creativecommons.org/ns#"
   xmlns:rdf="http://www.w3.org/1999/02/22-rdf-syntax-ns#"
   xmlns:svg="http://www.w3.org/2000/svg"
   xmlns="http://www.w3.org/2000/svg"
   xmlns:sodipodi="http://sodipodi.sourceforge.net/DTD/sodipodi-0.dtd"
   xmlns:inkscape="http://www.inkscape.org/namespaces/inkscape"
   width="4096"
   height="4096"
   viewBox="0 0 4096 4096"
   version="1.1"
   id="svg10"
   sodipodi:docname="olx-logo.svg"
   inkscape:export-filename="G:\Users\suitedoalex\sites\olx-logo-0.png"
   inkscape:export-xdpi="96"
   inkscape:export-ydpi="96"
   inkscape:version="0.92.2 (5c3e80d, 2017-08-06)">
  <metadata
     id="metadata16">
    <rdf:RDF>
      <cc:Work
         rdf:about="">
        <dc:format>image/svg+xml</dc:format>
        <dc:type
           rdf:resource="http://purl.org/dc/dcmitype/StillImage" />
        <dc:title></dc:title>
      </cc:Work>
    </rdf:RDF>
  </metadata>
  <defs
     id="defs14" />
  <sodipodi:namedview
     pagecolor="#ffffff"
     bordercolor="#666666"
     borderopacity="1"
     objecttolerance="10"
     gridtolerance="10"
     guidetolerance="10"
     inkscape:pageopacity="0"
     inkscape:pageshadow="2"
     inkscape:window-width="1600"
     inkscape:window-height="837"
     id="namedview12"
     showgrid="false"
     inkscape:zoom="0.057659586"
     inkscape:cx="-1875.6051"
     inkscape:cy="3839.6131"
     inkscape:window-x="-8"
     inkscape:window-y="-8"
     inkscape:window-maximized="1"
     inkscape:current-layer="svg10" />
  <g
     id="g8"
     style="fill:none;fill-rule:evenodd"
     transform="matrix(104.32129,0,0,104.32129,379.02279,1163.6932)"
     inkscape:export-filename="G:\Users\suitedoalex\sites\olx-logo-5.png"
     inkscape:export-xdpi="2.8768296"
     inkscape:export-ydpi="2.8768296">
    <path
       d="m 6.0628317,13.999604 c -1.8251174,0 -3.0837841,-1.529165 -3.0837841,-3.790582 0,-2.2830067 1.2586667,-3.8121723 3.0837841,-3.8121723 1.8251175,0 3.0839874,1.5291656 3.0839874,3.7905833 0,2.283006 -1.2588699,3.812171 -3.0839874,3.812171 m 0,2.864657 c 3.3775747,0 6.0629333,-2.843068 6.0629333,-6.676828 0,-3.7905833 -2.5384634,-6.6552397 -6.0629333,-6.6552397 C 2.6852571,3.5321933 0,6.3752607 0,10.209022 c 0,3.855245 2.5383619,6.655239 6.0628317,6.655239"
       id="path2"
       inkscape:connector-curvature="0"
       style="fill:#6e0ad6" />
    <path
       d="m 14.622202,11.781209 h 5.790171 c 0.398527,0 0.629334,-0.236853 0.629334,-0.646209 V 9.2612454 c 0,-0.4091472 -0.230807,-0.646 -0.629334,-0.646 H 16.53123 V 0.64610429 C 16.53123,0.23685276 16.300526,0 15.901999,0 H 13.992767 C 13.59424,0 13.363535,0.23685276 13.363535,0.64610429 V 10.489 c 0,0.839883 0.440483,1.292209 1.258667,1.292209"
       id="path4"
       inkscape:connector-curvature="0"
       style="fill:#8ce563" />
    <path
       d="m 22.489316,16.670221 3.482514,-4.113687 3.377574,4.113687 c 0.293689,0.366178 0.671391,0.366178 1.006934,0.06466 l 1.363606,-1.22765 c 0.335645,-0.301619 0.3776,-0.689282 0.06298,-1.033767 L 28.02775,10.165789 31.44728,6.2243968 C 31.740969,5.8798078 31.71994,5.5135256 31.3844,5.1905256 L 30.104604,4.0060552 C 29.76896,3.6828466 29.39136,3.7044356 29.097569,4.0705092 L 25.97183,7.796638 22.783106,4.0705092 c -0.29379,-0.3445889 -0.67139,-0.3876626 -1.007035,-0.064454 l -1.321752,1.2060614 c -0.335645,0.323 -0.356572,0.6676932 -0.04196,1.0337668 l 3.482514,3.9413926 -3.79713,4.329264 c -0.314819,0.365969 -0.272762,0.732147 0.06288,1.033767 l 1.321651,1.184576 c 0.335746,0.301516 0.713244,0.280031 1.007035,-0.06466"
       id="path6"
       inkscape:connector-curvature="0"
       style="fill:#f28000" />
  </g>
</svg>

