<svg width="288" height="64" viewBox="0 0 288 64" fill="none" xmlns="http://www.w3.org/2000/svg">
<path fill-rule="evenodd" clip-rule="evenodd" d="M165.926 18.7133V24.8847C165.999 25.3627 166.369 25.75 166.885 25.8373C167.697 25.9727 168.803 26.1627 169.098 26.248C169.163 26.2673 169.235 26.288 169.313 26.3107C170.834 26.7493 174.713 27.8673 174.853 33.5267V50.795C174.853 54.234 176.18 57.529 178.615 59.947C180.975 62.331 184.221 63.665 187.54 63.661H187.688C187.688 63.661 187.688 63.715 190.699 63.661C191.462 63.647 191.906 63.138 191.895 62.286C191.881 61.106 191.913 60.184 191.893 59.187C191.877 58.354 191.893 57.588 191.893 56.896C191.893 56.253 191.377 55.727 190.787 55.703C189.68 55.699 188.131 55.699 186.656 55.699C184.516 55.699 182.672 53.901 182.672 51.684V42.319C182.745 42.297 182.672 33.36 182.672 33.2573C182.466 25.6127 177.394 22.3587 176.463 21.7613C176.394 21.7173 176.348 21.6873 176.328 21.672C176.348 21.6553 176.394 21.6253 176.462 21.58C177.411 20.956 182.672 17.4933 182.672 9.5187V1.154C182.672 0.516699 182.229 0 181.565 0H175.959C175.369 0 174.853 0.516699 174.853 1.154V9.5187C174.853 15.47 170.866 16.6373 169.324 17.088C169.241 17.1127 169.166 17.1347 169.098 17.1553C168.803 17.24 167.697 17.4307 166.885 17.5647C166.295 17.664 165.926 18.148 165.926 18.7133ZM263.959 32.8973V49.193C263.959 49.483 263.845 49.759 263.642 49.964C263.44 50.168 263.165 50.283 262.878 50.283C261.387 50.281 258.715 50.28 257.225 50.279C256.629 50.278 256.146 49.791 256.146 49.19C256.146 42.565 256.146 7.718 256.146 1.0893C256.146 0.487998 256.63 0 257.226 0C258.717 0 261.388 0 262.878 0C263.475 0 263.959 0.487998 263.959 1.0893C263.959 5.3033 263.959 20.3 263.959 20.3C272.295 12.434 287.646 18.0913 287.646 32.8607V49.189C287.646 49.478 287.532 49.755 287.33 49.959C287.127 50.163 286.853 50.278 286.566 50.278C285.075 50.278 282.398 50.278 280.907 50.278C280.62 50.278 280.346 50.163 280.143 49.959C279.941 49.755 279.827 49.478 279.827 49.189C279.827 45.377 279.827 32.8607 279.827 32.8607C279.827 25.146 272.08 22.7873 267.434 25.88C265.441 27.2067 263.959 29.586 263.959 32.8973ZM228.557 21.7367C225.163 25.084 223.613 29.4967 223.613 33.92C223.613 38.344 225.163 42.756 228.557 46.105C234.237 51.873 243.016 52.641 249.655 48.399C249.727 48.345 249.814 48.288 249.907 48.227C250.1 48.1 250.317 47.958 250.466 47.81C250.835 47.445 251.045 46.769 250.547 46.063C250.1 45.428 249.513 44.636 248.889 43.787C248.353 43.059 247.851 42.38 247.407 41.7587C247.046 41.2547 246.334 41.12 245.818 41.4267C245.67 41.5187 245.547 41.5933 245.401 41.6873C237.95 46.503 230.99 40.1447 230.99 33.92C230.99 27.6953 238.092 21.3727 245.395 26.1633C245.538 26.258 245.67 26.3213 245.818 26.414C246.334 26.7207 247.06 26.574 247.411 26.0807C247.855 25.4593 248.351 24.784 248.887 24.0567C249.449 23.292 249.976 22.58 250.4 21.984C251.108 20.99 250.92 20.2827 249.905 19.6127C249.813 19.552 249.726 19.4953 249.655 19.4433C243.016 15.2 234.237 15.9673 228.557 21.7367ZM196.762 36.7787H215.205C217.418 36.7787 219.188 34.9907 219.188 32.7867C219.188 27.8807 218.376 25.2647 215.573 21.9253C212.696 18.5687 208.122 16.7487 204.581 16.7487C195.729 16.7487 188.942 24.328 188.942 33.922C188.942 45.743 198.089 51.095 205.392 51.095C210.63 51.095 214.688 49.829 218.671 47.31C219.114 46.979 219.335 46.3 219.04 45.765L218.925 45.574C218.12 44.238 217.008 42.393 216.164 41.1227C215.869 40.62 215.205 40.472 214.688 40.7853C212.18 42.281 209.524 43.598 205.541 43.569C201.852 43.543 197.942 41.1847 196.762 36.7787ZM211.147 30.2273C210.483 25.27 207.089 24.3647 204.581 24.3647C201.188 24.3647 198.312 26.896 197.057 30.2273H211.147Z" fill="#3ADF68"/>
<path fill-rule="evenodd" clip-rule="evenodd" d="M19.4858 16.8943C15.9652 16.5229 12.4175 17.2523 9.32863 18.9809C6.23973 20.7096 3.76153 23.3536 2.23453 26.5483C0.708328 29.7443 0.208526 33.3343 0.803426 36.8249C1.39843 40.3169 3.05953 43.537 5.55883 46.045C8.05683 48.554 11.2713 50.226 14.7582 50.832C18.245 51.438 21.8344 50.95 25.0317 49.432C28.2297 47.914 30.8797 45.442 32.6162 42.357C34.354 39.2709 35.093 35.7229 34.7334 32.1989C34.3375 28.2829 32.605 24.6229 29.8274 21.8356C27.0505 19.0476 23.3977 17.3023 19.4858 16.8943ZM18.9305 43.015C17.0367 43.269 15.1125 42.923 13.4262 42.026C11.7393 41.1282 10.3763 39.7256 9.52823 38.0123C8.68013 36.2996 8.38933 34.3643 8.69673 32.4776C9.00473 30.5923 9.89513 28.8496 11.2436 27.4963C12.592 26.1423 14.3312 25.2463 16.2144 24.9323C18.0983 24.6183 20.0338 24.9029 21.7484 25.7469C23.4618 26.5896 24.8684 27.9489 25.7701 29.6343C26.6723 31.3189 27.0233 33.2436 26.7761 35.1396C26.5157 37.1329 25.6061 38.9843 24.1876 40.4083C22.769 41.8316 20.9215 42.748 18.9305 43.015ZM43.8958 17.5723C43.3022 17.5736 42.7152 17.7076 42.1798 17.9643C41.6437 18.2209 41.1718 18.5943 40.7983 19.0569C40.4241 19.5189 40.1577 20.0589 40.0196 20.6369C39.8808 21.2149 39.8715 21.8169 39.9945 22.3983C40.3706 24.2836 42.1296 25.5702 44.0459 25.5702H55.1675L37.8601 48.49C37.7318 48.659 37.6538 48.861 37.634 49.072C37.6135 49.283 37.6532 49.496 37.747 49.686C37.8416 49.876 37.9863 50.037 38.1661 50.149C38.3466 50.261 38.5541 50.321 38.7663 50.322H65.914C67.829 50.322 69.59 49.035 69.966 47.15C70.089 46.568 70.08 45.966 69.941 45.388C69.802 44.81 69.536 44.27 69.163 43.808C68.79 43.346 68.318 42.973 67.782 42.716C67.246 42.458 66.66 42.324 66.066 42.323H52.5155L69.81 19.4216C69.939 19.2503 70.018 19.0469 70.038 18.8336C70.058 18.6203 70.019 18.4056 69.923 18.2143C69.828 18.0216 69.681 17.8603 69.5 17.7469C69.319 17.6336 69.108 17.5729 68.894 17.5723H43.8958ZM152.381 17.6649C151.479 17.8783 150.679 18.3929 150.111 19.1229C149.547 19.8529 149.247 20.7543 149.26 21.6789V34.9956L127.696 17.8243C127.526 17.6896 127.323 17.6056 127.109 17.5823C126.894 17.5589 126.677 17.5956 126.483 17.6903C126.288 17.7843 126.124 17.9309 126.01 18.1143C125.896 18.2983 125.835 18.5096 125.836 18.7256V46.222C125.821 47.147 126.122 48.049 126.689 48.778C127.256 49.508 128.056 50.023 128.954 50.237C129.538 50.366 130.143 50.361 130.722 50.224C131.304 50.088 131.847 49.822 132.314 49.447C132.781 49.072 133.158 48.598 133.414 48.057C133.67 47.518 133.804 46.927 133.804 46.33V32.8969L155.366 50.069C155.54 50.204 155.744 50.287 155.955 50.311C156.173 50.335 156.39 50.297 156.582 50.203C156.774 50.109 156.94 49.962 157.055 49.779C157.17 49.596 157.228 49.384 157.228 49.168V21.5709C157.228 20.9729 157.094 20.3823 156.838 19.8429C156.582 19.3036 156.205 18.8289 155.738 18.4543C155.271 18.0796 154.728 17.8136 154.145 17.6769C153.563 17.5409 152.963 17.5363 152.381 17.6649ZM96.23 24.8056C105.352 24.8056 112.167 29.6289 112.167 33.9429C112.167 38.2576 105.352 43.081 96.23 43.081C87.11 43.081 80.295 38.2576 80.295 33.9429C80.295 29.6289 87.11 24.8056 96.23 24.8056ZM96.23 16.8069C83.028 16.8069 72.326 24.4789 72.326 33.9429C72.326 43.406 83.028 51.079 96.23 51.079C109.433 51.079 120.135 43.406 120.135 33.9429C120.135 24.4789 109.433 16.8069 96.23 16.8069Z" fill="#032B44"/>
</svg>
