<?xml version="1.0" encoding="utf-8"?>
<!-- Generator: Adobe Illustrator 23.0.4, SVG Export Plug-In . SVG Version: 6.00 Build 0)  -->
<svg version="1.1" id="Ebene_1" xmlns="http://www.w3.org/2000/svg" xmlns:xlink="http://www.w3.org/1999/xlink" x="0px" y="0px"
	 viewBox="0 0 315.6 127.4" style="enable-background:new 0 0 315.6 127.4;" xml:space="preserve">
<style type="text/css">
	.st0{fill:#00FF99;}
</style>
<g>
	<polygon class="st0" points="41.4,127.4 41.4,127.4 41.4,127.4 	"/>
	<polygon class="st0" points="0,23.9 0,23.9 0,23.9 	"/>
	<polygon class="st0" points="41.4,0 2.1,22.7 43.5,46.6 43.5,126.2 55.2,119.5 55.2,103.6 55.2,87.7 82.8,71.7 82.8,23.9 	"/>
	<polygon class="st0" points="0,26.3 0,71.7 27.6,87.7 27.6,103.6 27.6,119.5 39.3,126.2 39.3,49 	"/>
</g>
<g>
	<g>
		<polygon class="st0" points="213.3,23.8 213.3,31.2 213.3,71.6 221.6,71.6 221.6,65.3 221.6,23.8 		"/>
		<rect x="213.3" y="5.3" class="st0" width="8.3" height="7.8"/>
	</g>
</g>
<path class="st0" d="M311.8,68.7c-2.5,2-6.1,3-10.8,3h-14.5v-7.2H302c1.7,0,3.1-0.4,4-1.1c0.9-0.7,1.4-1.8,1.4-3.2v-5.1
	c0-2.9-1.4-4.3-4.2-4.3h-3.6c-4.5,0-7.9-1-10.1-2.9c-2.2-1.9-3.3-5-3.3-9.2v-2.8c0-4.3,1.2-7.3,3.7-9.2c2.5-1.9,6.1-2.8,10.9-2.8h13
	V31h-14c-1.6,0-2.9,0.4-3.9,1.1c-1,0.7-1.5,1.8-1.5,3.2v3.4c0,1.5,0.4,2.5,1.3,3.2c0.9,0.7,2,1.1,3.3,1.1h3.3c4.3,0,7.6,1,9.9,3.1
	c2.3,2.1,3.4,5.1,3.4,9.2v4.3C315.6,63.7,314.3,66.7,311.8,68.7"/>
<path class="st0" d="M136.4,23.8v2.3c-2-1.5-4.2-2.3-7.4-2.3h-3.5c-5.7,0-9.9,1.2-12.5,3.6c-2.6,2.4-4,6.3-4,11.7v1.4v15.6
	c0,5.4,1.3,9.5,4,11.9c2.6,2.4,6.7,3.6,12.3,3.6h3.9c2.8,0,5.2-0.8,7.1-2.1v18.2h8.1V40.6v-1.9V23.8H136.4z M136.4,58.1
	c0,2-0.6,3.5-1.8,4.6c-1.2,1.1-3,1.6-5.4,1.6h-2.4h-0.1h-2.4c-2.4,0-4.1-0.5-5.4-1.6c-1.2-1.1-1.8-2.6-1.8-4.6V37
	c0-2,0.6-3.5,1.8-4.6c1.2-1.1,3-1.6,5.4-1.6h2.5h2.5c2.4,0,4.1,0.5,5.4,1.6c1.2,1.1,1.8,2.6,1.8,4.6V58.1z"/>
<path class="st0" d="M168.9,23.8v2.3c2-1.6,4.6-2.3,7.8-2.3h4.5c5.3,0,9.2,1.2,11.7,3.7c2.6,2.5,3.8,6.4,3.8,11.9v32.2h-8.3V37.5
	c0-1.9-0.6-3.5-1.7-4.6c-1.1-1.1-2.7-1.7-4.6-1.7h-6.4c-2.1,0-3.7,0.6-4.8,1.7c-1,1.1-1.6,2.4-1.6,3.7v35.1h-8.3V23.8H168.9z"/>
<path class="st0" d="M238.1,23.8v14.9v1.9v47.2h8.1V69.5c2,1.3,4.3,2.1,7.1,2.1h3.9c5.6,0,9.7-1.2,12.3-3.6c2.6-2.4,4-6.5,4-11.9
	V40.6v-1.4c0-5.4-1.3-9.3-4-11.7c-2.7-2.4-6.8-3.6-12.5-3.6h-3.5c-3.2,0-5.4,0.8-7.4,2.3v-2.3H238.1z M246.2,37c0-2,0.6-3.5,1.8-4.6
	c1.2-1.1,3-1.6,5.4-1.6h2.5h2.5c2.4,0,4.1,0.5,5.4,1.6c1.2,1.1,1.8,2.6,1.8,4.6v21.1c0,2-0.6,3.5-1.8,4.6c-1.2,1.1-3,1.6-5.4,1.6
	h-2.4h-0.1h-2.4c-2.4,0-4.1-0.5-5.4-1.6c-1.2-1.1-1.8-2.6-1.8-4.6V37z"/>
</svg>
