<svg width="1048" height="639" viewBox="0 0 1048 639" fill="none" xmlns="http://www.w3.org/2000/svg">
<rect width="1048" height="639" fill="#181920"/>
<rect width="1048" height="639" fill="#181920"/>
<path d="M611.419 59L37 580H436.581L1011 59H611.419Z" fill="#36C4DE"/>
<path d="M270.861 304.503L294.789 259.153L318.798 304.503H270.861ZM287.207 249L238.606 337.605H253.267L264.624 315.832H324.873L336.262 337.605H352.592L303.132 249H287.207ZM593.605 288.999V264.342H640.23C643.826 264.342 646.272 264.858 647.585 265.889C648.913 266.921 649.577 268.726 649.577 271.288V281.957C649.577 284.584 648.913 286.421 647.585 287.452C646.272 288.484 643.826 288.999 640.23 288.999H593.605ZM649.399 304.148C656.479 304.148 661.598 302.778 664.789 300.023C667.965 297.299 669.536 292.964 669.536 286.985V266.163C669.536 260.152 667.948 255.769 664.789 253.061C661.598 250.354 656.479 249 649.399 249H573.225V337.605H593.621V304.148H613.256L649.14 337.589H678.868L637.767 304.148H649.399ZM560.41 249H538.669L483.135 286.969V249H468.198V337.605H483.118V297.783L542.622 337.605H567.474L495.836 291.433L560.41 249ZM443.087 316.171L367.674 249H358.327V337.605H371.984V268.951L448.401 337.605H456.744V249H443.087V316.171V316.171ZM834.343 290.74L893.312 249H863.325L813.946 285.954V249H793.032V337.605H813.946V298.637L867.294 337.605H900.57L834.343 290.74ZM223.621 314.978C223.621 318.926 222.94 321.666 221.531 323.181C220.121 324.696 217.529 325.437 213.771 325.437H162.367V296.944H213.755C217.464 296.944 220.024 297.718 221.466 299.265C222.908 300.78 223.621 303.552 223.621 307.597V314.978V314.978ZM162.367 260.893H213.755C217.286 260.893 219.684 261.458 220.948 262.586C222.211 263.698 222.843 265.712 222.843 268.629V277.493C222.843 280.41 222.179 282.44 220.867 283.617C219.538 284.793 217.189 285.389 213.771 285.389H162.367V260.893ZM238.606 308.935C238.606 303.842 237.31 299.829 234.702 296.912C232.077 293.963 228.286 292.19 223.28 291.594C228.4 290.966 232.142 289.483 234.523 287.13C236.905 284.777 238.088 281.232 238.088 276.494V266.196C238.088 260.152 236.613 255.785 233.665 253.061C230.716 250.354 225.889 249 219.214 249H147.43V337.605H213.933C222.244 337.605 228.432 336.17 232.515 333.334C236.565 330.481 238.606 326.13 238.606 320.232V308.935V308.935ZM762.283 313.705C762.283 316.654 761.587 318.717 760.21 319.877C758.849 321.054 756.176 321.65 752.271 321.65H704.983V299.12H752.271C756.176 299.12 758.849 299.7 760.21 300.845C761.587 301.989 762.283 304.052 762.283 307.001V313.705ZM704.999 263.424H752.288C755.884 263.424 758.363 263.907 759.74 264.89C761.117 265.857 761.813 267.517 761.813 269.805V278.153C761.813 280.506 761.117 282.15 759.74 283.101C758.363 284.052 755.884 284.535 752.288 284.535H704.999V263.424ZM765.556 291.916C770.497 291.288 774.288 289.709 776.945 287.162C779.585 284.648 780.914 281.248 780.914 276.977V266.196C780.914 260.217 779.326 255.833 776.199 253.126C773.073 250.386 767.97 249 760.955 249H684.602V337.605H755.366C764.195 337.605 770.756 336.17 775.098 333.318C779.407 330.481 781.562 326.114 781.562 320.248V308.951C781.562 304.197 780.185 300.329 777.398 297.364C774.612 294.398 770.675 292.577 765.556 291.916Z" fill="white"/>
<path d="M148.041 437.326V379.33H171.262C175.528 379.33 179.087 379.962 181.938 381.227C184.788 382.492 186.931 384.248 188.366 386.494C189.801 388.722 190.518 391.29 190.518 394.197C190.518 396.462 190.065 398.454 189.159 400.172C188.253 401.871 187.007 403.268 185.421 404.363C183.854 405.439 182.06 406.204 180.04 406.657V407.223C182.249 407.318 184.316 407.941 186.242 409.092C188.186 410.244 189.763 411.858 190.971 413.935C192.179 415.993 192.783 418.447 192.783 421.297C192.783 424.375 192.019 427.122 190.49 429.538C188.979 431.936 186.742 433.833 183.778 435.23C180.814 436.627 177.161 437.326 172.819 437.326H148.041ZM160.302 427.301H170.299C173.716 427.301 176.208 426.65 177.775 425.347C179.342 424.025 180.125 422.27 180.125 420.08C180.125 418.475 179.738 417.059 178.964 415.832C178.19 414.605 177.086 413.642 175.651 412.944C174.235 412.245 172.545 411.896 170.582 411.896H160.302V427.301ZM160.302 403.599H169.393C171.073 403.599 172.564 403.306 173.867 402.721C175.188 402.117 176.227 401.267 176.982 400.172C177.756 399.077 178.143 397.765 178.143 396.236C178.143 394.14 177.397 392.451 175.906 391.167C174.433 389.883 172.338 389.241 169.619 389.241H160.302V403.599ZM228.429 418.805V393.829H240.493V437.326H228.91V429.425H228.457C227.476 431.973 225.843 434.022 223.558 435.57C221.293 437.118 218.527 437.892 215.261 437.892C212.354 437.892 209.796 437.231 207.587 435.91C205.378 434.588 203.651 432.71 202.405 430.274C201.177 427.839 200.554 424.922 200.536 421.524V393.829H212.599V419.372C212.618 421.939 213.307 423.969 214.666 425.46C216.026 426.952 217.847 427.697 220.132 427.697C221.585 427.697 222.945 427.367 224.21 426.706C225.475 426.027 226.494 425.026 227.268 423.705C228.061 422.383 228.448 420.75 228.429 418.805ZM286.333 406.232L275.289 406.912C275.1 405.968 274.694 405.118 274.071 404.363C273.448 403.589 272.627 402.976 271.607 402.522C270.607 402.051 269.408 401.815 268.011 401.815C266.142 401.815 264.566 402.211 263.282 403.004C261.998 403.778 261.356 404.816 261.356 406.119C261.356 407.157 261.771 408.035 262.602 408.753C263.433 409.47 264.858 410.046 266.878 410.48L274.751 412.066C278.979 412.934 282.132 414.331 284.209 416.257C286.286 418.182 287.324 420.712 287.324 423.846C287.324 426.697 286.484 429.198 284.804 431.35C283.142 433.503 280.858 435.183 277.951 436.391C275.062 437.58 271.73 438.175 267.954 438.175C262.196 438.175 257.609 436.976 254.192 434.579C250.793 432.162 248.802 428.877 248.216 424.724L260.082 424.101C260.44 425.857 261.309 427.197 262.687 428.122C264.065 429.028 265.83 429.481 267.983 429.481C270.097 429.481 271.796 429.076 273.08 428.264C274.382 427.433 275.043 426.366 275.062 425.064C275.043 423.969 274.581 423.072 273.675 422.374C272.768 421.656 271.371 421.109 269.483 420.731L261.951 419.23C257.703 418.381 254.541 416.908 252.464 414.813C250.406 412.717 249.377 410.046 249.377 406.799C249.377 404.004 250.133 401.597 251.643 399.577C253.172 397.557 255.315 396 258.071 394.905C260.846 393.81 264.094 393.262 267.813 393.262C273.306 393.262 277.63 394.423 280.782 396.746C283.954 399.068 285.804 402.23 286.333 406.232ZM294.92 437.326V393.829H306.984V437.326H294.92ZM300.98 388.222C299.187 388.222 297.648 387.627 296.365 386.438C295.1 385.229 294.467 383.785 294.467 382.105C294.467 380.444 295.1 379.018 296.365 377.829C297.648 376.621 299.187 376.017 300.98 376.017C302.774 376.017 304.303 376.621 305.568 377.829C306.852 379.018 307.494 380.444 307.494 382.105C307.494 383.785 306.852 385.229 305.568 386.438C304.303 387.627 302.774 388.222 300.98 388.222ZM328.711 412.179V437.326H316.647V393.829H328.145V401.503H328.654C329.617 398.973 331.231 396.972 333.497 395.5C335.762 394.008 338.509 393.262 341.737 393.262C344.758 393.262 347.392 393.923 349.638 395.245C351.885 396.566 353.631 398.454 354.877 400.908C356.123 403.344 356.746 406.251 356.746 409.63V437.326H344.683V411.783C344.701 409.121 344.022 407.044 342.644 405.553C341.265 404.042 339.368 403.287 336.952 403.287C335.328 403.287 333.893 403.636 332.647 404.335C331.42 405.033 330.457 406.053 329.759 407.393C329.079 408.715 328.73 410.31 328.711 412.179ZM386.077 438.175C381.602 438.175 377.751 437.269 374.523 435.457C371.313 433.625 368.84 431.039 367.104 427.697C365.367 424.337 364.498 420.363 364.498 415.775C364.498 411.301 365.367 407.374 367.104 403.995C368.84 400.616 371.285 397.982 374.438 396.094C377.61 394.206 381.329 393.262 385.595 393.262C388.465 393.262 391.136 393.725 393.609 394.65C396.101 395.556 398.272 396.925 400.123 398.756C401.992 400.587 403.445 402.891 404.484 405.666C405.522 408.422 406.041 411.65 406.041 415.351V418.664H369.312V411.188H394.685C394.685 409.451 394.308 407.912 393.553 406.572C392.798 405.232 391.75 404.184 390.409 403.429C389.088 402.655 387.549 402.268 385.794 402.268C383.962 402.268 382.339 402.692 380.923 403.542C379.526 404.373 378.431 405.496 377.638 406.912C376.845 408.309 376.439 409.866 376.42 411.584V418.692C376.42 420.844 376.817 422.704 377.61 424.271C378.421 425.838 379.564 427.046 381.036 427.896C382.509 428.745 384.255 429.17 386.275 429.17C387.615 429.17 388.842 428.981 389.956 428.604C391.07 428.226 392.024 427.66 392.816 426.905C393.609 426.149 394.214 425.224 394.629 424.129L405.786 424.866C405.22 427.546 404.059 429.887 402.303 431.889C400.566 433.871 398.32 435.419 395.563 436.533C392.826 437.628 389.664 438.175 386.077 438.175ZM450.104 406.232L439.06 406.912C438.871 405.968 438.465 405.118 437.842 404.363C437.219 403.589 436.398 402.976 435.379 402.522C434.378 402.051 433.179 401.815 431.782 401.815C429.913 401.815 428.337 402.211 427.053 403.004C425.769 403.778 425.128 404.816 425.128 406.119C425.128 407.157 425.543 408.035 426.374 408.753C427.204 409.47 428.63 410.046 430.65 410.48L438.522 412.066C442.751 412.934 445.904 414.331 447.98 416.257C450.057 418.182 451.095 420.712 451.095 423.846C451.095 426.697 450.255 429.198 448.575 431.35C446.914 433.503 444.629 435.183 441.722 436.391C438.834 437.58 435.502 438.175 431.726 438.175C425.968 438.175 421.38 436.976 417.963 434.579C414.565 432.162 412.573 428.877 411.988 424.724L423.853 424.101C424.212 425.857 425.08 427.197 426.459 428.122C427.837 429.028 429.602 429.481 431.754 429.481C433.869 429.481 435.568 429.076 436.851 428.264C438.154 427.433 438.815 426.366 438.834 425.064C438.815 423.969 438.352 423.072 437.446 422.374C436.54 421.656 435.143 421.109 433.255 420.731L425.722 419.23C421.475 418.381 418.312 416.908 416.236 414.813C414.178 412.717 413.149 410.046 413.149 406.799C413.149 404.004 413.904 401.597 415.414 399.577C416.944 397.557 419.086 396 421.843 394.905C424.618 393.81 427.865 393.262 431.584 393.262C437.078 393.262 441.401 394.423 444.554 396.746C447.726 399.068 449.576 402.23 450.104 406.232ZM494.883 406.232L483.838 406.912C483.65 405.968 483.244 405.118 482.621 404.363C481.998 403.589 481.176 402.976 480.157 402.522C479.156 402.051 477.958 401.815 476.561 401.815C474.692 401.815 473.115 402.211 471.831 403.004C470.548 403.778 469.906 404.816 469.906 406.119C469.906 407.157 470.321 408.035 471.152 408.753C471.983 409.47 473.408 410.046 475.428 410.48L483.3 412.066C487.529 412.934 490.682 414.331 492.759 416.257C494.835 418.182 495.874 420.712 495.874 423.846C495.874 426.697 495.034 429.198 493.353 431.35C491.692 433.503 489.408 435.183 486.5 436.391C483.612 437.58 480.28 438.175 476.504 438.175C470.746 438.175 466.158 436.976 462.741 434.579C459.343 432.162 457.351 428.877 456.766 424.724L468.632 424.101C468.99 425.857 469.859 427.197 471.237 428.122C472.615 429.028 474.38 429.481 476.532 429.481C478.647 429.481 480.346 429.076 481.63 428.264C482.932 427.433 483.593 426.366 483.612 425.064C483.593 423.969 483.13 423.072 482.224 422.374C481.318 421.656 479.921 421.109 478.033 420.731L470.501 419.23C466.253 418.381 463.091 416.908 461.014 414.813C458.956 412.717 457.927 410.046 457.927 406.799C457.927 404.004 458.682 401.597 460.193 399.577C461.722 397.557 463.865 396 466.621 394.905C469.396 393.81 472.643 393.262 476.362 393.262C481.856 393.262 486.179 394.423 489.332 396.746C492.504 399.068 494.354 402.23 494.883 406.232Z" fill="white"/>
</svg>
