<svg width="164" height="77" viewBox="0 0 164 77" fill="none" xmlns="http://www.w3.org/2000/svg">
<rect y="0.961914" width="75.203" height="75.203" rx="19.1845" fill="#F3F3F3"/>
<circle cx="37.6018" cy="38.5627" r="30.8601" stroke="#11A575" stroke-width="3.45415"/>
<path d="M56.354 24.5266C59.2213 28.4165 60.9174 33.2229 60.9175 38.426C60.9175 51.3781 50.4174 61.8782 37.4653 61.8782C32.5208 61.8782 27.9348 60.3463 24.1528 57.7336C25.5594 57.9483 26.9998 58.0608 28.4663 58.0608C44.1292 58.0608 56.8265 45.3633 56.8267 29.7004C56.8267 27.9334 56.6632 26.2042 56.354 24.5266Z" fill="#11A575"/>
<path d="M100.049 35.9053C95.3594 35.9053 92.3379 33.7588 92.1055 30.1221L92.0918 29.9033H95.9883L96.0156 30.0537C96.2754 31.585 97.9023 32.542 100.158 32.542C102.441 32.542 103.877 31.5439 103.877 30.04V30.0264C103.877 28.6865 102.906 28.0166 100.459 27.5107L98.3809 27.1006C94.4844 26.3213 92.5156 24.4619 92.5156 21.4951V21.4814C92.5156 17.8721 95.6602 15.4932 100.035 15.4932C104.602 15.4932 107.404 17.7764 107.596 21.2354L107.609 21.4951H103.713L103.699 21.3311C103.494 19.7861 102.072 18.8428 100.035 18.8428C97.916 18.8564 96.6445 19.8271 96.6445 21.2354V21.249C96.6445 22.4932 97.6562 23.2178 99.9258 23.6689L102.018 24.0928C106.146 24.9131 108.006 26.5947 108.006 29.6982V29.7119C108.006 33.499 105.025 35.9053 100.049 35.9053ZM114.555 35.7959C111.615 35.7959 109.633 33.9502 109.633 31.3662V31.3389C109.633 28.6729 111.697 27.1143 115.334 26.8818L118.957 26.6631V25.7607C118.957 24.4619 118.109 23.6553 116.551 23.6553C115.061 23.6553 114.158 24.3525 113.967 25.2959L113.939 25.4189H110.289L110.303 25.2549C110.521 22.5479 112.846 20.6064 116.715 20.6064C120.502 20.6064 122.949 22.5615 122.949 25.5146V35.5635H118.957V33.376H118.875C118.041 34.8799 116.482 35.7959 114.555 35.7959ZM113.584 31.1611C113.584 32.2412 114.473 32.8838 115.854 32.8838C117.645 32.8838 118.957 31.7354 118.957 30.2041V29.1514L115.936 29.3428C114.391 29.4385 113.584 30.0947 113.584 31.1338V31.1611ZM127.598 19.0205C126.395 19.0205 125.465 18.0771 125.465 16.9424C125.465 15.8076 126.395 14.8643 127.598 14.8643C128.801 14.8643 129.73 15.8076 129.73 16.9424C129.73 18.0771 128.801 19.0205 127.598 19.0205ZM124.344 40.3896C123.975 40.3896 123.496 40.376 123.25 40.3486V37.3408C123.4 37.3545 123.578 37.3682 123.756 37.3682C125.082 37.3682 125.602 36.9443 125.602 35.7549V20.9072H129.594V35.8643C129.594 38.8447 127.775 40.3896 124.344 40.3896ZM137.688 35.8643C133.996 35.8643 131.727 32.9932 131.727 28.2354V28.2217C131.727 23.4502 133.996 20.6064 137.688 20.6064C139.766 20.6064 141.406 21.6729 142.199 23.4502H142.281V15.835H146.273V35.5635H142.281V33.0615H142.199C141.42 34.7979 139.807 35.8643 137.688 35.8643ZM139.027 32.5557C140.969 32.5557 142.295 30.8877 142.295 28.2354V28.2217C142.295 25.583 140.955 23.915 139.027 23.915C137.045 23.915 135.787 25.542 135.787 28.2217V28.2354C135.787 30.9014 137.031 32.5557 139.027 32.5557ZM153.301 35.7959C150.361 35.7959 148.379 33.9502 148.379 31.3662V31.3389C148.379 28.6729 150.443 27.1143 154.08 26.8818L157.703 26.6631V25.7607C157.703 24.4619 156.855 23.6553 155.297 23.6553C153.807 23.6553 152.904 24.3525 152.713 25.2959L152.686 25.4189H149.035L149.049 25.2549C149.268 22.5479 151.592 20.6064 155.461 20.6064C159.248 20.6064 161.695 22.5615 161.695 25.5146V35.5635H157.703V33.376H157.621C156.787 34.8799 155.229 35.7959 153.301 35.7959ZM152.33 31.1611C152.33 32.2412 153.219 32.8838 154.6 32.8838C156.391 32.8838 157.703 31.7354 157.703 30.2041V29.1514L154.682 29.3428C153.137 29.4385 152.33 30.0947 152.33 31.1338V31.1611ZM96.8633 60.7959C93.9238 60.7959 91.9414 58.9502 91.9414 56.3662V56.3389C91.9414 53.6729 94.0059 52.1143 97.6426 51.8818L101.266 51.6631V50.7607C101.266 49.4619 100.418 48.6553 98.8594 48.6553C97.3691 48.6553 96.4668 49.3525 96.2754 50.2959L96.248 50.4189H92.5977L92.6113 50.2549C92.8301 47.5479 95.1543 45.6064 99.0234 45.6064C102.811 45.6064 105.258 47.5615 105.258 50.5146V60.5635H101.266V58.376H101.184C100.35 59.8799 98.791 60.7959 96.8633 60.7959ZM95.8926 56.1611C95.8926 57.2412 96.7812 57.8838 98.1621 57.8838C99.9531 57.8838 101.266 56.7354 101.266 55.2041V54.1514L98.2441 54.3428C96.6992 54.4385 95.8926 55.0947 95.8926 56.1338V56.1611ZM107.842 65.3486V45.9072H111.834V48.4639H111.93C112.723 46.6865 114.322 45.6064 116.4 45.6064C120.119 45.6064 122.389 48.4502 122.389 53.2217V53.2354C122.389 57.9932 120.119 60.8643 116.455 60.8643C114.363 60.8643 112.709 59.7979 111.916 58.0615H111.834V65.3486H107.842ZM115.088 57.5557C117.07 57.5557 118.328 55.9014 118.328 53.2354V53.2217C118.328 50.542 117.07 48.915 115.088 48.915C113.146 48.915 111.82 50.583 111.82 53.2354V53.249C111.82 55.8877 113.146 57.5557 115.088 57.5557ZM124.467 65.3486V45.9072H128.459V48.4639H128.555C129.348 46.6865 130.947 45.6064 133.025 45.6064C136.744 45.6064 139.014 48.4502 139.014 53.2217V53.2354C139.014 57.9932 136.744 60.8643 133.08 60.8643C130.988 60.8643 129.334 59.7979 128.541 58.0615H128.459V65.3486H124.467ZM131.713 57.5557C133.695 57.5557 134.953 55.9014 134.953 53.2354V53.2217C134.953 50.542 133.695 48.915 131.713 48.915C129.771 48.915 128.445 50.583 128.445 53.2354V53.249C128.445 55.8877 129.771 57.5557 131.713 57.5557Z" fill="#383C41"/>
</svg>
