<svg width="144" height="32" viewBox="0 0 144 32" fill="none" xmlns="http://www.w3.org/2000/svg">
<g clip-path="url(#clip0_5711_2019)">
<path d="M22.8896 8.89269C25.2876 8.89269 27.2316 6.94177 27.2316 4.53519C27.2316 2.12862 25.2876 0.177702 22.8896 0.177702C20.4916 0.177702 18.5477 2.12862 18.5477 4.53519C18.5477 6.94177 20.4916 8.89269 22.8896 8.89269Z" fill="#1551E5"/>
<path d="M0.175658 30.2005L12.3704 16.6141C12.995 15.9183 14.008 15.7315 14.8382 16.1591L43.1325 30.7329C43.6811 31.0155 43.3599 31.8511 42.7643 31.6906L16.2117 24.5346C15.507 24.3447 14.758 24.4115 14.0978 24.7233L0.776711 31.0129C0.268823 31.2527 -0.200008 30.619 0.175658 30.2005Z" fill="#1551E5"/>
<path d="M40.6286 19.0968L38.3143 22.7097C39.2571 23.3978 42.2229 24.7742 46.5429 24.7742C51.9429 24.7742 55.5367 22.7022 55.8 18.0645C56.0127 14.3174 50.9143 13.1613 48.8571 12.9032C46.8 12.6452 46.2443 12.3263 46.2857 11.0968C46.3218 10.0261 47.6997 9.41415 48.3429 9.29032C48.986 9.16649 50.1457 9.18975 50.9143 9.29032C52.4442 9.49051 54.0857 9.97849 54.7714 10.3226L56.8286 6.45161C56.2286 6.0215 54.0514 5.16129 50.1429 5.16129C45.2571 5.16129 40.8857 7.74193 40.8857 11.6129C40.8857 14.7097 43.2857 15.828 44.4857 16C46.3714 16.3441 50.1429 17.4452 50.1429 19.0968C50.1429 20.7484 47.5714 20.8172 46.2857 20.6452C45 20.4731 42.0686 19.9226 40.6286 19.0968Z" fill="#1551E5"/>
<path d="M59.0252 24.0206L62.6595 5.70459H66.9668L71.4822 16.4712L80.1755 5.70459H85.0701L81.6997 24.0206H76.7075L78.5695 14.3962L71.8708 22.3495H69.5092L65.9896 14.3962L63.8097 24.0206H59.0252Z" fill="#1551E5"/>
<path fill-rule="evenodd" clip-rule="evenodd" d="M129.242 4.60489L125.405 24.2581H130.637L131.044 22.1663C131.502 22.8636 133.2 24.2581 136.324 24.2581C140.23 24.2581 144.176 20.7535 143.851 16.5888C143.525 12.4241 140.881 9.14173 137.789 9.40265C135.315 9.61138 133.693 10.6873 133.192 11.1992L134.412 4.60489H129.242ZM133.744 13.8509C133.192 14.1874 131.865 15.0851 131.715 17.0148C131.528 19.4268 133.908 20.3392 134.805 20.4606C135.952 20.6158 138.332 20.0401 138.395 16.5888C138.457 13.1375 135.119 13.0129 133.744 13.8509Z" fill="#FF3232"/>
<path d="M90 24.2581L93.5327 5.4454H98.707L96.0258 19.734H105.76L104.979 24.2581H90Z" fill="#FF3232"/>
<path fill-rule="evenodd" clip-rule="evenodd" d="M110.36 10.406L111.513 13.9077C112.371 13.6377 114.405 13.1056 115.678 13.1375C117.27 13.1774 118.762 13.2174 118.642 15.9526C118.26 15.8661 116.898 15.693 114.505 15.693C111.513 15.693 107.999 16.2036 107.999 20.0255C107.999 23.8473 111.784 24.2581 112.66 24.2581C113.535 24.2581 115.768 23.8687 117.051 22.581V24.2581H122.104C122.681 21.7225 123.819 16.268 123.755 14.7347C123.676 12.8181 122.382 9.48388 116.554 9.66357C111.89 9.80732 110.36 10.406 110.36 10.406ZM113.225 19.8503C113.225 17.7806 116.417 17.7939 118.013 18.0593C118.036 18.2944 118.013 18.8665 117.794 19.6077C117.529 20.5074 116.79 20.904 116.366 21.1313L116.321 21.1554C115.286 21.5789 113.225 21.92 113.225 19.8503Z" fill="#FF3232"/>
<path d="M1.75365 7.31673L24.5911 18.9572C25.2583 19.2973 26.0725 19.1079 26.5225 18.5078L35.4769 6.56737C35.814 6.11789 35.2931 5.52838 34.8082 5.81044L25.6749 11.1221C24.8698 11.5903 23.9153 11.7275 23.0116 11.5049L2.10915 6.3553C1.51546 6.20904 1.20861 7.03892 1.75365 7.31673Z" fill="#FF3232"/>
</g>
<defs>
<clipPath id="clip0_5711_2019">
<rect width="144" height="32" fill="white"/>
</clipPath>
</defs>
</svg>
