<svg xmlns:xlink="http://www.w3.org/1999/xlink" xmlns="http://www.w3.org/2000/svg" version="1.1" viewBox="0 0 151 78" height="78px" width="151px">
    
    <title>Stream Official Stacked</title>
    <desc>Created with Sketch.</desc>
    <g fill-rule="evenodd" fill="none" stroke-width="1" stroke="none" id="Page-1">
        <g id="Stream-Official-Stacked">
            <path fill="#000000" id="Stream-Word" d="M14.624,70.7999409 C14.9600017,70.5012728 15.2586654,70.1652761 15.52,69.7919409 C15.7813346,69.4186057 15.912,68.9892767 15.912,68.5039409 C15.912,67.9066046 15.6973355,67.4026097 15.268,66.9919409 C14.8386645,66.5812722 14.3160031,66.2359423 13.7,65.9559409 C13.0839969,65.6759395 12.4400034,65.461275 11.768,65.3119409 C11.0959966,65.1626069 10.5360022,65.0319415 10.088,64.9199409 C8.85599384,64.6212728 7.69867208,64.2572764 6.616,63.8279409 C5.53332792,63.3986055 4.59067068,62.875944 3.788,62.2599409 C2.98532932,61.6439379 2.350669,60.9159451 1.884,60.0759409 C1.417331,59.2359367 1.184,58.2372801 1.184,57.0799409 C1.184,55.9972689 1.44533072,54.9799457 1.968,54.0279409 C2.49066928,53.0759362 3.19066228,52.2359446 4.068,51.5079409 C4.94533772,50.7799373 5.97199412,50.2012764 7.148,49.7719409 C8.32400588,49.3426055 9.5653268,49.1279409 10.872,49.1279409 C12.0293391,49.1279409 13.1306614,49.2959393 14.176,49.6319409 C15.2213386,49.9679426 16.1639958,50.4252714 17.004,51.0039409 C17.8440042,51.5826105 18.5533304,52.2826035 19.132,53.1039409 C19.7106696,53.9252784 20.0933324,54.8399359 20.28,55.8479409 L15.408,57.0239409 C15.1839989,56.1279365 14.6986704,55.3812773 13.952,54.7839409 C13.2053296,54.1866046 12.1786732,53.8879409 10.872,53.8879409 C10.4239978,53.8879409 9.95733576,53.9532736 9.472,54.0839409 C8.98666424,54.2146083 8.53866872,54.4106063 8.128,54.6719409 C7.71733128,54.9332756 7.3720014,55.2506057 7.092,55.6239409 C6.8119986,55.9972761 6.672,56.4266052 6.672,56.9119409 C6.672,57.4346102 6.83066508,57.8826057 7.148,58.2559409 C7.46533492,58.6292761 7.84799776,58.9372731 8.296,59.1799409 C8.74400224,59.4226088 9.22933072,59.6186069 9.752,59.7679409 C10.2746693,59.917275 10.7599978,60.0479404 11.208,60.1599409 C13.1866766,60.6452767 14.8293268,61.1679381 16.136,61.7279409 C17.4426732,62.2879437 18.4879961,62.9039376 19.272,63.5759409 C20.0560039,64.2479443 20.6066651,64.9852703 20.924,65.7879409 C21.2413349,66.5906116 21.4,67.4959359 21.4,68.5039409 C21.4,69.6986136 21.129336,70.8186024 20.588,71.8639409 C20.046664,72.9092795 19.3000048,73.8146038 18.348,74.5799409 C17.3959952,75.3452781 16.25734,75.9426055 14.932,76.3719409 C13.60666,76.8012764 12.1786743,77.0159409 10.648,77.0159409 C8.33332176,77.0159409 6.27067572,76.4466133 4.46,75.3079409 C2.64932428,74.1692686 1.42666984,72.6479505 0.792,70.7439409 L5.384,68.6719409 C5.98133632,69.9786141 6.746662,70.8652719 7.68,71.3319409 C8.613338,71.7986099 9.67732736,72.0319409 10.872,72.0319409 C12.3653408,72.0319409 13.615995,71.6212784 14.624,70.7999409 L14.624,70.7999409 Z M39.176,76.3439409 C37.6453257,76.8666102 36.1333408,77.1839404 34.64,77.2959409 C33.1466592,77.4079415 31.8026726,77.193277 30.608,76.6519409 C29.4133273,76.1106049 28.4426704,75.1586144 27.696,73.7959409 C26.9493296,72.4332675 26.576,70.5199533 26.576,68.0559409 L26.5760002,55.6264039 L22.1247559,55.6264039 L22.1247559,49.712708 C22.1247559,49.712708 22.5167236,49.7127084 23.3410645,49.7127084 C24.7957765,49.7127084 26.0937134,49.3573003 27.0096436,47.8803109 C27.3980679,47.2539546 27.4485933,46.6132431 27.4957275,44.8765263 L27.4957275,42.8257451 L32.1593018,42.8257451 L32.1593018,49.712708 L37.6571045,49.712708 L37.6571045,55.6264039 L32.1593018,55.6264039 L32.008,68.8959409 C32.008,69.7919454 32.1106656,70.5012717 32.316,71.0239409 C32.5213343,71.5466102 32.8666642,71.9386063 33.352,72.1999409 C33.8373357,72.4612756 34.4719961,72.5919409 35.256,72.5919409 C36.0400039,72.5919409 36.9919944,72.517275 38.112,72.3679409 L39.176,76.3439409 Z M56.352,54.5599409 C56.0906653,54.4479404 55.8293346,54.3359415 55.568,54.2239409 C55.3439988,54.1492739 55.0826681,54.074608 54.784,53.9999409 C54.4853318,53.9252739 54.1680016,53.8879409 53.832,53.8879409 C52.7493279,53.8879409 51.741338,54.0652725 50.808,54.4199409 C49.874662,54.7746094 49.0720033,55.2506046 48.4,55.8479409 C47.7279966,56.4452773 47.1960019,57.1452703 46.804,57.9479409 C46.411998,58.7506116 46.216,59.5999365 46.216,60.4959409 L46.16,77 L40.728,77 L40.728,49.5759409 L45.04,49.5759409 L46.16,52.5439409 C46.9066704,51.4612689 47.8866606,50.5932775 49.1,49.9399409 C50.3133394,49.2866043 51.8346575,48.9599409 53.664,48.9599409 C54.8586726,48.9599409 56.2213256,49.1279393 57.752,49.4639409 L56.352,54.5599409 Z M70.4479999,77.0719409 C68.5066569,77.0719409 66.6866751,76.7079446 64.9879999,75.9799409 C63.2893248,75.2519373 61.8053396,74.2532806 60.5359999,72.9839409 C59.2666602,71.7146013 58.2680036,70.2212829 57.5399999,68.5039409 C56.8119963,66.786599 56.4479999,64.957284 56.4479999,63.0159409 C56.4479999,61.0745979 56.7933298,59.2452829 57.4839999,57.5279409 C58.17467,55.810599 59.107994,54.3172806 60.2839999,53.0479409 C61.4600058,51.7786013 62.8319921,50.7799446 64.3999999,50.0519409 C65.9680078,49.3239373 67.647991,48.9599409 69.4399999,48.9599409 C71.2693424,48.9599409 72.9586588,49.2772711 74.5079999,49.9119409 C76.057341,50.5466108 77.4013276,51.5359342 78.5399999,52.8799409 C79.6786723,54.2239477 80.5653301,55.9319306 81.1999999,58.0039409 C81.8346698,60.0759513 82.1519999,62.5492599 82.1519999,65.4239409 L62.2159999,65.4239409 C62.4773346,66.3946125 62.8879971,67.2999367 63.4479999,68.1399409 C64.0080027,68.9799451 64.6706628,69.7079379 65.4359999,70.3239409 C66.2013371,70.939944 67.0599952,71.4159393 68.0119999,71.7519409 C68.9640047,72.0879426 69.9626614,72.2559409 71.0079999,72.2559409 C72.4266737,72.2559409 73.7426605,71.9946102 74.9559999,71.4719409 C76.1693393,70.9492717 77.205329,70.2586119 78.0639999,69.3999409 L81.4239999,72.7599409 C80.1173267,74.0666141 78.5213427,75.111937 76.6359999,75.8959409 C74.7506572,76.6799449 72.6880111,77.0719409 70.4479999,77.0719409 L70.4479999,77.0719409 Z M69.4399999,53.8879409 C68.581329,53.8879409 67.7693371,54.0559393 67.0039999,54.3919409 C66.2386628,54.7279426 65.5293365,55.1946046 64.8759999,55.7919409 C64.2226633,56.3892773 63.6626689,57.0986035 63.1959999,57.9199409 C62.7293309,58.7412784 62.384001,59.6372694 62.1599999,60.6079409 L76.3279999,60.6079409 C76.2533329,59.7119365 76.0480016,58.8532784 75.7119999,58.0319409 C75.3759982,57.2106035 74.9093362,56.491944 74.3119999,55.8759409 C73.7146636,55.2599379 73.0146706,54.7746094 72.2119999,54.4199409 C71.4093292,54.0652725 70.4853385,53.8879409 69.4399999,53.8879409 L69.4399999,53.8879409 Z M111.24,49.5759409 L111.24,77 L106.648,77 L105.808,73.3199409 C104.874662,74.5519471 103.680007,75.4852711 102.224,76.1199409 C100.767993,76.7546108 99.2933407,77.0719409 97.7999999,77.0719409 C95.9333239,77.0719409 94.188008,76.7079446 92.5639999,75.9799409 C90.9399918,75.2519373 89.5213393,74.2532806 88.3079999,72.9839409 C87.0946605,71.7146013 86.1333368,70.2212829 85.4239999,68.5039409 C84.714663,66.786599 84.3599999,64.957284 84.3599999,63.0159409 C84.3599999,61.0745979 84.714663,59.2452829 85.4239999,57.5279409 C86.1333368,55.810599 87.0946605,54.3172806 88.3079999,53.0479409 C89.5213393,51.7786013 90.9399918,50.7799446 92.5639999,50.0519409 C94.188008,49.3239373 95.9333239,48.9599409 97.7999999,48.9599409 C99.2933407,48.9599409 100.73066,49.2492714 102.112,49.8279409 C103.49334,50.4066105 104.725328,51.3119348 105.808,52.5439409 L106.648,49.5759409 L111.24,49.5759409 Z M97.7999999,72.2559409 C98.882672,72.2559409 99.9093284,72.0132767 100.88,71.5279409 C101.850671,71.0426052 102.690663,70.3799451 103.4,69.5399409 C104.109337,68.6999367 104.669331,67.7199465 105.08,66.5999409 C105.490669,65.4799353 105.696,64.2852806 105.696,63.0159409 C105.696,61.7466013 105.490669,60.5519465 105.08,59.4319409 C104.669331,58.3119353 104.109337,57.3319451 103.4,56.4919409 C102.690663,55.6519367 101.850671,54.9892767 100.88,54.5039409 C99.9093284,54.0186052 98.882672,53.7759409 97.7999999,53.7759409 C96.7173278,53.7759409 95.6906714,54.0186052 94.7199999,54.5039409 C93.7493284,54.9892767 92.9093368,55.6519367 92.1999999,56.4919409 C91.490663,57.3319451 90.9306686,58.3119353 90.5199999,59.4319409 C90.1093312,60.5519465 89.9039999,61.7466013 89.9039999,63.0159409 C89.9039999,64.2852806 90.1093312,65.4799353 90.5199999,66.5999409 C90.9306686,67.7199465 91.490663,68.6999367 92.1999999,69.5399409 C92.9093368,70.3799451 93.7493284,71.0426052 94.7199999,71.5279409 C95.6906714,72.0132767 96.7173278,72.2559409 97.7999999,72.2559409 L97.7999999,72.2559409 Z M120.616,77 L115.184,77 L115.184,49.5759409 L119.496,49.5759409 L120.616,51.8719409 C121.288003,51.087937 122.090662,50.4066105 123.024,49.8279409 C123.957338,49.2492714 125.095993,48.9599409 126.44,48.9599409 C126.962669,48.9599409 127.550663,49.0252736 128.204,49.1559409 C128.857336,49.2866083 129.52933,49.510606 130.22,49.8279409 C130.91067,50.1452759 131.57333,50.5746049 132.208,51.1159409 C132.84267,51.657277 133.383998,52.35727 133.832,53.2159409 C134.46667,52.0586018 135.427993,51.0599451 136.716,50.2199409 C138.004006,49.3799367 139.375993,48.9599409 140.832,48.9599409 C141.802671,48.9599409 142.829328,49.1092728 143.912,49.4079409 C144.994672,49.7066091 146.002662,50.2666035 146.936,51.0879409 C147.869338,51.9092784 148.634664,53.0479337 149.232,54.5039409 C149.829336,55.9599482 150.128,57.8452627 150.128,60.1599409 L150.128,77 L145.032,77 L145.032,60.1039409 C145.032,57.7892627 144.556005,56.1746122 143.604,55.2599409 C142.651995,54.3452697 141.392008,53.8879409 139.824,53.8879409 C138.629327,53.8879409 137.584004,54.3919359 136.688,55.3999409 C135.791995,56.407946 135.344,57.9945968 135.344,60.1599409 L135.344,77 L130.248,77 L130.248,60.1039409 C130.248,57.7892627 129.772005,56.1746122 128.82,55.2599409 C127.867995,54.3452697 126.608008,53.8879409 125.04,53.8879409 C123.919994,53.8879409 122.940004,54.31727 122.1,55.1759409 C121.259996,56.0346119 120.765334,57.3785985 120.616,59.2079409 L120.616,77 Z"></path>
            <path fill="#006CFF" id="STREAM-MARK" d="M87.2983968,12.8561394 L112.904597,11.0409394 C114.594797,10.9211394 115.658997,12.8259394 114.670797,14.2023394 L96.7581968,39.1527394 C96.3825968,39.6759394 95.7777968,39.9863394 95.1335968,39.9863394 L54.9645968,39.9863394 C54.3213968,39.9863394 53.7173968,39.6769394 53.3413968,39.1547394 L35.3811968,14.2043394 C34.3905968,12.8281394 35.4547968,10.9207394 37.1463968,11.0409394 L62.6745968,12.8563394 L73.5779968,0.666539411 C74.3769968,-0.226660589 75.7769968,-0.221460589 76.5693968,0.677939411 L87.2983968,12.8561394 Z M92.6607968,36.0305467 L76.0425968,29.8199467 L76.0425968,36.0305467 L92.6607968,36.0305467 Z M74.0425968,36.0305467 L74.0425968,29.8199467 L57.4243968,36.0305467 L74.0425968,36.0305467 Z M72.1249968,28.3363394 L55.1459968,34.6743394 L42.6547968,17.3111394 L72.1249968,28.3363394 Z M77.9255968,28.3363394 L94.9045968,34.6743394 L107.395797,17.3111394 L77.9255968,28.3363394 Z M74.0585968,26.8871394 L74.0585968,5.98953941 L60.1757968,21.6611394 L74.0585968,26.8871394 Z M76.0425968,26.8871394 L76.0425968,5.99213941 L89.9255968,21.6611394 L76.0425968,26.8871394 Z M56.1045968,20.2165394 L59.2987968,16.6273394 L43.6933968,15.5089394 L56.1045968,20.2165394 Z M93.8297968,20.2165394 L90.6357968,16.6273394 L106.241197,15.5089394 L93.8297968,20.2165394 Z"></path>
        </g>
    </g>
</svg>