<?xml version="1.0" encoding="UTF-8"?>
<svg width="293px" height="71px" viewBox="0 0 293 71" version="1.1" xmlns="http://www.w3.org/2000/svg" xmlns:xlink="http://www.w3.org/1999/xlink">
    <title>TC-Logo_Horiz-Black</title>
    <defs>
        <polygon id="path-1" points="-2.55351296e-15 0 110.124771 0 110.124771 55.2673911 -2.55351296e-15 55.2673911"></polygon>
        <polygon id="path-3" points="0 0 9.671 0 9.671 6.87326914 0 6.87326914"></polygon>
    </defs>
    <g id="TC-Logo_Horiz-Black" stroke="none" stroke-width="1" fill="none" fill-rule="evenodd">
        <g id="Group-4" transform="translate(0.500229, 0.569000)">
            <mask id="mask-2" fill="white">
                <use xlink:href="#path-1"></use>
            </mask>
            <g id="Clip-2"></g>
            <path d="M39.1647708,15.336 C58.2507708,12.267 74.1447708,21.954 78.5617708,24.996 L78.5247708,25.05 C78.9867708,25.371 79.2477708,25.568 79.2477708,25.568 C79.2477708,25.568 65.4547708,9.584 49.9697708,3.434 C49.9707708,3.434 49.9727708,3.434 49.9727708,3.434 C49.9727708,3.434 46.9917708,1.96 39.9497708,0.205 C32.9067708,-1.55 30.7357708,8.502 25.6847708,9.014 C20.6327708,9.526 17.8067708,6.909 17.8067708,6.909 C17.5897708,15.109 20.0827708,17.845 26.5577708,17.886 C27.5137708,17.988 28.6207708,17.933 29.9087708,17.667 C30.9467708,17.495 31.9217708,17.207 32.8367708,16.832 C34.9757708,16.161 37.0877708,15.683 39.1667708,15.348 L39.1647708,15.336" id="Fill-1" fill="#231F20" mask="url(#mask-2)"></path>
            <path d="M56.0747708,40.718 C56.8677708,40.731 57.5167708,40.743 58.3097708,40.751 C59.2137708,40.761 59.8927708,41.017 60.5547708,41.676 C64.0127708,45.12 67.5257708,48.51 71.0157708,51.922 C71.8747708,52.762 72.7807708,53.563 73.5567708,54.474 C74.3567708,55.413 74.8657708,55.492 75.8677708,54.851 C76.4477708,54.48 77.1827708,54.246 77.8717708,54.171 C79.1987708,54.027 80.5447708,54.065 81.8777708,53.965 C82.1327708,53.945 82.4507708,53.691 82.5967708,53.456 C83.1787708,52.518 82.9247708,52.913 83.4807708,51.958 M24.2537708,18.775 C23.7037708,19.392 22.9787708,19.601 22.1317708,19.331 C20.8117708,18.909 19.7017708,19.314 18.7707708,20.299 C18.2117708,20.89 17.6667708,21.496 17.0867708,22.065 C14.6107708,24.49 11.8427708,26.248 8.1777708,26.047 C6.9727708,25.981 5.9557708,26.54 5.1997708,27.436 C4.5887708,28.159 4.1507708,29.025 3.5717708,29.777 C3.3607708,30.05 2.9567708,30.354 2.6517708,30.344 C1.5257708,30.306 0.809770796,30.754 0.520770796,31.834 C0.319770796,32.582 0.0837707958,33.336 0.0157707958,34.102 C-0.127229204,35.704 0.707770796,36.587 2.2957708,36.596 C6.0107708,36.618 9.7267708,36.555 13.4387708,36.658 C16.7097708,36.749 19.8437708,36.329 22.8377708,34.951 C23.5317708,34.632 24.3167708,34.32 25.0567708,34.326 C29.4757708,34.36 33.8977708,34.656 38.3107708,34.533 C41.9547708,34.431 44.1487708,35.962 45.1517708,39.354 C45.4387708,40.321 46.0237708,40.559 46.9557708,40.567 C47.5607708,40.572 47.7327708,40.579 48.3367708,40.588 M103.142771,37.993 C103.277771,37.827 103.410771,37.659 103.540771,37.488 C104.449771,36.297 103.880771,34.836 102.437771,34.367 C101.948771,34.208 101.414771,34.189 100.853771,34.098 C100.872771,33.904 100.878771,33.734 100.905771,33.568 C101.229771,31.515 100.968771,31.12 98.9507708,30.673 C98.0277708,30.468 97.5797708,29.911 97.5577708,28.788 C98.2137708,28.848 98.8367708,28.777 99.3577708,28.975 C101.069771,29.626 102.757771,30.347 104.430771,31.094 C105.921771,31.76 106.563771,31.45 106.989771,29.899 C107.125771,29.404 107.486771,28.93 107.850771,28.547 C108.575771,27.782 109.442771,27.145 110.124771,26.347 L109.706771,21.34 C109.381771,20.147 108.583771,19.807 107.571771,20.506 C107.122771,20.816 106.713771,21.183 106.194771,21.598 C106.155771,21.291 106.112771,21.154 106.125771,21.023 C106.284771,19.41 106.163771,19.31 104.488771,19.514 C104.019771,19.571 103.537771,19.523 103.061771,19.523 C103.060771,19.415 103.058771,19.307 103.056771,19.199 C104.300771,18.738 105.252771,17.613 106.929771,18.254 C109.043771,19.063 110.195771,17.878 109.536771,15.682 C109.101771,14.236 108.384771,12.877 107.839771,11.461 C107.468771,10.495 106.837771,10.209 105.804771,10.206 C91.9567708,10.169 78.1097708,10.106 64.2617708,10.052" id="Stroke-3" stroke="#231F20" stroke-linecap="round" stroke-linejoin="round" mask="url(#mask-2)"></path>
        </g>
        <path d="M78.571,27.273 C78.596,27.255 78.614,27.237 78.626,27.218 C78.611,27.249 78.593,27.276 78.571,27.307 L78.571,27.273" id="Fill-5" fill="#1784C5"></path>
        <path d="M85.152,15.964 C84.899,16.053 84.649,16.153 84.403,16.272 C81.222,17.789 79.702,21.335 80.619,24.61 L80.518,24.4 C78.98,21.089 80.369,17.162 83.671,15.587 C84.107,15.379 84.555,15.221 85.009,15.117 C86.959,14.651 88.988,15.102 90.548,16.272 C88.899,15.489 86.965,15.34 85.152,15.964 Z M86.69,25.028 C86.584,25.037 86.48,25.043 86.374,25.04 L83.723,24.991 C83.489,24.988 83.321,24.808 83.3239605,24.577 L83.37,21.923 C83.406,20.525 84.378,19.37 85.676,19.057 C85.923,18.996 86.179,18.965 86.447,18.971 C88.122,18.999 89.46,20.382 89.429,22.06 C89.402,23.62 88.205,24.879 86.69,25.028 Z M78.553,28.757 C77.853,29.723 76.57,30.021 75.028,30.143 C75.018,30.143 74.399,30.18 74.227,30.189 C74.227,30.19 74.227,30.191 74.227,30.192 C73.1,30.241 71.872,30.247 70.65,30.365 C68.667,30.56 66.769,30.789 64.969,31.127 C64.429,31.228 63.902,31.337 63.381,31.462 C58.126,32.693 53.739,35.124 50.43,40.83 L50.397,40.821 C51.704,37.613 53.584,35.365 55.85,33.765 C58.769,31.706 62.333,30.719 66.16,30.137 C66.16,30.137 66.16,30.134 66.163,30.134 C67.409,29.945 68.682,29.799 69.971,29.671 C71.626,29.496 72.944,29.39 74.019,29.275 L74.018,29.266 C74.17,29.241 75.619,29.055 75.759,29.028 C77.115,28.76 77.913,28.318 78.571,27.307 C78.593,27.276 78.611,27.249 78.626,27.218 C78.642,27.2 78.651,27.185 78.657,27.173 C78.66,27.173 78.657,27.169 78.657,27.169 C78.818,26.911 78.97,26.615 79.12,26.28 C79.172,27.398 78.961,28.193 78.553,28.757 Z M50.141,43.846 C44.672,40.864 38.914,55.006 38.668,58.799 C37.897,57.827 42.509,46.424 44.526,44.258 C45.848,42.838 47.673,42.673 49.401,43.057 L50.327,41.092 L50.415,41.132 C50.001,42.067 49.891,42.972 50.141,43.846 Z M86.821,13.801 C86.133,13.789 85.463,13.865 84.823,14.018 C81.359,14.84 78.767,17.908 78.663,21.628 L78.602,25.448 L78.593,25.978 C77.91,26.588 77.109,27.109 76.192,27.544 C75.521,27.89 74.123,28.175 74.123,28.175 L74.12,28.181 C74.12,28.175 74.123,28.166 74.123,28.16 C72.807,28.406 70.882,28.653 68.347,28.897 C62.324,29.491 56.883,31.057 53.029,34.941 C51.564,36.413 50.33,38.219 49.376,40.431 L50.123,40.712 L49.218,42.637 C46.832,42.003 44.7,42.542 42.933,45.431 C41.775,47.329 38.156,55.938 38.156,59.085 C38.156,59.332 38.756,59.67 38.923,59.487 C40.09,56.447 41.796,53.467 42.662,52.032 C42.671,52.017 42.68,52.005 42.686,51.99 C42.875,51.682 43.021,51.448 43.109,51.307 C43.377,50.875 43.579,50.573 43.698,50.482 C43.999,50.244 44.736,50.57 44.733,50.948 C44.73,51.134 44.365,51.655 44.002,52.301 C43.99,52.322 43.981,52.34 43.969,52.362 C43.956,52.383 43.947,52.404 43.935,52.429 C42.08,55.841 40.578,60.209 40.578,60.209 C40.608,60.417 41.086,60.718 41.385,60.718 C41.845,60.051 46.528,51.335 47.289,50.735 C47.591,50.5 48.405,50.887 48.401,51.262 C48.386,52.294 43.649,61.693 43.649,61.693 C43.679,61.9 44.136,62.223 44.435,62.223 C45.267,61.212 47.155,58.01 48.429,55.725 C49.166,54.4 49.653,53.343 49.721,53.3 C50.031,53.09 50.708,53.528 50.677,53.909 C50.668,53.982 50.434,54.799 49.949,55.813 C48.944,57.909 47.155,61.19 46.065,62.897 C46.013,63.137 46.644,63.433 46.838,63.28 C48.925,61.693 53.16,54.729 53.16,54.729 C56.59,49.281 55.804,46.39 53.127,44.477 L54.184,42.232 L54.817,42.469 C55.774,40.715 56.691,39.392 57.578,38.503 C58.586,37.503 59.957,36.611 61.693,35.828 C63.342,35.085 66.166,34.494 70.175,34.052 C72.098,33.841 74.041,33.634 75.903,33.205 C75.903,33.205 78.905,32.996 82.258,30.122 C82.343,30.021 82.425,29.921 82.507,29.823 L86.629,29.899 C86.925,29.902 87.221,29.887 87.51,29.857 C91.51,29.448 94.666,26.112 94.736,21.993 C94.813,17.545 91.27,13.877 86.821,13.801 L86.821,13.801 Z" id="Fill-6" fill="#231F20"></path>
        <polyline id="Fill-7" fill="#231F20" points="89.416 43.476 89.416 57.173 85.627 57.173 85.627 43.476 80.819 43.476 80.819 40.198 94.224 40.198 94.224 43.476 89.416 43.476"></polyline>
        <path d="M100.999,45.249 L98.862,50.179 L103.112,50.179 L100.999,45.249 Z M106.123,57.173 L104.545,53.506 L97.429,53.506 L95.851,57.173 L91.82,57.173 L99.154,40.198 L102.821,40.198 L110.155,57.173 L106.123,57.173 L106.123,57.173 Z" id="Fill-8" fill="#231F20"></path>
        <path d="M110.397,40.198 L114.186,40.198 L114.186,47.167 L120.597,40.198 L125.284,40.198 L118.533,47.701 C119.116,48.512 120.192,50.021 121.763,52.231 C123.333,54.441 124.507,56.088 125.284,57.173 L120.864,57.173 L115.886,50.47 L114.186,52.364 L114.186,57.173 L110.397,57.173 L110.397,40.198" id="Fill-9" fill="#231F20"></path>
        <polyline id="Fill-10" fill="#231F20" points="138.155 40.198 138.155 43.573 129.703 43.573 129.703 47.07 137.305 47.07 137.305 50.3 129.703 50.3 129.703 53.821 138.422 53.821 138.422 57.173 125.915 57.173 125.915 40.198 138.155 40.198"></polyline>
        <path d="M152.798,48.588 C152.798,47.074 152.313,45.783 151.341,44.715 C150.37,43.646 149.176,43.112 147.759,43.112 C146.342,43.112 145.149,43.646 144.177,44.715 C143.206,45.783 142.72,47.074 142.72,48.588 C142.72,50.102 143.206,51.389 144.177,52.449 C145.149,53.51 146.342,54.04 147.759,54.04 C149.176,54.04 150.37,53.51 151.341,52.449 C152.313,51.389 152.798,50.102 152.798,48.588 Z M154.085,54.829 C152.369,56.505 150.256,57.343 147.747,57.343 C145.237,57.343 143.125,56.505 141.409,54.829 C139.693,53.154 138.835,51.069 138.835,48.576 C138.835,46.083 139.693,43.998 141.409,42.323 C143.125,40.647 145.237,39.809 147.747,39.809 C150.256,39.809 152.369,40.647 154.085,42.323 C155.801,43.998 156.659,46.083 156.659,48.576 C156.659,51.069 155.801,53.154 154.085,54.829 L154.085,54.829 Z" id="Fill-11" fill="#231F20"></path>
        <path d="M162.633,52.789 C163.265,53.575 164.115,53.967 165.183,53.967 C166.251,53.967 167.097,53.575 167.721,52.789 C168.344,52.004 168.656,50.932 168.656,49.572 L168.656,40.198 L172.444,40.198 L172.444,49.693 C172.444,52.154 171.764,54.044 170.404,55.363 C169.044,56.683 167.304,57.343 165.183,57.343 C163.062,57.343 161.318,56.679 159.95,55.351 C158.581,54.024 157.898,52.138 157.898,49.693 L157.898,40.198 L161.686,40.198 L161.686,49.572 C161.686,50.932 162.002,52.004 162.633,52.789" id="Fill-12" fill="#231F20"></path>
        <polyline id="Fill-13" fill="#231F20" points="181.842 43.476 181.842 57.173 178.054 57.173 178.054 43.476 173.245 43.476 173.245 40.198 186.651 40.198 186.651 43.476 181.842 43.476"></polyline>
        <path d="M199.205,54.574 C200.192,54.574 201.043,54.408 201.755,54.076 C202.467,53.745 203.212,53.214 203.989,52.486 L205.835,54.38 C204.038,56.371 201.856,57.367 199.29,57.367 C196.724,57.367 194.595,56.541 192.903,54.89 C191.211,53.238 190.366,51.15 190.366,48.625 C190.366,46.099 191.228,43.995 192.952,42.31 C194.676,40.627 196.853,39.785 199.485,39.785 C202.115,39.785 204.313,40.756 206.078,42.699 L204.257,44.69 C203.447,43.913 202.682,43.371 201.961,43.063 C201.241,42.756 200.395,42.602 199.424,42.602 C197.707,42.602 196.267,43.157 195.101,44.265 C193.935,45.375 193.353,46.791 193.353,48.515 C193.353,50.239 193.931,51.681 195.089,52.838 C196.246,53.996 197.618,54.574 199.205,54.574" id="Fill-14" fill="#231F20"></path>
        <polyline id="Fill-15" fill="#231F20" points="218.973 40.198 218.973 42.893 209.915 42.893 209.915 47.386 218.05 47.386 218.05 49.936 209.915 49.936 209.915 54.477 219.264 54.477 219.264 57.173 207.049 57.173 207.049 40.198 218.973 40.198"></polyline>
        <polyline id="Fill-16" fill="#231F20" points="233.373 40.198 236.239 40.198 236.239 57.173 233.13 57.173 223.514 44.788 223.514 57.173 220.648 57.173 220.648 40.198 223.514 40.198 233.373 52.874 233.373 40.198"></polyline>
        <polyline id="Fill-17" fill="#231F20" points="245.079 42.821 245.079 57.173 242.213 57.173 242.213 42.821 237.065 42.821 237.065 40.198 250.227 40.198 250.227 42.821 245.079 42.821"></polyline>
        <path d="M260.791,48.114 C261.373,47.613 261.665,46.807 261.665,45.698 C261.665,44.59 261.365,43.828 260.766,43.416 C260.167,43.003 259.099,42.796 257.561,42.796 L253.918,42.796 L253.918,48.867 L257.488,48.867 C259.107,48.867 260.208,48.617 260.791,48.114 Z M264.603,45.71 C264.603,48.512 263.381,50.276 260.936,51.004 L265.381,57.173 L261.738,57.173 L257.682,51.466 L253.918,51.466 L253.918,57.173 L251.053,57.173 L251.053,40.198 L257.367,40.198 C259.956,40.198 261.81,40.635 262.928,41.509 C264.045,42.383 264.603,43.784 264.603,45.71 L264.603,45.71 Z" id="Fill-18" fill="#231F20"></path>
        <path d="M276.187,50.665 L273.103,43.67 L270.018,50.665 L276.187,50.665 Z M268.853,53.311 L267.153,57.173 L264.093,57.173 L271.573,40.198 L274.632,40.198 L282.112,57.173 L279.052,57.173 L277.352,53.311 L268.853,53.311 L268.853,53.311 Z" id="Fill-19" fill="#231F20"></path>
        <polyline id="Fill-20" fill="#231F20" points="282.185 57.173 282.185 40.198 285.05 40.198 285.05 54.453 292.797 54.453 292.797 57.173 282.185 57.173"></polyline>
        <polyline id="Fill-21" fill="#231F20" points="121.46 66.869 118.874 62.611 121.022 62.611 122.422 65.09 123.831 62.611 125.94 62.611 123.354 66.84 123.354 69.415 121.46 69.415 121.46 66.869"></polyline>
        <path d="M129.177,66.811 L129.177,66.791 C129.177,66.149 128.711,65.605 128.059,65.605 C127.388,65.605 126.961,66.14 126.961,66.772 L126.961,66.791 C126.961,67.433 127.428,67.977 128.079,67.977 C128.749,67.977 129.177,67.442 129.177,66.811 Z M125.163,66.811 L125.163,66.791 C125.163,65.294 126.387,64.04 128.079,64.04 C129.76,64.04 130.975,65.274 130.975,66.772 L130.975,66.791 C130.975,68.288 129.751,69.542 128.059,69.542 C126.378,69.542 125.163,68.308 125.163,66.811 L125.163,66.811 Z" id="Fill-22" fill="#231F20"></path>
        <path d="M131.743,67.598 L131.743,64.157 L133.59,64.157 L133.59,67.005 C133.59,67.578 133.89,67.89 134.338,67.89 C134.775,67.89 135.106,67.578 135.106,67.005 L135.106,64.157 L136.953,64.157 L136.953,69.415 L135.106,69.415 L135.106,68.696 C134.765,69.134 134.28,69.532 133.531,69.532 C132.414,69.532 131.743,68.793 131.743,67.598" id="Fill-23" fill="#231F20"></path>
        <path d="M137.973,64.157 L139.82,64.157 L139.82,65.217 C140.121,64.497 140.607,64.03 141.482,64.069 L141.482,66.014 L141.326,66.014 C140.364,66.014 139.82,66.567 139.82,67.782 L139.82,69.415 L137.973,69.415 L137.973,64.157" id="Fill-24" fill="#231F20"></path>
        <polyline id="Fill-25" fill="#231F20" points="144.99 62.611 146.75 62.611 149.549 66.208 149.549 62.611 151.415 62.611 151.415 69.415 149.762 69.415 146.856 65.683 146.856 69.415 144.99 69.415 144.99 62.611"></polyline>
        <path d="M152.416,66.033 L152.416,66.014 C152.416,64.03 153.942,62.476 156.003,62.476 C157.392,62.476 158.287,63.059 158.889,63.895 L157.47,64.993 C157.082,64.507 156.635,64.195 155.983,64.195 C155.031,64.195 154.36,65.003 154.36,65.994 L154.36,66.014 C154.36,67.034 155.031,67.831 155.983,67.831 C156.693,67.831 157.111,67.5 157.519,67.005 L158.938,68.016 C158.297,68.9 157.431,69.552 155.925,69.552 C153.981,69.552 152.416,68.064 152.416,66.033" id="Fill-26" fill="#231F20"></path>
        <path d="M165.148,67.743 C166.276,67.743 167.024,67.121 167.024,66.023 L167.024,66.004 C167.024,64.915 166.276,64.283 165.148,64.283 L164.381,64.283 L164.381,67.743 L165.148,67.743 Z M162.495,62.611 L165.119,62.611 C167.55,62.611 168.959,64.011 168.959,65.975 L168.959,65.994 C168.959,67.957 167.53,69.415 165.081,69.415 L162.495,69.415 L162.495,62.611 L162.495,62.611 Z" id="Fill-27" fill="#231F20"></path>
        <path d="M173.216,66.354 C173.148,65.771 172.807,65.401 172.303,65.401 C171.816,65.401 171.486,65.78 171.388,66.354 L173.216,66.354 Z M169.639,66.811 L169.639,66.791 C169.639,65.255 170.737,64.04 172.293,64.04 C174.11,64.04 174.946,65.372 174.946,66.917 C174.946,67.034 174.946,67.17 174.936,67.296 L171.418,67.296 C171.563,67.87 171.981,68.161 172.555,68.161 C172.992,68.161 173.343,67.996 173.721,67.627 L174.742,68.473 C174.236,69.114 173.508,69.542 172.458,69.542 C170.805,69.542 169.639,68.443 169.639,66.811 L169.639,66.811 Z" id="Fill-28" fill="#231F20"></path>
        <polygon id="Fill-29" fill="#231F20" points="175.801 69.415 177.648 69.415 177.648 62.319 175.801 62.319"></polygon>
        <path d="M178.745,69.415 L180.593,69.415 L180.593,64.157 L178.745,64.157 L178.745,69.415 Z M178.707,63.68 L180.631,63.68 L180.631,62.319 L178.707,62.319 L178.707,63.68 Z" id="Fill-30" fill="#231F20"></path>
        <polyline id="Fill-31" fill="#231F20" points="181.254 64.157 183.197 64.157 184.208 67.229 185.219 64.157 187.134 64.157 185.034 69.454 183.352 69.454 181.254 64.157"></polyline>
        <path d="M190.807,66.354 C190.74,65.771 190.399,65.401 189.894,65.401 C189.408,65.401 189.078,65.78 188.98,66.354 L190.807,66.354 Z M187.231,66.811 L187.231,66.791 C187.231,65.255 188.329,64.04 189.885,64.04 C191.702,64.04 192.538,65.372 192.538,66.917 C192.538,67.034 192.538,67.17 192.528,67.296 L189.01,67.296 C189.155,67.87 189.573,68.161 190.147,68.161 C190.584,68.161 190.934,67.996 191.313,67.627 L192.334,68.473 C191.828,69.114 191.099,69.542 190.05,69.542 C188.397,69.542 187.231,68.443 187.231,66.811 L187.231,66.811 Z" id="Fill-32" fill="#231F20"></path>
        <g id="Group-36" transform="translate(193.354000, 64.066731)">
            <mask id="mask-4" fill="white">
                <use xlink:href="#path-3"></use>
            </mask>
            <g id="Clip-34"></g>
            <path d="M0,0.0902691402 L1.847,0.0902691402 L1.847,1.15026914 C2.148,0.43026914 2.634,-0.0367308598 3.509,0.00226914017 L3.509,1.94726914 L3.353,1.94726914 C2.391,1.94726914 1.847,2.50026914 1.847,3.71526914 L1.847,5.34826914 L0,5.34826914 L0,0.0902691402" id="Fill-33" fill="#231F20" mask="url(#mask-4)"></path>
            <path d="M4.053,6.47626914 L4.626,5.18326914 C4.918,5.35826914 5.23,5.46526914 5.434,5.46526914 C5.618,5.46526914 5.744,5.41626914 5.862,5.25126914 L3.8,0.0902691402 L5.735,0.0902691402 L6.784,3.25826914 L7.776,0.0902691402 L9.671,0.0902691402 L7.746,5.22226914 C7.29,6.44726914 6.794,6.93326914 5.744,6.93326914 C5.093,6.93326914 4.539,6.74826914 4.053,6.47626914" id="Fill-35" fill="#231F20" mask="url(#mask-4)"></path>
        </g>
        <polyline id="Fill-37" fill="#231F20" points="206.485 62.611 208.371 62.611 208.371 65.158 210.791 65.158 210.791 62.611 212.677 62.611 212.677 69.415 210.791 69.415 210.791 66.83 208.371 66.83 208.371 69.415 206.485 69.415 206.485 62.611"></polyline>
        <path d="M217.166,66.354 C217.098,65.771 216.758,65.401 216.253,65.401 C215.766,65.401 215.436,65.78 215.339,66.354 L217.166,66.354 Z M213.59,66.811 L213.59,66.791 C213.59,65.255 214.687,64.04 216.243,64.04 C218.06,64.04 218.896,65.372 218.896,66.917 C218.896,67.034 218.896,67.17 218.887,67.296 L215.368,67.296 C215.513,67.87 215.931,68.161 216.506,68.161 C216.942,68.161 217.293,67.996 217.672,67.627 L218.692,68.473 C218.186,69.114 217.458,69.542 216.408,69.542 C214.756,69.542 213.59,68.443 213.59,66.811 L213.59,66.811 Z" id="Fill-38" fill="#231F20"></path>
        <path d="M219.713,64.157 L221.559,64.157 L221.559,65.217 C221.86,64.497 222.346,64.03 223.221,64.069 L223.221,66.014 L223.065,66.014 C222.103,66.014 221.559,66.567 221.559,67.782 L221.559,69.415 L219.713,69.415 L219.713,64.157" id="Fill-39" fill="#231F20"></path>
        <path d="M227.604,66.811 L227.604,66.791 C227.604,66.149 227.138,65.605 226.487,65.605 C225.816,65.605 225.388,66.14 225.388,66.772 L225.388,66.791 C225.388,67.433 225.855,67.977 226.507,67.977 C227.177,67.977 227.604,67.442 227.604,66.811 Z M223.591,66.811 L223.591,66.791 C223.591,65.294 224.815,64.04 226.507,64.04 C228.187,64.04 229.403,65.274 229.403,66.772 L229.403,66.791 C229.403,68.288 228.178,69.542 226.487,69.542 C224.805,69.542 223.591,68.308 223.591,66.811 L223.591,66.811 Z" id="Fill-40" fill="#231F20"></path>
        <path d="M233.572,66.354 C233.505,65.771 233.164,65.401 232.659,65.401 C232.173,65.401 231.843,65.78 231.745,66.354 L233.572,66.354 Z M229.996,66.811 L229.996,66.791 C229.996,65.255 231.094,64.04 232.649,64.04 C234.467,64.04 235.303,65.372 235.303,66.917 C235.303,67.034 235.303,67.17 235.293,67.296 L231.774,67.296 C231.92,67.87 232.338,68.161 232.912,68.161 C233.348,68.161 233.699,67.996 234.078,67.627 L235.098,68.473 C234.593,69.114 233.864,69.542 232.814,69.542 C231.162,69.542 229.996,68.443 229.996,66.811 L229.996,66.811 Z" id="Fill-41" fill="#231F20"></path>
        <path d="M235.72,68.754 L236.41,67.637 C237.012,68.035 237.674,68.239 238.218,68.239 C238.539,68.239 238.684,68.142 238.684,67.957 L238.684,67.937 C238.684,67.733 238.393,67.647 237.839,67.491 C236.799,67.219 235.972,66.869 235.972,65.81 L235.972,65.79 C235.972,64.672 236.867,64.05 238.082,64.05 C238.849,64.05 239.647,64.273 240.25,64.662 L239.618,65.829 C239.073,65.527 238.48,65.343 238.062,65.343 C237.781,65.343 237.635,65.449 237.635,65.596 L237.635,65.615 C237.635,65.819 237.936,65.916 238.49,66.081 C239.53,66.373 240.356,66.732 240.356,67.753 L240.356,67.772 C240.356,68.93 239.491,69.532 238.209,69.532 C237.324,69.532 236.449,69.279 235.72,68.754" id="Fill-42" fill="#231F20"></path>
        <path d="M78.779,25.977 C74.404,22.963 58.674,13.369 39.78,16.394 C40.493,20.265 38.157,21.287 38.024,26.02 C37.889,30.809 42.693,31.601 46.89,31.387 C46.8,31.405 46.748,31.416 46.748,31.416 C46.748,31.416 52.845,30.911 52.752,36.154 C52.752,36.154 56.544,31.427 64.064,30.138 C70.309,29.068 75.595,28.348 76.598,28.133 C77.6,27.918 78.843,26.137 78.843,26.137 L78.872,25.841 L78.779,25.977" id="Fill-43" fill="#231F20"></path>
    </g>
</svg>