<svg width="1078" height="287" viewBox="0 0 1078 287" fill="none" xmlns="http://www.w3.org/2000/svg">
<g clip-path="url(#clip0_2668_881)">
<mask id="mask0_2668_881" style="mask-type:luminance" maskUnits="userSpaceOnUse" x="0" y="0" width="1077" height="287">
<path d="M1076.59 0H0V287H1076.59V0Z" fill="white"/>
</mask>
<g mask="url(#mask0_2668_881)">
<path d="M173.187 157.561V204.773L212.419 202.599V154.063L173.187 157.561Z" fill="#121517"/>
<path d="M173.175 285.4H232.943V236.977L173.175 238.845V285.4Z" fill="#121517"/>
<path d="M124.07 285.403H165.477V77.7469L124.07 83.7486V285.403Z" fill="#121517"/>
<path d="M36.4832 285.402H75.7947V140.75L36.4832 144.898V285.402Z" fill="#121517"/>
<path d="M2.26929 142.403L109.588 130.213V85.84L2.26929 101.393V142.403Z" fill="#121517"/>
<path d="M548.603 285.405H733.265V221.346L548.544 227.116L548.603 285.405Z" fill="#121517"/>
<path d="M608.2 117.53C605.575 80.0032 616.698 71.124 627.973 66.2286L627.952 3.91821C574.289 15.7046 547.91 56.3704 550.97 122.777L608.2 117.53Z" fill="#121517"/>
<path d="M173.175 123.024L232.943 116.267V67.9783L173.175 76.6256V123.024Z" fill="#121517"/>
<path d="M451.949 91.3587L531.063 82.3899V24.7283L451.949 36.1859V91.3587Z" fill="#121517"/>
<path d="M662.732 75.9378C669.091 89.4582 662.551 109.743 647.071 128.57C623.231 157.583 559.808 216.956 559.808 216.956L650.87 213.87C706.52 157.838 726.488 123.824 730.063 81.4013C731.97 58.9196 724.038 37.29 708.369 22.0282C691.221 5.31634 666.053 -1.53728 638.565 2.51361V63.7403C649.695 63.1124 658.708 67.3726 662.732 75.9378Z" fill="#121517"/>
<path d="M387.557 285.4H441.822V37.6385L387.557 45.5161V285.4Z" fill="#121517"/>
<path d="M451.961 132.862V189.081L503.794 186.151V128.296L451.961 132.862Z" fill="#121517"/>
<path d="M451.949 285.405H531.063V227.676L451.949 230.142V285.405Z" fill="#121517"/>
<path d="M304.73 285.401H373.177V232.621L304.73 234.728V285.401Z" fill="#121517"/>
<path d="M248.783 285.404H295.896V58.8461L248.783 65.7221V285.404Z" fill="#121517"/>
<path d="M799.573 2.0437V285.635H1074.33V2.0437H799.573ZM885.386 208.504C859.791 208.504 839.481 197.249 840.336 164.355H867.469C868.665 175.791 873.951 181.067 883.001 181.067C891.193 181.067 896.479 174.386 896.479 164.707C896.479 156.089 891.875 149.579 882.826 149.579C878.048 149.579 873.951 151.688 871.226 155.386L843.752 151.695L850.748 81.1556H927.027V121.792H902.114L901.091 109.302H876.003L873.61 131.29C878.215 128.301 884.19 126.366 892.383 126.366C915.933 126.366 930.094 142.195 930.094 167.001C930.094 187.584 916.782 208.504 885.386 208.504ZM1033.58 123.188H1006.11C1004.23 111.754 999.114 107.531 991.261 107.531C981.19 107.531 974.193 116.5 974.193 143.593C974.193 168.391 979.313 179.124 992.45 179.124C996.032 179.124 999.448 178.242 1002.18 176.313V161.358H989.043V133.212H1033.58V205.859H1005.09V198.116C1000.31 203.923 992.973 207.966 981.538 207.966C952.703 207.966 939.048 182.637 939.048 143.757C939.048 102.247 956.283 78.6742 984.439 78.6742C995.7 78.6742 1003.04 82.1944 1007.65 87.643L1007.99 80.7819H1033.58V123.174V123.188Z" fill="#121517"/>
</g>
</g>
<defs>
<clipPath id="clip0_2668_881">
<rect width="1078" height="287" fill="white"/>
</clipPath>
</defs>
</svg>
