<svg width="594" height="140" viewBox="0 0 594 140" fill="none" xmlns="http://www.w3.org/2000/svg">
<path d="M574.044 1.37763e-08H43.6553C39.1419 -0.000165969 34.7617 1.49955 31.2295 4.2544C27.6973 7.00924 25.2218 10.8565 24.2068 15.1684L0.499056 115.86C-0.166609 118.723 -0.166348 121.697 0.499818 124.56C1.16598 127.424 2.48097 130.104 4.34728 132.401C6.21359 134.698 8.58335 136.554 11.2809 137.831C13.9784 139.108 16.9345 139.773 19.9299 139.777H550.389C554.905 139.777 559.287 138.274 562.82 135.516C566.352 132.758 568.826 128.907 569.838 124.592L593.493 23.952C594.165 21.0847 594.169 18.1057 593.505 15.2367C592.84 12.3676 591.525 9.68234 589.656 7.38063C587.787 5.07892 585.413 3.22 582.71 1.94217C580.007 0.664339 577.045 0.000487146 574.044 1.37763e-08V1.37763e-08Z" fill="#FEE01A"/>
<path d="M54.7083 25.0046L94.0101 61.433C95.1019 62.449 95.9448 63.6944 96.4753 65.0757C97.0058 66.4569 97.2101 67.938 97.0729 69.4078C96.9357 70.8776 96.4605 72.2978 95.6831 73.5616C94.9057 74.8255 93.8463 75.9002 92.5844 76.705L36.263 113.133C34.5991 114.204 32.6465 114.763 30.6562 114.738C28.6659 114.712 26.7288 114.104 25.0939 112.991C23.4589 111.878 22.2009 110.311 21.4814 108.491C20.7619 106.671 20.6138 104.682 21.0563 102.78L38.1991 29.94C38.5978 28.2719 39.4362 26.7356 40.6306 25.4849C41.825 24.2343 43.3333 23.313 45.0048 22.8133C46.6763 22.3136 48.4523 22.253 50.1552 22.6376C51.8581 23.0221 53.4282 23.8384 54.7083 25.0046Z" fill="#0057B7"/>
<path d="M215.136 51.7694C219.9 57.9702 221.408 66.121 219.659 76.2218H175.166C175.342 84.9076 179.853 89.2505 188.7 89.2505C191.63 89.3111 194.524 88.6043 197.083 87.2029C199.641 85.8015 201.772 83.7562 203.256 81.278L216.791 84.7293C214.312 90.1368 210.178 94.654 204.963 97.6544C199.732 100.522 193.811 101.958 187.82 101.813C179.724 101.813 173.271 99.4663 168.46 94.7725C163.649 90.0788 161.261 83.8779 161.296 76.17C161.193 71.6641 162.053 67.1869 163.82 63.0261C165.587 58.8654 168.223 55.1133 171.557 52.011C174.642 48.9281 178.323 46.4795 182.385 44.8083C186.447 43.1371 190.808 42.277 195.212 42.2784C199.071 42.1459 202.904 42.9417 206.377 44.5961C209.85 46.2505 212.857 48.7133 215.136 51.7694ZM206.811 65.7644C205.825 58.4937 201.584 54.8583 194.086 54.8583C190.489 54.7944 186.961 55.8386 184.001 57.8437C181.087 59.839 178.787 62.5782 177.348 65.7644H206.811Z" fill="#0057B7"/>
<path d="M220.698 101.813L240.657 16.825H256.163L236.257 101.813H220.698Z" fill="#0057B7"/>
<path d="M304.423 51.6659C309.211 57.8667 310.724 66.0175 308.964 76.1183H264.47C264.634 84.8156 269.146 89.1642 278.005 89.1642C280.944 89.2162 283.843 88.4964 286.403 87.0793C288.962 85.6623 291.088 83.5997 292.56 81.1054L306.042 84.5567C303.559 89.9611 299.426 94.4771 294.215 97.4818C289.001 100.409 283.079 101.906 277.072 101.813C268.976 101.813 262.522 99.4721 257.712 94.7898C252.901 90.1076 250.513 83.901 250.548 76.1701C250.552 67.3097 254.105 58.8051 260.442 52.4885C266.779 46.1718 275.393 42.5485 284.429 42.3992C288.278 42.2417 292.108 43.0027 295.591 44.6168C299.074 46.231 302.104 48.6499 304.423 51.6659ZM296.116 65.6609C295.13 58.4017 290.888 54.7663 283.391 54.7548C279.793 54.691 276.266 55.7351 273.306 57.7402C270.388 59.7316 268.087 62.4719 266.653 65.6609H296.116Z" fill="#0057B7"/>
<path d="M374.684 50.6307C379.378 56.2908 381.038 63.3947 379.665 71.9424C378.513 80.1495 374.495 87.7113 368.295 93.3404C362.494 98.7231 354.792 101.692 346.805 101.624C337.635 101.624 331.563 98.6727 327.902 92.5984L320.862 123.125H305.215L324.294 42.4166H339.853L338.498 47.7143C343.677 43.9913 349.999 42.116 356.415 42.3993C360.001 42.3147 363.559 43.0348 366.817 44.5046C369.9 45.9022 372.598 48.0027 374.684 50.6307ZM358.562 84.0737C362.066 80.8958 364.341 76.6284 365.004 71.9942C365.849 66.8862 365.01 62.8022 362.487 59.7421C361.187 58.2026 359.537 56.9837 357.67 56.1835C355.802 55.3832 353.769 55.024 351.733 55.1346C347.251 55.2017 342.949 56.8778 339.642 59.8456C335.91 62.9118 333.444 67.206 332.707 71.9251C332.198 74.0224 332.198 76.2074 332.705 78.3051C333.212 80.4027 334.214 82.3547 335.629 84.0047C336.938 85.4882 338.567 86.6672 340.399 87.456C342.227 88.2677 344.218 88.663 346.224 88.6121C350.785 88.6996 355.202 87.0478 358.545 84.0047L358.562 84.0737Z" fill="#0057B7"/>
<path d="M442.833 101.813H427.31L428.894 95.9632C423.648 99.8472 417.232 101.906 410.66 101.813C407.113 101.817 403.616 101.001 400.451 99.4318C397.319 97.8864 394.554 95.7108 392.338 93.0469C387.644 87.3867 385.984 80.2886 387.357 71.7524C388.552 63.5509 392.607 56.0082 398.832 50.4061C404.639 45.0344 412.339 42.0725 420.322 42.1403C429.486 42.1403 435.863 45.1027 439.454 51.0274L441.372 42.3991H456.914L442.833 101.813ZM427.398 83.9009C431.13 80.8347 433.595 76.5405 434.332 71.8214C434.823 69.7231 434.815 67.5422 434.308 65.4476C433.802 63.3529 432.81 61.4006 431.411 59.7419C430.098 58.263 428.469 57.0848 426.641 56.2906C424.801 55.495 422.808 55.1005 420.798 55.1344C416.236 55.0624 411.823 56.7191 408.477 59.7591C404.966 62.9336 402.684 67.2017 402.018 71.8387C401.196 76.9351 402.041 81.0191 404.552 84.0908C405.848 85.6299 407.495 86.8488 409.36 87.6492C411.225 88.4495 413.256 88.8089 415.289 88.6982C419.77 88.6106 424.067 86.9304 427.38 83.97L427.398 83.9009Z" fill="#0057B7"/>
<path d="M469.234 82.3134C469.437 83.5641 469.932 84.752 470.68 85.7846C471.428 86.8172 472.409 87.6666 473.546 88.2669C475.981 89.6357 478.748 90.3334 481.554 90.2859C483.917 90.4 486.259 89.7974 488.26 88.5602C488.989 88.144 489.596 87.5494 490.02 86.8346C490.47 86.1212 490.731 85.3082 490.777 84.4704C490.777 82.3479 489.246 80.8638 486.201 79.9665L474.954 76.5152C466.189 73.8922 461.807 68.6808 461.807 60.8809C461.748 58.3405 462.291 55.8215 463.394 53.5219C464.496 51.2222 466.128 49.2047 468.16 47.6279C472.408 44.1766 478.14 42.451 485.356 42.451C491.272 42.2514 497.115 43.7767 502.147 46.8341C504.224 48.0483 506.031 49.6592 507.461 51.5712C508.891 53.4831 509.915 55.6572 510.472 57.9645L497.5 61.7955C497.324 60.639 496.885 59.5361 496.215 58.5685C495.558 57.5984 494.693 56.78 493.681 56.1698C491.181 54.6731 488.283 53.9402 485.356 54.0646C483.054 53.8569 480.749 54.4295 478.826 55.6867C478.22 56.1493 477.727 56.7389 477.383 57.4123C477.046 58.1079 476.872 58.8684 476.873 59.6384C476.873 61.9508 479.02 63.7972 483.332 65.1432L490.354 67.3003C500.528 70.4524 505.614 75.9227 505.614 83.7112C505.663 86.3515 505.024 88.9605 503.759 91.2916C502.493 93.6226 500.642 95.5987 498.38 97.0331C493.051 100.423 486.774 102.094 480.428 101.813C474.506 101.939 468.649 100.585 463.408 97.8787C461.105 96.7647 459.085 95.1612 457.494 93.185C455.897 91.207 454.762 88.9097 454.168 86.4549L469.234 82.3134Z" fill="#0057B7"/>
<path d="M525.432 82.2961C525.62 83.5496 526.107 84.7419 526.853 85.7763C527.599 86.8107 528.584 87.6581 529.727 88.2496C532.146 89.6123 534.892 90.3154 537.682 90.2858C540.049 90.3891 542.393 89.7876 544.405 88.5602C545.155 88.1451 545.785 87.5508 546.237 86.8328C546.69 86.1147 546.95 85.2961 546.993 84.4532C546.993 82.3479 545.444 80.8466 542.399 79.9492L531.152 76.4979C522.364 73.8749 517.97 68.698 517.97 60.9671C517.919 58.4255 518.466 55.9066 519.568 53.6054C520.67 51.3043 522.297 49.2826 524.323 47.6969C528.583 44.2456 534.297 42.5199 541.466 42.5199C547.39 42.3221 553.24 43.8536 558.274 46.9203C560.353 48.1301 562.161 49.7399 563.589 51.6528C565.017 53.5656 566.035 55.742 566.582 58.0508L553.716 61.7264C553.521 60.5749 553.083 59.4759 552.431 58.4994C551.762 57.5327 550.892 56.7153 549.879 56.1008C547.334 54.5737 544.376 53.8397 541.396 53.9955C539.082 53.8181 536.776 54.4275 534.866 55.7211C534.254 56.1962 533.761 56.8025 533.425 57.4936C533.09 58.1847 532.92 58.942 532.93 59.7074C532.93 62.0197 535.077 63.8662 539.372 65.2122L546.412 67.3347C556.585 70.4754 561.671 75.9457 561.671 83.7456C561.741 86.3685 561.132 88.9659 559.901 91.2955C558.67 93.6251 556.857 95.6109 554.631 97.0676C549.305 100.447 543.033 102.106 536.696 101.813C530.774 101.94 524.917 100.586 519.677 97.8787C517.376 96.7475 515.356 95.1352 513.759 93.1554C512.163 91.1756 511.028 88.8766 510.437 86.4204L525.432 82.2961Z" fill="#0057B7"/>
<path d="M156.175 38.7062L141.391 101.813H125.814L140.669 38.6199H115.131L118.352 24.8147H184.793L181.59 38.6199L156.175 38.7062Z" fill="#0057B7"/>
</svg>
