<svg width="120" height="120" viewBox="0 0 120 120" fill="none" xmlns="http://www.w3.org/2000/svg">
<g clip-path="url(#clip0_34_62)">
<path d="M57.5376 120H62.5344C89.6592 120 103.224 120 111.648 111.576C120.072 103.152 120 89.592 120 62.5344V57.4656C120 30.4128 120 16.848 111.648 8.42402C103.296 2.38037e-05 89.6592 0 62.5344 0H57.5376C30.408 0 16.848 2.38037e-05 8.42399 8.42402C-5.49316e-06 16.848 0 30.4032 0 57.4656V62.5344C0 89.592 -5.49316e-06 103.152 8.42399 111.576C16.848 120 30.408 120 57.5376 120Z" fill="#0077FF"/>
<path d="M64.3932 86.5193C37.3356 86.5193 20.9148 67.7465 20.2764 36.5513H33.9804C34.4076 59.4665 44.8332 69.1913 52.8252 71.1737V36.5513H65.9628V56.3225C73.6716 55.4681 81.7356 46.4729 84.4524 36.5513H97.3692C95.3004 48.7577 86.5212 57.7529 80.31 61.4633C86.5212 64.4633 96.5148 72.3161 100.369 86.5193H86.1659C83.1659 77.0249 75.8124 69.6713 65.9628 68.6729V86.5193H64.3932Z" fill="white"/>
</g>
<defs>
<clipPath id="clip0_34_62">
<rect width="120" height="120" fill="white"/>
</clipPath>
</defs>
</svg>
