<svg width="192" height="192" viewBox="0 0 192 192" fill="none" xmlns="http://www.w3.org/2000/svg">
<g clip-path="url(#clip0_11106_49281)">
<mask id="mask0_11106_49281" style="mask-type:luminance" maskUnits="userSpaceOnUse" x="0" y="0" width="192" height="192">
<path d="M191.995 96C191.995 42.9695 149.007 -6.10352e-05 96.0001 -6.10352e-05C42.9936 -6.10352e-05 0 42.9935 0 96C0 149.006 42.9695 192 96.0001 192C149.031 192 192 149.006 192 96H191.995Z" fill="white"/>
</mask>
<g mask="url(#mask0_11106_49281)">
<path d="M191.998 96C191.998 42.9695 149.009 -6.10352e-05 96.003 -6.10352e-05C42.9965 -6.10352e-05 0.00292969 42.9935 0.00292969 96C0.00292969 149.006 42.9725 192 96.003 192C149.034 192 192.003 149.006 192.003 96H191.998Z" fill="#7F5FFF"/>
<path d="M194.384 50.3338C178.694 29.6206 136.773 5.29251 98.6679 13.3346C88.4963 15.4833 89.6981 20.4873 86.5879 25.227C82.2761 31.7982 69.4559 34.4997 68.5233 37.5281C67.2014 41.8832 73.5178 49.3484 77.1278 50.6944C82.8818 52.8142 87.9051 43.4454 95.0578 42.2918C102.158 41.1381 128.567 43.5512 132.97 50.5502C139.522 57.8423 138.772 69.6386 134.85 71.2778C130.639 73.0372 120.915 63.2838 114.242 64.0337C110.488 64.4663 103.167 69.2829 98.8361 68.7782C95.1059 68.3456 92.6736 60.3756 89.4241 58.0442C86.463 55.9243 69.7107 59.5825 65.3988 61.5341C60.1496 63.8943 48.2379 80.7668 47.9207 86.8332C47.5361 93.885 61.9041 108.114 67.7062 109.243C73.7966 110.421 84.5786 104.864 88.3857 107.484C92.9331 110.637 97.918 164.076 107.859 164.149C114.166 164.197 131.399 140.657 134.095 136.081C137.874 129.63 135.561 119.352 136.888 115.814C138.547 111.387 149.021 105.561 149.43 100.865C149.814 96.6538 135.71 84.5451 139.2 82.0406C141.969 80.065 156.847 87.1937 161.682 84.2086C165.812 81.6609 165.965 68.8311 171.268 59.2075C172.272 57.3809 174.19 56.2224 176.276 56.2224C181.281 56.2224 186.804 59.5632 192.841 84.0547C194.139 88.9434 202.811 77.6951 202.811 77.6951L194.38 50.3435L194.384 50.3338Z" fill="#FEE14A"/>
<path d="M150.152 130.975C147.263 130.23 143.918 137.691 142.956 140.508C142.091 143.108 140.38 150.521 142.956 151.458C146.086 152.588 150.465 144.406 151.407 141.229C152.128 138.748 152.657 131.624 150.157 131" fill="#FEE14A"/>
<path d="M0.598118 106.782C4.8571 119.852 21.5181 115.954 24.4071 124.693C27.6566 134.537 16.4852 143.925 23.4216 158.851C9.12088 172.883 -6.8623 136.941 -6.8623 136.941L0.598118 106.801V106.777V106.782Z" fill="#FEE14A"/>
</g>
</g>
<defs>
<clipPath id="clip0_11106_49281">
<rect width="192" height="192" fill="white"/>
</clipPath>
</defs>
</svg>
