<svg width="1920" height="1080" viewBox="0 0 1920 1080" fill="none" xmlns="http://www.w3.org/2000/svg">
<rect width="1920" height="1080" fill="#F7F7F7"/>
<path d="M188.366 348H450.7C458.432 348 464.7 354.268 464.7 362V419.634C464.7 452.421 438.121 479 405.334 479H188.366C155.579 479 129 452.421 129 419.634V407.366C129 374.579 155.579 348 188.366 348Z" stroke="#707478" stroke-width="2"/>
<path d="M293.576 396.1C298.463 396.1 302.869 397.236 306.766 399.528C310.729 401.753 313.826 404.919 316.046 409.005L316.258 409.386C318.415 413.341 319.477 417.923 319.477 423.1C319.477 428.444 318.345 433.184 316.05 437.288L316.046 437.294C313.759 441.313 310.633 444.475 306.678 446.765L306.666 446.772C302.704 448.996 298.266 450.1 293.377 450.1C288.552 450.1 284.147 448.995 280.188 446.772L280.178 446.767L280.169 446.761C276.281 444.47 273.191 441.309 270.907 437.294L270.903 437.288C268.608 433.184 267.477 428.444 267.477 423.1C267.477 417.756 268.608 413.046 270.907 409.005L270.91 409C273.26 404.923 276.384 401.758 280.28 399.532C284.243 397.239 288.683 396.1 293.576 396.1ZM364.1 396.1C368.942 396.1 373.075 396.952 376.454 398.709L377.09 399.047C380.212 400.78 382.586 403.175 384.182 406.229C385.874 409.402 386.7 413.137 386.7 417.4V448.9H376.514L376.407 448.019L375.673 441.923C374.981 442.869 374.22 443.738 373.388 444.526L373.377 444.536L373.367 444.545C372.044 445.729 370.614 446.74 369.079 447.578L369.078 447.577C367.592 448.424 365.941 449.053 364.133 449.471L364.134 449.472C362.384 449.892 360.538 450.1 358.6 450.1C354.559 450.1 351.095 449.416 348.253 447.995L348.239 447.988L348.226 447.98C345.474 446.499 343.391 444.5 342.021 441.977C340.673 439.493 340 436.795 340 433.9C340 430.455 340.882 427.444 342.687 424.918L342.691 424.911L342.697 424.904C344.561 422.395 347.191 420.493 350.532 419.17L350.538 419.167C353.948 417.845 357.977 417.2 362.6 417.2H374.681C374.587 414.76 374.147 412.783 373.399 411.235L373.391 411.216L373.383 411.198C372.595 409.381 371.44 408.096 369.926 407.281L369.913 407.273L369.9 407.266C368.351 406.372 366.431 405.9 364.1 405.9C361.208 405.9 358.742 406.62 356.66 408.028L356.654 408.032C354.742 409.307 353.525 411.357 353.09 414.344L352.965 415.2H340.985L341.105 414.091C341.522 410.273 342.745 407.021 344.812 404.383L344.815 404.38C346.925 401.708 349.661 399.677 352.999 398.284C356.34 396.822 360.046 396.1 364.1 396.1ZM219 376.9V407.1H251.5V376.9H263.5V448.9H251.5V417.3H219V448.9H207V376.9H219ZM335.457 376.9V448.9H323.457V376.9H335.457ZM293.576 406.1C291.157 406.1 288.898 406.717 286.783 407.961L286.774 407.967L286.765 407.973C284.693 409.131 282.987 410.941 281.662 413.464C280.359 415.946 279.677 419.141 279.677 423.1C279.677 427.054 280.357 430.245 281.657 432.726L281.91 433.181C283.196 435.417 284.794 437.092 286.692 438.243C288.809 439.486 291.032 440.1 293.377 440.1C295.868 440.1 298.12 439.48 300.158 438.245L300.17 438.238C302.26 437.008 303.972 435.185 305.296 432.726C306.596 430.245 307.276 427.054 307.276 423.1C307.276 419.141 306.594 415.946 305.291 413.464L305.286 413.456L305.282 413.447C304.025 410.932 302.355 409.128 300.289 407.973L300.258 407.956C298.216 406.718 295.995 406.1 293.576 406.1ZM363.6 426.3C360.729 426.3 358.494 426.628 356.848 427.238C355.258 427.851 354.187 428.673 353.532 429.655C352.854 430.673 352.5 431.875 352.5 433.3C352.5 434.652 352.818 435.825 353.434 436.846C354.119 437.808 355.067 438.591 356.312 439.187C357.628 439.72 359.184 440 361 440C363.209 440 365.083 439.59 366.652 438.805L366.666 438.799C368.342 437.993 369.724 436.914 370.826 435.567L370.829 435.563C372.016 434.126 372.888 432.538 373.448 430.793L373.453 430.779L373.458 430.763C373.974 429.318 374.297 427.831 374.434 426.3H363.6Z" stroke="#707478" stroke-width="2"/>
<path d="M576.366 348H1012.75C1020.49 348 1026.75 354.268 1026.75 362V419.634C1026.75 452.421 1000.18 479 967.389 479H576.366C543.579 479 517 452.421 517 419.634V407.366C517 374.579 543.579 348 576.366 348Z" stroke="#707478" stroke-width="2"/>
<mask id="path-4-outside-1_513_2022" maskUnits="userSpaceOnUse" x="594" y="363.8" width="356" height="100" fill="black">
<rect fill="white" x="594" y="363.8" width="356" height="100"/>
<path d="M596 437.2V365.8H650.4V437.2H639.7V375.1H606.8V437.2H596Z"/>
<path d="M694.235 382.3C700.702 382.3 705.902 384.633 709.835 389.3C713.835 393.966 715.835 400.933 715.835 410.2C715.835 416.266 714.935 421.4 713.135 425.6C711.335 429.8 708.802 432.966 705.535 435.1C702.268 437.166 698.468 438.2 694.135 438.2C691.402 438.2 689.002 437.866 686.935 437.2C684.868 436.466 683.102 435.533 681.635 434.4C680.235 433.2 679.002 431.933 677.935 430.6H677.235C677.435 431.8 677.602 433.233 677.735 434.9C677.868 436.5 677.935 437.933 677.935 439.2V461.2H667.335V383.3H675.935L677.435 390.5H677.935C679.002 389.033 680.268 387.666 681.735 386.4C683.202 385.133 684.968 384.133 687.035 383.4C689.102 382.666 691.502 382.3 694.235 382.3ZM691.735 391C688.402 391 685.735 391.666 683.735 393C681.735 394.266 680.268 396.2 679.335 398.8C678.468 401.333 678.002 404.566 677.935 408.5V410.1C677.935 414.233 678.368 417.766 679.235 420.7C680.102 423.566 681.535 425.766 683.535 427.3C685.602 428.766 688.402 429.5 691.935 429.5C694.935 429.5 697.368 428.7 699.235 427.1C701.168 425.433 702.602 423.133 703.535 420.2C704.468 417.266 704.935 413.866 704.935 410C704.935 404.133 703.868 399.5 701.735 396.1C699.602 392.7 696.268 391 691.735 391Z"/>
<path d="M738.447 412.7C738.447 413.5 738.414 414.533 738.347 415.8C738.28 417.066 738.214 418.4 738.147 419.8C738.08 421.133 737.98 422.4 737.847 423.6C737.78 424.733 737.714 425.633 737.647 426.3L765.347 383.3H778.247V437.2H768.247V408.5C768.247 407.233 768.28 405.666 768.347 403.8C768.414 401.933 768.48 400.133 768.547 398.4C768.68 396.6 768.78 395.233 768.847 394.3L741.347 437.2H728.347V383.3H738.447V412.7Z"/>
<path d="M838.648 397C838.648 400.266 837.648 402.866 835.648 404.8C833.715 406.666 831.115 407.933 827.848 408.6V409C831.315 409.466 834.248 410.7 836.648 412.7C839.115 414.633 840.348 417.5 840.348 421.3C840.348 423.633 839.915 425.766 839.048 427.7C838.182 429.633 836.848 431.333 835.048 432.8C833.248 434.2 830.915 435.3 828.048 436.1C825.248 436.833 821.848 437.2 817.848 437.2H793.948V383.3H817.848C821.782 383.3 825.315 383.733 828.448 384.6C831.582 385.466 834.048 386.9 835.848 388.9C837.715 390.9 838.648 393.6 838.648 397ZM829.348 421.1C829.348 418.3 828.282 416.3 826.148 415.1C824.015 413.833 820.848 413.2 816.648 413.2H804.548V429.2H816.848C820.782 429.2 823.848 428.6 826.048 427.4C828.248 426.133 829.348 424.033 829.348 421.1ZM827.848 398.2C827.848 395.866 827.015 394.166 825.348 393.1C823.682 392.033 820.982 391.5 817.248 391.5H804.548V405.1H815.648C819.648 405.1 822.682 404.566 824.748 403.5C826.815 402.366 827.848 400.6 827.848 398.2Z"/>
<path d="M873.328 382.3C878.061 382.3 882.128 383.3 885.528 385.3C888.928 387.233 891.528 390.033 893.328 393.7C895.195 397.366 896.128 401.7 896.128 406.7V412.5H859.928C860.061 418.033 861.495 422.266 864.228 425.2C867.028 428.133 870.928 429.6 875.928 429.6C879.395 429.6 882.461 429.3 885.128 428.7C887.861 428.033 890.661 427.066 893.528 425.8V434.6C890.861 435.8 888.128 436.7 885.328 437.3C882.595 437.9 879.328 438.2 875.528 438.2C870.328 438.2 865.728 437.166 861.728 435.1C857.728 433.033 854.595 429.966 852.328 425.9C850.128 421.766 849.028 416.7 849.028 410.7C849.028 404.633 850.028 399.5 852.028 395.3C854.095 391.1 856.928 387.9 860.528 385.7C864.195 383.433 868.461 382.3 873.328 382.3ZM873.328 390.5C869.528 390.5 866.461 391.733 864.128 394.2C861.861 396.666 860.528 400.166 860.128 404.7H885.528C885.528 401.9 885.095 399.433 884.228 397.3C883.361 395.166 882.028 393.5 880.228 392.3C878.428 391.1 876.128 390.5 873.328 390.5Z"/>
<path d="M947.755 391.8H930.155V437.2H919.655V391.8H902.155V383.3H947.755V391.8Z"/>
</mask>
<path d="M596 437.2V365.8H650.4V437.2H639.7V375.1H606.8V437.2H596Z" stroke="#707478" stroke-width="4" mask="url(#path-4-outside-1_513_2022)"/>
<path d="M694.235 382.3C700.702 382.3 705.902 384.633 709.835 389.3C713.835 393.966 715.835 400.933 715.835 410.2C715.835 416.266 714.935 421.4 713.135 425.6C711.335 429.8 708.802 432.966 705.535 435.1C702.268 437.166 698.468 438.2 694.135 438.2C691.402 438.2 689.002 437.866 686.935 437.2C684.868 436.466 683.102 435.533 681.635 434.4C680.235 433.2 679.002 431.933 677.935 430.6H677.235C677.435 431.8 677.602 433.233 677.735 434.9C677.868 436.5 677.935 437.933 677.935 439.2V461.2H667.335V383.3H675.935L677.435 390.5H677.935C679.002 389.033 680.268 387.666 681.735 386.4C683.202 385.133 684.968 384.133 687.035 383.4C689.102 382.666 691.502 382.3 694.235 382.3ZM691.735 391C688.402 391 685.735 391.666 683.735 393C681.735 394.266 680.268 396.2 679.335 398.8C678.468 401.333 678.002 404.566 677.935 408.5V410.1C677.935 414.233 678.368 417.766 679.235 420.7C680.102 423.566 681.535 425.766 683.535 427.3C685.602 428.766 688.402 429.5 691.935 429.5C694.935 429.5 697.368 428.7 699.235 427.1C701.168 425.433 702.602 423.133 703.535 420.2C704.468 417.266 704.935 413.866 704.935 410C704.935 404.133 703.868 399.5 701.735 396.1C699.602 392.7 696.268 391 691.735 391Z" stroke="#707478" stroke-width="4" mask="url(#path-4-outside-1_513_2022)"/>
<path d="M738.447 412.7C738.447 413.5 738.414 414.533 738.347 415.8C738.28 417.066 738.214 418.4 738.147 419.8C738.08 421.133 737.98 422.4 737.847 423.6C737.78 424.733 737.714 425.633 737.647 426.3L765.347 383.3H778.247V437.2H768.247V408.5C768.247 407.233 768.28 405.666 768.347 403.8C768.414 401.933 768.48 400.133 768.547 398.4C768.68 396.6 768.78 395.233 768.847 394.3L741.347 437.2H728.347V383.3H738.447V412.7Z" stroke="#707478" stroke-width="4" mask="url(#path-4-outside-1_513_2022)"/>
<path d="M838.648 397C838.648 400.266 837.648 402.866 835.648 404.8C833.715 406.666 831.115 407.933 827.848 408.6V409C831.315 409.466 834.248 410.7 836.648 412.7C839.115 414.633 840.348 417.5 840.348 421.3C840.348 423.633 839.915 425.766 839.048 427.7C838.182 429.633 836.848 431.333 835.048 432.8C833.248 434.2 830.915 435.3 828.048 436.1C825.248 436.833 821.848 437.2 817.848 437.2H793.948V383.3H817.848C821.782 383.3 825.315 383.733 828.448 384.6C831.582 385.466 834.048 386.9 835.848 388.9C837.715 390.9 838.648 393.6 838.648 397ZM829.348 421.1C829.348 418.3 828.282 416.3 826.148 415.1C824.015 413.833 820.848 413.2 816.648 413.2H804.548V429.2H816.848C820.782 429.2 823.848 428.6 826.048 427.4C828.248 426.133 829.348 424.033 829.348 421.1ZM827.848 398.2C827.848 395.866 827.015 394.166 825.348 393.1C823.682 392.033 820.982 391.5 817.248 391.5H804.548V405.1H815.648C819.648 405.1 822.682 404.566 824.748 403.5C826.815 402.366 827.848 400.6 827.848 398.2Z" stroke="#707478" stroke-width="4" mask="url(#path-4-outside-1_513_2022)"/>
<path d="M873.328 382.3C878.061 382.3 882.128 383.3 885.528 385.3C888.928 387.233 891.528 390.033 893.328 393.7C895.195 397.366 896.128 401.7 896.128 406.7V412.5H859.928C860.061 418.033 861.495 422.266 864.228 425.2C867.028 428.133 870.928 429.6 875.928 429.6C879.395 429.6 882.461 429.3 885.128 428.7C887.861 428.033 890.661 427.066 893.528 425.8V434.6C890.861 435.8 888.128 436.7 885.328 437.3C882.595 437.9 879.328 438.2 875.528 438.2C870.328 438.2 865.728 437.166 861.728 435.1C857.728 433.033 854.595 429.966 852.328 425.9C850.128 421.766 849.028 416.7 849.028 410.7C849.028 404.633 850.028 399.5 852.028 395.3C854.095 391.1 856.928 387.9 860.528 385.7C864.195 383.433 868.461 382.3 873.328 382.3ZM873.328 390.5C869.528 390.5 866.461 391.733 864.128 394.2C861.861 396.666 860.528 400.166 860.128 404.7H885.528C885.528 401.9 885.095 399.433 884.228 397.3C883.361 395.166 882.028 393.5 880.228 392.3C878.428 391.1 876.128 390.5 873.328 390.5Z" stroke="#707478" stroke-width="4" mask="url(#path-4-outside-1_513_2022)"/>
<path d="M947.755 391.8H930.155V437.2H919.655V391.8H902.155V383.3H947.755V391.8Z" stroke="#707478" stroke-width="4" mask="url(#path-4-outside-1_513_2022)"/>
<path d="M1142.37 348H1424.22C1431.95 348 1438.22 354.268 1438.22 362V419.634C1438.22 452.421 1411.64 479 1378.86 479H1142.37C1109.58 479 1083 452.421 1083 419.634V407.366C1083 374.579 1109.58 348 1142.37 348Z" stroke="#707478" stroke-width="2"/>
<path d="M1246.08 396.1C1250.92 396.1 1255.05 396.952 1258.43 398.709L1259.07 399.047C1262.19 400.78 1264.56 403.175 1266.16 406.229C1267.85 409.402 1268.68 413.137 1268.68 417.4V448.9H1258.49L1258.38 448.019L1257.65 441.923C1256.96 442.869 1256.2 443.738 1255.36 444.526L1255.35 444.536L1255.34 444.545C1254.02 445.729 1252.59 446.74 1251.06 447.578L1251.05 447.577C1249.57 448.424 1247.92 449.053 1246.11 449.471L1246.11 449.472C1244.36 449.892 1242.51 450.1 1240.58 450.1C1236.54 450.1 1233.07 449.416 1230.23 447.995L1230.22 447.988L1230.2 447.98C1227.45 446.499 1225.37 444.5 1224 441.977C1222.65 439.493 1221.98 436.795 1221.98 433.9C1221.98 430.455 1222.86 427.444 1224.66 424.918L1224.67 424.911L1224.67 424.904C1226.54 422.395 1229.17 420.493 1232.51 419.17L1232.51 419.167C1235.92 417.845 1239.95 417.2 1244.58 417.2H1256.66C1256.56 414.76 1256.12 412.783 1255.38 411.235L1255.37 411.216L1255.36 411.198C1254.57 409.381 1253.42 408.096 1251.9 407.281L1251.89 407.273L1251.88 407.266C1250.33 406.372 1248.41 405.9 1246.08 405.9C1243.18 405.9 1240.72 406.62 1238.64 408.028L1238.63 408.032C1236.72 409.307 1235.5 411.357 1235.07 414.344L1234.94 415.2H1222.96L1223.08 414.091C1223.5 410.273 1224.72 407.021 1226.79 404.383L1226.79 404.38C1228.9 401.708 1231.64 399.677 1234.98 398.284C1238.32 396.822 1242.02 396.1 1246.08 396.1ZM1334.32 396.1C1339.21 396.1 1343.62 397.236 1347.51 399.528C1351.48 401.753 1354.57 404.919 1356.79 409.005L1357 409.386C1359.16 413.341 1360.22 417.923 1360.22 423.1C1360.22 428.444 1359.09 433.184 1356.8 437.288L1356.79 437.294C1354.51 441.313 1351.38 444.475 1347.42 446.765L1347.41 446.772C1343.45 448.996 1339.01 450.1 1334.12 450.1C1329.3 450.1 1324.89 448.995 1320.93 446.772L1320.92 446.767L1320.92 446.761C1317.03 444.47 1313.94 441.309 1311.65 437.294L1311.65 437.288C1309.35 433.184 1308.22 428.444 1308.22 423.1C1308.22 417.756 1309.35 413.046 1311.65 409.005L1311.66 409C1314.01 404.923 1317.13 401.758 1321.03 399.532C1324.99 397.239 1329.43 396.1 1334.32 396.1ZM1173 376.9V407.1H1205.5V376.9H1217.5V448.9H1205.5V417.3H1173V448.9H1161V376.9H1173ZM1285.65 376.9V448.9H1273.65V376.9H1285.65ZM1304.18 376.9V448.9H1292.18V376.9H1304.18ZM1334.32 406.1C1331.9 406.1 1329.64 406.717 1327.53 407.961L1327.52 407.967L1327.51 407.973C1325.44 409.131 1323.73 410.941 1322.41 413.464C1321.11 415.946 1320.42 419.141 1320.42 423.1C1320.42 427.054 1321.1 430.245 1322.4 432.726L1322.66 433.181C1323.94 435.417 1325.54 437.092 1327.44 438.243C1329.56 439.486 1331.78 440.1 1334.12 440.1C1336.61 440.1 1338.87 439.48 1340.9 438.245L1340.92 438.238C1343.01 437.008 1344.72 435.185 1346.04 432.726C1347.34 430.245 1348.02 427.054 1348.02 423.1C1348.02 419.141 1347.34 415.946 1346.04 413.464L1346.03 413.456L1346.03 413.447C1344.77 410.932 1343.1 409.128 1341.04 407.973L1341 407.956C1338.96 406.718 1336.74 406.1 1334.32 406.1ZM1245.58 426.3C1242.71 426.3 1240.47 426.628 1238.82 427.238C1237.23 427.851 1236.16 428.673 1235.51 429.655C1234.83 430.673 1234.48 431.875 1234.48 433.3C1234.48 434.652 1234.79 435.825 1235.41 436.846C1236.1 437.808 1237.04 438.591 1238.29 439.187C1239.6 439.72 1241.16 440 1242.98 440C1245.19 440 1247.06 439.59 1248.63 438.805L1248.64 438.799C1250.32 437.993 1251.7 436.914 1252.8 435.567L1252.81 435.563C1253.99 434.126 1254.86 432.538 1255.42 430.793L1255.43 430.779L1255.43 430.763C1255.95 429.318 1256.27 427.831 1256.41 426.3H1245.58Z" stroke="#707478" stroke-width="2"/>
<path d="M1549.37 348H1771.61C1779.34 348 1785.61 354.268 1785.61 362V419.634C1785.61 452.421 1759.03 479 1726.24 479H1549.37C1516.58 479 1490 452.421 1490 419.634V407.366C1490 374.579 1516.58 348 1549.37 348Z" stroke="#707478" stroke-width="2"/>
<path d="M1603.7 377.8C1610.79 377.8 1617.03 379.368 1622.41 382.538C1627.77 385.699 1631.93 390.101 1634.88 395.723L1635.16 396.247C1638 401.694 1639.4 407.954 1639.4 415C1639.4 422.338 1637.9 428.839 1634.88 434.473C1631.93 440.031 1627.77 444.401 1622.41 447.562L1622.4 447.566C1617.03 450.667 1610.78 452.2 1603.7 452.2C1596.68 452.2 1590.47 450.666 1585.1 447.566L1585.09 447.562C1579.73 444.401 1575.54 440.034 1572.52 434.478L1572.52 434.473C1569.5 428.839 1568 422.338 1568 415C1568 407.729 1569.5 401.294 1572.52 395.727C1575.54 390.103 1579.73 385.7 1585.09 382.538C1590.47 379.369 1596.68 377.8 1603.7 377.8ZM1685.01 398.2C1689.85 398.2 1693.99 399.051 1697.36 400.809C1700.8 402.562 1703.39 405.071 1705.09 408.329L1705.4 408.931C1706.88 411.971 1707.61 415.504 1707.61 419.5V451H1697.42L1697.32 450.119L1696.58 444.023C1695.89 444.969 1695.13 445.838 1694.3 446.626L1694.29 446.636L1694.28 446.646C1692.95 447.829 1691.52 448.84 1689.99 449.678L1689.99 449.677C1688.5 450.524 1686.85 451.153 1685.04 451.571C1683.29 451.991 1681.45 452.2 1679.51 452.2C1675.47 452.2 1672.01 451.515 1669.16 450.094L1669.15 450.088L1669.14 450.08C1666.38 448.599 1664.3 446.6 1662.93 444.077C1661.58 441.593 1660.91 438.895 1660.91 436C1660.91 432.555 1661.79 429.544 1663.6 427.019L1663.6 427.011L1663.61 427.004C1665.47 424.496 1668.1 422.592 1671.44 421.27L1671.45 421.268C1674.86 419.945 1678.89 419.3 1683.51 419.3H1695.59C1695.5 416.86 1695.06 414.884 1694.31 413.335L1694.3 413.316L1694.29 413.298C1693.51 411.481 1692.35 410.195 1690.84 409.38L1690.81 409.366C1689.26 408.472 1687.34 408 1685.01 408C1682.12 408 1679.65 408.72 1677.57 410.128L1677.56 410.132C1675.65 411.407 1674.44 413.457 1674 416.444L1673.88 417.3H1661.9L1662.02 416.191C1662.43 412.373 1663.66 409.121 1665.72 406.483L1665.73 406.48C1667.84 403.808 1670.57 401.777 1673.91 400.384L1674.54 400.118C1677.72 398.834 1681.21 398.2 1685.01 398.2ZM1656.37 379V451H1644.37V379H1656.37ZM1684.51 428.399C1681.64 428.399 1679.4 428.728 1677.76 429.338L1677.76 429.337C1676.17 429.95 1675.1 430.773 1674.44 431.755C1673.76 432.773 1673.41 433.975 1673.41 435.399C1673.41 436.752 1673.73 437.926 1674.34 438.947C1675.03 439.909 1675.98 440.691 1677.22 441.287C1678.54 441.82 1680.09 442.1 1681.91 442.1C1684.12 442.1 1685.99 441.69 1687.56 440.905L1687.57 440.902L1687.58 440.898C1689.25 440.092 1690.63 439.014 1691.74 437.667L1691.74 437.663C1692.93 436.226 1693.8 434.638 1694.36 432.894L1694.36 432.879L1694.37 432.863C1694.88 431.418 1695.21 429.931 1695.34 428.399H1684.51ZM1603.7 388.8C1598.99 388.8 1594.9 389.863 1591.41 391.957L1591.4 391.964C1587.92 393.993 1585.18 396.944 1583.19 400.853C1581.21 404.749 1580.2 409.453 1580.2 415C1580.2 420.546 1581.21 425.25 1583.19 429.146C1585.18 433.057 1587.92 436.046 1591.41 438.143C1594.9 440.237 1598.99 441.3 1603.7 441.3C1608.41 441.3 1612.49 440.237 1615.99 438.143L1615.99 438.139C1619.55 436.042 1622.29 433.058 1624.2 429.158L1624.21 429.146H1624.21C1626.19 425.25 1627.2 420.546 1627.2 415C1627.2 409.453 1626.19 404.749 1624.21 400.853L1624.2 400.841V400.84C1622.29 396.943 1619.55 393.996 1616 391.968L1616 391.963L1615.99 391.957C1612.49 389.863 1608.41 388.8 1603.7 388.8ZM1696.11 374.8V385.303L1695.58 385.584L1673.98 396.984L1672.51 397.759V387.114L1673.02 386.828L1694.22 374.928L1694.45 374.8H1696.11Z" stroke="#707478" stroke-width="2"/>
<path d="M163.366 600H723.3C731.032 600 737.3 606.268 737.3 614V671.634C737.3 704.421 710.721 731 677.934 731H163.366C130.579 731 104 704.421 104 671.634V659.366C104 626.579 130.579 600 163.366 600Z" stroke="#707478" stroke-width="2"/>
<mask id="path-10-outside-2_513_2022" maskUnits="userSpaceOnUse" x="181" y="620.507" width="480" height="90" fill="black">
<rect fill="white" x="181" y="620.507" width="480" height="90"/>
<path d="M189.3 631.607C192.967 632.074 197.067 632.407 201.6 632.607C206.2 632.807 211.033 632.907 216.1 632.907C219.367 632.907 222.667 632.841 226 632.707C229.333 632.574 232.533 632.407 235.6 632.207C238.733 631.941 241.533 631.707 244 631.507V641.907C241.733 642.107 239 642.307 235.8 642.507C232.667 642.707 229.4 642.874 226 643.007C222.6 643.074 219.333 643.107 216.2 643.107C211.067 643.107 206.3 643.007 201.9 642.807C197.5 642.541 193.3 642.274 189.3 642.007V631.607ZM195.3 672.807C194.7 674.674 194.233 676.507 193.9 678.307C193.567 680.107 193.4 681.874 193.4 683.607C193.4 687.141 195.2 690.041 198.8 692.307C202.467 694.574 208.1 695.707 215.7 695.707C220.3 695.707 224.7 695.541 228.9 695.207C233.167 694.874 237.133 694.407 240.8 693.807C244.467 693.207 247.633 692.507 250.3 691.707L250.4 702.707C247.8 703.374 244.7 703.974 241.1 704.507C237.567 705.041 233.667 705.441 229.4 705.707C225.2 706.041 220.767 706.207 216.1 706.207C208.967 706.207 202.933 705.407 198 703.807C193.067 702.274 189.333 700.007 186.8 697.007C184.267 694.007 183 690.341 183 686.007C183 683.274 183.233 680.741 183.7 678.407C184.167 676.007 184.6 673.841 185 671.907L195.3 672.807Z"/>
<path d="M321.6 628.607C321.133 629.274 320.633 630.041 320.1 630.907C319.567 631.707 319 632.574 318.4 633.507C317.267 635.241 315.933 637.407 314.4 640.007C312.867 642.541 311.267 645.274 309.6 648.207C307.933 651.141 306.3 654.041 304.7 656.907C303.1 659.774 301.7 662.374 300.5 664.707C302.633 663.041 304.833 661.841 307.1 661.107C309.433 660.307 311.667 659.907 313.8 659.907C317.333 659.907 320.167 661.007 322.3 663.207C324.5 665.341 325.7 668.441 325.9 672.507C325.967 674.241 326 676.207 326 678.407C326 680.541 326 682.641 326 684.707C326.067 686.774 326.167 688.574 326.3 690.107C326.433 692.441 327.2 694.107 328.6 695.107C330.067 696.041 331.733 696.507 333.6 696.507C336.133 696.507 338.4 695.807 340.4 694.407C342.467 693.007 344.267 691.141 345.8 688.807C347.4 686.407 348.733 683.807 349.8 681.007C350.933 678.141 351.833 675.274 352.5 672.407L360.9 679.307C359.167 684.841 357 689.707 354.4 693.907C351.8 698.041 348.667 701.274 345 703.607C341.333 706.007 337 707.207 332 707.207C328.4 707.207 325.467 706.541 323.2 705.207C321 703.874 319.367 702.207 318.3 700.207C317.3 698.207 316.733 696.141 316.6 694.007C316.467 692.074 316.367 690.007 316.3 687.807C316.3 685.541 316.267 683.341 316.2 681.207C316.2 679.007 316.133 677.107 316 675.507C315.933 673.507 315.333 671.974 314.2 670.907C313.067 669.774 311.467 669.207 309.4 669.207C306.933 669.207 304.533 669.941 302.2 671.407C299.933 672.874 297.867 674.807 296 677.207C294.2 679.607 292.667 682.141 291.4 684.807C290.667 686.274 289.9 688.041 289.1 690.107C288.3 692.107 287.5 694.207 286.7 696.407C285.967 698.541 285.3 700.574 284.7 702.507C284.1 704.441 283.6 706.041 283.2 707.307L272.2 703.607C273.467 700.207 275.033 696.374 276.9 692.107C278.767 687.774 280.833 683.241 283.1 678.507C285.367 673.707 287.667 668.974 290 664.307C292.333 659.641 294.567 655.207 296.7 651.007C298.833 646.807 300.733 643.141 302.4 640.007C304.067 636.874 305.333 634.507 306.2 632.907C306.867 631.707 307.567 630.407 308.3 629.007C309.033 627.541 309.733 625.907 310.4 624.107L321.6 628.607Z"/>
<path d="M409.8 634.307C412.733 634.774 416.033 635.107 419.7 635.307C423.433 635.507 427.267 635.574 431.2 635.507C435.133 635.441 438.9 635.307 442.5 635.107C446.1 634.907 449.2 634.641 451.8 634.307V644.507C448.933 644.774 445.7 645.007 442.1 645.207C438.5 645.341 434.767 645.407 430.9 645.407C427.1 645.407 423.367 645.341 419.7 645.207C416.033 645.007 412.767 644.774 409.9 644.507L409.8 634.307ZM415.5 675.907C415.1 677.641 414.767 679.207 414.5 680.607C414.3 682.007 414.2 683.407 414.2 684.807C414.2 685.941 414.433 687.007 414.9 688.007C415.433 689.007 416.267 689.874 417.4 690.607C418.6 691.341 420.2 691.941 422.2 692.407C424.267 692.807 426.8 693.007 429.8 693.007C434.333 693.007 438.567 692.807 442.5 692.407C446.5 691.941 450.567 691.241 454.7 690.307L454.9 701.007C451.767 701.607 448.1 702.107 443.9 702.507C439.767 702.841 435 703.007 429.6 703.007C421.133 703.007 414.867 701.641 410.8 698.907C406.8 696.107 404.8 692.274 404.8 687.407C404.8 685.607 404.933 683.741 405.2 681.807C405.467 679.807 405.9 677.574 406.5 675.107L415.5 675.907ZM392.4 627.107C392.2 627.707 391.933 628.507 391.6 629.507C391.333 630.441 391.067 631.407 390.8 632.407C390.6 633.341 390.433 634.107 390.3 634.707C389.967 636.374 389.567 638.407 389.1 640.807C388.7 643.141 388.267 645.707 387.8 648.507C387.4 651.241 387 654.041 386.6 656.907C386.267 659.707 385.967 662.441 385.7 665.107C385.5 667.774 385.4 670.207 385.4 672.407C385.4 674.141 385.433 675.907 385.5 677.707C385.633 679.441 385.8 681.241 386 683.107C386.6 681.774 387.2 680.374 387.8 678.907C388.4 677.374 389 675.874 389.6 674.407C390.2 672.941 390.767 671.607 391.3 670.407L396.3 674.407C395.433 676.874 394.5 679.607 393.5 682.607C392.5 685.607 391.6 688.474 390.8 691.207C390.067 693.874 389.533 696.041 389.2 697.707C389.067 698.374 388.933 699.174 388.8 700.107C388.667 700.974 388.633 701.707 388.7 702.307C388.7 702.774 388.7 703.341 388.7 704.007C388.767 704.741 388.833 705.407 388.9 706.007L379.8 706.607C378.8 703.141 377.933 698.574 377.2 692.907C376.467 687.241 376.1 681.041 376.1 674.307C376.1 670.574 376.267 666.807 376.6 663.007C376.933 659.141 377.333 655.407 377.8 651.807C378.267 648.207 378.733 644.907 379.2 641.907C379.733 638.907 380.133 636.407 380.4 634.407C380.6 633.141 380.767 631.774 380.9 630.307C381.1 628.841 381.233 627.441 381.3 626.107L392.4 627.107Z"/>
<path d="M507.2 624.007C506.733 625.474 506.333 627.007 506 628.607C505.733 630.207 505.433 631.741 505.1 633.207C504.833 634.807 504.467 636.741 504 639.007C503.533 641.207 503 643.607 502.4 646.207C501.867 648.741 501.3 651.307 500.7 653.907C500.1 656.507 499.467 659.007 498.8 661.407C498.133 663.741 497.467 665.841 496.8 667.707C501.067 665.041 505.367 663.141 509.7 662.007C514.033 660.807 518.633 660.207 523.5 660.207C528.9 660.207 533.5 661.074 537.3 662.807C541.167 664.474 544.167 666.841 546.3 669.907C548.433 672.974 549.5 676.574 549.5 680.707C549.5 686.041 548.2 690.574 545.6 694.307C543.067 698.041 539.467 700.941 534.8 703.007C530.133 705.141 524.567 706.507 518.1 707.107C511.7 707.707 504.567 707.607 496.7 706.807L494 696.707C499.667 697.507 505.167 697.874 510.5 697.807C515.9 697.741 520.733 697.141 525 696.007C529.267 694.807 532.667 692.974 535.2 690.507C537.733 688.041 539 684.841 539 680.907C539 677.507 537.567 674.641 534.7 672.307C531.9 669.907 527.8 668.707 522.4 668.707C516.533 668.707 511.067 669.707 506 671.707C500.933 673.707 496.8 676.674 493.6 680.607C493.067 681.341 492.567 682.074 492.1 682.807C491.633 683.474 491.167 684.241 490.7 685.107L481.3 681.807C483.233 678.074 485 673.907 486.6 669.307C488.2 664.707 489.6 660.074 490.8 655.407C492.067 650.674 493.1 646.307 493.9 642.307C494.7 638.307 495.233 635.041 495.5 632.507C495.767 630.707 495.933 629.141 496 627.807C496.133 626.407 496.133 624.974 496 623.507L507.2 624.007ZM474.5 636.307C477.367 636.774 480.6 637.174 484.2 637.507C487.8 637.841 491.133 638.007 494.2 638.007C497.4 638.007 500.933 637.907 504.8 637.707C508.733 637.507 512.833 637.207 517.1 636.807C521.367 636.407 525.633 635.907 529.9 635.307C534.233 634.641 538.4 633.874 542.4 633.007L542.6 642.607C539.2 643.141 535.433 643.674 531.3 644.207C527.167 644.741 522.933 645.241 518.6 645.707C514.267 646.107 510 646.441 505.8 646.707C501.6 646.907 497.767 647.007 494.3 647.007C490.7 647.007 487.233 646.941 483.9 646.807C480.567 646.607 477.433 646.374 474.5 646.107V636.307Z"/>
<path d="M602.1 642.807C604.967 643.074 607.8 643.307 610.6 643.507C613.467 643.641 616.4 643.707 619.4 643.707C625.4 643.707 631.4 643.441 637.4 642.907C643.4 642.374 648.967 641.607 654.1 640.607V650.307C648.767 651.174 643.1 651.807 637.1 652.207C631.167 652.607 625.233 652.841 619.3 652.907C616.367 652.907 613.5 652.841 610.7 652.707C607.967 652.574 605.133 652.407 602.2 652.207L602.1 642.807ZM638.4 625.307C638.267 626.307 638.133 627.341 638 628.407C637.933 629.474 637.867 630.507 637.8 631.507C637.733 632.641 637.667 634.141 637.6 636.007C637.6 637.874 637.567 639.907 637.5 642.107C637.5 644.241 637.5 646.374 637.5 648.507C637.5 652.707 637.567 656.741 637.7 660.607C637.9 664.474 638.1 668.141 638.3 671.607C638.5 675.074 638.667 678.341 638.8 681.407C638.933 684.407 639 687.141 639 689.607C639 691.874 638.7 694.041 638.1 696.107C637.5 698.174 636.5 700.007 635.1 701.607C633.7 703.207 631.8 704.441 629.4 705.307C627.067 706.241 624.167 706.707 620.7 706.707C613.9 706.707 608.633 705.374 604.9 702.707C601.167 700.041 599.3 696.307 599.3 691.507C599.3 688.441 600.133 685.707 601.8 683.307C603.533 680.907 605.967 679.007 609.1 677.607C612.3 676.207 616.133 675.507 620.6 675.507C625.067 675.507 629.133 676.007 632.8 677.007C636.467 677.941 639.867 679.241 643 680.907C646.133 682.507 648.933 684.274 651.4 686.207C653.933 688.141 656.233 690.007 658.3 691.807L652.9 700.207C649.3 696.741 645.7 693.741 642.1 691.207C638.567 688.674 634.967 686.707 631.3 685.307C627.633 683.907 623.8 683.207 619.8 683.207C616.4 683.207 613.633 683.874 611.5 685.207C609.433 686.541 608.4 688.274 608.4 690.407C608.4 692.741 609.433 694.507 611.5 695.707C613.567 696.841 616.2 697.407 619.4 697.407C621.867 697.407 623.8 697.007 625.2 696.207C626.6 695.407 627.6 694.241 628.2 692.707C628.8 691.174 629.1 689.374 629.1 687.307C629.1 685.574 629.033 683.241 628.9 680.307C628.767 677.307 628.6 674.041 628.4 670.507C628.2 666.907 628.033 663.241 627.9 659.507C627.767 655.707 627.7 652.074 627.7 648.607C627.7 645.007 627.7 641.707 627.7 638.707C627.7 635.641 627.7 633.307 627.7 631.707C627.7 630.841 627.633 629.807 627.5 628.607C627.433 627.341 627.3 626.241 627.1 625.307H638.4ZM589.3 626.207C589.1 626.741 588.867 627.507 588.6 628.507C588.333 629.507 588.067 630.507 587.8 631.507C587.6 632.507 587.433 633.307 587.3 633.907C586.967 635.507 586.567 637.574 586.1 640.107C585.7 642.574 585.267 645.307 584.8 648.307C584.4 651.241 584 654.241 583.6 657.307C583.267 660.374 582.967 663.307 582.7 666.107C582.5 668.907 582.4 671.374 582.4 673.507C582.4 675.241 582.467 677.007 582.6 678.807C582.733 680.541 582.933 682.341 583.2 684.207C583.667 682.807 584.2 681.374 584.8 679.907C585.4 678.374 586 676.874 586.6 675.407C587.267 673.941 587.867 672.607 588.4 671.407L593.4 675.307C592.533 677.841 591.6 680.574 590.6 683.507C589.6 686.374 588.7 689.107 587.9 691.707C587.167 694.307 586.6 696.474 586.2 698.207C586.067 698.874 585.933 699.674 585.8 700.607C585.733 701.474 585.7 702.207 585.7 702.807C585.767 703.274 585.8 703.841 585.8 704.507C585.867 705.241 585.933 705.907 586 706.507L577.1 707.207C576.033 703.674 575.1 699.207 574.3 693.807C573.567 688.341 573.2 682.207 573.2 675.407C573.2 671.674 573.367 667.807 573.7 663.807C574.033 659.741 574.433 655.774 574.9 651.907C575.433 648.041 575.933 644.507 576.4 641.307C576.867 638.107 577.267 635.507 577.6 633.507C577.733 632.241 577.867 630.874 578 629.407C578.2 627.941 578.333 626.541 578.4 625.207L589.3 626.207Z"/>
</mask>
<path d="M189.3 631.607C192.967 632.074 197.067 632.407 201.6 632.607C206.2 632.807 211.033 632.907 216.1 632.907C219.367 632.907 222.667 632.841 226 632.707C229.333 632.574 232.533 632.407 235.6 632.207C238.733 631.941 241.533 631.707 244 631.507V641.907C241.733 642.107 239 642.307 235.8 642.507C232.667 642.707 229.4 642.874 226 643.007C222.6 643.074 219.333 643.107 216.2 643.107C211.067 643.107 206.3 643.007 201.9 642.807C197.5 642.541 193.3 642.274 189.3 642.007V631.607ZM195.3 672.807C194.7 674.674 194.233 676.507 193.9 678.307C193.567 680.107 193.4 681.874 193.4 683.607C193.4 687.141 195.2 690.041 198.8 692.307C202.467 694.574 208.1 695.707 215.7 695.707C220.3 695.707 224.7 695.541 228.9 695.207C233.167 694.874 237.133 694.407 240.8 693.807C244.467 693.207 247.633 692.507 250.3 691.707L250.4 702.707C247.8 703.374 244.7 703.974 241.1 704.507C237.567 705.041 233.667 705.441 229.4 705.707C225.2 706.041 220.767 706.207 216.1 706.207C208.967 706.207 202.933 705.407 198 703.807C193.067 702.274 189.333 700.007 186.8 697.007C184.267 694.007 183 690.341 183 686.007C183 683.274 183.233 680.741 183.7 678.407C184.167 676.007 184.6 673.841 185 671.907L195.3 672.807Z" stroke="#707478" stroke-width="4" mask="url(#path-10-outside-2_513_2022)"/>
<path d="M321.6 628.607C321.133 629.274 320.633 630.041 320.1 630.907C319.567 631.707 319 632.574 318.4 633.507C317.267 635.241 315.933 637.407 314.4 640.007C312.867 642.541 311.267 645.274 309.6 648.207C307.933 651.141 306.3 654.041 304.7 656.907C303.1 659.774 301.7 662.374 300.5 664.707C302.633 663.041 304.833 661.841 307.1 661.107C309.433 660.307 311.667 659.907 313.8 659.907C317.333 659.907 320.167 661.007 322.3 663.207C324.5 665.341 325.7 668.441 325.9 672.507C325.967 674.241 326 676.207 326 678.407C326 680.541 326 682.641 326 684.707C326.067 686.774 326.167 688.574 326.3 690.107C326.433 692.441 327.2 694.107 328.6 695.107C330.067 696.041 331.733 696.507 333.6 696.507C336.133 696.507 338.4 695.807 340.4 694.407C342.467 693.007 344.267 691.141 345.8 688.807C347.4 686.407 348.733 683.807 349.8 681.007C350.933 678.141 351.833 675.274 352.5 672.407L360.9 679.307C359.167 684.841 357 689.707 354.4 693.907C351.8 698.041 348.667 701.274 345 703.607C341.333 706.007 337 707.207 332 707.207C328.4 707.207 325.467 706.541 323.2 705.207C321 703.874 319.367 702.207 318.3 700.207C317.3 698.207 316.733 696.141 316.6 694.007C316.467 692.074 316.367 690.007 316.3 687.807C316.3 685.541 316.267 683.341 316.2 681.207C316.2 679.007 316.133 677.107 316 675.507C315.933 673.507 315.333 671.974 314.2 670.907C313.067 669.774 311.467 669.207 309.4 669.207C306.933 669.207 304.533 669.941 302.2 671.407C299.933 672.874 297.867 674.807 296 677.207C294.2 679.607 292.667 682.141 291.4 684.807C290.667 686.274 289.9 688.041 289.1 690.107C288.3 692.107 287.5 694.207 286.7 696.407C285.967 698.541 285.3 700.574 284.7 702.507C284.1 704.441 283.6 706.041 283.2 707.307L272.2 703.607C273.467 700.207 275.033 696.374 276.9 692.107C278.767 687.774 280.833 683.241 283.1 678.507C285.367 673.707 287.667 668.974 290 664.307C292.333 659.641 294.567 655.207 296.7 651.007C298.833 646.807 300.733 643.141 302.4 640.007C304.067 636.874 305.333 634.507 306.2 632.907C306.867 631.707 307.567 630.407 308.3 629.007C309.033 627.541 309.733 625.907 310.4 624.107L321.6 628.607Z" stroke="#707478" stroke-width="4" mask="url(#path-10-outside-2_513_2022)"/>
<path d="M409.8 634.307C412.733 634.774 416.033 635.107 419.7 635.307C423.433 635.507 427.267 635.574 431.2 635.507C435.133 635.441 438.9 635.307 442.5 635.107C446.1 634.907 449.2 634.641 451.8 634.307V644.507C448.933 644.774 445.7 645.007 442.1 645.207C438.5 645.341 434.767 645.407 430.9 645.407C427.1 645.407 423.367 645.341 419.7 645.207C416.033 645.007 412.767 644.774 409.9 644.507L409.8 634.307ZM415.5 675.907C415.1 677.641 414.767 679.207 414.5 680.607C414.3 682.007 414.2 683.407 414.2 684.807C414.2 685.941 414.433 687.007 414.9 688.007C415.433 689.007 416.267 689.874 417.4 690.607C418.6 691.341 420.2 691.941 422.2 692.407C424.267 692.807 426.8 693.007 429.8 693.007C434.333 693.007 438.567 692.807 442.5 692.407C446.5 691.941 450.567 691.241 454.7 690.307L454.9 701.007C451.767 701.607 448.1 702.107 443.9 702.507C439.767 702.841 435 703.007 429.6 703.007C421.133 703.007 414.867 701.641 410.8 698.907C406.8 696.107 404.8 692.274 404.8 687.407C404.8 685.607 404.933 683.741 405.2 681.807C405.467 679.807 405.9 677.574 406.5 675.107L415.5 675.907ZM392.4 627.107C392.2 627.707 391.933 628.507 391.6 629.507C391.333 630.441 391.067 631.407 390.8 632.407C390.6 633.341 390.433 634.107 390.3 634.707C389.967 636.374 389.567 638.407 389.1 640.807C388.7 643.141 388.267 645.707 387.8 648.507C387.4 651.241 387 654.041 386.6 656.907C386.267 659.707 385.967 662.441 385.7 665.107C385.5 667.774 385.4 670.207 385.4 672.407C385.4 674.141 385.433 675.907 385.5 677.707C385.633 679.441 385.8 681.241 386 683.107C386.6 681.774 387.2 680.374 387.8 678.907C388.4 677.374 389 675.874 389.6 674.407C390.2 672.941 390.767 671.607 391.3 670.407L396.3 674.407C395.433 676.874 394.5 679.607 393.5 682.607C392.5 685.607 391.6 688.474 390.8 691.207C390.067 693.874 389.533 696.041 389.2 697.707C389.067 698.374 388.933 699.174 388.8 700.107C388.667 700.974 388.633 701.707 388.7 702.307C388.7 702.774 388.7 703.341 388.7 704.007C388.767 704.741 388.833 705.407 388.9 706.007L379.8 706.607C378.8 703.141 377.933 698.574 377.2 692.907C376.467 687.241 376.1 681.041 376.1 674.307C376.1 670.574 376.267 666.807 376.6 663.007C376.933 659.141 377.333 655.407 377.8 651.807C378.267 648.207 378.733 644.907 379.2 641.907C379.733 638.907 380.133 636.407 380.4 634.407C380.6 633.141 380.767 631.774 380.9 630.307C381.1 628.841 381.233 627.441 381.3 626.107L392.4 627.107Z" stroke="#707478" stroke-width="4" mask="url(#path-10-outside-2_513_2022)"/>
<path d="M507.2 624.007C506.733 625.474 506.333 627.007 506 628.607C505.733 630.207 505.433 631.741 505.1 633.207C504.833 634.807 504.467 636.741 504 639.007C503.533 641.207 503 643.607 502.4 646.207C501.867 648.741 501.3 651.307 500.7 653.907C500.1 656.507 499.467 659.007 498.8 661.407C498.133 663.741 497.467 665.841 496.8 667.707C501.067 665.041 505.367 663.141 509.7 662.007C514.033 660.807 518.633 660.207 523.5 660.207C528.9 660.207 533.5 661.074 537.3 662.807C541.167 664.474 544.167 666.841 546.3 669.907C548.433 672.974 549.5 676.574 549.5 680.707C549.5 686.041 548.2 690.574 545.6 694.307C543.067 698.041 539.467 700.941 534.8 703.007C530.133 705.141 524.567 706.507 518.1 707.107C511.7 707.707 504.567 707.607 496.7 706.807L494 696.707C499.667 697.507 505.167 697.874 510.5 697.807C515.9 697.741 520.733 697.141 525 696.007C529.267 694.807 532.667 692.974 535.2 690.507C537.733 688.041 539 684.841 539 680.907C539 677.507 537.567 674.641 534.7 672.307C531.9 669.907 527.8 668.707 522.4 668.707C516.533 668.707 511.067 669.707 506 671.707C500.933 673.707 496.8 676.674 493.6 680.607C493.067 681.341 492.567 682.074 492.1 682.807C491.633 683.474 491.167 684.241 490.7 685.107L481.3 681.807C483.233 678.074 485 673.907 486.6 669.307C488.2 664.707 489.6 660.074 490.8 655.407C492.067 650.674 493.1 646.307 493.9 642.307C494.7 638.307 495.233 635.041 495.5 632.507C495.767 630.707 495.933 629.141 496 627.807C496.133 626.407 496.133 624.974 496 623.507L507.2 624.007ZM474.5 636.307C477.367 636.774 480.6 637.174 484.2 637.507C487.8 637.841 491.133 638.007 494.2 638.007C497.4 638.007 500.933 637.907 504.8 637.707C508.733 637.507 512.833 637.207 517.1 636.807C521.367 636.407 525.633 635.907 529.9 635.307C534.233 634.641 538.4 633.874 542.4 633.007L542.6 642.607C539.2 643.141 535.433 643.674 531.3 644.207C527.167 644.741 522.933 645.241 518.6 645.707C514.267 646.107 510 646.441 505.8 646.707C501.6 646.907 497.767 647.007 494.3 647.007C490.7 647.007 487.233 646.941 483.9 646.807C480.567 646.607 477.433 646.374 474.5 646.107V636.307Z" stroke="#707478" stroke-width="4" mask="url(#path-10-outside-2_513_2022)"/>
<path d="M602.1 642.807C604.967 643.074 607.8 643.307 610.6 643.507C613.467 643.641 616.4 643.707 619.4 643.707C625.4 643.707 631.4 643.441 637.4 642.907C643.4 642.374 648.967 641.607 654.1 640.607V650.307C648.767 651.174 643.1 651.807 637.1 652.207C631.167 652.607 625.233 652.841 619.3 652.907C616.367 652.907 613.5 652.841 610.7 652.707C607.967 652.574 605.133 652.407 602.2 652.207L602.1 642.807ZM638.4 625.307C638.267 626.307 638.133 627.341 638 628.407C637.933 629.474 637.867 630.507 637.8 631.507C637.733 632.641 637.667 634.141 637.6 636.007C637.6 637.874 637.567 639.907 637.5 642.107C637.5 644.241 637.5 646.374 637.5 648.507C637.5 652.707 637.567 656.741 637.7 660.607C637.9 664.474 638.1 668.141 638.3 671.607C638.5 675.074 638.667 678.341 638.8 681.407C638.933 684.407 639 687.141 639 689.607C639 691.874 638.7 694.041 638.1 696.107C637.5 698.174 636.5 700.007 635.1 701.607C633.7 703.207 631.8 704.441 629.4 705.307C627.067 706.241 624.167 706.707 620.7 706.707C613.9 706.707 608.633 705.374 604.9 702.707C601.167 700.041 599.3 696.307 599.3 691.507C599.3 688.441 600.133 685.707 601.8 683.307C603.533 680.907 605.967 679.007 609.1 677.607C612.3 676.207 616.133 675.507 620.6 675.507C625.067 675.507 629.133 676.007 632.8 677.007C636.467 677.941 639.867 679.241 643 680.907C646.133 682.507 648.933 684.274 651.4 686.207C653.933 688.141 656.233 690.007 658.3 691.807L652.9 700.207C649.3 696.741 645.7 693.741 642.1 691.207C638.567 688.674 634.967 686.707 631.3 685.307C627.633 683.907 623.8 683.207 619.8 683.207C616.4 683.207 613.633 683.874 611.5 685.207C609.433 686.541 608.4 688.274 608.4 690.407C608.4 692.741 609.433 694.507 611.5 695.707C613.567 696.841 616.2 697.407 619.4 697.407C621.867 697.407 623.8 697.007 625.2 696.207C626.6 695.407 627.6 694.241 628.2 692.707C628.8 691.174 629.1 689.374 629.1 687.307C629.1 685.574 629.033 683.241 628.9 680.307C628.767 677.307 628.6 674.041 628.4 670.507C628.2 666.907 628.033 663.241 627.9 659.507C627.767 655.707 627.7 652.074 627.7 648.607C627.7 645.007 627.7 641.707 627.7 638.707C627.7 635.641 627.7 633.307 627.7 631.707C627.7 630.841 627.633 629.807 627.5 628.607C627.433 627.341 627.3 626.241 627.1 625.307H638.4ZM589.3 626.207C589.1 626.741 588.867 627.507 588.6 628.507C588.333 629.507 588.067 630.507 587.8 631.507C587.6 632.507 587.433 633.307 587.3 633.907C586.967 635.507 586.567 637.574 586.1 640.107C585.7 642.574 585.267 645.307 584.8 648.307C584.4 651.241 584 654.241 583.6 657.307C583.267 660.374 582.967 663.307 582.7 666.107C582.5 668.907 582.4 671.374 582.4 673.507C582.4 675.241 582.467 677.007 582.6 678.807C582.733 680.541 582.933 682.341 583.2 684.207C583.667 682.807 584.2 681.374 584.8 679.907C585.4 678.374 586 676.874 586.6 675.407C587.267 673.941 587.867 672.607 588.4 671.407L593.4 675.307C592.533 677.841 591.6 680.574 590.6 683.507C589.6 686.374 588.7 689.107 587.9 691.707C587.167 694.307 586.6 696.474 586.2 698.207C586.067 698.874 585.933 699.674 585.8 700.607C585.733 701.474 585.7 702.207 585.7 702.807C585.767 703.274 585.8 703.841 585.8 704.507C585.867 705.241 585.933 705.907 586 706.507L577.1 707.207C576.033 703.674 575.1 699.207 574.3 693.807C573.567 688.341 573.2 682.207 573.2 675.407C573.2 671.674 573.367 667.807 573.7 663.807C574.033 659.741 574.433 655.774 574.9 651.907C575.433 648.041 575.933 644.507 576.4 641.307C576.867 638.107 577.267 635.507 577.6 633.507C577.733 632.241 577.867 630.874 578 629.407C578.2 627.941 578.333 626.541 578.4 625.207L589.3 626.207Z" stroke="#707478" stroke-width="4" mask="url(#path-10-outside-2_513_2022)"/>
<path d="M861.366 600H1391.57C1399.3 600 1405.57 606.268 1405.57 614V671.634C1405.57 704.421 1378.99 731 1346.2 731H861.366C828.579 731 802 704.421 802 671.634V659.366C802 626.579 828.579 600 861.366 600Z" stroke="#707478" stroke-width="2"/>
<mask id="path-12-outside-3_513_2022" maskUnits="userSpaceOnUse" x="879" y="617.75" width="450" height="96" fill="black">
<rect fill="white" x="879" y="617.75" width="450" height="96"/>
<path d="M940.7 619.75H951.1V686.75H940.7V619.75ZM948 646.85H964V655.55H948V646.85ZM893.3 700.85H954.9V709.35H893.3V700.85ZM893.3 679.85H903.8V704.55H893.3V679.85ZM905.2 625.95C909.8 625.95 913.933 626.95 917.6 628.95C921.267 630.883 924.167 633.583 926.3 637.05C928.433 640.45 929.5 644.383 929.5 648.85C929.5 653.25 928.433 657.183 926.3 660.65C924.167 664.05 921.267 666.75 917.6 668.75C913.933 670.683 909.8 671.65 905.2 671.65C900.667 671.65 896.567 670.683 892.9 668.75C889.233 666.75 886.333 664.05 884.2 660.65C882.067 657.183 881 653.25 881 648.85C881 644.383 882.067 640.45 884.2 637.05C886.333 633.583 889.233 630.883 892.9 628.95C896.567 626.95 900.667 625.95 905.2 625.95ZM905.2 635.05C902.6 635.05 900.233 635.617 898.1 636.75C895.967 637.883 894.267 639.483 893 641.55C891.8 643.617 891.2 646.05 891.2 648.85C891.2 651.583 891.8 653.983 893 656.05C894.267 658.05 895.967 659.617 898.1 660.75C900.233 661.883 902.6 662.45 905.2 662.45C907.867 662.45 910.267 661.883 912.4 660.75C914.6 659.617 916.3 658.05 917.5 656.05C918.7 653.983 919.3 651.583 919.3 648.85C919.3 646.05 918.7 643.617 917.5 641.55C916.3 639.483 914.6 637.883 912.4 636.75C910.267 635.617 907.867 635.05 905.2 635.05Z"/>
<path d="M976.192 624.95H986.592V663.85H976.192V624.95ZM976.192 661.55H983.292C988.626 661.55 993.492 661.483 997.892 661.35C1002.29 661.217 1006.49 660.95 1010.49 660.55C1014.49 660.083 1018.59 659.45 1022.79 658.65L1023.99 666.95C1019.73 667.817 1015.49 668.517 1011.29 669.05C1007.16 669.517 1002.83 669.817 998.292 669.95C993.759 670.083 988.759 670.15 983.292 670.15H976.192V661.55ZM1035.99 619.75H1046.49V675.25H1035.99V619.75ZM1012.09 629.35H1038.69V637.45H1012.09V629.35ZM1012.09 645.35H1038.69V653.45H1012.09V645.35ZM1016.09 676.25C1025.63 676.25 1033.13 677.783 1038.59 680.85C1044.13 683.917 1046.89 688.217 1046.89 693.75C1046.89 699.283 1044.13 703.55 1038.59 706.55C1033.13 709.617 1025.63 711.15 1016.09 711.15C1006.56 711.15 999.026 709.617 993.492 706.55C987.959 703.55 985.192 699.283 985.192 693.75C985.192 688.217 987.959 683.917 993.492 680.85C999.026 677.783 1006.56 676.25 1016.09 676.25ZM1016.09 684.45C1011.76 684.45 1008.06 684.817 1004.99 685.55C1001.99 686.217 999.692 687.25 998.092 688.65C996.492 690.05 995.692 691.75 995.692 693.75C995.692 695.683 996.492 697.35 998.092 698.75C999.692 700.15 1001.99 701.217 1004.99 701.95C1008.06 702.617 1011.76 702.95 1016.09 702.95C1020.43 702.95 1024.09 702.617 1027.09 701.95C1030.09 701.217 1032.39 700.15 1033.99 698.75C1035.66 697.35 1036.49 695.683 1036.49 693.75C1036.49 691.75 1035.66 690.05 1033.99 688.65C1032.39 687.25 1030.09 686.217 1027.09 685.55C1024.09 684.817 1020.43 684.45 1016.09 684.45Z"/>
<path d="M1122.18 619.85H1132.68V711.25H1122.18V619.85ZM1130.28 656.55H1146.78V665.25H1130.28V656.55ZM1061.28 633.95H1114.88V642.35H1061.28V633.95ZM1088.48 648.85C1092.82 648.85 1096.68 649.783 1100.08 651.65C1103.48 653.45 1106.15 655.95 1108.08 659.15C1110.08 662.35 1111.08 666.017 1111.08 670.15C1111.08 674.35 1110.08 678.05 1108.08 681.25C1106.15 684.45 1103.48 686.983 1100.08 688.85C1096.68 690.65 1092.78 691.55 1088.38 691.55C1084.05 691.55 1080.18 690.65 1076.78 688.85C1073.38 686.983 1070.68 684.45 1068.68 681.25C1066.75 678.05 1065.78 674.35 1065.78 670.15C1065.78 666.017 1066.75 662.35 1068.68 659.15C1070.68 655.95 1073.38 653.45 1076.78 651.65C1080.18 649.783 1084.08 648.85 1088.48 648.85ZM1088.38 657.45C1085.98 657.45 1083.82 657.983 1081.88 659.05C1079.95 660.117 1078.42 661.617 1077.28 663.55C1076.22 665.417 1075.68 667.617 1075.68 670.15C1075.68 672.75 1076.22 675.017 1077.28 676.95C1078.42 678.817 1079.95 680.283 1081.88 681.35C1083.82 682.417 1085.98 682.95 1088.38 682.95C1090.85 682.95 1093.02 682.417 1094.88 681.35C1096.82 680.283 1098.32 678.817 1099.38 676.95C1100.52 675.017 1101.08 672.75 1101.08 670.15C1101.08 667.617 1100.52 665.417 1099.38 663.55C1098.32 661.617 1096.82 660.117 1094.88 659.05C1093.02 657.983 1090.85 657.45 1088.38 657.45ZM1083.08 621.05H1093.58V637.45H1083.08V621.05Z"/>
<path d="M1188.78 651.65H1205.28V660.25H1188.78V651.65ZM1170.68 628.15H1178.78V644.65C1178.78 649.583 1178.31 654.45 1177.38 659.25C1176.51 663.983 1175.21 668.45 1173.48 672.65C1171.74 676.85 1169.58 680.65 1166.98 684.05C1164.38 687.383 1161.34 690.083 1157.88 692.15L1151.38 684.25C1154.64 682.317 1157.48 679.917 1159.88 677.05C1162.28 674.183 1164.28 670.983 1165.88 667.45C1167.54 663.917 1168.74 660.217 1169.48 656.35C1170.28 652.417 1170.68 648.517 1170.68 644.65V628.15ZM1172.78 628.15H1180.78V644.15C1180.78 647.817 1181.11 651.517 1181.78 655.25C1182.51 658.917 1183.61 662.417 1185.08 665.75C1186.54 669.083 1188.38 672.15 1190.58 674.95C1192.78 677.75 1195.41 680.117 1198.48 682.05L1192.68 690.15C1189.21 688.083 1186.21 685.417 1183.68 682.15C1181.21 678.817 1179.18 675.117 1177.58 671.05C1175.98 666.917 1174.78 662.583 1173.98 658.05C1173.18 653.45 1172.78 648.817 1172.78 644.15V628.15ZM1220.78 619.75H1230.78V711.15H1220.78V619.75ZM1202.18 621.55H1211.98V706.85H1202.18V621.55Z"/>
<path d="M1263.17 666.55H1273.57V693.15H1263.17V666.55ZM1296.57 666.55H1307.07V693.15H1296.57V666.55ZM1243.77 691.35H1326.57V699.95H1243.77V691.35ZM1285.07 625.05C1291.54 625.05 1297.3 626.05 1302.37 628.05C1307.44 629.983 1311.4 632.75 1314.27 636.35C1317.2 639.883 1318.67 644.083 1318.67 648.95C1318.67 653.817 1317.2 658.05 1314.27 661.65C1311.4 665.183 1307.44 667.95 1302.37 669.95C1297.3 671.883 1291.54 672.85 1285.07 672.85C1278.6 672.85 1272.8 671.883 1267.67 669.95C1262.6 667.95 1258.6 665.183 1255.67 661.65C1252.8 658.05 1251.37 653.817 1251.37 648.95C1251.37 644.083 1252.8 639.883 1255.67 636.35C1258.6 632.75 1262.6 629.983 1267.67 628.05C1272.8 626.05 1278.6 625.05 1285.07 625.05ZM1285.07 633.25C1280.47 633.25 1276.4 633.883 1272.87 635.15C1269.34 636.417 1266.57 638.25 1264.57 640.65C1262.64 642.983 1261.67 645.75 1261.67 648.95C1261.67 652.15 1262.64 654.95 1264.57 657.35C1266.57 659.683 1269.34 661.517 1272.87 662.85C1276.4 664.117 1280.47 664.75 1285.07 664.75C1289.67 664.75 1293.7 664.117 1297.17 662.85C1300.7 661.517 1303.47 659.683 1305.47 657.35C1307.47 654.95 1308.47 652.15 1308.47 648.95C1308.47 645.75 1307.47 642.983 1305.47 640.65C1303.47 638.25 1300.7 636.417 1297.17 635.15C1293.7 633.883 1289.67 633.25 1285.07 633.25Z"/>
</mask>
<path d="M940.7 619.75H951.1V686.75H940.7V619.75ZM948 646.85H964V655.55H948V646.85ZM893.3 700.85H954.9V709.35H893.3V700.85ZM893.3 679.85H903.8V704.55H893.3V679.85ZM905.2 625.95C909.8 625.95 913.933 626.95 917.6 628.95C921.267 630.883 924.167 633.583 926.3 637.05C928.433 640.45 929.5 644.383 929.5 648.85C929.5 653.25 928.433 657.183 926.3 660.65C924.167 664.05 921.267 666.75 917.6 668.75C913.933 670.683 909.8 671.65 905.2 671.65C900.667 671.65 896.567 670.683 892.9 668.75C889.233 666.75 886.333 664.05 884.2 660.65C882.067 657.183 881 653.25 881 648.85C881 644.383 882.067 640.45 884.2 637.05C886.333 633.583 889.233 630.883 892.9 628.95C896.567 626.95 900.667 625.95 905.2 625.95ZM905.2 635.05C902.6 635.05 900.233 635.617 898.1 636.75C895.967 637.883 894.267 639.483 893 641.55C891.8 643.617 891.2 646.05 891.2 648.85C891.2 651.583 891.8 653.983 893 656.05C894.267 658.05 895.967 659.617 898.1 660.75C900.233 661.883 902.6 662.45 905.2 662.45C907.867 662.45 910.267 661.883 912.4 660.75C914.6 659.617 916.3 658.05 917.5 656.05C918.7 653.983 919.3 651.583 919.3 648.85C919.3 646.05 918.7 643.617 917.5 641.55C916.3 639.483 914.6 637.883 912.4 636.75C910.267 635.617 907.867 635.05 905.2 635.05Z" stroke="#707478" stroke-width="4" mask="url(#path-12-outside-3_513_2022)"/>
<path d="M976.192 624.95H986.592V663.85H976.192V624.95ZM976.192 661.55H983.292C988.626 661.55 993.492 661.483 997.892 661.35C1002.29 661.217 1006.49 660.95 1010.49 660.55C1014.49 660.083 1018.59 659.45 1022.79 658.65L1023.99 666.95C1019.73 667.817 1015.49 668.517 1011.29 669.05C1007.16 669.517 1002.83 669.817 998.292 669.95C993.759 670.083 988.759 670.15 983.292 670.15H976.192V661.55ZM1035.99 619.75H1046.49V675.25H1035.99V619.75ZM1012.09 629.35H1038.69V637.45H1012.09V629.35ZM1012.09 645.35H1038.69V653.45H1012.09V645.35ZM1016.09 676.25C1025.63 676.25 1033.13 677.783 1038.59 680.85C1044.13 683.917 1046.89 688.217 1046.89 693.75C1046.89 699.283 1044.13 703.55 1038.59 706.55C1033.13 709.617 1025.63 711.15 1016.09 711.15C1006.56 711.15 999.026 709.617 993.492 706.55C987.959 703.55 985.192 699.283 985.192 693.75C985.192 688.217 987.959 683.917 993.492 680.85C999.026 677.783 1006.56 676.25 1016.09 676.25ZM1016.09 684.45C1011.76 684.45 1008.06 684.817 1004.99 685.55C1001.99 686.217 999.692 687.25 998.092 688.65C996.492 690.05 995.692 691.75 995.692 693.75C995.692 695.683 996.492 697.35 998.092 698.75C999.692 700.15 1001.99 701.217 1004.99 701.95C1008.06 702.617 1011.76 702.95 1016.09 702.95C1020.43 702.95 1024.09 702.617 1027.09 701.95C1030.09 701.217 1032.39 700.15 1033.99 698.75C1035.66 697.35 1036.49 695.683 1036.49 693.75C1036.49 691.75 1035.66 690.05 1033.99 688.65C1032.39 687.25 1030.09 686.217 1027.09 685.55C1024.09 684.817 1020.43 684.45 1016.09 684.45Z" stroke="#707478" stroke-width="4" mask="url(#path-12-outside-3_513_2022)"/>
<path d="M1122.18 619.85H1132.68V711.25H1122.18V619.85ZM1130.28 656.55H1146.78V665.25H1130.28V656.55ZM1061.28 633.95H1114.88V642.35H1061.28V633.95ZM1088.48 648.85C1092.82 648.85 1096.68 649.783 1100.08 651.65C1103.48 653.45 1106.15 655.95 1108.08 659.15C1110.08 662.35 1111.08 666.017 1111.08 670.15C1111.08 674.35 1110.08 678.05 1108.08 681.25C1106.15 684.45 1103.48 686.983 1100.08 688.85C1096.68 690.65 1092.78 691.55 1088.38 691.55C1084.05 691.55 1080.18 690.65 1076.78 688.85C1073.38 686.983 1070.68 684.45 1068.68 681.25C1066.75 678.05 1065.78 674.35 1065.78 670.15C1065.78 666.017 1066.75 662.35 1068.68 659.15C1070.68 655.95 1073.38 653.45 1076.78 651.65C1080.18 649.783 1084.08 648.85 1088.48 648.85ZM1088.38 657.45C1085.98 657.45 1083.82 657.983 1081.88 659.05C1079.95 660.117 1078.42 661.617 1077.28 663.55C1076.22 665.417 1075.68 667.617 1075.68 670.15C1075.68 672.75 1076.22 675.017 1077.28 676.95C1078.42 678.817 1079.95 680.283 1081.88 681.35C1083.82 682.417 1085.98 682.95 1088.38 682.95C1090.85 682.95 1093.02 682.417 1094.88 681.35C1096.82 680.283 1098.32 678.817 1099.38 676.95C1100.52 675.017 1101.08 672.75 1101.08 670.15C1101.08 667.617 1100.52 665.417 1099.38 663.55C1098.32 661.617 1096.82 660.117 1094.88 659.05C1093.02 657.983 1090.85 657.45 1088.38 657.45ZM1083.08 621.05H1093.58V637.45H1083.08V621.05Z" stroke="#707478" stroke-width="4" mask="url(#path-12-outside-3_513_2022)"/>
<path d="M1188.78 651.65H1205.28V660.25H1188.78V651.65ZM1170.68 628.15H1178.78V644.65C1178.78 649.583 1178.31 654.45 1177.38 659.25C1176.51 663.983 1175.21 668.45 1173.48 672.65C1171.74 676.85 1169.58 680.65 1166.98 684.05C1164.38 687.383 1161.34 690.083 1157.88 692.15L1151.38 684.25C1154.64 682.317 1157.48 679.917 1159.88 677.05C1162.28 674.183 1164.28 670.983 1165.88 667.45C1167.54 663.917 1168.74 660.217 1169.48 656.35C1170.28 652.417 1170.68 648.517 1170.68 644.65V628.15ZM1172.78 628.15H1180.78V644.15C1180.78 647.817 1181.11 651.517 1181.78 655.25C1182.51 658.917 1183.61 662.417 1185.08 665.75C1186.54 669.083 1188.38 672.15 1190.58 674.95C1192.78 677.75 1195.41 680.117 1198.48 682.05L1192.68 690.15C1189.21 688.083 1186.21 685.417 1183.68 682.15C1181.21 678.817 1179.18 675.117 1177.58 671.05C1175.98 666.917 1174.78 662.583 1173.98 658.05C1173.18 653.45 1172.78 648.817 1172.78 644.15V628.15ZM1220.78 619.75H1230.78V711.15H1220.78V619.75ZM1202.18 621.55H1211.98V706.85H1202.18V621.55Z" stroke="#707478" stroke-width="4" mask="url(#path-12-outside-3_513_2022)"/>
<path d="M1263.17 666.55H1273.57V693.15H1263.17V666.55ZM1296.57 666.55H1307.07V693.15H1296.57V666.55ZM1243.77 691.35H1326.57V699.95H1243.77V691.35ZM1285.07 625.05C1291.54 625.05 1297.3 626.05 1302.37 628.05C1307.44 629.983 1311.4 632.75 1314.27 636.35C1317.2 639.883 1318.67 644.083 1318.67 648.95C1318.67 653.817 1317.2 658.05 1314.27 661.65C1311.4 665.183 1307.44 667.95 1302.37 669.95C1297.3 671.883 1291.54 672.85 1285.07 672.85C1278.6 672.85 1272.8 671.883 1267.67 669.95C1262.6 667.95 1258.6 665.183 1255.67 661.65C1252.8 658.05 1251.37 653.817 1251.37 648.95C1251.37 644.083 1252.8 639.883 1255.67 636.35C1258.6 632.75 1262.6 629.983 1267.67 628.05C1272.8 626.05 1278.6 625.05 1285.07 625.05ZM1285.07 633.25C1280.47 633.25 1276.4 633.883 1272.87 635.15C1269.34 636.417 1266.57 638.25 1264.57 640.65C1262.64 642.983 1261.67 645.75 1261.67 648.95C1261.67 652.15 1262.64 654.95 1264.57 657.35C1266.57 659.683 1269.34 661.517 1272.87 662.85C1276.4 664.117 1280.47 664.75 1285.07 664.75C1289.67 664.75 1293.7 664.117 1297.17 662.85C1300.7 661.517 1303.47 659.683 1305.47 657.35C1307.47 654.95 1308.47 652.15 1308.47 648.95C1308.47 645.75 1307.47 642.983 1305.47 640.65C1303.47 638.25 1300.7 636.417 1297.17 635.15C1293.7 633.883 1289.67 633.25 1285.07 633.25Z" stroke="#707478" stroke-width="4" mask="url(#path-12-outside-3_513_2022)"/>
<path d="M1519.37 600H1798.4C1806.13 600 1812.4 606.268 1812.4 614V671.634C1812.4 704.421 1785.82 731 1753.03 731H1519.37C1486.58 731 1460 704.421 1460 671.634V659.366C1460 626.835 1486.17 600.415 1518.6 600.005L1519.37 600Z" stroke="#707478" stroke-width="2"/>
<mask id="path-14-outside-4_513_2022" maskUnits="userSpaceOnUse" x="1536" y="615.95" width="200" height="99" fill="black">
<rect fill="white" x="1536" y="615.95" width="200" height="99"/>
<path d="M1583.6 619.35L1593 621.45C1591.6 626.717 1589.93 631.884 1588 636.95C1586.13 642.017 1584.07 646.784 1581.8 651.25C1579.53 655.65 1577.1 659.55 1574.5 662.95C1573.97 662.417 1573.23 661.75 1572.3 660.95C1571.37 660.15 1570.4 659.384 1569.4 658.65C1568.47 657.85 1567.6 657.217 1566.8 656.75C1569.4 653.75 1571.73 650.25 1573.8 646.25C1575.93 642.25 1577.83 637.95 1579.5 633.35C1581.17 628.75 1582.53 624.084 1583.6 619.35ZM1581.5 662.65L1590.7 664.45C1589.7 668.784 1588.43 673.05 1586.9 677.25C1585.43 681.384 1583.8 685.284 1582 688.95C1580.27 692.55 1578.4 695.717 1576.4 698.45C1575.87 697.917 1575.1 697.35 1574.1 696.75C1573.1 696.084 1572.07 695.45 1571 694.85C1570 694.184 1569.13 693.684 1568.4 693.35C1571.33 689.617 1573.9 685.017 1576.1 679.55C1578.37 674.017 1580.17 668.384 1581.5 662.65ZM1584.1 637.65H1627.4V646.45H1580.5L1584.1 637.65ZM1597.8 641.35H1607.2V700.75C1607.2 703.217 1606.9 705.15 1606.3 706.55C1605.77 708.017 1604.73 709.15 1603.2 709.95C1601.67 710.684 1599.73 711.184 1597.4 711.45C1595.13 711.717 1592.4 711.85 1589.2 711.85C1589 710.45 1588.57 708.817 1587.9 706.95C1587.3 705.15 1586.63 703.617 1585.9 702.35C1588.17 702.417 1590.27 702.45 1592.2 702.45C1594.13 702.45 1595.43 702.417 1596.1 702.35C1596.77 702.35 1597.2 702.25 1597.4 702.05C1597.67 701.85 1597.8 701.417 1597.8 700.75V641.35ZM1612.9 664.55L1621.3 661.75C1623.17 665.217 1624.9 668.95 1626.5 672.95C1628.1 676.884 1629.47 680.784 1630.6 684.65C1631.8 688.45 1632.67 691.884 1633.2 694.95L1624.1 698.15C1623.7 695.084 1622.93 691.617 1621.8 687.75C1620.67 683.884 1619.33 679.95 1617.8 675.95C1616.27 671.884 1614.63 668.084 1612.9 664.55ZM1624.7 637.65H1626L1627.5 637.35L1634.1 638.65C1633.5 642.45 1632.8 646.417 1632 650.55C1631.2 654.684 1630.43 658.15 1629.7 660.95L1621.6 659.45C1621.93 657.717 1622.3 655.684 1622.7 653.35C1623.1 651.017 1623.47 648.584 1623.8 646.05C1624.13 643.517 1624.43 641.15 1624.7 638.95V637.65ZM1562.9 619.35L1571.9 622.05C1569.7 627.717 1567.13 633.35 1564.2 638.95C1561.27 644.55 1558.1 649.817 1554.7 654.75C1551.3 659.684 1547.8 664.05 1544.2 667.85C1543.87 667.05 1543.4 666.05 1542.8 664.85C1542.2 663.65 1541.53 662.417 1540.8 661.15C1540.13 659.884 1539.53 658.917 1539 658.25C1542.2 655.05 1545.27 651.384 1548.2 647.25C1551.2 643.117 1553.97 638.65 1556.5 633.85C1559.03 629.05 1561.17 624.217 1562.9 619.35ZM1552.9 645.85L1561.8 636.95L1561.9 637.05V711.65H1552.9V645.85Z"/>
<path d="M1681.6 624.05H1724.2V632.75H1681.6V624.05ZM1678.2 658.95H1733.4V667.95H1678.2V658.95ZM1700.8 646.45H1710.3V700.65C1710.3 703.184 1709.93 705.15 1709.2 706.55C1708.53 708.017 1707.37 709.15 1705.7 709.95C1703.9 710.684 1701.63 711.15 1698.9 711.35C1696.17 711.55 1692.87 711.65 1689 711.65C1688.8 710.317 1688.33 708.75 1687.6 706.95C1686.93 705.15 1686.27 703.617 1685.6 702.35C1688.53 702.417 1691.2 702.484 1693.6 702.55C1696.07 702.55 1697.73 702.517 1698.6 702.45C1699.47 702.45 1700.03 702.317 1700.3 702.05C1700.63 701.784 1700.8 701.284 1700.8 700.55V646.45ZM1720.7 624.05H1723L1725 623.55L1731.2 628.15C1729.2 631.017 1726.93 633.984 1724.4 637.05C1721.87 640.117 1719.2 643.05 1716.4 645.85C1713.67 648.584 1711 650.984 1708.4 653.05C1707.73 652.184 1706.83 651.217 1705.7 650.15C1704.57 649.017 1703.6 648.15 1702.8 647.55C1705.07 645.684 1707.33 643.484 1709.6 640.95C1711.93 638.417 1714.07 635.85 1716 633.25C1717.93 630.584 1719.5 628.184 1720.7 626.05V624.05ZM1640.8 639.25H1673.5V648.05H1640.8V639.25ZM1655.2 618.95L1664.1 619.95C1663.1 625.017 1662 630.45 1660.8 636.25C1659.67 641.984 1658.43 647.75 1657.1 653.55C1655.83 659.35 1654.53 664.917 1653.2 670.25C1651.93 675.584 1650.73 680.384 1649.6 684.65L1641.8 680.55C1642.87 676.684 1644 672.217 1645.2 667.15C1646.47 662.084 1647.7 656.75 1648.9 651.15C1650.1 645.55 1651.23 639.984 1652.3 634.45C1653.37 628.917 1654.33 623.75 1655.2 618.95ZM1646.1 677.95L1651.4 671.35C1655 673.484 1658.73 675.917 1662.6 678.65C1666.47 681.317 1670.07 684.05 1673.4 686.85C1676.8 689.65 1679.47 692.317 1681.4 694.85L1675.7 702.45C1673.77 699.917 1671.17 697.184 1667.9 694.25C1664.63 691.317 1661.1 688.417 1657.3 685.55C1653.5 682.684 1649.77 680.15 1646.1 677.95ZM1670.2 639.25H1671.8L1673.4 638.95L1679.1 640.05C1678.3 652.984 1676.57 664.117 1673.9 673.45C1671.3 682.717 1667.77 690.517 1663.3 696.85C1658.9 703.117 1653.5 708.184 1647.1 712.05C1646.5 710.85 1645.63 709.517 1644.5 708.05C1643.43 706.584 1642.4 705.384 1641.4 704.45C1647 701.517 1651.8 697.184 1655.8 691.45C1659.87 685.65 1663.1 678.55 1665.5 670.15C1667.9 661.75 1669.47 652.05 1670.2 641.05V639.25Z"/>
</mask>
<path d="M1583.6 619.35L1593 621.45C1591.6 626.717 1589.93 631.884 1588 636.95C1586.13 642.017 1584.07 646.784 1581.8 651.25C1579.53 655.65 1577.1 659.55 1574.5 662.95C1573.97 662.417 1573.23 661.75 1572.3 660.95C1571.37 660.15 1570.4 659.384 1569.4 658.65C1568.47 657.85 1567.6 657.217 1566.8 656.75C1569.4 653.75 1571.73 650.25 1573.8 646.25C1575.93 642.25 1577.83 637.95 1579.5 633.35C1581.17 628.75 1582.53 624.084 1583.6 619.35ZM1581.5 662.65L1590.7 664.45C1589.7 668.784 1588.43 673.05 1586.9 677.25C1585.43 681.384 1583.8 685.284 1582 688.95C1580.27 692.55 1578.4 695.717 1576.4 698.45C1575.87 697.917 1575.1 697.35 1574.1 696.75C1573.1 696.084 1572.07 695.45 1571 694.85C1570 694.184 1569.13 693.684 1568.4 693.35C1571.33 689.617 1573.9 685.017 1576.1 679.55C1578.37 674.017 1580.17 668.384 1581.5 662.65ZM1584.1 637.65H1627.4V646.45H1580.5L1584.1 637.65ZM1597.8 641.35H1607.2V700.75C1607.2 703.217 1606.9 705.15 1606.3 706.55C1605.77 708.017 1604.73 709.15 1603.2 709.95C1601.67 710.684 1599.73 711.184 1597.4 711.45C1595.13 711.717 1592.4 711.85 1589.2 711.85C1589 710.45 1588.57 708.817 1587.9 706.95C1587.3 705.15 1586.63 703.617 1585.9 702.35C1588.17 702.417 1590.27 702.45 1592.2 702.45C1594.13 702.45 1595.43 702.417 1596.1 702.35C1596.77 702.35 1597.2 702.25 1597.4 702.05C1597.67 701.85 1597.8 701.417 1597.8 700.75V641.35ZM1612.9 664.55L1621.3 661.75C1623.17 665.217 1624.9 668.95 1626.5 672.95C1628.1 676.884 1629.47 680.784 1630.6 684.65C1631.8 688.45 1632.67 691.884 1633.2 694.95L1624.1 698.15C1623.7 695.084 1622.93 691.617 1621.8 687.75C1620.67 683.884 1619.33 679.95 1617.8 675.95C1616.27 671.884 1614.63 668.084 1612.9 664.55ZM1624.7 637.65H1626L1627.5 637.35L1634.1 638.65C1633.5 642.45 1632.8 646.417 1632 650.55C1631.2 654.684 1630.43 658.15 1629.7 660.95L1621.6 659.45C1621.93 657.717 1622.3 655.684 1622.7 653.35C1623.1 651.017 1623.47 648.584 1623.8 646.05C1624.13 643.517 1624.43 641.15 1624.7 638.95V637.65ZM1562.9 619.35L1571.9 622.05C1569.7 627.717 1567.13 633.35 1564.2 638.95C1561.27 644.55 1558.1 649.817 1554.7 654.75C1551.3 659.684 1547.8 664.05 1544.2 667.85C1543.87 667.05 1543.4 666.05 1542.8 664.85C1542.2 663.65 1541.53 662.417 1540.8 661.15C1540.13 659.884 1539.53 658.917 1539 658.25C1542.2 655.05 1545.27 651.384 1548.2 647.25C1551.2 643.117 1553.97 638.65 1556.5 633.85C1559.03 629.05 1561.17 624.217 1562.9 619.35ZM1552.9 645.85L1561.8 636.95L1561.9 637.05V711.65H1552.9V645.85Z" stroke="#707478" stroke-width="4" mask="url(#path-14-outside-4_513_2022)"/>
<path d="M1681.6 624.05H1724.2V632.75H1681.6V624.05ZM1678.2 658.95H1733.4V667.95H1678.2V658.95ZM1700.8 646.45H1710.3V700.65C1710.3 703.184 1709.93 705.15 1709.2 706.55C1708.53 708.017 1707.37 709.15 1705.7 709.95C1703.9 710.684 1701.63 711.15 1698.9 711.35C1696.17 711.55 1692.87 711.65 1689 711.65C1688.8 710.317 1688.33 708.75 1687.6 706.95C1686.93 705.15 1686.27 703.617 1685.6 702.35C1688.53 702.417 1691.2 702.484 1693.6 702.55C1696.07 702.55 1697.73 702.517 1698.6 702.45C1699.47 702.45 1700.03 702.317 1700.3 702.05C1700.63 701.784 1700.8 701.284 1700.8 700.55V646.45ZM1720.7 624.05H1723L1725 623.55L1731.2 628.15C1729.2 631.017 1726.93 633.984 1724.4 637.05C1721.87 640.117 1719.2 643.05 1716.4 645.85C1713.67 648.584 1711 650.984 1708.4 653.05C1707.73 652.184 1706.83 651.217 1705.7 650.15C1704.57 649.017 1703.6 648.15 1702.8 647.55C1705.07 645.684 1707.33 643.484 1709.6 640.95C1711.93 638.417 1714.07 635.85 1716 633.25C1717.93 630.584 1719.5 628.184 1720.7 626.05V624.05ZM1640.8 639.25H1673.5V648.05H1640.8V639.25ZM1655.2 618.95L1664.1 619.95C1663.1 625.017 1662 630.45 1660.8 636.25C1659.67 641.984 1658.43 647.75 1657.1 653.55C1655.83 659.35 1654.53 664.917 1653.2 670.25C1651.93 675.584 1650.73 680.384 1649.6 684.65L1641.8 680.55C1642.87 676.684 1644 672.217 1645.2 667.15C1646.47 662.084 1647.7 656.75 1648.9 651.15C1650.1 645.55 1651.23 639.984 1652.3 634.45C1653.37 628.917 1654.33 623.75 1655.2 618.95ZM1646.1 677.95L1651.4 671.35C1655 673.484 1658.73 675.917 1662.6 678.65C1666.47 681.317 1670.07 684.05 1673.4 686.85C1676.8 689.65 1679.47 692.317 1681.4 694.85L1675.7 702.45C1673.77 699.917 1671.17 697.184 1667.9 694.25C1664.63 691.317 1661.1 688.417 1657.3 685.55C1653.5 682.684 1649.77 680.15 1646.1 677.95ZM1670.2 639.25H1671.8L1673.4 638.95L1679.1 640.05C1678.3 652.984 1676.57 664.117 1673.9 673.45C1671.3 682.717 1667.77 690.517 1663.3 696.85C1658.9 703.117 1653.5 708.184 1647.1 712.05C1646.5 710.85 1645.63 709.517 1644.5 708.05C1643.43 706.584 1642.4 705.384 1641.4 704.45C1647 701.517 1651.8 697.184 1655.8 691.45C1659.87 685.65 1663.1 678.55 1665.5 670.15C1667.9 661.75 1669.47 652.05 1670.2 641.05V639.25Z" stroke="#707478" stroke-width="4" mask="url(#path-14-outside-4_513_2022)"/>
</svg>
