<svg preserveAspectRatio="none" width="100%" height="100%" overflow="visible" style="display: block;" viewBox="0 0 712 712" fill="none" xmlns="http://www.w3.org/2000/svg">
<g id="Icon">
<g id="Vector">
<path d="M612.951 475.673C582.858 498.718 550.706 518.737 516.92 534.415C567.87 474.389 608.631 402.23 639.721 335.336C629.966 315.519 618.173 296.911 604.682 279.715L604.162 279.471C572.817 341.036 536.472 400.712 492.294 453.425C486.944 459.677 481.488 465.897 475.915 472.043C509.415 372.721 530.018 269.865 545.802 166.881C529.817 154.876 512.663 144.325 494.502 135.472C478.24 217.662 458.04 299.087 432.204 377.837C420.942 411.953 408.501 445.581 394.341 477.786L384.544 60.6172C375.139 59.7574 365.628 59.3328 356.012 59.3328C346.395 59.3328 336.884 59.7468 327.479 60.6172L317.671 477.913C303.341 445.453 291.209 411.751 279.809 377.848C253.972 299.087 233.773 217.662 217.511 135.483C199.349 144.335 182.196 154.886 166.21 166.892C182.005 269.95 202.629 372.891 236.172 472.276C230.588 466.109 225.1 459.836 219.719 453.435C175.551 400.723 139.196 341.047 107.85 279.482L107.33 279.726C93.8072 296.953 82.0143 315.593 72.2594 335.421C82.5981 357.871 93.6374 380.035 105.536 401.901C130.884 446.716 160.361 493.124 195.273 534.521C161.412 518.822 129.207 498.781 99.0615 475.684C87.7569 491.425 77.8533 508.228 69.5633 525.976C222.861 696.363 489.109 696.395 642.439 525.976C634.138 508.228 624.245 491.425 612.94 475.684L612.951 475.673Z" fill="url(#paint0_radial_0_16)" fill-opacity="0.1"/>
<path d="M356.011 60.6346C365.196 60.6346 374.281 61.0247 383.268 61.8113L393.04 477.816L395.533 478.309C409.714 446.057 422.169 412.389 433.44 378.246L433.441 378.243C459.123 299.963 479.234 219.052 495.447 137.387C512.736 145.931 529.099 156.025 544.395 167.455C528.632 270.146 508.064 372.654 474.681 471.627L476.88 472.918C482.462 466.761 487.926 460.531 493.283 454.271L493.292 454.262C537.178 401.898 573.33 342.695 604.522 281.628C617.473 298.283 628.826 316.252 638.276 335.353C607.247 402.028 566.631 473.836 515.928 533.572L517.468 535.595C550.946 520.06 582.812 500.278 612.659 477.531C623.429 492.662 632.892 508.767 640.89 525.745C488.181 694.734 223.788 694.703 71.1101 525.745C79.098 508.769 88.57 492.663 99.3396 477.533C129.243 500.337 161.168 520.143 194.725 535.702L196.268 533.681C161.434 492.376 132.005 446.052 106.68 401.279C94.896 379.623 83.9555 357.673 73.7029 335.44C83.154 316.326 94.5083 298.324 107.489 281.637C138.682 342.705 174.845 401.908 218.72 454.271L218.722 454.273C224.115 460.687 229.614 466.972 235.207 473.15L237.405 471.86C203.98 372.824 183.39 270.231 167.616 167.466C182.913 156.036 199.276 145.942 216.565 137.397C232.778 219.052 252.889 299.963 278.571 378.254L278.575 378.263C289.98 412.181 302.127 445.925 316.48 478.438L318.972 477.943L328.754 61.8103C337.74 61.0152 346.825 60.6346 356.011 60.6346Z" stroke="url(#paint1_linear_0_16)" stroke-opacity="0.6" stroke-width="2.60397"/>
</g>
</g>
<defs>
<radialGradient id="paint0_radial_0_16" cx="0" cy="0" r="1" gradientUnits="userSpaceOnUse" gradientTransform="translate(356.365 59.6412) rotate(90) scale(593.827 572.279)">
<stop stop-color="#7239F9" stop-opacity="0"/>
<stop offset="1" stop-color="#7239F9"/>
</radialGradient>
<linearGradient id="paint1_linear_0_16" x1="356.001" y1="59.3328" x2="356.001" y2="653.779" gradientUnits="userSpaceOnUse">
<stop stop-color="white"/>
<stop offset="1" stop-color="white" stop-opacity="0"/>
</linearGradient>
</defs>
</svg>
