<svg width="1093" height="256" viewBox="0 0 1093 256" fill="none" xmlns="http://www.w3.org/2000/svg">
<path fill-rule="evenodd" clip-rule="evenodd" d="M926.001 75.5748C961.294 75.5748 979.136 102.329 979.136 130.031L979.135 130.231C979.125 132.722 979.024 157.83 979.016 165.433L979.015 166.329C979.015 198.454 960.026 224 927.707 224C893.111 224 879.406 192.251 879.135 191.432L879.131 191.416H902.989C903.17 191.666 908.907 201.908 926.648 201.908C946.606 201.908 956.584 187.873 956.584 168.026C949.22 176.732 937.964 180.206 925.84 180.206C897.811 180.206 874.49 156.606 874.49 127.995C874.49 98.1164 897.811 75.5748 926.001 75.5748ZM450.594 32L450.595 32.2008C450.611 36.4887 450.872 108.174 450.883 122.758L450.883 123.602C450.883 156.646 432.015 180.016 397.349 180.016C369.15 180.016 346 156.646 346 128.045C346 98.1663 369.15 75.8443 398.377 75.8443C408.818 75.811 418.961 79.2978 427.173 85.7324L427.644 86.1068V32H450.594ZM702.382 75.6052C735.4 75.6052 751.107 101.48 751.107 127.306C751.174 130.134 751.026 132.962 750.666 135.766L750.538 136.7H678.074C678.074 143.228 684.251 158.123 702.92 158.123C720.308 158.123 725.155 147.596 725.25 147.385L725.252 147.382H749.36C747.026 159.001 731.129 179.965 703.708 179.965C669.683 179.965 653.967 151.384 653.967 127.296C653.967 101.62 669.683 75.6052 702.382 75.6052ZM507.961 75.6052C540.979 75.6052 556.696 101.48 556.696 127.306C556.763 130.134 556.615 132.962 556.255 135.766L556.127 136.7H483.653C483.653 143.228 489.84 158.123 508.5 158.123C525.896 158.123 530.735 147.596 530.83 147.385L530.831 147.382H554.95C552.615 159.001 536.719 179.965 509.298 179.965C475.271 179.965 459.545 151.384 459.545 127.296C459.545 101.62 475.271 75.6052 507.961 75.6052ZM1040.82 75.8441C1070.57 75.8441 1093 98.3358 1093 128.255C1092.61 156.526 1069.8 179.348 1041.54 179.738C1012.72 180.137 989.034 157.087 988.634 128.255C988.634 98.3758 1011.07 75.8441 1040.82 75.8441ZM579.996 77.8712L605.879 151.125L631.654 77.8712H656.819L620.199 177.7H591.461L554.84 77.8712H579.996ZM812.814 75.5451C842.569 75.5451 864.991 98.1167 864.991 127.995V177.669H840.844V127.536C840.844 110.714 829.218 97.8971 812.774 97.8971C796.06 97.8971 784.694 110.436 784.694 127.536V177.669H760.627V127.955C760.627 98.0768 783.059 75.5451 812.814 75.5451ZM1040.82 97.8766C1024.54 97.8766 1012.71 111.174 1012.71 127.826C1012.71 143.806 1024.56 157.928 1040.34 158.209L1040.82 158.213V158.173C1056.83 158.173 1068.92 143.927 1068.92 127.826C1068.92 111.434 1056.79 97.8766 1040.82 97.8766ZM927.028 97.8369C910.314 97.8369 898.589 111.873 898.589 128.154C898.589 143.708 911.201 158.163 926.688 158.163L926.672 158.163L927.179 158.159C944.143 157.873 956.12 143.635 956.36 128.451L956.364 127.986C956.364 112.053 944.4 97.8369 927.028 97.8369ZM398.636 97.9068C381.952 97.9068 370.247 111.913 370.247 128.174C370.247 143.688 382.83 158.123 398.307 158.123C415.65 158.123 427.924 143.478 427.924 128.005C427.924 112.103 415.979 97.9068 398.636 97.9068ZM702.871 97.8673C686.393 97.8673 678.238 110.244 678.076 117.553L678.074 117.772H727.008C727.008 110.495 719.514 97.8673 702.871 97.8673ZM508.42 97.8673C491.932 97.8673 483.777 110.244 483.616 117.553L483.613 117.772H532.548C532.548 110.495 525.073 97.8673 508.42 97.8673Z" fill="#131415"/>
<path fill-rule="evenodd" clip-rule="evenodd" d="M144.892 256H0V219.429H145.122C195.526 219.429 237.167 178.977 237.457 128.531C237.7 77.9882 196.966 36.8166 146.475 36.573C146.361 36.572 146.248 36.572 146.133 36.572H0V0H146.133C216.835 0.0832093 274.083 57.5247 274 128.301C274 128.307 274 128.314 274 128.321C273.8 199.068 215.575 255.96 144.892 255.96" fill="black"/>
<path fill-rule="evenodd" clip-rule="evenodd" d="M71.8487 256H0V219.429H72.1292C122.54 219.429 164.204 178.977 164.495 128.531C164.727 77.9762 123.962 36.8046 73.4426 36.573C73.3384 36.572 73.2352 36.572 73.131 36.572H0V0H73.131C143.849 0.105265 201.094 57.5528 201 128.321C200.8 199.068 142.555 255.96 71.8487 255.96" fill="black"/>
<path fill-rule="evenodd" clip-rule="evenodd" d="M0 256V219.429C50.469 219.368 91.3678 178.47 91.429 128C91.3739 77.528 50.472 36.6271 0 36.572V0C70.6577 0.0832093 127.917 57.3423 128 128C127.917 198.658 70.6577 255.917 0 256Z" fill="black"/>
</svg>
