<svg width="145" height="131" viewBox="0 0 145 131" fill="none" xmlns="http://www.w3.org/2000/svg">
<path d="M25.2179 103.255L12.4204 75.6254L17.7445 71.093L42.1994 74.5117L63.1941 93.0789L69.7735 117.634L25.2179 103.255Z" fill="#C3952C"/>
<path d="M125.037 28.6129L63.1941 93.0789L70.0187 118.549L128.885 57.0055L125.037 28.6129Z" fill="#976301"/>
<path d="M12.4204 75.6254L11.0339 72.8911L17.9021 66.8007L44.0267 71.5701L61.9681 88.5035L63.2349 93.2314L41.5485 74.5226L17.9379 71.2046L12.4204 75.6254Z" fill="#D0A835"/>
<path d="M124.4 22.5722L61.8156 88.5444L63.2349 93.2314L125.037 28.6129L124.4 22.5722Z" fill="#AF7D08"/>
<path d="M109.354 11.5649L44.0267 71.5701L61.9681 88.5035L124.44 22.7247L109.354 11.5649Z" fill="#EFCB17"/>
<path d="M88.0338 10.0852L17.9021 66.8007L44.0267 71.5701L109.354 11.5649L88.0338 10.0852Z" fill="#FBF102"/>
<path d="M43.8551 48.3575C42.9094 49.7086 43.8281 51.3071 43.8281 51.3071C45.1486 53.3071 47.7249 53.6491 49.5667 53.2022C51.4086 52.7552 52.4737 51.6059 54.831 49.6666C57.1884 47.7272 58.3542 45.7336 58.2513 43.5193C58.1483 41.3049 54.9324 33.5733 55.3907 32.8432C55.8489 32.1132 70.3691 21.6373 70.3691 21.6373L72.2869 26.3543C73.194 27.9094 75.7305 30.0552 79.0633 28.4618C83.3887 26.3937 83.0855 23.9512 82.7885 22.2327C82.5509 20.8579 81.5063 20.4978 80.5913 20.743L77.9569 21.8927C77.5928 20.737 76.5687 17.6877 75.3853 14.7354C74.2019 11.7832 70.9176 12.4998 69.4234 13.2271C63.8577 17.0614 52.1065 25.2231 49.6272 27.1951C47.1478 29.1672 45.8478 29.5621 45.7275 32.1632C45.6071 34.7643 49.2317 44.021 49.2317 44.021C49.2317 44.021 44.8008 47.0064 43.8551 48.3575Z" fill="#3C2A20"/>
</svg>
