<svg width="1024" height="184" viewBox="0 0 1024 184" fill="none" xmlns="http://www.w3.org/2000/svg">
<path d="M552.337 169.22C582.082 169.22 605.518 146.707 605.518 117.89C605.518 89.0733 582.082 66.5603 552.337 66.5603C522.591 66.5603 499.155 89.0733 499.155 117.89C499.155 147.157 522.591 169.22 552.337 169.22ZM552.337 84.5707C571.266 84.5707 585.688 98.979 585.688 117.89C585.688 137.701 571.716 151.66 552.337 151.66C532.957 151.66 518.986 137.251 518.986 117.89C518.986 98.5288 532.957 84.5707 552.337 84.5707ZM393.694 167.869V68.8116H405.412L462.65 131.848V68.8116H482.029V167.869H470.762L413.525 104.382V167.869H393.694V167.869ZM646.981 167.419L609.123 68.8115H629.855L630.306 70.1623L653.291 132.749L678.98 68.8115H689.797V69.2619L715.035 132.749L738.021 68.8116H758.752L720.894 167.869H710.078L683.938 101.681L657.798 167.869L646.981 167.419H646.981Z" fill="black"/>
<path d="M841.679 178.675V60.7069L743.879 5.32484H791.202L865.115 47.1991V122.843L985.449 5.32484H1018.8L841.679 178.675Z" fill="black"/>
<path d="M199.447 167.869V68.8116H272.91V85.9215H218.376V108.435H267.952V125.094H218.376V150.309H272.91V167.419H199.447V167.869V167.869ZM5.20053 167.869V68.8116H77.3107V85.9215H24.1295V108.885H72.8039V125.995H24.1295V167.869H5.20053H5.20053ZM153.928 127.345C168.35 123.293 176.913 112.487 176.913 98.979C176.913 81.4189 162.04 68.8116 141.309 68.8116H98.4931V167.869H117.873V128.696H133.196L159.787 167.869H181.871L153.928 127.345ZM117.873 111.586V85.9215H140.858C151.224 85.9215 157.533 90.8743 157.533 98.979C157.533 107.084 151.224 111.586 140.858 111.586H117.873V111.586ZM295.444 167.869V68.8116H368.906V85.9215H314.373V108.435H363.949V125.094H314.373V150.309H368.906V167.419H295.444V167.869V167.869Z" fill="black"/>
</svg>
