<svg width="19" height="18" viewBox="0 0 19 18" fill="none" xmlns="http://www.w3.org/2000/svg">
<path fill-rule="evenodd" clip-rule="evenodd" d="M4.92884 10.8614C4.92756 10.8612 4.92628 10.861 4.92499 10.8609L5.27523 11.248C5.51824 11.5166 5.49642 11.9316 5.22657 12.1732C4.95725 12.4143 4.5433 12.391 4.3028 12.1211L1.8077 9.32084C-0.308417 7.2047 -0.308417 3.77376 1.8077 1.65765C3.92382 -0.458469 7.35472 -0.458469 9.47083 1.65765C11.587 -0.458469 15.0179 -0.458479 17.134 1.65765C19.2501 3.77376 19.2501 7.2047 17.134 9.32084L10.2108 17.1341C9.81792 17.5775 9.12522 17.5763 8.73379 17.1315L6.46514 14.5531C6.22304 14.2779 6.24629 13.8595 6.51739 13.6129C6.77281 13.3805 7.15856 13.3819 7.41193 13.6046L9.10561 15.4757C9.30118 15.6918 9.64048 15.6918 9.83605 15.4757L16.3593 8.26912C17.7689 6.712 17.7095 4.32302 16.2243 2.83786L16.089 2.70262C14.55 1.16362 12.0548 1.16362 10.5158 2.70262L9.47083 3.7476L8.42591 2.70262C6.88688 1.16362 4.39167 1.16362 2.85267 2.70262L2.71743 2.83786C1.23229 4.32302 1.17287 6.712 2.58236 8.26912L4.92884 10.8614Z" fill="white"/>
</svg>
