<svg width="24" height="24" viewBox="0 0 24 24" fill="none" xmlns="http://www.w3.org/2000/svg">
<path fill-rule="evenodd" clip-rule="evenodd" d="M8 6.8999C7.66863 6.8999 7.4 7.16853 7.4 7.4999C7.4 7.83127 7.66863 8.0999 8 8.0999H13C13.3314 8.0999 13.6 7.83127 13.6 7.4999C13.6 7.16853 13.3314 6.8999 13 6.8999H8ZM8 9.8999C7.66863 9.8999 7.4 10.1685 7.4 10.4999C7.4 10.8313 7.66863 11.0999 8 11.0999H15C15.3314 11.0999 15.6 10.8313 15.6 10.4999C15.6 10.1685 15.3314 9.8999 15 9.8999H8Z" fill="white"/>
<path fill-rule="evenodd" clip-rule="evenodd" d="M13.3431 3.59992C13.9832 3.59992 14.2054 3.60377 14.408 3.65241C14.6019 3.69896 14.7872 3.77573 14.9572 3.8799C15.1349 3.98877 15.2947 4.14318 15.7473 4.59575L17.4042 6.25261C17.8567 6.70518 18.0111 6.86505 18.12 7.0427C18.2242 7.2127 18.301 7.39804 18.3475 7.59191C18.3961 7.79451 18.4 8.01675 18.4 8.65677V16.9999C18.4 17.7099 18.3995 18.2062 18.3679 18.593C18.3369 18.9728 18.2789 19.1938 18.1929 19.3625C18.0108 19.72 17.7201 20.0106 17.3626 20.1928C17.1939 20.2788 16.9729 20.3368 16.5931 20.3678C16.2064 20.3994 15.71 20.3999 15 20.3999H9C8.29004 20.3999 7.79365 20.3994 7.40687 20.3678C7.02709 20.3368 6.80613 20.2788 6.63742 20.1928C6.27991 20.0106 5.98925 19.72 5.80709 19.3625C5.72113 19.1938 5.6631 18.9728 5.63207 18.593C5.60047 18.2062 5.6 17.7099 5.6 16.9999V6.99992C5.6 6.28995 5.60047 5.79356 5.63207 5.40678C5.6631 5.02701 5.72113 4.80604 5.80709 4.63734C5.98925 4.27983 6.27991 3.98916 6.63742 3.80701C6.80613 3.72104 7.02709 3.66301 7.40687 3.63199C7.79365 3.60038 8.29004 3.59992 9 3.59992H13.3431ZM14.6881 2.48557C14.3303 2.39966 13.9573 2.39976 13.4125 2.39991L13.3431 2.39992H8.9742C8.29602 2.39991 7.75055 2.39991 7.30915 2.43597C6.85516 2.47306 6.4587 2.55128 6.09263 2.7378C5.50933 3.035 5.03509 3.50924 4.73788 4.09255C4.55136 4.45862 4.47315 4.85508 4.43606 5.30906C4.39999 5.75046 4.4 6.29593 4.4 6.97411V6.97412V17.0257C4.4 17.7039 4.39999 18.2493 4.43606 18.6907C4.47315 19.1447 4.55136 19.5412 4.73788 19.9073C5.03509 20.4906 5.50933 20.9648 6.09263 21.262C6.4587 21.4485 6.85516 21.5267 7.30915 21.5638C7.75056 21.5999 8.29606 21.5999 8.97427 21.5999H15.0257C15.7039 21.5999 16.2494 21.5999 16.6909 21.5638C17.1448 21.5267 17.5413 21.4485 17.9074 21.262C18.4907 20.9648 18.9649 20.4906 19.2621 19.9073C19.4486 19.5412 19.5269 19.1447 19.5639 18.6907C19.6 18.2493 19.6 17.7039 19.6 17.0257V8.65677V8.58744V8.58742C19.6002 8.04259 19.6003 7.66962 19.5143 7.31177C19.4384 6.99546 19.3132 6.69307 19.1432 6.41571C18.9509 6.10192 18.6871 5.83825 18.3017 5.4531L18.2527 5.40408L16.5958 3.74723L16.5468 3.69819C16.1617 3.31283 15.898 3.04902 15.5842 2.85673C15.3068 2.68676 15.0045 2.56151 14.6881 2.48557ZM8 12.8999C7.66863 12.8999 7.4 13.1685 7.4 13.4999C7.4 13.8313 7.66863 14.0999 8 14.0999H15C15.3314 14.0999 15.6 13.8313 15.6 13.4999C15.6 13.1685 15.3314 12.8999 15 12.8999H8Z" fill="white"/>
</svg>
