<svg width="422" height="329" viewBox="0 0 422 329" fill="none" xmlns="http://www.w3.org/2000/svg">
<g clip-path="url(#clip0)">
<rect width="422" height="329" fill="white"/>
<rect y="65.3545" width="233.192" height="233.192" rx="41.9016" transform="rotate(-15 0 65.3545)" fill="url(#paint0_linear)"/>
<path d="M160.562 212.552L125.384 81.2673" stroke="white" stroke-width="4.55453"/>
<path d="M161.118 213.14L159.971 80.9587" stroke="white" stroke-width="4.55453"/>
<path d="M160.775 213.612L195.257 93.0523" stroke="white" stroke-width="4.55453"/>
<path d="M160.963 213.677L213.587 121.288" stroke="white" stroke-width="4.55453"/>
<path d="M160.514 215.668L210.954 163.959" stroke="white" stroke-width="4.55453"/>
<path d="M159.794 212.758L124.616 81.4731" stroke="white" stroke-width="4.55453"/>
<path d="M159.607 213.545L94.5091 98.4992" stroke="white" stroke-width="4.55453"/>
<path d="M160.139 213.782L69.9972 126.616" stroke="white" stroke-width="4.55453"/>
<path d="M160.009 213.933L68.2408 160.234" stroke="white" stroke-width="4.55453"/>
<path d="M162.713 215.078L91.8566 195.871" stroke="white" stroke-width="4.55453"/>
<rect x="135.751" y="214.759" width="48.7334" height="4.09907" transform="rotate(-15 135.751 214.759)" fill="white"/>
<rect x="189.775" y="72" width="233.192" height="233.192" rx="41.9016" transform="rotate(4.37168 189.775 72)" fill="url(#paint1_linear)"/>
<path d="M292.423 264.122L302.783 128.601" stroke="white" stroke-width="4.55453"/>
<path d="M292.752 264.861L335.514 139.782" stroke="white" stroke-width="4.55453"/>
<path d="M292.272 265.192L364.791 162.896" stroke="white" stroke-width="4.55453"/>
<path d="M292.428 265.316L372.718 195.613" stroke="white" stroke-width="4.55453"/>
<path d="M291.344 267.045L356.08 234.995" stroke="white" stroke-width="4.55453"/>
<path d="M291.63 264.062L301.99 128.541" stroke="white" stroke-width="4.55453"/>
<path d="M291.192 264.742L267.94 134.617" stroke="white" stroke-width="4.55453"/>
<path d="M291.616 265.142L235.49 153.011" stroke="white" stroke-width="4.55453"/>
<path d="M291.443 265.241L222.682 184.143" stroke="white" stroke-width="4.55453"/>
<path d="M293.614 267.219L233.14 225.596" stroke="white" stroke-width="4.55453"/>
<rect x="268.285" y="257.974" width="48.7334" height="4.09907" transform="rotate(4.37168 268.285 257.974)" fill="white"/>
</g>
<defs>
<linearGradient id="paint0_linear" x1="9.55712" y1="75.6792" x2="9.55712" y2="289.757" gradientUnits="userSpaceOnUse">
<stop stop-color="#57C5FA"/>
<stop offset="1" stop-color="#0C6DD1"/>
</linearGradient>
<linearGradient id="paint1_linear" x1="199.332" y1="82.3248" x2="199.332" y2="296.402" gradientUnits="userSpaceOnUse">
<stop stop-color="#57C5FA"/>
<stop offset="1" stop-color="#0C6DD1"/>
</linearGradient>
<clipPath id="clip0">
<rect width="422" height="329" fill="white"/>
</clipPath>
</defs>
</svg>
