<svg width="24" height="24" viewBox="0 0 24 24" fill="none" xmlns="http://www.w3.org/2000/svg">
<path fill-rule="evenodd" clip-rule="evenodd" d="M12.0024 16.989C11.4502 16.989 11.0024 16.5413 11.0024 15.989C11.0024 15.4367 11.4502 14.989 12.0024 14.989C12.5547 14.989 13.0024 15.4367 13.0024 15.989C13.0024 16.5413 12.5547 16.989 12.0024 16.989ZM12.0024 13.989C11.4502 13.989 11.0024 13.5413 11.0024 12.989V7.98901C11.0024 7.43673 11.4502 6.98901 12.0024 6.98901C12.5547 6.98901 13.0024 7.43673 13.0024 7.98901V12.989C13.0024 13.5413 12.5547 13.989 12.0024 13.989Z" fill="white"/>
<path fill-rule="evenodd" clip-rule="evenodd" d="M3.18679 10.0848C3.37991 9.19886 3.71127 8.32729 4.18889 7.50004C6.67417 3.1954 12.1785 1.72053 16.4831 4.20581C20.7878 6.69109 22.2626 12.1954 19.7773 16.5C17.4959 20.4515 12.6705 22.0185 8.56436 20.3265C8.41056 20.2632 8.19574 20.1594 7.99807 20.0602C7.7098 19.9156 7.59837 19.5643 7.74289 19.276C7.89087 18.9808 8.25108 18.862 8.55161 18.9989C8.89484 19.1552 9.34135 19.3433 9.7049 19.445C10.4312 19.6686 11.2027 19.7889 12.0024 19.7889C16.3102 19.7889 19.8024 16.2967 19.8024 11.9889C19.8024 7.68109 16.3102 4.18891 12.0024 4.18891C7.88297 4.18891 4.50941 7.38231 4.2222 11.4286C4.21355 11.49 4.20531 11.5494 4.19756 11.6062C4.1543 11.9227 3.87198 12.1522 3.55354 12.1261C3.23459 12.0999 2.99382 11.8263 3.01691 11.5071C3.04896 11.0641 3.10416 10.4638 3.18679 10.0848ZM4.48166 14.0648C4.42887 13.8978 4.37807 13.729 4.33364 13.5777C4.2442 13.273 3.93348 13.0874 3.62415 13.1591C3.31692 13.2304 3.11978 13.5306 3.18442 13.8393C3.23973 14.1035 3.30794 14.4053 3.36904 14.6074C3.64941 15.5343 4.07875 16.4171 4.64654 17.2167C4.88259 17.5491 5.52052 18.2037 5.93451 18.6176C6.14686 18.83 6.48558 18.8415 6.71491 18.6477C6.98022 18.4234 6.99278 18.0183 6.74692 17.7728C6.34529 17.3718 5.81466 16.8199 5.71912 16.6115C5.16183 15.8553 4.7378 14.9948 4.48166 14.0648Z" fill="white"/>
</svg>
